argv[1]: care.mid.
argv[2]: care.it.
MIDI file header
----------------
Length    :0x0000000a.
Format    :0x0001.
NumTracks :0x0011.
PPQN      :0x0180.

Track #0. (zero-based)
----------
len :  0x00000126.
time:  00000000:Special non-MIDI event: Time Signature  : (0x04,0x02,0x18,0x08)
time:  00000000:Special non-MIDI event: Tempo           : (0x07,0x53,0x00)
time:  00000000:Special non-MIDI event: Text message type 0x03,len 0x08
"SEQ00001"
time:  00000000:Sysex Message, len 0x00000010
Manufacturer ID 0x0f = Ensoniq             
f0 0f 30 01 00 41 00 00 
00 00 00 7f 5f 00 00 00 
f7 
time:  00000000:Sysex Message, len 0x00000042
Manufacturer ID 0x0f = Ensoniq             
f0 0f 10 01 7f 15 2c 00 
00 00 00 2c 00 00 02 00 
0c 00 1c 00 00 00 00 58 
02 00 00 00 00 00 00 00 
00 00 00 00 40 00 1c 01 
00 64 00 40 02 00 47 00 
64 00 00 42 00 1c 02 00 
64 00 08 03 00 00 00 00 
00 00 f7 
time:  00000000:Sysex Message, len 0x000000ab
Manufacturer ID 0x0f = Ensoniq             
f0 0f 10 01 7f 12 00 01 
00 00 00 5e 00 00 00 00 
31 30 19 4a 04 00 00 0c 
10 00 45 00 7c 03 00 00 
00 1c 02 00 1e 00 68 78 
07 69 08 25 00 00 43 7c 
51 1b 07 75 64 3d 43 06 
00 00 00 18 07 14 01 00 
00 00 38 00 0c 02 00 3c 
00 14 02 00 01 00 2c 02 
00 64 00 00 00 00 1c 00 
10 03 00 65 00 28 03 00 
3b 00 58 02 00 72 00 60 
00 00 0a 00 54 01 00 13 
00 10 03 00 47 00 00 00 
00 54 00 44 00 00 7f 01 
22 00 00 00 00 7c 7f 0f 
7f 01 02 00 00 7f 7f 7f 
7f 0f 00 00 00 00 00 42 
00 00 00 00 7f 7f 7f 7f 
0f 7f 7f 7f 7f 0f 49 33 
03 5f 00 f7 
time:  00000000:Special non-MIDI event: End of Track.

Track #1. (zero-based)
----------
len :  0x000002b1.
time:  00000000:controller:       (0xb0,0x77,0x00) Unknown..
time:  00000000:controller:       (0xb0,0x00,0x00) Bank Select.
time:  00000000:controller:       (0xb0,0x20,0x00) Bank Select (fine).
time:  00000000:program change:   (0xc0,0x01).
time:  00000000:Sysex Message, len 0x00000048
Manufacturer ID 0x0f = Ensoniq             
f0 0f 10 01 7f 05 02 7f 
7f 01 00 00 03 00 00 00 
00 27 00 00 00 00 7f 01 
7d 03 00 00 00 00 7a 03 
40 00 01 02 04 40 00 01 
02 04 40 00 01 02 04 00 
00 00 00 04 6c 2a 00 00 
00 00 00 7c 03 00 00 7e 
7d 07 04 01 00 00 08 00 
f7 
time:  00000000:controller:       (0xb0,0x07,0x7f) Volume (coarse).
time:  00000000:controller:       (0xb0,0x0a,0x40) Pan position (coarse).
time:  00000000:controller:       (0xb0,0x01,0x00) Modulation Wheel (coarse).
time:  00000000:controller:       (0xb0,0x0b,0x7f) Expression (coarse).
time:  00000000:controller:       (0xb0,0x46,0x00) Sound Variation.
time:  00000000:pitch wheel:      (0xe0,0x00,0x40).
time:  00000000:note on:          (0x90,0x25,0x78) C#2.
time:  00000098:note off:         (0x80,0x25,0x40) C#2.
time:  000000c0:note on:          (0x90,0x25,0x73) C#2.
time:  00000158:note off:         (0x80,0x25,0x40) C#2.
time:  00000180:note on:          (0x90,0x25,0x73) C#2.
time:  00000218:note off:         (0x80,0x25,0x40) C#2.
time:  00000240:note on:          (0x90,0x25,0x7a) C#2.
time:  000002d8:note off:         (0x80,0x25,0x40) C#2.
time:  00000300:note on:          (0x90,0x25,0x75) C#2.
time:  00000398:note off:         (0x80,0x25,0x40) C#2.
time:  000003c0:note on:          (0x90,0x25,0x75) C#2.
time:  00000458:note off:         (0x80,0x25,0x40) C#2.
time:  00000480:note on:          (0x90,0x25,0x78) C#2.
time:  00000518:note off:         (0x80,0x25,0x40) C#2.
time:  00000540:note on:          (0x90,0x2a,0x7d) F#2.
time:  000005d8:note off:         (0x80,0x2a,0x40) F#2.
time:  00000600:note on:          (0x90,0x25,0x7a) C#2.
time:  00000698:note off:         (0x80,0x25,0x40) C#2.
time:  000006c0:note on:          (0x90,0x25,0x7a) C#2.
time:  00000758:note off:         (0x80,0x25,0x40) C#2.
time:  00000780:note on:          (0x90,0x2a,0x7d) F#2.
time:  00000818:note off:         (0x80,0x2a,0x40) F#2.
time:  00000840:note on:          (0x90,0x25,0x7a) C#2.
time:  000008d8:note off:         (0x80,0x25,0x40) C#2.
time:  00000900:note on:          (0x90,0x25,0x7a) C#2.
time:  00000998:note off:         (0x80,0x25,0x40) C#2.
time:  000009c0:note on:          (0x90,0x25,0x75) C#2.
time:  00000a58:note off:         (0x80,0x25,0x40) C#2.
time:  00000a80:note on:          (0x90,0x2a,0x7f) F#2.
time:  00000b18:note off:         (0x80,0x2a,0x40) F#2.
time:  00000b40:note on:          (0x90,0x2a,0x7f) F#2.
time:  00000bd8:note off:         (0x80,0x2a,0x40) F#2.
time:  00000c00:note on:          (0x90,0x25,0x7a) C#2.
time:  00000c98:note off:         (0x80,0x25,0x40) C#2.
time:  00000cc0:note on:          (0x90,0x2a,0x7f) F#2.
time:  00000d58:note off:         (0x80,0x2a,0x40) F#2.
time:  00000d80:note on:          (0x90,0x25,0x7a) C#2.
time:  00000e18:note off:         (0x80,0x25,0x40) C#2.
time:  00000e40:note on:          (0x90,0x25,0x7a) C#2.
time:  00000ed8:note off:         (0x80,0x25,0x40) C#2.
time:  00000f00:note on:          (0x90,0x25,0x7a) C#2.
time:  00000f98:note off:         (0x80,0x25,0x40) C#2.
time:  00000fc0:note on:          (0x90,0x2a,0x7d) F#2.
time:  00001058:note off:         (0x80,0x2a,0x40) F#2.
time:  00001080:note on:          (0x90,0x25,0x7a) C#2.
time:  00001118:note off:         (0x80,0x25,0x40) C#2.
time:  00001140:note on:          (0x90,0x2a,0x7d) F#2.
time:  000011d8:note off:         (0x80,0x2a,0x40) F#2.
time:  00001200:note on:          (0x90,0x25,0x7d) C#2.
time:  00001298:note off:         (0x80,0x25,0x40) C#2.
time:  000012c0:note on:          (0x90,0x2a,0x7f) F#2.
time:  00001358:note off:         (0x80,0x2a,0x40) F#2.
time:  00001380:note on:          (0x90,0x2a,0x7f) F#2.
time:  00001418:note off:         (0x80,0x2a,0x40) F#2.
time:  00001440:note on:          (0x90,0x25,0x70) C#2.
time:  000014d8:note off:         (0x80,0x25,0x40) C#2.
time:  00001500:note on:          (0x90,0x25,0x78) C#2.
time:  00001598:note off:         (0x80,0x25,0x40) C#2.
time:  000015c0:note on:          (0x90,0x2a,0x7f) F#2.
time:  00001658:note off:         (0x80,0x2a,0x40) F#2.
time:  00001680:note on:          (0x90,0x2a,0x7d) F#2.
time:  00001718:note off:         (0x80,0x2a,0x40) F#2.
time:  00001740:note on:          (0x90,0x2a,0x7d) F#2.
time:  000017d8:note off:         (0x80,0x2a,0x40) F#2.
time:  00001800:note on:          (0x90,0x2a,0x7f) F#2.
time:  00001898:note off:         (0x80,0x2a,0x40) F#2.
time:  000018c0:note on:          (0x90,0x25,0x78) C#2.
time:  00001958:note off:         (0x80,0x25,0x40) C#2.
time:  00001980:note on:          (0x90,0x25,0x78) C#2.
time:  00001a18:note off:         (0x80,0x25,0x40) C#2.
time:  00001a40:note on:          (0x90,0x25,0x78) C#2.
time:  00001ad8:note off:         (0x80,0x25,0x40) C#2.
time:  00001b00:note on:          (0x90,0x2a,0x7f) F#2.
time:  00001b98:note off:         (0x80,0x2a,0x40) F#2.
time:  00001bc0:note on:          (0x90,0x25,0x78) C#2.
time:  00001c58:note off:         (0x80,0x25,0x40) C#2.
time:  00001c80:note on:          (0x90,0x25,0x78) C#2.
time:  00001d18:note off:         (0x80,0x25,0x40) C#2.
time:  00001d40:note on:          (0x90,0x2a,0x7f) F#2.
time:  00001dd8:note off:         (0x80,0x2a,0x40) F#2.
time:  00001e00:note on:          (0x90,0x2a,0x7f) F#2.
time:  00001e98:note off:         (0x80,0x2a,0x40) F#2.
time:  00001ec0:note on:          (0x90,0x25,0x78) C#2.
time:  00001f58:note off:         (0x80,0x25,0x40) C#2.
time:  00001f80:note on:          (0x90,0x2a,0x7f) F#2.
time:  00002018:note off:         (0x80,0x2a,0x40) F#2.
time:  00002040:note on:          (0x90,0x25,0x7d) C#2.
time:  000020d8:note off:         (0x80,0x25,0x40) C#2.
time:  00002100:note on:          (0x90,0x2a,0x7f) F#2.
time:  00002198:note off:         (0x80,0x2a,0x40) F#2.
time:  000021c0:note on:          (0x90,0x25,0x78) C#2.
time:  00002258:note off:         (0x80,0x25,0x40) C#2.
time:  00002280:note on:          (0x90,0x2a,0x7f) F#2.
time:  00002318:note off:         (0x80,0x2a,0x40) F#2.
time:  00002340:note on:          (0x90,0x2a,0x7f) F#2.
time:  000023d8:note off:         (0x80,0x2a,0x40) F#2.
time:  00002400:note on:          (0x90,0x2a,0x7d) F#2.
time:  00002498:note off:         (0x80,0x2a,0x40) F#2.
time:  000024c0:note on:          (0x90,0x2a,0x7d) F#2.
time:  00002558:note off:         (0x80,0x2a,0x40) F#2.
time:  00002580:note on:          (0x90,0x25,0x7d) C#2.
time:  00002618:note off:         (0x80,0x25,0x40) C#2.
time:  00002640:note on:          (0x90,0x25,0x7a) C#2.
time:  000026d8:note off:         (0x80,0x25,0x40) C#2.
time:  00002700:note on:          (0x90,0x2a,0x7d) F#2.
time:  00002798:note off:         (0x80,0x2a,0x40) F#2.
time:  000027c0:note on:          (0x90,0x2a,0x7d) F#2.
time:  00002858:note off:         (0x80,0x2a,0x40) F#2.
time:  00002880:note on:          (0x90,0x25,0x78) C#2.
time:  00002918:note off:         (0x80,0x25,0x40) C#2.
time:  00002940:note on:          (0x90,0x2a,0x7d) F#2.
time:  000029d8:note off:         (0x80,0x2a,0x40) F#2.
time:  00002a00:note on:          (0x90,0x2a,0x7f) F#2.
time:  00002a98:note off:         (0x80,0x2a,0x40) F#2.
time:  00002ac0:note on:          (0x90,0x2a,0x7a) F#2.
time:  00002b58:note off:         (0x80,0x2a,0x40) F#2.
time:  00002b80:note on:          (0x90,0x2a,0x7d) F#2.
time:  00002c18:note off:         (0x80,0x2a,0x40) F#2.
time:  00002c40:note on:          (0x90,0x25,0x73) C#2.
time:  00002cd8:note off:         (0x80,0x25,0x40) C#2.
time:  00002d00:note on:          (0x90,0x2a,0x7d) F#2.
time:  00002d98:note off:         (0x80,0x2a,0x40) F#2.
time:  00002dc0:note on:          (0x90,0x2a,0x7f) F#2.
time:  00002e58:note off:         (0x80,0x2a,0x40) F#2.
time:  00002e80:note on:          (0x90,0x2a,0x7d) F#2.
time:  00002f18:note off:         (0x80,0x2a,0x40) F#2.
time:  00002f40:note on:          (0x90,0x26,0x78) D-2.
time:  00002fd8:note off:         (0x80,0x26,0x40) D-2.
time:  00003000:Special non-MIDI event: End of Track.

Track #2. (zero-based)
----------
len :  0x0000010c.
time:  00000000:controller:       (0xb1,0x77,0x00) Unknown..
time:  00000000:controller:       (0xb1,0x00,0x00) Bank Select.
time:  00000000:controller:       (0xb1,0x20,0x1e) Bank Select (fine).
time:  00000000:program change:   (0xc1,0x3b).
time:  00000000:Sysex Message, len 0x00000048
Manufacturer ID 0x0f = Ensoniq             
f0 0f 10 01 7f 05 02 7f 
7f 01 01 00 03 00 00 00 
00 27 00 00 00 00 7f 01 
7d 03 00 00 00 00 7a 03 
40 00 01 02 04 40 00 01 
02 04 40 00 01 02 04 00 
00 00 00 04 6c 2a 00 00 
00 00 00 7c 03 00 00 50 
01 00 04 02 00 00 08 00 
f7 
time:  00000000:controller:       (0xb1,0x07,0x7f) Volume (coarse).
time:  00000000:controller:       (0xb1,0x0a,0x40) Pan position (coarse).
time:  00000000:controller:       (0xb1,0x01,0x00) Modulation Wheel (coarse).
time:  00000000:controller:       (0xb1,0x0b,0x68) Expression (coarse).
time:  00000000:controller:       (0xb1,0x46,0x00) Sound Variation.
time:  00000000:pitch wheel:      (0xe1,0x00,0x40).
time:  00000008:note on:          (0x91,0x30,0x7d) C-3.
time:  00000031:note off:         (0x81,0x37,0x40) G-3.
time:  00000482:note off:         (0x81,0x30,0x40) C-3.
time:  00000489:note on:          (0x91,0x32,0x75) D-3.
time:  0000052d:note off:         (0x81,0x32,0x40) D-3.
time:  00000610:note on:          (0x91,0x30,0x7a) C-3.
time:  00000a3f:note off:         (0x81,0x30,0x40) C-3.
time:  00000a5f:note on:          (0x91,0x32,0x78) D-3.
time:  00000af6:note off:         (0x81,0x32,0x40) D-3.
time:  00000bf3:note on:          (0x91,0x30,0x73) C-3.
time:  0000108f:note on:          (0x91,0x32,0x78) D-3.
time:  000010a2:note off:         (0x81,0x30,0x40) C-3.
time:  0000116e:note off:         (0x81,0x32,0x40) D-3.
time:  00001218:note on:          (0x91,0x38,0x70) G#3.
time:  00001684:note off:         (0x81,0x38,0x40) G#3.
time:  00001699:note on:          (0x91,0x37,0x55) G-3.
time:  0000178a:note off:         (0x81,0x37,0x40) G-3.
time:  0000183e:note on:          (0x91,0x30,0x70) C-3.
time:  00001c77:note off:         (0x81,0x30,0x40) C-3.
time:  00001c78:note on:          (0x91,0x32,0x73) D-3.
time:  00001d2f:note off:         (0x81,0x32,0x40) D-3.
time:  00001e00:note on:          (0x91,0x30,0x7d) C-3.
time:  0000225b:note off:         (0x81,0x30,0x40) C-3.
time:  0000227c:note on:          (0x91,0x32,0x78) D-3.
time:  00002302:note off:         (0x81,0x32,0x40) D-3.
time:  0000240f:note on:          (0x91,0x30,0x7a) C-3.
time:  0000286c:note off:         (0x81,0x30,0x40) C-3.
time:  00002881:note on:          (0x91,0x32,0x7a) D-3.
time:  0000290b:note off:         (0x81,0x32,0x40) D-3.
time:  000029fa:note on:          (0x91,0x38,0x75) G#3.
time:  00002eae:note on:          (0x91,0x37,0x64) G-3.
time:  00002eb8:note off:         (0x81,0x38,0x40) G#3.
time:  00002fff:note off:         (0x81,0x37,0x40) G-3.
time:  00003000:Special non-MIDI event: End of Track.

Track #3. (zero-based)
----------
len :  0x000000b2.
time:  00000000:controller:       (0xb2,0x77,0x00) Unknown..
time:  00000000:controller:       (0xb2,0x00,0x00) Bank Select.
time:  00000000:controller:       (0xb2,0x20,0x1d) Bank Select (fine).
time:  00000000:program change:   (0xc2,0x02).
time:  00000000:Sysex Message, len 0x00000048
Manufacturer ID 0x0f = Ensoniq             
f0 0f 10 01 7f 05 02 7f 
7f 01 02 00 03 00 00 00 
00 27 00 00 00 00 7f 01 
7d 03 00 00 00 00 7a 03 
40 00 01 02 04 40 00 01 
02 04 40 00 01 02 04 00 
00 00 00 04 6c 2a 00 00 
00 00 00 7c 03 00 00 7e 
11 00 04 03 00 00 08 00 
f7 
time:  00000000:controller:       (0xb2,0x07,0x7f) Volume (coarse).
time:  00000000:controller:       (0xb2,0x0a,0x40) Pan position (coarse).
time:  00000000:controller:       (0xb2,0x01,0x00) Modulation Wheel (coarse).
time:  00000000:controller:       (0xb2,0x0b,0x7f) Expression (coarse).
time:  00000000:controller:       (0xb2,0x46,0x00) Sound Variation.
time:  00000000:pitch wheel:      (0xe2,0x00,0x40).
time:  00000003:note on:          (0x92,0x41,0x75) F-4.
time:  0000046a:note on:          (0x92,0x43,0x6e) G-4.
time:  0000046d:note off:         (0x82,0x41,0x40) F-4.
time:  00000601:note on:          (0x92,0x41,0x73) F-4.
time:  00000614:note off:         (0x82,0x43,0x40) G-4.
time:  000009d9:note off:         (0x82,0x41,0x40) F-4.
time:  000009fa:note on:          (0x92,0x3c,0x30) C-4.
time:  000011f0:note on:          (0x92,0x3d,0x66) C#4.
time:  00001202:note off:         (0x82,0x3c,0x40) C-4.
time:  000017f3:note off:         (0x82,0x3d,0x40) C#4.
time:  000017f6:note on:          (0x92,0x3c,0x2e) C-4.
time:  00001cd9:note off:         (0x82,0x3c,0x40) C-4.
time:  00001d91:note on:          (0x92,0x37,0x78) G-3.
time:  00002a25:note off:         (0x82,0x37,0x40) G-3.
time:  00003000:Special non-MIDI event: End of Track.

Track #4. (zero-based)
----------
len :  0x00000004.
time:  00000000:Special non-MIDI event: End of Track.

Track #5. (zero-based)
----------
len :  0x00000004.
time:  00000000:Special non-MIDI event: End of Track.

Track #6. (zero-based)
----------
len :  0x00000004.
time:  00000000:Special non-MIDI event: End of Track.

Track #7. (zero-based)
----------
len :  0x00000004.
time:  00000000:Special non-MIDI event: End of Track.

Track #8. (zero-based)
----------
len :  0x00000004.
time:  00000000:Special non-MIDI event: End of Track.

Track #9. (zero-based)
----------
len :  0x00000004.
time:  00000000:Special non-MIDI event: End of Track.

Track #10. (zero-based)
----------
len :  0x00000004.
time:  00000000:Special non-MIDI event: End of Track.

Track #11. (zero-based)
----------
len :  0x00000004.
time:  00000000:Special non-MIDI event: End of Track.

Track #12. (zero-based)
----------
len :  0x00000004.
time:  00000000:Special non-MIDI event: End of Track.

Track #13. (zero-based)
----------
len :  0x00000004.
time:  00000000:Special non-MIDI event: End of Track.

Track #14. (zero-based)
----------
len :  0x00000004.
time:  00000000:Special non-MIDI event: End of Track.

Track #15. (zero-based)
----------
len :  0x00000004.
time:  00000000:Special non-MIDI event: End of Track.

Track #16. (zero-based)
----------
len :  0x00000004.
time:  00000000:Special non-MIDI event: End of Track.

