argv[1]: ts.mid.
argv[2]: ts.it.
MIDI file header
----------------
Length    :0x00000006.
Format    :0x0001.
NumTracks :0x000b.
PPQN      :0x00f0.
Track #0. (zero-based)
len    :0x000000ad.
time:  00000000:Special non-MIDI event: splik.
Time Signature  : (0x04,0x02,0x18,0x08)
time:  00000000:Special non-MIDI event: Tempo           : (0x07,0xa1,0x20)
time:  0001c2f0:Special non-MIDI event: Tempo           : (0x07,0xa1,0x20)
time:  0001c8ef:Special non-MIDI event: Tempo           : (0x07,0x90,0xfb)
time:  0001ceee:Special non-MIDI event: Tempo           : (0x07,0x81,0x1b)
time:  0001d4ed:Special non-MIDI event: Tempo           : (0x07,0x71,0x7c)
time:  0001daec:Special non-MIDI event: Tempo           : (0x07,0x62,0x1e)
time:  0001dd30:Special non-MIDI event: Tempo           : (0x07,0x53,0x00)
time:  0001dd3f:Special non-MIDI event: Tempo           : (0x07,0x62,0x1e)
time:  0001dd4e:Special non-MIDI event: Tempo           : (0x07,0x71,0x7c)
time:  0001dd5d:Special non-MIDI event: Tempo           : (0x07,0x81,0x1b)
time:  0001dd6c:Special non-MIDI event: Tempo           : (0x07,0x90,0xfb)
time:  0001dd7b:Special non-MIDI event: Tempo           : (0x07,0xa1,0x20)
time:  0001dd8a:Special non-MIDI event: Tempo           : (0x07,0xb1,0x89)
time:  0001dd99:Special non-MIDI event: Tempo           : (0x07,0xc2,0x3a)
time:  0001dda8:Special non-MIDI event: Tempo           : (0x07,0xd3,0x34)
time:  0001ddb7:Special non-MIDI event: Tempo           : (0x07,0xe4,0x79)
time:  0001ddc6:Special non-MIDI event: Tempo           : (0x07,0xf6,0x0b)
time:  0001ddd5:Special non-MIDI event: Tempo           : (0x08,0x07,0xeb)
time:  0001dde4:Special non-MIDI event: Tempo           : (0x08,0x1a,0x1d)
time:  0001ddf3:Special non-MIDI event: Tempo           : (0x08,0x2c,0xa2)
time:  0001de02:Special non-MIDI event: Tempo           : (0x08,0x3f,0x7c)
time:  0001de11:Special non-MIDI event: Tempo           : (0x08,0x52,0xae)
time:  0001de11:Special non-MIDI event: End of Track.
Track #1. (zero-based)
len    :0x00000b3e.
time:  00000000:Special non-MIDI event: Text message type 0x03,len 0x14
Kurt Cobain -Vocals-
time:  00000000:program change:   (0xc0,0x58).
time:  00000000:controller:       (0xb0,0x00,0x00).
time:  00003de0:note on:          (0x90,0x3c,0x4b).
time:  00003e58:note off:         (0x80,0x3c,0x5d).
time:  00003e58:note on:          (0x90,0x3f,0x4b).
time:  00003f48:note on:          (0x90,0x41,0x4b).
time:  00003fc0:note off:         (0x80,0x3f,0x5d).
time:  00003fe8:note off:         (0x80,0x41,0x5d).
time:  00004038:note on:          (0x90,0x38,0x4b).
time:  000041c8:note off:         (0x80,0x38,0x5d).
time:  00004290:note on:          (0x90,0x41,0x4b).
time:  00004380:note off:         (0x80,0x41,0x5d).
time:  00004380:note on:          (0x90,0x3f,0x4b).
time:  00004470:note off:         (0x80,0x3f,0x5d).
time:  00004470:note on:          (0x90,0x3c,0x4b).
time:  00004560:note off:         (0x80,0x3c,0x5d).
time:  00004560:note on:          (0x90,0x3d,0x4b).
time:  000045d8:note off:         (0x80,0x3d,0x5d).
time:  000045d8:note on:          (0x90,0x3c,0x4b).
time:  000046c8:note off:         (0x80,0x3c,0x5d).
time:  000046c8:note on:          (0x90,0x3a,0x4b).
time:  000047b8:note off:         (0x80,0x3a,0x5d).
time:  00004830:note on:          (0x90,0x38,0x4b).
time:  00004920:note off:         (0x80,0x38,0x5d).
time:  00004920:note on:          (0x90,0x3a,0x4b).
time:  00004998:note on:          (0x90,0x3c,0x4b).
time:  00004a10:note off:         (0x80,0x3a,0x5d).
time:  00004a88:note off:         (0x80,0x3c,0x5d).
time:  00004a88:note on:          (0x90,0x3a,0x4b).
time:  00004b00:note off:         (0x80,0x3a,0x5d).
time:  00004b00:note on:          (0x90,0x38,0x4b).
time:  00004b78:note off:         (0x80,0x38,0x5d).
time:  00004b78:note on:          (0x90,0x37,0x4b).
time:  00004bf0:note off:         (0x80,0x37,0x5d).
time:  00004ce0:note on:          (0x90,0x3c,0x4b).
time:  00004d58:note off:         (0x80,0x3c,0x5d).
time:  00004d58:note on:          (0x90,0x3f,0x4b).
time:  00004e48:note on:          (0x90,0x41,0x4b).
time:  00004ec0:note off:         (0x80,0x3f,0x5d).
time:  00004ee8:note off:         (0x80,0x41,0x5d).
time:  00004f38:note on:          (0x90,0x38,0x4b).
time:  000050c8:note off:         (0x80,0x38,0x5d).
time:  00005190:note on:          (0x90,0x41,0x4b).
time:  00005280:note off:         (0x80,0x41,0x5d).
time:  00005280:note on:          (0x90,0x3f,0x4b).
time:  00005370:note off:         (0x80,0x3f,0x5d).
time:  00005370:note on:          (0x90,0x3c,0x4b).
time:  00005460:note off:         (0x80,0x3c,0x5d).
time:  00005460:note on:          (0x90,0x3d,0x4b).
time:  000054d8:note off:         (0x80,0x3d,0x5d).
time:  000054d8:note on:          (0x90,0x3c,0x4b).
time:  000055c8:note off:         (0x80,0x3c,0x5d).
time:  000055c8:note on:          (0x90,0x3a,0x4b).
time:  000056b8:note off:         (0x80,0x3a,0x5d).
time:  00005730:note on:          (0x90,0x38,0x4b).
time:  00005820:note off:         (0x80,0x38,0x5d).
time:  00005820:note on:          (0x90,0x3a,0x4b).
time:  00005898:note on:          (0x90,0x3c,0x4b).
time:  00005910:note off:         (0x80,0x3a,0x5d).
time:  00005988:note off:         (0x80,0x3c,0x5d).
time:  00005988:note on:          (0x90,0x3a,0x4b).
time:  00005a00:note off:         (0x80,0x3a,0x5d).
time:  00005a00:note on:          (0x90,0x38,0x4b).
time:  00005a78:note off:         (0x80,0x38,0x5d).
time:  00005a78:note on:          (0x90,0x37,0x4b).
time:  00005be0:note on:          (0x90,0x38,0x7f).
time:  00005c23:note off:         (0x80,0x37,0x5d).
time:  00005c58:note off:         (0x80,0x38,0x5d).
time:  00005c58:note on:          (0x90,0x37,0x7f).
time:  00005d48:note off:         (0x80,0x37,0x5d).
time:  00005dc0:note on:          (0x90,0x38,0x7f).
time:  00005e38:note off:         (0x80,0x38,0x5d).
time:  00005e38:note on:          (0x90,0x37,0x7f).
time:  00005f28:note off:         (0x80,0x37,0x5d).
time:  00005fa0:note on:          (0x90,0x38,0x7f).
time:  00006018:note off:         (0x80,0x38,0x5d).
time:  00006018:note on:          (0x90,0x37,0x7f).
time:  00006108:note off:         (0x80,0x37,0x5d).
time:  00006108:note on:          (0x90,0x38,0x7f).
time:  00006180:note off:         (0x80,0x38,0x5d).
time:  00006180:note on:          (0x90,0x37,0x7f).
time:  000061f8:note off:         (0x80,0x37,0x5d).
time:  000061f8:note on:          (0x90,0x37,0x7f).
time:  00006270:note off:         (0x80,0x37,0x5d).
time:  00006270:note on:          (0x90,0x35,0x7f).
time:  000062e8:note off:         (0x80,0x35,0x5d).
time:  00006360:note on:          (0x90,0x38,0x7f).
time:  000063d8:note off:         (0x80,0x38,0x5d).
time:  000063d8:note on:          (0x90,0x37,0x7f).
time:  000064c8:note off:         (0x80,0x37,0x5d).
time:  00006540:note on:          (0x90,0x38,0x7f).
time:  000065b8:note off:         (0x80,0x38,0x5d).
time:  000065b8:note on:          (0x90,0x37,0x7f).
time:  000066a8:note off:         (0x80,0x37,0x5d).
time:  00006720:note on:          (0x90,0x38,0x7f).
time:  00006798:note off:         (0x80,0x38,0x5d).
time:  00006798:note on:          (0x90,0x37,0x7f).
time:  00006888:note off:         (0x80,0x37,0x5d).
time:  00006888:note on:          (0x90,0x38,0x7f).
time:  00006900:note off:         (0x80,0x38,0x5d).
time:  00006900:note on:          (0x90,0x37,0x7f).
time:  00006978:note off:         (0x80,0x37,0x5d).
time:  00006978:note on:          (0x90,0x37,0x7f).
time:  000069f0:note off:         (0x80,0x37,0x5d).
time:  000069f0:note on:          (0x90,0x35,0x7f).
time:  00006a68:note off:         (0x80,0x35,0x5d).
time:  00006ae0:note on:          (0x90,0x38,0x7f).
time:  00006b58:note off:         (0x80,0x38,0x5d).
time:  00006b58:note on:          (0x90,0x37,0x7f).
time:  00006c48:note off:         (0x80,0x37,0x5d).
time:  00006cc0:note on:          (0x90,0x38,0x7f).
time:  00006d38:note off:         (0x80,0x38,0x5d).
time:  00006d38:note on:          (0x90,0x37,0x7f).
time:  00006e28:note off:         (0x80,0x37,0x5d).
time:  00006ea0:note on:          (0x90,0x38,0x7f).
time:  00006f18:note off:         (0x80,0x38,0x5d).
time:  00006f18:note on:          (0x90,0x37,0x7f).
time:  00007008:note off:         (0x80,0x37,0x5d).
time:  00007008:note on:          (0x90,0x38,0x7f).
time:  00007080:note off:         (0x80,0x38,0x5d).
time:  00007080:note on:          (0x90,0x37,0x7f).
time:  000070f8:note off:         (0x80,0x37,0x5d).
time:  000070f8:note on:          (0x90,0x37,0x7f).
time:  00007170:note off:         (0x80,0x37,0x5d).
time:  00007170:note on:          (0x90,0x35,0x7f).
time:  000071e8:note off:         (0x80,0x35,0x5d).
time:  00007260:note on:          (0x90,0x38,0x7f).
time:  000072d8:note on:          (0x90,0x37,0x7f).
time:  000072e9:note off:         (0x80,0x38,0x5d).
time:  000073ff:note off:         (0x80,0x37,0x5d).
time:  00007440:note on:          (0x90,0x38,0x7f).
time:  000074b8:note on:          (0x90,0x37,0x7f).
time:  000074c9:note off:         (0x80,0x38,0x5d).
time:  000075da:note off:         (0x80,0x37,0x5d).
time:  00007620:note on:          (0x90,0x38,0x7f).
time:  00007698:note on:          (0x90,0x37,0x7f).
time:  000076a9:note off:         (0x80,0x38,0x5d).
time:  00007788:note on:          (0x90,0x44,0x7f).
time:  00007800:note off:         (0x80,0x44,0x5d).
time:  00007800:note on:          (0x90,0x43,0x7f).
time:  00007878:note off:         (0x80,0x43,0x5d).
time:  00007878:note on:          (0x90,0x43,0x7f).
time:  000078ca:note off:         (0x80,0x37,0x5d).
time:  00007968:note on:          (0x90,0x41,0x7f).
time:  000079e0:note off:         (0x80,0x43,0x5d).
time:  00007b48:note off:         (0x80,0x41,0x5d).
time:  00007b48:note on:          (0x90,0x46,0x7f).
time:  00007bc0:note off:         (0x80,0x46,0x5d).
time:  00007bc0:note on:          (0x90,0x46,0x7f).
time:  00007c38:note off:         (0x80,0x46,0x5d).
time:  00007c38:note on:          (0x90,0x46,0x7f).
time:  00007d28:note on:          (0x90,0x44,0x7f).
time:  00007da0:note off:         (0x80,0x46,0x5d).
time:  00007f08:note off:         (0x80,0x44,0x5d).
time:  00007f08:note on:          (0x90,0x3d,0x7f).
time:  00007f80:note off:         (0x80,0x3d,0x5d).
time:  00007f80:note on:          (0x90,0x3d,0x7f).
time:  00007ff8:note off:         (0x80,0x3d,0x5d).
time:  00007ff8:note on:          (0x90,0x3d,0x7f).
time:  000080e8:note off:         (0x80,0x3d,0x5d).
time:  000080e8:note on:          (0x90,0x3c,0x7f).
time:  00008228:note off:         (0x80,0x3c,0x5d).
time:  000082c8:note on:          (0x90,0x46,0x7f).
time:  00008340:note off:         (0x80,0x46,0x5d).
time:  00008340:note on:          (0x90,0x46,0x7f).
time:  000083b8:note off:         (0x80,0x46,0x5d).
time:  000083b8:note on:          (0x90,0x46,0x7f).
time:  000084a8:note on:          (0x90,0x44,0x7f).
time:  00008520:note off:         (0x80,0x46,0x5d).
time:  00008688:note off:         (0x80,0x44,0x5d).
time:  00008688:note on:          (0x90,0x44,0x7f).
time:  00008700:note off:         (0x80,0x44,0x5d).
time:  00008700:note on:          (0x90,0x43,0x7f).
time:  00008778:note off:         (0x80,0x43,0x5d).
time:  00008778:note on:          (0x90,0x43,0x7f).
time:  00008868:note on:          (0x90,0x41,0x7f).
time:  000088e0:note off:         (0x80,0x43,0x5d).
time:  000089a8:note off:         (0x80,0x41,0x5d).
time:  00008a48:note on:          (0x90,0x46,0x7f).
time:  00008ac0:note off:         (0x80,0x46,0x5d).
time:  00008ac0:note on:          (0x90,0x46,0x7f).
time:  00008b38:note off:         (0x80,0x46,0x5d).
time:  00008b38:note on:          (0x90,0x46,0x7f).
time:  00008c28:note on:          (0x90,0x44,0x7f).
time:  00008ca0:note off:         (0x80,0x46,0x5d).
time:  00008e08:note off:         (0x80,0x44,0x5d).
time:  00008e08:note on:          (0x90,0x3d,0x7f).
time:  00008e80:note off:         (0x80,0x3d,0x5d).
time:  00008e80:note on:          (0x90,0x3d,0x7f).
time:  00008ef8:note off:         (0x80,0x3d,0x5d).
time:  00008ef8:note on:          (0x90,0x3d,0x7f).
time:  00008fe8:note off:         (0x80,0x3d,0x5d).
time:  00008fe8:note on:          (0x90,0x3c,0x7f).
time:  00009128:note off:         (0x80,0x3c,0x5d).
time:  000091c8:note on:          (0x90,0x46,0x7f).
time:  00009240:note off:         (0x80,0x46,0x5d).
time:  00009240:note on:          (0x90,0x46,0x7f).
time:  000092b8:note off:         (0x80,0x46,0x5d).
time:  000092b8:note on:          (0x90,0x46,0x7f).
time:  000093a8:note on:          (0x90,0x44,0x7f).
time:  00009420:note off:         (0x80,0x46,0x5d).
time:  00009588:note off:         (0x80,0x44,0x5d).
time:  00009588:note on:          (0x90,0x44,0x7f).
time:  000096c8:note off:         (0x80,0x44,0x5d).
time:  000099c0:note on:          (0x90,0x47,0x7f).
time:  00009a60:note off:         (0x80,0x47,0x5d).
time:  0000a140:note on:          (0x90,0x47,0x7f).
time:  0000a1e0:note off:         (0x80,0x47,0x5d).
time:  0000b5e0:note on:          (0x90,0x3c,0x4b).
time:  0000b658:note off:         (0x80,0x3c,0x5d).
time:  0000b658:note on:          (0x90,0x3f,0x4b).
time:  0000b748:note on:          (0x90,0x41,0x4b).
time:  0000b7c0:note off:         (0x80,0x3f,0x5d).
time:  0000b7e8:note off:         (0x80,0x41,0x5d).
time:  0000b838:note on:          (0x90,0x38,0x4b).
time:  0000b9c8:note off:         (0x80,0x38,0x5d).
time:  0000ba90:note on:          (0x90,0x41,0x4b).
time:  0000bb80:note off:         (0x80,0x41,0x5d).
time:  0000bb80:note on:          (0x90,0x3f,0x4b).
time:  0000bc70:note off:         (0x80,0x3f,0x5d).
time:  0000bc70:note on:          (0x90,0x3c,0x4b).
time:  0000bd60:note off:         (0x80,0x3c,0x5d).
time:  0000bd60:note on:          (0x90,0x3d,0x4b).
time:  0000bdd8:note off:         (0x80,0x3d,0x5d).
time:  0000bdd8:note on:          (0x90,0x3c,0x4b).
time:  0000bec8:note off:         (0x80,0x3c,0x5d).
time:  0000bec8:note on:          (0x90,0x3a,0x4b).
time:  0000bfb8:note off:         (0x80,0x3a,0x5d).
time:  0000c030:note on:          (0x90,0x38,0x4b).
time:  0000c120:note off:         (0x80,0x38,0x5d).
time:  0000c120:note on:          (0x90,0x3a,0x4b).
time:  0000c198:note on:          (0x90,0x3c,0x4b).
time:  0000c210:note off:         (0x80,0x3a,0x5d).
time:  0000c288:note off:         (0x80,0x3c,0x5d).
time:  0000c288:note on:          (0x90,0x3a,0x4b).
time:  0000c300:note off:         (0x80,0x3a,0x5d).
time:  0000c300:note on:          (0x90,0x38,0x4b).
time:  0000c378:note off:         (0x80,0x38,0x5d).
time:  0000c378:note on:          (0x90,0x37,0x4b).
time:  0000c3f0:note off:         (0x80,0x37,0x5d).
time:  0000c4e0:note on:          (0x90,0x3c,0x4b).
time:  0000c558:note off:         (0x80,0x3c,0x5d).
time:  0000c558:note on:          (0x90,0x3f,0x4b).
time:  0000c648:note on:          (0x90,0x41,0x4b).
time:  0000c6c0:note off:         (0x80,0x3f,0x5d).
time:  0000c6e8:note off:         (0x80,0x41,0x5d).
time:  0000c738:note on:          (0x90,0x38,0x4b).
time:  0000c8c8:note off:         (0x80,0x38,0x5d).
time:  0000c990:note on:          (0x90,0x41,0x4b).
time:  0000ca80:note off:         (0x80,0x41,0x5d).
time:  0000ca80:note on:          (0x90,0x3f,0x4b).
time:  0000cb70:note off:         (0x80,0x3f,0x5d).
time:  0000cb70:note on:          (0x90,0x3c,0x4b).
time:  0000cc60:note off:         (0x80,0x3c,0x5d).
time:  0000cc60:note on:          (0x90,0x3d,0x4b).
time:  0000ccd8:note off:         (0x80,0x3d,0x5d).
time:  0000ccd8:note on:          (0x90,0x3c,0x4b).
time:  0000cdc8:note off:         (0x80,0x3c,0x5d).
time:  0000cdc8:note on:          (0x90,0x3a,0x4b).
time:  0000ceb8:note off:         (0x80,0x3a,0x5d).
time:  0000cf30:note on:          (0x90,0x38,0x4b).
time:  0000d020:note off:         (0x80,0x38,0x5d).
time:  0000d020:note on:          (0x90,0x3a,0x4b).
time:  0000d098:note on:          (0x90,0x3c,0x4b).
time:  0000d110:note off:         (0x80,0x3a,0x5d).
time:  0000d188:note off:         (0x80,0x3c,0x5d).
time:  0000d188:note on:          (0x90,0x3a,0x4b).
time:  0000d200:note off:         (0x80,0x3a,0x5d).
time:  0000d200:note on:          (0x90,0x38,0x4b).
time:  0000d278:note off:         (0x80,0x38,0x5d).
time:  0000d278:note on:          (0x90,0x37,0x4b).
time:  0000d3e0:note on:          (0x90,0x38,0x7f).
time:  0000d423:note off:         (0x80,0x37,0x5d).
time:  0000d458:note off:         (0x80,0x38,0x5d).
time:  0000d458:note on:          (0x90,0x37,0x7f).
time:  0000d548:note off:         (0x80,0x37,0x5d).
time:  0000d5c0:note on:          (0x90,0x38,0x7f).
time:  0000d638:note off:         (0x80,0x38,0x5d).
time:  0000d638:note on:          (0x90,0x37,0x7f).
time:  0000d728:note off:         (0x80,0x37,0x5d).
time:  0000d7a0:note on:          (0x90,0x38,0x7f).
time:  0000d818:note off:         (0x80,0x38,0x5d).
time:  0000d818:note on:          (0x90,0x37,0x7f).
time:  0000d908:note off:         (0x80,0x37,0x5d).
time:  0000d908:note on:          (0x90,0x38,0x7f).
time:  0000d980:note off:         (0x80,0x38,0x5d).
time:  0000d980:note on:          (0x90,0x37,0x7f).
time:  0000d9f8:note off:         (0x80,0x37,0x5d).
time:  0000d9f8:note on:          (0x90,0x37,0x7f).
time:  0000da70:note off:         (0x80,0x37,0x5d).
time:  0000da70:note on:          (0x90,0x35,0x7f).
time:  0000dae8:note off:         (0x80,0x35,0x5d).
time:  0000db60:note on:          (0x90,0x38,0x7f).
time:  0000dbd8:note off:         (0x80,0x38,0x5d).
time:  0000dbd8:note on:          (0x90,0x37,0x7f).
time:  0000dcc8:note off:         (0x80,0x37,0x5d).
time:  0000dd40:note on:          (0x90,0x38,0x7f).
time:  0000ddb8:note off:         (0x80,0x38,0x5d).
time:  0000ddb8:note on:          (0x90,0x37,0x7f).
time:  0000dea8:note off:         (0x80,0x37,0x5d).
time:  0000df20:note on:          (0x90,0x38,0x7f).
time:  0000df98:note off:         (0x80,0x38,0x5d).
time:  0000df98:note on:          (0x90,0x37,0x7f).
time:  0000e088:note off:         (0x80,0x37,0x5d).
time:  0000e088:note on:          (0x90,0x38,0x7f).
time:  0000e100:note off:         (0x80,0x38,0x5d).
time:  0000e100:note on:          (0x90,0x37,0x7f).
time:  0000e178:note off:         (0x80,0x37,0x5d).
time:  0000e178:note on:          (0x90,0x37,0x7f).
time:  0000e1f0:note off:         (0x80,0x37,0x5d).
time:  0000e1f0:note on:          (0x90,0x35,0x7f).
time:  0000e268:note off:         (0x80,0x35,0x5d).
time:  0000e2e0:note on:          (0x90,0x38,0x7f).
time:  0000e358:note off:         (0x80,0x38,0x5d).
time:  0000e358:note on:          (0x90,0x37,0x7f).
time:  0000e448:note off:         (0x80,0x37,0x5d).
time:  0000e4c0:note on:          (0x90,0x38,0x7f).
time:  0000e538:note off:         (0x80,0x38,0x5d).
time:  0000e538:note on:          (0x90,0x37,0x7f).
time:  0000e628:note off:         (0x80,0x37,0x5d).
time:  0000e6a0:note on:          (0x90,0x38,0x7f).
time:  0000e718:note off:         (0x80,0x38,0x5d).
time:  0000e718:note on:          (0x90,0x37,0x7f).
time:  0000e808:note off:         (0x80,0x37,0x5d).
time:  0000e808:note on:          (0x90,0x38,0x7f).
time:  0000e880:note off:         (0x80,0x38,0x5d).
time:  0000e880:note on:          (0x90,0x37,0x7f).
time:  0000e8f8:note off:         (0x80,0x37,0x5d).
time:  0000e8f8:note on:          (0x90,0x37,0x7f).
time:  0000e970:note off:         (0x80,0x37,0x5d).
time:  0000e970:note on:          (0x90,0x35,0x7f).
time:  0000e9e8:note off:         (0x80,0x35,0x5d).
time:  0000ea60:note on:          (0x90,0x38,0x7f).
time:  0000ead8:note on:          (0x90,0x37,0x7f).
time:  0000eae9:note off:         (0x80,0x38,0x5d).
time:  0000ebff:note off:         (0x80,0x37,0x5d).
time:  0000ec40:note on:          (0x90,0x38,0x7f).
time:  0000ecb8:note on:          (0x90,0x37,0x7f).
time:  0000ecc9:note off:         (0x80,0x38,0x5d).
time:  0000edda:note off:         (0x80,0x37,0x5d).
time:  0000ee20:note on:          (0x90,0x38,0x7f).
time:  0000ee98:note on:          (0x90,0x37,0x7f).
time:  0000eea9:note off:         (0x80,0x38,0x5d).
time:  0000ef88:note on:          (0x90,0x44,0x7f).
time:  0000f000:note off:         (0x80,0x44,0x5d).
time:  0000f000:note on:          (0x90,0x43,0x7f).
time:  0000f078:note off:         (0x80,0x43,0x5d).
time:  0000f078:note on:          (0x90,0x43,0x7f).
time:  0000f0ca:note off:         (0x80,0x37,0x5d).
time:  0000f168:note on:          (0x90,0x41,0x7f).
time:  0000f1e0:note off:         (0x80,0x43,0x5d).
time:  0000f348:note off:         (0x80,0x41,0x5d).
time:  0000f348:note on:          (0x90,0x46,0x7f).
time:  0000f3c0:note off:         (0x80,0x46,0x5d).
time:  0000f3c0:note on:          (0x90,0x46,0x7f).
time:  0000f438:note off:         (0x80,0x46,0x5d).
time:  0000f438:note on:          (0x90,0x46,0x7f).
time:  0000f528:note on:          (0x90,0x44,0x7f).
time:  0000f5a0:note off:         (0x80,0x46,0x5d).
time:  0000f708:note off:         (0x80,0x44,0x5d).
time:  0000f708:note on:          (0x90,0x3d,0x7f).
time:  0000f780:note off:         (0x80,0x3d,0x5d).
time:  0000f780:note on:          (0x90,0x3d,0x7f).
time:  0000f7f8:note off:         (0x80,0x3d,0x5d).
time:  0000f7f8:note on:          (0x90,0x3d,0x7f).
time:  0000f8e8:note off:         (0x80,0x3d,0x5d).
time:  0000f8e8:note on:          (0x90,0x3c,0x7f).
time:  0000fa28:note off:         (0x80,0x3c,0x5d).
time:  0000fac8:note on:          (0x90,0x46,0x7f).
time:  0000fb40:note off:         (0x80,0x46,0x5d).
time:  0000fb40:note on:          (0x90,0x46,0x7f).
time:  0000fbb8:note off:         (0x80,0x46,0x5d).
time:  0000fbb8:note on:          (0x90,0x46,0x7f).
time:  0000fca8:note on:          (0x90,0x44,0x7f).
time:  0000fd20:note off:         (0x80,0x46,0x5d).
time:  0000fe88:note off:         (0x80,0x44,0x5d).
time:  0000fe88:note on:          (0x90,0x44,0x7f).
time:  0000ff00:note off:         (0x80,0x44,0x5d).
time:  0000ff00:note on:          (0x90,0x43,0x7f).
time:  0000ff78:note off:         (0x80,0x43,0x5d).
time:  0000ff78:note on:          (0x90,0x43,0x7f).
time:  00010068:note on:          (0x90,0x41,0x7f).
time:  000100e0:note off:         (0x80,0x43,0x5d).
time:  000101a8:note off:         (0x80,0x41,0x5d).
time:  00010248:note on:          (0x90,0x46,0x7f).
time:  000102c0:note off:         (0x80,0x46,0x5d).
time:  000102c0:note on:          (0x90,0x46,0x7f).
time:  00010338:note off:         (0x80,0x46,0x5d).
time:  00010338:note on:          (0x90,0x46,0x7f).
time:  00010428:note on:          (0x90,0x44,0x7f).
time:  000104a0:note off:         (0x80,0x46,0x5d).
time:  00010608:note off:         (0x80,0x44,0x5d).
time:  00010608:note on:          (0x90,0x3d,0x7f).
time:  00010680:note off:         (0x80,0x3d,0x5d).
time:  00010680:note on:          (0x90,0x3d,0x7f).
time:  000106f8:note off:         (0x80,0x3d,0x5d).
time:  000106f8:note on:          (0x90,0x3d,0x7f).
time:  000107e8:note off:         (0x80,0x3d,0x5d).
time:  000107e8:note on:          (0x90,0x3c,0x7f).
time:  00010928:note off:         (0x80,0x3c,0x5d).
time:  000109c8:note on:          (0x90,0x46,0x7f).
time:  00010a40:note off:         (0x80,0x46,0x5d).
time:  00010a40:note on:          (0x90,0x46,0x7f).
time:  00010ab8:note off:         (0x80,0x46,0x5d).
time:  00010ab8:note on:          (0x90,0x46,0x7f).
time:  00010ba8:note on:          (0x90,0x44,0x7f).
time:  00010c20:note off:         (0x80,0x46,0x5d).
time:  00010d88:note off:         (0x80,0x44,0x5d).
time:  00010d88:note on:          (0x90,0x44,0x7f).
time:  00010ec8:note off:         (0x80,0x44,0x5d).
time:  000111c0:note on:          (0x90,0x47,0x7f).
time:  00011260:note off:         (0x80,0x47,0x5d).
time:  00011940:note on:          (0x90,0x47,0x7f).
time:  000119e0:note off:         (0x80,0x47,0x5d).
time:  000169e0:note on:          (0x90,0x3c,0x4b).
time:  00016a58:note off:         (0x80,0x3c,0x5d).
time:  00016a58:note on:          (0x90,0x3f,0x4b).
time:  00016b48:note on:          (0x90,0x41,0x4b).
time:  00016bc0:note off:         (0x80,0x3f,0x5d).
time:  00016be8:note off:         (0x80,0x41,0x5d).
time:  00016c38:note on:          (0x90,0x38,0x4b).
time:  00016dc8:note off:         (0x80,0x38,0x40).
time:  00016e90:note on:          (0x90,0x41,0x4b).
time:  00016f80:note off:         (0x80,0x41,0x5d).
time:  00016f80:note on:          (0x90,0x3f,0x4b).
time:  00017070:note off:         (0x80,0x3f,0x5d).
time:  00017070:note on:          (0x90,0x3c,0x4b).
time:  00017160:note off:         (0x80,0x3c,0x5d).
time:  00017160:note on:          (0x90,0x3d,0x4b).
time:  000171d8:note off:         (0x80,0x3d,0x5d).
time:  000171d8:note on:          (0x90,0x3c,0x4b).
time:  000172c8:note off:         (0x80,0x3c,0x5d).
time:  000172c8:note on:          (0x90,0x3a,0x4b).
time:  000173b8:note off:         (0x80,0x3a,0x5d).
time:  00017430:note on:          (0x90,0x38,0x4b).
time:  00017520:note off:         (0x80,0x38,0x5d).
time:  00017520:note on:          (0x90,0x3a,0x4b).
time:  00017598:note on:          (0x90,0x3c,0x4b).
time:  00017610:note off:         (0x80,0x3a,0x5d).
time:  00017688:note off:         (0x80,0x3c,0x5d).
time:  00017688:note on:          (0x90,0x3a,0x4b).
time:  00017700:note off:         (0x80,0x3a,0x5d).
time:  00017700:note on:          (0x90,0x38,0x4b).
time:  00017778:note off:         (0x80,0x38,0x5d).
time:  00017778:note on:          (0x90,0x37,0x4b).
time:  000177f0:note off:         (0x80,0x37,0x5d).
time:  000178e0:note on:          (0x90,0x3c,0x4b).
time:  00017958:note off:         (0x80,0x3c,0x5d).
time:  00017958:note on:          (0x90,0x3f,0x4b).
time:  00017a48:note on:          (0x90,0x41,0x4b).
time:  00017ac0:note off:         (0x80,0x3f,0x5d).
time:  00017ae8:note off:         (0x80,0x41,0x5d).
time:  00017b38:note on:          (0x90,0x38,0x4b).
time:  00017cc8:note off:         (0x80,0x38,0x40).
time:  00017d90:note on:          (0x90,0x41,0x4b).
time:  00017e80:note off:         (0x80,0x41,0x5d).
time:  00017e80:note on:          (0x90,0x3f,0x4b).
time:  00017f70:note off:         (0x80,0x3f,0x5d).
time:  00017f70:note on:          (0x90,0x3c,0x4b).
time:  00018060:note off:         (0x80,0x3c,0x5d).
time:  00018060:note on:          (0x90,0x3d,0x4b).
time:  000180d8:note off:         (0x80,0x3d,0x5d).
time:  000180d8:note on:          (0x90,0x3c,0x4b).
time:  000181c8:note off:         (0x80,0x3c,0x5d).
time:  000181c8:note on:          (0x90,0x3a,0x4b).
time:  000182b8:note off:         (0x80,0x3a,0x5d).
time:  00018330:note on:          (0x90,0x38,0x4b).
time:  00018420:note off:         (0x80,0x38,0x5d).
time:  00018420:note on:          (0x90,0x3a,0x4b).
time:  00018498:note on:          (0x90,0x3c,0x4b).
time:  00018510:note off:         (0x80,0x3a,0x5d).
time:  00018588:note off:         (0x80,0x3c,0x5d).
time:  00018588:note on:          (0x90,0x3a,0x4b).
time:  00018600:note off:         (0x80,0x3a,0x5d).
time:  00018600:note on:          (0x90,0x38,0x4b).
time:  00018678:note off:         (0x80,0x38,0x5d).
time:  00018678:note on:          (0x90,0x37,0x4b).
time:  000187e0:note on:          (0x90,0x38,0x7f).
time:  00018823:note off:         (0x80,0x37,0x40).
time:  00018858:note off:         (0x80,0x38,0x5d).
time:  00018858:note on:          (0x90,0x37,0x7f).
time:  00018948:note off:         (0x80,0x37,0x5d).
time:  000189c0:note on:          (0x90,0x38,0x7f).
time:  00018a38:note off:         (0x80,0x38,0x5d).
time:  00018a38:note on:          (0x90,0x37,0x7f).
time:  00018b28:note off:         (0x80,0x37,0x40).
time:  00018ba0:note on:          (0x90,0x38,0x7f).
time:  00018c18:note off:         (0x80,0x38,0x5d).
time:  00018c18:note on:          (0x90,0x37,0x7f).
time:  00018d08:note off:         (0x80,0x37,0x5d).
time:  00018d08:note on:          (0x90,0x38,0x7f).
time:  00018d80:note off:         (0x80,0x38,0x5d).
time:  00018d80:note on:          (0x90,0x37,0x7f).
time:  00018df8:note off:         (0x80,0x37,0x5d).
time:  00018df8:note on:          (0x90,0x37,0x7f).
time:  00018e70:note off:         (0x80,0x37,0x5d).
time:  00018e70:note on:          (0x90,0x35,0x7f).
time:  00018ee8:note off:         (0x80,0x35,0x5d).
time:  00018f60:note on:          (0x90,0x38,0x7f).
time:  00018fd8:note off:         (0x80,0x38,0x5d).
time:  00018fd8:note on:          (0x90,0x37,0x7f).
time:  000190c8:note off:         (0x80,0x37,0x5d).
time:  00019140:note on:          (0x90,0x38,0x7f).
time:  000191b8:note off:         (0x80,0x38,0x5d).
time:  000191b8:note on:          (0x90,0x37,0x7f).
time:  000192a8:note off:         (0x80,0x37,0x40).
time:  00019320:note on:          (0x90,0x38,0x7f).
time:  00019398:note off:         (0x80,0x38,0x5d).
time:  00019398:note on:          (0x90,0x37,0x7f).
time:  00019488:note off:         (0x80,0x37,0x5d).
time:  00019488:note on:          (0x90,0x38,0x7f).
time:  00019500:note off:         (0x80,0x38,0x5d).
time:  00019500:note on:          (0x90,0x37,0x7f).
time:  00019578:note off:         (0x80,0x37,0x5d).
time:  00019578:note on:          (0x90,0x37,0x7f).
time:  000195f0:note off:         (0x80,0x37,0x5d).
time:  000195f0:note on:          (0x90,0x35,0x7f).
time:  00019668:note off:         (0x80,0x35,0x5d).
time:  000196e0:note on:          (0x90,0x38,0x7f).
time:  00019758:note off:         (0x80,0x38,0x5d).
time:  00019758:note on:          (0x90,0x37,0x7f).
time:  00019848:note off:         (0x80,0x37,0x5d).
time:  000198c0:note on:          (0x90,0x38,0x7f).
time:  00019938:note off:         (0x80,0x38,0x5d).
time:  00019938:note on:          (0x90,0x37,0x7f).
time:  00019a28:note off:         (0x80,0x37,0x40).
time:  00019aa0:note on:          (0x90,0x38,0x7f).
time:  00019b18:note off:         (0x80,0x38,0x5d).
time:  00019b18:note on:          (0x90,0x37,0x7f).
time:  00019c08:note off:         (0x80,0x37,0x5d).
time:  00019c08:note on:          (0x90,0x38,0x7f).
time:  00019c80:note off:         (0x80,0x38,0x5d).
time:  00019c80:note on:          (0x90,0x37,0x7f).
time:  00019cf8:note off:         (0x80,0x37,0x5d).
time:  00019cf8:note on:          (0x90,0x37,0x7f).
time:  00019d70:note off:         (0x80,0x37,0x5d).
time:  00019d70:note on:          (0x90,0x35,0x7f).
time:  00019de8:note off:         (0x80,0x35,0x5d).
time:  00019e60:note on:          (0x90,0x38,0x7f).
time:  00019ed8:note on:          (0x90,0x37,0x7f).
time:  00019ee9:note off:         (0x80,0x38,0x5d).
time:  00019fff:note off:         (0x80,0x37,0x5d).
time:  0001a040:note on:          (0x90,0x38,0x7f).
time:  0001a0b8:note on:          (0x90,0x37,0x7f).
time:  0001a0c9:note off:         (0x80,0x38,0x5d).
time:  0001a1da:note off:         (0x80,0x37,0x40).
time:  0001a220:note on:          (0x90,0x38,0x7f).
time:  0001a298:note on:          (0x90,0x37,0x7f).
time:  0001a2a9:note off:         (0x80,0x38,0x5d).
time:  0001a388:note on:          (0x90,0x44,0x7f).
time:  0001a400:note off:         (0x80,0x44,0x5d).
time:  0001a400:note on:          (0x90,0x43,0x7f).
time:  0001a478:note off:         (0x80,0x43,0x5d).
time:  0001a478:note on:          (0x90,0x43,0x7f).
time:  0001a4ca:note off:         (0x80,0x37,0x5d).
time:  0001a568:note on:          (0x90,0x41,0x7f).
time:  0001a5e0:note off:         (0x80,0x43,0x40).
time:  0001a748:note off:         (0x80,0x41,0x5d).
time:  0001a748:note on:          (0x90,0x46,0x7f).
time:  0001a7c0:note off:         (0x80,0x46,0x5d).
time:  0001a7c0:note on:          (0x90,0x46,0x7f).
time:  0001a838:note off:         (0x80,0x46,0x5d).
time:  0001a838:note on:          (0x90,0x46,0x7f).
time:  0001a928:note on:          (0x90,0x44,0x7f).
time:  0001a9a0:note off:         (0x80,0x46,0x40).
time:  0001ab08:note off:         (0x80,0x44,0x5d).
time:  0001ab08:note on:          (0x90,0x3d,0x7f).
time:  0001ab80:note off:         (0x80,0x3d,0x5d).
time:  0001ab80:note on:          (0x90,0x3d,0x7f).
time:  0001abf8:note off:         (0x80,0x3d,0x5d).
time:  0001abf8:note on:          (0x90,0x3d,0x7f).
time:  0001ace8:note off:         (0x80,0x3d,0x40).
time:  0001ace8:note on:          (0x90,0x3c,0x7f).
time:  0001ae28:note off:         (0x80,0x3c,0x5d).
time:  0001aec8:note on:          (0x90,0x46,0x7f).
time:  0001af40:note off:         (0x80,0x46,0x5d).
time:  0001af40:note on:          (0x90,0x46,0x7f).
time:  0001afb8:note off:         (0x80,0x46,0x5d).
time:  0001afb8:note on:          (0x90,0x46,0x7f).
time:  0001b0a8:note on:          (0x90,0x44,0x7f).
time:  0001b120:note off:         (0x80,0x46,0x40).
time:  0001b288:note off:         (0x80,0x44,0x5d).
time:  0001b288:note on:          (0x90,0x44,0x7f).
time:  0001b300:note off:         (0x80,0x44,0x5d).
time:  0001b300:note on:          (0x90,0x43,0x7f).
time:  0001b378:note off:         (0x80,0x43,0x5d).
time:  0001b378:note on:          (0x90,0x43,0x7f).
time:  0001b468:note on:          (0x90,0x41,0x7f).
time:  0001b4e0:note off:         (0x80,0x43,0x40).
time:  0001b5a8:note off:         (0x80,0x41,0x5d).
time:  0001b648:note on:          (0x90,0x46,0x7f).
time:  0001b6c0:note off:         (0x80,0x46,0x5d).
time:  0001b6c0:note on:          (0x90,0x46,0x7f).
time:  0001b738:note off:         (0x80,0x46,0x5d).
time:  0001b738:note on:          (0x90,0x46,0x7f).
time:  0001b828:note on:          (0x90,0x44,0x7f).
time:  0001b8a0:note off:         (0x80,0x46,0x40).
time:  0001ba08:note off:         (0x80,0x44,0x5d).
time:  0001ba08:note on:          (0x90,0x3d,0x7f).
time:  0001ba80:note off:         (0x80,0x3d,0x5d).
time:  0001ba80:note on:          (0x90,0x3d,0x7f).
time:  0001baf8:note off:         (0x80,0x3d,0x5d).
time:  0001baf8:note on:          (0x90,0x3d,0x7f).
time:  0001bbe8:note off:         (0x80,0x3d,0x40).
time:  0001bbe8:note on:          (0x90,0x3c,0x7f).
time:  0001bd28:note off:         (0x80,0x3c,0x5d).
time:  0001bdc8:note on:          (0x90,0x46,0x7f).
time:  0001be40:note off:         (0x80,0x46,0x5d).
time:  0001be40:note on:          (0x90,0x46,0x7f).
time:  0001beb8:note off:         (0x80,0x46,0x5d).
time:  0001beb8:note on:          (0x90,0x46,0x7f).
time:  0001bfa8:note on:          (0x90,0x44,0x7f).
time:  0001c020:note off:         (0x80,0x46,0x40).
time:  0001c188:note off:         (0x80,0x44,0x5d).
time:  0001c188:note on:          (0x90,0x44,0x7f).
time:  0001c200:note off:         (0x80,0x44,0x5d).
time:  0001c200:note on:          (0x90,0x43,0x7f).
time:  0001c278:note off:         (0x80,0x43,0x5d).
time:  0001c278:note on:          (0x90,0x43,0x64).
time:  0001c368:note off:         (0x80,0x43,0x40).
time:  0001c368:note on:          (0x90,0x41,0x64).
time:  0001c548:note off:         (0x80,0x41,0x40).
time:  0001c548:note on:          (0x90,0x44,0x7f).
time:  0001c5c0:note off:         (0x80,0x44,0x5d).
time:  0001c5c0:note on:          (0x90,0x43,0x7f).
time:  0001c638:note off:         (0x80,0x43,0x5d).
time:  0001c638:note on:          (0x90,0x43,0x64).
time:  0001c728:note off:         (0x80,0x43,0x40).
time:  0001c728:note on:          (0x90,0x41,0x64).
time:  0001c908:note off:         (0x80,0x41,0x40).
time:  0001c908:note on:          (0x90,0x44,0x7f).
time:  0001c980:note off:         (0x80,0x44,0x5d).
time:  0001c980:note on:          (0x90,0x43,0x7f).
time:  0001c9f8:note off:         (0x80,0x43,0x5d).
time:  0001c9f8:note on:          (0x90,0x43,0x64).
time:  0001cae8:note off:         (0x80,0x43,0x40).
time:  0001cae8:note on:          (0x90,0x41,0x64).
time:  0001ccc8:note off:         (0x80,0x41,0x40).
time:  0001ccc8:note on:          (0x90,0x44,0x7f).
time:  0001cd40:note off:         (0x80,0x44,0x5d).
time:  0001cd40:note on:          (0x90,0x43,0x7f).
time:  0001cdb8:note off:         (0x80,0x43,0x5d).
time:  0001cdb8:note on:          (0x90,0x43,0x64).
time:  0001cea8:note off:         (0x80,0x43,0x40).
time:  0001cea8:note on:          (0x90,0x41,0x64).
time:  0001d088:note off:         (0x80,0x41,0x40).
time:  0001d088:note on:          (0x90,0x44,0x7f).
time:  0001d100:note off:         (0x80,0x44,0x5d).
time:  0001d100:note on:          (0x90,0x43,0x7f).
time:  0001d178:note off:         (0x80,0x43,0x5d).
time:  0001d178:note on:          (0x90,0x43,0x64).
time:  0001d268:note off:         (0x80,0x43,0x40).
time:  0001d268:note on:          (0x90,0x41,0x64).
time:  0001d448:note off:         (0x80,0x41,0x40).
time:  0001d448:note on:          (0x90,0x44,0x7f).
time:  0001d4c0:note off:         (0x80,0x44,0x5d).
time:  0001d4c0:note on:          (0x90,0x43,0x7f).
time:  0001d538:note off:         (0x80,0x43,0x5d).
time:  0001d538:note on:          (0x90,0x43,0x64).
time:  0001d628:note off:         (0x80,0x43,0x40).
time:  0001d628:note on:          (0x90,0x41,0x64).
time:  0001d808:note off:         (0x80,0x41,0x40).
time:  0001d808:note on:          (0x90,0x44,0x7f).
time:  0001d880:note off:         (0x80,0x44,0x5d).
time:  0001d880:note on:          (0x90,0x43,0x7f).
time:  0001d8f8:note off:         (0x80,0x43,0x5d).
time:  0001d8f8:note on:          (0x90,0x43,0x64).
time:  0001d9e8:note off:         (0x80,0x43,0x40).
time:  0001d9e8:note on:          (0x90,0x41,0x64).
time:  0001dbc8:note off:         (0x80,0x41,0x40).
time:  0001dbc8:note on:          (0x90,0x44,0x7f).
time:  0001dc40:note off:         (0x80,0x44,0x5d).
time:  0001dc40:note on:          (0x90,0x43,0x7f).
time:  0001dcb8:note off:         (0x80,0x43,0x5d).
time:  0001dcb8:note on:          (0x90,0x43,0x64).
time:  0001dda8:note off:         (0x80,0x43,0x40).
time:  0001dda8:note on:          (0x90,0x41,0x64).
time:  0001df88:note off:         (0x80,0x41,0x40).
time:  0001df88:note on:          (0x90,0x44,0x7f).
time:  0001e000:note off:         (0x80,0x44,0x5d).
time:  0001e000:note on:          (0x90,0x43,0x7f).
time:  0001e078:note off:         (0x80,0x43,0x5d).
time:  0001e078:note on:          (0x90,0x43,0x64).
time:  0001e168:note off:         (0x80,0x43,0x40).
time:  0001e168:note on:          (0x90,0x41,0x64).
time:  0001e7f8:note off:         (0x80,0x41,0x40).
time:  0001e7f8:Special non-MIDI event: End of Track.
Track #2. (zero-based)
len    :0x000005a6.
time:  00000000:Special non-MIDI event: Text message type 0x03,len 0x1a
Kurt Cobain -Clean Guitar-
time:  00000000:program change:   (0xc1,0x1b).
time:  00000000:controller:       (0xb1,0x00,0x00).
time:  000000f0:note on:          (0x91,0x35,0x7f).
time:  000000f0:note on:          (0x91,0x30,0x7f).
time:  000000f0:note on:          (0x91,0x29,0x7f).
time:  000001a4:note on:          (0x91,0x35,0x7f).
time:  000001a4:note on:          (0x91,0x30,0x7f).
time:  000001a4:note on:          (0x91,0x29,0x7f).
time:  000001e0:note off:         (0x81,0x35,0x55).
time:  000001e0:note off:         (0x81,0x30,0x55).
time:  000001e0:note off:         (0x81,0x29,0x55).
time:  000001e0:note off:         (0x81,0x35,0x55).
time:  000001e0:note off:         (0x81,0x30,0x55).
time:  000001e0:note off:         (0x81,0x29,0x55).
time:  000001e0:note on:          (0x91,0x35,0x7f).
time:  000001e0:note on:          (0x91,0x30,0x7f).
time:  000001e0:note on:          (0x91,0x29,0x7f).
time:  00000258:note off:         (0x81,0x35,0x55).
time:  00000258:note off:         (0x81,0x30,0x55).
time:  00000258:note off:         (0x81,0x29,0x55).
time:  00000294:note on:          (0x91,0x29,0x7f).
time:  00000294:note on:          (0x91,0x30,0x7f).
time:  00000294:note on:          (0x91,0x35,0x7f).
time:  000002a8:note off:         (0x81,0x29,0x55).
time:  000002a8:note off:         (0x81,0x30,0x55).
time:  000002a8:note off:         (0x81,0x35,0x55).
time:  000002d0:note on:          (0x91,0x29,0x7f).
time:  000002d0:note on:          (0x91,0x30,0x7f).
time:  000002d0:note on:          (0x91,0x35,0x7f).
time:  000002f8:note off:         (0x81,0x29,0x55).
time:  000002f8:note off:         (0x81,0x30,0x55).
time:  000002f8:note off:         (0x81,0x35,0x55).
time:  0000030c:note on:          (0x91,0x29,0x7f).
time:  0000030c:note on:          (0x91,0x30,0x7f).
time:  0000030c:note on:          (0x91,0x35,0x7f).
time:  00000320:note off:         (0x81,0x29,0x55).
time:  00000320:note off:         (0x81,0x30,0x55).
time:  00000320:note off:         (0x81,0x35,0x55).
time:  00000348:note on:          (0x91,0x3a,0x7f).
time:  00000348:note on:          (0x91,0x35,0x7f).
time:  00000348:note on:          (0x91,0x2e,0x7f).
time:  000003c0:note off:         (0x81,0x3a,0x55).
time:  000003c0:note off:         (0x81,0x35,0x55).
time:  000003c0:note off:         (0x81,0x2e,0x55).
time:  000003c0:note on:          (0x91,0x3a,0x7f).
time:  000003c0:note on:          (0x91,0x35,0x7f).
time:  000003c0:note on:          (0x91,0x2e,0x7f).
time:  000003fc:note off:         (0x81,0x3a,0x55).
time:  000003fc:note off:         (0x81,0x35,0x55).
time:  000003fc:note off:         (0x81,0x2e,0x55).
time:  000003fc:note on:          (0x91,0x3a,0x7f).
time:  000003fc:note on:          (0x91,0x35,0x7f).
time:  000003fc:note on:          (0x91,0x2e,0x7f).
time:  00000438:note on:          (0x91,0x29,0x7f).
time:  00000438:note on:          (0x91,0x30,0x7f).
time:  00000438:note on:          (0x91,0x35,0x7f).
time:  00000460:note off:         (0x81,0x35,0x55).
time:  00000460:note off:         (0x81,0x29,0x55).
time:  00000460:note off:         (0x81,0x30,0x55).
time:  00000474:note off:         (0x81,0x3a,0x55).
time:  00000474:note off:         (0x81,0x2e,0x55).
time:  00000474:note off:         (0x81,0x35,0x55).
time:  000004b0:note on:          (0x91,0x38,0x7f).
time:  000004b0:note on:          (0x91,0x33,0x7f).
time:  000004b0:note on:          (0x91,0x2c,0x7f).
time:  00000564:note on:          (0x91,0x38,0x7f).
time:  00000564:note on:          (0x91,0x33,0x7f).
time:  00000564:note on:          (0x91,0x2c,0x7f).
time:  000005a0:note off:         (0x81,0x38,0x55).
time:  000005a0:note off:         (0x81,0x33,0x55).
time:  000005a0:note off:         (0x81,0x2c,0x55).
time:  000005a0:note off:         (0x81,0x38,0x55).
time:  000005a0:note off:         (0x81,0x33,0x55).
time:  000005a0:note off:         (0x81,0x2c,0x55).
time:  000005a0:note on:          (0x91,0x38,0x7f).
time:  000005a0:note on:          (0x91,0x33,0x7f).
time:  000005a0:note on:          (0x91,0x2c,0x7f).
time:  00000618:note off:         (0x81,0x38,0x55).
time:  00000618:note off:         (0x81,0x33,0x55).
time:  00000618:note off:         (0x81,0x2c,0x55).
time:  00000618:note on:          (0x91,0x2c,0x7f).
time:  00000618:note on:          (0x91,0x33,0x7f).
time:  00000618:note on:          (0x91,0x38,0x7f).
time:  0000062c:note off:         (0x81,0x2c,0x55).
time:  0000062c:note off:         (0x81,0x33,0x55).
time:  0000062c:note off:         (0x81,0x38,0x55).
time:  00000654:note on:          (0x91,0x2c,0x7f).
time:  00000654:note on:          (0x91,0x33,0x7f).
time:  00000654:note on:          (0x91,0x38,0x7f).
time:  00000668:note off:         (0x81,0x2c,0x55).
time:  00000668:note off:         (0x81,0x33,0x55).
time:  00000668:note off:         (0x81,0x38,0x55).
time:  00000690:note on:          (0x91,0x2c,0x7f).
time:  00000690:note on:          (0x91,0x33,0x7f).
time:  00000690:note on:          (0x91,0x38,0x7f).
time:  000006b8:note off:         (0x81,0x2c,0x55).
time:  000006b8:note off:         (0x81,0x33,0x55).
time:  000006b8:note off:         (0x81,0x38,0x55).
time:  000006cc:note on:          (0x91,0x2c,0x7f).
time:  000006cc:note on:          (0x91,0x33,0x7f).
time:  000006cc:note on:          (0x91,0x38,0x7f).
time:  000006e0:note off:         (0x81,0x2c,0x55).
time:  000006e0:note off:         (0x81,0x33,0x55).
time:  000006e0:note off:         (0x81,0x38,0x55).
time:  00000708:note on:          (0x91,0x3d,0x7f).
time:  00000708:note on:          (0x91,0x38,0x7f).
time:  00000708:note on:          (0x91,0x31,0x7f).
time:  00000780:note off:         (0x81,0x3d,0x55).
time:  00000780:note off:         (0x81,0x38,0x55).
time:  00000780:note off:         (0x81,0x31,0x55).
time:  00000780:note on:          (0x91,0x3d,0x7f).
time:  00000780:note on:          (0x91,0x38,0x7f).
time:  00000780:note on:          (0x91,0x31,0x7f).
time:  000007bc:note off:         (0x81,0x3d,0x55).
time:  000007bc:note off:         (0x81,0x38,0x55).
time:  000007bc:note off:         (0x81,0x31,0x55).
time:  000007bc:note on:          (0x91,0x3d,0x7f).
time:  000007bc:note on:          (0x91,0x38,0x7f).
time:  000007bc:note on:          (0x91,0x31,0x7f).
time:  000007f8:note on:          (0x91,0x2c,0x7f).
time:  000007f8:note on:          (0x91,0x33,0x7f).
time:  000007f8:note on:          (0x91,0x38,0x7f).
time:  00000820:note off:         (0x81,0x38,0x55).
time:  00000820:note off:         (0x81,0x2c,0x55).
time:  00000820:note off:         (0x81,0x33,0x55).
time:  00000834:note off:         (0x81,0x3d,0x55).
time:  00000834:note off:         (0x81,0x31,0x55).
time:  00000834:note off:         (0x81,0x38,0x55).
time:  00000870:note on:          (0x91,0x35,0x7f).
time:  00000870:note on:          (0x91,0x30,0x7f).
time:  00000870:note on:          (0x91,0x29,0x7f).
time:  00000924:note on:          (0x91,0x35,0x7f).
time:  00000924:note on:          (0x91,0x30,0x7f).
time:  00000924:note on:          (0x91,0x29,0x7f).
time:  00000960:note off:         (0x81,0x35,0x55).
time:  00000960:note off:         (0x81,0x30,0x55).
time:  00000960:note off:         (0x81,0x29,0x55).
time:  00000960:note off:         (0x81,0x35,0x55).
time:  00000960:note off:         (0x81,0x30,0x55).
time:  00000960:note off:         (0x81,0x29,0x55).
time:  00000960:note on:          (0x91,0x35,0x7f).
time:  00000960:note on:          (0x91,0x30,0x7f).
time:  00000960:note on:          (0x91,0x29,0x7f).
time:  000009d8:note off:         (0x81,0x35,0x55).
time:  000009d8:note off:         (0x81,0x30,0x55).
time:  000009d8:note off:         (0x81,0x29,0x55).
time:  00000a14:note on:          (0x91,0x29,0x7f).
time:  00000a14:note on:          (0x91,0x30,0x7f).
time:  00000a14:note on:          (0x91,0x35,0x7f).
time:  00000a28:note off:         (0x81,0x29,0x55).
time:  00000a28:note off:         (0x81,0x30,0x55).
time:  00000a28:note off:         (0x81,0x35,0x55).
time:  00000a50:note on:          (0x91,0x29,0x7f).
time:  00000a50:note on:          (0x91,0x30,0x7f).
time:  00000a50:note on:          (0x91,0x35,0x7f).
time:  00000a78:note off:         (0x81,0x29,0x55).
time:  00000a78:note off:         (0x81,0x30,0x55).
time:  00000a78:note off:         (0x81,0x35,0x55).
time:  00000a8c:note on:          (0x91,0x29,0x7f).
time:  00000a8c:note on:          (0x91,0x30,0x7f).
time:  00000a8c:note on:          (0x91,0x35,0x7f).
time:  00000aa0:note off:         (0x81,0x29,0x55).
time:  00000aa0:note off:         (0x81,0x30,0x55).
time:  00000aa0:note off:         (0x81,0x35,0x55).
time:  00000ac8:note on:          (0x91,0x3a,0x7f).
time:  00000ac8:note on:          (0x91,0x35,0x7f).
time:  00000ac8:note on:          (0x91,0x2e,0x7f).
time:  00000b40:note off:         (0x81,0x3a,0x55).
time:  00000b40:note off:         (0x81,0x35,0x55).
time:  00000b40:note off:         (0x81,0x2e,0x55).
time:  00000b40:note on:          (0x91,0x3a,0x7f).
time:  00000b40:note on:          (0x91,0x35,0x7f).
time:  00000b40:note on:          (0x91,0x2e,0x7f).
time:  00000b7c:note off:         (0x81,0x3a,0x55).
time:  00000b7c:note off:         (0x81,0x35,0x55).
time:  00000b7c:note off:         (0x81,0x2e,0x55).
time:  00000b7c:note on:          (0x91,0x3a,0x7f).
time:  00000b7c:note on:          (0x91,0x35,0x7f).
time:  00000b7c:note on:          (0x91,0x2e,0x7f).
time:  00000bb8:note on:          (0x91,0x29,0x7f).
time:  00000bb8:note on:          (0x91,0x30,0x7f).
time:  00000bb8:note on:          (0x91,0x35,0x7f).
time:  00000be0:note off:         (0x81,0x35,0x55).
time:  00000be0:note off:         (0x81,0x29,0x55).
time:  00000be0:note off:         (0x81,0x30,0x55).
time:  00000bf4:note off:         (0x81,0x3a,0x55).
time:  00000bf4:note off:         (0x81,0x2e,0x55).
time:  00000bf4:note off:         (0x81,0x35,0x55).
time:  00000c30:note on:          (0x91,0x38,0x7f).
time:  00000c30:note on:          (0x91,0x33,0x7f).
time:  00000c30:note on:          (0x91,0x2c,0x7f).
time:  00000ce4:note on:          (0x91,0x38,0x7f).
time:  00000ce4:note on:          (0x91,0x33,0x7f).
time:  00000ce4:note on:          (0x91,0x2c,0x7f).
time:  00000d20:note off:         (0x81,0x38,0x55).
time:  00000d20:note off:         (0x81,0x33,0x55).
time:  00000d20:note off:         (0x81,0x2c,0x55).
time:  00000d20:note off:         (0x81,0x38,0x55).
time:  00000d20:note off:         (0x81,0x33,0x55).
time:  00000d20:note off:         (0x81,0x2c,0x55).
time:  00000d20:note on:          (0x91,0x38,0x7f).
time:  00000d20:note on:          (0x91,0x33,0x7f).
time:  00000d20:note on:          (0x91,0x2c,0x7f).
time:  00000d98:note off:         (0x81,0x38,0x55).
time:  00000d98:note off:         (0x81,0x33,0x55).
time:  00000d98:note off:         (0x81,0x2c,0x55).
time:  00000dd4:note on:          (0x91,0x2c,0x7f).
time:  00000dd4:note on:          (0x91,0x33,0x7f).
time:  00000dd4:note on:          (0x91,0x38,0x7f).
time:  00000de8:note off:         (0x81,0x2c,0x55).
time:  00000de8:note off:         (0x81,0x33,0x55).
time:  00000de8:note off:         (0x81,0x38,0x55).
time:  00000e10:note on:          (0x91,0x2c,0x7f).
time:  00000e10:note on:          (0x91,0x33,0x7f).
time:  00000e10:note on:          (0x91,0x38,0x7f).
time:  00000e38:note off:         (0x81,0x2c,0x55).
time:  00000e38:note off:         (0x81,0x33,0x55).
time:  00000e38:note off:         (0x81,0x38,0x55).
time:  00000e4c:note on:          (0x91,0x2c,0x7f).
time:  00000e4c:note on:          (0x91,0x33,0x7f).
time:  00000e4c:note on:          (0x91,0x38,0x7f).
time:  00000e60:note off:         (0x81,0x2c,0x55).
time:  00000e60:note off:         (0x81,0x33,0x55).
time:  00000e60:note off:         (0x81,0x38,0x55).
time:  00000e88:note on:          (0x91,0x3d,0x7f).
time:  00000e88:note on:          (0x91,0x38,0x7f).
time:  00000e88:note on:          (0x91,0x31,0x7f).
time:  00000f00:note off:         (0x81,0x3d,0x55).
time:  00000f00:note off:         (0x81,0x38,0x55).
time:  00000f00:note off:         (0x81,0x31,0x55).
time:  00000f00:note on:          (0x91,0x3d,0x7f).
time:  00000f00:note on:          (0x91,0x38,0x7f).
time:  00000f00:note on:          (0x91,0x31,0x7f).
time:  00000f3c:note off:         (0x81,0x3d,0x55).
time:  00000f3c:note off:         (0x81,0x38,0x55).
time:  00000f3c:note off:         (0x81,0x31,0x55).
time:  00000f3c:note on:          (0x91,0x3d,0x7f).
time:  00000f3c:note on:          (0x91,0x38,0x7f).
time:  00000f3c:note on:          (0x91,0x31,0x7f).
time:  00000fb4:note off:         (0x81,0x3d,0x55).
time:  00000fb4:note off:         (0x81,0x38,0x55).
time:  00000fb4:note off:         (0x81,0x31,0x55).
time:  00002df0:controller:       (0xb1,0x01,0x3c).
time:  00002df0:controller:       (0xb1,0x40,0x7f).
time:  00002ee0:note on:          (0x91,0x3c,0x7f).
time:  00002f58:note off:         (0x81,0x3c,0x55).
time:  00002f58:note on:          (0x91,0x41,0x7f).
time:  000031ad:controller:       (0xb1,0x40,0x00).
time:  000031ad:controller:       (0xb1,0x01,0x00).
time:  000033a1:note off:         (0x81,0x41,0x55).
time:  00003570:controller:       (0xb1,0x01,0x3c).
time:  00003570:controller:       (0xb1,0x40,0x7f).
time:  00003660:note on:          (0x91,0x3c,0x7f).
time:  000036d8:note off:         (0x81,0x3c,0x55).
time:  000036d8:note on:          (0x91,0x41,0x7f).
time:  0000392d:controller:       (0xb1,0x40,0x00).
time:  0000392d:controller:       (0xb1,0x01,0x00).
time:  00003b21:note off:         (0x81,0x41,0x55).
time:  00003cf0:controller:       (0xb1,0x01,0x3c).
time:  00003cf0:controller:       (0xb1,0x40,0x7f).
time:  00003de0:note on:          (0x91,0x3c,0x7f).
time:  00003e58:note off:         (0x81,0x3c,0x55).
time:  00003e58:note on:          (0x91,0x41,0x7f).
time:  000040ad:controller:       (0xb1,0x40,0x00).
time:  000040ad:controller:       (0xb1,0x01,0x00).
time:  000042a1:note off:         (0x81,0x41,0x55).
time:  00004470:controller:       (0xb1,0x01,0x3c).
time:  00004470:controller:       (0xb1,0x40,0x7f).
time:  00004560:note on:          (0x91,0x3c,0x7f).
time:  000045d8:note off:         (0x81,0x3c,0x55).
time:  000045d8:note on:          (0x91,0x41,0x7f).
time:  0000482d:controller:       (0xb1,0x40,0x00).
time:  0000482d:controller:       (0xb1,0x01,0x00).
time:  00004a21:note off:         (0x81,0x41,0x55).
time:  00004bf0:controller:       (0xb1,0x01,0x3c).
time:  00004bf0:controller:       (0xb1,0x40,0x7f).
time:  00004ce0:note on:          (0x91,0x3c,0x7f).
time:  00004d58:note off:         (0x81,0x3c,0x55).
time:  00004d58:note on:          (0x91,0x41,0x7f).
time:  00004fad:controller:       (0xb1,0x40,0x00).
time:  00004fad:controller:       (0xb1,0x01,0x00).
time:  000051a1:note off:         (0x81,0x41,0x55).
time:  00005370:controller:       (0xb1,0x01,0x3c).
time:  00005370:controller:       (0xb1,0x40,0x7f).
time:  00005460:note on:          (0x91,0x3c,0x7f).
time:  000054d8:note off:         (0x81,0x3c,0x55).
time:  000054d8:note on:          (0x91,0x41,0x7f).
time:  0000572d:controller:       (0xb1,0x40,0x00).
time:  0000572d:controller:       (0xb1,0x01,0x00).
time:  00005921:note off:         (0x81,0x41,0x55).
time:  0000a5f0:controller:       (0xb1,0x01,0x3c).
time:  0000a5f0:controller:       (0xb1,0x40,0x7f).
time:  0000a6e0:note on:          (0x91,0x3c,0x7f).
time:  0000a758:note off:         (0x81,0x3c,0x55).
time:  0000a758:note on:          (0x91,0x41,0x7f).
time:  0000a9ad:controller:       (0xb1,0x40,0x00).
time:  0000a9ad:controller:       (0xb1,0x01,0x00).
time:  0000aba1:note off:         (0x81,0x41,0x55).
time:  0000ad70:controller:       (0xb1,0x01,0x3c).
time:  0000ad70:controller:       (0xb1,0x40,0x7f).
time:  0000ae60:note on:          (0x91,0x3c,0x7f).
time:  0000aed8:note off:         (0x81,0x3c,0x55).
time:  0000aed8:note on:          (0x91,0x41,0x7f).
time:  0000b12d:controller:       (0xb1,0x40,0x00).
time:  0000b12d:controller:       (0xb1,0x01,0x00).
time:  0000b321:note off:         (0x81,0x41,0x55).
time:  0000b4f0:controller:       (0xb1,0x01,0x3c).
time:  0000b4f0:controller:       (0xb1,0x40,0x7f).
time:  0000b5e0:note on:          (0x91,0x3c,0x7f).
time:  0000b658:note off:         (0x81,0x3c,0x55).
time:  0000b658:note on:          (0x91,0x41,0x7f).
time:  0000b8ad:controller:       (0xb1,0x40,0x00).
time:  0000b8ad:controller:       (0xb1,0x01,0x00).
time:  0000baa1:note off:         (0x81,0x41,0x55).
time:  0000bc70:controller:       (0xb1,0x01,0x3c).
time:  0000bc70:controller:       (0xb1,0x40,0x7f).
time:  0000bd60:note on:          (0x91,0x3c,0x7f).
time:  0000bdd8:note off:         (0x81,0x3c,0x55).
time:  0000bdd8:note on:          (0x91,0x41,0x7f).
time:  0000c02d:controller:       (0xb1,0x40,0x00).
time:  0000c02d:controller:       (0xb1,0x01,0x00).
time:  0000c221:note off:         (0x81,0x41,0x55).
time:  0000c3f0:controller:       (0xb1,0x01,0x3c).
time:  0000c3f0:controller:       (0xb1,0x40,0x7f).
time:  0000c4e0:note on:          (0x91,0x3c,0x7f).
time:  0000c558:note off:         (0x81,0x3c,0x55).
time:  0000c558:note on:          (0x91,0x41,0x7f).
time:  0000c7ad:controller:       (0xb1,0x40,0x00).
time:  0000c7ad:controller:       (0xb1,0x01,0x00).
time:  0000c9a1:note off:         (0x81,0x41,0x55).
time:  0000cb70:controller:       (0xb1,0x01,0x3c).
time:  0000cb70:controller:       (0xb1,0x40,0x7f).
time:  0000cc60:note on:          (0x91,0x3c,0x7f).
time:  0000ccd8:note off:         (0x81,0x3c,0x55).
time:  0000ccd8:note on:          (0x91,0x41,0x7f).
time:  0000cf2d:controller:       (0xb1,0x40,0x00).
time:  0000cf2d:controller:       (0xb1,0x01,0x00).
time:  0000d121:note off:         (0x81,0x41,0x55).
time:  000159f0:controller:       (0xb1,0x01,0x3c).
time:  000159f0:controller:       (0xb1,0x40,0x7f).
time:  00015ae0:note on:          (0x91,0x3c,0x7f).
time:  00015b58:note off:         (0x81,0x3c,0x55).
time:  00015b58:note on:          (0x91,0x41,0x7f).
time:  00015dad:controller:       (0xb1,0x40,0x00).
time:  00015dad:controller:       (0xb1,0x01,0x00).
time:  00015fa1:note off:         (0x81,0x41,0x40).
time:  00016170:controller:       (0xb1,0x01,0x3c).
time:  00016170:controller:       (0xb1,0x40,0x7f).
time:  00016260:note on:          (0x91,0x3c,0x7f).
time:  000162d8:note off:         (0x81,0x3c,0x55).
time:  000162d8:note on:          (0x91,0x41,0x7f).
time:  0001652d:controller:       (0xb1,0x40,0x00).
time:  0001652d:controller:       (0xb1,0x01,0x00).
time:  00016721:note off:         (0x81,0x41,0x40).
time:  000168f0:controller:       (0xb1,0x01,0x3c).
time:  000168f0:controller:       (0xb1,0x40,0x7f).
time:  000169e0:note on:          (0x91,0x3c,0x7f).
time:  00016a58:note off:         (0x81,0x3c,0x55).
time:  00016a58:note on:          (0x91,0x41,0x7f).
time:  00016cad:controller:       (0xb1,0x40,0x00).
time:  00016cad:controller:       (0xb1,0x01,0x00).
time:  00016ea1:note off:         (0x81,0x41,0x40).
time:  00017070:controller:       (0xb1,0x01,0x3c).
time:  00017070:controller:       (0xb1,0x40,0x7f).
time:  00017160:note on:          (0x91,0x3c,0x7f).
time:  000171d8:note off:         (0x81,0x3c,0x55).
time:  000171d8:note on:          (0x91,0x41,0x7f).
time:  0001742d:controller:       (0xb1,0x40,0x00).
time:  0001742d:controller:       (0xb1,0x01,0x00).
time:  00017621:note off:         (0x81,0x41,0x40).
time:  000177f0:controller:       (0xb1,0x01,0x3c).
time:  000177f0:controller:       (0xb1,0x40,0x7f).
time:  000178e0:note on:          (0x91,0x3c,0x7f).
time:  00017958:note off:         (0x81,0x3c,0x55).
time:  00017958:note on:          (0x91,0x41,0x7f).
time:  00017bad:controller:       (0xb1,0x40,0x00).
time:  00017bad:controller:       (0xb1,0x01,0x00).
time:  00017da1:note off:         (0x81,0x41,0x40).
time:  00017f70:controller:       (0xb1,0x01,0x3c).
time:  00017f70:controller:       (0xb1,0x40,0x7f).
time:  00018060:note on:          (0x91,0x3c,0x7f).
time:  000180d8:note off:         (0x81,0x3c,0x55).
time:  000180d8:note on:          (0x91,0x41,0x7f).
time:  0001832d:controller:       (0xb1,0x40,0x00).
time:  0001832d:controller:       (0xb1,0x01,0x00).
time:  00018521:note off:         (0x81,0x41,0x40).
time:  00018521:Special non-MIDI event: End of Track.
Track #3. (zero-based)
len    :0x00002813.
time:  00000000:Special non-MIDI event: Text message type 0x03,len 0x19
Kurt Cobain -Dist Guitar-
time:  00000000:program change:   (0xc2,0x1e).
time:  00000000:controller:       (0xb2,0x00,0x00).
time:  00000f00:pitch wheel:      (0xe2,0x00,0x40).
time:  00000f00:note on:          (0x92,0x24,0x73).
time:  00000f00:note on:          (0x92,0x2b,0x73).
time:  00000f00:note on:          (0x92,0x30,0x73).
time:  00000f39:pitch wheel:      (0xe2,0x7f,0x4f).
time:  00000f75:pitch wheel:      (0xe2,0x7e,0x5f).
time:  00000fb1:pitch wheel:      (0xe2,0x7d,0x6f).
time:  00000fed:pitch wheel:      (0xe2,0x00,0x40).
time:  00000ff0:note off:         (0x82,0x24,0x49).
time:  00000ff0:note off:         (0x82,0x2b,0x49).
time:  00000ff0:note off:         (0x82,0x30,0x49).
time:  00000ff0:note on:          (0x92,0x35,0x73).
time:  00000ff0:note on:          (0x92,0x30,0x73).
time:  00000ff0:note on:          (0x92,0x29,0x73).
time:  000010a4:note on:          (0x92,0x35,0x73).
time:  000010a4:note on:          (0x92,0x30,0x73).
time:  000010a4:note on:          (0x92,0x29,0x73).
time:  000010e0:note off:         (0x82,0x35,0x49).
time:  000010e0:note off:         (0x82,0x30,0x49).
time:  000010e0:note off:         (0x82,0x29,0x49).
time:  000010e0:note off:         (0x82,0x35,0x49).
time:  000010e0:note off:         (0x82,0x30,0x49).
time:  000010e0:note off:         (0x82,0x29,0x49).
time:  000010e0:note on:          (0x92,0x35,0x73).
time:  000010e0:note on:          (0x92,0x30,0x73).
time:  000010e0:note on:          (0x92,0x29,0x73).
time:  000011d0:note off:         (0x82,0x35,0x49).
time:  000011d0:note off:         (0x82,0x30,0x49).
time:  000011d0:note off:         (0x82,0x29,0x49).
time:  000011d0:note on:          (0x92,0x35,0x73).
time:  000011d0:note on:          (0x92,0x30,0x73).
time:  000011d0:note on:          (0x92,0x29,0x73).
time:  0000120c:note off:         (0x82,0x35,0x49).
time:  0000120c:note off:         (0x82,0x30,0x49).
time:  0000120c:note off:         (0x82,0x29,0x49).
time:  0000120c:note on:          (0x92,0x35,0x73).
time:  0000120c:note on:          (0x92,0x30,0x73).
time:  0000120c:note on:          (0x92,0x29,0x73).
time:  00001248:note off:         (0x82,0x35,0x49).
time:  00001248:note off:         (0x82,0x30,0x49).
time:  00001248:note off:         (0x82,0x29,0x49).
time:  00001248:note on:          (0x92,0x3a,0x73).
time:  00001248:note on:          (0x92,0x35,0x73).
time:  00001248:note on:          (0x92,0x2e,0x73).
time:  000012c0:note off:         (0x82,0x3a,0x49).
time:  000012c0:note off:         (0x82,0x35,0x49).
time:  000012c0:note off:         (0x82,0x2e,0x49).
time:  000012c0:note on:          (0x92,0x3a,0x73).
time:  000012c0:note on:          (0x92,0x35,0x73).
time:  000012c0:note on:          (0x92,0x2e,0x73).
time:  00001338:note off:         (0x82,0x3a,0x49).
time:  00001338:note off:         (0x82,0x35,0x49).
time:  00001338:note off:         (0x82,0x2e,0x49).
time:  00001338:note on:          (0x92,0x35,0x73).
time:  00001338:note on:          (0x92,0x30,0x73).
time:  00001338:note on:          (0x92,0x29,0x73).
time:  000013b0:note off:         (0x82,0x35,0x49).
time:  000013b0:note off:         (0x82,0x30,0x49).
time:  000013b0:note off:         (0x82,0x29,0x49).
time:  000013b0:note on:          (0x92,0x38,0x73).
time:  000013b0:note on:          (0x92,0x33,0x73).
time:  000013b0:note on:          (0x92,0x2c,0x73).
time:  00001464:note on:          (0x92,0x38,0x73).
time:  00001464:note on:          (0x92,0x33,0x73).
time:  00001464:note on:          (0x92,0x2c,0x73).
time:  000014a0:note off:         (0x82,0x38,0x49).
time:  000014a0:note off:         (0x82,0x33,0x49).
time:  000014a0:note off:         (0x82,0x2c,0x49).
time:  000014a0:note off:         (0x82,0x38,0x49).
time:  000014a0:note off:         (0x82,0x33,0x49).
time:  000014a0:note off:         (0x82,0x2c,0x49).
time:  000014a0:note on:          (0x92,0x38,0x73).
time:  000014a0:note on:          (0x92,0x33,0x73).
time:  000014a0:note on:          (0x92,0x2c,0x73).
time:  00001590:note off:         (0x82,0x38,0x49).
time:  00001590:note off:         (0x82,0x33,0x49).
time:  00001590:note off:         (0x82,0x2c,0x49).
time:  00001590:note on:          (0x92,0x38,0x73).
time:  00001590:note on:          (0x92,0x33,0x73).
time:  00001590:note on:          (0x92,0x2c,0x73).
time:  000015cc:note off:         (0x82,0x38,0x49).
time:  000015cc:note off:         (0x82,0x33,0x49).
time:  000015cc:note off:         (0x82,0x2c,0x49).
time:  000015cc:note on:          (0x92,0x38,0x73).
time:  000015cc:note on:          (0x92,0x33,0x73).
time:  000015cc:note on:          (0x92,0x2c,0x73).
time:  00001608:note off:         (0x82,0x38,0x49).
time:  00001608:note off:         (0x82,0x33,0x49).
time:  00001608:note off:         (0x82,0x2c,0x49).
time:  00001608:note on:          (0x92,0x3d,0x73).
time:  00001608:note on:          (0x92,0x38,0x73).
time:  00001608:note on:          (0x92,0x31,0x73).
time:  00001680:note off:         (0x82,0x3d,0x49).
time:  00001680:note off:         (0x82,0x38,0x49).
time:  00001680:note off:         (0x82,0x31,0x49).
time:  00001680:note on:          (0x92,0x3d,0x73).
time:  00001680:note on:          (0x92,0x38,0x73).
time:  00001680:note on:          (0x92,0x31,0x73).
time:  000016f8:note off:         (0x82,0x3d,0x49).
time:  000016f8:note off:         (0x82,0x38,0x49).
time:  000016f8:note off:         (0x82,0x31,0x49).
time:  000016f8:note on:          (0x92,0x38,0x73).
time:  000016f8:note on:          (0x92,0x33,0x73).
time:  000016f8:note on:          (0x92,0x2c,0x73).
time:  00001770:note off:         (0x82,0x38,0x49).
time:  00001770:note off:         (0x82,0x33,0x49).
time:  00001770:note off:         (0x82,0x2c,0x49).
time:  00001770:note on:          (0x92,0x35,0x73).
time:  00001770:note on:          (0x92,0x30,0x73).
time:  00001770:note on:          (0x92,0x29,0x73).
time:  00001824:note on:          (0x92,0x35,0x73).
time:  00001824:note on:          (0x92,0x30,0x73).
time:  00001824:note on:          (0x92,0x29,0x73).
time:  00001860:note off:         (0x82,0x35,0x49).
time:  00001860:note off:         (0x82,0x30,0x49).
time:  00001860:note off:         (0x82,0x29,0x49).
time:  00001860:note off:         (0x82,0x35,0x49).
time:  00001860:note off:         (0x82,0x30,0x49).
time:  00001860:note off:         (0x82,0x29,0x49).
time:  00001860:note on:          (0x92,0x35,0x73).
time:  00001860:note on:          (0x92,0x30,0x73).
time:  00001860:note on:          (0x92,0x29,0x73).
time:  00001950:note off:         (0x82,0x35,0x49).
time:  00001950:note off:         (0x82,0x30,0x49).
time:  00001950:note off:         (0x82,0x29,0x49).
time:  00001950:note on:          (0x92,0x35,0x73).
time:  00001950:note on:          (0x92,0x30,0x73).
time:  00001950:note on:          (0x92,0x29,0x73).
time:  0000198c:note off:         (0x82,0x35,0x49).
time:  0000198c:note off:         (0x82,0x30,0x49).
time:  0000198c:note off:         (0x82,0x29,0x49).
time:  0000198c:note on:          (0x92,0x35,0x73).
time:  0000198c:note on:          (0x92,0x30,0x73).
time:  0000198c:note on:          (0x92,0x29,0x73).
time:  000019c8:note off:         (0x82,0x35,0x49).
time:  000019c8:note off:         (0x82,0x30,0x49).
time:  000019c8:note off:         (0x82,0x29,0x49).
time:  000019c8:note on:          (0x92,0x3a,0x73).
time:  000019c8:note on:          (0x92,0x35,0x73).
time:  000019c8:note on:          (0x92,0x2e,0x73).
time:  00001a40:note off:         (0x82,0x3a,0x49).
time:  00001a40:note off:         (0x82,0x35,0x49).
time:  00001a40:note off:         (0x82,0x2e,0x49).
time:  00001a40:note on:          (0x92,0x3a,0x73).
time:  00001a40:note on:          (0x92,0x35,0x73).
time:  00001a40:note on:          (0x92,0x2e,0x73).
time:  00001ab8:note off:         (0x82,0x3a,0x49).
time:  00001ab8:note off:         (0x82,0x35,0x49).
time:  00001ab8:note off:         (0x82,0x2e,0x49).
time:  00001ab8:note on:          (0x92,0x35,0x73).
time:  00001ab8:note on:          (0x92,0x30,0x73).
time:  00001ab8:note on:          (0x92,0x29,0x73).
time:  00001b30:note off:         (0x82,0x35,0x49).
time:  00001b30:note off:         (0x82,0x30,0x49).
time:  00001b30:note off:         (0x82,0x29,0x49).
time:  00001b30:note on:          (0x92,0x38,0x73).
time:  00001b30:note on:          (0x92,0x33,0x73).
time:  00001b30:note on:          (0x92,0x2c,0x73).
time:  00001be4:note on:          (0x92,0x38,0x73).
time:  00001be4:note on:          (0x92,0x33,0x73).
time:  00001be4:note on:          (0x92,0x2c,0x73).
time:  00001c20:note off:         (0x82,0x38,0x49).
time:  00001c20:note off:         (0x82,0x33,0x49).
time:  00001c20:note off:         (0x82,0x2c,0x49).
time:  00001c20:note off:         (0x82,0x38,0x49).
time:  00001c20:note off:         (0x82,0x33,0x49).
time:  00001c20:note off:         (0x82,0x2c,0x49).
time:  00001c20:note on:          (0x92,0x38,0x73).
time:  00001c20:note on:          (0x92,0x33,0x73).
time:  00001c20:note on:          (0x92,0x2c,0x73).
time:  00001d10:note off:         (0x82,0x38,0x49).
time:  00001d10:note off:         (0x82,0x33,0x49).
time:  00001d10:note off:         (0x82,0x2c,0x49).
time:  00001d10:note on:          (0x92,0x38,0x73).
time:  00001d10:note on:          (0x92,0x33,0x73).
time:  00001d10:note on:          (0x92,0x2c,0x73).
time:  00001d4c:note off:         (0x82,0x38,0x49).
time:  00001d4c:note off:         (0x82,0x33,0x49).
time:  00001d4c:note off:         (0x82,0x2c,0x49).
time:  00001d4c:note on:          (0x92,0x38,0x73).
time:  00001d4c:note on:          (0x92,0x33,0x73).
time:  00001d4c:note on:          (0x92,0x2c,0x73).
time:  00001d88:note off:         (0x82,0x38,0x49).
time:  00001d88:note off:         (0x82,0x33,0x49).
time:  00001d88:note off:         (0x82,0x2c,0x49).
time:  00001d88:note on:          (0x92,0x3d,0x73).
time:  00001d88:note on:          (0x92,0x38,0x73).
time:  00001d88:note on:          (0x92,0x31,0x73).
time:  00001e00:note off:         (0x82,0x3d,0x49).
time:  00001e00:note off:         (0x82,0x38,0x49).
time:  00001e00:note off:         (0x82,0x31,0x49).
time:  00001e00:note on:          (0x92,0x3d,0x73).
time:  00001e00:note on:          (0x92,0x38,0x73).
time:  00001e00:note on:          (0x92,0x31,0x73).
time:  00001e78:note off:         (0x82,0x3d,0x49).
time:  00001e78:note off:         (0x82,0x38,0x49).
time:  00001e78:note off:         (0x82,0x31,0x49).
time:  00001e78:note on:          (0x92,0x38,0x73).
time:  00001e78:note on:          (0x92,0x33,0x73).
time:  00001e78:note on:          (0x92,0x2c,0x73).
time:  00001ef0:note off:         (0x82,0x38,0x49).
time:  00001ef0:note off:         (0x82,0x33,0x49).
time:  00001ef0:note off:         (0x82,0x2c,0x49).
time:  00001ef0:note on:          (0x92,0x35,0x73).
time:  00001ef0:note on:          (0x92,0x30,0x73).
time:  00001ef0:note on:          (0x92,0x29,0x73).
time:  00001fa4:note on:          (0x92,0x35,0x73).
time:  00001fa4:note on:          (0x92,0x30,0x73).
time:  00001fa4:note on:          (0x92,0x29,0x73).
time:  00001fe0:note off:         (0x82,0x35,0x49).
time:  00001fe0:note off:         (0x82,0x30,0x49).
time:  00001fe0:note off:         (0x82,0x29,0x49).
time:  00001fe0:note off:         (0x82,0x35,0x49).
time:  00001fe0:note off:         (0x82,0x30,0x49).
time:  00001fe0:note off:         (0x82,0x29,0x49).
time:  00001fe0:note on:          (0x92,0x35,0x73).
time:  00001fe0:note on:          (0x92,0x30,0x73).
time:  00001fe0:note on:          (0x92,0x29,0x73).
time:  000020d0:note off:         (0x82,0x35,0x49).
time:  000020d0:note off:         (0x82,0x30,0x49).
time:  000020d0:note off:         (0x82,0x29,0x49).
time:  000020d0:note on:          (0x92,0x35,0x73).
time:  000020d0:note on:          (0x92,0x30,0x73).
time:  000020d0:note on:          (0x92,0x29,0x73).
time:  0000210c:note off:         (0x82,0x35,0x49).
time:  0000210c:note off:         (0x82,0x30,0x49).
time:  0000210c:note off:         (0x82,0x29,0x49).
time:  0000210c:note on:          (0x92,0x35,0x73).
time:  0000210c:note on:          (0x92,0x30,0x73).
time:  0000210c:note on:          (0x92,0x29,0x73).
time:  00002148:note off:         (0x82,0x35,0x49).
time:  00002148:note off:         (0x82,0x30,0x49).
time:  00002148:note off:         (0x82,0x29,0x49).
time:  00002148:note on:          (0x92,0x3a,0x73).
time:  00002148:note on:          (0x92,0x35,0x73).
time:  00002148:note on:          (0x92,0x2e,0x73).
time:  000021c0:note off:         (0x82,0x3a,0x49).
time:  000021c0:note off:         (0x82,0x35,0x49).
time:  000021c0:note off:         (0x82,0x2e,0x49).
time:  000021c0:note on:          (0x92,0x3a,0x73).
time:  000021c0:note on:          (0x92,0x35,0x73).
time:  000021c0:note on:          (0x92,0x2e,0x73).
time:  00002238:note off:         (0x82,0x3a,0x49).
time:  00002238:note off:         (0x82,0x35,0x49).
time:  00002238:note off:         (0x82,0x2e,0x49).
time:  00002238:note on:          (0x92,0x35,0x73).
time:  00002238:note on:          (0x92,0x30,0x73).
time:  00002238:note on:          (0x92,0x29,0x73).
time:  000022b0:note off:         (0x82,0x35,0x49).
time:  000022b0:note off:         (0x82,0x30,0x49).
time:  000022b0:note off:         (0x82,0x29,0x49).
time:  000022b0:note on:          (0x92,0x38,0x73).
time:  000022b0:note on:          (0x92,0x33,0x73).
time:  000022b0:note on:          (0x92,0x2c,0x73).
time:  00002364:note on:          (0x92,0x38,0x73).
time:  00002364:note on:          (0x92,0x33,0x73).
time:  00002364:note on:          (0x92,0x2c,0x73).
time:  000023a0:note off:         (0x82,0x38,0x49).
time:  000023a0:note off:         (0x82,0x33,0x49).
time:  000023a0:note off:         (0x82,0x2c,0x49).
time:  000023a0:note off:         (0x82,0x38,0x49).
time:  000023a0:note off:         (0x82,0x33,0x49).
time:  000023a0:note off:         (0x82,0x2c,0x49).
time:  000023a0:note on:          (0x92,0x38,0x73).
time:  000023a0:note on:          (0x92,0x33,0x73).
time:  000023a0:note on:          (0x92,0x2c,0x73).
time:  00002490:note off:         (0x82,0x38,0x49).
time:  00002490:note off:         (0x82,0x33,0x49).
time:  00002490:note off:         (0x82,0x2c,0x49).
time:  00002490:note on:          (0x92,0x38,0x73).
time:  00002490:note on:          (0x92,0x33,0x73).
time:  00002490:note on:          (0x92,0x2c,0x73).
time:  000024cc:note off:         (0x82,0x38,0x49).
time:  000024cc:note off:         (0x82,0x33,0x49).
time:  000024cc:note off:         (0x82,0x2c,0x49).
time:  000024cc:note on:          (0x92,0x38,0x73).
time:  000024cc:note on:          (0x92,0x33,0x73).
time:  000024cc:note on:          (0x92,0x2c,0x73).
time:  00002508:note off:         (0x82,0x38,0x49).
time:  00002508:note off:         (0x82,0x33,0x49).
time:  00002508:note off:         (0x82,0x2c,0x49).
time:  00002508:note on:          (0x92,0x3d,0x73).
time:  00002508:note on:          (0x92,0x38,0x73).
time:  00002508:note on:          (0x92,0x31,0x73).
time:  00002580:note off:         (0x82,0x3d,0x49).
time:  00002580:note off:         (0x82,0x38,0x49).
time:  00002580:note off:         (0x82,0x31,0x49).
time:  00002580:note on:          (0x92,0x3d,0x73).
time:  00002580:note on:          (0x92,0x38,0x73).
time:  00002580:note on:          (0x92,0x31,0x73).
time:  000025f8:note off:         (0x82,0x3d,0x49).
time:  000025f8:note off:         (0x82,0x38,0x49).
time:  000025f8:note off:         (0x82,0x31,0x49).
time:  000025f8:note on:          (0x92,0x38,0x73).
time:  000025f8:note on:          (0x92,0x33,0x73).
time:  000025f8:note on:          (0x92,0x2c,0x73).
time:  00002670:note off:         (0x82,0x38,0x49).
time:  00002670:note off:         (0x82,0x33,0x49).
time:  00002670:note off:         (0x82,0x2c,0x49).
time:  00002670:note on:          (0x92,0x35,0x73).
time:  00002670:note on:          (0x92,0x30,0x73).
time:  00002670:note on:          (0x92,0x29,0x73).
time:  00002724:note on:          (0x92,0x35,0x73).
time:  00002724:note on:          (0x92,0x30,0x73).
time:  00002724:note on:          (0x92,0x29,0x73).
time:  00002760:note off:         (0x82,0x35,0x49).
time:  00002760:note off:         (0x82,0x30,0x49).
time:  00002760:note off:         (0x82,0x29,0x49).
time:  00002760:note off:         (0x82,0x35,0x49).
time:  00002760:note off:         (0x82,0x30,0x49).
time:  00002760:note off:         (0x82,0x29,0x49).
time:  00002760:note on:          (0x92,0x35,0x73).
time:  00002760:note on:          (0x92,0x30,0x73).
time:  00002760:note on:          (0x92,0x29,0x73).
time:  00002850:note off:         (0x82,0x35,0x49).
time:  00002850:note off:         (0x82,0x30,0x49).
time:  00002850:note off:         (0x82,0x29,0x49).
time:  00002850:note on:          (0x92,0x35,0x73).
time:  00002850:note on:          (0x92,0x30,0x73).
time:  00002850:note on:          (0x92,0x29,0x73).
time:  0000288c:note off:         (0x82,0x35,0x49).
time:  0000288c:note off:         (0x82,0x30,0x49).
time:  0000288c:note off:         (0x82,0x29,0x49).
time:  0000288c:note on:          (0x92,0x35,0x73).
time:  0000288c:note on:          (0x92,0x30,0x73).
time:  0000288c:note on:          (0x92,0x29,0x73).
time:  000028c8:note off:         (0x82,0x35,0x49).
time:  000028c8:note off:         (0x82,0x30,0x49).
time:  000028c8:note off:         (0x82,0x29,0x49).
time:  000028c8:note on:          (0x92,0x3a,0x73).
time:  000028c8:note on:          (0x92,0x35,0x73).
time:  000028c8:note on:          (0x92,0x2e,0x73).
time:  00002940:note off:         (0x82,0x3a,0x49).
time:  00002940:note off:         (0x82,0x35,0x49).
time:  00002940:note off:         (0x82,0x2e,0x49).
time:  00002940:note on:          (0x92,0x3a,0x73).
time:  00002940:note on:          (0x92,0x35,0x73).
time:  00002940:note on:          (0x92,0x2e,0x73).
time:  000029b8:note off:         (0x82,0x3a,0x49).
time:  000029b8:note off:         (0x82,0x35,0x49).
time:  000029b8:note off:         (0x82,0x2e,0x49).
time:  000029b8:note on:          (0x92,0x35,0x73).
time:  000029b8:note on:          (0x92,0x30,0x73).
time:  000029b8:note on:          (0x92,0x29,0x73).
time:  00002a30:note off:         (0x82,0x35,0x49).
time:  00002a30:note off:         (0x82,0x30,0x49).
time:  00002a30:note off:         (0x82,0x29,0x49).
time:  00002a30:note on:          (0x92,0x38,0x73).
time:  00002a30:note on:          (0x92,0x33,0x73).
time:  00002a30:note on:          (0x92,0x2c,0x73).
time:  00002ae4:note on:          (0x92,0x38,0x73).
time:  00002ae4:note on:          (0x92,0x33,0x73).
time:  00002ae4:note on:          (0x92,0x2c,0x73).
time:  00002b20:note off:         (0x82,0x38,0x49).
time:  00002b20:note off:         (0x82,0x33,0x49).
time:  00002b20:note off:         (0x82,0x2c,0x49).
time:  00002b20:note off:         (0x82,0x38,0x49).
time:  00002b20:note off:         (0x82,0x33,0x49).
time:  00002b20:note off:         (0x82,0x2c,0x49).
time:  00002b20:note on:          (0x92,0x38,0x73).
time:  00002b20:note on:          (0x92,0x33,0x73).
time:  00002b20:note on:          (0x92,0x2c,0x73).
time:  00002c10:note off:         (0x82,0x38,0x49).
time:  00002c10:note off:         (0x82,0x33,0x49).
time:  00002c10:note off:         (0x82,0x2c,0x49).
time:  00002c10:note on:          (0x92,0x38,0x73).
time:  00002c10:note on:          (0x92,0x33,0x73).
time:  00002c10:note on:          (0x92,0x2c,0x73).
time:  00002c4c:note off:         (0x82,0x38,0x49).
time:  00002c4c:note off:         (0x82,0x33,0x49).
time:  00002c4c:note off:         (0x82,0x2c,0x49).
time:  00002c4c:note on:          (0x92,0x38,0x73).
time:  00002c4c:note on:          (0x92,0x33,0x73).
time:  00002c4c:note on:          (0x92,0x2c,0x73).
time:  00002c88:note off:         (0x82,0x38,0x49).
time:  00002c88:note off:         (0x82,0x33,0x49).
time:  00002c88:note off:         (0x82,0x2c,0x49).
time:  00002c88:note on:          (0x92,0x3d,0x73).
time:  00002c88:note on:          (0x92,0x38,0x73).
time:  00002c88:note on:          (0x92,0x31,0x73).
time:  00002d00:note off:         (0x82,0x3d,0x49).
time:  00002d00:note off:         (0x82,0x38,0x49).
time:  00002d00:note off:         (0x82,0x31,0x49).
time:  00002d00:note on:          (0x92,0x3d,0x73).
time:  00002d00:note on:          (0x92,0x38,0x73).
time:  00002d00:note on:          (0x92,0x31,0x73).
time:  00002d3c:note off:         (0x82,0x3d,0x49).
time:  00002d3c:note off:         (0x82,0x38,0x49).
time:  00002d3c:note off:         (0x82,0x31,0x49).
time:  00002d3c:note on:          (0x92,0x3d,0x73).
time:  00002d3c:note on:          (0x92,0x38,0x73).
time:  00002d3c:note on:          (0x92,0x31,0x73).
time:  00002db4:note off:         (0x82,0x3d,0x49).
time:  00002db4:note off:         (0x82,0x38,0x49).
time:  00002db4:note off:         (0x82,0x31,0x49).
time:  00005af0:note on:          (0x92,0x29,0x73).
time:  00005af0:note on:          (0x92,0x30,0x73).
time:  00005af0:note on:          (0x92,0x35,0x73).
time:  00006270:note off:         (0x82,0x29,0x49).
time:  00006270:note off:         (0x82,0x30,0x49).
time:  00006270:note off:         (0x82,0x35,0x49).
time:  00006270:note on:          (0x92,0x29,0x73).
time:  00006270:note on:          (0x92,0x30,0x73).
time:  00006270:note on:          (0x92,0x35,0x73).
time:  000069f0:note off:         (0x82,0x29,0x49).
time:  000069f0:note off:         (0x82,0x30,0x49).
time:  000069f0:note off:         (0x82,0x35,0x49).
time:  000069f0:note on:          (0x92,0x29,0x73).
time:  000069f0:note on:          (0x92,0x30,0x73).
time:  000069f0:note on:          (0x92,0x35,0x73).
time:  00007170:note off:         (0x82,0x29,0x49).
time:  00007170:note off:         (0x82,0x30,0x49).
time:  00007170:note off:         (0x82,0x35,0x49).
time:  00007170:note on:          (0x92,0x29,0x73).
time:  00007170:note on:          (0x92,0x30,0x73).
time:  00007170:note on:          (0x92,0x35,0x73).
time:  000078f0:note off:         (0x82,0x29,0x49).
time:  000078f0:note off:         (0x82,0x30,0x49).
time:  000078f0:note off:         (0x82,0x35,0x49).
time:  000078f0:note on:          (0x92,0x35,0x73).
time:  000078f0:note on:          (0x92,0x30,0x73).
time:  000078f0:note on:          (0x92,0x29,0x73).
time:  000079a4:note on:          (0x92,0x35,0x73).
time:  000079a4:note on:          (0x92,0x30,0x73).
time:  000079a4:note on:          (0x92,0x29,0x73).
time:  000079e0:note off:         (0x82,0x35,0x49).
time:  000079e0:note off:         (0x82,0x30,0x49).
time:  000079e0:note off:         (0x82,0x29,0x49).
time:  000079e0:note off:         (0x82,0x35,0x49).
time:  000079e0:note off:         (0x82,0x30,0x49).
time:  000079e0:note off:         (0x82,0x29,0x49).
time:  000079e0:note on:          (0x92,0x35,0x73).
time:  000079e0:note on:          (0x92,0x30,0x73).
time:  000079e0:note on:          (0x92,0x29,0x73).
time:  00007ad0:note off:         (0x82,0x35,0x49).
time:  00007ad0:note off:         (0x82,0x30,0x49).
time:  00007ad0:note off:         (0x82,0x29,0x49).
time:  00007ad0:note on:          (0x92,0x35,0x73).
time:  00007ad0:note on:          (0x92,0x30,0x73).
time:  00007ad0:note on:          (0x92,0x29,0x73).
time:  00007b0c:note off:         (0x82,0x35,0x49).
time:  00007b0c:note off:         (0x82,0x30,0x49).
time:  00007b0c:note off:         (0x82,0x29,0x49).
time:  00007b0c:note on:          (0x92,0x35,0x73).
time:  00007b0c:note on:          (0x92,0x30,0x73).
time:  00007b0c:note on:          (0x92,0x29,0x73).
time:  00007b48:note off:         (0x82,0x35,0x49).
time:  00007b48:note off:         (0x82,0x30,0x49).
time:  00007b48:note off:         (0x82,0x29,0x49).
time:  00007b48:note on:          (0x92,0x3a,0x73).
time:  00007b48:note on:          (0x92,0x35,0x73).
time:  00007b48:note on:          (0x92,0x2e,0x73).
time:  00007bc0:note off:         (0x82,0x3a,0x49).
time:  00007bc0:note off:         (0x82,0x35,0x49).
time:  00007bc0:note off:         (0x82,0x2e,0x49).
time:  00007bc0:note on:          (0x92,0x3a,0x73).
time:  00007bc0:note on:          (0x92,0x35,0x73).
time:  00007bc0:note on:          (0x92,0x2e,0x73).
time:  00007c38:note off:         (0x82,0x3a,0x49).
time:  00007c38:note off:         (0x82,0x35,0x49).
time:  00007c38:note off:         (0x82,0x2e,0x49).
time:  00007c38:note on:          (0x92,0x35,0x73).
time:  00007c38:note on:          (0x92,0x30,0x73).
time:  00007c38:note on:          (0x92,0x29,0x73).
time:  00007cb0:note off:         (0x82,0x35,0x49).
time:  00007cb0:note off:         (0x82,0x30,0x49).
time:  00007cb0:note off:         (0x82,0x29,0x49).
time:  00007cb0:note on:          (0x92,0x38,0x73).
time:  00007cb0:note on:          (0x92,0x33,0x73).
time:  00007cb0:note on:          (0x92,0x2c,0x73).
time:  00007d64:note on:          (0x92,0x38,0x73).
time:  00007d64:note on:          (0x92,0x33,0x73).
time:  00007d64:note on:          (0x92,0x2c,0x73).
time:  00007da0:note off:         (0x82,0x38,0x49).
time:  00007da0:note off:         (0x82,0x33,0x49).
time:  00007da0:note off:         (0x82,0x2c,0x49).
time:  00007da0:note off:         (0x82,0x38,0x49).
time:  00007da0:note off:         (0x82,0x33,0x49).
time:  00007da0:note off:         (0x82,0x2c,0x49).
time:  00007da0:note on:          (0x92,0x38,0x73).
time:  00007da0:note on:          (0x92,0x33,0x73).
time:  00007da0:note on:          (0x92,0x2c,0x73).
time:  00007e90:note off:         (0x82,0x38,0x49).
time:  00007e90:note off:         (0x82,0x33,0x49).
time:  00007e90:note off:         (0x82,0x2c,0x49).
time:  00007e90:note on:          (0x92,0x38,0x73).
time:  00007e90:note on:          (0x92,0x33,0x73).
time:  00007e90:note on:          (0x92,0x2c,0x73).
time:  00007ecc:note off:         (0x82,0x38,0x49).
time:  00007ecc:note off:         (0x82,0x33,0x49).
time:  00007ecc:note off:         (0x82,0x2c,0x49).
time:  00007ecc:note on:          (0x92,0x38,0x73).
time:  00007ecc:note on:          (0x92,0x33,0x73).
time:  00007ecc:note on:          (0x92,0x2c,0x73).
time:  00007f08:note off:         (0x82,0x38,0x49).
time:  00007f08:note off:         (0x82,0x33,0x49).
time:  00007f08:note off:         (0x82,0x2c,0x49).
time:  00007f08:note on:          (0x92,0x3d,0x73).
time:  00007f08:note on:          (0x92,0x38,0x73).
time:  00007f08:note on:          (0x92,0x31,0x73).
time:  00007f80:note off:         (0x82,0x3d,0x49).
time:  00007f80:note off:         (0x82,0x38,0x49).
time:  00007f80:note off:         (0x82,0x31,0x49).
time:  00007f80:note on:          (0x92,0x3d,0x73).
time:  00007f80:note on:          (0x92,0x38,0x73).
time:  00007f80:note on:          (0x92,0x31,0x73).
time:  00007ff8:note off:         (0x82,0x3d,0x49).
time:  00007ff8:note off:         (0x82,0x38,0x49).
time:  00007ff8:note off:         (0x82,0x31,0x49).
time:  00007ff8:note on:          (0x92,0x38,0x73).
time:  00007ff8:note on:          (0x92,0x33,0x73).
time:  00007ff8:note on:          (0x92,0x2c,0x73).
time:  00008070:note off:         (0x82,0x38,0x49).
time:  00008070:note off:         (0x82,0x33,0x49).
time:  00008070:note off:         (0x82,0x2c,0x49).
time:  00008070:note on:          (0x92,0x35,0x73).
time:  00008070:note on:          (0x92,0x30,0x73).
time:  00008070:note on:          (0x92,0x29,0x73).
time:  00008124:note on:          (0x92,0x35,0x73).
time:  00008124:note on:          (0x92,0x30,0x73).
time:  00008124:note on:          (0x92,0x29,0x73).
time:  00008160:note off:         (0x82,0x35,0x49).
time:  00008160:note off:         (0x82,0x30,0x49).
time:  00008160:note off:         (0x82,0x29,0x49).
time:  00008160:note off:         (0x82,0x35,0x49).
time:  00008160:note off:         (0x82,0x30,0x49).
time:  00008160:note off:         (0x82,0x29,0x49).
time:  00008160:note on:          (0x92,0x35,0x73).
time:  00008160:note on:          (0x92,0x30,0x73).
time:  00008160:note on:          (0x92,0x29,0x73).
time:  00008250:note off:         (0x82,0x35,0x49).
time:  00008250:note off:         (0x82,0x30,0x49).
time:  00008250:note off:         (0x82,0x29,0x49).
time:  00008250:note on:          (0x92,0x35,0x73).
time:  00008250:note on:          (0x92,0x30,0x73).
time:  00008250:note on:          (0x92,0x29,0x73).
time:  0000828c:note off:         (0x82,0x35,0x49).
time:  0000828c:note off:         (0x82,0x30,0x49).
time:  0000828c:note off:         (0x82,0x29,0x49).
time:  0000828c:note on:          (0x92,0x35,0x73).
time:  0000828c:note on:          (0x92,0x30,0x73).
time:  0000828c:note on:          (0x92,0x29,0x73).
time:  000082c8:note off:         (0x82,0x35,0x49).
time:  000082c8:note off:         (0x82,0x30,0x49).
time:  000082c8:note off:         (0x82,0x29,0x49).
time:  000082c8:note on:          (0x92,0x3a,0x73).
time:  000082c8:note on:          (0x92,0x35,0x73).
time:  000082c8:note on:          (0x92,0x2e,0x73).
time:  00008340:note off:         (0x82,0x3a,0x49).
time:  00008340:note off:         (0x82,0x35,0x49).
time:  00008340:note off:         (0x82,0x2e,0x49).
time:  00008340:note on:          (0x92,0x3a,0x73).
time:  00008340:note on:          (0x92,0x35,0x73).
time:  00008340:note on:          (0x92,0x2e,0x73).
time:  000083b8:note off:         (0x82,0x3a,0x49).
time:  000083b8:note off:         (0x82,0x35,0x49).
time:  000083b8:note off:         (0x82,0x2e,0x49).
time:  000083b8:note on:          (0x92,0x35,0x73).
time:  000083b8:note on:          (0x92,0x30,0x73).
time:  000083b8:note on:          (0x92,0x29,0x73).
time:  00008430:note off:         (0x82,0x35,0x49).
time:  00008430:note off:         (0x82,0x30,0x49).
time:  00008430:note off:         (0x82,0x29,0x49).
time:  00008430:note on:          (0x92,0x38,0x73).
time:  00008430:note on:          (0x92,0x33,0x73).
time:  00008430:note on:          (0x92,0x2c,0x73).
time:  000084e4:note on:          (0x92,0x38,0x73).
time:  000084e4:note on:          (0x92,0x33,0x73).
time:  000084e4:note on:          (0x92,0x2c,0x73).
time:  00008520:note off:         (0x82,0x38,0x49).
time:  00008520:note off:         (0x82,0x33,0x49).
time:  00008520:note off:         (0x82,0x2c,0x49).
time:  00008520:note off:         (0x82,0x38,0x49).
time:  00008520:note off:         (0x82,0x33,0x49).
time:  00008520:note off:         (0x82,0x2c,0x49).
time:  00008520:note on:          (0x92,0x38,0x73).
time:  00008520:note on:          (0x92,0x33,0x73).
time:  00008520:note on:          (0x92,0x2c,0x73).
time:  00008610:note off:         (0x82,0x38,0x49).
time:  00008610:note off:         (0x82,0x33,0x49).
time:  00008610:note off:         (0x82,0x2c,0x49).
time:  00008610:note on:          (0x92,0x38,0x73).
time:  00008610:note on:          (0x92,0x33,0x73).
time:  00008610:note on:          (0x92,0x2c,0x73).
time:  0000864c:note off:         (0x82,0x38,0x49).
time:  0000864c:note off:         (0x82,0x33,0x49).
time:  0000864c:note off:         (0x82,0x2c,0x49).
time:  0000864c:note on:          (0x92,0x38,0x73).
time:  0000864c:note on:          (0x92,0x33,0x73).
time:  0000864c:note on:          (0x92,0x2c,0x73).
time:  00008688:note off:         (0x82,0x38,0x49).
time:  00008688:note off:         (0x82,0x33,0x49).
time:  00008688:note off:         (0x82,0x2c,0x49).
time:  00008688:note on:          (0x92,0x3d,0x73).
time:  00008688:note on:          (0x92,0x38,0x73).
time:  00008688:note on:          (0x92,0x31,0x73).
time:  00008700:note off:         (0x82,0x3d,0x49).
time:  00008700:note off:         (0x82,0x38,0x49).
time:  00008700:note off:         (0x82,0x31,0x49).
time:  00008700:note on:          (0x92,0x3d,0x73).
time:  00008700:note on:          (0x92,0x38,0x73).
time:  00008700:note on:          (0x92,0x31,0x73).
time:  00008778:note off:         (0x82,0x3d,0x49).
time:  00008778:note off:         (0x82,0x38,0x49).
time:  00008778:note off:         (0x82,0x31,0x49).
time:  00008778:note on:          (0x92,0x38,0x73).
time:  00008778:note on:          (0x92,0x33,0x73).
time:  00008778:note on:          (0x92,0x2c,0x73).
time:  000087f0:note off:         (0x82,0x38,0x49).
time:  000087f0:note off:         (0x82,0x33,0x49).
time:  000087f0:note off:         (0x82,0x2c,0x49).
time:  000087f0:note on:          (0x92,0x35,0x73).
time:  000087f0:note on:          (0x92,0x30,0x73).
time:  000087f0:note on:          (0x92,0x29,0x73).
time:  000088a4:note on:          (0x92,0x35,0x73).
time:  000088a4:note on:          (0x92,0x30,0x73).
time:  000088a4:note on:          (0x92,0x29,0x73).
time:  000088e0:note off:         (0x82,0x35,0x49).
time:  000088e0:note off:         (0x82,0x30,0x49).
time:  000088e0:note off:         (0x82,0x29,0x49).
time:  000088e0:note off:         (0x82,0x35,0x49).
time:  000088e0:note off:         (0x82,0x30,0x49).
time:  000088e0:note off:         (0x82,0x29,0x49).
time:  000088e0:note on:          (0x92,0x35,0x73).
time:  000088e0:note on:          (0x92,0x30,0x73).
time:  000088e0:note on:          (0x92,0x29,0x73).
time:  000089d0:note off:         (0x82,0x35,0x49).
time:  000089d0:note off:         (0x82,0x30,0x49).
time:  000089d0:note off:         (0x82,0x29,0x49).
time:  000089d0:note on:          (0x92,0x35,0x73).
time:  000089d0:note on:          (0x92,0x30,0x73).
time:  000089d0:note on:          (0x92,0x29,0x73).
time:  00008a0c:note off:         (0x82,0x35,0x49).
time:  00008a0c:note off:         (0x82,0x30,0x49).
time:  00008a0c:note off:         (0x82,0x29,0x49).
time:  00008a0c:note on:          (0x92,0x35,0x73).
time:  00008a0c:note on:          (0x92,0x30,0x73).
time:  00008a0c:note on:          (0x92,0x29,0x73).
time:  00008a48:note off:         (0x82,0x35,0x49).
time:  00008a48:note off:         (0x82,0x30,0x49).
time:  00008a48:note off:         (0x82,0x29,0x49).
time:  00008a48:note on:          (0x92,0x3a,0x73).
time:  00008a48:note on:          (0x92,0x35,0x73).
time:  00008a48:note on:          (0x92,0x2e,0x73).
time:  00008ac0:note off:         (0x82,0x3a,0x49).
time:  00008ac0:note off:         (0x82,0x35,0x49).
time:  00008ac0:note off:         (0x82,0x2e,0x49).
time:  00008ac0:note on:          (0x92,0x3a,0x73).
time:  00008ac0:note on:          (0x92,0x35,0x73).
time:  00008ac0:note on:          (0x92,0x2e,0x73).
time:  00008b38:note off:         (0x82,0x3a,0x49).
time:  00008b38:note off:         (0x82,0x35,0x49).
time:  00008b38:note off:         (0x82,0x2e,0x49).
time:  00008b38:note on:          (0x92,0x35,0x73).
time:  00008b38:note on:          (0x92,0x30,0x73).
time:  00008b38:note on:          (0x92,0x29,0x73).
time:  00008bb0:note off:         (0x82,0x35,0x49).
time:  00008bb0:note off:         (0x82,0x30,0x49).
time:  00008bb0:note off:         (0x82,0x29,0x49).
time:  00008bb0:note on:          (0x92,0x38,0x73).
time:  00008bb0:note on:          (0x92,0x33,0x73).
time:  00008bb0:note on:          (0x92,0x2c,0x73).
time:  00008c64:note on:          (0x92,0x38,0x73).
time:  00008c64:note on:          (0x92,0x33,0x73).
time:  00008c64:note on:          (0x92,0x2c,0x73).
time:  00008ca0:note off:         (0x82,0x38,0x49).
time:  00008ca0:note off:         (0x82,0x33,0x49).
time:  00008ca0:note off:         (0x82,0x2c,0x49).
time:  00008ca0:note off:         (0x82,0x38,0x49).
time:  00008ca0:note off:         (0x82,0x33,0x49).
time:  00008ca0:note off:         (0x82,0x2c,0x49).
time:  00008ca0:note on:          (0x92,0x38,0x73).
time:  00008ca0:note on:          (0x92,0x33,0x73).
time:  00008ca0:note on:          (0x92,0x2c,0x73).
time:  00008d90:note off:         (0x82,0x38,0x49).
time:  00008d90:note off:         (0x82,0x33,0x49).
time:  00008d90:note off:         (0x82,0x2c,0x49).
time:  00008d90:note on:          (0x92,0x38,0x73).
time:  00008d90:note on:          (0x92,0x33,0x73).
time:  00008d90:note on:          (0x92,0x2c,0x73).
time:  00008dcc:note off:         (0x82,0x38,0x49).
time:  00008dcc:note off:         (0x82,0x33,0x49).
time:  00008dcc:note off:         (0x82,0x2c,0x49).
time:  00008dcc:note on:          (0x92,0x38,0x73).
time:  00008dcc:note on:          (0x92,0x33,0x73).
time:  00008dcc:note on:          (0x92,0x2c,0x73).
time:  00008e08:note off:         (0x82,0x38,0x49).
time:  00008e08:note off:         (0x82,0x33,0x49).
time:  00008e08:note off:         (0x82,0x2c,0x49).
time:  00008e08:note on:          (0x92,0x3d,0x73).
time:  00008e08:note on:          (0x92,0x38,0x73).
time:  00008e08:note on:          (0x92,0x31,0x73).
time:  00008e80:note off:         (0x82,0x3d,0x49).
time:  00008e80:note off:         (0x82,0x38,0x49).
time:  00008e80:note off:         (0x82,0x31,0x49).
time:  00008e80:note on:          (0x92,0x3d,0x73).
time:  00008e80:note on:          (0x92,0x38,0x73).
time:  00008e80:note on:          (0x92,0x31,0x73).
time:  00008ef8:note off:         (0x82,0x3d,0x49).
time:  00008ef8:note off:         (0x82,0x38,0x49).
time:  00008ef8:note off:         (0x82,0x31,0x49).
time:  00008ef8:note on:          (0x92,0x38,0x73).
time:  00008ef8:note on:          (0x92,0x33,0x73).
time:  00008ef8:note on:          (0x92,0x2c,0x73).
time:  00008f70:note off:         (0x82,0x38,0x49).
time:  00008f70:note off:         (0x82,0x33,0x49).
time:  00008f70:note off:         (0x82,0x2c,0x49).
time:  00008f70:note on:          (0x92,0x35,0x73).
time:  00008f70:note on:          (0x92,0x30,0x73).
time:  00008f70:note on:          (0x92,0x29,0x73).
time:  00009024:note on:          (0x92,0x35,0x73).
time:  00009024:note on:          (0x92,0x30,0x73).
time:  00009024:note on:          (0x92,0x29,0x73).
time:  00009060:note off:         (0x82,0x35,0x49).
time:  00009060:note off:         (0x82,0x30,0x49).
time:  00009060:note off:         (0x82,0x29,0x49).
time:  00009060:note off:         (0x82,0x35,0x49).
time:  00009060:note off:         (0x82,0x30,0x49).
time:  00009060:note off:         (0x82,0x29,0x49).
time:  00009060:note on:          (0x92,0x35,0x73).
time:  00009060:note on:          (0x92,0x30,0x73).
time:  00009060:note on:          (0x92,0x29,0x73).
time:  00009150:note off:         (0x82,0x35,0x49).
time:  00009150:note off:         (0x82,0x30,0x49).
time:  00009150:note off:         (0x82,0x29,0x49).
time:  00009150:note on:          (0x92,0x35,0x73).
time:  00009150:note on:          (0x92,0x30,0x73).
time:  00009150:note on:          (0x92,0x29,0x73).
time:  0000918c:note off:         (0x82,0x35,0x49).
time:  0000918c:note off:         (0x82,0x30,0x49).
time:  0000918c:note off:         (0x82,0x29,0x49).
time:  0000918c:note on:          (0x92,0x35,0x73).
time:  0000918c:note on:          (0x92,0x30,0x73).
time:  0000918c:note on:          (0x92,0x29,0x73).
time:  000091c8:note off:         (0x82,0x35,0x49).
time:  000091c8:note off:         (0x82,0x30,0x49).
time:  000091c8:note off:         (0x82,0x29,0x49).
time:  000091c8:note on:          (0x92,0x3a,0x73).
time:  000091c8:note on:          (0x92,0x35,0x73).
time:  000091c8:note on:          (0x92,0x2e,0x73).
time:  00009240:note off:         (0x82,0x3a,0x49).
time:  00009240:note off:         (0x82,0x35,0x49).
time:  00009240:note off:         (0x82,0x2e,0x49).
time:  00009240:note on:          (0x92,0x3a,0x73).
time:  00009240:note on:          (0x92,0x35,0x73).
time:  00009240:note on:          (0x92,0x2e,0x73).
time:  000092b8:note off:         (0x82,0x3a,0x49).
time:  000092b8:note off:         (0x82,0x35,0x49).
time:  000092b8:note off:         (0x82,0x2e,0x49).
time:  000092b8:note on:          (0x92,0x35,0x73).
time:  000092b8:note on:          (0x92,0x30,0x73).
time:  000092b8:note on:          (0x92,0x29,0x73).
time:  00009330:note off:         (0x82,0x35,0x49).
time:  00009330:note off:         (0x82,0x30,0x49).
time:  00009330:note off:         (0x82,0x29,0x49).
time:  00009330:note on:          (0x92,0x38,0x73).
time:  00009330:note on:          (0x92,0x33,0x73).
time:  00009330:note on:          (0x92,0x2c,0x73).
time:  000093e4:note on:          (0x92,0x38,0x73).
time:  000093e4:note on:          (0x92,0x33,0x73).
time:  000093e4:note on:          (0x92,0x2c,0x73).
time:  00009420:note off:         (0x82,0x38,0x49).
time:  00009420:note off:         (0x82,0x33,0x49).
time:  00009420:note off:         (0x82,0x2c,0x49).
time:  00009420:note off:         (0x82,0x38,0x49).
time:  00009420:note off:         (0x82,0x33,0x49).
time:  00009420:note off:         (0x82,0x2c,0x49).
time:  00009420:note on:          (0x92,0x38,0x73).
time:  00009420:note on:          (0x92,0x33,0x73).
time:  00009420:note on:          (0x92,0x2c,0x73).
time:  00009510:note off:         (0x82,0x38,0x49).
time:  00009510:note off:         (0x82,0x33,0x49).
time:  00009510:note off:         (0x82,0x2c,0x49).
time:  00009510:note on:          (0x92,0x38,0x73).
time:  00009510:note on:          (0x92,0x33,0x73).
time:  00009510:note on:          (0x92,0x2c,0x73).
time:  0000954c:note off:         (0x82,0x38,0x49).
time:  0000954c:note off:         (0x82,0x33,0x49).
time:  0000954c:note off:         (0x82,0x2c,0x49).
time:  0000954c:note on:          (0x92,0x38,0x73).
time:  0000954c:note on:          (0x92,0x33,0x73).
time:  0000954c:note on:          (0x92,0x2c,0x73).
time:  00009588:note off:         (0x82,0x38,0x49).
time:  00009588:note off:         (0x82,0x33,0x49).
time:  00009588:note off:         (0x82,0x2c,0x49).
time:  00009588:note on:          (0x92,0x3d,0x73).
time:  00009588:note on:          (0x92,0x38,0x73).
time:  00009588:note on:          (0x92,0x31,0x73).
time:  00009600:note off:         (0x82,0x3d,0x49).
time:  00009600:note off:         (0x82,0x38,0x49).
time:  00009600:note off:         (0x82,0x31,0x49).
time:  00009600:note on:          (0x92,0x3d,0x73).
time:  00009600:note on:          (0x92,0x38,0x73).
time:  00009600:note on:          (0x92,0x31,0x73).
time:  00009678:note off:         (0x82,0x3d,0x49).
time:  00009678:note off:         (0x82,0x38,0x49).
time:  00009678:note off:         (0x82,0x31,0x49).
time:  00009678:note on:          (0x92,0x3d,0x73).
time:  00009678:note on:          (0x92,0x31,0x73).
time:  00009678:note on:          (0x92,0x38,0x73).
time:  000096f0:note off:         (0x82,0x3d,0x49).
time:  000096f0:note off:         (0x82,0x31,0x49).
time:  000096f0:note off:         (0x82,0x38,0x49).
time:  000096f0:note on:          (0x92,0x29,0x73).
time:  000096f0:note on:          (0x92,0x30,0x73).
time:  000096f0:note on:          (0x92,0x35,0x73).
time:  000097e0:note off:         (0x82,0x29,0x49).
time:  000097e0:note off:         (0x82,0x30,0x49).
time:  000097e0:note off:         (0x82,0x35,0x49).
time:  000097e0:note on:          (0x92,0x28,0x73).
time:  000097e0:note on:          (0x92,0x2f,0x73).
time:  000097e0:note on:          (0x92,0x34,0x73).
time:  00009858:note off:         (0x82,0x28,0x49).
time:  00009858:note off:         (0x82,0x2f,0x49).
time:  00009858:note off:         (0x82,0x34,0x49).
time:  00009858:note on:          (0x92,0x35,0x73).
time:  00009858:note on:          (0x92,0x30,0x73).
time:  00009858:note on:          (0x92,0x29,0x73).
time:  000098d0:note off:         (0x82,0x35,0x49).
time:  000098d0:note off:         (0x82,0x30,0x49).
time:  000098d0:note off:         (0x82,0x29,0x49).
time:  000098d0:note on:          (0x92,0x36,0x73).
time:  000098d0:note on:          (0x92,0x31,0x73).
time:  000098d0:note on:          (0x92,0x2a,0x73).
time:  00009948:note off:         (0x82,0x36,0x49).
time:  00009948:note off:         (0x82,0x31,0x49).
time:  00009948:note off:         (0x82,0x2a,0x49).
time:  00009948:note on:          (0x92,0x36,0x73).
time:  00009948:note on:          (0x92,0x31,0x73).
time:  00009948:note on:          (0x92,0x2a,0x73).
time:  000099c0:note off:         (0x82,0x36,0x49).
time:  000099c0:note off:         (0x82,0x31,0x49).
time:  000099c0:note off:         (0x82,0x2a,0x49).
time:  000099c0:note on:          (0x92,0x36,0x7f).
time:  000099f9:pitch wheel:      (0xe2,0x78,0x55).
time:  000099f9:controller:       (0xb2,0x01,0x41).
time:  00009a35:pitch wheel:      (0xe2,0x48,0x65).
time:  00009aad:pitch wheel:      (0xe2,0x00,0x40).
time:  00009aad:controller:       (0xb2,0x01,0x00).
time:  00009ab0:note off:         (0x82,0x36,0x49).
time:  00009ab0:note on:          (0x92,0x29,0x73).
time:  00009ab0:note on:          (0x92,0x30,0x73).
time:  00009ab0:note on:          (0x92,0x35,0x73).
time:  00009ba0:note off:         (0x82,0x29,0x49).
time:  00009ba0:note off:         (0x82,0x30,0x49).
time:  00009ba0:note off:         (0x82,0x35,0x49).
time:  00009ba0:note on:          (0x92,0x28,0x73).
time:  00009ba0:note on:          (0x92,0x2f,0x73).
time:  00009ba0:note on:          (0x92,0x34,0x73).
time:  00009c18:note off:         (0x82,0x28,0x49).
time:  00009c18:note off:         (0x82,0x2f,0x49).
time:  00009c18:note off:         (0x82,0x34,0x49).
time:  00009c18:note on:          (0x92,0x35,0x73).
time:  00009c18:note on:          (0x92,0x30,0x73).
time:  00009c18:note on:          (0x92,0x29,0x73).
time:  00009c90:note off:         (0x82,0x35,0x49).
time:  00009c90:note off:         (0x82,0x30,0x49).
time:  00009c90:note off:         (0x82,0x29,0x49).
time:  00009c90:note on:          (0x92,0x3a,0x73).
time:  00009c90:note on:          (0x92,0x35,0x73).
time:  00009c90:note on:          (0x92,0x2e,0x73).
time:  00009d80:note off:         (0x82,0x3a,0x49).
time:  00009d80:note off:         (0x82,0x35,0x49).
time:  00009d80:note off:         (0x82,0x2e,0x49).
time:  00009d80:note on:          (0x92,0x38,0x73).
time:  00009d80:note on:          (0x92,0x33,0x73).
time:  00009d80:note on:          (0x92,0x2c,0x73).
time:  00009e70:note off:         (0x82,0x38,0x49).
time:  00009e70:note off:         (0x82,0x33,0x49).
time:  00009e70:note off:         (0x82,0x2c,0x49).
time:  00009e70:note on:          (0x92,0x29,0x73).
time:  00009e70:note on:          (0x92,0x30,0x73).
time:  00009e70:note on:          (0x92,0x35,0x73).
time:  00009f60:note off:         (0x82,0x29,0x49).
time:  00009f60:note off:         (0x82,0x30,0x49).
time:  00009f60:note off:         (0x82,0x35,0x49).
time:  00009f60:note on:          (0x92,0x28,0x73).
time:  00009f60:note on:          (0x92,0x2f,0x73).
time:  00009f60:note on:          (0x92,0x34,0x73).
time:  00009fd8:note off:         (0x82,0x28,0x49).
time:  00009fd8:note off:         (0x82,0x2f,0x49).
time:  00009fd8:note off:         (0x82,0x34,0x49).
time:  00009fd8:note on:          (0x92,0x35,0x73).
time:  00009fd8:note on:          (0x92,0x30,0x73).
time:  00009fd8:note on:          (0x92,0x29,0x73).
time:  0000a050:note off:         (0x82,0x35,0x49).
time:  0000a050:note off:         (0x82,0x30,0x49).
time:  0000a050:note off:         (0x82,0x29,0x49).
time:  0000a050:note on:          (0x92,0x36,0x73).
time:  0000a050:note on:          (0x92,0x31,0x73).
time:  0000a050:note on:          (0x92,0x2a,0x73).
time:  0000a0c8:note off:         (0x82,0x36,0x49).
time:  0000a0c8:note off:         (0x82,0x31,0x49).
time:  0000a0c8:note off:         (0x82,0x2a,0x49).
time:  0000a0c8:note on:          (0x92,0x36,0x73).
time:  0000a0c8:note on:          (0x92,0x31,0x73).
time:  0000a0c8:note on:          (0x92,0x2a,0x73).
time:  0000a140:note off:         (0x82,0x36,0x49).
time:  0000a140:note off:         (0x82,0x31,0x49).
time:  0000a140:note off:         (0x82,0x2a,0x49).
time:  0000a140:note on:          (0x92,0x36,0x7f).
time:  0000a179:pitch wheel:      (0xe2,0x78,0x55).
time:  0000a179:controller:       (0xb2,0x01,0x41).
time:  0000a1b5:pitch wheel:      (0xe2,0x48,0x65).
time:  0000a22d:pitch wheel:      (0xe2,0x00,0x40).
time:  0000a22d:controller:       (0xb2,0x01,0x00).
time:  0000a230:note off:         (0x82,0x36,0x49).
time:  0000a230:note on:          (0x92,0x29,0x73).
time:  0000a230:note on:          (0x92,0x30,0x73).
time:  0000a230:note on:          (0x92,0x35,0x73).
time:  0000a320:note off:         (0x82,0x29,0x49).
time:  0000a320:note off:         (0x82,0x30,0x49).
time:  0000a320:note off:         (0x82,0x35,0x49).
time:  0000a320:note on:          (0x92,0x28,0x73).
time:  0000a320:note on:          (0x92,0x2f,0x73).
time:  0000a320:note on:          (0x92,0x34,0x73).
time:  0000a398:note off:         (0x82,0x28,0x49).
time:  0000a398:note off:         (0x82,0x2f,0x49).
time:  0000a398:note off:         (0x82,0x34,0x49).
time:  0000a398:note on:          (0x92,0x35,0x73).
time:  0000a398:note on:          (0x92,0x30,0x73).
time:  0000a398:note on:          (0x92,0x29,0x73).
time:  0000a410:note off:         (0x82,0x35,0x49).
time:  0000a410:note off:         (0x82,0x30,0x49).
time:  0000a410:note off:         (0x82,0x29,0x49).
time:  0000a410:note on:          (0x92,0x3a,0x73).
time:  0000a410:note on:          (0x92,0x35,0x73).
time:  0000a410:note on:          (0x92,0x2e,0x73).
time:  0000a500:note off:         (0x82,0x3a,0x49).
time:  0000a500:note off:         (0x82,0x35,0x49).
time:  0000a500:note off:         (0x82,0x2e,0x49).
time:  0000a500:note on:          (0x92,0x38,0x73).
time:  0000a500:note on:          (0x92,0x33,0x73).
time:  0000a500:note on:          (0x92,0x2c,0x73).
time:  0000a5f0:note off:         (0x82,0x38,0x49).
time:  0000a5f0:note off:         (0x82,0x33,0x49).
time:  0000a5f0:note off:         (0x82,0x2c,0x49).
time:  0000d2f0:note on:          (0x92,0x29,0x73).
time:  0000d2f0:note on:          (0x92,0x30,0x73).
time:  0000d2f0:note on:          (0x92,0x35,0x73).
time:  0000da70:note off:         (0x82,0x29,0x49).
time:  0000da70:note off:         (0x82,0x30,0x49).
time:  0000da70:note off:         (0x82,0x35,0x49).
time:  0000da70:note on:          (0x92,0x29,0x73).
time:  0000da70:note on:          (0x92,0x30,0x73).
time:  0000da70:note on:          (0x92,0x35,0x73).
time:  0000e1f0:note off:         (0x82,0x29,0x49).
time:  0000e1f0:note off:         (0x82,0x30,0x49).
time:  0000e1f0:note off:         (0x82,0x35,0x49).
time:  0000e1f0:note on:          (0x92,0x29,0x73).
time:  0000e1f0:note on:          (0x92,0x30,0x73).
time:  0000e1f0:note on:          (0x92,0x35,0x73).
time:  0000e970:note off:         (0x82,0x29,0x49).
time:  0000e970:note off:         (0x82,0x30,0x49).
time:  0000e970:note off:         (0x82,0x35,0x49).
time:  0000e970:note on:          (0x92,0x29,0x73).
time:  0000e970:note on:          (0x92,0x30,0x73).
time:  0000e970:note on:          (0x92,0x35,0x73).
time:  0000f0f0:note off:         (0x82,0x29,0x49).
time:  0000f0f0:note off:         (0x82,0x30,0x49).
time:  0000f0f0:note off:         (0x82,0x35,0x49).
time:  0000f0f0:note on:          (0x92,0x35,0x73).
time:  0000f0f0:note on:          (0x92,0x30,0x73).
time:  0000f0f0:note on:          (0x92,0x29,0x73).
time:  0000f1a4:note on:          (0x92,0x35,0x73).
time:  0000f1a4:note on:          (0x92,0x30,0x73).
time:  0000f1a4:note on:          (0x92,0x29,0x73).
time:  0000f1e0:note off:         (0x82,0x35,0x49).
time:  0000f1e0:note off:         (0x82,0x30,0x49).
time:  0000f1e0:note off:         (0x82,0x29,0x49).
time:  0000f1e0:note off:         (0x82,0x35,0x49).
time:  0000f1e0:note off:         (0x82,0x30,0x49).
time:  0000f1e0:note off:         (0x82,0x29,0x49).
time:  0000f1e0:note on:          (0x92,0x35,0x73).
time:  0000f1e0:note on:          (0x92,0x30,0x73).
time:  0000f1e0:note on:          (0x92,0x29,0x73).
time:  0000f2d0:note off:         (0x82,0x35,0x49).
time:  0000f2d0:note off:         (0x82,0x30,0x49).
time:  0000f2d0:note off:         (0x82,0x29,0x49).
time:  0000f2d0:note on:          (0x92,0x35,0x73).
time:  0000f2d0:note on:          (0x92,0x30,0x73).
time:  0000f2d0:note on:          (0x92,0x29,0x73).
time:  0000f30c:note off:         (0x82,0x35,0x49).
time:  0000f30c:note off:         (0x82,0x30,0x49).
time:  0000f30c:note off:         (0x82,0x29,0x49).
time:  0000f30c:note on:          (0x92,0x35,0x73).
time:  0000f30c:note on:          (0x92,0x30,0x73).
time:  0000f30c:note on:          (0x92,0x29,0x73).
time:  0000f348:note off:         (0x82,0x35,0x49).
time:  0000f348:note off:         (0x82,0x30,0x49).
time:  0000f348:note off:         (0x82,0x29,0x49).
time:  0000f348:note on:          (0x92,0x3a,0x73).
time:  0000f348:note on:          (0x92,0x35,0x73).
time:  0000f348:note on:          (0x92,0x2e,0x73).
time:  0000f3c0:note off:         (0x82,0x3a,0x49).
time:  0000f3c0:note off:         (0x82,0x35,0x49).
time:  0000f3c0:note off:         (0x82,0x2e,0x49).
time:  0000f3c0:note on:          (0x92,0x3a,0x73).
time:  0000f3c0:note on:          (0x92,0x35,0x73).
time:  0000f3c0:note on:          (0x92,0x2e,0x73).
time:  0000f438:note off:         (0x82,0x3a,0x49).
time:  0000f438:note off:         (0x82,0x35,0x49).
time:  0000f438:note off:         (0x82,0x2e,0x49).
time:  0000f438:note on:          (0x92,0x35,0x73).
time:  0000f438:note on:          (0x92,0x30,0x73).
time:  0000f438:note on:          (0x92,0x29,0x73).
time:  0000f4b0:note off:         (0x82,0x35,0x49).
time:  0000f4b0:note off:         (0x82,0x30,0x49).
time:  0000f4b0:note off:         (0x82,0x29,0x49).
time:  0000f4b0:note on:          (0x92,0x38,0x73).
time:  0000f4b0:note on:          (0x92,0x33,0x73).
time:  0000f4b0:note on:          (0x92,0x2c,0x73).
time:  0000f564:note on:          (0x92,0x38,0x73).
time:  0000f564:note on:          (0x92,0x33,0x73).
time:  0000f564:note on:          (0x92,0x2c,0x73).
time:  0000f5a0:note off:         (0x82,0x38,0x49).
time:  0000f5a0:note off:         (0x82,0x33,0x49).
time:  0000f5a0:note off:         (0x82,0x2c,0x49).
time:  0000f5a0:note off:         (0x82,0x38,0x49).
time:  0000f5a0:note off:         (0x82,0x33,0x49).
time:  0000f5a0:note off:         (0x82,0x2c,0x49).
time:  0000f5a0:note on:          (0x92,0x38,0x73).
time:  0000f5a0:note on:          (0x92,0x33,0x73).
time:  0000f5a0:note on:          (0x92,0x2c,0x73).
time:  0000f690:note off:         (0x82,0x38,0x49).
time:  0000f690:note off:         (0x82,0x33,0x49).
time:  0000f690:note off:         (0x82,0x2c,0x49).
time:  0000f690:note on:          (0x92,0x38,0x73).
time:  0000f690:note on:          (0x92,0x33,0x73).
time:  0000f690:note on:          (0x92,0x2c,0x73).
time:  0000f6cc:note off:         (0x82,0x38,0x49).
time:  0000f6cc:note off:         (0x82,0x33,0x49).
time:  0000f6cc:note off:         (0x82,0x2c,0x49).
time:  0000f6cc:note on:          (0x92,0x38,0x73).
time:  0000f6cc:note on:          (0x92,0x33,0x73).
time:  0000f6cc:note on:          (0x92,0x2c,0x73).
time:  0000f708:note off:         (0x82,0x38,0x49).
time:  0000f708:note off:         (0x82,0x33,0x49).
time:  0000f708:note off:         (0x82,0x2c,0x49).
time:  0000f708:note on:          (0x92,0x3d,0x73).
time:  0000f708:note on:          (0x92,0x38,0x73).
time:  0000f708:note on:          (0x92,0x31,0x73).
time:  0000f780:note off:         (0x82,0x3d,0x49).
time:  0000f780:note off:         (0x82,0x38,0x49).
time:  0000f780:note off:         (0x82,0x31,0x49).
time:  0000f780:note on:          (0x92,0x3d,0x73).
time:  0000f780:note on:          (0x92,0x38,0x73).
time:  0000f780:note on:          (0x92,0x31,0x73).
time:  0000f7f8:note off:         (0x82,0x3d,0x49).
time:  0000f7f8:note off:         (0x82,0x38,0x49).
time:  0000f7f8:note off:         (0x82,0x31,0x49).
time:  0000f7f8:note on:          (0x92,0x38,0x73).
time:  0000f7f8:note on:          (0x92,0x33,0x73).
time:  0000f7f8:note on:          (0x92,0x2c,0x73).
time:  0000f870:note off:         (0x82,0x38,0x49).
time:  0000f870:note off:         (0x82,0x33,0x49).
time:  0000f870:note off:         (0x82,0x2c,0x49).
time:  0000f870:note on:          (0x92,0x35,0x73).
time:  0000f870:note on:          (0x92,0x30,0x73).
time:  0000f870:note on:          (0x92,0x29,0x73).
time:  0000f924:note on:          (0x92,0x35,0x73).
time:  0000f924:note on:          (0x92,0x30,0x73).
time:  0000f924:note on:          (0x92,0x29,0x73).
time:  0000f960:note off:         (0x82,0x35,0x49).
time:  0000f960:note off:         (0x82,0x30,0x49).
time:  0000f960:note off:         (0x82,0x29,0x49).
time:  0000f960:note off:         (0x82,0x35,0x49).
time:  0000f960:note off:         (0x82,0x30,0x49).
time:  0000f960:note off:         (0x82,0x29,0x49).
time:  0000f960:note on:          (0x92,0x35,0x73).
time:  0000f960:note on:          (0x92,0x30,0x73).
time:  0000f960:note on:          (0x92,0x29,0x73).
time:  0000fa50:note off:         (0x82,0x35,0x49).
time:  0000fa50:note off:         (0x82,0x30,0x49).
time:  0000fa50:note off:         (0x82,0x29,0x49).
time:  0000fa50:note on:          (0x92,0x35,0x73).
time:  0000fa50:note on:          (0x92,0x30,0x73).
time:  0000fa50:note on:          (0x92,0x29,0x73).
time:  0000fa8c:note off:         (0x82,0x35,0x49).
time:  0000fa8c:note off:         (0x82,0x30,0x49).
time:  0000fa8c:note off:         (0x82,0x29,0x49).
time:  0000fa8c:note on:          (0x92,0x35,0x73).
time:  0000fa8c:note on:          (0x92,0x30,0x73).
time:  0000fa8c:note on:          (0x92,0x29,0x73).
time:  0000fac8:note off:         (0x82,0x35,0x49).
time:  0000fac8:note off:         (0x82,0x30,0x49).
time:  0000fac8:note off:         (0x82,0x29,0x49).
time:  0000fac8:note on:          (0x92,0x3a,0x73).
time:  0000fac8:note on:          (0x92,0x35,0x73).
time:  0000fac8:note on:          (0x92,0x2e,0x73).
time:  0000fb40:note off:         (0x82,0x3a,0x49).
time:  0000fb40:note off:         (0x82,0x35,0x49).
time:  0000fb40:note off:         (0x82,0x2e,0x49).
time:  0000fb40:note on:          (0x92,0x3a,0x73).
time:  0000fb40:note on:          (0x92,0x35,0x73).
time:  0000fb40:note on:          (0x92,0x2e,0x73).
time:  0000fbb8:note off:         (0x82,0x3a,0x49).
time:  0000fbb8:note off:         (0x82,0x35,0x49).
time:  0000fbb8:note off:         (0x82,0x2e,0x49).
time:  0000fbb8:note on:          (0x92,0x35,0x73).
time:  0000fbb8:note on:          (0x92,0x30,0x73).
time:  0000fbb8:note on:          (0x92,0x29,0x73).
time:  0000fc30:note off:         (0x82,0x35,0x49).
time:  0000fc30:note off:         (0x82,0x30,0x49).
time:  0000fc30:note off:         (0x82,0x29,0x49).
time:  0000fc30:note on:          (0x92,0x38,0x73).
time:  0000fc30:note on:          (0x92,0x33,0x73).
time:  0000fc30:note on:          (0x92,0x2c,0x73).
time:  0000fce4:note on:          (0x92,0x38,0x73).
time:  0000fce4:note on:          (0x92,0x33,0x73).
time:  0000fce4:note on:          (0x92,0x2c,0x73).
time:  0000fd20:note off:         (0x82,0x38,0x49).
time:  0000fd20:note off:         (0x82,0x33,0x49).
time:  0000fd20:note off:         (0x82,0x2c,0x49).
time:  0000fd20:note off:         (0x82,0x38,0x49).
time:  0000fd20:note off:         (0x82,0x33,0x49).
time:  0000fd20:note off:         (0x82,0x2c,0x49).
time:  0000fd20:note on:          (0x92,0x38,0x73).
time:  0000fd20:note on:          (0x92,0x33,0x73).
time:  0000fd20:note on:          (0x92,0x2c,0x73).
time:  0000fe10:note off:         (0x82,0x38,0x49).
time:  0000fe10:note off:         (0x82,0x33,0x49).
time:  0000fe10:note off:         (0x82,0x2c,0x49).
time:  0000fe10:note on:          (0x92,0x38,0x73).
time:  0000fe10:note on:          (0x92,0x33,0x73).
time:  0000fe10:note on:          (0x92,0x2c,0x73).
time:  0000fe4c:note off:         (0x82,0x38,0x49).
time:  0000fe4c:note off:         (0x82,0x33,0x49).
time:  0000fe4c:note off:         (0x82,0x2c,0x49).
time:  0000fe4c:note on:          (0x92,0x38,0x73).
time:  0000fe4c:note on:          (0x92,0x33,0x73).
time:  0000fe4c:note on:          (0x92,0x2c,0x73).
time:  0000fe88:note off:         (0x82,0x38,0x49).
time:  0000fe88:note off:         (0x82,0x33,0x49).
time:  0000fe88:note off:         (0x82,0x2c,0x49).
time:  0000fe88:note on:          (0x92,0x3d,0x73).
time:  0000fe88:note on:          (0x92,0x38,0x73).
time:  0000fe88:note on:          (0x92,0x31,0x73).
time:  0000ff00:note off:         (0x82,0x3d,0x49).
time:  0000ff00:note off:         (0x82,0x38,0x49).
time:  0000ff00:note off:         (0x82,0x31,0x49).
time:  0000ff00:note on:          (0x92,0x3d,0x73).
time:  0000ff00:note on:          (0x92,0x38,0x73).
time:  0000ff00:note on:          (0x92,0x31,0x73).
time:  0000ff78:note off:         (0x82,0x3d,0x49).
time:  0000ff78:note off:         (0x82,0x38,0x49).
time:  0000ff78:note off:         (0x82,0x31,0x49).
time:  0000ff78:note on:          (0x92,0x38,0x73).
time:  0000ff78:note on:          (0x92,0x33,0x73).
time:  0000ff78:note on:          (0x92,0x2c,0x73).
time:  0000fff0:note off:         (0x82,0x38,0x49).
time:  0000fff0:note off:         (0x82,0x33,0x49).
time:  0000fff0:note off:         (0x82,0x2c,0x49).
time:  0000fff0:note on:          (0x92,0x35,0x73).
time:  0000fff0:note on:          (0x92,0x30,0x73).
time:  0000fff0:note on:          (0x92,0x29,0x73).
time:  000100a4:note on:          (0x92,0x35,0x73).
time:  000100a4:note on:          (0x92,0x30,0x73).
time:  000100a4:note on:          (0x92,0x29,0x73).
time:  000100e0:note off:         (0x82,0x35,0x49).
time:  000100e0:note off:         (0x82,0x30,0x49).
time:  000100e0:note off:         (0x82,0x29,0x49).
time:  000100e0:note off:         (0x82,0x35,0x49).
time:  000100e0:note off:         (0x82,0x30,0x49).
time:  000100e0:note off:         (0x82,0x29,0x49).
time:  000100e0:note on:          (0x92,0x35,0x73).
time:  000100e0:note on:          (0x92,0x30,0x73).
time:  000100e0:note on:          (0x92,0x29,0x73).
time:  000101d0:note off:         (0x82,0x35,0x49).
time:  000101d0:note off:         (0x82,0x30,0x49).
time:  000101d0:note off:         (0x82,0x29,0x49).
time:  000101d0:note on:          (0x92,0x35,0x73).
time:  000101d0:note on:          (0x92,0x30,0x73).
time:  000101d0:note on:          (0x92,0x29,0x73).
time:  0001020c:note off:         (0x82,0x35,0x49).
time:  0001020c:note off:         (0x82,0x30,0x49).
time:  0001020c:note off:         (0x82,0x29,0x49).
time:  0001020c:note on:          (0x92,0x35,0x73).
time:  0001020c:note on:          (0x92,0x30,0x73).
time:  0001020c:note on:          (0x92,0x29,0x73).
time:  00010248:note off:         (0x82,0x35,0x49).
time:  00010248:note off:         (0x82,0x30,0x49).
time:  00010248:note off:         (0x82,0x29,0x49).
time:  00010248:note on:          (0x92,0x3a,0x73).
time:  00010248:note on:          (0x92,0x35,0x73).
time:  00010248:note on:          (0x92,0x2e,0x73).
time:  000102c0:note off:         (0x82,0x3a,0x49).
time:  000102c0:note off:         (0x82,0x35,0x49).
time:  000102c0:note off:         (0x82,0x2e,0x49).
time:  000102c0:note on:          (0x92,0x3a,0x73).
time:  000102c0:note on:          (0x92,0x35,0x73).
time:  000102c0:note on:          (0x92,0x2e,0x73).
time:  00010338:note off:         (0x82,0x3a,0x49).
time:  00010338:note off:         (0x82,0x35,0x49).
time:  00010338:note off:         (0x82,0x2e,0x49).
time:  00010338:note on:          (0x92,0x35,0x73).
time:  00010338:note on:          (0x92,0x30,0x73).
time:  00010338:note on:          (0x92,0x29,0x73).
time:  000103b0:note off:         (0x82,0x35,0x49).
time:  000103b0:note off:         (0x82,0x30,0x49).
time:  000103b0:note off:         (0x82,0x29,0x49).
time:  000103b0:note on:          (0x92,0x38,0x73).
time:  000103b0:note on:          (0x92,0x33,0x73).
time:  000103b0:note on:          (0x92,0x2c,0x73).
time:  00010464:note on:          (0x92,0x38,0x73).
time:  00010464:note on:          (0x92,0x33,0x73).
time:  00010464:note on:          (0x92,0x2c,0x73).
time:  000104a0:note off:         (0x82,0x38,0x49).
time:  000104a0:note off:         (0x82,0x33,0x49).
time:  000104a0:note off:         (0x82,0x2c,0x49).
time:  000104a0:note off:         (0x82,0x38,0x49).
time:  000104a0:note off:         (0x82,0x33,0x49).
time:  000104a0:note off:         (0x82,0x2c,0x49).
time:  000104a0:note on:          (0x92,0x38,0x73).
time:  000104a0:note on:          (0x92,0x33,0x73).
time:  000104a0:note on:          (0x92,0x2c,0x73).
time:  00010590:note off:         (0x82,0x38,0x49).
time:  00010590:note off:         (0x82,0x33,0x49).
time:  00010590:note off:         (0x82,0x2c,0x49).
time:  00010590:note on:          (0x92,0x38,0x73).
time:  00010590:note on:          (0x92,0x33,0x73).
time:  00010590:note on:          (0x92,0x2c,0x73).
time:  000105cc:note off:         (0x82,0x38,0x49).
time:  000105cc:note off:         (0x82,0x33,0x49).
time:  000105cc:note off:         (0x82,0x2c,0x49).
time:  000105cc:note on:          (0x92,0x38,0x73).
time:  000105cc:note on:          (0x92,0x33,0x73).
time:  000105cc:note on:          (0x92,0x2c,0x73).
time:  00010608:note off:         (0x82,0x38,0x49).
time:  00010608:note off:         (0x82,0x33,0x49).
time:  00010608:note off:         (0x82,0x2c,0x49).
time:  00010608:note on:          (0x92,0x3d,0x73).
time:  00010608:note on:          (0x92,0x38,0x73).
time:  00010608:note on:          (0x92,0x31,0x73).
time:  00010680:note off:         (0x82,0x3d,0x49).
time:  00010680:note off:         (0x82,0x38,0x49).
time:  00010680:note off:         (0x82,0x31,0x49).
time:  00010680:note on:          (0x92,0x3d,0x73).
time:  00010680:note on:          (0x92,0x38,0x73).
time:  00010680:note on:          (0x92,0x31,0x73).
time:  000106f8:note off:         (0x82,0x3d,0x49).
time:  000106f8:note off:         (0x82,0x38,0x49).
time:  000106f8:note off:         (0x82,0x31,0x49).
time:  000106f8:note on:          (0x92,0x38,0x73).
time:  000106f8:note on:          (0x92,0x33,0x73).
time:  000106f8:note on:          (0x92,0x2c,0x73).
time:  00010770:note off:         (0x82,0x38,0x49).
time:  00010770:note off:         (0x82,0x33,0x49).
time:  00010770:note off:         (0x82,0x2c,0x49).
time:  00010770:note on:          (0x92,0x35,0x73).
time:  00010770:note on:          (0x92,0x30,0x73).
time:  00010770:note on:          (0x92,0x29,0x73).
time:  00010824:note on:          (0x92,0x35,0x73).
time:  00010824:note on:          (0x92,0x30,0x73).
time:  00010824:note on:          (0x92,0x29,0x73).
time:  00010860:note off:         (0x82,0x35,0x49).
time:  00010860:note off:         (0x82,0x30,0x49).
time:  00010860:note off:         (0x82,0x29,0x49).
time:  00010860:note off:         (0x82,0x35,0x49).
time:  00010860:note off:         (0x82,0x30,0x49).
time:  00010860:note off:         (0x82,0x29,0x49).
time:  00010860:note on:          (0x92,0x35,0x73).
time:  00010860:note on:          (0x92,0x30,0x73).
time:  00010860:note on:          (0x92,0x29,0x73).
time:  00010950:note off:         (0x82,0x35,0x49).
time:  00010950:note off:         (0x82,0x30,0x49).
time:  00010950:note off:         (0x82,0x29,0x49).
time:  00010950:note on:          (0x92,0x35,0x73).
time:  00010950:note on:          (0x92,0x30,0x73).
time:  00010950:note on:          (0x92,0x29,0x73).
time:  0001098c:note off:         (0x82,0x35,0x49).
time:  0001098c:note off:         (0x82,0x30,0x49).
time:  0001098c:note off:         (0x82,0x29,0x49).
time:  0001098c:note on:          (0x92,0x35,0x73).
time:  0001098c:note on:          (0x92,0x30,0x73).
time:  0001098c:note on:          (0x92,0x29,0x73).
time:  000109c8:note off:         (0x82,0x35,0x49).
time:  000109c8:note off:         (0x82,0x30,0x49).
time:  000109c8:note off:         (0x82,0x29,0x49).
time:  000109c8:note on:          (0x92,0x3a,0x73).
time:  000109c8:note on:          (0x92,0x35,0x73).
time:  000109c8:note on:          (0x92,0x2e,0x73).
time:  00010a40:note off:         (0x82,0x3a,0x49).
time:  00010a40:note off:         (0x82,0x35,0x49).
time:  00010a40:note off:         (0x82,0x2e,0x49).
time:  00010a40:note on:          (0x92,0x3a,0x73).
time:  00010a40:note on:          (0x92,0x35,0x73).
time:  00010a40:note on:          (0x92,0x2e,0x73).
time:  00010ab8:note off:         (0x82,0x3a,0x49).
time:  00010ab8:note off:         (0x82,0x35,0x49).
time:  00010ab8:note off:         (0x82,0x2e,0x49).
time:  00010ab8:note on:          (0x92,0x35,0x73).
time:  00010ab8:note on:          (0x92,0x30,0x73).
time:  00010ab8:note on:          (0x92,0x29,0x73).
time:  00010b30:note off:         (0x82,0x35,0x49).
time:  00010b30:note off:         (0x82,0x30,0x49).
time:  00010b30:note off:         (0x82,0x29,0x49).
time:  00010b30:note on:          (0x92,0x38,0x73).
time:  00010b30:note on:          (0x92,0x33,0x73).
time:  00010b30:note on:          (0x92,0x2c,0x73).
time:  00010be4:note on:          (0x92,0x38,0x73).
time:  00010be4:note on:          (0x92,0x33,0x73).
time:  00010be4:note on:          (0x92,0x2c,0x73).
time:  00010c20:note off:         (0x82,0x38,0x49).
time:  00010c20:note off:         (0x82,0x33,0x49).
time:  00010c20:note off:         (0x82,0x2c,0x49).
time:  00010c20:note off:         (0x82,0x38,0x49).
time:  00010c20:note off:         (0x82,0x33,0x49).
time:  00010c20:note off:         (0x82,0x2c,0x49).
time:  00010c20:note on:          (0x92,0x38,0x73).
time:  00010c20:note on:          (0x92,0x33,0x73).
time:  00010c20:note on:          (0x92,0x2c,0x73).
time:  00010d10:note off:         (0x82,0x38,0x49).
time:  00010d10:note off:         (0x82,0x33,0x49).
time:  00010d10:note off:         (0x82,0x2c,0x49).
time:  00010d10:note on:          (0x92,0x38,0x73).
time:  00010d10:note on:          (0x92,0x33,0x73).
time:  00010d10:note on:          (0x92,0x2c,0x73).
time:  00010d4c:note off:         (0x82,0x38,0x49).
time:  00010d4c:note off:         (0x82,0x33,0x49).
time:  00010d4c:note off:         (0x82,0x2c,0x49).
time:  00010d4c:note on:          (0x92,0x38,0x73).
time:  00010d4c:note on:          (0x92,0x33,0x73).
time:  00010d4c:note on:          (0x92,0x2c,0x73).
time:  00010d88:note off:         (0x82,0x38,0x49).
time:  00010d88:note off:         (0x82,0x33,0x49).
time:  00010d88:note off:         (0x82,0x2c,0x49).
time:  00010d88:note on:          (0x92,0x3d,0x73).
time:  00010d88:note on:          (0x92,0x38,0x73).
time:  00010d88:note on:          (0x92,0x31,0x73).
time:  00010e00:note off:         (0x82,0x3d,0x49).
time:  00010e00:note off:         (0x82,0x38,0x49).
time:  00010e00:note off:         (0x82,0x31,0x49).
time:  00010e00:note on:          (0x92,0x3d,0x73).
time:  00010e00:note on:          (0x92,0x38,0x73).
time:  00010e00:note on:          (0x92,0x31,0x73).
time:  00010e78:note off:         (0x82,0x3d,0x49).
time:  00010e78:note off:         (0x82,0x38,0x49).
time:  00010e78:note off:         (0x82,0x31,0x49).
time:  00010e78:note on:          (0x92,0x3d,0x73).
time:  00010e78:note on:          (0x92,0x31,0x73).
time:  00010e78:note on:          (0x92,0x38,0x73).
time:  00010ef0:note off:         (0x82,0x3d,0x49).
time:  00010ef0:note off:         (0x82,0x31,0x49).
time:  00010ef0:note off:         (0x82,0x38,0x49).
time:  00010ef0:note on:          (0x92,0x29,0x73).
time:  00010ef0:note on:          (0x92,0x30,0x73).
time:  00010ef0:note on:          (0x92,0x35,0x73).
time:  00010fe0:note off:         (0x82,0x29,0x49).
time:  00010fe0:note off:         (0x82,0x30,0x49).
time:  00010fe0:note off:         (0x82,0x35,0x49).
time:  00010fe0:note on:          (0x92,0x28,0x73).
time:  00010fe0:note on:          (0x92,0x2f,0x73).
time:  00010fe0:note on:          (0x92,0x34,0x73).
time:  00011058:note off:         (0x82,0x28,0x49).
time:  00011058:note off:         (0x82,0x2f,0x49).
time:  00011058:note off:         (0x82,0x34,0x49).
time:  00011058:note on:          (0x92,0x35,0x73).
time:  00011058:note on:          (0x92,0x30,0x73).
time:  00011058:note on:          (0x92,0x29,0x73).
time:  000110d0:note off:         (0x82,0x35,0x49).
time:  000110d0:note off:         (0x82,0x30,0x49).
time:  000110d0:note off:         (0x82,0x29,0x49).
time:  000110d0:note on:          (0x92,0x36,0x73).
time:  000110d0:note on:          (0x92,0x31,0x73).
time:  000110d0:note on:          (0x92,0x2a,0x73).
time:  00011148:note off:         (0x82,0x36,0x49).
time:  00011148:note off:         (0x82,0x31,0x49).
time:  00011148:note off:         (0x82,0x2a,0x49).
time:  00011148:note on:          (0x92,0x36,0x73).
time:  00011148:note on:          (0x92,0x31,0x73).
time:  00011148:note on:          (0x92,0x2a,0x73).
time:  000111c0:note off:         (0x82,0x36,0x49).
time:  000111c0:note off:         (0x82,0x31,0x49).
time:  000111c0:note off:         (0x82,0x2a,0x49).
time:  000111c0:note on:          (0x92,0x36,0x7f).
time:  000111f9:pitch wheel:      (0xe2,0x78,0x55).
time:  000111f9:controller:       (0xb2,0x01,0x41).
time:  00011235:pitch wheel:      (0xe2,0x48,0x65).
time:  000112ad:pitch wheel:      (0xe2,0x00,0x40).
time:  000112ad:controller:       (0xb2,0x01,0x00).
time:  000112b0:note off:         (0x82,0x36,0x49).
time:  000112b0:note on:          (0x92,0x29,0x73).
time:  000112b0:note on:          (0x92,0x30,0x73).
time:  000112b0:note on:          (0x92,0x35,0x73).
time:  000113a0:note off:         (0x82,0x29,0x49).
time:  000113a0:note off:         (0x82,0x30,0x49).
time:  000113a0:note off:         (0x82,0x35,0x49).
time:  000113a0:note on:          (0x92,0x28,0x73).
time:  000113a0:note on:          (0x92,0x2f,0x73).
time:  000113a0:note on:          (0x92,0x34,0x73).
time:  00011418:note off:         (0x82,0x28,0x49).
time:  00011418:note off:         (0x82,0x2f,0x49).
time:  00011418:note off:         (0x82,0x34,0x49).
time:  00011418:note on:          (0x92,0x35,0x73).
time:  00011418:note on:          (0x92,0x30,0x73).
time:  00011418:note on:          (0x92,0x29,0x73).
time:  00011490:note off:         (0x82,0x35,0x49).
time:  00011490:note off:         (0x82,0x30,0x49).
time:  00011490:note off:         (0x82,0x29,0x49).
time:  00011490:note on:          (0x92,0x3a,0x73).
time:  00011490:note on:          (0x92,0x35,0x73).
time:  00011490:note on:          (0x92,0x2e,0x73).
time:  00011580:note off:         (0x82,0x3a,0x49).
time:  00011580:note off:         (0x82,0x35,0x49).
time:  00011580:note off:         (0x82,0x2e,0x49).
time:  00011580:note on:          (0x92,0x38,0x73).
time:  00011580:note on:          (0x92,0x33,0x73).
time:  00011580:note on:          (0x92,0x2c,0x73).
time:  00011670:note off:         (0x82,0x38,0x49).
time:  00011670:note off:         (0x82,0x33,0x49).
time:  00011670:note off:         (0x82,0x2c,0x49).
time:  00011670:note on:          (0x92,0x29,0x73).
time:  00011670:note on:          (0x92,0x30,0x73).
time:  00011670:note on:          (0x92,0x35,0x73).
time:  00011760:note off:         (0x82,0x29,0x49).
time:  00011760:note off:         (0x82,0x30,0x49).
time:  00011760:note off:         (0x82,0x35,0x49).
time:  00011760:note on:          (0x92,0x28,0x73).
time:  00011760:note on:          (0x92,0x2f,0x73).
time:  00011760:note on:          (0x92,0x34,0x73).
time:  000117d8:note off:         (0x82,0x28,0x49).
time:  000117d8:note off:         (0x82,0x2f,0x49).
time:  000117d8:note off:         (0x82,0x34,0x49).
time:  000117d8:note on:          (0x92,0x35,0x73).
time:  000117d8:note on:          (0x92,0x30,0x73).
time:  000117d8:note on:          (0x92,0x29,0x73).
time:  00011850:note off:         (0x82,0x35,0x49).
time:  00011850:note off:         (0x82,0x30,0x49).
time:  00011850:note off:         (0x82,0x29,0x49).
time:  00011850:note on:          (0x92,0x36,0x73).
time:  00011850:note on:          (0x92,0x31,0x73).
time:  00011850:note on:          (0x92,0x2a,0x73).
time:  000118c8:note off:         (0x82,0x36,0x49).
time:  000118c8:note off:         (0x82,0x31,0x49).
time:  000118c8:note off:         (0x82,0x2a,0x49).
time:  000118c8:note on:          (0x92,0x36,0x73).
time:  000118c8:note on:          (0x92,0x31,0x73).
time:  000118c8:note on:          (0x92,0x2a,0x73).
time:  00011940:note off:         (0x82,0x36,0x49).
time:  00011940:note off:         (0x82,0x31,0x49).
time:  00011940:note off:         (0x82,0x2a,0x49).
time:  00011940:note on:          (0x92,0x36,0x7f).
time:  00011979:pitch wheel:      (0xe2,0x78,0x55).
time:  00011979:controller:       (0xb2,0x01,0x41).
time:  000119b5:pitch wheel:      (0xe2,0x48,0x65).
time:  00011a2d:pitch wheel:      (0xe2,0x00,0x40).
time:  00011a2d:controller:       (0xb2,0x01,0x00).
time:  00011a30:note off:         (0x82,0x36,0x49).
time:  00011a30:note on:          (0x92,0x29,0x73).
time:  00011a30:note on:          (0x92,0x30,0x73).
time:  00011a30:note on:          (0x92,0x35,0x73).
time:  00011b20:note off:         (0x82,0x29,0x49).
time:  00011b20:note off:         (0x82,0x30,0x49).
time:  00011b20:note off:         (0x82,0x35,0x49).
time:  00011b20:note on:          (0x92,0x28,0x73).
time:  00011b20:note on:          (0x92,0x2f,0x73).
time:  00011b20:note on:          (0x92,0x34,0x73).
time:  00011b98:note off:         (0x82,0x28,0x49).
time:  00011b98:note off:         (0x82,0x2f,0x49).
time:  00011b98:note off:         (0x82,0x34,0x49).
time:  00011b98:note on:          (0x92,0x35,0x73).
time:  00011b98:note on:          (0x92,0x30,0x73).
time:  00011b98:note on:          (0x92,0x29,0x73).
time:  00011c10:note off:         (0x82,0x35,0x49).
time:  00011c10:note off:         (0x82,0x30,0x49).
time:  00011c10:note off:         (0x82,0x29,0x49).
time:  00011c10:note on:          (0x92,0x3a,0x73).
time:  00011c10:note on:          (0x92,0x35,0x73).
time:  00011c10:note on:          (0x92,0x2e,0x73).
time:  00011d00:note off:         (0x82,0x3a,0x49).
time:  00011d00:note off:         (0x82,0x35,0x49).
time:  00011d00:note off:         (0x82,0x2e,0x49).
time:  00011d00:note on:          (0x92,0x38,0x73).
time:  00011d00:note on:          (0x92,0x33,0x73).
time:  00011d00:note on:          (0x92,0x2c,0x73).
time:  00011df0:note off:         (0x82,0x38,0x49).
time:  00011df0:note off:         (0x82,0x33,0x49).
time:  00011df0:note off:         (0x82,0x2c,0x49).
time:  00011df0:note on:          (0x92,0x35,0x73).
time:  00011df0:note on:          (0x92,0x30,0x73).
time:  00011df0:note on:          (0x92,0x29,0x73).
time:  00011ea4:note on:          (0x92,0x35,0x73).
time:  00011ea4:note on:          (0x92,0x30,0x73).
time:  00011ea4:note on:          (0x92,0x29,0x73).
time:  00011ee0:note off:         (0x82,0x35,0x49).
time:  00011ee0:note off:         (0x82,0x30,0x49).
time:  00011ee0:note off:         (0x82,0x29,0x49).
time:  00011ee0:note off:         (0x82,0x35,0x49).
time:  00011ee0:note off:         (0x82,0x30,0x49).
time:  00011ee0:note off:         (0x82,0x29,0x49).
time:  00011ee0:note on:          (0x92,0x35,0x73).
time:  00011ee0:note on:          (0x92,0x30,0x73).
time:  00011ee0:note on:          (0x92,0x29,0x73).
time:  00011fd0:note off:         (0x82,0x35,0x49).
time:  00011fd0:note off:         (0x82,0x30,0x49).
time:  00011fd0:note off:         (0x82,0x29,0x49).
time:  00011fd0:note on:          (0x92,0x35,0x73).
time:  00011fd0:note on:          (0x92,0x30,0x73).
time:  00011fd0:note on:          (0x92,0x29,0x73).
time:  0001200c:note off:         (0x82,0x35,0x49).
time:  0001200c:note off:         (0x82,0x30,0x49).
time:  0001200c:note off:         (0x82,0x29,0x49).
time:  0001200c:note on:          (0x92,0x35,0x73).
time:  0001200c:note on:          (0x92,0x30,0x73).
time:  0001200c:note on:          (0x92,0x29,0x73).
time:  00012048:note off:         (0x82,0x35,0x49).
time:  00012048:note off:         (0x82,0x30,0x49).
time:  00012048:note off:         (0x82,0x29,0x49).
time:  00012048:note on:          (0x92,0x3a,0x73).
time:  00012048:note on:          (0x92,0x35,0x73).
time:  00012048:note on:          (0x92,0x2e,0x73).
time:  000120c0:note off:         (0x82,0x3a,0x49).
time:  000120c0:note off:         (0x82,0x35,0x49).
time:  000120c0:note off:         (0x82,0x2e,0x49).
time:  000120c0:note on:          (0x92,0x3a,0x73).
time:  000120c0:note on:          (0x92,0x35,0x73).
time:  000120c0:note on:          (0x92,0x2e,0x73).
time:  00012138:note off:         (0x82,0x3a,0x49).
time:  00012138:note off:         (0x82,0x35,0x49).
time:  00012138:note off:         (0x82,0x2e,0x49).
time:  00012138:note on:          (0x92,0x35,0x73).
time:  00012138:note on:          (0x92,0x30,0x73).
time:  00012138:note on:          (0x92,0x29,0x73).
time:  000121b0:note off:         (0x82,0x35,0x49).
time:  000121b0:note off:         (0x82,0x30,0x49).
time:  000121b0:note off:         (0x82,0x29,0x49).
time:  000121b0:note on:          (0x92,0x38,0x73).
time:  000121b0:note on:          (0x92,0x33,0x73).
time:  000121b0:note on:          (0x92,0x2c,0x73).
time:  00012264:note on:          (0x92,0x38,0x73).
time:  00012264:note on:          (0x92,0x33,0x73).
time:  00012264:note on:          (0x92,0x2c,0x73).
time:  000122a0:note off:         (0x82,0x38,0x49).
time:  000122a0:note off:         (0x82,0x33,0x49).
time:  000122a0:note off:         (0x82,0x2c,0x49).
time:  000122a0:note off:         (0x82,0x38,0x49).
time:  000122a0:note off:         (0x82,0x33,0x49).
time:  000122a0:note off:         (0x82,0x2c,0x49).
time:  000122a0:note on:          (0x92,0x38,0x73).
time:  000122a0:note on:          (0x92,0x33,0x73).
time:  000122a0:note on:          (0x92,0x2c,0x73).
time:  00012390:note off:         (0x82,0x38,0x49).
time:  00012390:note off:         (0x82,0x33,0x49).
time:  00012390:note off:         (0x82,0x2c,0x49).
time:  00012390:note on:          (0x92,0x38,0x73).
time:  00012390:note on:          (0x92,0x33,0x73).
time:  00012390:note on:          (0x92,0x2c,0x73).
time:  000123cc:note off:         (0x82,0x38,0x49).
time:  000123cc:note off:         (0x82,0x33,0x49).
time:  000123cc:note off:         (0x82,0x2c,0x49).
time:  000123cc:note on:          (0x92,0x38,0x73).
time:  000123cc:note on:          (0x92,0x33,0x73).
time:  000123cc:note on:          (0x92,0x2c,0x73).
time:  00012408:note off:         (0x82,0x38,0x49).
time:  00012408:note off:         (0x82,0x33,0x49).
time:  00012408:note off:         (0x82,0x2c,0x49).
time:  00012408:note on:          (0x92,0x3d,0x73).
time:  00012408:note on:          (0x92,0x38,0x73).
time:  00012408:note on:          (0x92,0x31,0x73).
time:  00012480:note off:         (0x82,0x3d,0x49).
time:  00012480:note off:         (0x82,0x38,0x49).
time:  00012480:note off:         (0x82,0x31,0x49).
time:  00012480:note on:          (0x92,0x3d,0x73).
time:  00012480:note on:          (0x92,0x38,0x73).
time:  00012480:note on:          (0x92,0x31,0x73).
time:  000124f8:note off:         (0x82,0x3d,0x49).
time:  000124f8:note off:         (0x82,0x38,0x49).
time:  000124f8:note off:         (0x82,0x31,0x49).
time:  000124f8:note on:          (0x92,0x38,0x73).
time:  000124f8:note on:          (0x92,0x33,0x73).
time:  000124f8:note on:          (0x92,0x2c,0x73).
time:  00012570:note off:         (0x82,0x38,0x49).
time:  00012570:note off:         (0x82,0x33,0x49).
time:  00012570:note off:         (0x82,0x2c,0x49).
time:  00012570:note on:          (0x92,0x35,0x73).
time:  00012570:note on:          (0x92,0x30,0x73).
time:  00012570:note on:          (0x92,0x29,0x73).
time:  00012624:note on:          (0x92,0x35,0x73).
time:  00012624:note on:          (0x92,0x30,0x73).
time:  00012624:note on:          (0x92,0x29,0x73).
time:  00012660:note off:         (0x82,0x35,0x49).
time:  00012660:note off:         (0x82,0x30,0x49).
time:  00012660:note off:         (0x82,0x29,0x49).
time:  00012660:note off:         (0x82,0x35,0x49).
time:  00012660:note off:         (0x82,0x30,0x49).
time:  00012660:note off:         (0x82,0x29,0x49).
time:  00012660:note on:          (0x92,0x35,0x73).
time:  00012660:note on:          (0x92,0x30,0x73).
time:  00012660:note on:          (0x92,0x29,0x73).
time:  00012750:note off:         (0x82,0x35,0x49).
time:  00012750:note off:         (0x82,0x30,0x49).
time:  00012750:note off:         (0x82,0x29,0x49).
time:  00012750:note on:          (0x92,0x35,0x73).
time:  00012750:note on:          (0x92,0x30,0x73).
time:  00012750:note on:          (0x92,0x29,0x73).
time:  0001278c:note off:         (0x82,0x35,0x49).
time:  0001278c:note off:         (0x82,0x30,0x49).
time:  0001278c:note off:         (0x82,0x29,0x49).
time:  0001278c:note on:          (0x92,0x35,0x73).
time:  0001278c:note on:          (0x92,0x30,0x73).
time:  0001278c:note on:          (0x92,0x29,0x73).
time:  000127c8:note off:         (0x82,0x35,0x49).
time:  000127c8:note off:         (0x82,0x30,0x49).
time:  000127c8:note off:         (0x82,0x29,0x49).
time:  000127c8:note on:          (0x92,0x3a,0x73).
time:  000127c8:note on:          (0x92,0x35,0x73).
time:  000127c8:note on:          (0x92,0x2e,0x73).
time:  00012840:note off:         (0x82,0x3a,0x49).
time:  00012840:note off:         (0x82,0x35,0x49).
time:  00012840:note off:         (0x82,0x2e,0x49).
time:  00012840:note on:          (0x92,0x3a,0x73).
time:  00012840:note on:          (0x92,0x35,0x73).
time:  00012840:note on:          (0x92,0x2e,0x73).
time:  000128b8:note off:         (0x82,0x3a,0x49).
time:  000128b8:note off:         (0x82,0x35,0x49).
time:  000128b8:note off:         (0x82,0x2e,0x49).
time:  000128b8:note on:          (0x92,0x35,0x73).
time:  000128b8:note on:          (0x92,0x30,0x73).
time:  000128b8:note on:          (0x92,0x29,0x73).
time:  00012930:note off:         (0x82,0x35,0x49).
time:  00012930:note off:         (0x82,0x30,0x49).
time:  00012930:note off:         (0x82,0x29,0x49).
time:  00012930:note on:          (0x92,0x38,0x73).
time:  00012930:note on:          (0x92,0x33,0x73).
time:  00012930:note on:          (0x92,0x2c,0x73).
time:  000129e4:note on:          (0x92,0x38,0x73).
time:  000129e4:note on:          (0x92,0x33,0x73).
time:  000129e4:note on:          (0x92,0x2c,0x73).
time:  00012a20:note off:         (0x82,0x38,0x49).
time:  00012a20:note off:         (0x82,0x33,0x49).
time:  00012a20:note off:         (0x82,0x2c,0x49).
time:  00012a20:note off:         (0x82,0x38,0x49).
time:  00012a20:note off:         (0x82,0x33,0x49).
time:  00012a20:note off:         (0x82,0x2c,0x49).
time:  00012a20:note on:          (0x92,0x38,0x73).
time:  00012a20:note on:          (0x92,0x33,0x73).
time:  00012a20:note on:          (0x92,0x2c,0x73).
time:  00012b10:note off:         (0x82,0x38,0x49).
time:  00012b10:note off:         (0x82,0x33,0x49).
time:  00012b10:note off:         (0x82,0x2c,0x49).
time:  00012b10:note on:          (0x92,0x38,0x73).
time:  00012b10:note on:          (0x92,0x33,0x73).
time:  00012b10:note on:          (0x92,0x2c,0x73).
time:  00012b4c:note off:         (0x82,0x38,0x49).
time:  00012b4c:note off:         (0x82,0x33,0x49).
time:  00012b4c:note off:         (0x82,0x2c,0x49).
time:  00012b4c:note on:          (0x92,0x38,0x73).
time:  00012b4c:note on:          (0x92,0x33,0x73).
time:  00012b4c:note on:          (0x92,0x2c,0x73).
time:  00012b88:note off:         (0x82,0x38,0x49).
time:  00012b88:note off:         (0x82,0x33,0x49).
time:  00012b88:note off:         (0x82,0x2c,0x49).
time:  00012b88:note on:          (0x92,0x3d,0x73).
time:  00012b88:note on:          (0x92,0x38,0x73).
time:  00012b88:note on:          (0x92,0x31,0x73).
time:  00012c00:note off:         (0x82,0x3d,0x49).
time:  00012c00:note off:         (0x82,0x38,0x49).
time:  00012c00:note off:         (0x82,0x31,0x49).
time:  00012c00:note on:          (0x92,0x3d,0x73).
time:  00012c00:note on:          (0x92,0x38,0x73).
time:  00012c00:note on:          (0x92,0x31,0x73).
time:  00012c78:note off:         (0x82,0x3d,0x49).
time:  00012c78:note off:         (0x82,0x38,0x49).
time:  00012c78:note off:         (0x82,0x31,0x49).
time:  00012c78:note on:          (0x92,0x38,0x73).
time:  00012c78:note on:          (0x92,0x33,0x73).
time:  00012c78:note on:          (0x92,0x2c,0x73).
time:  00012cf0:note off:         (0x82,0x38,0x49).
time:  00012cf0:note off:         (0x82,0x33,0x49).
time:  00012cf0:note off:         (0x82,0x2c,0x49).
time:  00012cf0:note on:          (0x92,0x35,0x73).
time:  00012cf0:note on:          (0x92,0x30,0x73).
time:  00012cf0:note on:          (0x92,0x29,0x73).
time:  00012da4:note on:          (0x92,0x35,0x73).
time:  00012da4:note on:          (0x92,0x30,0x73).
time:  00012da4:note on:          (0x92,0x29,0x73).
time:  00012de0:note off:         (0x82,0x35,0x49).
time:  00012de0:note off:         (0x82,0x30,0x49).
time:  00012de0:note off:         (0x82,0x29,0x49).
time:  00012de0:note off:         (0x82,0x35,0x49).
time:  00012de0:note off:         (0x82,0x30,0x49).
time:  00012de0:note off:         (0x82,0x29,0x49).
time:  00012de0:note on:          (0x92,0x35,0x73).
time:  00012de0:note on:          (0x92,0x30,0x73).
time:  00012de0:note on:          (0x92,0x29,0x73).
time:  00012ed0:note off:         (0x82,0x35,0x49).
time:  00012ed0:note off:         (0x82,0x30,0x49).
time:  00012ed0:note off:         (0x82,0x29,0x49).
time:  00012ed0:note on:          (0x92,0x35,0x73).
time:  00012ed0:note on:          (0x92,0x30,0x73).
time:  00012ed0:note on:          (0x92,0x29,0x73).
time:  00012f0c:note off:         (0x82,0x35,0x49).
time:  00012f0c:note off:         (0x82,0x30,0x49).
time:  00012f0c:note off:         (0x82,0x29,0x49).
time:  00012f0c:note on:          (0x92,0x35,0x73).
time:  00012f0c:note on:          (0x92,0x30,0x73).
time:  00012f0c:note on:          (0x92,0x29,0x73).
time:  00012f48:note off:         (0x82,0x35,0x49).
time:  00012f48:note off:         (0x82,0x30,0x49).
time:  00012f48:note off:         (0x82,0x29,0x49).
time:  00012f48:note on:          (0x92,0x3a,0x73).
time:  00012f48:note on:          (0x92,0x35,0x73).
time:  00012f48:note on:          (0x92,0x2e,0x73).
time:  00012fc0:note off:         (0x82,0x3a,0x49).
time:  00012fc0:note off:         (0x82,0x35,0x49).
time:  00012fc0:note off:         (0x82,0x2e,0x49).
time:  00012fc0:note on:          (0x92,0x3a,0x73).
time:  00012fc0:note on:          (0x92,0x35,0x73).
time:  00012fc0:note on:          (0x92,0x2e,0x73).
time:  00013038:note off:         (0x82,0x3a,0x49).
time:  00013038:note off:         (0x82,0x35,0x49).
time:  00013038:note off:         (0x82,0x2e,0x49).
time:  00013038:note on:          (0x92,0x35,0x73).
time:  00013038:note on:          (0x92,0x30,0x73).
time:  00013038:note on:          (0x92,0x29,0x73).
time:  000130b0:note off:         (0x82,0x35,0x49).
time:  000130b0:note off:         (0x82,0x30,0x49).
time:  000130b0:note off:         (0x82,0x29,0x49).
time:  000130b0:note on:          (0x92,0x38,0x73).
time:  000130b0:note on:          (0x92,0x33,0x73).
time:  000130b0:note on:          (0x92,0x2c,0x73).
time:  00013164:note on:          (0x92,0x38,0x73).
time:  00013164:note on:          (0x92,0x33,0x73).
time:  00013164:note on:          (0x92,0x2c,0x73).
time:  000131a0:note off:         (0x82,0x38,0x49).
time:  000131a0:note off:         (0x82,0x33,0x49).
time:  000131a0:note off:         (0x82,0x2c,0x49).
time:  000131a0:note off:         (0x82,0x38,0x49).
time:  000131a0:note off:         (0x82,0x33,0x49).
time:  000131a0:note off:         (0x82,0x2c,0x49).
time:  000131a0:note on:          (0x92,0x38,0x73).
time:  000131a0:note on:          (0x92,0x33,0x73).
time:  000131a0:note on:          (0x92,0x2c,0x73).
time:  00013290:note off:         (0x82,0x38,0x49).
time:  00013290:note off:         (0x82,0x33,0x49).
time:  00013290:note off:         (0x82,0x2c,0x49).
time:  00013290:note on:          (0x92,0x38,0x73).
time:  00013290:note on:          (0x92,0x33,0x73).
time:  00013290:note on:          (0x92,0x2c,0x73).
time:  000132cc:note off:         (0x82,0x38,0x49).
time:  000132cc:note off:         (0x82,0x33,0x49).
time:  000132cc:note off:         (0x82,0x2c,0x49).
time:  000132cc:note on:          (0x92,0x38,0x73).
time:  000132cc:note on:          (0x92,0x33,0x73).
time:  000132cc:note on:          (0x92,0x2c,0x73).
time:  00013308:note off:         (0x82,0x38,0x49).
time:  00013308:note off:         (0x82,0x33,0x49).
time:  00013308:note off:         (0x82,0x2c,0x49).
time:  00013308:note on:          (0x92,0x3d,0x73).
time:  00013308:note on:          (0x92,0x38,0x73).
time:  00013308:note on:          (0x92,0x31,0x73).
time:  00013380:note off:         (0x82,0x3d,0x49).
time:  00013380:note off:         (0x82,0x38,0x49).
time:  00013380:note off:         (0x82,0x31,0x49).
time:  00013380:note on:          (0x92,0x3d,0x73).
time:  00013380:note on:          (0x92,0x38,0x73).
time:  00013380:note on:          (0x92,0x31,0x73).
time:  000133f8:note off:         (0x82,0x3d,0x49).
time:  000133f8:note off:         (0x82,0x38,0x49).
time:  000133f8:note off:         (0x82,0x31,0x49).
time:  000133f8:note on:          (0x92,0x38,0x73).
time:  000133f8:note on:          (0x92,0x33,0x73).
time:  000133f8:note on:          (0x92,0x2c,0x73).
time:  00013470:note off:         (0x82,0x38,0x49).
time:  00013470:note off:         (0x82,0x33,0x49).
time:  00013470:note off:         (0x82,0x2c,0x49).
time:  00013470:note on:          (0x92,0x35,0x73).
time:  00013470:note on:          (0x92,0x30,0x73).
time:  00013470:note on:          (0x92,0x29,0x73).
time:  00013524:note on:          (0x92,0x35,0x73).
time:  00013524:note on:          (0x92,0x30,0x73).
time:  00013524:note on:          (0x92,0x29,0x73).
time:  00013560:note off:         (0x82,0x35,0x49).
time:  00013560:note off:         (0x82,0x30,0x49).
time:  00013560:note off:         (0x82,0x29,0x49).
time:  00013560:note off:         (0x82,0x35,0x49).
time:  00013560:note off:         (0x82,0x30,0x49).
time:  00013560:note off:         (0x82,0x29,0x49).
time:  00013560:note on:          (0x92,0x35,0x73).
time:  00013560:note on:          (0x92,0x30,0x73).
time:  00013560:note on:          (0x92,0x29,0x73).
time:  00013650:note off:         (0x82,0x35,0x49).
time:  00013650:note off:         (0x82,0x30,0x49).
time:  00013650:note off:         (0x82,0x29,0x49).
time:  00013650:note on:          (0x92,0x35,0x73).
time:  00013650:note on:          (0x92,0x30,0x73).
time:  00013650:note on:          (0x92,0x29,0x73).
time:  0001368c:note off:         (0x82,0x35,0x49).
time:  0001368c:note off:         (0x82,0x30,0x49).
time:  0001368c:note off:         (0x82,0x29,0x49).
time:  0001368c:note on:          (0x92,0x35,0x73).
time:  0001368c:note on:          (0x92,0x30,0x73).
time:  0001368c:note on:          (0x92,0x29,0x73).
time:  000136c8:note off:         (0x82,0x35,0x49).
time:  000136c8:note off:         (0x82,0x30,0x49).
time:  000136c8:note off:         (0x82,0x29,0x49).
time:  000136c8:note on:          (0x92,0x3a,0x73).
time:  000136c8:note on:          (0x92,0x35,0x73).
time:  000136c8:note on:          (0x92,0x2e,0x73).
time:  00013740:note off:         (0x82,0x3a,0x49).
time:  00013740:note off:         (0x82,0x35,0x49).
time:  00013740:note off:         (0x82,0x2e,0x49).
time:  00013740:note on:          (0x92,0x3a,0x73).
time:  00013740:note on:          (0x92,0x35,0x73).
time:  00013740:note on:          (0x92,0x2e,0x73).
time:  000137b8:note off:         (0x82,0x3a,0x49).
time:  000137b8:note off:         (0x82,0x35,0x49).
time:  000137b8:note off:         (0x82,0x2e,0x49).
time:  000137b8:note on:          (0x92,0x35,0x73).
time:  000137b8:note on:          (0x92,0x30,0x73).
time:  000137b8:note on:          (0x92,0x29,0x73).
time:  00013830:note off:         (0x82,0x35,0x49).
time:  00013830:note off:         (0x82,0x30,0x49).
time:  00013830:note off:         (0x82,0x29,0x49).
time:  00013830:note on:          (0x92,0x38,0x73).
time:  00013830:note on:          (0x92,0x33,0x73).
time:  00013830:note on:          (0x92,0x2c,0x73).
time:  000138e4:note on:          (0x92,0x38,0x73).
time:  000138e4:note on:          (0x92,0x33,0x73).
time:  000138e4:note on:          (0x92,0x2c,0x73).
time:  00013920:note off:         (0x82,0x38,0x49).
time:  00013920:note off:         (0x82,0x33,0x49).
time:  00013920:note off:         (0x82,0x2c,0x49).
time:  00013920:note off:         (0x82,0x38,0x49).
time:  00013920:note off:         (0x82,0x33,0x49).
time:  00013920:note off:         (0x82,0x2c,0x49).
time:  00013920:note on:          (0x92,0x38,0x73).
time:  00013920:note on:          (0x92,0x33,0x73).
time:  00013920:note on:          (0x92,0x2c,0x73).
time:  00013a10:note off:         (0x82,0x38,0x49).
time:  00013a10:note off:         (0x82,0x33,0x49).
time:  00013a10:note off:         (0x82,0x2c,0x49).
time:  00013a10:note on:          (0x92,0x38,0x73).
time:  00013a10:note on:          (0x92,0x33,0x73).
time:  00013a10:note on:          (0x92,0x2c,0x73).
time:  00013a4c:note off:         (0x82,0x38,0x49).
time:  00013a4c:note off:         (0x82,0x33,0x49).
time:  00013a4c:note off:         (0x82,0x2c,0x49).
time:  00013a4c:note on:          (0x92,0x38,0x73).
time:  00013a4c:note on:          (0x92,0x33,0x73).
time:  00013a4c:note on:          (0x92,0x2c,0x73).
time:  00013a88:note off:         (0x82,0x38,0x49).
time:  00013a88:note off:         (0x82,0x33,0x49).
time:  00013a88:note off:         (0x82,0x2c,0x49).
time:  00013a88:note on:          (0x92,0x3d,0x73).
time:  00013a88:note on:          (0x92,0x38,0x73).
time:  00013a88:note on:          (0x92,0x31,0x73).
time:  00013b00:note off:         (0x82,0x3d,0x49).
time:  00013b00:note off:         (0x82,0x38,0x49).
time:  00013b00:note off:         (0x82,0x31,0x49).
time:  00013b00:note on:          (0x92,0x3d,0x73).
time:  00013b00:note on:          (0x92,0x38,0x73).
time:  00013b00:note on:          (0x92,0x31,0x73).
time:  00013b78:note off:         (0x82,0x3d,0x49).
time:  00013b78:note off:         (0x82,0x38,0x49).
time:  00013b78:note off:         (0x82,0x31,0x49).
time:  00013b78:note on:          (0x92,0x38,0x73).
time:  00013b78:note on:          (0x92,0x33,0x73).
time:  00013b78:note on:          (0x92,0x2c,0x73).
time:  00013bf0:note off:         (0x82,0x38,0x49).
time:  00013bf0:note off:         (0x82,0x33,0x49).
time:  00013bf0:note off:         (0x82,0x2c,0x49).
time:  00013bf0:note on:          (0x92,0x35,0x73).
time:  00013bf0:note on:          (0x92,0x30,0x73).
time:  00013bf0:note on:          (0x92,0x29,0x73).
time:  00013ca4:note on:          (0x92,0x35,0x73).
time:  00013ca4:note on:          (0x92,0x30,0x73).
time:  00013ca4:note on:          (0x92,0x29,0x73).
time:  00013ce0:note off:         (0x82,0x35,0x49).
time:  00013ce0:note off:         (0x82,0x30,0x49).
time:  00013ce0:note off:         (0x82,0x29,0x49).
time:  00013ce0:note off:         (0x82,0x35,0x49).
time:  00013ce0:note off:         (0x82,0x30,0x49).
time:  00013ce0:note off:         (0x82,0x29,0x49).
time:  00013ce0:note on:          (0x92,0x35,0x73).
time:  00013ce0:note on:          (0x92,0x30,0x73).
time:  00013ce0:note on:          (0x92,0x29,0x73).
time:  00013dd0:note off:         (0x82,0x35,0x49).
time:  00013dd0:note off:         (0x82,0x30,0x49).
time:  00013dd0:note off:         (0x82,0x29,0x49).
time:  00013dd0:note on:          (0x92,0x35,0x73).
time:  00013dd0:note on:          (0x92,0x30,0x73).
time:  00013dd0:note on:          (0x92,0x29,0x73).
time:  00013e0c:note off:         (0x82,0x35,0x49).
time:  00013e0c:note off:         (0x82,0x30,0x49).
time:  00013e0c:note off:         (0x82,0x29,0x49).
time:  00013e0c:note on:          (0x92,0x35,0x73).
time:  00013e0c:note on:          (0x92,0x30,0x73).
time:  00013e0c:note on:          (0x92,0x29,0x73).
time:  00013e48:note off:         (0x82,0x35,0x49).
time:  00013e48:note off:         (0x82,0x30,0x49).
time:  00013e48:note off:         (0x82,0x29,0x49).
time:  00013e48:note on:          (0x92,0x3a,0x73).
time:  00013e48:note on:          (0x92,0x35,0x73).
time:  00013e48:note on:          (0x92,0x2e,0x73).
time:  00013ec0:note off:         (0x82,0x3a,0x49).
time:  00013ec0:note off:         (0x82,0x35,0x49).
time:  00013ec0:note off:         (0x82,0x2e,0x49).
time:  00013ec0:note on:          (0x92,0x3a,0x73).
time:  00013ec0:note on:          (0x92,0x35,0x73).
time:  00013ec0:note on:          (0x92,0x2e,0x73).
time:  00013f38:note off:         (0x82,0x3a,0x49).
time:  00013f38:note off:         (0x82,0x35,0x49).
time:  00013f38:note off:         (0x82,0x2e,0x49).
time:  00013f38:note on:          (0x92,0x35,0x73).
time:  00013f38:note on:          (0x92,0x30,0x73).
time:  00013f38:note on:          (0x92,0x29,0x73).
time:  00013fb0:note off:         (0x82,0x35,0x49).
time:  00013fb0:note off:         (0x82,0x30,0x49).
time:  00013fb0:note off:         (0x82,0x29,0x49).
time:  00013fb0:note on:          (0x92,0x38,0x73).
time:  00013fb0:note on:          (0x92,0x33,0x73).
time:  00013fb0:note on:          (0x92,0x2c,0x73).
time:  00014064:note on:          (0x92,0x38,0x73).
time:  00014064:note on:          (0x92,0x33,0x73).
time:  00014064:note on:          (0x92,0x2c,0x73).
time:  000140a0:note off:         (0x82,0x38,0x49).
time:  000140a0:note off:         (0x82,0x33,0x49).
time:  000140a0:note off:         (0x82,0x2c,0x49).
time:  000140a0:note off:         (0x82,0x38,0x49).
time:  000140a0:note off:         (0x82,0x33,0x49).
time:  000140a0:note off:         (0x82,0x2c,0x49).
time:  000140a0:note on:          (0x92,0x38,0x73).
time:  000140a0:note on:          (0x92,0x33,0x73).
time:  000140a0:note on:          (0x92,0x2c,0x73).
time:  00014190:note off:         (0x82,0x38,0x49).
time:  00014190:note off:         (0x82,0x33,0x49).
time:  00014190:note off:         (0x82,0x2c,0x49).
time:  00014190:note on:          (0x92,0x38,0x73).
time:  00014190:note on:          (0x92,0x33,0x73).
time:  00014190:note on:          (0x92,0x2c,0x73).
time:  000141cc:note off:         (0x82,0x38,0x49).
time:  000141cc:note off:         (0x82,0x33,0x49).
time:  000141cc:note off:         (0x82,0x2c,0x49).
time:  000141cc:note on:          (0x92,0x38,0x73).
time:  000141cc:note on:          (0x92,0x33,0x73).
time:  000141cc:note on:          (0x92,0x2c,0x73).
time:  00014208:note off:         (0x82,0x38,0x49).
time:  00014208:note off:         (0x82,0x33,0x49).
time:  00014208:note off:         (0x82,0x2c,0x49).
time:  00014208:note on:          (0x92,0x3d,0x73).
time:  00014208:note on:          (0x92,0x38,0x73).
time:  00014208:note on:          (0x92,0x31,0x73).
time:  00014280:note off:         (0x82,0x3d,0x49).
time:  00014280:note off:         (0x82,0x38,0x49).
time:  00014280:note off:         (0x82,0x31,0x49).
time:  00014280:note on:          (0x92,0x3d,0x73).
time:  00014280:note on:          (0x92,0x38,0x73).
time:  00014280:note on:          (0x92,0x31,0x73).
time:  000142f8:note off:         (0x82,0x3d,0x49).
time:  000142f8:note off:         (0x82,0x38,0x49).
time:  000142f8:note off:         (0x82,0x31,0x49).
time:  000142f8:note on:          (0x92,0x38,0x73).
time:  000142f8:note on:          (0x92,0x33,0x73).
time:  000142f8:note on:          (0x92,0x2c,0x73).
time:  00014370:note off:         (0x82,0x38,0x49).
time:  00014370:note off:         (0x82,0x33,0x49).
time:  00014370:note off:         (0x82,0x2c,0x49).
time:  00014370:note on:          (0x92,0x35,0x73).
time:  00014370:note on:          (0x92,0x30,0x73).
time:  00014370:note on:          (0x92,0x29,0x73).
time:  00014424:note on:          (0x92,0x35,0x73).
time:  00014424:note on:          (0x92,0x30,0x73).
time:  00014424:note on:          (0x92,0x29,0x73).
time:  00014460:note off:         (0x82,0x35,0x49).
time:  00014460:note off:         (0x82,0x30,0x49).
time:  00014460:note off:         (0x82,0x29,0x49).
time:  00014460:note off:         (0x82,0x35,0x49).
time:  00014460:note off:         (0x82,0x30,0x49).
time:  00014460:note off:         (0x82,0x29,0x49).
time:  00014460:note on:          (0x92,0x35,0x73).
time:  00014460:note on:          (0x92,0x30,0x73).
time:  00014460:note on:          (0x92,0x29,0x73).
time:  00014550:note off:         (0x82,0x35,0x49).
time:  00014550:note off:         (0x82,0x30,0x49).
time:  00014550:note off:         (0x82,0x29,0x49).
time:  00014550:note on:          (0x92,0x35,0x73).
time:  00014550:note on:          (0x92,0x30,0x73).
time:  00014550:note on:          (0x92,0x29,0x73).
time:  0001458c:note off:         (0x82,0x35,0x49).
time:  0001458c:note off:         (0x82,0x30,0x49).
time:  0001458c:note off:         (0x82,0x29,0x49).
time:  0001458c:note on:          (0x92,0x35,0x73).
time:  0001458c:note on:          (0x92,0x30,0x73).
time:  0001458c:note on:          (0x92,0x29,0x73).
time:  000145c8:note off:         (0x82,0x35,0x49).
time:  000145c8:note off:         (0x82,0x30,0x49).
time:  000145c8:note off:         (0x82,0x29,0x49).
time:  000145c8:note on:          (0x92,0x3a,0x73).
time:  000145c8:note on:          (0x92,0x35,0x73).
time:  000145c8:note on:          (0x92,0x2e,0x73).
time:  00014640:note off:         (0x82,0x3a,0x49).
time:  00014640:note off:         (0x82,0x35,0x49).
time:  00014640:note off:         (0x82,0x2e,0x49).
time:  00014640:note on:          (0x92,0x3a,0x73).
time:  00014640:note on:          (0x92,0x35,0x73).
time:  00014640:note on:          (0x92,0x2e,0x73).
time:  000146b8:note off:         (0x82,0x3a,0x49).
time:  000146b8:note off:         (0x82,0x35,0x49).
time:  000146b8:note off:         (0x82,0x2e,0x49).
time:  000146b8:note on:          (0x92,0x35,0x73).
time:  000146b8:note on:          (0x92,0x30,0x73).
time:  000146b8:note on:          (0x92,0x29,0x73).
time:  00014730:note off:         (0x82,0x35,0x49).
time:  00014730:note off:         (0x82,0x30,0x49).
time:  00014730:note off:         (0x82,0x29,0x49).
time:  00014730:note on:          (0x92,0x38,0x73).
time:  00014730:note on:          (0x92,0x33,0x73).
time:  00014730:note on:          (0x92,0x2c,0x73).
time:  000147e4:note on:          (0x92,0x38,0x73).
time:  000147e4:note on:          (0x92,0x33,0x73).
time:  000147e4:note on:          (0x92,0x2c,0x73).
time:  00014820:note off:         (0x82,0x38,0x49).
time:  00014820:note off:         (0x82,0x33,0x49).
time:  00014820:note off:         (0x82,0x2c,0x49).
time:  00014820:note off:         (0x82,0x38,0x49).
time:  00014820:note off:         (0x82,0x33,0x49).
time:  00014820:note off:         (0x82,0x2c,0x49).
time:  00014820:note on:          (0x92,0x38,0x73).
time:  00014820:note on:          (0x92,0x33,0x73).
time:  00014820:note on:          (0x92,0x2c,0x73).
time:  00014910:note off:         (0x82,0x38,0x49).
time:  00014910:note off:         (0x82,0x33,0x49).
time:  00014910:note off:         (0x82,0x2c,0x49).
time:  00014910:note on:          (0x92,0x38,0x73).
time:  00014910:note on:          (0x92,0x33,0x73).
time:  00014910:note on:          (0x92,0x2c,0x73).
time:  0001494c:note off:         (0x82,0x38,0x49).
time:  0001494c:note off:         (0x82,0x33,0x49).
time:  0001494c:note off:         (0x82,0x2c,0x49).
time:  0001494c:note on:          (0x92,0x38,0x73).
time:  0001494c:note on:          (0x92,0x33,0x73).
time:  0001494c:note on:          (0x92,0x2c,0x73).
time:  00014988:note off:         (0x82,0x38,0x49).
time:  00014988:note off:         (0x82,0x33,0x49).
time:  00014988:note off:         (0x82,0x2c,0x49).
time:  00014988:note on:          (0x92,0x3d,0x73).
time:  00014988:note on:          (0x92,0x38,0x73).
time:  00014988:note on:          (0x92,0x31,0x73).
time:  00014a00:note off:         (0x82,0x3d,0x49).
time:  00014a00:note off:         (0x82,0x38,0x49).
time:  00014a00:note off:         (0x82,0x31,0x49).
time:  00014a00:note on:          (0x92,0x3d,0x73).
time:  00014a00:note on:          (0x92,0x38,0x73).
time:  00014a00:note on:          (0x92,0x31,0x73).
time:  00014a78:note off:         (0x82,0x3d,0x49).
time:  00014a78:note off:         (0x82,0x38,0x49).
time:  00014a78:note off:         (0x82,0x31,0x49).
time:  00014a78:note on:          (0x92,0x38,0x73).
time:  00014a78:note on:          (0x92,0x33,0x73).
time:  00014a78:note on:          (0x92,0x2c,0x73).
time:  00014af0:note off:         (0x82,0x38,0x49).
time:  00014af0:note off:         (0x82,0x33,0x49).
time:  00014af0:note off:         (0x82,0x2c,0x49).
time:  00014af0:note on:          (0x92,0x35,0x73).
time:  00014af0:note on:          (0x92,0x30,0x73).
time:  00014af0:note on:          (0x92,0x29,0x73).
time:  00014ba4:note on:          (0x92,0x35,0x73).
time:  00014ba4:note on:          (0x92,0x30,0x73).
time:  00014ba4:note on:          (0x92,0x29,0x73).
time:  00014be0:note off:         (0x82,0x35,0x49).
time:  00014be0:note off:         (0x82,0x30,0x49).
time:  00014be0:note off:         (0x82,0x29,0x49).
time:  00014be0:note off:         (0x82,0x35,0x49).
time:  00014be0:note off:         (0x82,0x30,0x49).
time:  00014be0:note off:         (0x82,0x29,0x49).
time:  00014be0:note on:          (0x92,0x35,0x73).
time:  00014be0:note on:          (0x92,0x30,0x73).
time:  00014be0:note on:          (0x92,0x29,0x73).
time:  00014cd0:note off:         (0x82,0x35,0x49).
time:  00014cd0:note off:         (0x82,0x30,0x49).
time:  00014cd0:note off:         (0x82,0x29,0x49).
time:  00014cd0:note on:          (0x92,0x35,0x73).
time:  00014cd0:note on:          (0x92,0x30,0x73).
time:  00014cd0:note on:          (0x92,0x29,0x73).
time:  00014d0c:note off:         (0x82,0x35,0x49).
time:  00014d0c:note off:         (0x82,0x30,0x49).
time:  00014d0c:note off:         (0x82,0x29,0x49).
time:  00014d0c:note on:          (0x92,0x35,0x73).
time:  00014d0c:note on:          (0x92,0x30,0x73).
time:  00014d0c:note on:          (0x92,0x29,0x73).
time:  00014d48:note off:         (0x82,0x35,0x49).
time:  00014d48:note off:         (0x82,0x30,0x49).
time:  00014d48:note off:         (0x82,0x29,0x49).
time:  00014d48:note on:          (0x92,0x3a,0x73).
time:  00014d48:note on:          (0x92,0x35,0x73).
time:  00014d48:note on:          (0x92,0x2e,0x73).
time:  00014dc0:note off:         (0x82,0x3a,0x49).
time:  00014dc0:note off:         (0x82,0x35,0x49).
time:  00014dc0:note off:         (0x82,0x2e,0x49).
time:  00014dc0:note on:          (0x92,0x3a,0x73).
time:  00014dc0:note on:          (0x92,0x35,0x73).
time:  00014dc0:note on:          (0x92,0x2e,0x73).
time:  00014e38:note off:         (0x82,0x3a,0x49).
time:  00014e38:note off:         (0x82,0x35,0x49).
time:  00014e38:note off:         (0x82,0x2e,0x49).
time:  00014e38:note on:          (0x92,0x35,0x73).
time:  00014e38:note on:          (0x92,0x30,0x73).
time:  00014e38:note on:          (0x92,0x29,0x73).
time:  00014eb0:note off:         (0x82,0x35,0x49).
time:  00014eb0:note off:         (0x82,0x30,0x49).
time:  00014eb0:note off:         (0x82,0x29,0x49).
time:  00014eb0:note on:          (0x92,0x38,0x73).
time:  00014eb0:note on:          (0x92,0x33,0x73).
time:  00014eb0:note on:          (0x92,0x2c,0x73).
time:  00014f64:note on:          (0x92,0x38,0x73).
time:  00014f64:note on:          (0x92,0x33,0x73).
time:  00014f64:note on:          (0x92,0x2c,0x73).
time:  00014fa0:note off:         (0x82,0x38,0x49).
time:  00014fa0:note off:         (0x82,0x33,0x49).
time:  00014fa0:note off:         (0x82,0x2c,0x49).
time:  00014fa0:note off:         (0x82,0x38,0x49).
time:  00014fa0:note off:         (0x82,0x33,0x49).
time:  00014fa0:note off:         (0x82,0x2c,0x49).
time:  00014fa0:note on:          (0x92,0x38,0x73).
time:  00014fa0:note on:          (0x92,0x33,0x73).
time:  00014fa0:note on:          (0x92,0x2c,0x73).
time:  00015090:note off:         (0x82,0x38,0x49).
time:  00015090:note off:         (0x82,0x33,0x49).
time:  00015090:note off:         (0x82,0x2c,0x49).
time:  00015090:note on:          (0x92,0x38,0x73).
time:  00015090:note on:          (0x92,0x33,0x73).
time:  00015090:note on:          (0x92,0x2c,0x73).
time:  000150cc:note off:         (0x82,0x38,0x49).
time:  000150cc:note off:         (0x82,0x33,0x49).
time:  000150cc:note off:         (0x82,0x2c,0x49).
time:  000150cc:note on:          (0x92,0x38,0x73).
time:  000150cc:note on:          (0x92,0x33,0x73).
time:  000150cc:note on:          (0x92,0x2c,0x73).
time:  00015108:note off:         (0x82,0x38,0x49).
time:  00015108:note off:         (0x82,0x33,0x49).
time:  00015108:note off:         (0x82,0x2c,0x49).
time:  00015108:note on:          (0x92,0x3d,0x73).
time:  00015108:note on:          (0x92,0x38,0x73).
time:  00015108:note on:          (0x92,0x31,0x73).
time:  00015180:note off:         (0x82,0x3d,0x49).
time:  00015180:note off:         (0x82,0x38,0x49).
time:  00015180:note off:         (0x82,0x31,0x49).
time:  00015180:note on:          (0x92,0x3d,0x73).
time:  00015180:note on:          (0x92,0x38,0x73).
time:  00015180:note on:          (0x92,0x31,0x73).
time:  000151f8:note off:         (0x82,0x3d,0x49).
time:  000151f8:note off:         (0x82,0x38,0x49).
time:  000151f8:note off:         (0x82,0x31,0x49).
time:  000151f8:note on:          (0x92,0x38,0x73).
time:  000151f8:note on:          (0x92,0x33,0x73).
time:  000151f8:note on:          (0x92,0x2c,0x73).
time:  00015270:note off:         (0x82,0x38,0x49).
time:  00015270:note off:         (0x82,0x33,0x49).
time:  00015270:note off:         (0x82,0x2c,0x49).
time:  00015270:note on:          (0x92,0x35,0x73).
time:  00015270:note on:          (0x92,0x30,0x73).
time:  00015270:note on:          (0x92,0x29,0x73).
time:  00015324:note on:          (0x92,0x35,0x73).
time:  00015324:note on:          (0x92,0x30,0x73).
time:  00015324:note on:          (0x92,0x29,0x73).
time:  00015360:note off:         (0x82,0x35,0x49).
time:  00015360:note off:         (0x82,0x30,0x49).
time:  00015360:note off:         (0x82,0x29,0x49).
time:  00015360:note off:         (0x82,0x35,0x49).
time:  00015360:note off:         (0x82,0x30,0x49).
time:  00015360:note off:         (0x82,0x29,0x49).
time:  00015360:note on:          (0x92,0x35,0x73).
time:  00015360:note on:          (0x92,0x30,0x73).
time:  00015360:note on:          (0x92,0x29,0x73).
time:  00015450:note off:         (0x82,0x35,0x49).
time:  00015450:note off:         (0x82,0x30,0x49).
time:  00015450:note off:         (0x82,0x29,0x49).
time:  00015450:note on:          (0x92,0x35,0x73).
time:  00015450:note on:          (0x92,0x30,0x73).
time:  00015450:note on:          (0x92,0x29,0x73).
time:  0001548c:note off:         (0x82,0x35,0x49).
time:  0001548c:note off:         (0x82,0x30,0x49).
time:  0001548c:note off:         (0x82,0x29,0x49).
time:  0001548c:note on:          (0x92,0x35,0x73).
time:  0001548c:note on:          (0x92,0x30,0x73).
time:  0001548c:note on:          (0x92,0x29,0x73).
time:  000154c8:note off:         (0x82,0x35,0x49).
time:  000154c8:note off:         (0x82,0x30,0x49).
time:  000154c8:note off:         (0x82,0x29,0x49).
time:  000154c8:note on:          (0x92,0x3a,0x73).
time:  000154c8:note on:          (0x92,0x35,0x73).
time:  000154c8:note on:          (0x92,0x2e,0x73).
time:  00015540:note off:         (0x82,0x3a,0x49).
time:  00015540:note off:         (0x82,0x35,0x49).
time:  00015540:note off:         (0x82,0x2e,0x49).
time:  00015540:note on:          (0x92,0x3a,0x73).
time:  00015540:note on:          (0x92,0x35,0x73).
time:  00015540:note on:          (0x92,0x2e,0x73).
time:  000155b8:note off:         (0x82,0x3a,0x49).
time:  000155b8:note off:         (0x82,0x35,0x49).
time:  000155b8:note off:         (0x82,0x2e,0x49).
time:  000155b8:note on:          (0x92,0x35,0x73).
time:  000155b8:note on:          (0x92,0x30,0x73).
time:  000155b8:note on:          (0x92,0x29,0x73).
time:  00015630:note off:         (0x82,0x35,0x49).
time:  00015630:note off:         (0x82,0x30,0x49).
time:  00015630:note off:         (0x82,0x29,0x49).
time:  00015630:note on:          (0x92,0x38,0x73).
time:  00015630:note on:          (0x92,0x33,0x73).
time:  00015630:note on:          (0x92,0x2c,0x73).
time:  000156e4:note on:          (0x92,0x38,0x73).
time:  000156e4:note on:          (0x92,0x33,0x73).
time:  000156e4:note on:          (0x92,0x2c,0x73).
time:  00015720:note off:         (0x82,0x38,0x49).
time:  00015720:note off:         (0x82,0x33,0x49).
time:  00015720:note off:         (0x82,0x2c,0x49).
time:  00015720:note off:         (0x82,0x38,0x49).
time:  00015720:note off:         (0x82,0x33,0x49).
time:  00015720:note off:         (0x82,0x2c,0x49).
time:  00015720:note on:          (0x92,0x38,0x73).
time:  00015720:note on:          (0x92,0x33,0x73).
time:  00015720:note on:          (0x92,0x2c,0x73).
time:  00015810:note off:         (0x82,0x38,0x49).
time:  00015810:note off:         (0x82,0x33,0x49).
time:  00015810:note off:         (0x82,0x2c,0x49).
time:  00015810:note on:          (0x92,0x38,0x73).
time:  00015810:note on:          (0x92,0x33,0x73).
time:  00015810:note on:          (0x92,0x2c,0x73).
time:  0001584c:note off:         (0x82,0x38,0x49).
time:  0001584c:note off:         (0x82,0x33,0x49).
time:  0001584c:note off:         (0x82,0x2c,0x49).
time:  0001584c:note on:          (0x92,0x38,0x73).
time:  0001584c:note on:          (0x92,0x33,0x73).
time:  0001584c:note on:          (0x92,0x2c,0x73).
time:  00015888:note off:         (0x82,0x38,0x49).
time:  00015888:note off:         (0x82,0x33,0x49).
time:  00015888:note off:         (0x82,0x2c,0x49).
time:  00015888:note on:          (0x92,0x3d,0x73).
time:  00015888:note on:          (0x92,0x38,0x73).
time:  00015888:note on:          (0x92,0x31,0x73).
time:  00015900:note off:         (0x82,0x3d,0x49).
time:  00015900:note off:         (0x82,0x38,0x49).
time:  00015900:note off:         (0x82,0x31,0x49).
time:  00015900:note on:          (0x92,0x3d,0x73).
time:  00015900:note on:          (0x92,0x38,0x73).
time:  00015900:note on:          (0x92,0x31,0x73).
time:  00015978:note off:         (0x82,0x3d,0x49).
time:  00015978:note off:         (0x82,0x38,0x49).
time:  00015978:note off:         (0x82,0x31,0x49).
time:  00015978:note on:          (0x92,0x38,0x73).
time:  00015978:note on:          (0x92,0x33,0x73).
time:  00015978:note on:          (0x92,0x2c,0x73).
time:  000159f0:note off:         (0x82,0x38,0x49).
time:  000159f0:note off:         (0x82,0x33,0x49).
time:  000159f0:note off:         (0x82,0x2c,0x49).
time:  000159f0:note on:          (0x92,0x29,0x67).
time:  000159f0:note on:          (0x92,0x30,0x67).
time:  000159f0:note on:          (0x92,0x35,0x67).
time:  000168f2:note off:         (0x82,0x29,0x41).
time:  000168f2:note off:         (0x82,0x30,0x41).
time:  000168f2:note off:         (0x82,0x35,0x41).
time:  000186f0:note on:          (0x92,0x29,0x73).
time:  000186f0:note on:          (0x92,0x30,0x73).
time:  000186f0:note on:          (0x92,0x35,0x73).
time:  00018e70:note off:         (0x82,0x29,0x41).
time:  00018e70:note off:         (0x82,0x30,0x41).
time:  00018e70:note off:         (0x82,0x35,0x41).
time:  00018e70:note on:          (0x92,0x29,0x73).
time:  00018e70:note on:          (0x92,0x30,0x73).
time:  00018e70:note on:          (0x92,0x35,0x73).
time:  000195f0:note off:         (0x82,0x29,0x41).
time:  000195f0:note off:         (0x82,0x30,0x41).
time:  000195f0:note off:         (0x82,0x35,0x41).
time:  000195f0:note on:          (0x92,0x29,0x73).
time:  000195f0:note on:          (0x92,0x30,0x73).
time:  000195f0:note on:          (0x92,0x35,0x73).
time:  00019d70:note off:         (0x82,0x29,0x41).
time:  00019d70:note off:         (0x82,0x30,0x41).
time:  00019d70:note off:         (0x82,0x35,0x41).
time:  00019d70:note on:          (0x92,0x29,0x73).
time:  00019d70:note on:          (0x92,0x30,0x73).
time:  00019d70:note on:          (0x92,0x35,0x73).
time:  0001a4f0:note off:         (0x82,0x29,0x41).
time:  0001a4f0:note off:         (0x82,0x30,0x41).
time:  0001a4f0:note off:         (0x82,0x35,0x41).
time:  0001a4f0:note on:          (0x92,0x35,0x73).
time:  0001a4f0:note on:          (0x92,0x30,0x73).
time:  0001a4f0:note on:          (0x92,0x29,0x73).
time:  0001a5a4:note on:          (0x92,0x35,0x73).
time:  0001a5a4:note on:          (0x92,0x30,0x73).
time:  0001a5a4:note on:          (0x92,0x29,0x73).
time:  0001a5e0:note off:         (0x82,0x35,0x49).
time:  0001a5e0:note off:         (0x82,0x30,0x49).
time:  0001a5e0:note off:         (0x82,0x29,0x49).
time:  0001a5e0:note off:         (0x82,0x35,0x49).
time:  0001a5e0:note off:         (0x82,0x30,0x49).
time:  0001a5e0:note off:         (0x82,0x29,0x49).
time:  0001a5e0:note on:          (0x92,0x35,0x73).
time:  0001a5e0:note on:          (0x92,0x30,0x73).
time:  0001a5e0:note on:          (0x92,0x29,0x73).
time:  0001a6d0:note off:         (0x82,0x35,0x49).
time:  0001a6d0:note off:         (0x82,0x30,0x49).
time:  0001a6d0:note off:         (0x82,0x29,0x49).
time:  0001a6d0:note on:          (0x92,0x35,0x73).
time:  0001a6d0:note on:          (0x92,0x30,0x73).
time:  0001a6d0:note on:          (0x92,0x29,0x73).
time:  0001a70c:note off:         (0x82,0x35,0x49).
time:  0001a70c:note off:         (0x82,0x30,0x49).
time:  0001a70c:note off:         (0x82,0x29,0x49).
time:  0001a70c:note on:          (0x92,0x35,0x73).
time:  0001a70c:note on:          (0x92,0x30,0x73).
time:  0001a70c:note on:          (0x92,0x29,0x73).
time:  0001a748:note off:         (0x82,0x35,0x49).
time:  0001a748:note off:         (0x82,0x30,0x49).
time:  0001a748:note off:         (0x82,0x29,0x49).
time:  0001a748:note on:          (0x92,0x3a,0x73).
time:  0001a748:note on:          (0x92,0x35,0x73).
time:  0001a748:note on:          (0x92,0x2e,0x73).
time:  0001a7c0:note off:         (0x82,0x3a,0x49).
time:  0001a7c0:note off:         (0x82,0x35,0x49).
time:  0001a7c0:note off:         (0x82,0x2e,0x49).
time:  0001a7c0:note on:          (0x92,0x3a,0x73).
time:  0001a7c0:note on:          (0x92,0x35,0x73).
time:  0001a7c0:note on:          (0x92,0x2e,0x73).
time:  0001a838:note off:         (0x82,0x3a,0x49).
time:  0001a838:note off:         (0x82,0x35,0x49).
time:  0001a838:note off:         (0x82,0x2e,0x49).
time:  0001a838:note on:          (0x92,0x35,0x73).
time:  0001a838:note on:          (0x92,0x30,0x73).
time:  0001a838:note on:          (0x92,0x29,0x73).
time:  0001a8b0:note off:         (0x82,0x35,0x49).
time:  0001a8b0:note off:         (0x82,0x30,0x49).
time:  0001a8b0:note off:         (0x82,0x29,0x49).
time:  0001a8b0:note on:          (0x92,0x38,0x73).
time:  0001a8b0:note on:          (0x92,0x33,0x73).
time:  0001a8b0:note on:          (0x92,0x2c,0x73).
time:  0001a964:note on:          (0x92,0x38,0x73).
time:  0001a964:note on:          (0x92,0x33,0x73).
time:  0001a964:note on:          (0x92,0x2c,0x73).
time:  0001a9a0:note off:         (0x82,0x38,0x49).
time:  0001a9a0:note off:         (0x82,0x33,0x49).
time:  0001a9a0:note off:         (0x82,0x2c,0x49).
time:  0001a9a0:note off:         (0x82,0x38,0x49).
time:  0001a9a0:note off:         (0x82,0x33,0x49).
time:  0001a9a0:note off:         (0x82,0x2c,0x49).
time:  0001a9a0:note on:          (0x92,0x38,0x73).
time:  0001a9a0:note on:          (0x92,0x33,0x73).
time:  0001a9a0:note on:          (0x92,0x2c,0x73).
time:  0001aa90:note off:         (0x82,0x38,0x49).
time:  0001aa90:note off:         (0x82,0x33,0x49).
time:  0001aa90:note off:         (0x82,0x2c,0x49).
time:  0001aa90:note on:          (0x92,0x38,0x73).
time:  0001aa90:note on:          (0x92,0x33,0x73).
time:  0001aa90:note on:          (0x92,0x2c,0x73).
time:  0001aacc:note off:         (0x82,0x38,0x49).
time:  0001aacc:note off:         (0x82,0x33,0x49).
time:  0001aacc:note off:         (0x82,0x2c,0x49).
time:  0001aacc:note on:          (0x92,0x38,0x73).
time:  0001aacc:note on:          (0x92,0x33,0x73).
time:  0001aacc:note on:          (0x92,0x2c,0x73).
time:  0001ab08:note off:         (0x82,0x38,0x49).
time:  0001ab08:note off:         (0x82,0x33,0x49).
time:  0001ab08:note off:         (0x82,0x2c,0x49).
time:  0001ab08:note on:          (0x92,0x3d,0x73).
time:  0001ab08:note on:          (0x92,0x38,0x73).
time:  0001ab08:note on:          (0x92,0x31,0x73).
time:  0001ab80:note off:         (0x82,0x3d,0x49).
time:  0001ab80:note off:         (0x82,0x38,0x49).
time:  0001ab80:note off:         (0x82,0x31,0x49).
time:  0001ab80:note on:          (0x92,0x3d,0x73).
time:  0001ab80:note on:          (0x92,0x38,0x73).
time:  0001ab80:note on:          (0x92,0x31,0x73).
time:  0001abf8:note off:         (0x82,0x3d,0x49).
time:  0001abf8:note off:         (0x82,0x38,0x49).
time:  0001abf8:note off:         (0x82,0x31,0x49).
time:  0001abf8:note on:          (0x92,0x38,0x73).
time:  0001abf8:note on:          (0x92,0x33,0x73).
time:  0001abf8:note on:          (0x92,0x2c,0x73).
time:  0001ac70:note off:         (0x82,0x38,0x49).
time:  0001ac70:note off:         (0x82,0x33,0x49).
time:  0001ac70:note off:         (0x82,0x2c,0x49).
time:  0001ac70:note on:          (0x92,0x35,0x73).
time:  0001ac70:note on:          (0x92,0x30,0x73).
time:  0001ac70:note on:          (0x92,0x29,0x73).
time:  0001ad24:note on:          (0x92,0x35,0x73).
time:  0001ad24:note on:          (0x92,0x30,0x73).
time:  0001ad24:note on:          (0x92,0x29,0x73).
time:  0001ad60:note off:         (0x82,0x35,0x49).
time:  0001ad60:note off:         (0x82,0x30,0x49).
time:  0001ad60:note off:         (0x82,0x29,0x49).
time:  0001ad60:note off:         (0x82,0x35,0x49).
time:  0001ad60:note off:         (0x82,0x30,0x49).
time:  0001ad60:note off:         (0x82,0x29,0x49).
time:  0001ad60:note on:          (0x92,0x35,0x73).
time:  0001ad60:note on:          (0x92,0x30,0x73).
time:  0001ad60:note on:          (0x92,0x29,0x73).
time:  0001ae50:note off:         (0x82,0x35,0x49).
time:  0001ae50:note off:         (0x82,0x30,0x49).
time:  0001ae50:note off:         (0x82,0x29,0x49).
time:  0001ae50:note on:          (0x92,0x35,0x73).
time:  0001ae50:note on:          (0x92,0x30,0x73).
time:  0001ae50:note on:          (0x92,0x29,0x73).
time:  0001ae8c:note off:         (0x82,0x35,0x49).
time:  0001ae8c:note off:         (0x82,0x30,0x49).
time:  0001ae8c:note off:         (0x82,0x29,0x49).
time:  0001ae8c:note on:          (0x92,0x35,0x73).
time:  0001ae8c:note on:          (0x92,0x30,0x73).
time:  0001ae8c:note on:          (0x92,0x29,0x73).
time:  0001aec8:note off:         (0x82,0x35,0x49).
time:  0001aec8:note off:         (0x82,0x30,0x49).
time:  0001aec8:note off:         (0x82,0x29,0x49).
time:  0001aec8:note on:          (0x92,0x3a,0x73).
time:  0001aec8:note on:          (0x92,0x35,0x73).
time:  0001aec8:note on:          (0x92,0x2e,0x73).
time:  0001af40:note off:         (0x82,0x3a,0x49).
time:  0001af40:note off:         (0x82,0x35,0x49).
time:  0001af40:note off:         (0x82,0x2e,0x49).
time:  0001af40:note on:          (0x92,0x3a,0x73).
time:  0001af40:note on:          (0x92,0x35,0x73).
time:  0001af40:note on:          (0x92,0x2e,0x73).
time:  0001afb8:note off:         (0x82,0x3a,0x49).
time:  0001afb8:note off:         (0x82,0x35,0x49).
time:  0001afb8:note off:         (0x82,0x2e,0x49).
time:  0001afb8:note on:          (0x92,0x35,0x73).
time:  0001afb8:note on:          (0x92,0x30,0x73).
time:  0001afb8:note on:          (0x92,0x29,0x73).
time:  0001b030:note off:         (0x82,0x35,0x49).
time:  0001b030:note off:         (0x82,0x30,0x49).
time:  0001b030:note off:         (0x82,0x29,0x49).
time:  0001b030:note on:          (0x92,0x38,0x73).
time:  0001b030:note on:          (0x92,0x33,0x73).
time:  0001b030:note on:          (0x92,0x2c,0x73).
time:  0001b0e4:note on:          (0x92,0x38,0x73).
time:  0001b0e4:note on:          (0x92,0x33,0x73).
time:  0001b0e4:note on:          (0x92,0x2c,0x73).
time:  0001b120:note off:         (0x82,0x38,0x49).
time:  0001b120:note off:         (0x82,0x33,0x49).
time:  0001b120:note off:         (0x82,0x2c,0x49).
time:  0001b120:note off:         (0x82,0x38,0x49).
time:  0001b120:note off:         (0x82,0x33,0x49).
time:  0001b120:note off:         (0x82,0x2c,0x49).
time:  0001b120:note on:          (0x92,0x38,0x73).
time:  0001b120:note on:          (0x92,0x33,0x73).
time:  0001b120:note on:          (0x92,0x2c,0x73).
time:  0001b210:note off:         (0x82,0x38,0x49).
time:  0001b210:note off:         (0x82,0x33,0x49).
time:  0001b210:note off:         (0x82,0x2c,0x49).
time:  0001b210:note on:          (0x92,0x38,0x73).
time:  0001b210:note on:          (0x92,0x33,0x73).
time:  0001b210:note on:          (0x92,0x2c,0x73).
time:  0001b24c:note off:         (0x82,0x38,0x49).
time:  0001b24c:note off:         (0x82,0x33,0x49).
time:  0001b24c:note off:         (0x82,0x2c,0x49).
time:  0001b24c:note on:          (0x92,0x38,0x73).
time:  0001b24c:note on:          (0x92,0x33,0x73).
time:  0001b24c:note on:          (0x92,0x2c,0x73).
time:  0001b288:note off:         (0x82,0x38,0x49).
time:  0001b288:note off:         (0x82,0x33,0x49).
time:  0001b288:note off:         (0x82,0x2c,0x49).
time:  0001b288:note on:          (0x92,0x3d,0x73).
time:  0001b288:note on:          (0x92,0x38,0x73).
time:  0001b288:note on:          (0x92,0x31,0x73).
time:  0001b300:note off:         (0x82,0x3d,0x49).
time:  0001b300:note off:         (0x82,0x38,0x49).
time:  0001b300:note off:         (0x82,0x31,0x49).
time:  0001b300:note on:          (0x92,0x3d,0x73).
time:  0001b300:note on:          (0x92,0x38,0x73).
time:  0001b300:note on:          (0x92,0x31,0x73).
time:  0001b378:note off:         (0x82,0x3d,0x49).
time:  0001b378:note off:         (0x82,0x38,0x49).
time:  0001b378:note off:         (0x82,0x31,0x49).
time:  0001b378:note on:          (0x92,0x38,0x73).
time:  0001b378:note on:          (0x92,0x33,0x73).
time:  0001b378:note on:          (0x92,0x2c,0x73).
time:  0001b3f0:note off:         (0x82,0x38,0x49).
time:  0001b3f0:note off:         (0x82,0x33,0x49).
time:  0001b3f0:note off:         (0x82,0x2c,0x49).
time:  0001b3f0:note on:          (0x92,0x35,0x73).
time:  0001b3f0:note on:          (0x92,0x30,0x73).
time:  0001b3f0:note on:          (0x92,0x29,0x73).
time:  0001b4a4:note on:          (0x92,0x35,0x73).
time:  0001b4a4:note on:          (0x92,0x30,0x73).
time:  0001b4a4:note on:          (0x92,0x29,0x73).
time:  0001b4e0:note off:         (0x82,0x35,0x49).
time:  0001b4e0:note off:         (0x82,0x30,0x49).
time:  0001b4e0:note off:         (0x82,0x29,0x49).
time:  0001b4e0:note off:         (0x82,0x35,0x49).
time:  0001b4e0:note off:         (0x82,0x30,0x49).
time:  0001b4e0:note off:         (0x82,0x29,0x49).
time:  0001b4e0:note on:          (0x92,0x35,0x73).
time:  0001b4e0:note on:          (0x92,0x30,0x73).
time:  0001b4e0:note on:          (0x92,0x29,0x73).
time:  0001b5d0:note off:         (0x82,0x35,0x49).
time:  0001b5d0:note off:         (0x82,0x30,0x49).
time:  0001b5d0:note off:         (0x82,0x29,0x49).
time:  0001b5d0:note on:          (0x92,0x35,0x73).
time:  0001b5d0:note on:          (0x92,0x30,0x73).
time:  0001b5d0:note on:          (0x92,0x29,0x73).
time:  0001b60c:note off:         (0x82,0x35,0x49).
time:  0001b60c:note off:         (0x82,0x30,0x49).
time:  0001b60c:note off:         (0x82,0x29,0x49).
time:  0001b60c:note on:          (0x92,0x35,0x73).
time:  0001b60c:note on:          (0x92,0x30,0x73).
time:  0001b60c:note on:          (0x92,0x29,0x73).
time:  0001b648:note off:         (0x82,0x35,0x49).
time:  0001b648:note off:         (0x82,0x30,0x49).
time:  0001b648:note off:         (0x82,0x29,0x49).
time:  0001b648:note on:          (0x92,0x3a,0x73).
time:  0001b648:note on:          (0x92,0x35,0x73).
time:  0001b648:note on:          (0x92,0x2e,0x73).
time:  0001b6c0:note off:         (0x82,0x3a,0x49).
time:  0001b6c0:note off:         (0x82,0x35,0x49).
time:  0001b6c0:note off:         (0x82,0x2e,0x49).
time:  0001b6c0:note on:          (0x92,0x3a,0x73).
time:  0001b6c0:note on:          (0x92,0x35,0x73).
time:  0001b6c0:note on:          (0x92,0x2e,0x73).
time:  0001b738:note off:         (0x82,0x3a,0x49).
time:  0001b738:note off:         (0x82,0x35,0x49).
time:  0001b738:note off:         (0x82,0x2e,0x49).
time:  0001b738:note on:          (0x92,0x35,0x73).
time:  0001b738:note on:          (0x92,0x30,0x73).
time:  0001b738:note on:          (0x92,0x29,0x73).
time:  0001b7b0:note off:         (0x82,0x35,0x49).
time:  0001b7b0:note off:         (0x82,0x30,0x49).
time:  0001b7b0:note off:         (0x82,0x29,0x49).
time:  0001b7b0:note on:          (0x92,0x38,0x73).
time:  0001b7b0:note on:          (0x92,0x33,0x73).
time:  0001b7b0:note on:          (0x92,0x2c,0x73).
time:  0001b864:note on:          (0x92,0x38,0x73).
time:  0001b864:note on:          (0x92,0x33,0x73).
time:  0001b864:note on:          (0x92,0x2c,0x73).
time:  0001b8a0:note off:         (0x82,0x38,0x49).
time:  0001b8a0:note off:         (0x82,0x33,0x49).
time:  0001b8a0:note off:         (0x82,0x2c,0x49).
time:  0001b8a0:note off:         (0x82,0x38,0x49).
time:  0001b8a0:note off:         (0x82,0x33,0x49).
time:  0001b8a0:note off:         (0x82,0x2c,0x49).
time:  0001b8a0:note on:          (0x92,0x38,0x73).
time:  0001b8a0:note on:          (0x92,0x33,0x73).
time:  0001b8a0:note on:          (0x92,0x2c,0x73).
time:  0001b990:note off:         (0x82,0x38,0x49).
time:  0001b990:note off:         (0x82,0x33,0x49).
time:  0001b990:note off:         (0x82,0x2c,0x49).
time:  0001b990:note on:          (0x92,0x38,0x73).
time:  0001b990:note on:          (0x92,0x33,0x73).
time:  0001b990:note on:          (0x92,0x2c,0x73).
time:  0001b9cc:note off:         (0x82,0x38,0x49).
time:  0001b9cc:note off:         (0x82,0x33,0x49).
time:  0001b9cc:note off:         (0x82,0x2c,0x49).
time:  0001b9cc:note on:          (0x92,0x38,0x73).
time:  0001b9cc:note on:          (0x92,0x33,0x73).
time:  0001b9cc:note on:          (0x92,0x2c,0x73).
time:  0001ba08:note off:         (0x82,0x38,0x49).
time:  0001ba08:note off:         (0x82,0x33,0x49).
time:  0001ba08:note off:         (0x82,0x2c,0x49).
time:  0001ba08:note on:          (0x92,0x3d,0x73).
time:  0001ba08:note on:          (0x92,0x38,0x73).
time:  0001ba08:note on:          (0x92,0x31,0x73).
time:  0001ba80:note off:         (0x82,0x3d,0x49).
time:  0001ba80:note off:         (0x82,0x38,0x49).
time:  0001ba80:note off:         (0x82,0x31,0x49).
time:  0001ba80:note on:          (0x92,0x3d,0x73).
time:  0001ba80:note on:          (0x92,0x38,0x73).
time:  0001ba80:note on:          (0x92,0x31,0x73).
time:  0001baf8:note off:         (0x82,0x3d,0x49).
time:  0001baf8:note off:         (0x82,0x38,0x49).
time:  0001baf8:note off:         (0x82,0x31,0x49).
time:  0001baf8:note on:          (0x92,0x38,0x73).
time:  0001baf8:note on:          (0x92,0x33,0x73).
time:  0001baf8:note on:          (0x92,0x2c,0x73).
time:  0001bb70:note off:         (0x82,0x38,0x49).
time:  0001bb70:note off:         (0x82,0x33,0x49).
time:  0001bb70:note off:         (0x82,0x2c,0x49).
time:  0001bb70:note on:          (0x92,0x35,0x73).
time:  0001bb70:note on:          (0x92,0x30,0x73).
time:  0001bb70:note on:          (0x92,0x29,0x73).
time:  0001bc24:note on:          (0x92,0x35,0x73).
time:  0001bc24:note on:          (0x92,0x30,0x73).
time:  0001bc24:note on:          (0x92,0x29,0x73).
time:  0001bc60:note off:         (0x82,0x35,0x49).
time:  0001bc60:note off:         (0x82,0x30,0x49).
time:  0001bc60:note off:         (0x82,0x29,0x49).
time:  0001bc60:note off:         (0x82,0x35,0x49).
time:  0001bc60:note off:         (0x82,0x30,0x49).
time:  0001bc60:note off:         (0x82,0x29,0x49).
time:  0001bc60:note on:          (0x92,0x35,0x73).
time:  0001bc60:note on:          (0x92,0x30,0x73).
time:  0001bc60:note on:          (0x92,0x29,0x73).
time:  0001bd50:note off:         (0x82,0x35,0x49).
time:  0001bd50:note off:         (0x82,0x30,0x49).
time:  0001bd50:note off:         (0x82,0x29,0x49).
time:  0001bd50:note on:          (0x92,0x35,0x73).
time:  0001bd50:note on:          (0x92,0x30,0x73).
time:  0001bd50:note on:          (0x92,0x29,0x73).
time:  0001bd8c:note off:         (0x82,0x35,0x49).
time:  0001bd8c:note off:         (0x82,0x30,0x49).
time:  0001bd8c:note off:         (0x82,0x29,0x49).
time:  0001bd8c:note on:          (0x92,0x35,0x73).
time:  0001bd8c:note on:          (0x92,0x30,0x73).
time:  0001bd8c:note on:          (0x92,0x29,0x73).
time:  0001bdc8:note off:         (0x82,0x35,0x49).
time:  0001bdc8:note off:         (0x82,0x30,0x49).
time:  0001bdc8:note off:         (0x82,0x29,0x49).
time:  0001bdc8:note on:          (0x92,0x3a,0x73).
time:  0001bdc8:note on:          (0x92,0x35,0x73).
time:  0001bdc8:note on:          (0x92,0x2e,0x73).
time:  0001be40:note off:         (0x82,0x3a,0x49).
time:  0001be40:note off:         (0x82,0x35,0x49).
time:  0001be40:note off:         (0x82,0x2e,0x49).
time:  0001be40:note on:          (0x92,0x3a,0x73).
time:  0001be40:note on:          (0x92,0x35,0x73).
time:  0001be40:note on:          (0x92,0x2e,0x73).
time:  0001beb8:note off:         (0x82,0x3a,0x49).
time:  0001beb8:note off:         (0x82,0x35,0x49).
time:  0001beb8:note off:         (0x82,0x2e,0x49).
time:  0001beb8:note on:          (0x92,0x35,0x73).
time:  0001beb8:note on:          (0x92,0x30,0x73).
time:  0001beb8:note on:          (0x92,0x29,0x73).
time:  0001bf30:note off:         (0x82,0x35,0x49).
time:  0001bf30:note off:         (0x82,0x30,0x49).
time:  0001bf30:note off:         (0x82,0x29,0x49).
time:  0001bf30:note on:          (0x92,0x38,0x73).
time:  0001bf30:note on:          (0x92,0x33,0x73).
time:  0001bf30:note on:          (0x92,0x2c,0x73).
time:  0001bfe4:note on:          (0x92,0x38,0x73).
time:  0001bfe4:note on:          (0x92,0x33,0x73).
time:  0001bfe4:note on:          (0x92,0x2c,0x73).
time:  0001c020:note off:         (0x82,0x38,0x49).
time:  0001c020:note off:         (0x82,0x33,0x49).
time:  0001c020:note off:         (0x82,0x2c,0x49).
time:  0001c020:note off:         (0x82,0x38,0x49).
time:  0001c020:note off:         (0x82,0x33,0x49).
time:  0001c020:note off:         (0x82,0x2c,0x49).
time:  0001c020:note on:          (0x92,0x38,0x73).
time:  0001c020:note on:          (0x92,0x33,0x73).
time:  0001c020:note on:          (0x92,0x2c,0x73).
time:  0001c110:note off:         (0x82,0x38,0x49).
time:  0001c110:note off:         (0x82,0x33,0x49).
time:  0001c110:note off:         (0x82,0x2c,0x49).
time:  0001c110:note on:          (0x92,0x38,0x73).
time:  0001c110:note on:          (0x92,0x33,0x73).
time:  0001c110:note on:          (0x92,0x2c,0x73).
time:  0001c14c:note off:         (0x82,0x38,0x49).
time:  0001c14c:note off:         (0x82,0x33,0x49).
time:  0001c14c:note off:         (0x82,0x2c,0x49).
time:  0001c14c:note on:          (0x92,0x38,0x73).
time:  0001c14c:note on:          (0x92,0x33,0x73).
time:  0001c14c:note on:          (0x92,0x2c,0x73).
time:  0001c188:note off:         (0x82,0x38,0x49).
time:  0001c188:note off:         (0x82,0x33,0x49).
time:  0001c188:note off:         (0x82,0x2c,0x49).
time:  0001c188:note on:          (0x92,0x3d,0x73).
time:  0001c188:note on:          (0x92,0x38,0x73).
time:  0001c188:note on:          (0x92,0x31,0x73).
time:  0001c200:note off:         (0x82,0x3d,0x49).
time:  0001c200:note off:         (0x82,0x38,0x49).
time:  0001c200:note off:         (0x82,0x31,0x49).
time:  0001c200:note on:          (0x92,0x3d,0x73).
time:  0001c200:note on:          (0x92,0x38,0x73).
time:  0001c200:note on:          (0x92,0x31,0x73).
time:  0001c278:note off:         (0x82,0x3d,0x49).
time:  0001c278:note off:         (0x82,0x38,0x49).
time:  0001c278:note off:         (0x82,0x31,0x49).
time:  0001c278:note on:          (0x92,0x3d,0x73).
time:  0001c278:note on:          (0x92,0x31,0x73).
time:  0001c278:note on:          (0x92,0x38,0x73).
time:  0001c2f0:note off:         (0x82,0x3d,0x49).
time:  0001c2f0:note off:         (0x82,0x31,0x49).
time:  0001c2f0:note off:         (0x82,0x38,0x49).
time:  0001c2f0:note on:          (0x92,0x35,0x73).
time:  0001c2f0:note on:          (0x92,0x30,0x73).
time:  0001c2f0:note on:          (0x92,0x29,0x73).
time:  0001c3a4:note on:          (0x92,0x35,0x73).
time:  0001c3a4:note on:          (0x92,0x30,0x73).
time:  0001c3a4:note on:          (0x92,0x29,0x73).
time:  0001c3e0:note off:         (0x82,0x35,0x49).
time:  0001c3e0:note off:         (0x82,0x30,0x49).
time:  0001c3e0:note off:         (0x82,0x29,0x49).
time:  0001c3e0:note off:         (0x82,0x35,0x49).
time:  0001c3e0:note off:         (0x82,0x30,0x49).
time:  0001c3e0:note off:         (0x82,0x29,0x49).
time:  0001c3e0:note on:          (0x92,0x35,0x73).
time:  0001c3e0:note on:          (0x92,0x30,0x73).
time:  0001c3e0:note on:          (0x92,0x29,0x73).
time:  0001c4d0:note off:         (0x82,0x35,0x49).
time:  0001c4d0:note off:         (0x82,0x30,0x49).
time:  0001c4d0:note off:         (0x82,0x29,0x49).
time:  0001c4d0:note on:          (0x92,0x35,0x73).
time:  0001c4d0:note on:          (0x92,0x30,0x73).
time:  0001c4d0:note on:          (0x92,0x29,0x73).
time:  0001c50c:note off:         (0x82,0x35,0x49).
time:  0001c50c:note off:         (0x82,0x30,0x49).
time:  0001c50c:note off:         (0x82,0x29,0x49).
time:  0001c50c:note on:          (0x92,0x35,0x73).
time:  0001c50c:note on:          (0x92,0x30,0x73).
time:  0001c50c:note on:          (0x92,0x29,0x73).
time:  0001c548:note off:         (0x82,0x35,0x49).
time:  0001c548:note off:         (0x82,0x30,0x49).
time:  0001c548:note off:         (0x82,0x29,0x49).
time:  0001c548:note on:          (0x92,0x3a,0x73).
time:  0001c548:note on:          (0x92,0x35,0x73).
time:  0001c548:note on:          (0x92,0x2e,0x73).
time:  0001c5c0:note off:         (0x82,0x3a,0x49).
time:  0001c5c0:note off:         (0x82,0x35,0x49).
time:  0001c5c0:note off:         (0x82,0x2e,0x49).
time:  0001c5c0:note on:          (0x92,0x3a,0x73).
time:  0001c5c0:note on:          (0x92,0x35,0x73).
time:  0001c5c0:note on:          (0x92,0x2e,0x73).
time:  0001c638:note off:         (0x82,0x3a,0x49).
time:  0001c638:note off:         (0x82,0x35,0x49).
time:  0001c638:note off:         (0x82,0x2e,0x49).
time:  0001c638:note on:          (0x92,0x35,0x73).
time:  0001c638:note on:          (0x92,0x30,0x73).
time:  0001c638:note on:          (0x92,0x29,0x73).
time:  0001c6b0:note off:         (0x82,0x35,0x49).
time:  0001c6b0:note off:         (0x82,0x30,0x49).
time:  0001c6b0:note off:         (0x82,0x29,0x49).
time:  0001c6b0:note on:          (0x92,0x38,0x73).
time:  0001c6b0:note on:          (0x92,0x33,0x73).
time:  0001c6b0:note on:          (0x92,0x2c,0x73).
time:  0001c764:note on:          (0x92,0x38,0x73).
time:  0001c764:note on:          (0x92,0x33,0x73).
time:  0001c764:note on:          (0x92,0x2c,0x73).
time:  0001c7a0:note off:         (0x82,0x38,0x49).
time:  0001c7a0:note off:         (0x82,0x33,0x49).
time:  0001c7a0:note off:         (0x82,0x2c,0x49).
time:  0001c7a0:note off:         (0x82,0x38,0x49).
time:  0001c7a0:note off:         (0x82,0x33,0x49).
time:  0001c7a0:note off:         (0x82,0x2c,0x49).
time:  0001c7a0:note on:          (0x92,0x38,0x73).
time:  0001c7a0:note on:          (0x92,0x33,0x73).
time:  0001c7a0:note on:          (0x92,0x2c,0x73).
time:  0001c890:note off:         (0x82,0x38,0x49).
time:  0001c890:note off:         (0x82,0x33,0x49).
time:  0001c890:note off:         (0x82,0x2c,0x49).
time:  0001c890:note on:          (0x92,0x38,0x73).
time:  0001c890:note on:          (0x92,0x33,0x73).
time:  0001c890:note on:          (0x92,0x2c,0x73).
time:  0001c8cc:note off:         (0x82,0x38,0x49).
time:  0001c8cc:note off:         (0x82,0x33,0x49).
time:  0001c8cc:note off:         (0x82,0x2c,0x49).
time:  0001c8cc:note on:          (0x92,0x38,0x73).
time:  0001c8cc:note on:          (0x92,0x33,0x73).
time:  0001c8cc:note on:          (0x92,0x2c,0x73).
time:  0001c908:note off:         (0x82,0x38,0x49).
time:  0001c908:note off:         (0x82,0x33,0x49).
time:  0001c908:note off:         (0x82,0x2c,0x49).
time:  0001c908:note on:          (0x92,0x3d,0x73).
time:  0001c908:note on:          (0x92,0x38,0x73).
time:  0001c908:note on:          (0x92,0x31,0x73).
time:  0001c980:note off:         (0x82,0x3d,0x49).
time:  0001c980:note off:         (0x82,0x38,0x49).
time:  0001c980:note off:         (0x82,0x31,0x49).
time:  0001c980:note on:          (0x92,0x3d,0x73).
time:  0001c980:note on:          (0x92,0x38,0x73).
time:  0001c980:note on:          (0x92,0x31,0x73).
time:  0001c9f8:note off:         (0x82,0x3d,0x49).
time:  0001c9f8:note off:         (0x82,0x38,0x49).
time:  0001c9f8:note off:         (0x82,0x31,0x49).
time:  0001c9f8:note on:          (0x92,0x38,0x73).
time:  0001c9f8:note on:          (0x92,0x33,0x73).
time:  0001c9f8:note on:          (0x92,0x2c,0x73).
time:  0001ca70:note off:         (0x82,0x38,0x49).
time:  0001ca70:note off:         (0x82,0x33,0x49).
time:  0001ca70:note off:         (0x82,0x2c,0x49).
time:  0001ca70:note on:          (0x92,0x35,0x73).
time:  0001ca70:note on:          (0x92,0x30,0x73).
time:  0001ca70:note on:          (0x92,0x29,0x73).
time:  0001cb24:note on:          (0x92,0x35,0x73).
time:  0001cb24:note on:          (0x92,0x30,0x73).
time:  0001cb24:note on:          (0x92,0x29,0x73).
time:  0001cb60:note off:         (0x82,0x35,0x49).
time:  0001cb60:note off:         (0x82,0x30,0x49).
time:  0001cb60:note off:         (0x82,0x29,0x49).
time:  0001cb60:note off:         (0x82,0x35,0x49).
time:  0001cb60:note off:         (0x82,0x30,0x49).
time:  0001cb60:note off:         (0x82,0x29,0x49).
time:  0001cb60:note on:          (0x92,0x35,0x73).
time:  0001cb60:note on:          (0x92,0x30,0x73).
time:  0001cb60:note on:          (0x92,0x29,0x73).
time:  0001cc50:note off:         (0x82,0x35,0x49).
time:  0001cc50:note off:         (0x82,0x30,0x49).
time:  0001cc50:note off:         (0x82,0x29,0x49).
time:  0001cc50:note on:          (0x92,0x35,0x73).
time:  0001cc50:note on:          (0x92,0x30,0x73).
time:  0001cc50:note on:          (0x92,0x29,0x73).
time:  0001cc8c:note off:         (0x82,0x35,0x49).
time:  0001cc8c:note off:         (0x82,0x30,0x49).
time:  0001cc8c:note off:         (0x82,0x29,0x49).
time:  0001cc8c:note on:          (0x92,0x35,0x73).
time:  0001cc8c:note on:          (0x92,0x30,0x73).
time:  0001cc8c:note on:          (0x92,0x29,0x73).
time:  0001ccc8:note off:         (0x82,0x35,0x49).
time:  0001ccc8:note off:         (0x82,0x30,0x49).
time:  0001ccc8:note off:         (0x82,0x29,0x49).
time:  0001ccc8:note on:          (0x92,0x3a,0x73).
time:  0001ccc8:note on:          (0x92,0x35,0x73).
time:  0001ccc8:note on:          (0x92,0x2e,0x73).
time:  0001cd40:note off:         (0x82,0x3a,0x49).
time:  0001cd40:note off:         (0x82,0x35,0x49).
time:  0001cd40:note off:         (0x82,0x2e,0x49).
time:  0001cd40:note on:          (0x92,0x3a,0x73).
time:  0001cd40:note on:          (0x92,0x35,0x73).
time:  0001cd40:note on:          (0x92,0x2e,0x73).
time:  0001cdb8:note off:         (0x82,0x3a,0x49).
time:  0001cdb8:note off:         (0x82,0x35,0x49).
time:  0001cdb8:note off:         (0x82,0x2e,0x49).
time:  0001cdb8:note on:          (0x92,0x35,0x73).
time:  0001cdb8:note on:          (0x92,0x30,0x73).
time:  0001cdb8:note on:          (0x92,0x29,0x73).
time:  0001ce30:note off:         (0x82,0x35,0x49).
time:  0001ce30:note off:         (0x82,0x30,0x49).
time:  0001ce30:note off:         (0x82,0x29,0x49).
time:  0001ce30:note on:          (0x92,0x38,0x73).
time:  0001ce30:note on:          (0x92,0x33,0x73).
time:  0001ce30:note on:          (0x92,0x2c,0x73).
time:  0001cee4:note on:          (0x92,0x38,0x73).
time:  0001cee4:note on:          (0x92,0x33,0x73).
time:  0001cee4:note on:          (0x92,0x2c,0x73).
time:  0001cf20:note off:         (0x82,0x38,0x49).
time:  0001cf20:note off:         (0x82,0x33,0x49).
time:  0001cf20:note off:         (0x82,0x2c,0x49).
time:  0001cf20:note off:         (0x82,0x38,0x49).
time:  0001cf20:note off:         (0x82,0x33,0x49).
time:  0001cf20:note off:         (0x82,0x2c,0x49).
time:  0001cf20:note on:          (0x92,0x38,0x73).
time:  0001cf20:note on:          (0x92,0x33,0x73).
time:  0001cf20:note on:          (0x92,0x2c,0x73).
time:  0001d010:note off:         (0x82,0x38,0x49).
time:  0001d010:note off:         (0x82,0x33,0x49).
time:  0001d010:note off:         (0x82,0x2c,0x49).
time:  0001d010:note on:          (0x92,0x38,0x73).
time:  0001d010:note on:          (0x92,0x33,0x73).
time:  0001d010:note on:          (0x92,0x2c,0x73).
time:  0001d04c:note off:         (0x82,0x38,0x49).
time:  0001d04c:note off:         (0x82,0x33,0x49).
time:  0001d04c:note off:         (0x82,0x2c,0x49).
time:  0001d04c:note on:          (0x92,0x38,0x73).
time:  0001d04c:note on:          (0x92,0x33,0x73).
time:  0001d04c:note on:          (0x92,0x2c,0x73).
time:  0001d088:note off:         (0x82,0x38,0x49).
time:  0001d088:note off:         (0x82,0x33,0x49).
time:  0001d088:note off:         (0x82,0x2c,0x49).
time:  0001d088:note on:          (0x92,0x3d,0x73).
time:  0001d088:note on:          (0x92,0x38,0x73).
time:  0001d088:note on:          (0x92,0x31,0x73).
time:  0001d100:note off:         (0x82,0x3d,0x49).
time:  0001d100:note off:         (0x82,0x38,0x49).
time:  0001d100:note off:         (0x82,0x31,0x49).
time:  0001d100:note on:          (0x92,0x3d,0x73).
time:  0001d100:note on:          (0x92,0x38,0x73).
time:  0001d100:note on:          (0x92,0x31,0x73).
time:  0001d178:note off:         (0x82,0x3d,0x49).
time:  0001d178:note off:         (0x82,0x38,0x49).
time:  0001d178:note off:         (0x82,0x31,0x49).
time:  0001d178:note on:          (0x92,0x38,0x73).
time:  0001d178:note on:          (0x92,0x33,0x73).
time:  0001d178:note on:          (0x92,0x2c,0x73).
time:  0001d1f0:note off:         (0x82,0x38,0x49).
time:  0001d1f0:note off:         (0x82,0x33,0x49).
time:  0001d1f0:note off:         (0x82,0x2c,0x49).
time:  0001d1f0:note on:          (0x92,0x35,0x73).
time:  0001d1f0:note on:          (0x92,0x30,0x73).
time:  0001d1f0:note on:          (0x92,0x29,0x73).
time:  0001d2a4:note on:          (0x92,0x35,0x73).
time:  0001d2a4:note on:          (0x92,0x30,0x73).
time:  0001d2a4:note on:          (0x92,0x29,0x73).
time:  0001d2e0:note off:         (0x82,0x35,0x49).
time:  0001d2e0:note off:         (0x82,0x30,0x49).
time:  0001d2e0:note off:         (0x82,0x29,0x49).
time:  0001d2e0:note off:         (0x82,0x35,0x49).
time:  0001d2e0:note off:         (0x82,0x30,0x49).
time:  0001d2e0:note off:         (0x82,0x29,0x49).
time:  0001d2e0:note on:          (0x92,0x35,0x73).
time:  0001d2e0:note on:          (0x92,0x30,0x73).
time:  0001d2e0:note on:          (0x92,0x29,0x73).
time:  0001d3d0:note off:         (0x82,0x35,0x49).
time:  0001d3d0:note off:         (0x82,0x30,0x49).
time:  0001d3d0:note off:         (0x82,0x29,0x49).
time:  0001d3d0:note on:          (0x92,0x35,0x73).
time:  0001d3d0:note on:          (0x92,0x30,0x73).
time:  0001d3d0:note on:          (0x92,0x29,0x73).
time:  0001d40c:note off:         (0x82,0x35,0x49).
time:  0001d40c:note off:         (0x82,0x30,0x49).
time:  0001d40c:note off:         (0x82,0x29,0x49).
time:  0001d40c:note on:          (0x92,0x35,0x73).
time:  0001d40c:note on:          (0x92,0x30,0x73).
time:  0001d40c:note on:          (0x92,0x29,0x73).
time:  0001d448:note off:         (0x82,0x35,0x49).
time:  0001d448:note off:         (0x82,0x30,0x49).
time:  0001d448:note off:         (0x82,0x29,0x49).
time:  0001d448:note on:          (0x92,0x3a,0x73).
time:  0001d448:note on:          (0x92,0x35,0x73).
time:  0001d448:note on:          (0x92,0x2e,0x73).
time:  0001d4c0:note off:         (0x82,0x3a,0x49).
time:  0001d4c0:note off:         (0x82,0x35,0x49).
time:  0001d4c0:note off:         (0x82,0x2e,0x49).
time:  0001d4c0:note on:          (0x92,0x3a,0x73).
time:  0001d4c0:note on:          (0x92,0x35,0x73).
time:  0001d4c0:note on:          (0x92,0x2e,0x73).
time:  0001d538:note off:         (0x82,0x3a,0x49).
time:  0001d538:note off:         (0x82,0x35,0x49).
time:  0001d538:note off:         (0x82,0x2e,0x49).
time:  0001d538:note on:          (0x92,0x35,0x73).
time:  0001d538:note on:          (0x92,0x30,0x73).
time:  0001d538:note on:          (0x92,0x29,0x73).
time:  0001d5b0:note off:         (0x82,0x35,0x49).
time:  0001d5b0:note off:         (0x82,0x30,0x49).
time:  0001d5b0:note off:         (0x82,0x29,0x49).
time:  0001d5b0:note on:          (0x92,0x38,0x73).
time:  0001d5b0:note on:          (0x92,0x33,0x73).
time:  0001d5b0:note on:          (0x92,0x2c,0x73).
time:  0001d664:note on:          (0x92,0x38,0x73).
time:  0001d664:note on:          (0x92,0x33,0x73).
time:  0001d664:note on:          (0x92,0x2c,0x73).
time:  0001d6a0:note off:         (0x82,0x38,0x49).
time:  0001d6a0:note off:         (0x82,0x33,0x49).
time:  0001d6a0:note off:         (0x82,0x2c,0x49).
time:  0001d6a0:note off:         (0x82,0x38,0x49).
time:  0001d6a0:note off:         (0x82,0x33,0x49).
time:  0001d6a0:note off:         (0x82,0x2c,0x49).
time:  0001d6a0:note on:          (0x92,0x38,0x73).
time:  0001d6a0:note on:          (0x92,0x33,0x73).
time:  0001d6a0:note on:          (0x92,0x2c,0x73).
time:  0001d790:note off:         (0x82,0x38,0x49).
time:  0001d790:note off:         (0x82,0x33,0x49).
time:  0001d790:note off:         (0x82,0x2c,0x49).
time:  0001d790:note on:          (0x92,0x38,0x73).
time:  0001d790:note on:          (0x92,0x33,0x73).
time:  0001d790:note on:          (0x92,0x2c,0x73).
time:  0001d7cc:note off:         (0x82,0x38,0x49).
time:  0001d7cc:note off:         (0x82,0x33,0x49).
time:  0001d7cc:note off:         (0x82,0x2c,0x49).
time:  0001d7cc:note on:          (0x92,0x38,0x73).
time:  0001d7cc:note on:          (0x92,0x33,0x73).
time:  0001d7cc:note on:          (0x92,0x2c,0x73).
time:  0001d808:note off:         (0x82,0x38,0x49).
time:  0001d808:note off:         (0x82,0x33,0x49).
time:  0001d808:note off:         (0x82,0x2c,0x49).
time:  0001d808:note on:          (0x92,0x3d,0x73).
time:  0001d808:note on:          (0x92,0x38,0x73).
time:  0001d808:note on:          (0x92,0x31,0x73).
time:  0001d880:note off:         (0x82,0x3d,0x49).
time:  0001d880:note off:         (0x82,0x38,0x49).
time:  0001d880:note off:         (0x82,0x31,0x49).
time:  0001d880:note on:          (0x92,0x3d,0x73).
time:  0001d880:note on:          (0x92,0x38,0x73).
time:  0001d880:note on:          (0x92,0x31,0x73).
time:  0001d8f8:note off:         (0x82,0x3d,0x49).
time:  0001d8f8:note off:         (0x82,0x38,0x49).
time:  0001d8f8:note off:         (0x82,0x31,0x49).
time:  0001d8f8:note on:          (0x92,0x38,0x73).
time:  0001d8f8:note on:          (0x92,0x33,0x73).
time:  0001d8f8:note on:          (0x92,0x2c,0x73).
time:  0001d970:note off:         (0x82,0x38,0x49).
time:  0001d970:note off:         (0x82,0x33,0x49).
time:  0001d970:note off:         (0x82,0x2c,0x49).
time:  0001d970:note on:          (0x92,0x35,0x73).
time:  0001d970:note on:          (0x92,0x30,0x73).
time:  0001d970:note on:          (0x92,0x29,0x73).
time:  0001da24:note on:          (0x92,0x35,0x73).
time:  0001da24:note on:          (0x92,0x30,0x73).
time:  0001da24:note on:          (0x92,0x29,0x73).
time:  0001da60:note off:         (0x82,0x35,0x49).
time:  0001da60:note off:         (0x82,0x30,0x49).
time:  0001da60:note off:         (0x82,0x29,0x49).
time:  0001da60:note off:         (0x82,0x35,0x49).
time:  0001da60:note off:         (0x82,0x30,0x49).
time:  0001da60:note off:         (0x82,0x29,0x49).
time:  0001da60:note on:          (0x92,0x35,0x73).
time:  0001da60:note on:          (0x92,0x30,0x73).
time:  0001da60:note on:          (0x92,0x29,0x73).
time:  0001db50:note off:         (0x82,0x35,0x49).
time:  0001db50:note off:         (0x82,0x30,0x49).
time:  0001db50:note off:         (0x82,0x29,0x49).
time:  0001db50:note on:          (0x92,0x35,0x73).
time:  0001db50:note on:          (0x92,0x30,0x73).
time:  0001db50:note on:          (0x92,0x29,0x73).
time:  0001db8c:note off:         (0x82,0x35,0x49).
time:  0001db8c:note off:         (0x82,0x30,0x49).
time:  0001db8c:note off:         (0x82,0x29,0x49).
time:  0001db8c:note on:          (0x92,0x35,0x73).
time:  0001db8c:note on:          (0x92,0x30,0x73).
time:  0001db8c:note on:          (0x92,0x29,0x73).
time:  0001dbc8:note off:         (0x82,0x35,0x49).
time:  0001dbc8:note off:         (0x82,0x30,0x49).
time:  0001dbc8:note off:         (0x82,0x29,0x49).
time:  0001dbc8:note on:          (0x92,0x3a,0x73).
time:  0001dbc8:note on:          (0x92,0x35,0x73).
time:  0001dbc8:note on:          (0x92,0x2e,0x73).
time:  0001dc40:note off:         (0x82,0x3a,0x49).
time:  0001dc40:note off:         (0x82,0x35,0x49).
time:  0001dc40:note off:         (0x82,0x2e,0x49).
time:  0001dc40:note on:          (0x92,0x3a,0x73).
time:  0001dc40:note on:          (0x92,0x35,0x73).
time:  0001dc40:note on:          (0x92,0x2e,0x73).
time:  0001dcb8:note off:         (0x82,0x3a,0x49).
time:  0001dcb8:note off:         (0x82,0x35,0x49).
time:  0001dcb8:note off:         (0x82,0x2e,0x49).
time:  0001dcb8:note on:          (0x92,0x35,0x73).
time:  0001dcb8:note on:          (0x92,0x30,0x73).
time:  0001dcb8:note on:          (0x92,0x29,0x73).
time:  0001dd30:note off:         (0x82,0x35,0x49).
time:  0001dd30:note off:         (0x82,0x30,0x49).
time:  0001dd30:note off:         (0x82,0x29,0x49).
time:  0001dd30:note on:          (0x92,0x38,0x73).
time:  0001dd30:note on:          (0x92,0x33,0x73).
time:  0001dd30:note on:          (0x92,0x2c,0x73).
time:  0001dde4:note on:          (0x92,0x38,0x73).
time:  0001dde4:note on:          (0x92,0x33,0x73).
time:  0001dde4:note on:          (0x92,0x2c,0x73).
time:  0001de20:note off:         (0x82,0x38,0x49).
time:  0001de20:note off:         (0x82,0x33,0x49).
time:  0001de20:note off:         (0x82,0x2c,0x49).
time:  0001de20:note off:         (0x82,0x38,0x49).
time:  0001de20:note off:         (0x82,0x33,0x49).
time:  0001de20:note off:         (0x82,0x2c,0x49).
time:  0001de20:note on:          (0x92,0x38,0x73).
time:  0001de20:note on:          (0x92,0x33,0x73).
time:  0001de20:note on:          (0x92,0x2c,0x73).
time:  0001df10:note off:         (0x82,0x38,0x49).
time:  0001df10:note off:         (0x82,0x33,0x49).
time:  0001df10:note off:         (0x82,0x2c,0x49).
time:  0001df10:note on:          (0x92,0x38,0x73).
time:  0001df10:note on:          (0x92,0x33,0x73).
time:  0001df10:note on:          (0x92,0x2c,0x73).
time:  0001df4c:note off:         (0x82,0x38,0x49).
time:  0001df4c:note off:         (0x82,0x33,0x49).
time:  0001df4c:note off:         (0x82,0x2c,0x49).
time:  0001df4c:note on:          (0x92,0x38,0x73).
time:  0001df4c:note on:          (0x92,0x33,0x73).
time:  0001df4c:note on:          (0x92,0x2c,0x73).
time:  0001df88:note off:         (0x82,0x38,0x49).
time:  0001df88:note off:         (0x82,0x33,0x49).
time:  0001df88:note off:         (0x82,0x2c,0x49).
time:  0001df88:note on:          (0x92,0x3d,0x73).
time:  0001df88:note on:          (0x92,0x38,0x73).
time:  0001df88:note on:          (0x92,0x31,0x73).
time:  0001e000:note off:         (0x82,0x3d,0x49).
time:  0001e000:note off:         (0x82,0x38,0x49).
time:  0001e000:note off:         (0x82,0x31,0x49).
time:  0001e000:note on:          (0x92,0x3d,0x73).
time:  0001e000:note on:          (0x92,0x38,0x73).
time:  0001e000:note on:          (0x92,0x31,0x73).
time:  0001e078:note off:         (0x82,0x3d,0x49).
time:  0001e078:note off:         (0x82,0x38,0x49).
time:  0001e078:note off:         (0x82,0x31,0x49).
time:  0001e078:note on:          (0x92,0x38,0x73).
time:  0001e078:note on:          (0x92,0x33,0x73).
time:  0001e078:note on:          (0x92,0x2c,0x73).
time:  0001e0f0:note off:         (0x82,0x38,0x49).
time:  0001e0f0:note off:         (0x82,0x33,0x49).
time:  0001e0f0:note off:         (0x82,0x2c,0x49).
time:  0001e0f0:note on:          (0x92,0x35,0x67).
time:  0001e0f0:note on:          (0x92,0x30,0x67).
time:  0001e0f0:note on:          (0x92,0x29,0x67).
time:  0001e872:note off:         (0x82,0x35,0x41).
time:  0001e872:note off:         (0x82,0x30,0x41).
time:  0001e872:note off:         (0x82,0x29,0x41).
time:  0001e872:Special non-MIDI event: End of Track.
Track #4. (zero-based)
len    :0x00002609.
time:  00000000:Special non-MIDI event: Text message type 0x03,len 0x1c
Kurt Cobain -Guitar Overdub-
time:  00000000:program change:   (0xc3,0x1d).
time:  00000000:controller:       (0xb3,0x00,0x00).
time:  00000ff0:note on:          (0x93,0x35,0x7d).
time:  00000ff0:note on:          (0x93,0x30,0x7d).
time:  00000ff0:note on:          (0x93,0x29,0x7d).
time:  000010a4:note on:          (0x93,0x35,0x7d).
time:  000010a4:note on:          (0x93,0x30,0x7d).
time:  000010a4:note on:          (0x93,0x29,0x7d).
time:  000010e0:note off:         (0x83,0x35,0x4f).
time:  000010e0:note off:         (0x83,0x30,0x4f).
time:  000010e0:note off:         (0x83,0x29,0x4f).
time:  000010e0:note off:         (0x83,0x35,0x4f).
time:  000010e0:note off:         (0x83,0x30,0x4f).
time:  000010e0:note off:         (0x83,0x29,0x4f).
time:  000010e0:note on:          (0x93,0x35,0x7d).
time:  000010e0:note on:          (0x93,0x30,0x7d).
time:  000010e0:note on:          (0x93,0x29,0x7d).
time:  00001194:note on:          (0x93,0x35,0x7d).
time:  00001194:note on:          (0x93,0x30,0x7d).
time:  00001194:note on:          (0x93,0x29,0x7d).
time:  000011d0:note off:         (0x83,0x35,0x4f).
time:  000011d0:note off:         (0x83,0x30,0x4f).
time:  000011d0:note off:         (0x83,0x29,0x4f).
time:  000011d0:note off:         (0x83,0x35,0x4f).
time:  000011d0:note off:         (0x83,0x30,0x4f).
time:  000011d0:note off:         (0x83,0x29,0x4f).
time:  000011d0:note on:          (0x93,0x35,0x7d).
time:  000011d0:note on:          (0x93,0x30,0x7d).
time:  000011d0:note on:          (0x93,0x29,0x7d).
time:  0000120c:note off:         (0x83,0x35,0x4f).
time:  0000120c:note off:         (0x83,0x30,0x4f).
time:  0000120c:note off:         (0x83,0x29,0x4f).
time:  0000120c:note on:          (0x93,0x35,0x7d).
time:  0000120c:note on:          (0x93,0x30,0x7d).
time:  0000120c:note on:          (0x93,0x29,0x7d).
time:  00001248:note off:         (0x83,0x35,0x4f).
time:  00001248:note off:         (0x83,0x30,0x4f).
time:  00001248:note off:         (0x83,0x29,0x4f).
time:  00001248:note on:          (0x93,0x3a,0x7d).
time:  00001248:note on:          (0x93,0x35,0x7d).
time:  00001248:note on:          (0x93,0x2e,0x7d).
time:  000012c0:note off:         (0x83,0x3a,0x4f).
time:  000012c0:note off:         (0x83,0x35,0x4f).
time:  000012c0:note off:         (0x83,0x2e,0x4f).
time:  000012c0:note on:          (0x93,0x3a,0x7d).
time:  000012c0:note on:          (0x93,0x35,0x7d).
time:  000012c0:note on:          (0x93,0x2e,0x7d).
time:  00001338:note off:         (0x83,0x3a,0x4f).
time:  00001338:note off:         (0x83,0x35,0x4f).
time:  00001338:note off:         (0x83,0x2e,0x4f).
time:  00001338:note on:          (0x93,0x35,0x7d).
time:  00001338:note on:          (0x93,0x30,0x7d).
time:  00001338:note on:          (0x93,0x29,0x7d).
time:  000013b0:note off:         (0x83,0x35,0x4f).
time:  000013b0:note off:         (0x83,0x30,0x4f).
time:  000013b0:note off:         (0x83,0x29,0x4f).
time:  000013b0:note on:          (0x93,0x38,0x7d).
time:  000013b0:note on:          (0x93,0x33,0x7d).
time:  000013b0:note on:          (0x93,0x2c,0x7d).
time:  00001464:note on:          (0x93,0x38,0x7d).
time:  00001464:note on:          (0x93,0x33,0x7d).
time:  00001464:note on:          (0x93,0x2c,0x7d).
time:  000014a0:note off:         (0x83,0x38,0x4f).
time:  000014a0:note off:         (0x83,0x33,0x4f).
time:  000014a0:note off:         (0x83,0x2c,0x4f).
time:  000014a0:note off:         (0x83,0x38,0x4f).
time:  000014a0:note off:         (0x83,0x33,0x4f).
time:  000014a0:note off:         (0x83,0x2c,0x4f).
time:  000014a0:note on:          (0x93,0x38,0x7d).
time:  000014a0:note on:          (0x93,0x33,0x7d).
time:  000014a0:note on:          (0x93,0x2c,0x7d).
time:  00001554:note on:          (0x93,0x38,0x7d).
time:  00001554:note on:          (0x93,0x33,0x7d).
time:  00001554:note on:          (0x93,0x2c,0x7d).
time:  00001590:note off:         (0x83,0x38,0x4f).
time:  00001590:note off:         (0x83,0x33,0x4f).
time:  00001590:note off:         (0x83,0x2c,0x4f).
time:  00001590:note off:         (0x83,0x38,0x4f).
time:  00001590:note off:         (0x83,0x33,0x4f).
time:  00001590:note off:         (0x83,0x2c,0x4f).
time:  00001590:note on:          (0x93,0x38,0x7d).
time:  00001590:note on:          (0x93,0x33,0x7d).
time:  00001590:note on:          (0x93,0x2c,0x7d).
time:  000015cc:note off:         (0x83,0x38,0x4f).
time:  000015cc:note off:         (0x83,0x33,0x4f).
time:  000015cc:note off:         (0x83,0x2c,0x4f).
time:  000015cc:note on:          (0x93,0x38,0x7d).
time:  000015cc:note on:          (0x93,0x33,0x7d).
time:  000015cc:note on:          (0x93,0x2c,0x7d).
time:  00001608:note off:         (0x83,0x38,0x4f).
time:  00001608:note off:         (0x83,0x33,0x4f).
time:  00001608:note off:         (0x83,0x2c,0x4f).
time:  00001608:note on:          (0x93,0x3d,0x7d).
time:  00001608:note on:          (0x93,0x38,0x7d).
time:  00001608:note on:          (0x93,0x31,0x7d).
time:  00001680:note off:         (0x83,0x3d,0x4f).
time:  00001680:note off:         (0x83,0x38,0x4f).
time:  00001680:note off:         (0x83,0x31,0x4f).
time:  00001680:note on:          (0x93,0x3d,0x7d).
time:  00001680:note on:          (0x93,0x38,0x7d).
time:  00001680:note on:          (0x93,0x31,0x7d).
time:  000016f8:note off:         (0x83,0x3d,0x4f).
time:  000016f8:note off:         (0x83,0x38,0x4f).
time:  000016f8:note off:         (0x83,0x31,0x4f).
time:  000016f8:note on:          (0x93,0x38,0x7d).
time:  000016f8:note on:          (0x93,0x33,0x7d).
time:  000016f8:note on:          (0x93,0x2c,0x7d).
time:  00001770:note off:         (0x83,0x38,0x4f).
time:  00001770:note off:         (0x83,0x33,0x4f).
time:  00001770:note off:         (0x83,0x2c,0x4f).
time:  00001770:note on:          (0x93,0x35,0x7d).
time:  00001770:note on:          (0x93,0x30,0x7d).
time:  00001770:note on:          (0x93,0x29,0x7d).
time:  00001824:note on:          (0x93,0x35,0x7d).
time:  00001824:note on:          (0x93,0x30,0x7d).
time:  00001824:note on:          (0x93,0x29,0x7d).
time:  00001860:note off:         (0x83,0x35,0x4f).
time:  00001860:note off:         (0x83,0x30,0x4f).
time:  00001860:note off:         (0x83,0x29,0x4f).
time:  00001860:note off:         (0x83,0x35,0x4f).
time:  00001860:note off:         (0x83,0x30,0x4f).
time:  00001860:note off:         (0x83,0x29,0x4f).
time:  00001860:note on:          (0x93,0x35,0x7d).
time:  00001860:note on:          (0x93,0x30,0x7d).
time:  00001860:note on:          (0x93,0x29,0x7d).
time:  00001914:note on:          (0x93,0x35,0x7d).
time:  00001914:note on:          (0x93,0x30,0x7d).
time:  00001914:note on:          (0x93,0x29,0x7d).
time:  00001950:note off:         (0x83,0x35,0x4f).
time:  00001950:note off:         (0x83,0x30,0x4f).
time:  00001950:note off:         (0x83,0x29,0x4f).
time:  00001950:note off:         (0x83,0x35,0x4f).
time:  00001950:note off:         (0x83,0x30,0x4f).
time:  00001950:note off:         (0x83,0x29,0x4f).
time:  00001950:note on:          (0x93,0x35,0x7d).
time:  00001950:note on:          (0x93,0x30,0x7d).
time:  00001950:note on:          (0x93,0x29,0x7d).
time:  0000198c:note off:         (0x83,0x35,0x4f).
time:  0000198c:note off:         (0x83,0x30,0x4f).
time:  0000198c:note off:         (0x83,0x29,0x4f).
time:  0000198c:note on:          (0x93,0x35,0x7d).
time:  0000198c:note on:          (0x93,0x30,0x7d).
time:  0000198c:note on:          (0x93,0x29,0x7d).
time:  000019c8:note off:         (0x83,0x35,0x4f).
time:  000019c8:note off:         (0x83,0x30,0x4f).
time:  000019c8:note off:         (0x83,0x29,0x4f).
time:  000019c8:note on:          (0x93,0x3a,0x7d).
time:  000019c8:note on:          (0x93,0x35,0x7d).
time:  000019c8:note on:          (0x93,0x2e,0x7d).
time:  00001a40:note off:         (0x83,0x3a,0x4f).
time:  00001a40:note off:         (0x83,0x35,0x4f).
time:  00001a40:note off:         (0x83,0x2e,0x4f).
time:  00001a40:note on:          (0x93,0x3a,0x7d).
time:  00001a40:note on:          (0x93,0x35,0x7d).
time:  00001a40:note on:          (0x93,0x2e,0x7d).
time:  00001ab8:note off:         (0x83,0x3a,0x4f).
time:  00001ab8:note off:         (0x83,0x35,0x4f).
time:  00001ab8:note off:         (0x83,0x2e,0x4f).
time:  00001ab8:note on:          (0x93,0x35,0x7d).
time:  00001ab8:note on:          (0x93,0x30,0x7d).
time:  00001ab8:note on:          (0x93,0x29,0x7d).
time:  00001b30:note off:         (0x83,0x35,0x4f).
time:  00001b30:note off:         (0x83,0x30,0x4f).
time:  00001b30:note off:         (0x83,0x29,0x4f).
time:  00001b30:note on:          (0x93,0x38,0x7d).
time:  00001b30:note on:          (0x93,0x33,0x7d).
time:  00001b30:note on:          (0x93,0x2c,0x7d).
time:  00001be4:note on:          (0x93,0x38,0x7d).
time:  00001be4:note on:          (0x93,0x33,0x7d).
time:  00001be4:note on:          (0x93,0x2c,0x7d).
time:  00001c20:note off:         (0x83,0x38,0x4f).
time:  00001c20:note off:         (0x83,0x33,0x4f).
time:  00001c20:note off:         (0x83,0x2c,0x4f).
time:  00001c20:note off:         (0x83,0x38,0x4f).
time:  00001c20:note off:         (0x83,0x33,0x4f).
time:  00001c20:note off:         (0x83,0x2c,0x4f).
time:  00001c20:note on:          (0x93,0x38,0x7d).
time:  00001c20:note on:          (0x93,0x33,0x7d).
time:  00001c20:note on:          (0x93,0x2c,0x7d).
time:  00001cd4:note on:          (0x93,0x38,0x7d).
time:  00001cd4:note on:          (0x93,0x33,0x7d).
time:  00001cd4:note on:          (0x93,0x2c,0x7d).
time:  00001d10:note off:         (0x83,0x38,0x4f).
time:  00001d10:note off:         (0x83,0x33,0x4f).
time:  00001d10:note off:         (0x83,0x2c,0x4f).
time:  00001d10:note off:         (0x83,0x38,0x4f).
time:  00001d10:note off:         (0x83,0x33,0x4f).
time:  00001d10:note off:         (0x83,0x2c,0x4f).
time:  00001d10:note on:          (0x93,0x38,0x7d).
time:  00001d10:note on:          (0x93,0x33,0x7d).
time:  00001d10:note on:          (0x93,0x2c,0x7d).
time:  00001d4c:note off:         (0x83,0x38,0x4f).
time:  00001d4c:note off:         (0x83,0x33,0x4f).
time:  00001d4c:note off:         (0x83,0x2c,0x4f).
time:  00001d4c:note on:          (0x93,0x38,0x7d).
time:  00001d4c:note on:          (0x93,0x33,0x7d).
time:  00001d4c:note on:          (0x93,0x2c,0x7d).
time:  00001d88:note off:         (0x83,0x38,0x4f).
time:  00001d88:note off:         (0x83,0x33,0x4f).
time:  00001d88:note off:         (0x83,0x2c,0x4f).
time:  00001d88:note on:          (0x93,0x3d,0x7d).
time:  00001d88:note on:          (0x93,0x38,0x7d).
time:  00001d88:note on:          (0x93,0x31,0x7d).
time:  00001e00:note off:         (0x83,0x3d,0x4f).
time:  00001e00:note off:         (0x83,0x38,0x4f).
time:  00001e00:note off:         (0x83,0x31,0x4f).
time:  00001e00:note on:          (0x93,0x3d,0x7d).
time:  00001e00:note on:          (0x93,0x38,0x7d).
time:  00001e00:note on:          (0x93,0x31,0x7d).
time:  00001e78:note off:         (0x83,0x3d,0x4f).
time:  00001e78:note off:         (0x83,0x38,0x4f).
time:  00001e78:note off:         (0x83,0x31,0x4f).
time:  00001e78:note on:          (0x93,0x38,0x7d).
time:  00001e78:note on:          (0x93,0x33,0x7d).
time:  00001e78:note on:          (0x93,0x2c,0x7d).
time:  00001ef0:note off:         (0x83,0x38,0x4f).
time:  00001ef0:note off:         (0x83,0x33,0x4f).
time:  00001ef0:note off:         (0x83,0x2c,0x4f).
time:  00001ef0:note on:          (0x93,0x35,0x7d).
time:  00001ef0:note on:          (0x93,0x30,0x7d).
time:  00001ef0:note on:          (0x93,0x29,0x7d).
time:  00001fa4:note on:          (0x93,0x35,0x7d).
time:  00001fa4:note on:          (0x93,0x30,0x7d).
time:  00001fa4:note on:          (0x93,0x29,0x7d).
time:  00001fe0:note off:         (0x83,0x35,0x4f).
time:  00001fe0:note off:         (0x83,0x30,0x4f).
time:  00001fe0:note off:         (0x83,0x29,0x4f).
time:  00001fe0:note off:         (0x83,0x35,0x4f).
time:  00001fe0:note off:         (0x83,0x30,0x4f).
time:  00001fe0:note off:         (0x83,0x29,0x4f).
time:  00001fe0:note on:          (0x93,0x35,0x7d).
time:  00001fe0:note on:          (0x93,0x30,0x7d).
time:  00001fe0:note on:          (0x93,0x29,0x7d).
time:  00002094:note on:          (0x93,0x35,0x7d).
time:  00002094:note on:          (0x93,0x30,0x7d).
time:  00002094:note on:          (0x93,0x29,0x7d).
time:  000020d0:note off:         (0x83,0x35,0x4f).
time:  000020d0:note off:         (0x83,0x30,0x4f).
time:  000020d0:note off:         (0x83,0x29,0x4f).
time:  000020d0:note off:         (0x83,0x35,0x4f).
time:  000020d0:note off:         (0x83,0x30,0x4f).
time:  000020d0:note off:         (0x83,0x29,0x4f).
time:  000020d0:note on:          (0x93,0x35,0x7d).
time:  000020d0:note on:          (0x93,0x30,0x7d).
time:  000020d0:note on:          (0x93,0x29,0x7d).
time:  0000210c:note off:         (0x83,0x35,0x4f).
time:  0000210c:note off:         (0x83,0x30,0x4f).
time:  0000210c:note off:         (0x83,0x29,0x4f).
time:  0000210c:note on:          (0x93,0x35,0x7d).
time:  0000210c:note on:          (0x93,0x30,0x7d).
time:  0000210c:note on:          (0x93,0x29,0x7d).
time:  00002148:note off:         (0x83,0x35,0x4f).
time:  00002148:note off:         (0x83,0x30,0x4f).
time:  00002148:note off:         (0x83,0x29,0x4f).
time:  00002148:note on:          (0x93,0x3a,0x7d).
time:  00002148:note on:          (0x93,0x35,0x7d).
time:  00002148:note on:          (0x93,0x2e,0x7d).
time:  000021c0:note off:         (0x83,0x3a,0x4f).
time:  000021c0:note off:         (0x83,0x35,0x4f).
time:  000021c0:note off:         (0x83,0x2e,0x4f).
time:  000021c0:note on:          (0x93,0x3a,0x7d).
time:  000021c0:note on:          (0x93,0x35,0x7d).
time:  000021c0:note on:          (0x93,0x2e,0x7d).
time:  00002238:note off:         (0x83,0x3a,0x4f).
time:  00002238:note off:         (0x83,0x35,0x4f).
time:  00002238:note off:         (0x83,0x2e,0x4f).
time:  00002238:note on:          (0x93,0x35,0x7d).
time:  00002238:note on:          (0x93,0x30,0x7d).
time:  00002238:note on:          (0x93,0x29,0x7d).
time:  000022b0:note off:         (0x83,0x35,0x4f).
time:  000022b0:note off:         (0x83,0x30,0x4f).
time:  000022b0:note off:         (0x83,0x29,0x4f).
time:  000022b0:note on:          (0x93,0x38,0x7d).
time:  000022b0:note on:          (0x93,0x33,0x7d).
time:  000022b0:note on:          (0x93,0x2c,0x7d).
time:  00002364:note on:          (0x93,0x38,0x7d).
time:  00002364:note on:          (0x93,0x33,0x7d).
time:  00002364:note on:          (0x93,0x2c,0x7d).
time:  000023a0:note off:         (0x83,0x38,0x4f).
time:  000023a0:note off:         (0x83,0x33,0x4f).
time:  000023a0:note off:         (0x83,0x2c,0x4f).
time:  000023a0:note off:         (0x83,0x38,0x4f).
time:  000023a0:note off:         (0x83,0x33,0x4f).
time:  000023a0:note off:         (0x83,0x2c,0x4f).
time:  000023a0:note on:          (0x93,0x38,0x7d).
time:  000023a0:note on:          (0x93,0x33,0x7d).
time:  000023a0:note on:          (0x93,0x2c,0x7d).
time:  00002454:note on:          (0x93,0x38,0x7d).
time:  00002454:note on:          (0x93,0x33,0x7d).
time:  00002454:note on:          (0x93,0x2c,0x7d).
time:  00002490:note off:         (0x83,0x38,0x4f).
time:  00002490:note off:         (0x83,0x33,0x4f).
time:  00002490:note off:         (0x83,0x2c,0x4f).
time:  00002490:note off:         (0x83,0x38,0x4f).
time:  00002490:note off:         (0x83,0x33,0x4f).
time:  00002490:note off:         (0x83,0x2c,0x4f).
time:  00002490:note on:          (0x93,0x38,0x7d).
time:  00002490:note on:          (0x93,0x33,0x7d).
time:  00002490:note on:          (0x93,0x2c,0x7d).
time:  000024cc:note off:         (0x83,0x38,0x4f).
time:  000024cc:note off:         (0x83,0x33,0x4f).
time:  000024cc:note off:         (0x83,0x2c,0x4f).
time:  000024cc:note on:          (0x93,0x38,0x7d).
time:  000024cc:note on:          (0x93,0x33,0x7d).
time:  000024cc:note on:          (0x93,0x2c,0x7d).
time:  00002508:note off:         (0x83,0x38,0x4f).
time:  00002508:note off:         (0x83,0x33,0x4f).
time:  00002508:note off:         (0x83,0x2c,0x4f).
time:  00002508:note on:          (0x93,0x3d,0x7d).
time:  00002508:note on:          (0x93,0x38,0x7d).
time:  00002508:note on:          (0x93,0x31,0x7d).
time:  00002580:note off:         (0x83,0x3d,0x4f).
time:  00002580:note off:         (0x83,0x38,0x4f).
time:  00002580:note off:         (0x83,0x31,0x4f).
time:  00002580:note on:          (0x93,0x3d,0x7d).
time:  00002580:note on:          (0x93,0x38,0x7d).
time:  00002580:note on:          (0x93,0x31,0x7d).
time:  000025f8:note off:         (0x83,0x3d,0x4f).
time:  000025f8:note off:         (0x83,0x38,0x4f).
time:  000025f8:note off:         (0x83,0x31,0x4f).
time:  000025f8:note on:          (0x93,0x38,0x7d).
time:  000025f8:note on:          (0x93,0x33,0x7d).
time:  000025f8:note on:          (0x93,0x2c,0x7d).
time:  00002670:note off:         (0x83,0x38,0x4f).
time:  00002670:note off:         (0x83,0x33,0x4f).
time:  00002670:note off:         (0x83,0x2c,0x4f).
time:  00002670:note on:          (0x93,0x35,0x7d).
time:  00002670:note on:          (0x93,0x30,0x7d).
time:  00002670:note on:          (0x93,0x29,0x7d).
time:  00002724:note on:          (0x93,0x35,0x7d).
time:  00002724:note on:          (0x93,0x30,0x7d).
time:  00002724:note on:          (0x93,0x29,0x7d).
time:  00002760:note off:         (0x83,0x35,0x4f).
time:  00002760:note off:         (0x83,0x30,0x4f).
time:  00002760:note off:         (0x83,0x29,0x4f).
time:  00002760:note off:         (0x83,0x35,0x4f).
time:  00002760:note off:         (0x83,0x30,0x4f).
time:  00002760:note off:         (0x83,0x29,0x4f).
time:  00002760:note on:          (0x93,0x35,0x7d).
time:  00002760:note on:          (0x93,0x30,0x7d).
time:  00002760:note on:          (0x93,0x29,0x7d).
time:  00002814:note on:          (0x93,0x35,0x7d).
time:  00002814:note on:          (0x93,0x30,0x7d).
time:  00002814:note on:          (0x93,0x29,0x7d).
time:  00002850:note off:         (0x83,0x35,0x4f).
time:  00002850:note off:         (0x83,0x30,0x4f).
time:  00002850:note off:         (0x83,0x29,0x4f).
time:  00002850:note off:         (0x83,0x35,0x4f).
time:  00002850:note off:         (0x83,0x30,0x4f).
time:  00002850:note off:         (0x83,0x29,0x4f).
time:  00002850:note on:          (0x93,0x35,0x7d).
time:  00002850:note on:          (0x93,0x30,0x7d).
time:  00002850:note on:          (0x93,0x29,0x7d).
time:  0000288c:note off:         (0x83,0x35,0x4f).
time:  0000288c:note off:         (0x83,0x30,0x4f).
time:  0000288c:note off:         (0x83,0x29,0x4f).
time:  0000288c:note on:          (0x93,0x35,0x7d).
time:  0000288c:note on:          (0x93,0x30,0x7d).
time:  0000288c:note on:          (0x93,0x29,0x7d).
time:  000028c8:note off:         (0x83,0x35,0x4f).
time:  000028c8:note off:         (0x83,0x30,0x4f).
time:  000028c8:note off:         (0x83,0x29,0x4f).
time:  000028c8:note on:          (0x93,0x3a,0x7d).
time:  000028c8:note on:          (0x93,0x35,0x7d).
time:  000028c8:note on:          (0x93,0x2e,0x7d).
time:  00002940:note off:         (0x83,0x3a,0x4f).
time:  00002940:note off:         (0x83,0x35,0x4f).
time:  00002940:note off:         (0x83,0x2e,0x4f).
time:  00002940:note on:          (0x93,0x3a,0x7d).
time:  00002940:note on:          (0x93,0x35,0x7d).
time:  00002940:note on:          (0x93,0x2e,0x7d).
time:  000029b8:note off:         (0x83,0x3a,0x4f).
time:  000029b8:note off:         (0x83,0x35,0x4f).
time:  000029b8:note off:         (0x83,0x2e,0x4f).
time:  000029b8:note on:          (0x93,0x35,0x7d).
time:  000029b8:note on:          (0x93,0x30,0x7d).
time:  000029b8:note on:          (0x93,0x29,0x7d).
time:  00002a30:note off:         (0x83,0x35,0x4f).
time:  00002a30:note off:         (0x83,0x30,0x4f).
time:  00002a30:note off:         (0x83,0x29,0x4f).
time:  00002a30:note on:          (0x93,0x38,0x7d).
time:  00002a30:note on:          (0x93,0x33,0x7d).
time:  00002a30:note on:          (0x93,0x2c,0x7d).
time:  00002ae4:note on:          (0x93,0x38,0x7d).
time:  00002ae4:note on:          (0x93,0x33,0x7d).
time:  00002ae4:note on:          (0x93,0x2c,0x7d).
time:  00002b20:note off:         (0x83,0x38,0x4f).
time:  00002b20:note off:         (0x83,0x33,0x4f).
time:  00002b20:note off:         (0x83,0x2c,0x4f).
time:  00002b20:note off:         (0x83,0x38,0x4f).
time:  00002b20:note off:         (0x83,0x33,0x4f).
time:  00002b20:note off:         (0x83,0x2c,0x4f).
time:  00002b20:note on:          (0x93,0x38,0x7d).
time:  00002b20:note on:          (0x93,0x33,0x7d).
time:  00002b20:note on:          (0x93,0x2c,0x7d).
time:  00002bd4:note on:          (0x93,0x38,0x7d).
time:  00002bd4:note on:          (0x93,0x33,0x7d).
time:  00002bd4:note on:          (0x93,0x2c,0x7d).
time:  00002c10:note off:         (0x83,0x38,0x4f).
time:  00002c10:note off:         (0x83,0x33,0x4f).
time:  00002c10:note off:         (0x83,0x2c,0x4f).
time:  00002c10:note off:         (0x83,0x38,0x4f).
time:  00002c10:note off:         (0x83,0x33,0x4f).
time:  00002c10:note off:         (0x83,0x2c,0x4f).
time:  00002c10:note on:          (0x93,0x38,0x7d).
time:  00002c10:note on:          (0x93,0x33,0x7d).
time:  00002c10:note on:          (0x93,0x2c,0x7d).
time:  00002c4c:note off:         (0x83,0x38,0x4f).
time:  00002c4c:note off:         (0x83,0x33,0x4f).
time:  00002c4c:note off:         (0x83,0x2c,0x4f).
time:  00002c4c:note on:          (0x93,0x38,0x7d).
time:  00002c4c:note on:          (0x93,0x33,0x7d).
time:  00002c4c:note on:          (0x93,0x2c,0x7d).
time:  00002c88:note off:         (0x83,0x38,0x4f).
time:  00002c88:note off:         (0x83,0x33,0x4f).
time:  00002c88:note off:         (0x83,0x2c,0x4f).
time:  00002c88:note on:          (0x93,0x3d,0x7d).
time:  00002c88:note on:          (0x93,0x38,0x7d).
time:  00002c88:note on:          (0x93,0x31,0x7d).
time:  00002d00:note off:         (0x83,0x3d,0x4f).
time:  00002d00:note off:         (0x83,0x38,0x4f).
time:  00002d00:note off:         (0x83,0x31,0x4f).
time:  00002d00:note on:          (0x93,0x3d,0x7d).
time:  00002d00:note on:          (0x93,0x38,0x7d).
time:  00002d00:note on:          (0x93,0x31,0x7d).
time:  00002d3c:note off:         (0x83,0x3d,0x4f).
time:  00002d3c:note off:         (0x83,0x38,0x4f).
time:  00002d3c:note off:         (0x83,0x31,0x4f).
time:  00002d3c:note on:          (0x93,0x3d,0x7d).
time:  00002d3c:note on:          (0x93,0x38,0x7d).
time:  00002d3c:note on:          (0x93,0x31,0x7d).
time:  00002db4:note off:         (0x83,0x3d,0x4f).
time:  00002db4:note off:         (0x83,0x38,0x4f).
time:  00002db4:note off:         (0x83,0x31,0x4f).
time:  00005af0:note on:          (0x93,0x3c,0x7f).
time:  00005af0:controller:       (0xb3,0x01,0x3c).
time:  00005be0:note off:         (0x83,0x3c,0x5a).
time:  00005be0:note on:          (0x93,0x41,0x7f).
time:  00005cd0:note off:         (0x83,0x41,0x5a).
time:  00005cd0:note on:          (0x93,0x3c,0x7f).
time:  00005dc0:note off:         (0x83,0x3c,0x5a).
time:  00005dc0:note on:          (0x93,0x41,0x7f).
time:  00005eb0:note off:         (0x83,0x41,0x5a).
time:  00005eb0:note on:          (0x93,0x3c,0x7f).
time:  00005fa0:note off:         (0x83,0x3c,0x5a).
time:  00005fa0:note on:          (0x93,0x41,0x7f).
time:  00006090:note off:         (0x83,0x41,0x5a).
time:  00006090:note on:          (0x93,0x3c,0x7f).
time:  00006180:note off:         (0x83,0x3c,0x5a).
time:  00006180:note on:          (0x93,0x41,0x7f).
time:  00006270:note off:         (0x83,0x41,0x5a).
time:  00006270:note on:          (0x93,0x3c,0x7f).
time:  00006360:note off:         (0x83,0x3c,0x5a).
time:  00006360:note on:          (0x93,0x41,0x7f).
time:  00006450:note off:         (0x83,0x41,0x5a).
time:  00006450:note on:          (0x93,0x3c,0x7f).
time:  00006540:note off:         (0x83,0x3c,0x5a).
time:  00006540:note on:          (0x93,0x41,0x7f).
time:  00006630:note off:         (0x83,0x41,0x5a).
time:  00006630:note on:          (0x93,0x3c,0x7f).
time:  00006720:note off:         (0x83,0x3c,0x5a).
time:  00006720:note on:          (0x93,0x41,0x7f).
time:  00006810:note off:         (0x83,0x41,0x5a).
time:  00006810:note on:          (0x93,0x3c,0x7f).
time:  00006900:note off:         (0x83,0x3c,0x5a).
time:  00006900:note on:          (0x93,0x41,0x7f).
time:  000069f0:note off:         (0x83,0x41,0x5a).
time:  000069f0:note on:          (0x93,0x3c,0x7f).
time:  00006ae0:note off:         (0x83,0x3c,0x5a).
time:  00006ae0:note on:          (0x93,0x41,0x7f).
time:  00006bd0:note off:         (0x83,0x41,0x5a).
time:  00006bd0:note on:          (0x93,0x3c,0x7f).
time:  00006cc0:note off:         (0x83,0x3c,0x5a).
time:  00006cc0:note on:          (0x93,0x41,0x7f).
time:  00006db0:note off:         (0x83,0x41,0x5a).
time:  00006db0:note on:          (0x93,0x3c,0x7f).
time:  00006ea0:note off:         (0x83,0x3c,0x5a).
time:  00006ea0:note on:          (0x93,0x41,0x7f).
time:  00006f90:note off:         (0x83,0x41,0x5a).
time:  00006f90:note on:          (0x93,0x3c,0x7f).
time:  00007080:note off:         (0x83,0x3c,0x5a).
time:  00007080:note on:          (0x93,0x41,0x7f).
time:  00007170:note off:         (0x83,0x41,0x5a).
time:  00007170:note on:          (0x93,0x3c,0x7f).
time:  00007260:note off:         (0x83,0x3c,0x5a).
time:  00007260:note on:          (0x93,0x41,0x7f).
time:  00007350:note off:         (0x83,0x41,0x5a).
time:  00007350:note on:          (0x93,0x3c,0x7f).
time:  00007440:note off:         (0x83,0x3c,0x5a).
time:  00007440:note on:          (0x93,0x41,0x7f).
time:  00007530:note off:         (0x83,0x41,0x5a).
time:  00007530:note on:          (0x93,0x3c,0x7f).
time:  00007620:note off:         (0x83,0x3c,0x5a).
time:  00007620:note on:          (0x93,0x41,0x7f).
time:  00007710:note off:         (0x83,0x41,0x5a).
time:  00007710:note on:          (0x93,0x3c,0x7f).
time:  00007800:note off:         (0x83,0x3c,0x5a).
time:  00007800:pitch wheel:      (0xe3,0x00,0x40).
time:  00007800:note on:          (0x93,0x21,0x7d).
time:  00007800:note on:          (0x93,0x28,0x7d).
time:  00007800:note on:          (0x93,0x2d,0x7d).
time:  00007800:controller:       (0xb3,0x01,0x00).
time:  00007839:pitch wheel:      (0xe3,0x7f,0x4f).
time:  00007875:pitch wheel:      (0xe3,0x7e,0x5f).
time:  000078b1:pitch wheel:      (0xe3,0x7d,0x6f).
time:  000078ed:pitch wheel:      (0xe3,0x00,0x40).
time:  000078ed:controller:       (0xb3,0x40,0x00).
time:  000078ed:controller:       (0xb3,0x01,0x00).
time:  000078f0:note off:         (0x83,0x21,0x4f).
time:  000078f0:note off:         (0x83,0x28,0x4f).
time:  000078f0:note off:         (0x83,0x2d,0x4f).
time:  000078f0:note on:          (0x93,0x35,0x7d).
time:  000078f0:note on:          (0x93,0x30,0x7d).
time:  000078f0:note on:          (0x93,0x29,0x7d).
time:  000079a4:note on:          (0x93,0x35,0x7d).
time:  000079a4:note on:          (0x93,0x30,0x7d).
time:  000079a4:note on:          (0x93,0x29,0x7d).
time:  000079e0:note off:         (0x83,0x35,0x4f).
time:  000079e0:note off:         (0x83,0x30,0x4f).
time:  000079e0:note off:         (0x83,0x29,0x4f).
time:  000079e0:note off:         (0x83,0x35,0x4f).
time:  000079e0:note off:         (0x83,0x30,0x4f).
time:  000079e0:note off:         (0x83,0x29,0x4f).
time:  000079e0:note on:          (0x93,0x35,0x7d).
time:  000079e0:note on:          (0x93,0x30,0x7d).
time:  000079e0:note on:          (0x93,0x29,0x7d).
time:  00007a94:note on:          (0x93,0x35,0x7d).
time:  00007a94:note on:          (0x93,0x30,0x7d).
time:  00007a94:note on:          (0x93,0x29,0x7d).
time:  00007ad0:note off:         (0x83,0x35,0x4f).
time:  00007ad0:note off:         (0x83,0x30,0x4f).
time:  00007ad0:note off:         (0x83,0x29,0x4f).
time:  00007ad0:note off:         (0x83,0x35,0x4f).
time:  00007ad0:note off:         (0x83,0x30,0x4f).
time:  00007ad0:note off:         (0x83,0x29,0x4f).
time:  00007ad0:note on:          (0x93,0x35,0x7d).
time:  00007ad0:note on:          (0x93,0x30,0x7d).
time:  00007ad0:note on:          (0x93,0x29,0x7d).
time:  00007b0c:note off:         (0x83,0x35,0x4f).
time:  00007b0c:note off:         (0x83,0x30,0x4f).
time:  00007b0c:note off:         (0x83,0x29,0x4f).
time:  00007b0c:note on:          (0x93,0x35,0x7d).
time:  00007b0c:note on:          (0x93,0x30,0x7d).
time:  00007b0c:note on:          (0x93,0x29,0x7d).
time:  00007b48:note off:         (0x83,0x35,0x4f).
time:  00007b48:note off:         (0x83,0x30,0x4f).
time:  00007b48:note off:         (0x83,0x29,0x4f).
time:  00007b48:note on:          (0x93,0x3a,0x7d).
time:  00007b48:note on:          (0x93,0x35,0x7d).
time:  00007b48:note on:          (0x93,0x2e,0x7d).
time:  00007bc0:note off:         (0x83,0x3a,0x4f).
time:  00007bc0:note off:         (0x83,0x35,0x4f).
time:  00007bc0:note off:         (0x83,0x2e,0x4f).
time:  00007bc0:note on:          (0x93,0x3a,0x7d).
time:  00007bc0:note on:          (0x93,0x35,0x7d).
time:  00007bc0:note on:          (0x93,0x2e,0x7d).
time:  00007c38:note off:         (0x83,0x3a,0x4f).
time:  00007c38:note off:         (0x83,0x35,0x4f).
time:  00007c38:note off:         (0x83,0x2e,0x4f).
time:  00007c38:note on:          (0x93,0x35,0x7d).
time:  00007c38:note on:          (0x93,0x30,0x7d).
time:  00007c38:note on:          (0x93,0x29,0x7d).
time:  00007cb0:note off:         (0x83,0x35,0x4f).
time:  00007cb0:note off:         (0x83,0x30,0x4f).
time:  00007cb0:note off:         (0x83,0x29,0x4f).
time:  00007cb0:note on:          (0x93,0x38,0x7d).
time:  00007cb0:note on:          (0x93,0x33,0x7d).
time:  00007cb0:note on:          (0x93,0x2c,0x7d).
time:  00007d64:note on:          (0x93,0x38,0x7d).
time:  00007d64:note on:          (0x93,0x33,0x7d).
time:  00007d64:note on:          (0x93,0x2c,0x7d).
time:  00007da0:note off:         (0x83,0x38,0x4f).
time:  00007da0:note off:         (0x83,0x33,0x4f).
time:  00007da0:note off:         (0x83,0x2c,0x4f).
time:  00007da0:note off:         (0x83,0x38,0x4f).
time:  00007da0:note off:         (0x83,0x33,0x4f).
time:  00007da0:note off:         (0x83,0x2c,0x4f).
time:  00007da0:note on:          (0x93,0x38,0x7d).
time:  00007da0:note on:          (0x93,0x33,0x7d).
time:  00007da0:note on:          (0x93,0x2c,0x7d).
time:  00007e54:note on:          (0x93,0x38,0x7d).
time:  00007e54:note on:          (0x93,0x33,0x7d).
time:  00007e54:note on:          (0x93,0x2c,0x7d).
time:  00007e90:note off:         (0x83,0x38,0x4f).
time:  00007e90:note off:         (0x83,0x33,0x4f).
time:  00007e90:note off:         (0x83,0x2c,0x4f).
time:  00007e90:note off:         (0x83,0x38,0x4f).
time:  00007e90:note off:         (0x83,0x33,0x4f).
time:  00007e90:note off:         (0x83,0x2c,0x4f).
time:  00007e90:note on:          (0x93,0x38,0x7d).
time:  00007e90:note on:          (0x93,0x33,0x7d).
time:  00007e90:note on:          (0x93,0x2c,0x7d).
time:  00007ecc:note off:         (0x83,0x38,0x4f).
time:  00007ecc:note off:         (0x83,0x33,0x4f).
time:  00007ecc:note off:         (0x83,0x2c,0x4f).
time:  00007ecc:note on:          (0x93,0x38,0x7d).
time:  00007ecc:note on:          (0x93,0x33,0x7d).
time:  00007ecc:note on:          (0x93,0x2c,0x7d).
time:  00007f08:note off:         (0x83,0x38,0x4f).
time:  00007f08:note off:         (0x83,0x33,0x4f).
time:  00007f08:note off:         (0x83,0x2c,0x4f).
time:  00007f08:note on:          (0x93,0x3d,0x7d).
time:  00007f08:note on:          (0x93,0x38,0x7d).
time:  00007f08:note on:          (0x93,0x31,0x7d).
time:  00007f80:note off:         (0x83,0x3d,0x4f).
time:  00007f80:note off:         (0x83,0x38,0x4f).
time:  00007f80:note off:         (0x83,0x31,0x4f).
time:  00007f80:note on:          (0x93,0x3d,0x7d).
time:  00007f80:note on:          (0x93,0x38,0x7d).
time:  00007f80:note on:          (0x93,0x31,0x7d).
time:  00007ff8:note off:         (0x83,0x3d,0x4f).
time:  00007ff8:note off:         (0x83,0x38,0x4f).
time:  00007ff8:note off:         (0x83,0x31,0x4f).
time:  00007ff8:note on:          (0x93,0x38,0x7d).
time:  00007ff8:note on:          (0x93,0x33,0x7d).
time:  00007ff8:note on:          (0x93,0x2c,0x7d).
time:  00008070:note off:         (0x83,0x38,0x4f).
time:  00008070:note off:         (0x83,0x33,0x4f).
time:  00008070:note off:         (0x83,0x2c,0x4f).
time:  00008070:note on:          (0x93,0x35,0x7d).
time:  00008070:note on:          (0x93,0x30,0x7d).
time:  00008070:note on:          (0x93,0x29,0x7d).
time:  00008124:note on:          (0x93,0x35,0x7d).
time:  00008124:note on:          (0x93,0x30,0x7d).
time:  00008124:note on:          (0x93,0x29,0x7d).
time:  00008160:note off:         (0x83,0x35,0x4f).
time:  00008160:note off:         (0x83,0x30,0x4f).
time:  00008160:note off:         (0x83,0x29,0x4f).
time:  00008160:note off:         (0x83,0x35,0x4f).
time:  00008160:note off:         (0x83,0x30,0x4f).
time:  00008160:note off:         (0x83,0x29,0x4f).
time:  00008160:note on:          (0x93,0x35,0x7d).
time:  00008160:note on:          (0x93,0x30,0x7d).
time:  00008160:note on:          (0x93,0x29,0x7d).
time:  00008214:note on:          (0x93,0x35,0x7d).
time:  00008214:note on:          (0x93,0x30,0x7d).
time:  00008214:note on:          (0x93,0x29,0x7d).
time:  00008250:note off:         (0x83,0x35,0x4f).
time:  00008250:note off:         (0x83,0x30,0x4f).
time:  00008250:note off:         (0x83,0x29,0x4f).
time:  00008250:note off:         (0x83,0x35,0x4f).
time:  00008250:note off:         (0x83,0x30,0x4f).
time:  00008250:note off:         (0x83,0x29,0x4f).
time:  00008250:note on:          (0x93,0x35,0x7d).
time:  00008250:note on:          (0x93,0x30,0x7d).
time:  00008250:note on:          (0x93,0x29,0x7d).
time:  0000828c:note off:         (0x83,0x35,0x4f).
time:  0000828c:note off:         (0x83,0x30,0x4f).
time:  0000828c:note off:         (0x83,0x29,0x4f).
time:  0000828c:note on:          (0x93,0x35,0x7d).
time:  0000828c:note on:          (0x93,0x30,0x7d).
time:  0000828c:note on:          (0x93,0x29,0x7d).
time:  000082c8:note off:         (0x83,0x35,0x4f).
time:  000082c8:note off:         (0x83,0x30,0x4f).
time:  000082c8:note off:         (0x83,0x29,0x4f).
time:  000082c8:note on:          (0x93,0x3a,0x7d).
time:  000082c8:note on:          (0x93,0x35,0x7d).
time:  000082c8:note on:          (0x93,0x2e,0x7d).
time:  00008340:note off:         (0x83,0x3a,0x4f).
time:  00008340:note off:         (0x83,0x35,0x4f).
time:  00008340:note off:         (0x83,0x2e,0x4f).
time:  00008340:note on:          (0x93,0x3a,0x7d).
time:  00008340:note on:          (0x93,0x35,0x7d).
time:  00008340:note on:          (0x93,0x2e,0x7d).
time:  000083b8:note off:         (0x83,0x3a,0x4f).
time:  000083b8:note off:         (0x83,0x35,0x4f).
time:  000083b8:note off:         (0x83,0x2e,0x4f).
time:  000083b8:note on:          (0x93,0x35,0x7d).
time:  000083b8:note on:          (0x93,0x30,0x7d).
time:  000083b8:note on:          (0x93,0x29,0x7d).
time:  00008430:note off:         (0x83,0x35,0x4f).
time:  00008430:note off:         (0x83,0x30,0x4f).
time:  00008430:note off:         (0x83,0x29,0x4f).
time:  00008430:note on:          (0x93,0x38,0x7d).
time:  00008430:note on:          (0x93,0x33,0x7d).
time:  00008430:note on:          (0x93,0x2c,0x7d).
time:  000084e4:note on:          (0x93,0x38,0x7d).
time:  000084e4:note on:          (0x93,0x33,0x7d).
time:  000084e4:note on:          (0x93,0x2c,0x7d).
time:  00008520:note off:         (0x83,0x38,0x4f).
time:  00008520:note off:         (0x83,0x33,0x4f).
time:  00008520:note off:         (0x83,0x2c,0x4f).
time:  00008520:note off:         (0x83,0x38,0x4f).
time:  00008520:note off:         (0x83,0x33,0x4f).
time:  00008520:note off:         (0x83,0x2c,0x4f).
time:  00008520:note on:          (0x93,0x38,0x7d).
time:  00008520:note on:          (0x93,0x33,0x7d).
time:  00008520:note on:          (0x93,0x2c,0x7d).
time:  000085d4:note on:          (0x93,0x38,0x7d).
time:  000085d4:note on:          (0x93,0x33,0x7d).
time:  000085d4:note on:          (0x93,0x2c,0x7d).
time:  00008610:note off:         (0x83,0x38,0x4f).
time:  00008610:note off:         (0x83,0x33,0x4f).
time:  00008610:note off:         (0x83,0x2c,0x4f).
time:  00008610:note off:         (0x83,0x38,0x4f).
time:  00008610:note off:         (0x83,0x33,0x4f).
time:  00008610:note off:         (0x83,0x2c,0x4f).
time:  00008610:note on:          (0x93,0x38,0x7d).
time:  00008610:note on:          (0x93,0x33,0x7d).
time:  00008610:note on:          (0x93,0x2c,0x7d).
time:  0000864c:note off:         (0x83,0x38,0x4f).
time:  0000864c:note off:         (0x83,0x33,0x4f).
time:  0000864c:note off:         (0x83,0x2c,0x4f).
time:  0000864c:note on:          (0x93,0x38,0x7d).
time:  0000864c:note on:          (0x93,0x33,0x7d).
time:  0000864c:note on:          (0x93,0x2c,0x7d).
time:  00008688:note off:         (0x83,0x38,0x4f).
time:  00008688:note off:         (0x83,0x33,0x4f).
time:  00008688:note off:         (0x83,0x2c,0x4f).
time:  00008688:note on:          (0x93,0x3d,0x7d).
time:  00008688:note on:          (0x93,0x38,0x7d).
time:  00008688:note on:          (0x93,0x31,0x7d).
time:  00008700:note off:         (0x83,0x3d,0x4f).
time:  00008700:note off:         (0x83,0x38,0x4f).
time:  00008700:note off:         (0x83,0x31,0x4f).
time:  00008700:note on:          (0x93,0x3d,0x7d).
time:  00008700:note on:          (0x93,0x38,0x7d).
time:  00008700:note on:          (0x93,0x31,0x7d).
time:  00008778:note off:         (0x83,0x3d,0x4f).
time:  00008778:note off:         (0x83,0x38,0x4f).
time:  00008778:note off:         (0x83,0x31,0x4f).
time:  00008778:note on:          (0x93,0x38,0x7d).
time:  00008778:note on:          (0x93,0x33,0x7d).
time:  00008778:note on:          (0x93,0x2c,0x7d).
time:  000087f0:note off:         (0x83,0x38,0x4f).
time:  000087f0:note off:         (0x83,0x33,0x4f).
time:  000087f0:note off:         (0x83,0x2c,0x4f).
time:  000087f0:note on:          (0x93,0x35,0x7d).
time:  000087f0:note on:          (0x93,0x30,0x7d).
time:  000087f0:note on:          (0x93,0x29,0x7d).
time:  000088a4:note on:          (0x93,0x35,0x7d).
time:  000088a4:note on:          (0x93,0x30,0x7d).
time:  000088a4:note on:          (0x93,0x29,0x7d).
time:  000088e0:note off:         (0x83,0x35,0x4f).
time:  000088e0:note off:         (0x83,0x30,0x4f).
time:  000088e0:note off:         (0x83,0x29,0x4f).
time:  000088e0:note off:         (0x83,0x35,0x4f).
time:  000088e0:note off:         (0x83,0x30,0x4f).
time:  000088e0:note off:         (0x83,0x29,0x4f).
time:  000088e0:note on:          (0x93,0x35,0x7d).
time:  000088e0:note on:          (0x93,0x30,0x7d).
time:  000088e0:note on:          (0x93,0x29,0x7d).
time:  00008994:note on:          (0x93,0x35,0x7d).
time:  00008994:note on:          (0x93,0x30,0x7d).
time:  00008994:note on:          (0x93,0x29,0x7d).
time:  000089d0:note off:         (0x83,0x35,0x4f).
time:  000089d0:note off:         (0x83,0x30,0x4f).
time:  000089d0:note off:         (0x83,0x29,0x4f).
time:  000089d0:note off:         (0x83,0x35,0x4f).
time:  000089d0:note off:         (0x83,0x30,0x4f).
time:  000089d0:note off:         (0x83,0x29,0x4f).
time:  000089d0:note on:          (0x93,0x35,0x7d).
time:  000089d0:note on:          (0x93,0x30,0x7d).
time:  000089d0:note on:          (0x93,0x29,0x7d).
time:  00008a0c:note off:         (0x83,0x35,0x4f).
time:  00008a0c:note off:         (0x83,0x30,0x4f).
time:  00008a0c:note off:         (0x83,0x29,0x4f).
time:  00008a0c:note on:          (0x93,0x35,0x7d).
time:  00008a0c:note on:          (0x93,0x30,0x7d).
time:  00008a0c:note on:          (0x93,0x29,0x7d).
time:  00008a48:note off:         (0x83,0x35,0x4f).
time:  00008a48:note off:         (0x83,0x30,0x4f).
time:  00008a48:note off:         (0x83,0x29,0x4f).
time:  00008a48:note on:          (0x93,0x3a,0x7d).
time:  00008a48:note on:          (0x93,0x35,0x7d).
time:  00008a48:note on:          (0x93,0x2e,0x7d).
time:  00008ac0:note off:         (0x83,0x3a,0x4f).
time:  00008ac0:note off:         (0x83,0x35,0x4f).
time:  00008ac0:note off:         (0x83,0x2e,0x4f).
time:  00008ac0:note on:          (0x93,0x3a,0x7d).
time:  00008ac0:note on:          (0x93,0x35,0x7d).
time:  00008ac0:note on:          (0x93,0x2e,0x7d).
time:  00008b38:note off:         (0x83,0x3a,0x4f).
time:  00008b38:note off:         (0x83,0x35,0x4f).
time:  00008b38:note off:         (0x83,0x2e,0x4f).
time:  00008b38:note on:          (0x93,0x35,0x7d).
time:  00008b38:note on:          (0x93,0x30,0x7d).
time:  00008b38:note on:          (0x93,0x29,0x7d).
time:  00008bb0:note off:         (0x83,0x35,0x4f).
time:  00008bb0:note off:         (0x83,0x30,0x4f).
time:  00008bb0:note off:         (0x83,0x29,0x4f).
time:  00008bb0:note on:          (0x93,0x38,0x7d).
time:  00008bb0:note on:          (0x93,0x33,0x7d).
time:  00008bb0:note on:          (0x93,0x2c,0x7d).
time:  00008c64:note on:          (0x93,0x38,0x7d).
time:  00008c64:note on:          (0x93,0x33,0x7d).
time:  00008c64:note on:          (0x93,0x2c,0x7d).
time:  00008ca0:note off:         (0x83,0x38,0x4f).
time:  00008ca0:note off:         (0x83,0x33,0x4f).
time:  00008ca0:note off:         (0x83,0x2c,0x4f).
time:  00008ca0:note off:         (0x83,0x38,0x4f).
time:  00008ca0:note off:         (0x83,0x33,0x4f).
time:  00008ca0:note off:         (0x83,0x2c,0x4f).
time:  00008ca0:note on:          (0x93,0x38,0x7d).
time:  00008ca0:note on:          (0x93,0x33,0x7d).
time:  00008ca0:note on:          (0x93,0x2c,0x7d).
time:  00008d54:note on:          (0x93,0x38,0x7d).
time:  00008d54:note on:          (0x93,0x33,0x7d).
time:  00008d54:note on:          (0x93,0x2c,0x7d).
time:  00008d90:note off:         (0x83,0x38,0x4f).
time:  00008d90:note off:         (0x83,0x33,0x4f).
time:  00008d90:note off:         (0x83,0x2c,0x4f).
time:  00008d90:note off:         (0x83,0x38,0x4f).
time:  00008d90:note off:         (0x83,0x33,0x4f).
time:  00008d90:note off:         (0x83,0x2c,0x4f).
time:  00008d90:note on:          (0x93,0x38,0x7d).
time:  00008d90:note on:          (0x93,0x33,0x7d).
time:  00008d90:note on:          (0x93,0x2c,0x7d).
time:  00008dcc:note off:         (0x83,0x38,0x4f).
time:  00008dcc:note off:         (0x83,0x33,0x4f).
time:  00008dcc:note off:         (0x83,0x2c,0x4f).
time:  00008dcc:note on:          (0x93,0x38,0x7d).
time:  00008dcc:note on:          (0x93,0x33,0x7d).
time:  00008dcc:note on:          (0x93,0x2c,0x7d).
time:  00008e08:note off:         (0x83,0x38,0x4f).
time:  00008e08:note off:         (0x83,0x33,0x4f).
time:  00008e08:note off:         (0x83,0x2c,0x4f).
time:  00008e08:note on:          (0x93,0x3d,0x7d).
time:  00008e08:note on:          (0x93,0x38,0x7d).
time:  00008e08:note on:          (0x93,0x31,0x7d).
time:  00008e80:note off:         (0x83,0x3d,0x4f).
time:  00008e80:note off:         (0x83,0x38,0x4f).
time:  00008e80:note off:         (0x83,0x31,0x4f).
time:  00008e80:note on:          (0x93,0x3d,0x7d).
time:  00008e80:note on:          (0x93,0x38,0x7d).
time:  00008e80:note on:          (0x93,0x31,0x7d).
time:  00008ef8:note off:         (0x83,0x3d,0x4f).
time:  00008ef8:note off:         (0x83,0x38,0x4f).
time:  00008ef8:note off:         (0x83,0x31,0x4f).
time:  00008ef8:note on:          (0x93,0x38,0x7d).
time:  00008ef8:note on:          (0x93,0x33,0x7d).
time:  00008ef8:note on:          (0x93,0x2c,0x7d).
time:  00008f70:note off:         (0x83,0x38,0x4f).
time:  00008f70:note off:         (0x83,0x33,0x4f).
time:  00008f70:note off:         (0x83,0x2c,0x4f).
time:  00008f70:note on:          (0x93,0x35,0x7d).
time:  00008f70:note on:          (0x93,0x30,0x7d).
time:  00008f70:note on:          (0x93,0x29,0x7d).
time:  00009024:note on:          (0x93,0x35,0x7d).
time:  00009024:note on:          (0x93,0x30,0x7d).
time:  00009024:note on:          (0x93,0x29,0x7d).
time:  00009060:note off:         (0x83,0x35,0x4f).
time:  00009060:note off:         (0x83,0x30,0x4f).
time:  00009060:note off:         (0x83,0x29,0x4f).
time:  00009060:note off:         (0x83,0x35,0x4f).
time:  00009060:note off:         (0x83,0x30,0x4f).
time:  00009060:note off:         (0x83,0x29,0x4f).
time:  00009060:note on:          (0x93,0x35,0x7d).
time:  00009060:note on:          (0x93,0x30,0x7d).
time:  00009060:note on:          (0x93,0x29,0x7d).
time:  00009114:note on:          (0x93,0x35,0x7d).
time:  00009114:note on:          (0x93,0x30,0x7d).
time:  00009114:note on:          (0x93,0x29,0x7d).
time:  00009150:note off:         (0x83,0x35,0x4f).
time:  00009150:note off:         (0x83,0x30,0x4f).
time:  00009150:note off:         (0x83,0x29,0x4f).
time:  00009150:note off:         (0x83,0x35,0x4f).
time:  00009150:note off:         (0x83,0x30,0x4f).
time:  00009150:note off:         (0x83,0x29,0x4f).
time:  00009150:note on:          (0x93,0x35,0x7d).
time:  00009150:note on:          (0x93,0x30,0x7d).
time:  00009150:note on:          (0x93,0x29,0x7d).
time:  0000918c:note off:         (0x83,0x35,0x4f).
time:  0000918c:note off:         (0x83,0x30,0x4f).
time:  0000918c:note off:         (0x83,0x29,0x4f).
time:  0000918c:note on:          (0x93,0x35,0x7d).
time:  0000918c:note on:          (0x93,0x30,0x7d).
time:  0000918c:note on:          (0x93,0x29,0x7d).
time:  000091c8:note off:         (0x83,0x35,0x4f).
time:  000091c8:note off:         (0x83,0x30,0x4f).
time:  000091c8:note off:         (0x83,0x29,0x4f).
time:  000091c8:note on:          (0x93,0x3a,0x7d).
time:  000091c8:note on:          (0x93,0x35,0x7d).
time:  000091c8:note on:          (0x93,0x2e,0x7d).
time:  00009240:note off:         (0x83,0x3a,0x4f).
time:  00009240:note off:         (0x83,0x35,0x4f).
time:  00009240:note off:         (0x83,0x2e,0x4f).
time:  00009240:note on:          (0x93,0x3a,0x7d).
time:  00009240:note on:          (0x93,0x35,0x7d).
time:  00009240:note on:          (0x93,0x2e,0x7d).
time:  000092b8:note off:         (0x83,0x3a,0x4f).
time:  000092b8:note off:         (0x83,0x35,0x4f).
time:  000092b8:note off:         (0x83,0x2e,0x4f).
time:  000092b8:note on:          (0x93,0x35,0x7d).
time:  000092b8:note on:          (0x93,0x30,0x7d).
time:  000092b8:note on:          (0x93,0x29,0x7d).
time:  00009330:note off:         (0x83,0x35,0x4f).
time:  00009330:note off:         (0x83,0x30,0x4f).
time:  00009330:note off:         (0x83,0x29,0x4f).
time:  00009330:note on:          (0x93,0x38,0x7d).
time:  00009330:note on:          (0x93,0x33,0x7d).
time:  00009330:note on:          (0x93,0x2c,0x7d).
time:  000093e4:note on:          (0x93,0x38,0x7d).
time:  000093e4:note on:          (0x93,0x33,0x7d).
time:  000093e4:note on:          (0x93,0x2c,0x7d).
time:  00009420:note off:         (0x83,0x38,0x4f).
time:  00009420:note off:         (0x83,0x33,0x4f).
time:  00009420:note off:         (0x83,0x2c,0x4f).
time:  00009420:note off:         (0x83,0x38,0x4f).
time:  00009420:note off:         (0x83,0x33,0x4f).
time:  00009420:note off:         (0x83,0x2c,0x4f).
time:  00009420:note on:          (0x93,0x38,0x7d).
time:  00009420:note on:          (0x93,0x33,0x7d).
time:  00009420:note on:          (0x93,0x2c,0x7d).
time:  000094d4:note on:          (0x93,0x38,0x7d).
time:  000094d4:note on:          (0x93,0x33,0x7d).
time:  000094d4:note on:          (0x93,0x2c,0x7d).
time:  00009510:note off:         (0x83,0x38,0x4f).
time:  00009510:note off:         (0x83,0x33,0x4f).
time:  00009510:note off:         (0x83,0x2c,0x4f).
time:  00009510:note off:         (0x83,0x38,0x4f).
time:  00009510:note off:         (0x83,0x33,0x4f).
time:  00009510:note off:         (0x83,0x2c,0x4f).
time:  00009510:note on:          (0x93,0x38,0x7d).
time:  00009510:note on:          (0x93,0x33,0x7d).
time:  00009510:note on:          (0x93,0x2c,0x7d).
time:  0000954c:note off:         (0x83,0x38,0x4f).
time:  0000954c:note off:         (0x83,0x33,0x4f).
time:  0000954c:note off:         (0x83,0x2c,0x4f).
time:  0000954c:note on:          (0x93,0x38,0x7d).
time:  0000954c:note on:          (0x93,0x33,0x7d).
time:  0000954c:note on:          (0x93,0x2c,0x7d).
time:  00009588:note off:         (0x83,0x38,0x4f).
time:  00009588:note off:         (0x83,0x33,0x4f).
time:  00009588:note off:         (0x83,0x2c,0x4f).
time:  00009588:note on:          (0x93,0x3d,0x7d).
time:  00009588:note on:          (0x93,0x38,0x7d).
time:  00009588:note on:          (0x93,0x31,0x7d).
time:  00009600:note off:         (0x83,0x3d,0x4f).
time:  00009600:note off:         (0x83,0x38,0x4f).
time:  00009600:note off:         (0x83,0x31,0x4f).
time:  00009600:note on:          (0x93,0x3d,0x7d).
time:  00009600:note on:          (0x93,0x38,0x7d).
time:  00009600:note on:          (0x93,0x31,0x7d).
time:  00009678:note off:         (0x83,0x3d,0x4f).
time:  00009678:note off:         (0x83,0x38,0x4f).
time:  00009678:note off:         (0x83,0x31,0x4f).
time:  00009678:note on:          (0x93,0x3d,0x7d).
time:  00009678:note on:          (0x93,0x31,0x7d).
time:  00009678:note on:          (0x93,0x38,0x7d).
time:  000096f0:note off:         (0x83,0x3d,0x4f).
time:  000096f0:note off:         (0x83,0x31,0x4f).
time:  000096f0:note off:         (0x83,0x38,0x4f).
time:  000096f0:note on:          (0x93,0x29,0x7d).
time:  000096f0:note on:          (0x93,0x30,0x7d).
time:  000096f0:note on:          (0x93,0x35,0x7d).
time:  000097e0:note off:         (0x83,0x29,0x4f).
time:  000097e0:note off:         (0x83,0x30,0x4f).
time:  000097e0:note off:         (0x83,0x35,0x4f).
time:  000097e0:note on:          (0x93,0x28,0x7d).
time:  000097e0:note on:          (0x93,0x2f,0x7d).
time:  000097e0:note on:          (0x93,0x34,0x7d).
time:  00009858:note off:         (0x83,0x28,0x4f).
time:  00009858:note off:         (0x83,0x2f,0x4f).
time:  00009858:note off:         (0x83,0x34,0x4f).
time:  00009858:note on:          (0x93,0x35,0x7d).
time:  00009858:note on:          (0x93,0x30,0x7d).
time:  00009858:note on:          (0x93,0x29,0x7d).
time:  000098d0:note off:         (0x83,0x35,0x4f).
time:  000098d0:note off:         (0x83,0x30,0x4f).
time:  000098d0:note off:         (0x83,0x29,0x4f).
time:  000098d0:note on:          (0x93,0x36,0x7d).
time:  000098d0:note on:          (0x93,0x31,0x7d).
time:  000098d0:note on:          (0x93,0x2a,0x7d).
time:  00009948:note off:         (0x83,0x36,0x4f).
time:  00009948:note off:         (0x83,0x31,0x4f).
time:  00009948:note off:         (0x83,0x2a,0x4f).
time:  00009948:note on:          (0x93,0x36,0x7d).
time:  00009948:note on:          (0x93,0x31,0x7d).
time:  00009948:note on:          (0x93,0x2a,0x7d).
time:  000099c0:note off:         (0x83,0x36,0x4f).
time:  000099c0:note off:         (0x83,0x31,0x4f).
time:  000099c0:note off:         (0x83,0x2a,0x4f).
time:  000099c0:note on:          (0x93,0x36,0x7f).
time:  000099f9:pitch wheel:      (0xe3,0x78,0x55).
time:  000099f9:controller:       (0xb3,0x01,0x41).
time:  00009a35:pitch wheel:      (0xe3,0x48,0x65).
time:  00009aad:pitch wheel:      (0xe3,0x00,0x40).
time:  00009aad:controller:       (0xb3,0x01,0x00).
time:  00009ab0:note off:         (0x83,0x36,0x4b).
time:  00009ab0:note on:          (0x93,0x29,0x7d).
time:  00009ab0:note on:          (0x93,0x30,0x7d).
time:  00009ab0:note on:          (0x93,0x35,0x7d).
time:  00009ba0:note off:         (0x83,0x29,0x4f).
time:  00009ba0:note off:         (0x83,0x30,0x4f).
time:  00009ba0:note off:         (0x83,0x35,0x4f).
time:  00009ba0:note on:          (0x93,0x28,0x7d).
time:  00009ba0:note on:          (0x93,0x2f,0x7d).
time:  00009ba0:note on:          (0x93,0x34,0x7d).
time:  00009c18:note off:         (0x83,0x28,0x4f).
time:  00009c18:note off:         (0x83,0x2f,0x4f).
time:  00009c18:note off:         (0x83,0x34,0x4f).
time:  00009c18:note on:          (0x93,0x35,0x7d).
time:  00009c18:note on:          (0x93,0x30,0x7d).
time:  00009c18:note on:          (0x93,0x29,0x7d).
time:  00009c90:note off:         (0x83,0x35,0x4f).
time:  00009c90:note off:         (0x83,0x30,0x4f).
time:  00009c90:note off:         (0x83,0x29,0x4f).
time:  00009c90:note on:          (0x93,0x3a,0x7d).
time:  00009c90:note on:          (0x93,0x35,0x7d).
time:  00009c90:note on:          (0x93,0x2e,0x7d).
time:  00009d80:note off:         (0x83,0x3a,0x4f).
time:  00009d80:note off:         (0x83,0x35,0x4f).
time:  00009d80:note off:         (0x83,0x2e,0x4f).
time:  00009d80:note on:          (0x93,0x38,0x7d).
time:  00009d80:note on:          (0x93,0x33,0x7d).
time:  00009d80:note on:          (0x93,0x2c,0x7d).
time:  00009e70:note off:         (0x83,0x38,0x4f).
time:  00009e70:note off:         (0x83,0x33,0x4f).
time:  00009e70:note off:         (0x83,0x2c,0x4f).
time:  00009e70:note on:          (0x93,0x29,0x7d).
time:  00009e70:note on:          (0x93,0x30,0x7d).
time:  00009e70:note on:          (0x93,0x35,0x7d).
time:  00009f60:note off:         (0x83,0x29,0x4f).
time:  00009f60:note off:         (0x83,0x30,0x4f).
time:  00009f60:note off:         (0x83,0x35,0x4f).
time:  00009f60:note on:          (0x93,0x28,0x7d).
time:  00009f60:note on:          (0x93,0x2f,0x7d).
time:  00009f60:note on:          (0x93,0x34,0x7d).
time:  00009fd8:note off:         (0x83,0x28,0x4f).
time:  00009fd8:note off:         (0x83,0x2f,0x4f).
time:  00009fd8:note off:         (0x83,0x34,0x4f).
time:  00009fd8:note on:          (0x93,0x35,0x7d).
time:  00009fd8:note on:          (0x93,0x30,0x7d).
time:  00009fd8:note on:          (0x93,0x29,0x7d).
time:  0000a050:note off:         (0x83,0x35,0x4f).
time:  0000a050:note off:         (0x83,0x30,0x4f).
time:  0000a050:note off:         (0x83,0x29,0x4f).
time:  0000a050:note on:          (0x93,0x36,0x7d).
time:  0000a050:note on:          (0x93,0x31,0x7d).
time:  0000a050:note on:          (0x93,0x2a,0x7d).
time:  0000a0c8:note off:         (0x83,0x36,0x4f).
time:  0000a0c8:note off:         (0x83,0x31,0x4f).
time:  0000a0c8:note off:         (0x83,0x2a,0x4f).
time:  0000a0c8:note on:          (0x93,0x36,0x7d).
time:  0000a0c8:note on:          (0x93,0x31,0x7d).
time:  0000a0c8:note on:          (0x93,0x2a,0x7d).
time:  0000a140:note off:         (0x83,0x36,0x4f).
time:  0000a140:note off:         (0x83,0x31,0x4f).
time:  0000a140:note off:         (0x83,0x2a,0x4f).
time:  0000a140:note on:          (0x93,0x36,0x7f).
time:  0000a179:pitch wheel:      (0xe3,0x78,0x55).
time:  0000a179:controller:       (0xb3,0x01,0x41).
time:  0000a1b5:pitch wheel:      (0xe3,0x48,0x65).
time:  0000a22d:pitch wheel:      (0xe3,0x00,0x40).
time:  0000a22d:controller:       (0xb3,0x01,0x00).
time:  0000a230:note off:         (0x83,0x36,0x4b).
time:  0000a230:note on:          (0x93,0x29,0x7d).
time:  0000a230:note on:          (0x93,0x30,0x7d).
time:  0000a230:note on:          (0x93,0x35,0x7d).
time:  0000a320:note off:         (0x83,0x29,0x4f).
time:  0000a320:note off:         (0x83,0x30,0x4f).
time:  0000a320:note off:         (0x83,0x35,0x4f).
time:  0000a320:note on:          (0x93,0x28,0x7d).
time:  0000a320:note on:          (0x93,0x2f,0x7d).
time:  0000a320:note on:          (0x93,0x34,0x7d).
time:  0000a398:note off:         (0x83,0x28,0x4f).
time:  0000a398:note off:         (0x83,0x2f,0x4f).
time:  0000a398:note off:         (0x83,0x34,0x4f).
time:  0000a398:note on:          (0x93,0x35,0x7d).
time:  0000a398:note on:          (0x93,0x30,0x7d).
time:  0000a398:note on:          (0x93,0x29,0x7d).
time:  0000a410:note off:         (0x83,0x35,0x4f).
time:  0000a410:note off:         (0x83,0x30,0x4f).
time:  0000a410:note off:         (0x83,0x29,0x4f).
time:  0000a410:note on:          (0x93,0x3a,0x7d).
time:  0000a410:note on:          (0x93,0x35,0x7d).
time:  0000a410:note on:          (0x93,0x2e,0x7d).
time:  0000a500:note off:         (0x83,0x3a,0x4f).
time:  0000a500:note off:         (0x83,0x35,0x4f).
time:  0000a500:note off:         (0x83,0x2e,0x4f).
time:  0000a500:note on:          (0x93,0x38,0x7d).
time:  0000a500:note on:          (0x93,0x33,0x7d).
time:  0000a500:note on:          (0x93,0x2c,0x7d).
time:  0000a5f0:note off:         (0x83,0x38,0x4f).
time:  0000a5f0:note off:         (0x83,0x33,0x4f).
time:  0000a5f0:note off:         (0x83,0x2c,0x4f).
time:  0000d2f0:note on:          (0x93,0x3c,0x7f).
time:  0000d2f0:controller:       (0xb3,0x01,0x3c).
time:  0000d3e0:note off:         (0x83,0x3c,0x5a).
time:  0000d3e0:note on:          (0x93,0x41,0x7f).
time:  0000d4d0:note off:         (0x83,0x41,0x5a).
time:  0000d4d0:note on:          (0x93,0x3c,0x7f).
time:  0000d5c0:note off:         (0x83,0x3c,0x5a).
time:  0000d5c0:note on:          (0x93,0x41,0x7f).
time:  0000d6b0:note off:         (0x83,0x41,0x5a).
time:  0000d6b0:note on:          (0x93,0x3c,0x7f).
time:  0000d7a0:note off:         (0x83,0x3c,0x5a).
time:  0000d7a0:note on:          (0x93,0x41,0x7f).
time:  0000d890:note off:         (0x83,0x41,0x5a).
time:  0000d890:note on:          (0x93,0x3c,0x7f).
time:  0000d980:note off:         (0x83,0x3c,0x5a).
time:  0000d980:note on:          (0x93,0x41,0x7f).
time:  0000da70:note off:         (0x83,0x41,0x5a).
time:  0000da70:note on:          (0x93,0x3c,0x7f).
time:  0000db60:note off:         (0x83,0x3c,0x5a).
time:  0000db60:note on:          (0x93,0x41,0x7f).
time:  0000dc50:note off:         (0x83,0x41,0x5a).
time:  0000dc50:note on:          (0x93,0x3c,0x7f).
time:  0000dd40:note off:         (0x83,0x3c,0x5a).
time:  0000dd40:note on:          (0x93,0x41,0x7f).
time:  0000de30:note off:         (0x83,0x41,0x5a).
time:  0000de30:note on:          (0x93,0x3c,0x7f).
time:  0000df20:note off:         (0x83,0x3c,0x5a).
time:  0000df20:note on:          (0x93,0x41,0x7f).
time:  0000e010:note off:         (0x83,0x41,0x5a).
time:  0000e010:note on:          (0x93,0x3c,0x7f).
time:  0000e100:note off:         (0x83,0x3c,0x5a).
time:  0000e100:note on:          (0x93,0x41,0x7f).
time:  0000e1f0:note off:         (0x83,0x41,0x5a).
time:  0000e1f0:note on:          (0x93,0x3c,0x7f).
time:  0000e2e0:note off:         (0x83,0x3c,0x5a).
time:  0000e2e0:note on:          (0x93,0x41,0x7f).
time:  0000e3d0:note off:         (0x83,0x41,0x5a).
time:  0000e3d0:note on:          (0x93,0x3c,0x7f).
time:  0000e4c0:note off:         (0x83,0x3c,0x5a).
time:  0000e4c0:note on:          (0x93,0x41,0x7f).
time:  0000e5b0:note off:         (0x83,0x41,0x5a).
time:  0000e5b0:note on:          (0x93,0x3c,0x7f).
time:  0000e6a0:note off:         (0x83,0x3c,0x5a).
time:  0000e6a0:note on:          (0x93,0x41,0x7f).
time:  0000e790:note off:         (0x83,0x41,0x5a).
time:  0000e790:note on:          (0x93,0x3c,0x7f).
time:  0000e880:note off:         (0x83,0x3c,0x5a).
time:  0000e880:note on:          (0x93,0x41,0x7f).
time:  0000e970:note off:         (0x83,0x41,0x5a).
time:  0000e970:note on:          (0x93,0x3c,0x7f).
time:  0000ea60:note off:         (0x83,0x3c,0x5a).
time:  0000ea60:note on:          (0x93,0x41,0x7f).
time:  0000eb50:note off:         (0x83,0x41,0x5a).
time:  0000eb50:note on:          (0x93,0x3c,0x7f).
time:  0000ec40:note off:         (0x83,0x3c,0x5a).
time:  0000ec40:note on:          (0x93,0x41,0x7f).
time:  0000ed30:note off:         (0x83,0x41,0x5a).
time:  0000ed30:note on:          (0x93,0x3c,0x7f).
time:  0000ee20:note off:         (0x83,0x3c,0x5a).
time:  0000ee20:note on:          (0x93,0x41,0x7f).
time:  0000ef10:note off:         (0x83,0x41,0x5a).
time:  0000ef10:note on:          (0x93,0x3c,0x7f).
time:  0000f000:note off:         (0x83,0x3c,0x5a).
time:  0000f000:pitch wheel:      (0xe3,0x00,0x40).
time:  0000f000:note on:          (0x93,0x1f,0x7d).
time:  0000f000:note on:          (0x93,0x26,0x7d).
time:  0000f000:note on:          (0x93,0x2b,0x7d).
time:  0000f000:pitch wheel:      (0xe3,0x00,0x40).
time:  0000f000:controller:       (0xb3,0x01,0x00).
time:  0000f039:pitch wheel:      (0xe3,0x7f,0x4f).
time:  0000f075:pitch wheel:      (0xe3,0x7e,0x5f).
time:  0000f0b1:pitch wheel:      (0xe3,0x7d,0x6f).
time:  0000f0ed:pitch wheel:      (0xe3,0x00,0x40).
time:  0000f0ed:pitch wheel:      (0xe3,0x00,0x40).
time:  0000f0ed:controller:       (0xb3,0x40,0x00).
time:  0000f0ed:controller:       (0xb3,0x01,0x00).
time:  0000f0f0:note off:         (0x83,0x1f,0x4f).
time:  0000f0f0:note off:         (0x83,0x26,0x4f).
time:  0000f0f0:note off:         (0x83,0x2b,0x4f).
time:  0000f0f0:note on:          (0x93,0x35,0x7d).
time:  0000f0f0:note on:          (0x93,0x30,0x7d).
time:  0000f0f0:note on:          (0x93,0x29,0x7d).
time:  0000f1a4:note on:          (0x93,0x35,0x7d).
time:  0000f1a4:note on:          (0x93,0x30,0x7d).
time:  0000f1a4:note on:          (0x93,0x29,0x7d).
time:  0000f1e0:note off:         (0x83,0x35,0x4f).
time:  0000f1e0:note off:         (0x83,0x30,0x4f).
time:  0000f1e0:note off:         (0x83,0x29,0x4f).
time:  0000f1e0:note off:         (0x83,0x35,0x4f).
time:  0000f1e0:note off:         (0x83,0x30,0x4f).
time:  0000f1e0:note off:         (0x83,0x29,0x4f).
time:  0000f1e0:note on:          (0x93,0x35,0x7d).
time:  0000f1e0:note on:          (0x93,0x30,0x7d).
time:  0000f1e0:note on:          (0x93,0x29,0x7d).
time:  0000f294:note on:          (0x93,0x35,0x7d).
time:  0000f294:note on:          (0x93,0x30,0x7d).
time:  0000f294:note on:          (0x93,0x29,0x7d).
time:  0000f2d0:note off:         (0x83,0x35,0x4f).
time:  0000f2d0:note off:         (0x83,0x30,0x4f).
time:  0000f2d0:note off:         (0x83,0x29,0x4f).
time:  0000f2d0:note off:         (0x83,0x35,0x4f).
time:  0000f2d0:note off:         (0x83,0x30,0x4f).
time:  0000f2d0:note off:         (0x83,0x29,0x4f).
time:  0000f2d0:note on:          (0x93,0x35,0x7d).
time:  0000f2d0:note on:          (0x93,0x30,0x7d).
time:  0000f2d0:note on:          (0x93,0x29,0x7d).
time:  0000f30c:note off:         (0x83,0x35,0x4f).
time:  0000f30c:note off:         (0x83,0x30,0x4f).
time:  0000f30c:note off:         (0x83,0x29,0x4f).
time:  0000f30c:note on:          (0x93,0x35,0x7d).
time:  0000f30c:note on:          (0x93,0x30,0x7d).
time:  0000f30c:note on:          (0x93,0x29,0x7d).
time:  0000f348:note off:         (0x83,0x35,0x4f).
time:  0000f348:note off:         (0x83,0x30,0x4f).
time:  0000f348:note off:         (0x83,0x29,0x4f).
time:  0000f348:note on:          (0x93,0x3a,0x7d).
time:  0000f348:note on:          (0x93,0x35,0x7d).
time:  0000f348:note on:          (0x93,0x2e,0x7d).
time:  0000f3c0:note off:         (0x83,0x3a,0x4f).
time:  0000f3c0:note off:         (0x83,0x35,0x4f).
time:  0000f3c0:note off:         (0x83,0x2e,0x4f).
time:  0000f3c0:note on:          (0x93,0x3a,0x7d).
time:  0000f3c0:note on:          (0x93,0x35,0x7d).
time:  0000f3c0:note on:          (0x93,0x2e,0x7d).
time:  0000f438:note off:         (0x83,0x3a,0x4f).
time:  0000f438:note off:         (0x83,0x35,0x4f).
time:  0000f438:note off:         (0x83,0x2e,0x4f).
time:  0000f438:note on:          (0x93,0x35,0x7d).
time:  0000f438:note on:          (0x93,0x30,0x7d).
time:  0000f438:note on:          (0x93,0x29,0x7d).
time:  0000f4b0:note off:         (0x83,0x35,0x4f).
time:  0000f4b0:note off:         (0x83,0x30,0x4f).
time:  0000f4b0:note off:         (0x83,0x29,0x4f).
time:  0000f4b0:note on:          (0x93,0x38,0x7d).
time:  0000f4b0:note on:          (0x93,0x33,0x7d).
time:  0000f4b0:note on:          (0x93,0x2c,0x7d).
time:  0000f564:note on:          (0x93,0x38,0x7d).
time:  0000f564:note on:          (0x93,0x33,0x7d).
time:  0000f564:note on:          (0x93,0x2c,0x7d).
time:  0000f5a0:note off:         (0x83,0x38,0x4f).
time:  0000f5a0:note off:         (0x83,0x33,0x4f).
time:  0000f5a0:note off:         (0x83,0x2c,0x4f).
time:  0000f5a0:note off:         (0x83,0x38,0x4f).
time:  0000f5a0:note off:         (0x83,0x33,0x4f).
time:  0000f5a0:note off:         (0x83,0x2c,0x4f).
time:  0000f5a0:note on:          (0x93,0x38,0x7d).
time:  0000f5a0:note on:          (0x93,0x33,0x7d).
time:  0000f5a0:note on:          (0x93,0x2c,0x7d).
time:  0000f654:note on:          (0x93,0x38,0x7d).
time:  0000f654:note on:          (0x93,0x33,0x7d).
time:  0000f654:note on:          (0x93,0x2c,0x7d).
time:  0000f690:note off:         (0x83,0x38,0x4f).
time:  0000f690:note off:         (0x83,0x33,0x4f).
time:  0000f690:note off:         (0x83,0x2c,0x4f).
time:  0000f690:note off:         (0x83,0x38,0x4f).
time:  0000f690:note off:         (0x83,0x33,0x4f).
time:  0000f690:note off:         (0x83,0x2c,0x4f).
time:  0000f690:note on:          (0x93,0x38,0x7d).
time:  0000f690:note on:          (0x93,0x33,0x7d).
time:  0000f690:note on:          (0x93,0x2c,0x7d).
time:  0000f6cc:note off:         (0x83,0x38,0x4f).
time:  0000f6cc:note off:         (0x83,0x33,0x4f).
time:  0000f6cc:note off:         (0x83,0x2c,0x4f).
time:  0000f6cc:note on:          (0x93,0x38,0x7d).
time:  0000f6cc:note on:          (0x93,0x33,0x7d).
time:  0000f6cc:note on:          (0x93,0x2c,0x7d).
time:  0000f708:note off:         (0x83,0x38,0x4f).
time:  0000f708:note off:         (0x83,0x33,0x4f).
time:  0000f708:note off:         (0x83,0x2c,0x4f).
time:  0000f708:note on:          (0x93,0x3d,0x7d).
time:  0000f708:note on:          (0x93,0x38,0x7d).
time:  0000f708:note on:          (0x93,0x31,0x7d).
time:  0000f780:note off:         (0x83,0x3d,0x4f).
time:  0000f780:note off:         (0x83,0x38,0x4f).
time:  0000f780:note off:         (0x83,0x31,0x4f).
time:  0000f780:note on:          (0x93,0x3d,0x7d).
time:  0000f780:note on:          (0x93,0x38,0x7d).
time:  0000f780:note on:          (0x93,0x31,0x7d).
time:  0000f7f8:note off:         (0x83,0x3d,0x4f).
time:  0000f7f8:note off:         (0x83,0x38,0x4f).
time:  0000f7f8:note off:         (0x83,0x31,0x4f).
time:  0000f7f8:note on:          (0x93,0x38,0x7d).
time:  0000f7f8:note on:          (0x93,0x33,0x7d).
time:  0000f7f8:note on:          (0x93,0x2c,0x7d).
time:  0000f870:note off:         (0x83,0x38,0x4f).
time:  0000f870:note off:         (0x83,0x33,0x4f).
time:  0000f870:note off:         (0x83,0x2c,0x4f).
time:  0000f870:note on:          (0x93,0x35,0x7d).
time:  0000f870:note on:          (0x93,0x30,0x7d).
time:  0000f870:note on:          (0x93,0x29,0x7d).
time:  0000f924:note on:          (0x93,0x35,0x7d).
time:  0000f924:note on:          (0x93,0x30,0x7d).
time:  0000f924:note on:          (0x93,0x29,0x7d).
time:  0000f960:note off:         (0x83,0x35,0x4f).
time:  0000f960:note off:         (0x83,0x30,0x4f).
time:  0000f960:note off:         (0x83,0x29,0x4f).
time:  0000f960:note off:         (0x83,0x35,0x4f).
time:  0000f960:note off:         (0x83,0x30,0x4f).
time:  0000f960:note off:         (0x83,0x29,0x4f).
time:  0000f960:note on:          (0x93,0x35,0x7d).
time:  0000f960:note on:          (0x93,0x30,0x7d).
time:  0000f960:note on:          (0x93,0x29,0x7d).
time:  0000fa14:note on:          (0x93,0x35,0x7d).
time:  0000fa14:note on:          (0x93,0x30,0x7d).
time:  0000fa14:note on:          (0x93,0x29,0x7d).
time:  0000fa50:note off:         (0x83,0x35,0x4f).
time:  0000fa50:note off:         (0x83,0x30,0x4f).
time:  0000fa50:note off:         (0x83,0x29,0x4f).
time:  0000fa50:note off:         (0x83,0x35,0x4f).
time:  0000fa50:note off:         (0x83,0x30,0x4f).
time:  0000fa50:note off:         (0x83,0x29,0x4f).
time:  0000fa50:note on:          (0x93,0x35,0x7d).
time:  0000fa50:note on:          (0x93,0x30,0x7d).
time:  0000fa50:note on:          (0x93,0x29,0x7d).
time:  0000fa8c:note off:         (0x83,0x35,0x4f).
time:  0000fa8c:note off:         (0x83,0x30,0x4f).
time:  0000fa8c:note off:         (0x83,0x29,0x4f).
time:  0000fa8c:note on:          (0x93,0x35,0x7d).
time:  0000fa8c:note on:          (0x93,0x30,0x7d).
time:  0000fa8c:note on:          (0x93,0x29,0x7d).
time:  0000fac8:note off:         (0x83,0x35,0x4f).
time:  0000fac8:note off:         (0x83,0x30,0x4f).
time:  0000fac8:note off:         (0x83,0x29,0x4f).
time:  0000fac8:note on:          (0x93,0x3a,0x7d).
time:  0000fac8:note on:          (0x93,0x35,0x7d).
time:  0000fac8:note on:          (0x93,0x2e,0x7d).
time:  0000fb40:note off:         (0x83,0x3a,0x4f).
time:  0000fb40:note off:         (0x83,0x35,0x4f).
time:  0000fb40:note off:         (0x83,0x2e,0x4f).
time:  0000fb40:note on:          (0x93,0x3a,0x7d).
time:  0000fb40:note on:          (0x93,0x35,0x7d).
time:  0000fb40:note on:          (0x93,0x2e,0x7d).
time:  0000fbb8:note off:         (0x83,0x3a,0x4f).
time:  0000fbb8:note off:         (0x83,0x35,0x4f).
time:  0000fbb8:note off:         (0x83,0x2e,0x4f).
time:  0000fbb8:note on:          (0x93,0x35,0x7d).
time:  0000fbb8:note on:          (0x93,0x30,0x7d).
time:  0000fbb8:note on:          (0x93,0x29,0x7d).
time:  0000fc30:note off:         (0x83,0x35,0x4f).
time:  0000fc30:note off:         (0x83,0x30,0x4f).
time:  0000fc30:note off:         (0x83,0x29,0x4f).
time:  0000fc30:note on:          (0x93,0x38,0x7d).
time:  0000fc30:note on:          (0x93,0x33,0x7d).
time:  0000fc30:note on:          (0x93,0x2c,0x7d).
time:  0000fce4:note on:          (0x93,0x38,0x7d).
time:  0000fce4:note on:          (0x93,0x33,0x7d).
time:  0000fce4:note on:          (0x93,0x2c,0x7d).
time:  0000fd20:note off:         (0x83,0x38,0x4f).
time:  0000fd20:note off:         (0x83,0x33,0x4f).
time:  0000fd20:note off:         (0x83,0x2c,0x4f).
time:  0000fd20:note off:         (0x83,0x38,0x4f).
time:  0000fd20:note off:         (0x83,0x33,0x4f).
time:  0000fd20:note off:         (0x83,0x2c,0x4f).
time:  0000fd20:note on:          (0x93,0x38,0x7d).
time:  0000fd20:note on:          (0x93,0x33,0x7d).
time:  0000fd20:note on:          (0x93,0x2c,0x7d).
time:  0000fdd4:note on:          (0x93,0x38,0x7d).
time:  0000fdd4:note on:          (0x93,0x33,0x7d).
time:  0000fdd4:note on:          (0x93,0x2c,0x7d).
time:  0000fe10:note off:         (0x83,0x38,0x4f).
time:  0000fe10:note off:         (0x83,0x33,0x4f).
time:  0000fe10:note off:         (0x83,0x2c,0x4f).
time:  0000fe10:note off:         (0x83,0x38,0x4f).
time:  0000fe10:note off:         (0x83,0x33,0x4f).
time:  0000fe10:note off:         (0x83,0x2c,0x4f).
time:  0000fe10:note on:          (0x93,0x38,0x7d).
time:  0000fe10:note on:          (0x93,0x33,0x7d).
time:  0000fe10:note on:          (0x93,0x2c,0x7d).
time:  0000fe4c:note off:         (0x83,0x38,0x4f).
time:  0000fe4c:note off:         (0x83,0x33,0x4f).
time:  0000fe4c:note off:         (0x83,0x2c,0x4f).
time:  0000fe4c:note on:          (0x93,0x38,0x7d).
time:  0000fe4c:note on:          (0x93,0x33,0x7d).
time:  0000fe4c:note on:          (0x93,0x2c,0x7d).
time:  0000fe88:note off:         (0x83,0x38,0x4f).
time:  0000fe88:note off:         (0x83,0x33,0x4f).
time:  0000fe88:note off:         (0x83,0x2c,0x4f).
time:  0000fe88:note on:          (0x93,0x3d,0x7d).
time:  0000fe88:note on:          (0x93,0x38,0x7d).
time:  0000fe88:note on:          (0x93,0x31,0x7d).
time:  0000ff00:note off:         (0x83,0x3d,0x4f).
time:  0000ff00:note off:         (0x83,0x38,0x4f).
time:  0000ff00:note off:         (0x83,0x31,0x4f).
time:  0000ff00:note on:          (0x93,0x3d,0x7d).
time:  0000ff00:note on:          (0x93,0x38,0x7d).
time:  0000ff00:note on:          (0x93,0x31,0x7d).
time:  0000ff78:note off:         (0x83,0x3d,0x4f).
time:  0000ff78:note off:         (0x83,0x38,0x4f).
time:  0000ff78:note off:         (0x83,0x31,0x4f).
time:  0000ff78:note on:          (0x93,0x38,0x7d).
time:  0000ff78:note on:          (0x93,0x33,0x7d).
time:  0000ff78:note on:          (0x93,0x2c,0x7d).
time:  0000fff0:note off:         (0x83,0x38,0x4f).
time:  0000fff0:note off:         (0x83,0x33,0x4f).
time:  0000fff0:note off:         (0x83,0x2c,0x4f).
time:  0000fff0:note on:          (0x93,0x35,0x7d).
time:  0000fff0:note on:          (0x93,0x30,0x7d).
time:  0000fff0:note on:          (0x93,0x29,0x7d).
time:  000100a4:note on:          (0x93,0x35,0x7d).
time:  000100a4:note on:          (0x93,0x30,0x7d).
time:  000100a4:note on:          (0x93,0x29,0x7d).
time:  000100e0:note off:         (0x83,0x35,0x4f).
time:  000100e0:note off:         (0x83,0x30,0x4f).
time:  000100e0:note off:         (0x83,0x29,0x4f).
time:  000100e0:note off:         (0x83,0x35,0x4f).
time:  000100e0:note off:         (0x83,0x30,0x4f).
time:  000100e0:note off:         (0x83,0x29,0x4f).
time:  000100e0:note on:          (0x93,0x35,0x7d).
time:  000100e0:note on:          (0x93,0x30,0x7d).
time:  000100e0:note on:          (0x93,0x29,0x7d).
time:  00010194:note on:          (0x93,0x35,0x7d).
time:  00010194:note on:          (0x93,0x30,0x7d).
time:  00010194:note on:          (0x93,0x29,0x7d).
time:  000101d0:note off:         (0x83,0x35,0x4f).
time:  000101d0:note off:         (0x83,0x30,0x4f).
time:  000101d0:note off:         (0x83,0x29,0x4f).
time:  000101d0:note off:         (0x83,0x35,0x4f).
time:  000101d0:note off:         (0x83,0x30,0x4f).
time:  000101d0:note off:         (0x83,0x29,0x4f).
time:  000101d0:note on:          (0x93,0x35,0x7d).
time:  000101d0:note on:          (0x93,0x30,0x7d).
time:  000101d0:note on:          (0x93,0x29,0x7d).
time:  0001020c:note off:         (0x83,0x35,0x4f).
time:  0001020c:note off:         (0x83,0x30,0x4f).
time:  0001020c:note off:         (0x83,0x29,0x4f).
time:  0001020c:note on:          (0x93,0x35,0x7d).
time:  0001020c:note on:          (0x93,0x30,0x7d).
time:  0001020c:note on:          (0x93,0x29,0x7d).
time:  00010248:note off:         (0x83,0x35,0x4f).
time:  00010248:note off:         (0x83,0x30,0x4f).
time:  00010248:note off:         (0x83,0x29,0x4f).
time:  00010248:note on:          (0x93,0x3a,0x7d).
time:  00010248:note on:          (0x93,0x35,0x7d).
time:  00010248:note on:          (0x93,0x2e,0x7d).
time:  000102c0:note off:         (0x83,0x3a,0x4f).
time:  000102c0:note off:         (0x83,0x35,0x4f).
time:  000102c0:note off:         (0x83,0x2e,0x4f).
time:  000102c0:note on:          (0x93,0x3a,0x7d).
time:  000102c0:note on:          (0x93,0x35,0x7d).
time:  000102c0:note on:          (0x93,0x2e,0x7d).
time:  00010338:note off:         (0x83,0x3a,0x4f).
time:  00010338:note off:         (0x83,0x35,0x4f).
time:  00010338:note off:         (0x83,0x2e,0x4f).
time:  00010338:note on:          (0x93,0x35,0x7d).
time:  00010338:note on:          (0x93,0x30,0x7d).
time:  00010338:note on:          (0x93,0x29,0x7d).
time:  000103b0:note off:         (0x83,0x35,0x4f).
time:  000103b0:note off:         (0x83,0x30,0x4f).
time:  000103b0:note off:         (0x83,0x29,0x4f).
time:  000103b0:note on:          (0x93,0x38,0x7d).
time:  000103b0:note on:          (0x93,0x33,0x7d).
time:  000103b0:note on:          (0x93,0x2c,0x7d).
time:  00010464:note on:          (0x93,0x38,0x7d).
time:  00010464:note on:          (0x93,0x33,0x7d).
time:  00010464:note on:          (0x93,0x2c,0x7d).
time:  000104a0:note off:         (0x83,0x38,0x4f).
time:  000104a0:note off:         (0x83,0x33,0x4f).
time:  000104a0:note off:         (0x83,0x2c,0x4f).
time:  000104a0:note off:         (0x83,0x38,0x4f).
time:  000104a0:note off:         (0x83,0x33,0x4f).
time:  000104a0:note off:         (0x83,0x2c,0x4f).
time:  000104a0:note on:          (0x93,0x38,0x7d).
time:  000104a0:note on:          (0x93,0x33,0x7d).
time:  000104a0:note on:          (0x93,0x2c,0x7d).
time:  00010554:note on:          (0x93,0x38,0x7d).
time:  00010554:note on:          (0x93,0x33,0x7d).
time:  00010554:note on:          (0x93,0x2c,0x7d).
time:  00010590:note off:         (0x83,0x38,0x4f).
time:  00010590:note off:         (0x83,0x33,0x4f).
time:  00010590:note off:         (0x83,0x2c,0x4f).
time:  00010590:note off:         (0x83,0x38,0x4f).
time:  00010590:note off:         (0x83,0x33,0x4f).
time:  00010590:note off:         (0x83,0x2c,0x4f).
time:  00010590:note on:          (0x93,0x38,0x7d).
time:  00010590:note on:          (0x93,0x33,0x7d).
time:  00010590:note on:          (0x93,0x2c,0x7d).
time:  000105cc:note off:         (0x83,0x38,0x4f).
time:  000105cc:note off:         (0x83,0x33,0x4f).
time:  000105cc:note off:         (0x83,0x2c,0x4f).
time:  000105cc:note on:          (0x93,0x38,0x7d).
time:  000105cc:note on:          (0x93,0x33,0x7d).
time:  000105cc:note on:          (0x93,0x2c,0x7d).
time:  00010608:note off:         (0x83,0x38,0x4f).
time:  00010608:note off:         (0x83,0x33,0x4f).
time:  00010608:note off:         (0x83,0x2c,0x4f).
time:  00010608:note on:          (0x93,0x3d,0x7d).
time:  00010608:note on:          (0x93,0x38,0x7d).
time:  00010608:note on:          (0x93,0x31,0x7d).
time:  00010680:note off:         (0x83,0x3d,0x4f).
time:  00010680:note off:         (0x83,0x38,0x4f).
time:  00010680:note off:         (0x83,0x31,0x4f).
time:  00010680:note on:          (0x93,0x3d,0x7d).
time:  00010680:note on:          (0x93,0x38,0x7d).
time:  00010680:note on:          (0x93,0x31,0x7d).
time:  000106f8:note off:         (0x83,0x3d,0x4f).
time:  000106f8:note off:         (0x83,0x38,0x4f).
time:  000106f8:note off:         (0x83,0x31,0x4f).
time:  000106f8:note on:          (0x93,0x38,0x7d).
time:  000106f8:note on:          (0x93,0x33,0x7d).
time:  000106f8:note on:          (0x93,0x2c,0x7d).
time:  00010770:note off:         (0x83,0x38,0x4f).
time:  00010770:note off:         (0x83,0x33,0x4f).
time:  00010770:note off:         (0x83,0x2c,0x4f).
time:  00010770:note on:          (0x93,0x35,0x7d).
time:  00010770:note on:          (0x93,0x30,0x7d).
time:  00010770:note on:          (0x93,0x29,0x7d).
time:  00010824:note on:          (0x93,0x35,0x7d).
time:  00010824:note on:          (0x93,0x30,0x7d).
time:  00010824:note on:          (0x93,0x29,0x7d).
time:  00010860:note off:         (0x83,0x35,0x4f).
time:  00010860:note off:         (0x83,0x30,0x4f).
time:  00010860:note off:         (0x83,0x29,0x4f).
time:  00010860:note off:         (0x83,0x35,0x4f).
time:  00010860:note off:         (0x83,0x30,0x4f).
time:  00010860:note off:         (0x83,0x29,0x4f).
time:  00010860:note on:          (0x93,0x35,0x7d).
time:  00010860:note on:          (0x93,0x30,0x7d).
time:  00010860:note on:          (0x93,0x29,0x7d).
time:  00010914:note on:          (0x93,0x35,0x7d).
time:  00010914:note on:          (0x93,0x30,0x7d).
time:  00010914:note on:          (0x93,0x29,0x7d).
time:  00010950:note off:         (0x83,0x35,0x4f).
time:  00010950:note off:         (0x83,0x30,0x4f).
time:  00010950:note off:         (0x83,0x29,0x4f).
time:  00010950:note off:         (0x83,0x35,0x4f).
time:  00010950:note off:         (0x83,0x30,0x4f).
time:  00010950:note off:         (0x83,0x29,0x4f).
time:  00010950:note on:          (0x93,0x35,0x7d).
time:  00010950:note on:          (0x93,0x30,0x7d).
time:  00010950:note on:          (0x93,0x29,0x7d).
time:  0001098c:note off:         (0x83,0x35,0x4f).
time:  0001098c:note off:         (0x83,0x30,0x4f).
time:  0001098c:note off:         (0x83,0x29,0x4f).
time:  0001098c:note on:          (0x93,0x35,0x7d).
time:  0001098c:note on:          (0x93,0x30,0x7d).
time:  0001098c:note on:          (0x93,0x29,0x7d).
time:  000109c8:note off:         (0x83,0x35,0x4f).
time:  000109c8:note off:         (0x83,0x30,0x4f).
time:  000109c8:note off:         (0x83,0x29,0x4f).
time:  000109c8:note on:          (0x93,0x3a,0x7d).
time:  000109c8:note on:          (0x93,0x35,0x7d).
time:  000109c8:note on:          (0x93,0x2e,0x7d).
time:  00010a40:note off:         (0x83,0x3a,0x4f).
time:  00010a40:note off:         (0x83,0x35,0x4f).
time:  00010a40:note off:         (0x83,0x2e,0x4f).
time:  00010a40:note on:          (0x93,0x3a,0x7d).
time:  00010a40:note on:          (0x93,0x35,0x7d).
time:  00010a40:note on:          (0x93,0x2e,0x7d).
time:  00010ab8:note off:         (0x83,0x3a,0x4f).
time:  00010ab8:note off:         (0x83,0x35,0x4f).
time:  00010ab8:note off:         (0x83,0x2e,0x4f).
time:  00010ab8:note on:          (0x93,0x35,0x7d).
time:  00010ab8:note on:          (0x93,0x30,0x7d).
time:  00010ab8:note on:          (0x93,0x29,0x7d).
time:  00010b30:note off:         (0x83,0x35,0x4f).
time:  00010b30:note off:         (0x83,0x30,0x4f).
time:  00010b30:note off:         (0x83,0x29,0x4f).
time:  00010b30:note on:          (0x93,0x38,0x7d).
time:  00010b30:note on:          (0x93,0x33,0x7d).
time:  00010b30:note on:          (0x93,0x2c,0x7d).
time:  00010be4:note on:          (0x93,0x38,0x7d).
time:  00010be4:note on:          (0x93,0x33,0x7d).
time:  00010be4:note on:          (0x93,0x2c,0x7d).
time:  00010c20:note off:         (0x83,0x38,0x4f).
time:  00010c20:note off:         (0x83,0x33,0x4f).
time:  00010c20:note off:         (0x83,0x2c,0x4f).
time:  00010c20:note off:         (0x83,0x38,0x4f).
time:  00010c20:note off:         (0x83,0x33,0x4f).
time:  00010c20:note off:         (0x83,0x2c,0x4f).
time:  00010c20:note on:          (0x93,0x38,0x7d).
time:  00010c20:note on:          (0x93,0x33,0x7d).
time:  00010c20:note on:          (0x93,0x2c,0x7d).
time:  00010cd4:note on:          (0x93,0x38,0x7d).
time:  00010cd4:note on:          (0x93,0x33,0x7d).
time:  00010cd4:note on:          (0x93,0x2c,0x7d).
time:  00010d10:note off:         (0x83,0x38,0x4f).
time:  00010d10:note off:         (0x83,0x33,0x4f).
time:  00010d10:note off:         (0x83,0x2c,0x4f).
time:  00010d10:note off:         (0x83,0x38,0x4f).
time:  00010d10:note off:         (0x83,0x33,0x4f).
time:  00010d10:note off:         (0x83,0x2c,0x4f).
time:  00010d10:note on:          (0x93,0x38,0x7d).
time:  00010d10:note on:          (0x93,0x33,0x7d).
time:  00010d10:note on:          (0x93,0x2c,0x7d).
time:  00010d4c:note off:         (0x83,0x38,0x4f).
time:  00010d4c:note off:         (0x83,0x33,0x4f).
time:  00010d4c:note off:         (0x83,0x2c,0x4f).
time:  00010d4c:note on:          (0x93,0x38,0x7d).
time:  00010d4c:note on:          (0x93,0x33,0x7d).
time:  00010d4c:note on:          (0x93,0x2c,0x7d).
time:  00010d88:note off:         (0x83,0x38,0x4f).
time:  00010d88:note off:         (0x83,0x33,0x4f).
time:  00010d88:note off:         (0x83,0x2c,0x4f).
time:  00010d88:note on:          (0x93,0x3d,0x7d).
time:  00010d88:note on:          (0x93,0x38,0x7d).
time:  00010d88:note on:          (0x93,0x31,0x7d).
time:  00010e00:note off:         (0x83,0x3d,0x4f).
time:  00010e00:note off:         (0x83,0x38,0x4f).
time:  00010e00:note off:         (0x83,0x31,0x4f).
time:  00010e00:note on:          (0x93,0x3d,0x7d).
time:  00010e00:note on:          (0x93,0x38,0x7d).
time:  00010e00:note on:          (0x93,0x31,0x7d).
time:  00010e78:note off:         (0x83,0x3d,0x4f).
time:  00010e78:note off:         (0x83,0x38,0x4f).
time:  00010e78:note off:         (0x83,0x31,0x4f).
time:  00010e78:note on:          (0x93,0x3d,0x7d).
time:  00010e78:note on:          (0x93,0x31,0x7d).
time:  00010e78:note on:          (0x93,0x38,0x7d).
time:  00010ef0:note off:         (0x83,0x3d,0x4f).
time:  00010ef0:note off:         (0x83,0x31,0x4f).
time:  00010ef0:note off:         (0x83,0x38,0x4f).
time:  00010ef0:note on:          (0x93,0x29,0x7d).
time:  00010ef0:note on:          (0x93,0x30,0x7d).
time:  00010ef0:note on:          (0x93,0x35,0x7d).
time:  00010fe0:note off:         (0x83,0x29,0x4f).
time:  00010fe0:note off:         (0x83,0x30,0x4f).
time:  00010fe0:note off:         (0x83,0x35,0x4f).
time:  00010fe0:note on:          (0x93,0x28,0x7d).
time:  00010fe0:note on:          (0x93,0x2f,0x7d).
time:  00010fe0:note on:          (0x93,0x34,0x7d).
time:  00011058:note off:         (0x83,0x28,0x4f).
time:  00011058:note off:         (0x83,0x2f,0x4f).
time:  00011058:note off:         (0x83,0x34,0x4f).
time:  00011058:note on:          (0x93,0x35,0x7d).
time:  00011058:note on:          (0x93,0x30,0x7d).
time:  00011058:note on:          (0x93,0x29,0x7d).
time:  000110d0:note off:         (0x83,0x35,0x4f).
time:  000110d0:note off:         (0x83,0x30,0x4f).
time:  000110d0:note off:         (0x83,0x29,0x4f).
time:  000110d0:note on:          (0x93,0x36,0x7d).
time:  000110d0:note on:          (0x93,0x31,0x7d).
time:  000110d0:note on:          (0x93,0x2a,0x7d).
time:  00011148:note off:         (0x83,0x36,0x4f).
time:  00011148:note off:         (0x83,0x31,0x4f).
time:  00011148:note off:         (0x83,0x2a,0x4f).
time:  00011148:note on:          (0x93,0x36,0x7d).
time:  00011148:note on:          (0x93,0x31,0x7d).
time:  00011148:note on:          (0x93,0x2a,0x7d).
time:  000111c0:note off:         (0x83,0x36,0x4f).
time:  000111c0:note off:         (0x83,0x31,0x4f).
time:  000111c0:note off:         (0x83,0x2a,0x4f).
time:  000111c0:note on:          (0x93,0x36,0x7f).
time:  000111f9:pitch wheel:      (0xe3,0x78,0x55).
time:  000111f9:controller:       (0xb3,0x01,0x41).
time:  00011235:pitch wheel:      (0xe3,0x48,0x65).
time:  000112ad:pitch wheel:      (0xe3,0x00,0x40).
time:  000112ad:controller:       (0xb3,0x01,0x00).
time:  000112b0:note off:         (0x83,0x36,0x4b).
time:  000112b0:note on:          (0x93,0x29,0x7d).
time:  000112b0:note on:          (0x93,0x30,0x7d).
time:  000112b0:note on:          (0x93,0x35,0x7d).
time:  000113a0:note off:         (0x83,0x29,0x4f).
time:  000113a0:note off:         (0x83,0x30,0x4f).
time:  000113a0:note off:         (0x83,0x35,0x4f).
time:  000113a0:note on:          (0x93,0x28,0x7d).
time:  000113a0:note on:          (0x93,0x2f,0x7d).
time:  000113a0:note on:          (0x93,0x34,0x7d).
time:  00011418:note off:         (0x83,0x28,0x4f).
time:  00011418:note off:         (0x83,0x2f,0x4f).
time:  00011418:note off:         (0x83,0x34,0x4f).
time:  00011418:note on:          (0x93,0x35,0x7d).
time:  00011418:note on:          (0x93,0x30,0x7d).
time:  00011418:note on:          (0x93,0x29,0x7d).
time:  00011490:note off:         (0x83,0x35,0x4f).
time:  00011490:note off:         (0x83,0x30,0x4f).
time:  00011490:note off:         (0x83,0x29,0x4f).
time:  00011490:note on:          (0x93,0x3a,0x7d).
time:  00011490:note on:          (0x93,0x35,0x7d).
time:  00011490:note on:          (0x93,0x2e,0x7d).
time:  00011580:note off:         (0x83,0x3a,0x4f).
time:  00011580:note off:         (0x83,0x35,0x4f).
time:  00011580:note off:         (0x83,0x2e,0x4f).
time:  00011580:note on:          (0x93,0x38,0x7d).
time:  00011580:note on:          (0x93,0x33,0x7d).
time:  00011580:note on:          (0x93,0x2c,0x7d).
time:  00011670:note off:         (0x83,0x38,0x4f).
time:  00011670:note off:         (0x83,0x33,0x4f).
time:  00011670:note off:         (0x83,0x2c,0x4f).
time:  00011670:note on:          (0x93,0x29,0x7d).
time:  00011670:note on:          (0x93,0x30,0x7d).
time:  00011670:note on:          (0x93,0x35,0x7d).
time:  00011760:note off:         (0x83,0x29,0x4f).
time:  00011760:note off:         (0x83,0x30,0x4f).
time:  00011760:note off:         (0x83,0x35,0x4f).
time:  00011760:note on:          (0x93,0x28,0x7d).
time:  00011760:note on:          (0x93,0x2f,0x7d).
time:  00011760:note on:          (0x93,0x34,0x7d).
time:  000117d8:note off:         (0x83,0x28,0x4f).
time:  000117d8:note off:         (0x83,0x2f,0x4f).
time:  000117d8:note off:         (0x83,0x34,0x4f).
time:  000117d8:note on:          (0x93,0x35,0x7d).
time:  000117d8:note on:          (0x93,0x30,0x7d).
time:  000117d8:note on:          (0x93,0x29,0x7d).
time:  00011850:note off:         (0x83,0x35,0x4f).
time:  00011850:note off:         (0x83,0x30,0x4f).
time:  00011850:note off:         (0x83,0x29,0x4f).
time:  00011850:note on:          (0x93,0x36,0x7d).
time:  00011850:note on:          (0x93,0x31,0x7d).
time:  00011850:note on:          (0x93,0x2a,0x7d).
time:  000118c8:note off:         (0x83,0x36,0x4f).
time:  000118c8:note off:         (0x83,0x31,0x4f).
time:  000118c8:note off:         (0x83,0x2a,0x4f).
time:  000118c8:note on:          (0x93,0x36,0x7d).
time:  000118c8:note on:          (0x93,0x31,0x7d).
time:  000118c8:note on:          (0x93,0x2a,0x7d).
time:  00011940:note off:         (0x83,0x36,0x4f).
time:  00011940:note off:         (0x83,0x31,0x4f).
time:  00011940:note off:         (0x83,0x2a,0x4f).
time:  00011940:note on:          (0x93,0x36,0x7f).
time:  00011979:pitch wheel:      (0xe3,0x78,0x55).
time:  00011979:controller:       (0xb3,0x01,0x41).
time:  000119b5:pitch wheel:      (0xe3,0x48,0x65).
time:  00011a2d:pitch wheel:      (0xe3,0x00,0x40).
time:  00011a2d:controller:       (0xb3,0x01,0x00).
time:  00011a30:note off:         (0x83,0x36,0x4b).
time:  00011a30:note on:          (0x93,0x29,0x7d).
time:  00011a30:note on:          (0x93,0x30,0x7d).
time:  00011a30:note on:          (0x93,0x35,0x7d).
time:  00011b20:note off:         (0x83,0x29,0x4f).
time:  00011b20:note off:         (0x83,0x30,0x4f).
time:  00011b20:note off:         (0x83,0x35,0x4f).
time:  00011b20:note on:          (0x93,0x28,0x7d).
time:  00011b20:note on:          (0x93,0x2f,0x7d).
time:  00011b20:note on:          (0x93,0x34,0x7d).
time:  00011b98:note off:         (0x83,0x28,0x4f).
time:  00011b98:note off:         (0x83,0x2f,0x4f).
time:  00011b98:note off:         (0x83,0x34,0x4f).
time:  00011b98:note on:          (0x93,0x35,0x7d).
time:  00011b98:note on:          (0x93,0x30,0x7d).
time:  00011b98:note on:          (0x93,0x29,0x7d).
time:  00011c10:note off:         (0x83,0x35,0x4f).
time:  00011c10:note off:         (0x83,0x30,0x4f).
time:  00011c10:note off:         (0x83,0x29,0x4f).
time:  00011c10:note on:          (0x93,0x3a,0x7d).
time:  00011c10:note on:          (0x93,0x35,0x7d).
time:  00011c10:note on:          (0x93,0x2e,0x7d).
time:  00011d00:note off:         (0x83,0x3a,0x4f).
time:  00011d00:note off:         (0x83,0x35,0x4f).
time:  00011d00:note off:         (0x83,0x2e,0x4f).
time:  00011d00:note on:          (0x93,0x38,0x7d).
time:  00011d00:note on:          (0x93,0x33,0x7d).
time:  00011d00:note on:          (0x93,0x2c,0x7d).
time:  00011df0:note off:         (0x83,0x38,0x4f).
time:  00011df0:note off:         (0x83,0x33,0x4f).
time:  00011df0:note off:         (0x83,0x2c,0x4f).
time:  00011ee0:note on:          (0x93,0x3c,0x7d).
time:  00011ee0:controller:       (0xb3,0x01,0x41).
time:  00011f58:note off:         (0x83,0x3c,0x4f).
time:  00011f58:note on:          (0x93,0x3f,0x7d).
time:  00012048:note on:          (0x93,0x41,0x7d).
time:  000120c0:note off:         (0x83,0x3f,0x4f).
time:  00012138:note off:         (0x83,0x41,0x4f).
time:  00012138:note on:          (0x93,0x38,0x7d).
time:  000122a0:note on:          (0x93,0x3c,0x6a).
time:  00012390:note off:         (0x83,0x3c,0x43).
time:  00012390:note on:          (0x93,0x41,0x7d).
time:  00012408:note off:         (0x83,0x38,0x4f).
time:  00012408:note on:          (0x93,0x41,0x6a).
time:  00012480:note off:         (0x83,0x41,0x4f).
time:  00012480:note on:          (0x93,0x3f,0x7d).
time:  000124f8:note off:         (0x83,0x41,0x43).
time:  00012570:note off:         (0x83,0x3f,0x4f).
time:  00012570:note on:          (0x93,0x3c,0x7d).
time:  00012660:note off:         (0x83,0x3c,0x4f).
time:  00012660:note on:          (0x93,0x3d,0x7d).
time:  000126d8:note off:         (0x83,0x3d,0x4f).
time:  000126d8:note on:          (0x93,0x3c,0x7d).
time:  000127c8:note off:         (0x83,0x3c,0x4f).
time:  000127c8:note on:          (0x93,0x3a,0x7d).
time:  00012930:note on:          (0x93,0x38,0x7d).
time:  000129a8:note off:         (0x83,0x3a,0x4f).
time:  00012a20:note off:         (0x83,0x38,0x4f).
time:  00012a20:note on:          (0x93,0x3a,0x7d).
time:  00012a98:note on:          (0x93,0x3c,0x7d).
time:  00012b10:note off:         (0x83,0x3a,0x4f).
time:  00012b88:note off:         (0x83,0x3c,0x4f).
time:  00012b88:note on:          (0x93,0x3a,0x7d).
time:  00012c00:note off:         (0x83,0x3a,0x4f).
time:  00012c00:note on:          (0x93,0x38,0x7d).
time:  00012c78:note off:         (0x83,0x38,0x4f).
time:  00012c78:note on:          (0x93,0x37,0x7d).
time:  00012d92:note off:         (0x83,0x37,0x4f).
time:  00012de0:note on:          (0x93,0x3c,0x7d).
time:  00012e58:note off:         (0x83,0x3c,0x4f).
time:  00012e58:note on:          (0x93,0x3f,0x7d).
time:  00012f48:note on:          (0x93,0x41,0x7d).
time:  00012fc0:note off:         (0x83,0x3f,0x4f).
time:  00013038:note on:          (0x93,0x38,0x7d).
time:  00013044:note off:         (0x83,0x41,0x4f).
time:  000131a0:note on:          (0x93,0x3c,0x6a).
time:  000131c8:note off:         (0x83,0x38,0x4f).
time:  00013290:note off:         (0x83,0x3c,0x43).
time:  00013290:note on:          (0x93,0x41,0x7d).
time:  00013380:note off:         (0x83,0x41,0x4f).
time:  00013380:note on:          (0x93,0x3f,0x7d).
time:  00013470:note off:         (0x83,0x3f,0x4f).
time:  00013470:note on:          (0x93,0x3c,0x7d).
time:  00013560:note off:         (0x83,0x3c,0x4f).
time:  00013560:note on:          (0x93,0x3d,0x7d).
time:  000135d8:note off:         (0x83,0x3d,0x4f).
time:  000135d8:note on:          (0x93,0x3c,0x7d).
time:  000136c8:note off:         (0x83,0x3c,0x4f).
time:  000136c8:note on:          (0x93,0x3a,0x7d).
time:  00013830:note on:          (0x93,0x38,0x7d).
time:  000138a8:note off:         (0x83,0x3a,0x4f).
time:  00013920:note off:         (0x83,0x38,0x4f).
time:  00013920:note on:          (0x93,0x3a,0x7d).
time:  00013998:note on:          (0x93,0x3c,0x7d).
time:  00013a10:note off:         (0x83,0x3a,0x4f).
time:  00013a88:note off:         (0x83,0x3c,0x4f).
time:  00013a88:note on:          (0x93,0x3a,0x7d).
time:  00013b00:note off:         (0x83,0x3a,0x4f).
time:  00013b00:note on:          (0x93,0x38,0x7d).
time:  00013b78:note off:         (0x83,0x38,0x4f).
time:  00013b78:note on:          (0x93,0x37,0x7d).
time:  00013ce0:note on:          (0x93,0x38,0x7d).
time:  00013d58:note off:         (0x83,0x38,0x4f).
time:  00013d58:note on:          (0x93,0x37,0x7d).
time:  00013e13:note off:         (0x83,0x37,0x4f).
time:  00013e48:note off:         (0x83,0x37,0x4f).
time:  00013ec0:note on:          (0x93,0x38,0x7d).
time:  00013f38:note off:         (0x83,0x38,0x4f).
time:  00013f38:note on:          (0x93,0x37,0x7d).
time:  000140a0:note on:          (0x93,0x38,0x7d).
time:  00014110:note off:         (0x83,0x37,0x4f).
time:  00014118:note off:         (0x83,0x38,0x4f).
time:  00014118:note on:          (0x93,0x37,0x7d).
time:  00014208:note on:          (0x93,0x38,0x7d).
time:  00014280:note off:         (0x83,0x38,0x4f).
time:  00014280:note on:          (0x93,0x37,0x7d).
time:  000142f0:note off:         (0x83,0x37,0x4f).
time:  000142f8:note off:         (0x83,0x37,0x4f).
time:  000142f8:note on:          (0x93,0x37,0x7d).
time:  00014370:note on:          (0x93,0x35,0x7d).
time:  00014393:note off:         (0x83,0x37,0x4f).
time:  00014460:note off:         (0x83,0x35,0x4f).
time:  00014460:note on:          (0x93,0x38,0x7d).
time:  000144d8:note off:         (0x83,0x38,0x4f).
time:  000144d8:note on:          (0x93,0x37,0x7d).
time:  000145c8:note off:         (0x83,0x37,0x4f).
time:  00014640:note on:          (0x93,0x38,0x7d).
time:  000146b8:note off:         (0x83,0x38,0x4f).
time:  000146b8:note on:          (0x93,0x37,0x7d).
time:  00014820:note on:          (0x93,0x38,0x7d).
time:  00014890:note off:         (0x83,0x37,0x4f).
time:  00014898:note off:         (0x83,0x38,0x4f).
time:  00014898:note on:          (0x93,0x37,0x7d).
time:  00014988:note on:          (0x93,0x38,0x7d).
time:  00014a00:note off:         (0x83,0x38,0x4f).
time:  00014a00:note on:          (0x93,0x37,0x7d).
time:  00014a70:note off:         (0x83,0x37,0x4f).
time:  00014a78:note off:         (0x83,0x37,0x4f).
time:  00014a78:note on:          (0x93,0x37,0x7d).
time:  00014af0:note off:         (0x83,0x37,0x4f).
time:  00014af0:note on:          (0x93,0x35,0x7d).
time:  00014be0:note off:         (0x83,0x35,0x4f).
time:  00014be0:note on:          (0x93,0x38,0x7d).
time:  00014c58:note off:         (0x83,0x38,0x4f).
time:  00014c58:note on:          (0x93,0x37,0x7d).
time:  00014d48:note off:         (0x83,0x37,0x4f).
time:  00014dc0:note on:          (0x93,0x38,0x7d).
time:  00014e38:note off:         (0x83,0x38,0x4f).
time:  00014e38:note on:          (0x93,0x37,0x7d).
time:  00014fa0:note on:          (0x93,0x38,0x7d).
time:  00015010:note off:         (0x83,0x37,0x43).
time:  00015018:note off:         (0x83,0x38,0x4f).
time:  00015018:note on:          (0x93,0x37,0x7d).
time:  00015108:note on:          (0x93,0x38,0x7d).
time:  00015180:note off:         (0x83,0x38,0x4f).
time:  00015180:note on:          (0x93,0x37,0x7d).
time:  000151f0:note off:         (0x83,0x37,0x4f).
time:  000151f8:note off:         (0x83,0x37,0x4f).
time:  000151f8:note on:          (0x93,0x37,0x7d).
time:  00015270:note on:          (0x93,0x35,0x6a).
time:  00015293:note off:         (0x83,0x37,0x43).
time:  00015360:note off:         (0x83,0x35,0x43).
time:  00015360:note on:          (0x93,0x38,0x7d).
time:  000153d8:note off:         (0x83,0x38,0x4f).
time:  000153d8:note on:          (0x93,0x37,0x7d).
time:  000154c8:note off:         (0x83,0x37,0x4f).
time:  00015540:note on:          (0x93,0x38,0x7d).
time:  000155b8:note off:         (0x83,0x38,0x4f).
time:  000155b8:note on:          (0x93,0x37,0x7d).
time:  00015720:note on:          (0x93,0x38,0x7d).
time:  00015790:note off:         (0x83,0x37,0x43).
time:  00015798:note off:         (0x83,0x38,0x4f).
time:  00015798:note on:          (0x93,0x37,0x7d).
time:  00015888:note on:          (0x93,0x38,0x7d).
time:  00015900:note off:         (0x83,0x38,0x4f).
time:  00015900:note on:          (0x93,0x37,0x7d).
time:  00015970:note off:         (0x83,0x37,0x4f).
time:  00015978:note off:         (0x83,0x37,0x4f).
time:  00015978:note on:          (0x93,0x37,0x7d).
time:  000159f0:note on:          (0x93,0x35,0x6a).
time:  000159f0:note on:          (0x93,0x29,0x6a).
time:  000159f0:note on:          (0x93,0x30,0x6a).
time:  00015a13:note off:         (0x83,0x37,0x43).
time:  00016172:note off:         (0x83,0x35,0x43).
time:  00016172:note off:         (0x83,0x29,0x43).
time:  00016172:note off:         (0x83,0x30,0x43).
time:  000186f0:note on:          (0x93,0x3c,0x7f).
time:  000186f0:controller:       (0xb3,0x01,0x3c).
time:  000187e0:note off:         (0x83,0x3c,0x5a).
time:  000187e0:note on:          (0x93,0x41,0x7f).
time:  000188d0:note off:         (0x83,0x41,0x5a).
time:  000188d0:note on:          (0x93,0x3c,0x7f).
time:  000189c0:note off:         (0x83,0x3c,0x5a).
time:  000189c0:note on:          (0x93,0x41,0x7f).
time:  00018ab0:note off:         (0x83,0x41,0x5a).
time:  00018ab0:note on:          (0x93,0x3c,0x7f).
time:  00018ba0:note off:         (0x83,0x3c,0x5a).
time:  00018ba0:note on:          (0x93,0x41,0x7f).
time:  00018c90:note off:         (0x83,0x41,0x5a).
time:  00018c90:note on:          (0x93,0x3c,0x7f).
time:  00018d80:note off:         (0x83,0x3c,0x5a).
time:  00018d80:note on:          (0x93,0x41,0x7f).
time:  00018e70:note off:         (0x83,0x41,0x5a).
time:  00018e70:note on:          (0x93,0x3c,0x7f).
time:  00018f60:note off:         (0x83,0x3c,0x5a).
time:  00018f60:note on:          (0x93,0x41,0x7f).
time:  00019050:note off:         (0x83,0x41,0x5a).
time:  00019050:note on:          (0x93,0x3c,0x7f).
time:  00019140:note off:         (0x83,0x3c,0x5a).
time:  00019140:note on:          (0x93,0x41,0x7f).
time:  00019230:note off:         (0x83,0x41,0x5a).
time:  00019230:note on:          (0x93,0x3c,0x7f).
time:  00019320:note off:         (0x83,0x3c,0x5a).
time:  00019320:note on:          (0x93,0x41,0x7f).
time:  00019410:note off:         (0x83,0x41,0x5a).
time:  00019410:note on:          (0x93,0x3c,0x7f).
time:  00019500:note off:         (0x83,0x3c,0x5a).
time:  00019500:note on:          (0x93,0x41,0x7f).
time:  000195f0:note off:         (0x83,0x41,0x5a).
time:  000195f0:note on:          (0x93,0x3c,0x7f).
time:  000196e0:note off:         (0x83,0x3c,0x5a).
time:  000196e0:note on:          (0x93,0x41,0x7f).
time:  000197d0:note off:         (0x83,0x41,0x5a).
time:  000197d0:note on:          (0x93,0x3c,0x7f).
time:  000198c0:note off:         (0x83,0x3c,0x5a).
time:  000198c0:note on:          (0x93,0x41,0x7f).
time:  000199b0:note off:         (0x83,0x41,0x5a).
time:  000199b0:note on:          (0x93,0x3c,0x7f).
time:  00019aa0:note off:         (0x83,0x3c,0x5a).
time:  00019aa0:note on:          (0x93,0x41,0x7f).
time:  00019b90:note off:         (0x83,0x41,0x5a).
time:  00019b90:note on:          (0x93,0x3c,0x7f).
time:  00019c80:note off:         (0x83,0x3c,0x5a).
time:  00019c80:note on:          (0x93,0x41,0x7f).
time:  00019d70:note off:         (0x83,0x41,0x5a).
time:  00019d70:note on:          (0x93,0x3c,0x7f).
time:  00019e60:note off:         (0x83,0x3c,0x5a).
time:  00019e60:note on:          (0x93,0x41,0x7f).
time:  00019f50:note off:         (0x83,0x41,0x5a).
time:  00019f50:note on:          (0x93,0x3c,0x7f).
time:  0001a040:note off:         (0x83,0x3c,0x5a).
time:  0001a040:note on:          (0x93,0x41,0x7f).
time:  0001a130:note off:         (0x83,0x41,0x5a).
time:  0001a130:note on:          (0x93,0x3c,0x7f).
time:  0001a220:note off:         (0x83,0x3c,0x5a).
time:  0001a220:note on:          (0x93,0x41,0x7f).
time:  0001a310:note off:         (0x83,0x41,0x5a).
time:  0001a310:note on:          (0x93,0x3c,0x7f).
time:  0001a400:note off:         (0x83,0x3c,0x5a).
time:  0001a400:pitch wheel:      (0xe3,0x00,0x40).
time:  0001a400:note on:          (0x93,0x1f,0x7d).
time:  0001a400:note on:          (0x93,0x26,0x7d).
time:  0001a400:note on:          (0x93,0x2b,0x7d).
time:  0001a400:pitch wheel:      (0xe3,0x00,0x40).
time:  0001a400:note on:          (0x93,0x41,0x7f).
time:  0001a400:controller:       (0xb3,0x01,0x00).
time:  0001a439:pitch wheel:      (0xe3,0x7f,0x4f).
time:  0001a475:pitch wheel:      (0xe3,0x7e,0x5f).
time:  0001a4b1:pitch wheel:      (0xe3,0x7d,0x6f).
time:  0001a4ed:pitch wheel:      (0xe3,0x00,0x40).
time:  0001a4ed:pitch wheel:      (0xe3,0x00,0x40).
time:  0001a4ed:controller:       (0xb3,0x40,0x00).
time:  0001a4ed:controller:       (0xb3,0x01,0x00).
time:  0001a4f0:note off:         (0x83,0x1f,0x4f).
time:  0001a4f0:note off:         (0x83,0x26,0x4f).
time:  0001a4f0:note off:         (0x83,0x2b,0x4f).
time:  0001a4f0:note off:         (0x83,0x41,0x5a).
time:  0001a4f0:note on:          (0x93,0x35,0x7d).
time:  0001a4f0:note on:          (0x93,0x30,0x7d).
time:  0001a4f0:note on:          (0x93,0x29,0x7d).
time:  0001a5a4:note on:          (0x93,0x35,0x7d).
time:  0001a5a4:note on:          (0x93,0x30,0x7d).
time:  0001a5a4:note on:          (0x93,0x29,0x7d).
time:  0001a5e0:note off:         (0x83,0x35,0x4f).
time:  0001a5e0:note off:         (0x83,0x30,0x4f).
time:  0001a5e0:note off:         (0x83,0x29,0x4f).
time:  0001a5e0:note off:         (0x83,0x35,0x4f).
time:  0001a5e0:note off:         (0x83,0x30,0x4f).
time:  0001a5e0:note off:         (0x83,0x29,0x4f).
time:  0001a5e0:note on:          (0x93,0x35,0x7d).
time:  0001a5e0:note on:          (0x93,0x30,0x7d).
time:  0001a5e0:note on:          (0x93,0x29,0x7d).
time:  0001a694:note on:          (0x93,0x35,0x7d).
time:  0001a694:note on:          (0x93,0x30,0x7d).
time:  0001a694:note on:          (0x93,0x29,0x7d).
time:  0001a6d0:note off:         (0x83,0x35,0x4f).
time:  0001a6d0:note off:         (0x83,0x30,0x4f).
time:  0001a6d0:note off:         (0x83,0x29,0x4f).
time:  0001a6d0:note off:         (0x83,0x35,0x4f).
time:  0001a6d0:note off:         (0x83,0x30,0x4f).
time:  0001a6d0:note off:         (0x83,0x29,0x4f).
time:  0001a6d0:note on:          (0x93,0x35,0x7d).
time:  0001a6d0:note on:          (0x93,0x30,0x7d).
time:  0001a6d0:note on:          (0x93,0x29,0x7d).
time:  0001a70c:note off:         (0x83,0x35,0x4f).
time:  0001a70c:note off:         (0x83,0x30,0x4f).
time:  0001a70c:note off:         (0x83,0x29,0x4f).
time:  0001a70c:note on:          (0x93,0x35,0x7d).
time:  0001a70c:note on:          (0x93,0x30,0x7d).
time:  0001a70c:note on:          (0x93,0x29,0x7d).
time:  0001a748:note off:         (0x83,0x35,0x4f).
time:  0001a748:note off:         (0x83,0x30,0x4f).
time:  0001a748:note off:         (0x83,0x29,0x4f).
time:  0001a748:note on:          (0x93,0x3a,0x7d).
time:  0001a748:note on:          (0x93,0x35,0x7d).
time:  0001a748:note on:          (0x93,0x2e,0x7d).
time:  0001a7c0:note off:         (0x83,0x3a,0x4f).
time:  0001a7c0:note off:         (0x83,0x35,0x4f).
time:  0001a7c0:note off:         (0x83,0x2e,0x4f).
time:  0001a7c0:note on:          (0x93,0x3a,0x7d).
time:  0001a7c0:note on:          (0x93,0x35,0x7d).
time:  0001a7c0:note on:          (0x93,0x2e,0x7d).
time:  0001a838:note off:         (0x83,0x3a,0x4f).
time:  0001a838:note off:         (0x83,0x35,0x4f).
time:  0001a838:note off:         (0x83,0x2e,0x4f).
time:  0001a838:note on:          (0x93,0x35,0x7d).
time:  0001a838:note on:          (0x93,0x30,0x7d).
time:  0001a838:note on:          (0x93,0x29,0x7d).
time:  0001a8b0:note off:         (0x83,0x35,0x4f).
time:  0001a8b0:note off:         (0x83,0x30,0x4f).
time:  0001a8b0:note off:         (0x83,0x29,0x4f).
time:  0001a8b0:note on:          (0x93,0x38,0x7d).
time:  0001a8b0:note on:          (0x93,0x33,0x7d).
time:  0001a8b0:note on:          (0x93,0x2c,0x7d).
time:  0001a964:note on:          (0x93,0x38,0x7d).
time:  0001a964:note on:          (0x93,0x33,0x7d).
time:  0001a964:note on:          (0x93,0x2c,0x7d).
time:  0001a9a0:note off:         (0x83,0x38,0x4f).
time:  0001a9a0:note off:         (0x83,0x33,0x4f).
time:  0001a9a0:note off:         (0x83,0x2c,0x4f).
time:  0001a9a0:note off:         (0x83,0x38,0x4f).
time:  0001a9a0:note off:         (0x83,0x33,0x4f).
time:  0001a9a0:note off:         (0x83,0x2c,0x4f).
time:  0001a9a0:note on:          (0x93,0x38,0x7d).
time:  0001a9a0:note on:          (0x93,0x33,0x7d).
time:  0001a9a0:note on:          (0x93,0x2c,0x7d).
time:  0001aa54:note on:          (0x93,0x38,0x7d).
time:  0001aa54:note on:          (0x93,0x33,0x7d).
time:  0001aa54:note on:          (0x93,0x2c,0x7d).
time:  0001aa90:note off:         (0x83,0x38,0x4f).
time:  0001aa90:note off:         (0x83,0x33,0x4f).
time:  0001aa90:note off:         (0x83,0x2c,0x4f).
time:  0001aa90:note off:         (0x83,0x38,0x4f).
time:  0001aa90:note off:         (0x83,0x33,0x4f).
time:  0001aa90:note off:         (0x83,0x2c,0x4f).
time:  0001aa90:note on:          (0x93,0x38,0x7d).
time:  0001aa90:note on:          (0x93,0x33,0x7d).
time:  0001aa90:note on:          (0x93,0x2c,0x7d).
time:  0001aacc:note off:         (0x83,0x38,0x4f).
time:  0001aacc:note off:         (0x83,0x33,0x4f).
time:  0001aacc:note off:         (0x83,0x2c,0x4f).
time:  0001aacc:note on:          (0x93,0x38,0x7d).
time:  0001aacc:note on:          (0x93,0x33,0x7d).
time:  0001aacc:note on:          (0x93,0x2c,0x7d).
time:  0001ab08:note off:         (0x83,0x38,0x4f).
time:  0001ab08:note off:         (0x83,0x33,0x4f).
time:  0001ab08:note off:         (0x83,0x2c,0x4f).
time:  0001ab08:note on:          (0x93,0x3d,0x7d).
time:  0001ab08:note on:          (0x93,0x38,0x7d).
time:  0001ab08:note on:          (0x93,0x31,0x7d).
time:  0001ab80:note off:         (0x83,0x3d,0x4f).
time:  0001ab80:note off:         (0x83,0x38,0x4f).
time:  0001ab80:note off:         (0x83,0x31,0x4f).
time:  0001ab80:note on:          (0x93,0x3d,0x7d).
time:  0001ab80:note on:          (0x93,0x38,0x7d).
time:  0001ab80:note on:          (0x93,0x31,0x7d).
time:  0001abf8:note off:         (0x83,0x3d,0x4f).
time:  0001abf8:note off:         (0x83,0x38,0x4f).
time:  0001abf8:note off:         (0x83,0x31,0x4f).
time:  0001abf8:note on:          (0x93,0x38,0x7d).
time:  0001abf8:note on:          (0x93,0x33,0x7d).
time:  0001abf8:note on:          (0x93,0x2c,0x7d).
time:  0001ac70:note off:         (0x83,0x38,0x4f).
time:  0001ac70:note off:         (0x83,0x33,0x4f).
time:  0001ac70:note off:         (0x83,0x2c,0x4f).
time:  0001ac70:note on:          (0x93,0x35,0x7d).
time:  0001ac70:note on:          (0x93,0x30,0x7d).
time:  0001ac70:note on:          (0x93,0x29,0x7d).
time:  0001ad24:note on:          (0x93,0x35,0x7d).
time:  0001ad24:note on:          (0x93,0x30,0x7d).
time:  0001ad24:note on:          (0x93,0x29,0x7d).
time:  0001ad60:note off:         (0x83,0x35,0x4f).
time:  0001ad60:note off:         (0x83,0x30,0x4f).
time:  0001ad60:note off:         (0x83,0x29,0x4f).
time:  0001ad60:note off:         (0x83,0x35,0x4f).
time:  0001ad60:note off:         (0x83,0x30,0x4f).
time:  0001ad60:note off:         (0x83,0x29,0x4f).
time:  0001ad60:note on:          (0x93,0x35,0x7d).
time:  0001ad60:note on:          (0x93,0x30,0x7d).
time:  0001ad60:note on:          (0x93,0x29,0x7d).
time:  0001ae14:note on:          (0x93,0x35,0x7d).
time:  0001ae14:note on:          (0x93,0x30,0x7d).
time:  0001ae14:note on:          (0x93,0x29,0x7d).
time:  0001ae50:note off:         (0x83,0x35,0x4f).
time:  0001ae50:note off:         (0x83,0x30,0x4f).
time:  0001ae50:note off:         (0x83,0x29,0x4f).
time:  0001ae50:note off:         (0x83,0x35,0x4f).
time:  0001ae50:note off:         (0x83,0x30,0x4f).
time:  0001ae50:note off:         (0x83,0x29,0x4f).
time:  0001ae50:note on:          (0x93,0x35,0x7d).
time:  0001ae50:note on:          (0x93,0x30,0x7d).
time:  0001ae50:note on:          (0x93,0x29,0x7d).
time:  0001ae8c:note off:         (0x83,0x35,0x4f).
time:  0001ae8c:note off:         (0x83,0x30,0x4f).
time:  0001ae8c:note off:         (0x83,0x29,0x4f).
time:  0001ae8c:note on:          (0x93,0x35,0x7d).
time:  0001ae8c:note on:          (0x93,0x30,0x7d).
time:  0001ae8c:note on:          (0x93,0x29,0x7d).
time:  0001aec8:note off:         (0x83,0x35,0x4f).
time:  0001aec8:note off:         (0x83,0x30,0x4f).
time:  0001aec8:note off:         (0x83,0x29,0x4f).
time:  0001aec8:note on:          (0x93,0x3a,0x7d).
time:  0001aec8:note on:          (0x93,0x35,0x7d).
time:  0001aec8:note on:          (0x93,0x2e,0x7d).
time:  0001af40:note off:         (0x83,0x3a,0x4f).
time:  0001af40:note off:         (0x83,0x35,0x4f).
time:  0001af40:note off:         (0x83,0x2e,0x4f).
time:  0001af40:note on:          (0x93,0x3a,0x7d).
time:  0001af40:note on:          (0x93,0x35,0x7d).
time:  0001af40:note on:          (0x93,0x2e,0x7d).
time:  0001afb8:note off:         (0x83,0x3a,0x4f).
time:  0001afb8:note off:         (0x83,0x35,0x4f).
time:  0001afb8:note off:         (0x83,0x2e,0x4f).
time:  0001afb8:note on:          (0x93,0x35,0x7d).
time:  0001afb8:note on:          (0x93,0x30,0x7d).
time:  0001afb8:note on:          (0x93,0x29,0x7d).
time:  0001b030:note off:         (0x83,0x35,0x4f).
time:  0001b030:note off:         (0x83,0x30,0x4f).
time:  0001b030:note off:         (0x83,0x29,0x4f).
time:  0001b030:note on:          (0x93,0x38,0x7d).
time:  0001b030:note on:          (0x93,0x33,0x7d).
time:  0001b030:note on:          (0x93,0x2c,0x7d).
time:  0001b0e4:note on:          (0x93,0x38,0x7d).
time:  0001b0e4:note on:          (0x93,0x33,0x7d).
time:  0001b0e4:note on:          (0x93,0x2c,0x7d).
time:  0001b120:note off:         (0x83,0x38,0x4f).
time:  0001b120:note off:         (0x83,0x33,0x4f).
time:  0001b120:note off:         (0x83,0x2c,0x4f).
time:  0001b120:note off:         (0x83,0x38,0x4f).
time:  0001b120:note off:         (0x83,0x33,0x4f).
time:  0001b120:note off:         (0x83,0x2c,0x4f).
time:  0001b120:note on:          (0x93,0x38,0x7d).
time:  0001b120:note on:          (0x93,0x33,0x7d).
time:  0001b120:note on:          (0x93,0x2c,0x7d).
time:  0001b1d4:note on:          (0x93,0x38,0x7d).
time:  0001b1d4:note on:          (0x93,0x33,0x7d).
time:  0001b1d4:note on:          (0x93,0x2c,0x7d).
time:  0001b210:note off:         (0x83,0x38,0x4f).
time:  0001b210:note off:         (0x83,0x33,0x4f).
time:  0001b210:note off:         (0x83,0x2c,0x4f).
time:  0001b210:note off:         (0x83,0x38,0x4f).
time:  0001b210:note off:         (0x83,0x33,0x4f).
time:  0001b210:note off:         (0x83,0x2c,0x4f).
time:  0001b210:note on:          (0x93,0x38,0x7d).
time:  0001b210:note on:          (0x93,0x33,0x7d).
time:  0001b210:note on:          (0x93,0x2c,0x7d).
time:  0001b24c:note off:         (0x83,0x38,0x4f).
time:  0001b24c:note off:         (0x83,0x33,0x4f).
time:  0001b24c:note off:         (0x83,0x2c,0x4f).
time:  0001b24c:note on:          (0x93,0x38,0x7d).
time:  0001b24c:note on:          (0x93,0x33,0x7d).
time:  0001b24c:note on:          (0x93,0x2c,0x7d).
time:  0001b288:note off:         (0x83,0x38,0x4f).
time:  0001b288:note off:         (0x83,0x33,0x4f).
time:  0001b288:note off:         (0x83,0x2c,0x4f).
time:  0001b288:note on:          (0x93,0x3d,0x7d).
time:  0001b288:note on:          (0x93,0x38,0x7d).
time:  0001b288:note on:          (0x93,0x31,0x7d).
time:  0001b300:note off:         (0x83,0x3d,0x4f).
time:  0001b300:note off:         (0x83,0x38,0x4f).
time:  0001b300:note off:         (0x83,0x31,0x4f).
time:  0001b300:note on:          (0x93,0x3d,0x7d).
time:  0001b300:note on:          (0x93,0x38,0x7d).
time:  0001b300:note on:          (0x93,0x31,0x7d).
time:  0001b378:note off:         (0x83,0x3d,0x4f).
time:  0001b378:note off:         (0x83,0x38,0x4f).
time:  0001b378:note off:         (0x83,0x31,0x4f).
time:  0001b378:note on:          (0x93,0x38,0x7d).
time:  0001b378:note on:          (0x93,0x33,0x7d).
time:  0001b378:note on:          (0x93,0x2c,0x7d).
time:  0001b3f0:note off:         (0x83,0x38,0x4f).
time:  0001b3f0:note off:         (0x83,0x33,0x4f).
time:  0001b3f0:note off:         (0x83,0x2c,0x4f).
time:  0001b3f0:note on:          (0x93,0x35,0x7d).
time:  0001b3f0:note on:          (0x93,0x30,0x7d).
time:  0001b3f0:note on:          (0x93,0x29,0x7d).
time:  0001b4a4:note on:          (0x93,0x35,0x7d).
time:  0001b4a4:note on:          (0x93,0x30,0x7d).
time:  0001b4a4:note on:          (0x93,0x29,0x7d).
time:  0001b4e0:note off:         (0x83,0x35,0x4f).
time:  0001b4e0:note off:         (0x83,0x30,0x4f).
time:  0001b4e0:note off:         (0x83,0x29,0x4f).
time:  0001b4e0:note off:         (0x83,0x35,0x4f).
time:  0001b4e0:note off:         (0x83,0x30,0x4f).
time:  0001b4e0:note off:         (0x83,0x29,0x4f).
time:  0001b4e0:note on:          (0x93,0x35,0x7d).
time:  0001b4e0:note on:          (0x93,0x30,0x7d).
time:  0001b4e0:note on:          (0x93,0x29,0x7d).
time:  0001b594:note on:          (0x93,0x35,0x7d).
time:  0001b594:note on:          (0x93,0x30,0x7d).
time:  0001b594:note on:          (0x93,0x29,0x7d).
time:  0001b5d0:note off:         (0x83,0x35,0x4f).
time:  0001b5d0:note off:         (0x83,0x30,0x4f).
time:  0001b5d0:note off:         (0x83,0x29,0x4f).
time:  0001b5d0:note off:         (0x83,0x35,0x4f).
time:  0001b5d0:note off:         (0x83,0x30,0x4f).
time:  0001b5d0:note off:         (0x83,0x29,0x4f).
time:  0001b5d0:note on:          (0x93,0x35,0x7d).
time:  0001b5d0:note on:          (0x93,0x30,0x7d).
time:  0001b5d0:note on:          (0x93,0x29,0x7d).
time:  0001b60c:note off:         (0x83,0x35,0x4f).
time:  0001b60c:note off:         (0x83,0x30,0x4f).
time:  0001b60c:note off:         (0x83,0x29,0x4f).
time:  0001b60c:note on:          (0x93,0x35,0x7d).
time:  0001b60c:note on:          (0x93,0x30,0x7d).
time:  0001b60c:note on:          (0x93,0x29,0x7d).
time:  0001b648:note off:         (0x83,0x35,0x4f).
time:  0001b648:note off:         (0x83,0x30,0x4f).
time:  0001b648:note off:         (0x83,0x29,0x4f).
time:  0001b648:note on:          (0x93,0x3a,0x7d).
time:  0001b648:note on:          (0x93,0x35,0x7d).
time:  0001b648:note on:          (0x93,0x2e,0x7d).
time:  0001b6c0:note off:         (0x83,0x3a,0x4f).
time:  0001b6c0:note off:         (0x83,0x35,0x4f).
time:  0001b6c0:note off:         (0x83,0x2e,0x4f).
time:  0001b6c0:note on:          (0x93,0x3a,0x7d).
time:  0001b6c0:note on:          (0x93,0x35,0x7d).
time:  0001b6c0:note on:          (0x93,0x2e,0x7d).
time:  0001b738:note off:         (0x83,0x3a,0x4f).
time:  0001b738:note off:         (0x83,0x35,0x4f).
time:  0001b738:note off:         (0x83,0x2e,0x4f).
time:  0001b738:note on:          (0x93,0x35,0x7d).
time:  0001b738:note on:          (0x93,0x30,0x7d).
time:  0001b738:note on:          (0x93,0x29,0x7d).
time:  0001b7b0:note off:         (0x83,0x35,0x4f).
time:  0001b7b0:note off:         (0x83,0x30,0x4f).
time:  0001b7b0:note off:         (0x83,0x29,0x4f).
time:  0001b7b0:note on:          (0x93,0x38,0x7d).
time:  0001b7b0:note on:          (0x93,0x33,0x7d).
time:  0001b7b0:note on:          (0x93,0x2c,0x7d).
time:  0001b864:note on:          (0x93,0x38,0x7d).
time:  0001b864:note on:          (0x93,0x33,0x7d).
time:  0001b864:note on:          (0x93,0x2c,0x7d).
time:  0001b8a0:note off:         (0x83,0x38,0x4f).
time:  0001b8a0:note off:         (0x83,0x33,0x4f).
time:  0001b8a0:note off:         (0x83,0x2c,0x4f).
time:  0001b8a0:note off:         (0x83,0x38,0x4f).
time:  0001b8a0:note off:         (0x83,0x33,0x4f).
time:  0001b8a0:note off:         (0x83,0x2c,0x4f).
time:  0001b8a0:note on:          (0x93,0x38,0x7d).
time:  0001b8a0:note on:          (0x93,0x33,0x7d).
time:  0001b8a0:note on:          (0x93,0x2c,0x7d).
time:  0001b954:note on:          (0x93,0x38,0x7d).
time:  0001b954:note on:          (0x93,0x33,0x7d).
time:  0001b954:note on:          (0x93,0x2c,0x7d).
time:  0001b990:note off:         (0x83,0x38,0x4f).
time:  0001b990:note off:         (0x83,0x33,0x4f).
time:  0001b990:note off:         (0x83,0x2c,0x4f).
time:  0001b990:note off:         (0x83,0x38,0x4f).
time:  0001b990:note off:         (0x83,0x33,0x4f).
time:  0001b990:note off:         (0x83,0x2c,0x4f).
time:  0001b990:note on:          (0x93,0x38,0x7d).
time:  0001b990:note on:          (0x93,0x33,0x7d).
time:  0001b990:note on:          (0x93,0x2c,0x7d).
time:  0001b9cc:note off:         (0x83,0x38,0x4f).
time:  0001b9cc:note off:         (0x83,0x33,0x4f).
time:  0001b9cc:note off:         (0x83,0x2c,0x4f).
time:  0001b9cc:note on:          (0x93,0x38,0x7d).
time:  0001b9cc:note on:          (0x93,0x33,0x7d).
time:  0001b9cc:note on:          (0x93,0x2c,0x7d).
time:  0001ba08:note off:         (0x83,0x38,0x4f).
time:  0001ba08:note off:         (0x83,0x33,0x4f).
time:  0001ba08:note off:         (0x83,0x2c,0x4f).
time:  0001ba08:note on:          (0x93,0x3d,0x7d).
time:  0001ba08:note on:          (0x93,0x38,0x7d).
time:  0001ba08:note on:          (0x93,0x31,0x7d).
time:  0001ba80:note off:         (0x83,0x3d,0x4f).
time:  0001ba80:note off:         (0x83,0x38,0x4f).
time:  0001ba80:note off:         (0x83,0x31,0x4f).
time:  0001ba80:note on:          (0x93,0x3d,0x7d).
time:  0001ba80:note on:          (0x93,0x38,0x7d).
time:  0001ba80:note on:          (0x93,0x31,0x7d).
time:  0001baf8:note off:         (0x83,0x3d,0x4f).
time:  0001baf8:note off:         (0x83,0x38,0x4f).
time:  0001baf8:note off:         (0x83,0x31,0x4f).
time:  0001baf8:note on:          (0x93,0x38,0x7d).
time:  0001baf8:note on:          (0x93,0x33,0x7d).
time:  0001baf8:note on:          (0x93,0x2c,0x7d).
time:  0001bb70:note off:         (0x83,0x38,0x4f).
time:  0001bb70:note off:         (0x83,0x33,0x4f).
time:  0001bb70:note off:         (0x83,0x2c,0x4f).
time:  0001bb70:note on:          (0x93,0x35,0x7d).
time:  0001bb70:note on:          (0x93,0x30,0x7d).
time:  0001bb70:note on:          (0x93,0x29,0x7d).
time:  0001bc24:note on:          (0x93,0x35,0x7d).
time:  0001bc24:note on:          (0x93,0x30,0x7d).
time:  0001bc24:note on:          (0x93,0x29,0x7d).
time:  0001bc60:note off:         (0x83,0x35,0x4f).
time:  0001bc60:note off:         (0x83,0x30,0x4f).
time:  0001bc60:note off:         (0x83,0x29,0x4f).
time:  0001bc60:note off:         (0x83,0x35,0x4f).
time:  0001bc60:note off:         (0x83,0x30,0x4f).
time:  0001bc60:note off:         (0x83,0x29,0x4f).
time:  0001bc60:note on:          (0x93,0x35,0x7d).
time:  0001bc60:note on:          (0x93,0x30,0x7d).
time:  0001bc60:note on:          (0x93,0x29,0x7d).
time:  0001bd14:note on:          (0x93,0x35,0x7d).
time:  0001bd14:note on:          (0x93,0x30,0x7d).
time:  0001bd14:note on:          (0x93,0x29,0x7d).
time:  0001bd50:note off:         (0x83,0x35,0x4f).
time:  0001bd50:note off:         (0x83,0x30,0x4f).
time:  0001bd50:note off:         (0x83,0x29,0x4f).
time:  0001bd50:note off:         (0x83,0x35,0x4f).
time:  0001bd50:note off:         (0x83,0x30,0x4f).
time:  0001bd50:note off:         (0x83,0x29,0x4f).
time:  0001bd50:note on:          (0x93,0x35,0x7d).
time:  0001bd50:note on:          (0x93,0x30,0x7d).
time:  0001bd50:note on:          (0x93,0x29,0x7d).
time:  0001bd8c:note off:         (0x83,0x35,0x4f).
time:  0001bd8c:note off:         (0x83,0x30,0x4f).
time:  0001bd8c:note off:         (0x83,0x29,0x4f).
time:  0001bd8c:note on:          (0x93,0x35,0x7d).
time:  0001bd8c:note on:          (0x93,0x30,0x7d).
time:  0001bd8c:note on:          (0x93,0x29,0x7d).
time:  0001bdc8:note off:         (0x83,0x35,0x4f).
time:  0001bdc8:note off:         (0x83,0x30,0x4f).
time:  0001bdc8:note off:         (0x83,0x29,0x4f).
time:  0001bdc8:note on:          (0x93,0x3a,0x7d).
time:  0001bdc8:note on:          (0x93,0x35,0x7d).
time:  0001bdc8:note on:          (0x93,0x2e,0x7d).
time:  0001be40:note off:         (0x83,0x3a,0x4f).
time:  0001be40:note off:         (0x83,0x35,0x4f).
time:  0001be40:note off:         (0x83,0x2e,0x4f).
time:  0001be40:note on:          (0x93,0x3a,0x7d).
time:  0001be40:note on:          (0x93,0x35,0x7d).
time:  0001be40:note on:          (0x93,0x2e,0x7d).
time:  0001beb8:note off:         (0x83,0x3a,0x4f).
time:  0001beb8:note off:         (0x83,0x35,0x4f).
time:  0001beb8:note off:         (0x83,0x2e,0x4f).
time:  0001beb8:note on:          (0x93,0x35,0x7d).
time:  0001beb8:note on:          (0x93,0x30,0x7d).
time:  0001beb8:note on:          (0x93,0x29,0x7d).
time:  0001bf30:note off:         (0x83,0x35,0x4f).
time:  0001bf30:note off:         (0x83,0x30,0x4f).
time:  0001bf30:note off:         (0x83,0x29,0x4f).
time:  0001bf30:note on:          (0x93,0x38,0x7d).
time:  0001bf30:note on:          (0x93,0x33,0x7d).
time:  0001bf30:note on:          (0x93,0x2c,0x7d).
time:  0001bfe4:note on:          (0x93,0x38,0x7d).
time:  0001bfe4:note on:          (0x93,0x33,0x7d).
time:  0001bfe4:note on:          (0x93,0x2c,0x7d).
time:  0001c020:note off:         (0x83,0x38,0x4f).
time:  0001c020:note off:         (0x83,0x33,0x4f).
time:  0001c020:note off:         (0x83,0x2c,0x4f).
time:  0001c020:note off:         (0x83,0x38,0x4f).
time:  0001c020:note off:         (0x83,0x33,0x4f).
time:  0001c020:note off:         (0x83,0x2c,0x4f).
time:  0001c020:note on:          (0x93,0x38,0x7d).
time:  0001c020:note on:          (0x93,0x33,0x7d).
time:  0001c020:note on:          (0x93,0x2c,0x7d).
time:  0001c0d4:note on:          (0x93,0x38,0x7d).
time:  0001c0d4:note on:          (0x93,0x33,0x7d).
time:  0001c0d4:note on:          (0x93,0x2c,0x7d).
time:  0001c110:note off:         (0x83,0x38,0x4f).
time:  0001c110:note off:         (0x83,0x33,0x4f).
time:  0001c110:note off:         (0x83,0x2c,0x4f).
time:  0001c110:note off:         (0x83,0x38,0x4f).
time:  0001c110:note off:         (0x83,0x33,0x4f).
time:  0001c110:note off:         (0x83,0x2c,0x4f).
time:  0001c110:note on:          (0x93,0x38,0x7d).
time:  0001c110:note on:          (0x93,0x33,0x7d).
time:  0001c110:note on:          (0x93,0x2c,0x7d).
time:  0001c14c:note off:         (0x83,0x38,0x4f).
time:  0001c14c:note off:         (0x83,0x33,0x4f).
time:  0001c14c:note off:         (0x83,0x2c,0x4f).
time:  0001c14c:note on:          (0x93,0x38,0x7d).
time:  0001c14c:note on:          (0x93,0x33,0x7d).
time:  0001c14c:note on:          (0x93,0x2c,0x7d).
time:  0001c188:note off:         (0x83,0x38,0x4f).
time:  0001c188:note off:         (0x83,0x33,0x4f).
time:  0001c188:note off:         (0x83,0x2c,0x4f).
time:  0001c188:note on:          (0x93,0x3d,0x7d).
time:  0001c188:note on:          (0x93,0x38,0x7d).
time:  0001c188:note on:          (0x93,0x31,0x7d).
time:  0001c200:note off:         (0x83,0x3d,0x4f).
time:  0001c200:note off:         (0x83,0x38,0x4f).
time:  0001c200:note off:         (0x83,0x31,0x4f).
time:  0001c200:note on:          (0x93,0x3d,0x7d).
time:  0001c200:note on:          (0x93,0x38,0x7d).
time:  0001c200:note on:          (0x93,0x31,0x7d).
time:  0001c278:note off:         (0x83,0x3d,0x4f).
time:  0001c278:note off:         (0x83,0x38,0x4f).
time:  0001c278:note off:         (0x83,0x31,0x4f).
time:  0001c278:note on:          (0x93,0x3d,0x7d).
time:  0001c278:note on:          (0x93,0x31,0x7d).
time:  0001c278:note on:          (0x93,0x38,0x7d).
time:  0001c2f0:note off:         (0x83,0x3d,0x4f).
time:  0001c2f0:note off:         (0x83,0x31,0x4f).
time:  0001c2f0:note off:         (0x83,0x38,0x4f).
time:  0001c2f0:note on:          (0x93,0x35,0x7d).
time:  0001c2f0:note on:          (0x93,0x30,0x7d).
time:  0001c2f0:note on:          (0x93,0x29,0x7d).
time:  0001c3a4:note on:          (0x93,0x35,0x7d).
time:  0001c3a4:note on:          (0x93,0x30,0x7d).
time:  0001c3a4:note on:          (0x93,0x29,0x7d).
time:  0001c3e0:note off:         (0x83,0x35,0x4f).
time:  0001c3e0:note off:         (0x83,0x30,0x4f).
time:  0001c3e0:note off:         (0x83,0x29,0x4f).
time:  0001c3e0:note off:         (0x83,0x35,0x4f).
time:  0001c3e0:note off:         (0x83,0x30,0x4f).
time:  0001c3e0:note off:         (0x83,0x29,0x4f).
time:  0001c3e0:note on:          (0x93,0x35,0x7d).
time:  0001c3e0:note on:          (0x93,0x30,0x7d).
time:  0001c3e0:note on:          (0x93,0x29,0x7d).
time:  0001c494:note on:          (0x93,0x35,0x7d).
time:  0001c494:note on:          (0x93,0x30,0x7d).
time:  0001c494:note on:          (0x93,0x29,0x7d).
time:  0001c4d0:note off:         (0x83,0x35,0x4f).
time:  0001c4d0:note off:         (0x83,0x30,0x4f).
time:  0001c4d0:note off:         (0x83,0x29,0x4f).
time:  0001c4d0:note off:         (0x83,0x35,0x4f).
time:  0001c4d0:note off:         (0x83,0x30,0x4f).
time:  0001c4d0:note off:         (0x83,0x29,0x4f).
time:  0001c4d0:note on:          (0x93,0x35,0x7d).
time:  0001c4d0:note on:          (0x93,0x30,0x7d).
time:  0001c4d0:note on:          (0x93,0x29,0x7d).
time:  0001c50c:note off:         (0x83,0x35,0x4f).
time:  0001c50c:note off:         (0x83,0x30,0x4f).
time:  0001c50c:note off:         (0x83,0x29,0x4f).
time:  0001c50c:note on:          (0x93,0x35,0x7d).
time:  0001c50c:note on:          (0x93,0x30,0x7d).
time:  0001c50c:note on:          (0x93,0x29,0x7d).
time:  0001c548:note off:         (0x83,0x35,0x4f).
time:  0001c548:note off:         (0x83,0x30,0x4f).
time:  0001c548:note off:         (0x83,0x29,0x4f).
time:  0001c548:note on:          (0x93,0x3a,0x7d).
time:  0001c548:note on:          (0x93,0x35,0x7d).
time:  0001c548:note on:          (0x93,0x2e,0x7d).
time:  0001c5c0:note off:         (0x83,0x3a,0x4f).
time:  0001c5c0:note off:         (0x83,0x35,0x4f).
time:  0001c5c0:note off:         (0x83,0x2e,0x4f).
time:  0001c5c0:note on:          (0x93,0x3a,0x7d).
time:  0001c5c0:note on:          (0x93,0x35,0x7d).
time:  0001c5c0:note on:          (0x93,0x2e,0x7d).
time:  0001c638:note off:         (0x83,0x3a,0x4f).
time:  0001c638:note off:         (0x83,0x35,0x4f).
time:  0001c638:note off:         (0x83,0x2e,0x4f).
time:  0001c638:note on:          (0x93,0x35,0x7d).
time:  0001c638:note on:          (0x93,0x30,0x7d).
time:  0001c638:note on:          (0x93,0x29,0x7d).
time:  0001c6b0:note off:         (0x83,0x35,0x4f).
time:  0001c6b0:note off:         (0x83,0x30,0x4f).
time:  0001c6b0:note off:         (0x83,0x29,0x4f).
time:  0001c6b0:note on:          (0x93,0x38,0x7d).
time:  0001c6b0:note on:          (0x93,0x33,0x7d).
time:  0001c6b0:note on:          (0x93,0x2c,0x7d).
time:  0001c764:note on:          (0x93,0x38,0x7d).
time:  0001c764:note on:          (0x93,0x33,0x7d).
time:  0001c764:note on:          (0x93,0x2c,0x7d).
time:  0001c7a0:note off:         (0x83,0x38,0x4f).
time:  0001c7a0:note off:         (0x83,0x33,0x4f).
time:  0001c7a0:note off:         (0x83,0x2c,0x4f).
time:  0001c7a0:note off:         (0x83,0x38,0x4f).
time:  0001c7a0:note off:         (0x83,0x33,0x4f).
time:  0001c7a0:note off:         (0x83,0x2c,0x4f).
time:  0001c7a0:note on:          (0x93,0x38,0x7d).
time:  0001c7a0:note on:          (0x93,0x33,0x7d).
time:  0001c7a0:note on:          (0x93,0x2c,0x7d).
time:  0001c854:note on:          (0x93,0x38,0x7d).
time:  0001c854:note on:          (0x93,0x33,0x7d).
time:  0001c854:note on:          (0x93,0x2c,0x7d).
time:  0001c890:note off:         (0x83,0x38,0x4f).
time:  0001c890:note off:         (0x83,0x33,0x4f).
time:  0001c890:note off:         (0x83,0x2c,0x4f).
time:  0001c890:note off:         (0x83,0x38,0x4f).
time:  0001c890:note off:         (0x83,0x33,0x4f).
time:  0001c890:note off:         (0x83,0x2c,0x4f).
time:  0001c890:note on:          (0x93,0x38,0x7d).
time:  0001c890:note on:          (0x93,0x33,0x7d).
time:  0001c890:note on:          (0x93,0x2c,0x7d).
time:  0001c8cc:note off:         (0x83,0x38,0x4f).
time:  0001c8cc:note off:         (0x83,0x33,0x4f).
time:  0001c8cc:note off:         (0x83,0x2c,0x4f).
time:  0001c8cc:note on:          (0x93,0x38,0x7d).
time:  0001c8cc:note on:          (0x93,0x33,0x7d).
time:  0001c8cc:note on:          (0x93,0x2c,0x7d).
time:  0001c908:note off:         (0x83,0x38,0x4f).
time:  0001c908:note off:         (0x83,0x33,0x4f).
time:  0001c908:note off:         (0x83,0x2c,0x4f).
time:  0001c908:note on:          (0x93,0x3d,0x7d).
time:  0001c908:note on:          (0x93,0x38,0x7d).
time:  0001c908:note on:          (0x93,0x31,0x7d).
time:  0001c980:note off:         (0x83,0x3d,0x4f).
time:  0001c980:note off:         (0x83,0x38,0x4f).
time:  0001c980:note off:         (0x83,0x31,0x4f).
time:  0001c980:note on:          (0x93,0x3d,0x7d).
time:  0001c980:note on:          (0x93,0x38,0x7d).
time:  0001c980:note on:          (0x93,0x31,0x7d).
time:  0001c9f8:note off:         (0x83,0x3d,0x4f).
time:  0001c9f8:note off:         (0x83,0x38,0x4f).
time:  0001c9f8:note off:         (0x83,0x31,0x4f).
time:  0001c9f8:note on:          (0x93,0x38,0x7d).
time:  0001c9f8:note on:          (0x93,0x33,0x7d).
time:  0001c9f8:note on:          (0x93,0x2c,0x7d).
time:  0001ca70:note off:         (0x83,0x38,0x4f).
time:  0001ca70:note off:         (0x83,0x33,0x4f).
time:  0001ca70:note off:         (0x83,0x2c,0x4f).
time:  0001ca70:note on:          (0x93,0x35,0x7d).
time:  0001ca70:note on:          (0x93,0x30,0x7d).
time:  0001ca70:note on:          (0x93,0x29,0x7d).
time:  0001cb24:note on:          (0x93,0x35,0x7d).
time:  0001cb24:note on:          (0x93,0x30,0x7d).
time:  0001cb24:note on:          (0x93,0x29,0x7d).
time:  0001cb60:note off:         (0x83,0x35,0x4f).
time:  0001cb60:note off:         (0x83,0x30,0x4f).
time:  0001cb60:note off:         (0x83,0x29,0x4f).
time:  0001cb60:note off:         (0x83,0x35,0x4f).
time:  0001cb60:note off:         (0x83,0x30,0x4f).
time:  0001cb60:note off:         (0x83,0x29,0x4f).
time:  0001cb60:note on:          (0x93,0x35,0x7d).
time:  0001cb60:note on:          (0x93,0x30,0x7d).
time:  0001cb60:note on:          (0x93,0x29,0x7d).
time:  0001cc14:note on:          (0x93,0x35,0x7d).
time:  0001cc14:note on:          (0x93,0x30,0x7d).
time:  0001cc14:note on:          (0x93,0x29,0x7d).
time:  0001cc50:note off:         (0x83,0x35,0x4f).
time:  0001cc50:note off:         (0x83,0x30,0x4f).
time:  0001cc50:note off:         (0x83,0x29,0x4f).
time:  0001cc50:note off:         (0x83,0x35,0x4f).
time:  0001cc50:note off:         (0x83,0x30,0x4f).
time:  0001cc50:note off:         (0x83,0x29,0x4f).
time:  0001cc50:note on:          (0x93,0x35,0x7d).
time:  0001cc50:note on:          (0x93,0x30,0x7d).
time:  0001cc50:note on:          (0x93,0x29,0x7d).
time:  0001cc8c:note off:         (0x83,0x35,0x4f).
time:  0001cc8c:note off:         (0x83,0x30,0x4f).
time:  0001cc8c:note off:         (0x83,0x29,0x4f).
time:  0001cc8c:note on:          (0x93,0x35,0x7d).
time:  0001cc8c:note on:          (0x93,0x30,0x7d).
time:  0001cc8c:note on:          (0x93,0x29,0x7d).
time:  0001ccc8:note off:         (0x83,0x35,0x4f).
time:  0001ccc8:note off:         (0x83,0x30,0x4f).
time:  0001ccc8:note off:         (0x83,0x29,0x4f).
time:  0001ccc8:note on:          (0x93,0x3a,0x7d).
time:  0001ccc8:note on:          (0x93,0x35,0x7d).
time:  0001ccc8:note on:          (0x93,0x2e,0x7d).
time:  0001cd40:note off:         (0x83,0x3a,0x4f).
time:  0001cd40:note off:         (0x83,0x35,0x4f).
time:  0001cd40:note off:         (0x83,0x2e,0x4f).
time:  0001cd40:note on:          (0x93,0x3a,0x7d).
time:  0001cd40:note on:          (0x93,0x35,0x7d).
time:  0001cd40:note on:          (0x93,0x2e,0x7d).
time:  0001cdb8:note off:         (0x83,0x3a,0x4f).
time:  0001cdb8:note off:         (0x83,0x35,0x4f).
time:  0001cdb8:note off:         (0x83,0x2e,0x4f).
time:  0001cdb8:note on:          (0x93,0x35,0x7d).
time:  0001cdb8:note on:          (0x93,0x30,0x7d).
time:  0001cdb8:note on:          (0x93,0x29,0x7d).
time:  0001ce30:note off:         (0x83,0x35,0x4f).
time:  0001ce30:note off:         (0x83,0x30,0x4f).
time:  0001ce30:note off:         (0x83,0x29,0x4f).
time:  0001ce30:note on:          (0x93,0x38,0x7d).
time:  0001ce30:note on:          (0x93,0x33,0x7d).
time:  0001ce30:note on:          (0x93,0x2c,0x7d).
time:  0001cee4:note on:          (0x93,0x38,0x7d).
time:  0001cee4:note on:          (0x93,0x33,0x7d).
time:  0001cee4:note on:          (0x93,0x2c,0x7d).
time:  0001cf20:note off:         (0x83,0x38,0x4f).
time:  0001cf20:note off:         (0x83,0x33,0x4f).
time:  0001cf20:note off:         (0x83,0x2c,0x4f).
time:  0001cf20:note off:         (0x83,0x38,0x4f).
time:  0001cf20:note off:         (0x83,0x33,0x4f).
time:  0001cf20:note off:         (0x83,0x2c,0x4f).
time:  0001cf20:note on:          (0x93,0x38,0x7d).
time:  0001cf20:note on:          (0x93,0x33,0x7d).
time:  0001cf20:note on:          (0x93,0x2c,0x7d).
time:  0001cfd4:note on:          (0x93,0x38,0x7d).
time:  0001cfd4:note on:          (0x93,0x33,0x7d).
time:  0001cfd4:note on:          (0x93,0x2c,0x7d).
time:  0001d010:note off:         (0x83,0x38,0x4f).
time:  0001d010:note off:         (0x83,0x33,0x4f).
time:  0001d010:note off:         (0x83,0x2c,0x4f).
time:  0001d010:note off:         (0x83,0x38,0x4f).
time:  0001d010:note off:         (0x83,0x33,0x4f).
time:  0001d010:note off:         (0x83,0x2c,0x4f).
time:  0001d010:note on:          (0x93,0x38,0x7d).
time:  0001d010:note on:          (0x93,0x33,0x7d).
time:  0001d010:note on:          (0x93,0x2c,0x7d).
time:  0001d04c:note off:         (0x83,0x38,0x4f).
time:  0001d04c:note off:         (0x83,0x33,0x4f).
time:  0001d04c:note off:         (0x83,0x2c,0x4f).
time:  0001d04c:note on:          (0x93,0x38,0x7d).
time:  0001d04c:note on:          (0x93,0x33,0x7d).
time:  0001d04c:note on:          (0x93,0x2c,0x7d).
time:  0001d088:note off:         (0x83,0x38,0x4f).
time:  0001d088:note off:         (0x83,0x33,0x4f).
time:  0001d088:note off:         (0x83,0x2c,0x4f).
time:  0001d088:note on:          (0x93,0x3d,0x7d).
time:  0001d088:note on:          (0x93,0x38,0x7d).
time:  0001d088:note on:          (0x93,0x31,0x7d).
time:  0001d100:note off:         (0x83,0x3d,0x4f).
time:  0001d100:note off:         (0x83,0x38,0x4f).
time:  0001d100:note off:         (0x83,0x31,0x4f).
time:  0001d100:note on:          (0x93,0x3d,0x7d).
time:  0001d100:note on:          (0x93,0x38,0x7d).
time:  0001d100:note on:          (0x93,0x31,0x7d).
time:  0001d178:note off:         (0x83,0x3d,0x4f).
time:  0001d178:note off:         (0x83,0x38,0x4f).
time:  0001d178:note off:         (0x83,0x31,0x4f).
time:  0001d178:note on:          (0x93,0x38,0x7d).
time:  0001d178:note on:          (0x93,0x33,0x7d).
time:  0001d178:note on:          (0x93,0x2c,0x7d).
time:  0001d1f0:note off:         (0x83,0x38,0x4f).
time:  0001d1f0:note off:         (0x83,0x33,0x4f).
time:  0001d1f0:note off:         (0x83,0x2c,0x4f).
time:  0001d1f0:note on:          (0x93,0x35,0x7d).
time:  0001d1f0:note on:          (0x93,0x30,0x7d).
time:  0001d1f0:note on:          (0x93,0x29,0x7d).
time:  0001d2a4:note on:          (0x93,0x35,0x7d).
time:  0001d2a4:note on:          (0x93,0x30,0x7d).
time:  0001d2a4:note on:          (0x93,0x29,0x7d).
time:  0001d2e0:note off:         (0x83,0x35,0x4f).
time:  0001d2e0:note off:         (0x83,0x30,0x4f).
time:  0001d2e0:note off:         (0x83,0x29,0x4f).
time:  0001d2e0:note off:         (0x83,0x35,0x4f).
time:  0001d2e0:note off:         (0x83,0x30,0x4f).
time:  0001d2e0:note off:         (0x83,0x29,0x4f).
time:  0001d2e0:note on:          (0x93,0x35,0x7d).
time:  0001d2e0:note on:          (0x93,0x30,0x7d).
time:  0001d2e0:note on:          (0x93,0x29,0x7d).
time:  0001d394:note on:          (0x93,0x35,0x7d).
time:  0001d394:note on:          (0x93,0x30,0x7d).
time:  0001d394:note on:          (0x93,0x29,0x7d).
time:  0001d3d0:note off:         (0x83,0x35,0x4f).
time:  0001d3d0:note off:         (0x83,0x30,0x4f).
time:  0001d3d0:note off:         (0x83,0x29,0x4f).
time:  0001d3d0:note off:         (0x83,0x35,0x4f).
time:  0001d3d0:note off:         (0x83,0x30,0x4f).
time:  0001d3d0:note off:         (0x83,0x29,0x4f).
time:  0001d3d0:note on:          (0x93,0x35,0x7d).
time:  0001d3d0:note on:          (0x93,0x30,0x7d).
time:  0001d3d0:note on:          (0x93,0x29,0x7d).
time:  0001d40c:note off:         (0x83,0x35,0x4f).
time:  0001d40c:note off:         (0x83,0x30,0x4f).
time:  0001d40c:note off:         (0x83,0x29,0x4f).
time:  0001d40c:note on:          (0x93,0x35,0x7d).
time:  0001d40c:note on:          (0x93,0x30,0x7d).
time:  0001d40c:note on:          (0x93,0x29,0x7d).
time:  0001d448:note off:         (0x83,0x35,0x4f).
time:  0001d448:note off:         (0x83,0x30,0x4f).
time:  0001d448:note off:         (0x83,0x29,0x4f).
time:  0001d448:note on:          (0x93,0x3a,0x7d).
time:  0001d448:note on:          (0x93,0x35,0x7d).
time:  0001d448:note on:          (0x93,0x2e,0x7d).
time:  0001d4c0:note off:         (0x83,0x3a,0x4f).
time:  0001d4c0:note off:         (0x83,0x35,0x4f).
time:  0001d4c0:note off:         (0x83,0x2e,0x4f).
time:  0001d4c0:note on:          (0x93,0x3a,0x7d).
time:  0001d4c0:note on:          (0x93,0x35,0x7d).
time:  0001d4c0:note on:          (0x93,0x2e,0x7d).
time:  0001d538:note off:         (0x83,0x3a,0x4f).
time:  0001d538:note off:         (0x83,0x35,0x4f).
time:  0001d538:note off:         (0x83,0x2e,0x4f).
time:  0001d538:note on:          (0x93,0x35,0x7d).
time:  0001d538:note on:          (0x93,0x30,0x7d).
time:  0001d538:note on:          (0x93,0x29,0x7d).
time:  0001d5b0:note off:         (0x83,0x35,0x4f).
time:  0001d5b0:note off:         (0x83,0x30,0x4f).
time:  0001d5b0:note off:         (0x83,0x29,0x4f).
time:  0001d5b0:note on:          (0x93,0x38,0x7d).
time:  0001d5b0:note on:          (0x93,0x33,0x7d).
time:  0001d5b0:note on:          (0x93,0x2c,0x7d).
time:  0001d664:note on:          (0x93,0x38,0x7d).
time:  0001d664:note on:          (0x93,0x33,0x7d).
time:  0001d664:note on:          (0x93,0x2c,0x7d).
time:  0001d6a0:note off:         (0x83,0x38,0x4f).
time:  0001d6a0:note off:         (0x83,0x33,0x4f).
time:  0001d6a0:note off:         (0x83,0x2c,0x4f).
time:  0001d6a0:note off:         (0x83,0x38,0x4f).
time:  0001d6a0:note off:         (0x83,0x33,0x4f).
time:  0001d6a0:note off:         (0x83,0x2c,0x4f).
time:  0001d6a0:note on:          (0x93,0x38,0x7d).
time:  0001d6a0:note on:          (0x93,0x33,0x7d).
time:  0001d6a0:note on:          (0x93,0x2c,0x7d).
time:  0001d754:note on:          (0x93,0x38,0x7d).
time:  0001d754:note on:          (0x93,0x33,0x7d).
time:  0001d754:note on:          (0x93,0x2c,0x7d).
time:  0001d790:note off:         (0x83,0x38,0x4f).
time:  0001d790:note off:         (0x83,0x33,0x4f).
time:  0001d790:note off:         (0x83,0x2c,0x4f).
time:  0001d790:note off:         (0x83,0x38,0x4f).
time:  0001d790:note off:         (0x83,0x33,0x4f).
time:  0001d790:note off:         (0x83,0x2c,0x4f).
time:  0001d790:note on:          (0x93,0x38,0x7d).
time:  0001d790:note on:          (0x93,0x33,0x7d).
time:  0001d790:note on:          (0x93,0x2c,0x7d).
time:  0001d7cc:note off:         (0x83,0x38,0x4f).
time:  0001d7cc:note off:         (0x83,0x33,0x4f).
time:  0001d7cc:note off:         (0x83,0x2c,0x4f).
time:  0001d7cc:note on:          (0x93,0x38,0x7d).
time:  0001d7cc:note on:          (0x93,0x33,0x7d).
time:  0001d7cc:note on:          (0x93,0x2c,0x7d).
time:  0001d808:note off:         (0x83,0x38,0x4f).
time:  0001d808:note off:         (0x83,0x33,0x4f).
time:  0001d808:note off:         (0x83,0x2c,0x4f).
time:  0001d808:note on:          (0x93,0x3d,0x7d).
time:  0001d808:note on:          (0x93,0x38,0x7d).
time:  0001d808:note on:          (0x93,0x31,0x7d).
time:  0001d880:note off:         (0x83,0x3d,0x4f).
time:  0001d880:note off:         (0x83,0x38,0x4f).
time:  0001d880:note off:         (0x83,0x31,0x4f).
time:  0001d880:note on:          (0x93,0x3d,0x7d).
time:  0001d880:note on:          (0x93,0x38,0x7d).
time:  0001d880:note on:          (0x93,0x31,0x7d).
time:  0001d8f8:note off:         (0x83,0x3d,0x4f).
time:  0001d8f8:note off:         (0x83,0x38,0x4f).
time:  0001d8f8:note off:         (0x83,0x31,0x4f).
time:  0001d8f8:note on:          (0x93,0x38,0x7d).
time:  0001d8f8:note on:          (0x93,0x33,0x7d).
time:  0001d8f8:note on:          (0x93,0x2c,0x7d).
time:  0001d970:note off:         (0x83,0x38,0x4f).
time:  0001d970:note off:         (0x83,0x33,0x4f).
time:  0001d970:note off:         (0x83,0x2c,0x4f).
time:  0001d970:note on:          (0x93,0x35,0x7d).
time:  0001d970:note on:          (0x93,0x30,0x7d).
time:  0001d970:note on:          (0x93,0x29,0x7d).
time:  0001da24:note on:          (0x93,0x35,0x7d).
time:  0001da24:note on:          (0x93,0x30,0x7d).
time:  0001da24:note on:          (0x93,0x29,0x7d).
time:  0001da60:note off:         (0x83,0x35,0x4f).
time:  0001da60:note off:         (0x83,0x30,0x4f).
time:  0001da60:note off:         (0x83,0x29,0x4f).
time:  0001da60:note off:         (0x83,0x35,0x4f).
time:  0001da60:note off:         (0x83,0x30,0x4f).
time:  0001da60:note off:         (0x83,0x29,0x4f).
time:  0001da60:note on:          (0x93,0x35,0x7d).
time:  0001da60:note on:          (0x93,0x30,0x7d).
time:  0001da60:note on:          (0x93,0x29,0x7d).
time:  0001db14:note on:          (0x93,0x35,0x7d).
time:  0001db14:note on:          (0x93,0x30,0x7d).
time:  0001db14:note on:          (0x93,0x29,0x7d).
time:  0001db50:note off:         (0x83,0x35,0x4f).
time:  0001db50:note off:         (0x83,0x30,0x4f).
time:  0001db50:note off:         (0x83,0x29,0x4f).
time:  0001db50:note off:         (0x83,0x35,0x4f).
time:  0001db50:note off:         (0x83,0x30,0x4f).
time:  0001db50:note off:         (0x83,0x29,0x4f).
time:  0001db50:note on:          (0x93,0x35,0x7d).
time:  0001db50:note on:          (0x93,0x30,0x7d).
time:  0001db50:note on:          (0x93,0x29,0x7d).
time:  0001db8c:note off:         (0x83,0x35,0x4f).
time:  0001db8c:note off:         (0x83,0x30,0x4f).
time:  0001db8c:note off:         (0x83,0x29,0x4f).
time:  0001db8c:note on:          (0x93,0x35,0x7d).
time:  0001db8c:note on:          (0x93,0x30,0x7d).
time:  0001db8c:note on:          (0x93,0x29,0x7d).
time:  0001dbc8:note off:         (0x83,0x35,0x4f).
time:  0001dbc8:note off:         (0x83,0x30,0x4f).
time:  0001dbc8:note off:         (0x83,0x29,0x4f).
time:  0001dbc8:note on:          (0x93,0x3a,0x7d).
time:  0001dbc8:note on:          (0x93,0x35,0x7d).
time:  0001dbc8:note on:          (0x93,0x2e,0x7d).
time:  0001dc40:note off:         (0x83,0x3a,0x4f).
time:  0001dc40:note off:         (0x83,0x35,0x4f).
time:  0001dc40:note off:         (0x83,0x2e,0x4f).
time:  0001dc40:note on:          (0x93,0x3a,0x7d).
time:  0001dc40:note on:          (0x93,0x35,0x7d).
time:  0001dc40:note on:          (0x93,0x2e,0x7d).
time:  0001dcb8:note off:         (0x83,0x3a,0x4f).
time:  0001dcb8:note off:         (0x83,0x35,0x4f).
time:  0001dcb8:note off:         (0x83,0x2e,0x4f).
time:  0001dcb8:note on:          (0x93,0x35,0x7d).
time:  0001dcb8:note on:          (0x93,0x30,0x7d).
time:  0001dcb8:note on:          (0x93,0x29,0x7d).
time:  0001dd30:note off:         (0x83,0x35,0x4f).
time:  0001dd30:note off:         (0x83,0x30,0x4f).
time:  0001dd30:note off:         (0x83,0x29,0x4f).
time:  0001dd30:note on:          (0x93,0x38,0x7d).
time:  0001dd30:note on:          (0x93,0x33,0x7d).
time:  0001dd30:note on:          (0x93,0x2c,0x7d).
time:  0001dde4:note on:          (0x93,0x38,0x7d).
time:  0001dde4:note on:          (0x93,0x33,0x7d).
time:  0001dde4:note on:          (0x93,0x2c,0x7d).
time:  0001de20:note off:         (0x83,0x38,0x4f).
time:  0001de20:note off:         (0x83,0x33,0x4f).
time:  0001de20:note off:         (0x83,0x2c,0x4f).
time:  0001de20:note off:         (0x83,0x38,0x4f).
time:  0001de20:note off:         (0x83,0x33,0x4f).
time:  0001de20:note off:         (0x83,0x2c,0x4f).
time:  0001de20:note on:          (0x93,0x38,0x7d).
time:  0001de20:note on:          (0x93,0x33,0x7d).
time:  0001de20:note on:          (0x93,0x2c,0x7d).
time:  0001ded4:note on:          (0x93,0x38,0x7d).
time:  0001ded4:note on:          (0x93,0x33,0x7d).
time:  0001ded4:note on:          (0x93,0x2c,0x7d).
time:  0001df10:note off:         (0x83,0x38,0x4f).
time:  0001df10:note off:         (0x83,0x33,0x4f).
time:  0001df10:note off:         (0x83,0x2c,0x4f).
time:  0001df10:note off:         (0x83,0x38,0x4f).
time:  0001df10:note off:         (0x83,0x33,0x4f).
time:  0001df10:note off:         (0x83,0x2c,0x4f).
time:  0001df10:note on:          (0x93,0x38,0x7d).
time:  0001df10:note on:          (0x93,0x33,0x7d).
time:  0001df10:note on:          (0x93,0x2c,0x7d).
time:  0001df4c:note off:         (0x83,0x38,0x4f).
time:  0001df4c:note off:         (0x83,0x33,0x4f).
time:  0001df4c:note off:         (0x83,0x2c,0x4f).
time:  0001df4c:note on:          (0x93,0x38,0x7d).
time:  0001df4c:note on:          (0x93,0x33,0x7d).
time:  0001df4c:note on:          (0x93,0x2c,0x7d).
time:  0001df88:note off:         (0x83,0x38,0x4f).
time:  0001df88:note off:         (0x83,0x33,0x4f).
time:  0001df88:note off:         (0x83,0x2c,0x4f).
time:  0001df88:note on:          (0x93,0x3d,0x7d).
time:  0001df88:note on:          (0x93,0x38,0x7d).
time:  0001df88:note on:          (0x93,0x31,0x7d).
time:  0001e000:note off:         (0x83,0x3d,0x4f).
time:  0001e000:note off:         (0x83,0x38,0x4f).
time:  0001e000:note off:         (0x83,0x31,0x4f).
time:  0001e000:note on:          (0x93,0x3d,0x7d).
time:  0001e000:note on:          (0x93,0x38,0x7d).
time:  0001e000:note on:          (0x93,0x31,0x7d).
time:  0001e078:note off:         (0x83,0x3d,0x4f).
time:  0001e078:note off:         (0x83,0x38,0x4f).
time:  0001e078:note off:         (0x83,0x31,0x4f).
time:  0001e078:note on:          (0x93,0x38,0x7d).
time:  0001e078:note on:          (0x93,0x33,0x7d).
time:  0001e078:note on:          (0x93,0x2c,0x7d).
time:  0001e0f0:note off:         (0x83,0x38,0x4f).
time:  0001e0f0:note off:         (0x83,0x33,0x4f).
time:  0001e0f0:note off:         (0x83,0x2c,0x4f).
time:  0001e0f0:note on:          (0x93,0x35,0x6a).
time:  0001e0f0:note on:          (0x93,0x30,0x6a).
time:  0001e0f0:note on:          (0x93,0x29,0x6a).
time:  0001e872:note off:         (0x83,0x35,0x43).
time:  0001e872:note off:         (0x83,0x30,0x43).
time:  0001e872:note off:         (0x83,0x29,0x43).
time:  0001e872:Special non-MIDI event: End of Track.
Track #5. (zero-based)
len    :0x00002043.
time:  00000000:Special non-MIDI event: Text message type 0x03,len 0x16
Chris Novoselic -Bass-
time:  00000000:program change:   (0xc4,0x24).
time:  00000000:controller:       (0xb4,0x00,0x00).
time:  00000ff0:note on:          (0x94,0x1d,0x7f).
time:  00001068:note off:         (0x84,0x1d,0x68).
time:  000010a4:note on:          (0x94,0x1d,0x7f).
time:  000010e0:note off:         (0x84,0x1d,0x68).
time:  000010e0:note on:          (0x94,0x1d,0x7f).
time:  00001158:note off:         (0x84,0x1d,0x68).
time:  00001194:note on:          (0x94,0x1d,0x7f).
time:  000011d0:note off:         (0x84,0x1d,0x68).
time:  000011d0:note on:          (0x94,0x1d,0x7f).
time:  0000120c:note off:         (0x84,0x1d,0x68).
time:  0000120c:note on:          (0x94,0x1d,0x7f).
time:  00001248:note off:         (0x84,0x1d,0x68).
time:  00001248:note on:          (0x94,0x22,0x7f).
time:  000012c0:note off:         (0x84,0x22,0x68).
time:  000012c0:note on:          (0x94,0x22,0x7f).
time:  00001338:note off:         (0x84,0x22,0x68).
time:  00001338:note on:          (0x94,0x1d,0x7f).
time:  000013b0:note off:         (0x84,0x1d,0x68).
time:  000013b0:note on:          (0x94,0x20,0x7f).
time:  00001428:note off:         (0x84,0x20,0x68).
time:  00001464:note on:          (0x94,0x20,0x7f).
time:  000014a0:note off:         (0x84,0x20,0x68).
time:  000014a0:note on:          (0x94,0x20,0x7f).
time:  00001518:note off:         (0x84,0x20,0x68).
time:  00001554:note on:          (0x94,0x20,0x7f).
time:  00001590:note off:         (0x84,0x20,0x68).
time:  00001590:note on:          (0x94,0x20,0x7f).
time:  000015cc:note off:         (0x84,0x20,0x68).
time:  000015cc:note on:          (0x94,0x20,0x7f).
time:  00001608:note off:         (0x84,0x20,0x68).
time:  00001608:note on:          (0x94,0x25,0x7f).
time:  00001680:note off:         (0x84,0x25,0x68).
time:  00001680:note on:          (0x94,0x25,0x7f).
time:  000016f8:note off:         (0x84,0x25,0x68).
time:  000016f8:note on:          (0x94,0x20,0x7f).
time:  00001770:note off:         (0x84,0x20,0x68).
time:  00001770:note on:          (0x94,0x1d,0x7f).
time:  000017e8:note off:         (0x84,0x1d,0x68).
time:  00001824:note on:          (0x94,0x1d,0x7f).
time:  00001860:note off:         (0x84,0x1d,0x68).
time:  00001860:note on:          (0x94,0x1d,0x7f).
time:  000018d8:note off:         (0x84,0x1d,0x68).
time:  00001914:note on:          (0x94,0x1d,0x7f).
time:  00001950:note off:         (0x84,0x1d,0x68).
time:  00001950:note on:          (0x94,0x1d,0x7f).
time:  0000198c:note off:         (0x84,0x1d,0x68).
time:  0000198c:note on:          (0x94,0x1d,0x7f).
time:  000019c8:note off:         (0x84,0x1d,0x68).
time:  000019c8:note on:          (0x94,0x22,0x7f).
time:  00001a40:note off:         (0x84,0x22,0x68).
time:  00001a40:note on:          (0x94,0x22,0x7f).
time:  00001ab8:note off:         (0x84,0x22,0x68).
time:  00001ab8:note on:          (0x94,0x1d,0x7f).
time:  00001b30:note off:         (0x84,0x1d,0x68).
time:  00001b30:note on:          (0x94,0x20,0x7f).
time:  00001ba8:note off:         (0x84,0x20,0x68).
time:  00001be4:note on:          (0x94,0x20,0x7f).
time:  00001c20:note off:         (0x84,0x20,0x68).
time:  00001c20:note on:          (0x94,0x20,0x7f).
time:  00001c98:note off:         (0x84,0x20,0x68).
time:  00001cd4:note on:          (0x94,0x20,0x7f).
time:  00001d10:note off:         (0x84,0x20,0x68).
time:  00001d10:note on:          (0x94,0x20,0x7f).
time:  00001d4c:note off:         (0x84,0x20,0x68).
time:  00001d4c:note on:          (0x94,0x20,0x7f).
time:  00001d88:note off:         (0x84,0x20,0x68).
time:  00001d88:note on:          (0x94,0x25,0x7f).
time:  00001e00:note off:         (0x84,0x25,0x68).
time:  00001e00:note on:          (0x94,0x25,0x7f).
time:  00001e78:note off:         (0x84,0x25,0x68).
time:  00001e78:note on:          (0x94,0x20,0x7f).
time:  00001ef0:note off:         (0x84,0x20,0x68).
time:  00001ef0:note on:          (0x94,0x1d,0x7f).
time:  00001f68:note off:         (0x84,0x1d,0x68).
time:  00001fa4:note on:          (0x94,0x1d,0x7f).
time:  00001fe0:note off:         (0x84,0x1d,0x68).
time:  00001fe0:note on:          (0x94,0x1d,0x7f).
time:  00002058:note off:         (0x84,0x1d,0x68).
time:  00002094:note on:          (0x94,0x1d,0x7f).
time:  000020d0:note off:         (0x84,0x1d,0x68).
time:  000020d0:note on:          (0x94,0x1d,0x7f).
time:  0000210c:note off:         (0x84,0x1d,0x68).
time:  0000210c:note on:          (0x94,0x1d,0x7f).
time:  00002148:note off:         (0x84,0x1d,0x68).
time:  00002148:note on:          (0x94,0x22,0x7f).
time:  000021c0:note off:         (0x84,0x22,0x68).
time:  000021c0:note on:          (0x94,0x22,0x7f).
time:  00002238:note off:         (0x84,0x22,0x68).
time:  00002238:note on:          (0x94,0x1d,0x7f).
time:  000022b0:note off:         (0x84,0x1d,0x68).
time:  000022b0:note on:          (0x94,0x20,0x7f).
time:  00002328:note off:         (0x84,0x20,0x68).
time:  00002364:note on:          (0x94,0x20,0x7f).
time:  000023a0:note off:         (0x84,0x20,0x68).
time:  000023a0:note on:          (0x94,0x20,0x7f).
time:  00002418:note off:         (0x84,0x20,0x68).
time:  00002454:note on:          (0x94,0x20,0x7f).
time:  00002490:note off:         (0x84,0x20,0x68).
time:  00002490:note on:          (0x94,0x20,0x7f).
time:  000024cc:note off:         (0x84,0x20,0x68).
time:  000024cc:note on:          (0x94,0x20,0x7f).
time:  00002508:note off:         (0x84,0x20,0x68).
time:  00002508:note on:          (0x94,0x25,0x7f).
time:  00002580:note off:         (0x84,0x25,0x68).
time:  00002580:note on:          (0x94,0x25,0x7f).
time:  000025f8:note off:         (0x84,0x25,0x68).
time:  000025f8:note on:          (0x94,0x20,0x7f).
time:  00002670:note off:         (0x84,0x20,0x68).
time:  00002670:note on:          (0x94,0x1d,0x7f).
time:  000026e8:note off:         (0x84,0x1d,0x68).
time:  00002724:note on:          (0x94,0x1d,0x7f).
time:  00002760:note off:         (0x84,0x1d,0x68).
time:  00002760:note on:          (0x94,0x1d,0x7f).
time:  000027d8:note off:         (0x84,0x1d,0x68).
time:  00002814:note on:          (0x94,0x1d,0x7f).
time:  00002850:note off:         (0x84,0x1d,0x68).
time:  00002850:note on:          (0x94,0x1d,0x7f).
time:  0000288c:note off:         (0x84,0x1d,0x68).
time:  0000288c:note on:          (0x94,0x1d,0x7f).
time:  000028c8:note off:         (0x84,0x1d,0x68).
time:  000028c8:note on:          (0x94,0x22,0x7f).
time:  00002940:note off:         (0x84,0x22,0x68).
time:  00002940:note on:          (0x94,0x22,0x7f).
time:  000029b8:note off:         (0x84,0x22,0x68).
time:  000029b8:note on:          (0x94,0x1d,0x7f).
time:  00002a30:note off:         (0x84,0x1d,0x68).
time:  00002a30:note on:          (0x94,0x20,0x7f).
time:  00002aa8:note off:         (0x84,0x20,0x68).
time:  00002ae4:note on:          (0x94,0x20,0x7f).
time:  00002b20:note off:         (0x84,0x20,0x68).
time:  00002b20:note on:          (0x94,0x20,0x7f).
time:  00002b98:note off:         (0x84,0x20,0x68).
time:  00002bd4:note on:          (0x94,0x20,0x7f).
time:  00002c10:note off:         (0x84,0x20,0x68).
time:  00002c10:note on:          (0x94,0x20,0x7f).
time:  00002c4c:note off:         (0x84,0x20,0x68).
time:  00002c4c:note on:          (0x94,0x20,0x7f).
time:  00002c88:note off:         (0x84,0x20,0x68).
time:  00002c88:note on:          (0x94,0x25,0x7f).
time:  00002d00:note off:         (0x84,0x25,0x68).
time:  00002d00:note on:          (0x94,0x25,0x7f).
time:  00002d78:note off:         (0x84,0x25,0x68).
time:  00002d78:note on:          (0x94,0x20,0x7f).
time:  00002df0:note off:         (0x84,0x20,0x68).
time:  00002df0:note on:          (0x94,0x1d,0x7f).
time:  00002e40:note off:         (0x84,0x1d,0x68).
time:  00002e68:note on:          (0x94,0x1d,0x7f).
time:  00002eb8:note off:         (0x84,0x1d,0x68).
time:  00002ee0:note on:          (0x94,0x1d,0x7f).
time:  00002f30:note off:         (0x84,0x1d,0x68).
time:  00002f58:note on:          (0x94,0x1d,0x7f).
time:  00002fa8:note off:         (0x84,0x1d,0x68).
time:  00002fd0:note on:          (0x94,0x22,0x7f).
time:  00003020:note off:         (0x84,0x22,0x68).
time:  00003048:note on:          (0x94,0x22,0x7f).
time:  00003098:note off:         (0x84,0x22,0x68).
time:  000030c0:note on:          (0x94,0x22,0x7f).
time:  00003110:note off:         (0x84,0x22,0x68).
time:  00003138:note on:          (0x94,0x22,0x7f).
time:  00003188:note off:         (0x84,0x22,0x68).
time:  000031b0:note on:          (0x94,0x20,0x7f).
time:  00003200:note off:         (0x84,0x20,0x68).
time:  00003228:note on:          (0x94,0x20,0x7f).
time:  00003278:note off:         (0x84,0x20,0x68).
time:  000032a0:note on:          (0x94,0x20,0x7f).
time:  000032f0:note off:         (0x84,0x20,0x68).
time:  00003318:note on:          (0x94,0x20,0x7f).
time:  00003368:note off:         (0x84,0x20,0x68).
time:  00003390:note on:          (0x94,0x25,0x7f).
time:  000033e0:note off:         (0x84,0x25,0x68).
time:  00003408:note on:          (0x94,0x25,0x7f).
time:  00003458:note off:         (0x84,0x25,0x68).
time:  00003480:note on:          (0x94,0x25,0x7f).
time:  000034d0:note off:         (0x84,0x25,0x68).
time:  000034f8:note on:          (0x94,0x25,0x7f).
time:  00003548:note off:         (0x84,0x25,0x68).
time:  00003570:note on:          (0x94,0x1d,0x7f).
time:  000035c0:note off:         (0x84,0x1d,0x68).
time:  000035e8:note on:          (0x94,0x1d,0x7f).
time:  00003638:note off:         (0x84,0x1d,0x68).
time:  00003660:note on:          (0x94,0x1d,0x7f).
time:  000036b0:note off:         (0x84,0x1d,0x68).
time:  000036d8:note on:          (0x94,0x1d,0x7f).
time:  00003728:note off:         (0x84,0x1d,0x68).
time:  00003750:note on:          (0x94,0x22,0x7f).
time:  000037a0:note off:         (0x84,0x22,0x68).
time:  000037c8:note on:          (0x94,0x22,0x7f).
time:  00003818:note off:         (0x84,0x22,0x68).
time:  00003840:note on:          (0x94,0x22,0x7f).
time:  00003890:note off:         (0x84,0x22,0x68).
time:  000038b8:note on:          (0x94,0x22,0x7f).
time:  00003908:note off:         (0x84,0x22,0x68).
time:  00003930:note on:          (0x94,0x20,0x7f).
time:  00003980:note off:         (0x84,0x20,0x68).
time:  000039a8:note on:          (0x94,0x20,0x7f).
time:  000039f8:note off:         (0x84,0x20,0x68).
time:  00003a20:note on:          (0x94,0x20,0x7f).
time:  00003a70:note off:         (0x84,0x20,0x68).
time:  00003a98:note on:          (0x94,0x20,0x7f).
time:  00003ae8:note off:         (0x84,0x20,0x68).
time:  00003b10:note on:          (0x94,0x25,0x7f).
time:  00003b60:note off:         (0x84,0x25,0x68).
time:  00003b88:note on:          (0x94,0x25,0x7f).
time:  00003bd8:note off:         (0x84,0x25,0x68).
time:  00003c00:note on:          (0x94,0x25,0x7f).
time:  00003c50:note off:         (0x84,0x25,0x68).
time:  00003c78:note on:          (0x94,0x25,0x7f).
time:  00003cc8:note off:         (0x84,0x25,0x68).
time:  00003cf0:note on:          (0x94,0x1d,0x7f).
time:  00003d40:note off:         (0x84,0x1d,0x68).
time:  00003d68:note on:          (0x94,0x1d,0x7f).
time:  00003db8:note off:         (0x84,0x1d,0x68).
time:  00003de0:note on:          (0x94,0x1d,0x7f).
time:  00003e30:note off:         (0x84,0x1d,0x68).
time:  00003e58:note on:          (0x94,0x1d,0x7f).
time:  00003ea8:note off:         (0x84,0x1d,0x68).
time:  00003ed0:note on:          (0x94,0x22,0x7f).
time:  00003f20:note off:         (0x84,0x22,0x68).
time:  00003f48:note on:          (0x94,0x22,0x7f).
time:  00003f98:note off:         (0x84,0x22,0x68).
time:  00003fc0:note on:          (0x94,0x22,0x7f).
time:  00004010:note off:         (0x84,0x22,0x68).
time:  00004038:note on:          (0x94,0x22,0x7f).
time:  00004088:note off:         (0x84,0x22,0x68).
time:  000040b0:note on:          (0x94,0x20,0x7f).
time:  00004100:note off:         (0x84,0x20,0x68).
time:  00004128:note on:          (0x94,0x20,0x7f).
time:  00004178:note off:         (0x84,0x20,0x68).
time:  000041a0:note on:          (0x94,0x20,0x7f).
time:  000041f0:note off:         (0x84,0x20,0x68).
time:  00004218:note on:          (0x94,0x20,0x7f).
time:  00004268:note off:         (0x84,0x20,0x68).
time:  00004290:note on:          (0x94,0x25,0x7f).
time:  000042e0:note off:         (0x84,0x25,0x68).
time:  00004308:note on:          (0x94,0x25,0x7f).
time:  00004358:note off:         (0x84,0x25,0x68).
time:  00004380:note on:          (0x94,0x25,0x7f).
time:  000043d0:note off:         (0x84,0x25,0x68).
time:  000043f8:note on:          (0x94,0x25,0x7f).
time:  00004448:note off:         (0x84,0x25,0x68).
time:  00004470:note on:          (0x94,0x1d,0x7f).
time:  000044c0:note off:         (0x84,0x1d,0x68).
time:  000044e8:note on:          (0x94,0x1d,0x7f).
time:  00004538:note off:         (0x84,0x1d,0x68).
time:  00004560:note on:          (0x94,0x1d,0x7f).
time:  000045b0:note off:         (0x84,0x1d,0x68).
time:  000045d8:note on:          (0x94,0x1d,0x7f).
time:  00004628:note off:         (0x84,0x1d,0x68).
time:  00004650:note on:          (0x94,0x22,0x7f).
time:  000046a0:note off:         (0x84,0x22,0x68).
time:  000046c8:note on:          (0x94,0x22,0x7f).
time:  00004718:note off:         (0x84,0x22,0x68).
time:  00004740:note on:          (0x94,0x22,0x7f).
time:  00004790:note off:         (0x84,0x22,0x68).
time:  000047b8:note on:          (0x94,0x22,0x7f).
time:  00004808:note off:         (0x84,0x22,0x68).
time:  00004830:note on:          (0x94,0x20,0x7f).
time:  00004880:note off:         (0x84,0x20,0x68).
time:  000048a8:note on:          (0x94,0x20,0x7f).
time:  000048f8:note off:         (0x84,0x20,0x68).
time:  00004920:note on:          (0x94,0x20,0x7f).
time:  00004970:note off:         (0x84,0x20,0x68).
time:  00004998:note on:          (0x94,0x20,0x7f).
time:  000049e8:note off:         (0x84,0x20,0x68).
time:  00004a10:note on:          (0x94,0x25,0x7f).
time:  00004a60:note off:         (0x84,0x25,0x68).
time:  00004a88:note on:          (0x94,0x25,0x7f).
time:  00004ad8:note off:         (0x84,0x25,0x68).
time:  00004b00:note on:          (0x94,0x25,0x7f).
time:  00004b50:note off:         (0x84,0x25,0x68).
time:  00004b78:note on:          (0x94,0x25,0x7f).
time:  00004bc8:note off:         (0x84,0x25,0x68).
time:  00004bf0:note on:          (0x94,0x1d,0x7f).
time:  00004c40:note off:         (0x84,0x1d,0x68).
time:  00004c68:note on:          (0x94,0x1d,0x7f).
time:  00004cb8:note off:         (0x84,0x1d,0x68).
time:  00004ce0:note on:          (0x94,0x1d,0x7f).
time:  00004d30:note off:         (0x84,0x1d,0x68).
time:  00004d58:note on:          (0x94,0x1d,0x7f).
time:  00004da8:note off:         (0x84,0x1d,0x68).
time:  00004dd0:note on:          (0x94,0x22,0x7f).
time:  00004e20:note off:         (0x84,0x22,0x68).
time:  00004e48:note on:          (0x94,0x22,0x7f).
time:  00004e98:note off:         (0x84,0x22,0x68).
time:  00004ec0:note on:          (0x94,0x22,0x7f).
time:  00004f10:note off:         (0x84,0x22,0x68).
time:  00004f38:note on:          (0x94,0x22,0x7f).
time:  00004f88:note off:         (0x84,0x22,0x68).
time:  00004fb0:note on:          (0x94,0x20,0x7f).
time:  00005000:note off:         (0x84,0x20,0x68).
time:  00005028:note on:          (0x94,0x20,0x7f).
time:  00005078:note off:         (0x84,0x20,0x68).
time:  000050a0:note on:          (0x94,0x20,0x7f).
time:  000050f0:note off:         (0x84,0x20,0x68).
time:  00005118:note on:          (0x94,0x20,0x7f).
time:  00005168:note off:         (0x84,0x20,0x68).
time:  00005190:note on:          (0x94,0x25,0x7f).
time:  000051e0:note off:         (0x84,0x25,0x68).
time:  00005208:note on:          (0x94,0x25,0x7f).
time:  00005258:note off:         (0x84,0x25,0x68).
time:  00005280:note on:          (0x94,0x25,0x7f).
time:  000052d0:note off:         (0x84,0x25,0x68).
time:  000052f8:note on:          (0x94,0x25,0x7f).
time:  00005348:note off:         (0x84,0x25,0x68).
time:  00005370:note on:          (0x94,0x1d,0x7f).
time:  000053c0:note off:         (0x84,0x1d,0x68).
time:  000053e8:note on:          (0x94,0x1d,0x7f).
time:  00005438:note off:         (0x84,0x1d,0x68).
time:  00005460:note on:          (0x94,0x1d,0x7f).
time:  000054b0:note off:         (0x84,0x1d,0x68).
time:  000054d8:note on:          (0x94,0x1d,0x7f).
time:  00005528:note off:         (0x84,0x1d,0x68).
time:  00005550:note on:          (0x94,0x22,0x7f).
time:  000055a0:note off:         (0x84,0x22,0x68).
time:  000055c8:note on:          (0x94,0x22,0x7f).
time:  00005618:note off:         (0x84,0x22,0x68).
time:  00005640:note on:          (0x94,0x22,0x7f).
time:  00005690:note off:         (0x84,0x22,0x68).
time:  000056b8:note on:          (0x94,0x22,0x7f).
time:  00005708:note off:         (0x84,0x22,0x68).
time:  00005730:note on:          (0x94,0x20,0x7f).
time:  00005780:note off:         (0x84,0x20,0x68).
time:  000057a8:note on:          (0x94,0x20,0x7f).
time:  000057f8:note off:         (0x84,0x20,0x68).
time:  00005820:note on:          (0x94,0x20,0x7f).
time:  00005870:note off:         (0x84,0x20,0x68).
time:  00005898:note on:          (0x94,0x20,0x7f).
time:  000058e8:note off:         (0x84,0x20,0x68).
time:  00005910:note on:          (0x94,0x25,0x7f).
time:  00005960:note off:         (0x84,0x25,0x68).
time:  00005988:note on:          (0x94,0x25,0x7f).
time:  000059d8:note off:         (0x84,0x25,0x68).
time:  00005a00:note on:          (0x94,0x25,0x7f).
time:  00005a50:note off:         (0x84,0x25,0x68).
time:  00005a78:note on:          (0x94,0x25,0x7f).
time:  00005ac8:note off:         (0x84,0x25,0x68).
time:  00005af0:note on:          (0x94,0x1d,0x7f).
time:  00005b40:note off:         (0x84,0x1d,0x68).
time:  00005b68:note on:          (0x94,0x1d,0x7f).
time:  00005bb8:note off:         (0x84,0x1d,0x68).
time:  00005be0:note on:          (0x94,0x1d,0x7f).
time:  00005c30:note off:         (0x84,0x1d,0x68).
time:  00005c58:note on:          (0x94,0x1d,0x7f).
time:  00005ca8:note off:         (0x84,0x1d,0x68).
time:  00005cd0:note on:          (0x94,0x22,0x7f).
time:  00005d20:note off:         (0x84,0x22,0x68).
time:  00005d48:note on:          (0x94,0x22,0x7f).
time:  00005d98:note off:         (0x84,0x22,0x68).
time:  00005dc0:note on:          (0x94,0x22,0x7f).
time:  00005e10:note off:         (0x84,0x22,0x68).
time:  00005e38:note on:          (0x94,0x22,0x7f).
time:  00005e88:note off:         (0x84,0x22,0x68).
time:  00005eb0:note on:          (0x94,0x20,0x7f).
time:  00005f00:note off:         (0x84,0x20,0x68).
time:  00005f28:note on:          (0x94,0x20,0x7f).
time:  00005f78:note off:         (0x84,0x20,0x68).
time:  00005fa0:note on:          (0x94,0x20,0x7f).
time:  00005ff0:note off:         (0x84,0x20,0x68).
time:  00006018:note on:          (0x94,0x20,0x7f).
time:  00006068:note off:         (0x84,0x20,0x68).
time:  00006090:note on:          (0x94,0x25,0x7f).
time:  000060e0:note off:         (0x84,0x25,0x68).
time:  00006108:note on:          (0x94,0x25,0x7f).
time:  00006158:note off:         (0x84,0x25,0x68).
time:  00006180:note on:          (0x94,0x25,0x7f).
time:  000061d0:note off:         (0x84,0x25,0x68).
time:  000061f8:note on:          (0x94,0x25,0x7f).
time:  00006248:note off:         (0x84,0x25,0x68).
time:  00006270:note on:          (0x94,0x1d,0x7f).
time:  000062c0:note off:         (0x84,0x1d,0x68).
time:  000062e8:note on:          (0x94,0x1d,0x7f).
time:  00006338:note off:         (0x84,0x1d,0x68).
time:  00006360:note on:          (0x94,0x1d,0x7f).
time:  000063b0:note off:         (0x84,0x1d,0x68).
time:  000063d8:note on:          (0x94,0x1d,0x7f).
time:  00006428:note off:         (0x84,0x1d,0x68).
time:  00006450:note on:          (0x94,0x22,0x7f).
time:  000064a0:note off:         (0x84,0x22,0x68).
time:  000064c8:note on:          (0x94,0x22,0x7f).
time:  00006518:note off:         (0x84,0x22,0x68).
time:  00006540:note on:          (0x94,0x22,0x7f).
time:  00006590:note off:         (0x84,0x22,0x68).
time:  000065b8:note on:          (0x94,0x22,0x7f).
time:  00006608:note off:         (0x84,0x22,0x68).
time:  00006630:note on:          (0x94,0x20,0x7f).
time:  00006680:note off:         (0x84,0x20,0x68).
time:  000066a8:note on:          (0x94,0x20,0x7f).
time:  000066f8:note off:         (0x84,0x20,0x68).
time:  00006720:note on:          (0x94,0x20,0x7f).
time:  00006770:note off:         (0x84,0x20,0x68).
time:  00006798:note on:          (0x94,0x20,0x7f).
time:  000067e8:note off:         (0x84,0x20,0x68).
time:  00006810:note on:          (0x94,0x25,0x7f).
time:  00006860:note off:         (0x84,0x25,0x68).
time:  00006888:note on:          (0x94,0x25,0x7f).
time:  000068d8:note off:         (0x84,0x25,0x68).
time:  00006900:note on:          (0x94,0x25,0x7f).
time:  00006950:note off:         (0x84,0x25,0x68).
time:  00006978:note on:          (0x94,0x25,0x7f).
time:  000069c8:note off:         (0x84,0x25,0x68).
time:  000069f0:note on:          (0x94,0x1d,0x7f).
time:  00006a40:note off:         (0x84,0x1d,0x68).
time:  00006a68:note on:          (0x94,0x1d,0x7f).
time:  00006ab8:note off:         (0x84,0x1d,0x68).
time:  00006ae0:note on:          (0x94,0x1d,0x7f).
time:  00006b30:note off:         (0x84,0x1d,0x68).
time:  00006b58:note on:          (0x94,0x1d,0x7f).
time:  00006ba8:note off:         (0x84,0x1d,0x68).
time:  00006bd0:note on:          (0x94,0x22,0x7f).
time:  00006c20:note off:         (0x84,0x22,0x68).
time:  00006c48:note on:          (0x94,0x22,0x7f).
time:  00006c98:note off:         (0x84,0x22,0x68).
time:  00006cc0:note on:          (0x94,0x22,0x7f).
time:  00006d10:note off:         (0x84,0x22,0x68).
time:  00006d38:note on:          (0x94,0x22,0x7f).
time:  00006d88:note off:         (0x84,0x22,0x68).
time:  00006db0:note on:          (0x94,0x20,0x7f).
time:  00006e00:note off:         (0x84,0x20,0x68).
time:  00006e28:note on:          (0x94,0x20,0x7f).
time:  00006e78:note off:         (0x84,0x20,0x68).
time:  00006ea0:note on:          (0x94,0x20,0x7f).
time:  00006ef0:note off:         (0x84,0x20,0x68).
time:  00006f18:note on:          (0x94,0x20,0x7f).
time:  00006f68:note off:         (0x84,0x20,0x68).
time:  00006f90:note on:          (0x94,0x25,0x7f).
time:  00006fe0:note off:         (0x84,0x25,0x68).
time:  00007008:note on:          (0x94,0x25,0x7f).
time:  00007058:note off:         (0x84,0x25,0x68).
time:  00007080:note on:          (0x94,0x25,0x7f).
time:  000070d0:note off:         (0x84,0x25,0x68).
time:  000070f8:note on:          (0x94,0x25,0x7f).
time:  00007148:note off:         (0x84,0x25,0x68).
time:  00007170:note on:          (0x94,0x1d,0x7f).
time:  000071c0:note off:         (0x84,0x1d,0x68).
time:  000071e8:note on:          (0x94,0x1d,0x7f).
time:  00007238:note off:         (0x84,0x1d,0x68).
time:  00007260:note on:          (0x94,0x1d,0x7f).
time:  000072b0:note off:         (0x84,0x1d,0x68).
time:  000072d8:note on:          (0x94,0x1d,0x7f).
time:  00007328:note off:         (0x84,0x1d,0x68).
time:  00007350:note on:          (0x94,0x22,0x7f).
time:  000073a0:note off:         (0x84,0x22,0x68).
time:  000073c8:note on:          (0x94,0x22,0x7f).
time:  00007418:note off:         (0x84,0x22,0x68).
time:  00007440:note on:          (0x94,0x22,0x7f).
time:  00007490:note off:         (0x84,0x22,0x68).
time:  000074b8:note on:          (0x94,0x22,0x7f).
time:  00007508:note off:         (0x84,0x22,0x68).
time:  00007530:note on:          (0x94,0x20,0x7f).
time:  00007580:note off:         (0x84,0x20,0x68).
time:  000075a8:note on:          (0x94,0x20,0x7f).
time:  000075f8:note off:         (0x84,0x20,0x68).
time:  00007620:note on:          (0x94,0x20,0x7f).
time:  00007670:note off:         (0x84,0x20,0x68).
time:  00007698:note on:          (0x94,0x20,0x7f).
time:  000076e8:note off:         (0x84,0x20,0x68).
time:  00007710:note on:          (0x94,0x25,0x7f).
time:  00007760:note off:         (0x84,0x25,0x68).
time:  00007788:note on:          (0x94,0x25,0x7f).
time:  000077d8:note off:         (0x84,0x25,0x68).
time:  00007800:note on:          (0x94,0x25,0x7f).
time:  00007850:note off:         (0x84,0x25,0x68).
time:  00007878:note on:          (0x94,0x25,0x7f).
time:  000078c8:note off:         (0x84,0x25,0x68).
time:  000078f0:note on:          (0x94,0x1d,0x7f).
time:  00007968:note off:         (0x84,0x1d,0x68).
time:  000079a4:note on:          (0x94,0x1d,0x7f).
time:  000079e0:note off:         (0x84,0x1d,0x68).
time:  000079e0:note on:          (0x94,0x1d,0x7f).
time:  00007a58:note off:         (0x84,0x1d,0x68).
time:  00007a94:note on:          (0x94,0x1d,0x7f).
time:  00007ad0:note off:         (0x84,0x1d,0x68).
time:  00007ad0:note on:          (0x94,0x1d,0x7f).
time:  00007b0c:note off:         (0x84,0x1d,0x68).
time:  00007b0c:note on:          (0x94,0x1d,0x7f).
time:  00007b48:note off:         (0x84,0x1d,0x68).
time:  00007b48:note on:          (0x94,0x22,0x7f).
time:  00007bc0:note off:         (0x84,0x22,0x68).
time:  00007bc0:note on:          (0x94,0x22,0x7f).
time:  00007c38:note off:         (0x84,0x22,0x68).
time:  00007c38:note on:          (0x94,0x1d,0x7f).
time:  00007cb0:note off:         (0x84,0x1d,0x68).
time:  00007cb0:note on:          (0x94,0x20,0x7f).
time:  00007d28:note off:         (0x84,0x20,0x68).
time:  00007d64:note on:          (0x94,0x20,0x7f).
time:  00007da0:note off:         (0x84,0x20,0x68).
time:  00007da0:note on:          (0x94,0x20,0x7f).
time:  00007e18:note off:         (0x84,0x20,0x68).
time:  00007e54:note on:          (0x94,0x20,0x7f).
time:  00007e90:note off:         (0x84,0x20,0x68).
time:  00007e90:note on:          (0x94,0x20,0x7f).
time:  00007ecc:note off:         (0x84,0x20,0x68).
time:  00007ecc:note on:          (0x94,0x20,0x7f).
time:  00007f08:note off:         (0x84,0x20,0x68).
time:  00007f08:note on:          (0x94,0x25,0x7f).
time:  00007f80:note off:         (0x84,0x25,0x68).
time:  00007f80:note on:          (0x94,0x25,0x7f).
time:  00007ff8:note off:         (0x84,0x25,0x68).
time:  00007ff8:note on:          (0x94,0x20,0x7f).
time:  00008070:note off:         (0x84,0x20,0x68).
time:  00008070:note on:          (0x94,0x1d,0x7f).
time:  000080e8:note off:         (0x84,0x1d,0x68).
time:  00008124:note on:          (0x94,0x1d,0x7f).
time:  00008160:note off:         (0x84,0x1d,0x68).
time:  00008160:note on:          (0x94,0x1d,0x7f).
time:  000081d8:note off:         (0x84,0x1d,0x68).
time:  00008214:note on:          (0x94,0x1d,0x7f).
time:  00008250:note off:         (0x84,0x1d,0x68).
time:  00008250:note on:          (0x94,0x1d,0x7f).
time:  0000828c:note off:         (0x84,0x1d,0x68).
time:  0000828c:note on:          (0x94,0x1d,0x7f).
time:  000082c8:note off:         (0x84,0x1d,0x68).
time:  000082c8:note on:          (0x94,0x22,0x7f).
time:  00008340:note off:         (0x84,0x22,0x68).
time:  00008340:note on:          (0x94,0x22,0x7f).
time:  000083b8:note off:         (0x84,0x22,0x68).
time:  000083b8:note on:          (0x94,0x1d,0x7f).
time:  00008430:note off:         (0x84,0x1d,0x68).
time:  00008430:note on:          (0x94,0x20,0x7f).
time:  000084a8:note off:         (0x84,0x20,0x68).
time:  000084e4:note on:          (0x94,0x20,0x7f).
time:  00008520:note off:         (0x84,0x20,0x68).
time:  00008520:note on:          (0x94,0x20,0x7f).
time:  00008598:note off:         (0x84,0x20,0x68).
time:  000085d4:note on:          (0x94,0x20,0x7f).
time:  00008610:note off:         (0x84,0x20,0x68).
time:  00008610:note on:          (0x94,0x20,0x7f).
time:  0000864c:note off:         (0x84,0x20,0x68).
time:  0000864c:note on:          (0x94,0x20,0x7f).
time:  00008688:note off:         (0x84,0x20,0x68).
time:  00008688:note on:          (0x94,0x25,0x7f).
time:  00008700:note off:         (0x84,0x25,0x68).
time:  00008700:note on:          (0x94,0x25,0x7f).
time:  00008778:note off:         (0x84,0x25,0x68).
time:  00008778:note on:          (0x94,0x20,0x7f).
time:  000087f0:note off:         (0x84,0x20,0x68).
time:  000087f0:note on:          (0x94,0x1d,0x7f).
time:  00008868:note off:         (0x84,0x1d,0x68).
time:  000088a4:note on:          (0x94,0x1d,0x7f).
time:  000088e0:note off:         (0x84,0x1d,0x68).
time:  000088e0:note on:          (0x94,0x1d,0x7f).
time:  00008958:note off:         (0x84,0x1d,0x68).
time:  00008994:note on:          (0x94,0x1d,0x7f).
time:  000089d0:note off:         (0x84,0x1d,0x68).
time:  000089d0:note on:          (0x94,0x1d,0x7f).
time:  00008a0c:note off:         (0x84,0x1d,0x68).
time:  00008a0c:note on:          (0x94,0x1d,0x7f).
time:  00008a48:note off:         (0x84,0x1d,0x68).
time:  00008a48:note on:          (0x94,0x22,0x7f).
time:  00008ac0:note off:         (0x84,0x22,0x68).
time:  00008ac0:note on:          (0x94,0x22,0x7f).
time:  00008b38:note off:         (0x84,0x22,0x68).
time:  00008b38:note on:          (0x94,0x1d,0x7f).
time:  00008bb0:note off:         (0x84,0x1d,0x68).
time:  00008bb0:note on:          (0x94,0x20,0x7f).
time:  00008c28:note off:         (0x84,0x20,0x68).
time:  00008c64:note on:          (0x94,0x20,0x7f).
time:  00008ca0:note off:         (0x84,0x20,0x68).
time:  00008ca0:note on:          (0x94,0x20,0x7f).
time:  00008d18:note off:         (0x84,0x20,0x68).
time:  00008d54:note on:          (0x94,0x20,0x7f).
time:  00008d90:note off:         (0x84,0x20,0x68).
time:  00008d90:note on:          (0x94,0x20,0x7f).
time:  00008dcc:note off:         (0x84,0x20,0x68).
time:  00008dcc:note on:          (0x94,0x20,0x7f).
time:  00008e08:note off:         (0x84,0x20,0x68).
time:  00008e08:note on:          (0x94,0x25,0x7f).
time:  00008e80:note off:         (0x84,0x25,0x68).
time:  00008e80:note on:          (0x94,0x25,0x7f).
time:  00008ef8:note off:         (0x84,0x25,0x68).
time:  00008ef8:note on:          (0x94,0x20,0x7f).
time:  00008f70:note off:         (0x84,0x20,0x68).
time:  00008f70:note on:          (0x94,0x1d,0x7f).
time:  00008fe8:note off:         (0x84,0x1d,0x68).
time:  00009024:note on:          (0x94,0x1d,0x7f).
time:  00009060:note off:         (0x84,0x1d,0x68).
time:  00009060:note on:          (0x94,0x1d,0x7f).
time:  000090d8:note off:         (0x84,0x1d,0x68).
time:  00009114:note on:          (0x94,0x1d,0x7f).
time:  00009150:note off:         (0x84,0x1d,0x68).
time:  00009150:note on:          (0x94,0x1d,0x7f).
time:  0000918c:note off:         (0x84,0x1d,0x68).
time:  0000918c:note on:          (0x94,0x1d,0x7f).
time:  000091c8:note off:         (0x84,0x1d,0x68).
time:  000091c8:note on:          (0x94,0x22,0x7f).
time:  00009240:note off:         (0x84,0x22,0x68).
time:  00009240:note on:          (0x94,0x22,0x7f).
time:  000092b8:note off:         (0x84,0x22,0x68).
time:  000092b8:note on:          (0x94,0x1d,0x7f).
time:  00009330:note off:         (0x84,0x1d,0x68).
time:  00009330:note on:          (0x94,0x20,0x7f).
time:  000093a8:note off:         (0x84,0x20,0x68).
time:  000093e4:note on:          (0x94,0x20,0x7f).
time:  00009420:note off:         (0x84,0x20,0x68).
time:  00009420:note on:          (0x94,0x20,0x7f).
time:  00009498:note off:         (0x84,0x20,0x68).
time:  000094d4:note on:          (0x94,0x20,0x7f).
time:  00009510:note off:         (0x84,0x20,0x68).
time:  00009510:note on:          (0x94,0x20,0x7f).
time:  0000954c:note off:         (0x84,0x20,0x68).
time:  0000954c:note on:          (0x94,0x20,0x7f).
time:  00009588:note off:         (0x84,0x20,0x68).
time:  00009588:note on:          (0x94,0x25,0x7f).
time:  00009600:note off:         (0x84,0x25,0x68).
time:  00009600:note on:          (0x94,0x25,0x7f).
time:  00009678:note off:         (0x84,0x25,0x68).
time:  00009678:note on:          (0x94,0x20,0x7f).
time:  000096f0:note off:         (0x84,0x20,0x68).
time:  000096f0:note on:          (0x94,0x1d,0x7f).
time:  00009790:note off:         (0x84,0x1d,0x68).
time:  000097e0:note on:          (0x94,0x1c,0x7f).
time:  00009858:note off:         (0x84,0x1c,0x68).
time:  00009858:note on:          (0x94,0x1d,0x7f).
time:  000098d0:note off:         (0x84,0x1d,0x68).
time:  000098d0:note on:          (0x94,0x1e,0x7f).
time:  00009948:note off:         (0x84,0x1e,0x68).
time:  00009948:note on:          (0x94,0x1e,0x7f).
time:  000099c0:note off:         (0x84,0x1e,0x68).
time:  00009ab0:note on:          (0x94,0x1d,0x7f).
time:  00009ba0:note off:         (0x84,0x1d,0x68).
time:  00009ba0:note on:          (0x94,0x1c,0x7f).
time:  00009c18:note off:         (0x84,0x1c,0x68).
time:  00009c18:note on:          (0x94,0x1d,0x7f).
time:  00009c90:note off:         (0x84,0x1d,0x68).
time:  00009c90:note on:          (0x94,0x22,0x7f).
time:  00009d80:note off:         (0x84,0x22,0x68).
time:  00009d80:note on:          (0x94,0x20,0x7f).
time:  00009e70:note off:         (0x84,0x20,0x68).
time:  00009e70:note on:          (0x94,0x1d,0x7f).
time:  00009f10:note off:         (0x84,0x1d,0x68).
time:  00009f60:note on:          (0x94,0x1c,0x7f).
time:  00009fd8:note off:         (0x84,0x1c,0x68).
time:  00009fd8:note on:          (0x94,0x1d,0x7f).
time:  0000a050:note off:         (0x84,0x1d,0x68).
time:  0000a050:note on:          (0x94,0x1e,0x7f).
time:  0000a0c8:note off:         (0x84,0x1e,0x68).
time:  0000a0c8:note on:          (0x94,0x1e,0x7f).
time:  0000a140:note off:         (0x84,0x1e,0x68).
time:  0000a230:note on:          (0x94,0x1d,0x7f).
time:  0000a320:note off:         (0x84,0x1d,0x68).
time:  0000a320:note on:          (0x94,0x1c,0x7f).
time:  0000a398:note off:         (0x84,0x1c,0x68).
time:  0000a398:note on:          (0x94,0x1d,0x7f).
time:  0000a410:note off:         (0x84,0x1d,0x68).
time:  0000a410:note on:          (0x94,0x22,0x7f).
time:  0000a500:note off:         (0x84,0x22,0x68).
time:  0000a500:note on:          (0x94,0x20,0x7f).
time:  0000a5f0:note off:         (0x84,0x20,0x68).
time:  0000a5f0:note on:          (0x94,0x1d,0x7f).
time:  0000a640:note off:         (0x84,0x1d,0x68).
time:  0000a668:note on:          (0x94,0x1d,0x7f).
time:  0000a6b8:note off:         (0x84,0x1d,0x68).
time:  0000a6e0:note on:          (0x94,0x1d,0x7f).
time:  0000a730:note off:         (0x84,0x1d,0x68).
time:  0000a758:note on:          (0x94,0x1d,0x7f).
time:  0000a7a8:note off:         (0x84,0x1d,0x68).
time:  0000a7d0:note on:          (0x94,0x22,0x7f).
time:  0000a820:note off:         (0x84,0x22,0x68).
time:  0000a848:note on:          (0x94,0x22,0x7f).
time:  0000a898:note off:         (0x84,0x22,0x68).
time:  0000a8c0:note on:          (0x94,0x22,0x7f).
time:  0000a910:note off:         (0x84,0x22,0x68).
time:  0000a938:note on:          (0x94,0x22,0x7f).
time:  0000a988:note off:         (0x84,0x22,0x68).
time:  0000a9b0:note on:          (0x94,0x20,0x7f).
time:  0000aa00:note off:         (0x84,0x20,0x68).
time:  0000aa28:note on:          (0x94,0x20,0x7f).
time:  0000aa78:note off:         (0x84,0x20,0x68).
time:  0000aaa0:note on:          (0x94,0x20,0x7f).
time:  0000aaf0:note off:         (0x84,0x20,0x68).
time:  0000ab18:note on:          (0x94,0x20,0x7f).
time:  0000ab68:note off:         (0x84,0x20,0x68).
time:  0000ab90:note on:          (0x94,0x25,0x7f).
time:  0000abe0:note off:         (0x84,0x25,0x68).
time:  0000ac08:note on:          (0x94,0x25,0x7f).
time:  0000ac58:note off:         (0x84,0x25,0x68).
time:  0000ac80:note on:          (0x94,0x25,0x7f).
time:  0000acd0:note off:         (0x84,0x25,0x68).
time:  0000acf8:note on:          (0x94,0x25,0x7f).
time:  0000ad48:note off:         (0x84,0x25,0x68).
time:  0000ad70:note on:          (0x94,0x1d,0x7f).
time:  0000adc0:note off:         (0x84,0x1d,0x68).
time:  0000ade8:note on:          (0x94,0x1d,0x7f).
time:  0000ae38:note off:         (0x84,0x1d,0x68).
time:  0000ae60:note on:          (0x94,0x1d,0x7f).
time:  0000aeb0:note off:         (0x84,0x1d,0x68).
time:  0000aed8:note on:          (0x94,0x1d,0x7f).
time:  0000af28:note off:         (0x84,0x1d,0x68).
time:  0000af50:note on:          (0x94,0x22,0x7f).
time:  0000afa0:note off:         (0x84,0x22,0x68).
time:  0000afc8:note on:          (0x94,0x22,0x7f).
time:  0000b018:note off:         (0x84,0x22,0x68).
time:  0000b040:note on:          (0x94,0x22,0x7f).
time:  0000b090:note off:         (0x84,0x22,0x68).
time:  0000b0b8:note on:          (0x94,0x22,0x7f).
time:  0000b108:note off:         (0x84,0x22,0x68).
time:  0000b130:note on:          (0x94,0x20,0x7f).
time:  0000b180:note off:         (0x84,0x20,0x68).
time:  0000b1a8:note on:          (0x94,0x20,0x7f).
time:  0000b1f8:note off:         (0x84,0x20,0x68).
time:  0000b220:note on:          (0x94,0x20,0x7f).
time:  0000b270:note off:         (0x84,0x20,0x68).
time:  0000b298:note on:          (0x94,0x20,0x7f).
time:  0000b2e8:note off:         (0x84,0x20,0x68).
time:  0000b310:note on:          (0x94,0x25,0x7f).
time:  0000b360:note off:         (0x84,0x25,0x68).
time:  0000b388:note on:          (0x94,0x25,0x7f).
time:  0000b3d8:note off:         (0x84,0x25,0x68).
time:  0000b400:note on:          (0x94,0x25,0x7f).
time:  0000b450:note off:         (0x84,0x25,0x68).
time:  0000b478:note on:          (0x94,0x25,0x7f).
time:  0000b4c8:note off:         (0x84,0x25,0x68).
time:  0000b4f0:note on:          (0x94,0x1d,0x7f).
time:  0000b540:note off:         (0x84,0x1d,0x68).
time:  0000b568:note on:          (0x94,0x1d,0x7f).
time:  0000b5b8:note off:         (0x84,0x1d,0x68).
time:  0000b5e0:note on:          (0x94,0x1d,0x7f).
time:  0000b630:note off:         (0x84,0x1d,0x68).
time:  0000b658:note on:          (0x94,0x1d,0x7f).
time:  0000b6a8:note off:         (0x84,0x1d,0x68).
time:  0000b6d0:note on:          (0x94,0x22,0x7f).
time:  0000b720:note off:         (0x84,0x22,0x68).
time:  0000b748:note on:          (0x94,0x22,0x7f).
time:  0000b798:note off:         (0x84,0x22,0x68).
time:  0000b7c0:note on:          (0x94,0x22,0x7f).
time:  0000b810:note off:         (0x84,0x22,0x68).
time:  0000b838:note on:          (0x94,0x22,0x7f).
time:  0000b888:note off:         (0x84,0x22,0x68).
time:  0000b8b0:note on:          (0x94,0x20,0x7f).
time:  0000b900:note off:         (0x84,0x20,0x68).
time:  0000b928:note on:          (0x94,0x20,0x7f).
time:  0000b978:note off:         (0x84,0x20,0x68).
time:  0000b9a0:note on:          (0x94,0x20,0x7f).
time:  0000b9f0:note off:         (0x84,0x20,0x68).
time:  0000ba18:note on:          (0x94,0x20,0x7f).
time:  0000ba68:note off:         (0x84,0x20,0x68).
time:  0000ba90:note on:          (0x94,0x25,0x7f).
time:  0000bae0:note off:         (0x84,0x25,0x68).
time:  0000bb08:note on:          (0x94,0x25,0x7f).
time:  0000bb58:note off:         (0x84,0x25,0x68).
time:  0000bb80:note on:          (0x94,0x25,0x7f).
time:  0000bbd0:note off:         (0x84,0x25,0x68).
time:  0000bbf8:note on:          (0x94,0x25,0x7f).
time:  0000bc48:note off:         (0x84,0x25,0x68).
time:  0000bc70:note on:          (0x94,0x1d,0x7f).
time:  0000bcc0:note off:         (0x84,0x1d,0x68).
time:  0000bce8:note on:          (0x94,0x1d,0x7f).
time:  0000bd38:note off:         (0x84,0x1d,0x68).
time:  0000bd60:note on:          (0x94,0x1d,0x7f).
time:  0000bdb0:note off:         (0x84,0x1d,0x68).
time:  0000bdd8:note on:          (0x94,0x1d,0x7f).
time:  0000be28:note off:         (0x84,0x1d,0x68).
time:  0000be50:note on:          (0x94,0x22,0x7f).
time:  0000bea0:note off:         (0x84,0x22,0x68).
time:  0000bec8:note on:          (0x94,0x22,0x7f).
time:  0000bf18:note off:         (0x84,0x22,0x68).
time:  0000bf40:note on:          (0x94,0x22,0x7f).
time:  0000bf90:note off:         (0x84,0x22,0x68).
time:  0000bfb8:note on:          (0x94,0x22,0x7f).
time:  0000c008:note off:         (0x84,0x22,0x68).
time:  0000c030:note on:          (0x94,0x20,0x7f).
time:  0000c080:note off:         (0x84,0x20,0x68).
time:  0000c0a8:note on:          (0x94,0x20,0x7f).
time:  0000c0f8:note off:         (0x84,0x20,0x68).
time:  0000c120:note on:          (0x94,0x20,0x7f).
time:  0000c170:note off:         (0x84,0x20,0x68).
time:  0000c198:note on:          (0x94,0x20,0x7f).
time:  0000c1e8:note off:         (0x84,0x20,0x68).
time:  0000c210:note on:          (0x94,0x25,0x7f).
time:  0000c260:note off:         (0x84,0x25,0x68).
time:  0000c288:note on:          (0x94,0x25,0x7f).
time:  0000c2d8:note off:         (0x84,0x25,0x68).
time:  0000c300:note on:          (0x94,0x25,0x7f).
time:  0000c350:note off:         (0x84,0x25,0x68).
time:  0000c378:note on:          (0x94,0x25,0x7f).
time:  0000c3c8:note off:         (0x84,0x25,0x68).
time:  0000c3f0:note on:          (0x94,0x1d,0x7f).
time:  0000c440:note off:         (0x84,0x1d,0x68).
time:  0000c468:note on:          (0x94,0x1d,0x7f).
time:  0000c4b8:note off:         (0x84,0x1d,0x68).
time:  0000c4e0:note on:          (0x94,0x1d,0x7f).
time:  0000c530:note off:         (0x84,0x1d,0x68).
time:  0000c558:note on:          (0x94,0x1d,0x7f).
time:  0000c5a8:note off:         (0x84,0x1d,0x68).
time:  0000c5d0:note on:          (0x94,0x22,0x7f).
time:  0000c620:note off:         (0x84,0x22,0x68).
time:  0000c648:note on:          (0x94,0x22,0x7f).
time:  0000c698:note off:         (0x84,0x22,0x68).
time:  0000c6c0:note on:          (0x94,0x22,0x7f).
time:  0000c710:note off:         (0x84,0x22,0x68).
time:  0000c738:note on:          (0x94,0x22,0x7f).
time:  0000c788:note off:         (0x84,0x22,0x68).
time:  0000c7b0:note on:          (0x94,0x20,0x7f).
time:  0000c800:note off:         (0x84,0x20,0x68).
time:  0000c828:note on:          (0x94,0x20,0x7f).
time:  0000c878:note off:         (0x84,0x20,0x68).
time:  0000c8a0:note on:          (0x94,0x20,0x7f).
time:  0000c8f0:note off:         (0x84,0x20,0x68).
time:  0000c918:note on:          (0x94,0x20,0x7f).
time:  0000c968:note off:         (0x84,0x20,0x68).
time:  0000c990:note on:          (0x94,0x25,0x7f).
time:  0000c9e0:note off:         (0x84,0x25,0x68).
time:  0000ca08:note on:          (0x94,0x25,0x7f).
time:  0000ca58:note off:         (0x84,0x25,0x68).
time:  0000ca80:note on:          (0x94,0x25,0x7f).
time:  0000cad0:note off:         (0x84,0x25,0x68).
time:  0000caf8:note on:          (0x94,0x25,0x7f).
time:  0000cb48:note off:         (0x84,0x25,0x68).
time:  0000cb70:note on:          (0x94,0x1d,0x7f).
time:  0000cbc0:note off:         (0x84,0x1d,0x68).
time:  0000cbe8:note on:          (0x94,0x1d,0x7f).
time:  0000cc38:note off:         (0x84,0x1d,0x68).
time:  0000cc60:note on:          (0x94,0x1d,0x7f).
time:  0000ccb0:note off:         (0x84,0x1d,0x68).
time:  0000ccd8:note on:          (0x94,0x1d,0x7f).
time:  0000cd28:note off:         (0x84,0x1d,0x68).
time:  0000cd50:note on:          (0x94,0x22,0x7f).
time:  0000cda0:note off:         (0x84,0x22,0x68).
time:  0000cdc8:note on:          (0x94,0x22,0x7f).
time:  0000ce18:note off:         (0x84,0x22,0x68).
time:  0000ce40:note on:          (0x94,0x22,0x7f).
time:  0000ce90:note off:         (0x84,0x22,0x68).
time:  0000ceb8:note on:          (0x94,0x22,0x7f).
time:  0000cf08:note off:         (0x84,0x22,0x68).
time:  0000cf30:note on:          (0x94,0x20,0x7f).
time:  0000cf80:note off:         (0x84,0x20,0x68).
time:  0000cfa8:note on:          (0x94,0x20,0x7f).
time:  0000cff8:note off:         (0x84,0x20,0x68).
time:  0000d020:note on:          (0x94,0x20,0x7f).
time:  0000d070:note off:         (0x84,0x20,0x68).
time:  0000d098:note on:          (0x94,0x20,0x7f).
time:  0000d0e8:note off:         (0x84,0x20,0x68).
time:  0000d110:note on:          (0x94,0x25,0x7f).
time:  0000d160:note off:         (0x84,0x25,0x68).
time:  0000d188:note on:          (0x94,0x25,0x7f).
time:  0000d1d8:note off:         (0x84,0x25,0x68).
time:  0000d200:note on:          (0x94,0x25,0x7f).
time:  0000d250:note off:         (0x84,0x25,0x68).
time:  0000d278:note on:          (0x94,0x25,0x7f).
time:  0000d2c8:note off:         (0x84,0x25,0x68).
time:  0000d2f0:note on:          (0x94,0x1d,0x7f).
time:  0000d340:note off:         (0x84,0x1d,0x68).
time:  0000d368:note on:          (0x94,0x1d,0x7f).
time:  0000d3b8:note off:         (0x84,0x1d,0x68).
time:  0000d3e0:note on:          (0x94,0x1d,0x7f).
time:  0000d430:note off:         (0x84,0x1d,0x68).
time:  0000d458:note on:          (0x94,0x1d,0x7f).
time:  0000d4a8:note off:         (0x84,0x1d,0x68).
time:  0000d4d0:note on:          (0x94,0x22,0x7f).
time:  0000d520:note off:         (0x84,0x22,0x68).
time:  0000d548:note on:          (0x94,0x22,0x7f).
time:  0000d598:note off:         (0x84,0x22,0x68).
time:  0000d5c0:note on:          (0x94,0x22,0x7f).
time:  0000d610:note off:         (0x84,0x22,0x68).
time:  0000d638:note on:          (0x94,0x22,0x7f).
time:  0000d688:note off:         (0x84,0x22,0x68).
time:  0000d6b0:note on:          (0x94,0x20,0x7f).
time:  0000d700:note off:         (0x84,0x20,0x68).
time:  0000d728:note on:          (0x94,0x20,0x7f).
time:  0000d778:note off:         (0x84,0x20,0x68).
time:  0000d7a0:note on:          (0x94,0x20,0x7f).
time:  0000d7f0:note off:         (0x84,0x20,0x68).
time:  0000d818:note on:          (0x94,0x20,0x7f).
time:  0000d868:note off:         (0x84,0x20,0x68).
time:  0000d890:note on:          (0x94,0x25,0x7f).
time:  0000d8e0:note off:         (0x84,0x25,0x68).
time:  0000d908:note on:          (0x94,0x25,0x7f).
time:  0000d958:note off:         (0x84,0x25,0x68).
time:  0000d980:note on:          (0x94,0x25,0x7f).
time:  0000d9d0:note off:         (0x84,0x25,0x68).
time:  0000d9f8:note on:          (0x94,0x25,0x7f).
time:  0000da48:note off:         (0x84,0x25,0x68).
time:  0000da70:note on:          (0x94,0x1d,0x7f).
time:  0000dac0:note off:         (0x84,0x1d,0x68).
time:  0000dae8:note on:          (0x94,0x1d,0x7f).
time:  0000db38:note off:         (0x84,0x1d,0x68).
time:  0000db60:note on:          (0x94,0x1d,0x7f).
time:  0000dbb0:note off:         (0x84,0x1d,0x68).
time:  0000dbd8:note on:          (0x94,0x1d,0x7f).
time:  0000dc28:note off:         (0x84,0x1d,0x68).
time:  0000dc50:note on:          (0x94,0x22,0x7f).
time:  0000dca0:note off:         (0x84,0x22,0x68).
time:  0000dcc8:note on:          (0x94,0x22,0x7f).
time:  0000dd18:note off:         (0x84,0x22,0x68).
time:  0000dd40:note on:          (0x94,0x22,0x7f).
time:  0000dd90:note off:         (0x84,0x22,0x68).
time:  0000ddb8:note on:          (0x94,0x22,0x7f).
time:  0000de08:note off:         (0x84,0x22,0x68).
time:  0000de30:note on:          (0x94,0x20,0x7f).
time:  0000de80:note off:         (0x84,0x20,0x68).
time:  0000dea8:note on:          (0x94,0x20,0x7f).
time:  0000def8:note off:         (0x84,0x20,0x68).
time:  0000df20:note on:          (0x94,0x20,0x7f).
time:  0000df70:note off:         (0x84,0x20,0x68).
time:  0000df98:note on:          (0x94,0x20,0x7f).
time:  0000dfe8:note off:         (0x84,0x20,0x68).
time:  0000e010:note on:          (0x94,0x25,0x7f).
time:  0000e060:note off:         (0x84,0x25,0x68).
time:  0000e088:note on:          (0x94,0x25,0x7f).
time:  0000e0d8:note off:         (0x84,0x25,0x68).
time:  0000e100:note on:          (0x94,0x25,0x7f).
time:  0000e150:note off:         (0x84,0x25,0x68).
time:  0000e178:note on:          (0x94,0x25,0x7f).
time:  0000e1c8:note off:         (0x84,0x25,0x68).
time:  0000e1f0:note on:          (0x94,0x1d,0x7f).
time:  0000e240:note off:         (0x84,0x1d,0x68).
time:  0000e268:note on:          (0x94,0x1d,0x7f).
time:  0000e2b8:note off:         (0x84,0x1d,0x68).
time:  0000e2e0:note on:          (0x94,0x1d,0x7f).
time:  0000e330:note off:         (0x84,0x1d,0x68).
time:  0000e358:note on:          (0x94,0x1d,0x7f).
time:  0000e3a8:note off:         (0x84,0x1d,0x68).
time:  0000e3d0:note on:          (0x94,0x22,0x7f).
time:  0000e420:note off:         (0x84,0x22,0x68).
time:  0000e448:note on:          (0x94,0x22,0x7f).
time:  0000e498:note off:         (0x84,0x22,0x68).
time:  0000e4c0:note on:          (0x94,0x22,0x7f).
time:  0000e510:note off:         (0x84,0x22,0x68).
time:  0000e538:note on:          (0x94,0x22,0x7f).
time:  0000e588:note off:         (0x84,0x22,0x68).
time:  0000e5b0:note on:          (0x94,0x20,0x7f).
time:  0000e600:note off:         (0x84,0x20,0x68).
time:  0000e628:note on:          (0x94,0x20,0x7f).
time:  0000e678:note off:         (0x84,0x20,0x68).
time:  0000e6a0:note on:          (0x94,0x20,0x7f).
time:  0000e6f0:note off:         (0x84,0x20,0x68).
time:  0000e718:note on:          (0x94,0x20,0x7f).
time:  0000e768:note off:         (0x84,0x20,0x68).
time:  0000e790:note on:          (0x94,0x25,0x7f).
time:  0000e7e0:note off:         (0x84,0x25,0x68).
time:  0000e808:note on:          (0x94,0x25,0x7f).
time:  0000e858:note off:         (0x84,0x25,0x68).
time:  0000e880:note on:          (0x94,0x25,0x7f).
time:  0000e8d0:note off:         (0x84,0x25,0x68).
time:  0000e8f8:note on:          (0x94,0x25,0x7f).
time:  0000e948:note off:         (0x84,0x25,0x68).
time:  0000e970:note on:          (0x94,0x1d,0x7f).
time:  0000e9c0:note off:         (0x84,0x1d,0x68).
time:  0000e9e8:note on:          (0x94,0x1d,0x7f).
time:  0000ea38:note off:         (0x84,0x1d,0x68).
time:  0000ea60:note on:          (0x94,0x1d,0x7f).
time:  0000eab0:note off:         (0x84,0x1d,0x68).
time:  0000ead8:note on:          (0x94,0x1d,0x7f).
time:  0000eb28:note off:         (0x84,0x1d,0x68).
time:  0000eb50:note on:          (0x94,0x22,0x7f).
time:  0000eba0:note off:         (0x84,0x22,0x68).
time:  0000ebc8:note on:          (0x94,0x22,0x7f).
time:  0000ec18:note off:         (0x84,0x22,0x68).
time:  0000ec40:note on:          (0x94,0x22,0x7f).
time:  0000ec90:note off:         (0x84,0x22,0x68).
time:  0000ecb8:note on:          (0x94,0x22,0x7f).
time:  0000ed08:note off:         (0x84,0x22,0x68).
time:  0000ed30:note on:          (0x94,0x20,0x7f).
time:  0000ed80:note off:         (0x84,0x20,0x68).
time:  0000eda8:note on:          (0x94,0x20,0x7f).
time:  0000edf8:note off:         (0x84,0x20,0x68).
time:  0000ee20:note on:          (0x94,0x20,0x7f).
time:  0000ee70:note off:         (0x84,0x20,0x68).
time:  0000ee98:note on:          (0x94,0x20,0x7f).
time:  0000eee8:note off:         (0x84,0x20,0x68).
time:  0000ef10:note on:          (0x94,0x25,0x7f).
time:  0000ef60:note off:         (0x84,0x25,0x68).
time:  0000ef88:note on:          (0x94,0x25,0x7f).
time:  0000efd8:note off:         (0x84,0x25,0x68).
time:  0000f000:note on:          (0x94,0x25,0x7f).
time:  0000f050:note off:         (0x84,0x25,0x68).
time:  0000f078:note on:          (0x94,0x25,0x7f).
time:  0000f0c8:note off:         (0x84,0x25,0x68).
time:  0000f0f0:note on:          (0x94,0x1d,0x7f).
time:  0000f168:note off:         (0x84,0x1d,0x68).
time:  0000f1a4:note on:          (0x94,0x1d,0x7f).
time:  0000f1e0:note off:         (0x84,0x1d,0x68).
time:  0000f1e0:note on:          (0x94,0x1d,0x7f).
time:  0000f258:note off:         (0x84,0x1d,0x68).
time:  0000f294:note on:          (0x94,0x1d,0x7f).
time:  0000f2d0:note off:         (0x84,0x1d,0x68).
time:  0000f2d0:note on:          (0x94,0x1d,0x7f).
time:  0000f30c:note off:         (0x84,0x1d,0x68).
time:  0000f30c:note on:          (0x94,0x1d,0x7f).
time:  0000f348:note off:         (0x84,0x1d,0x68).
time:  0000f348:note on:          (0x94,0x22,0x7f).
time:  0000f3c0:note off:         (0x84,0x22,0x68).
time:  0000f3c0:note on:          (0x94,0x22,0x7f).
time:  0000f438:note off:         (0x84,0x22,0x68).
time:  0000f438:note on:          (0x94,0x1d,0x7f).
time:  0000f4b0:note off:         (0x84,0x1d,0x68).
time:  0000f4b0:note on:          (0x94,0x20,0x7f).
time:  0000f528:note off:         (0x84,0x20,0x68).
time:  0000f564:note on:          (0x94,0x20,0x7f).
time:  0000f5a0:note off:         (0x84,0x20,0x68).
time:  0000f5a0:note on:          (0x94,0x20,0x7f).
time:  0000f618:note off:         (0x84,0x20,0x68).
time:  0000f654:note on:          (0x94,0x20,0x7f).
time:  0000f690:note off:         (0x84,0x20,0x68).
time:  0000f690:note on:          (0x94,0x20,0x7f).
time:  0000f6cc:note off:         (0x84,0x20,0x68).
time:  0000f6cc:note on:          (0x94,0x20,0x7f).
time:  0000f708:note off:         (0x84,0x20,0x68).
time:  0000f708:note on:          (0x94,0x25,0x7f).
time:  0000f780:note off:         (0x84,0x25,0x68).
time:  0000f780:note on:          (0x94,0x25,0x7f).
time:  0000f7f8:note off:         (0x84,0x25,0x68).
time:  0000f7f8:note on:          (0x94,0x20,0x7f).
time:  0000f870:note off:         (0x84,0x20,0x68).
time:  0000f870:note on:          (0x94,0x1d,0x7f).
time:  0000f8e8:note off:         (0x84,0x1d,0x68).
time:  0000f924:note on:          (0x94,0x1d,0x7f).
time:  0000f960:note off:         (0x84,0x1d,0x68).
time:  0000f960:note on:          (0x94,0x1d,0x7f).
time:  0000f9d8:note off:         (0x84,0x1d,0x68).
time:  0000fa14:note on:          (0x94,0x1d,0x7f).
time:  0000fa50:note off:         (0x84,0x1d,0x68).
time:  0000fa50:note on:          (0x94,0x1d,0x7f).
time:  0000fa8c:note off:         (0x84,0x1d,0x68).
time:  0000fa8c:note on:          (0x94,0x1d,0x7f).
time:  0000fac8:note off:         (0x84,0x1d,0x68).
time:  0000fac8:note on:          (0x94,0x22,0x7f).
time:  0000fb40:note off:         (0x84,0x22,0x68).
time:  0000fb40:note on:          (0x94,0x22,0x7f).
time:  0000fbb8:note off:         (0x84,0x22,0x68).
time:  0000fbb8:note on:          (0x94,0x1d,0x7f).
time:  0000fc30:note off:         (0x84,0x1d,0x68).
time:  0000fc30:note on:          (0x94,0x20,0x7f).
time:  0000fca8:note off:         (0x84,0x20,0x68).
time:  0000fce4:note on:          (0x94,0x20,0x7f).
time:  0000fd20:note off:         (0x84,0x20,0x68).
time:  0000fd20:note on:          (0x94,0x20,0x7f).
time:  0000fd98:note off:         (0x84,0x20,0x68).
time:  0000fdd4:note on:          (0x94,0x20,0x7f).
time:  0000fe10:note off:         (0x84,0x20,0x68).
time:  0000fe10:note on:          (0x94,0x20,0x7f).
time:  0000fe4c:note off:         (0x84,0x20,0x68).
time:  0000fe4c:note on:          (0x94,0x20,0x7f).
time:  0000fe88:note off:         (0x84,0x20,0x68).
time:  0000fe88:note on:          (0x94,0x25,0x7f).
time:  0000ff00:note off:         (0x84,0x25,0x68).
time:  0000ff00:note on:          (0x94,0x25,0x7f).
time:  0000ff78:note off:         (0x84,0x25,0x68).
time:  0000ff78:note on:          (0x94,0x20,0x7f).
time:  0000fff0:note off:         (0x84,0x20,0x68).
time:  0000fff0:note on:          (0x94,0x1d,0x7f).
time:  00010068:note off:         (0x84,0x1d,0x68).
time:  000100a4:note on:          (0x94,0x1d,0x7f).
time:  000100e0:note off:         (0x84,0x1d,0x68).
time:  000100e0:note on:          (0x94,0x1d,0x7f).
time:  00010158:note off:         (0x84,0x1d,0x68).
time:  00010194:note on:          (0x94,0x1d,0x7f).
time:  000101d0:note off:         (0x84,0x1d,0x68).
time:  000101d0:note on:          (0x94,0x1d,0x7f).
time:  0001020c:note off:         (0x84,0x1d,0x68).
time:  0001020c:note on:          (0x94,0x1d,0x7f).
time:  00010248:note off:         (0x84,0x1d,0x68).
time:  00010248:note on:          (0x94,0x22,0x7f).
time:  000102c0:note off:         (0x84,0x22,0x68).
time:  000102c0:note on:          (0x94,0x22,0x7f).
time:  00010338:note off:         (0x84,0x22,0x68).
time:  00010338:note on:          (0x94,0x1d,0x7f).
time:  000103b0:note off:         (0x84,0x1d,0x68).
time:  000103b0:note on:          (0x94,0x20,0x7f).
time:  00010428:note off:         (0x84,0x20,0x68).
time:  00010464:note on:          (0x94,0x20,0x7f).
time:  000104a0:note off:         (0x84,0x20,0x68).
time:  000104a0:note on:          (0x94,0x20,0x7f).
time:  00010518:note off:         (0x84,0x20,0x68).
time:  00010554:note on:          (0x94,0x20,0x7f).
time:  00010590:note off:         (0x84,0x20,0x68).
time:  00010590:note on:          (0x94,0x20,0x7f).
time:  000105cc:note off:         (0x84,0x20,0x68).
time:  000105cc:note on:          (0x94,0x20,0x7f).
time:  00010608:note off:         (0x84,0x20,0x68).
time:  00010608:note on:          (0x94,0x25,0x7f).
time:  00010680:note off:         (0x84,0x25,0x68).
time:  00010680:note on:          (0x94,0x25,0x7f).
time:  000106f8:note off:         (0x84,0x25,0x68).
time:  000106f8:note on:          (0x94,0x20,0x7f).
time:  00010770:note off:         (0x84,0x20,0x68).
time:  00010770:note on:          (0x94,0x1d,0x7f).
time:  000107e8:note off:         (0x84,0x1d,0x68).
time:  00010824:note on:          (0x94,0x1d,0x7f).
time:  00010860:note off:         (0x84,0x1d,0x68).
time:  00010860:note on:          (0x94,0x1d,0x7f).
time:  000108d8:note off:         (0x84,0x1d,0x68).
time:  00010914:note on:          (0x94,0x1d,0x7f).
time:  00010950:note off:         (0x84,0x1d,0x68).
time:  00010950:note on:          (0x94,0x1d,0x7f).
time:  0001098c:note off:         (0x84,0x1d,0x68).
time:  0001098c:note on:          (0x94,0x1d,0x7f).
time:  000109c8:note off:         (0x84,0x1d,0x68).
time:  000109c8:note on:          (0x94,0x22,0x7f).
time:  00010a40:note off:         (0x84,0x22,0x68).
time:  00010a40:note on:          (0x94,0x22,0x7f).
time:  00010ab8:note off:         (0x84,0x22,0x68).
time:  00010ab8:note on:          (0x94,0x1d,0x7f).
time:  00010b30:note off:         (0x84,0x1d,0x68).
time:  00010b30:note on:          (0x94,0x20,0x7f).
time:  00010ba8:note off:         (0x84,0x20,0x68).
time:  00010be4:note on:          (0x94,0x20,0x7f).
time:  00010c20:note off:         (0x84,0x20,0x68).
time:  00010c20:note on:          (0x94,0x20,0x7f).
time:  00010c98:note off:         (0x84,0x20,0x68).
time:  00010cd4:note on:          (0x94,0x20,0x7f).
time:  00010d10:note off:         (0x84,0x20,0x68).
time:  00010d10:note on:          (0x94,0x20,0x7f).
time:  00010d4c:note off:         (0x84,0x20,0x68).
time:  00010d4c:note on:          (0x94,0x20,0x7f).
time:  00010d88:note off:         (0x84,0x20,0x68).
time:  00010d88:note on:          (0x94,0x25,0x7f).
time:  00010e00:note off:         (0x84,0x25,0x68).
time:  00010e00:note on:          (0x94,0x25,0x7f).
time:  00010e78:note off:         (0x84,0x25,0x68).
time:  00010e78:note on:          (0x94,0x20,0x7f).
time:  00010ef0:note off:         (0x84,0x20,0x68).
time:  00010ef0:note on:          (0x94,0x1d,0x7f).
time:  00010f90:note off:         (0x84,0x1d,0x68).
time:  00010fe0:note on:          (0x94,0x1c,0x7f).
time:  00011058:note off:         (0x84,0x1c,0x68).
time:  00011058:note on:          (0x94,0x1d,0x7f).
time:  000110d0:note off:         (0x84,0x1d,0x68).
time:  000110d0:note on:          (0x94,0x1e,0x7f).
time:  00011148:note off:         (0x84,0x1e,0x68).
time:  00011148:note on:          (0x94,0x1e,0x7f).
time:  000111c0:note off:         (0x84,0x1e,0x68).
time:  000112b0:note on:          (0x94,0x1d,0x7f).
time:  000113a0:note off:         (0x84,0x1d,0x68).
time:  000113a0:note on:          (0x94,0x1c,0x7f).
time:  00011418:note off:         (0x84,0x1c,0x68).
time:  00011418:note on:          (0x94,0x1d,0x7f).
time:  00011490:note off:         (0x84,0x1d,0x68).
time:  00011490:note on:          (0x94,0x22,0x7f).
time:  00011580:note off:         (0x84,0x22,0x68).
time:  00011580:note on:          (0x94,0x20,0x7f).
time:  00011670:note off:         (0x84,0x20,0x68).
time:  00011670:note on:          (0x94,0x1d,0x7f).
time:  00011710:note off:         (0x84,0x1d,0x68).
time:  00011760:note on:          (0x94,0x1c,0x7f).
time:  000117d8:note off:         (0x84,0x1c,0x68).
time:  000117d8:note on:          (0x94,0x1d,0x7f).
time:  00011850:note off:         (0x84,0x1d,0x68).
time:  00011850:note on:          (0x94,0x1e,0x7f).
time:  000118c8:note off:         (0x84,0x1e,0x68).
time:  000118c8:note on:          (0x94,0x1e,0x7f).
time:  00011940:note off:         (0x84,0x1e,0x68).
time:  00011a30:note on:          (0x94,0x1d,0x7f).
time:  00011b20:note off:         (0x84,0x1d,0x68).
time:  00011b20:note on:          (0x94,0x1c,0x7f).
time:  00011b98:note off:         (0x84,0x1c,0x68).
time:  00011b98:note on:          (0x94,0x1d,0x7f).
time:  00011c10:note off:         (0x84,0x1d,0x68).
time:  00011c10:note on:          (0x94,0x22,0x7f).
time:  00011d00:note off:         (0x84,0x22,0x68).
time:  00011d00:note on:          (0x94,0x20,0x7f).
time:  00011df0:note off:         (0x84,0x20,0x68).
time:  00011df0:note on:          (0x94,0x1d,0x7f).
time:  00011e68:note off:         (0x84,0x1d,0x68).
time:  00011ea4:note on:          (0x94,0x1d,0x7f).
time:  00011ee0:note off:         (0x84,0x1d,0x68).
time:  00011ee0:note on:          (0x94,0x1d,0x7f).
time:  00011f58:note off:         (0x84,0x1d,0x68).
time:  00011f94:note on:          (0x94,0x1d,0x7f).
time:  00011fd0:note off:         (0x84,0x1d,0x68).
time:  00011fd0:note on:          (0x94,0x1d,0x7f).
time:  0001200c:note off:         (0x84,0x1d,0x68).
time:  0001200c:note on:          (0x94,0x1d,0x7f).
time:  00012048:note off:         (0x84,0x1d,0x68).
time:  00012048:note on:          (0x94,0x22,0x7f).
time:  000120c0:note off:         (0x84,0x22,0x68).
time:  000120c0:note on:          (0x94,0x22,0x7f).
time:  00012138:note off:         (0x84,0x22,0x68).
time:  00012138:note on:          (0x94,0x1d,0x7f).
time:  000121b0:note off:         (0x84,0x1d,0x68).
time:  000121b0:note on:          (0x94,0x20,0x7f).
time:  00012228:note off:         (0x84,0x20,0x68).
time:  00012264:note on:          (0x94,0x20,0x7f).
time:  000122a0:note off:         (0x84,0x20,0x68).
time:  000122a0:note on:          (0x94,0x20,0x7f).
time:  00012318:note off:         (0x84,0x20,0x68).
time:  00012354:note on:          (0x94,0x20,0x7f).
time:  00012390:note off:         (0x84,0x20,0x68).
time:  00012390:note on:          (0x94,0x20,0x7f).
time:  000123cc:note off:         (0x84,0x20,0x68).
time:  000123cc:note on:          (0x94,0x20,0x7f).
time:  00012408:note off:         (0x84,0x20,0x68).
time:  00012408:note on:          (0x94,0x25,0x7f).
time:  00012480:note off:         (0x84,0x25,0x68).
time:  00012480:note on:          (0x94,0x25,0x7f).
time:  000124f8:note off:         (0x84,0x25,0x68).
time:  000124f8:note on:          (0x94,0x20,0x7f).
time:  00012570:note off:         (0x84,0x20,0x68).
time:  00012570:note on:          (0x94,0x1d,0x7f).
time:  000125e8:note off:         (0x84,0x1d,0x68).
time:  00012624:note on:          (0x94,0x1d,0x7f).
time:  00012660:note off:         (0x84,0x1d,0x68).
time:  00012660:note on:          (0x94,0x1d,0x7f).
time:  000126d8:note off:         (0x84,0x1d,0x68).
time:  00012714:note on:          (0x94,0x1d,0x7f).
time:  00012750:note off:         (0x84,0x1d,0x68).
time:  00012750:note on:          (0x94,0x1d,0x7f).
time:  0001278c:note off:         (0x84,0x1d,0x68).
time:  0001278c:note on:          (0x94,0x1d,0x7f).
time:  000127c8:note off:         (0x84,0x1d,0x68).
time:  000127c8:note on:          (0x94,0x22,0x7f).
time:  00012840:note off:         (0x84,0x22,0x68).
time:  00012840:note on:          (0x94,0x22,0x7f).
time:  000128b8:note off:         (0x84,0x22,0x68).
time:  000128b8:note on:          (0x94,0x1d,0x7f).
time:  00012930:note off:         (0x84,0x1d,0x68).
time:  00012930:note on:          (0x94,0x20,0x7f).
time:  000129a8:note off:         (0x84,0x20,0x68).
time:  000129e4:note on:          (0x94,0x20,0x7f).
time:  00012a20:note off:         (0x84,0x20,0x68).
time:  00012a20:note on:          (0x94,0x20,0x7f).
time:  00012a98:note off:         (0x84,0x20,0x68).
time:  00012ad4:note on:          (0x94,0x20,0x7f).
time:  00012b10:note off:         (0x84,0x20,0x68).
time:  00012b10:note on:          (0x94,0x20,0x7f).
time:  00012b4c:note off:         (0x84,0x20,0x68).
time:  00012b4c:note on:          (0x94,0x20,0x7f).
time:  00012b88:note off:         (0x84,0x20,0x68).
time:  00012b88:note on:          (0x94,0x25,0x7f).
time:  00012c00:note off:         (0x84,0x25,0x68).
time:  00012c00:note on:          (0x94,0x25,0x7f).
time:  00012c78:note off:         (0x84,0x25,0x68).
time:  00012c78:note on:          (0x94,0x20,0x7f).
time:  00012cf0:note off:         (0x84,0x20,0x68).
time:  00012cf0:note on:          (0x94,0x1d,0x7f).
time:  00012d68:note off:         (0x84,0x1d,0x68).
time:  00012da4:note on:          (0x94,0x1d,0x7f).
time:  00012de0:note off:         (0x84,0x1d,0x68).
time:  00012de0:note on:          (0x94,0x1d,0x7f).
time:  00012e58:note off:         (0x84,0x1d,0x68).
time:  00012e94:note on:          (0x94,0x1d,0x7f).
time:  00012ed0:note off:         (0x84,0x1d,0x68).
time:  00012ed0:note on:          (0x94,0x1d,0x7f).
time:  00012f0c:note off:         (0x84,0x1d,0x68).
time:  00012f0c:note on:          (0x94,0x1d,0x7f).
time:  00012f48:note off:         (0x84,0x1d,0x68).
time:  00012f48:note on:          (0x94,0x22,0x7f).
time:  00012fc0:note off:         (0x84,0x22,0x68).
time:  00012fc0:note on:          (0x94,0x22,0x7f).
time:  00013038:note off:         (0x84,0x22,0x68).
time:  00013038:note on:          (0x94,0x1d,0x7f).
time:  000130b0:note off:         (0x84,0x1d,0x68).
time:  000130b0:note on:          (0x94,0x20,0x7f).
time:  00013128:note off:         (0x84,0x20,0x68).
time:  00013164:note on:          (0x94,0x20,0x7f).
time:  000131a0:note off:         (0x84,0x20,0x68).
time:  000131a0:note on:          (0x94,0x20,0x7f).
time:  00013218:note off:         (0x84,0x20,0x68).
time:  00013254:note on:          (0x94,0x20,0x7f).
time:  00013290:note off:         (0x84,0x20,0x68).
time:  00013290:note on:          (0x94,0x20,0x7f).
time:  000132cc:note off:         (0x84,0x20,0x68).
time:  000132cc:note on:          (0x94,0x20,0x7f).
time:  00013308:note off:         (0x84,0x20,0x68).
time:  00013308:note on:          (0x94,0x25,0x7f).
time:  00013380:note off:         (0x84,0x25,0x68).
time:  00013380:note on:          (0x94,0x25,0x7f).
time:  000133f8:note off:         (0x84,0x25,0x68).
time:  000133f8:note on:          (0x94,0x20,0x7f).
time:  00013470:note off:         (0x84,0x20,0x68).
time:  00013470:note on:          (0x94,0x1d,0x7f).
time:  000134e8:note off:         (0x84,0x1d,0x68).
time:  00013524:note on:          (0x94,0x1d,0x7f).
time:  00013560:note off:         (0x84,0x1d,0x68).
time:  00013560:note on:          (0x94,0x1d,0x7f).
time:  000135d8:note off:         (0x84,0x1d,0x68).
time:  00013614:note on:          (0x94,0x1d,0x7f).
time:  00013650:note off:         (0x84,0x1d,0x68).
time:  00013650:note on:          (0x94,0x1d,0x7f).
time:  0001368c:note off:         (0x84,0x1d,0x68).
time:  0001368c:note on:          (0x94,0x1d,0x7f).
time:  000136c8:note off:         (0x84,0x1d,0x68).
time:  000136c8:note on:          (0x94,0x22,0x7f).
time:  00013740:note off:         (0x84,0x22,0x68).
time:  00013740:note on:          (0x94,0x22,0x7f).
time:  000137b8:note off:         (0x84,0x22,0x68).
time:  000137b8:note on:          (0x94,0x1d,0x7f).
time:  00013830:note off:         (0x84,0x1d,0x68).
time:  00013830:note on:          (0x94,0x20,0x7f).
time:  000138a8:note off:         (0x84,0x20,0x68).
time:  000138e4:note on:          (0x94,0x20,0x7f).
time:  00013920:note off:         (0x84,0x20,0x68).
time:  00013920:note on:          (0x94,0x20,0x7f).
time:  00013998:note off:         (0x84,0x20,0x68).
time:  000139d4:note on:          (0x94,0x20,0x7f).
time:  00013a10:note off:         (0x84,0x20,0x68).
time:  00013a10:note on:          (0x94,0x20,0x7f).
time:  00013a4c:note off:         (0x84,0x20,0x68).
time:  00013a4c:note on:          (0x94,0x20,0x7f).
time:  00013a88:note off:         (0x84,0x20,0x68).
time:  00013a88:note on:          (0x94,0x25,0x7f).
time:  00013b00:note off:         (0x84,0x25,0x68).
time:  00013b00:note on:          (0x94,0x25,0x7f).
time:  00013b78:note off:         (0x84,0x25,0x68).
time:  00013b78:note on:          (0x94,0x20,0x7f).
time:  00013bf0:note off:         (0x84,0x20,0x68).
time:  00013bf0:note on:          (0x94,0x1d,0x7f).
time:  00013c68:note off:         (0x84,0x1d,0x68).
time:  00013ca4:note on:          (0x94,0x1d,0x7f).
time:  00013ce0:note off:         (0x84,0x1d,0x68).
time:  00013ce0:note on:          (0x94,0x1d,0x7f).
time:  00013d58:note off:         (0x84,0x1d,0x68).
time:  00013d94:note on:          (0x94,0x1d,0x7f).
time:  00013dd0:note off:         (0x84,0x1d,0x68).
time:  00013dd0:note on:          (0x94,0x1d,0x7f).
time:  00013e0c:note off:         (0x84,0x1d,0x68).
time:  00013e0c:note on:          (0x94,0x1d,0x7f).
time:  00013e48:note off:         (0x84,0x1d,0x68).
time:  00013e48:note on:          (0x94,0x22,0x7f).
time:  00013ec0:note off:         (0x84,0x22,0x68).
time:  00013ec0:note on:          (0x94,0x22,0x7f).
time:  00013f38:note off:         (0x84,0x22,0x68).
time:  00013f38:note on:          (0x94,0x1d,0x7f).
time:  00013fb0:note off:         (0x84,0x1d,0x68).
time:  00013fb0:note on:          (0x94,0x20,0x7f).
time:  00014028:note off:         (0x84,0x20,0x68).
time:  00014064:note on:          (0x94,0x20,0x7f).
time:  000140a0:note off:         (0x84,0x20,0x68).
time:  000140a0:note on:          (0x94,0x20,0x7f).
time:  00014118:note off:         (0x84,0x20,0x68).
time:  00014154:note on:          (0x94,0x20,0x7f).
time:  00014190:note off:         (0x84,0x20,0x68).
time:  00014190:note on:          (0x94,0x20,0x7f).
time:  000141cc:note off:         (0x84,0x20,0x68).
time:  000141cc:note on:          (0x94,0x20,0x7f).
time:  00014208:note off:         (0x84,0x20,0x68).
time:  00014208:note on:          (0x94,0x25,0x7f).
time:  00014280:note off:         (0x84,0x25,0x68).
time:  00014280:note on:          (0x94,0x25,0x7f).
time:  000142f8:note off:         (0x84,0x25,0x68).
time:  000142f8:note on:          (0x94,0x20,0x7f).
time:  00014370:note off:         (0x84,0x20,0x68).
time:  00014370:note on:          (0x94,0x1d,0x7f).
time:  000143e8:note off:         (0x84,0x1d,0x68).
time:  00014424:note on:          (0x94,0x1d,0x7f).
time:  00014460:note off:         (0x84,0x1d,0x68).
time:  00014460:note on:          (0x94,0x1d,0x7f).
time:  000144d8:note off:         (0x84,0x1d,0x68).
time:  00014514:note on:          (0x94,0x1d,0x7f).
time:  00014550:note off:         (0x84,0x1d,0x68).
time:  00014550:note on:          (0x94,0x1d,0x7f).
time:  0001458c:note off:         (0x84,0x1d,0x68).
time:  0001458c:note on:          (0x94,0x1d,0x7f).
time:  000145c8:note off:         (0x84,0x1d,0x68).
time:  000145c8:note on:          (0x94,0x22,0x7f).
time:  00014640:note off:         (0x84,0x22,0x68).
time:  00014640:note on:          (0x94,0x22,0x7f).
time:  000146b8:note off:         (0x84,0x22,0x68).
time:  000146b8:note on:          (0x94,0x1d,0x7f).
time:  00014730:note off:         (0x84,0x1d,0x68).
time:  00014730:note on:          (0x94,0x20,0x7f).
time:  000147a8:note off:         (0x84,0x20,0x68).
time:  000147e4:note on:          (0x94,0x20,0x7f).
time:  00014820:note off:         (0x84,0x20,0x68).
time:  00014820:note on:          (0x94,0x20,0x7f).
time:  00014898:note off:         (0x84,0x20,0x68).
time:  000148d4:note on:          (0x94,0x20,0x7f).
time:  00014910:note off:         (0x84,0x20,0x68).
time:  00014910:note on:          (0x94,0x20,0x7f).
time:  0001494c:note off:         (0x84,0x20,0x68).
time:  0001494c:note on:          (0x94,0x20,0x7f).
time:  00014988:note off:         (0x84,0x20,0x68).
time:  00014988:note on:          (0x94,0x25,0x7f).
time:  00014a00:note off:         (0x84,0x25,0x68).
time:  00014a00:note on:          (0x94,0x25,0x7f).
time:  00014a78:note off:         (0x84,0x25,0x68).
time:  00014a78:note on:          (0x94,0x20,0x7f).
time:  00014af0:note off:         (0x84,0x20,0x68).
time:  00014af0:note on:          (0x94,0x1d,0x7f).
time:  00014b68:note off:         (0x84,0x1d,0x68).
time:  00014ba4:note on:          (0x94,0x1d,0x7f).
time:  00014be0:note off:         (0x84,0x1d,0x68).
time:  00014be0:note on:          (0x94,0x1d,0x7f).
time:  00014c58:note off:         (0x84,0x1d,0x68).
time:  00014c94:note on:          (0x94,0x1d,0x7f).
time:  00014cd0:note off:         (0x84,0x1d,0x68).
time:  00014cd0:note on:          (0x94,0x1d,0x7f).
time:  00014d0c:note off:         (0x84,0x1d,0x68).
time:  00014d0c:note on:          (0x94,0x1d,0x7f).
time:  00014d48:note off:         (0x84,0x1d,0x68).
time:  00014d48:note on:          (0x94,0x22,0x7f).
time:  00014dc0:note off:         (0x84,0x22,0x68).
time:  00014dc0:note on:          (0x94,0x22,0x7f).
time:  00014e38:note off:         (0x84,0x22,0x68).
time:  00014e38:note on:          (0x94,0x1d,0x7f).
time:  00014eb0:note off:         (0x84,0x1d,0x68).
time:  00014eb0:note on:          (0x94,0x20,0x7f).
time:  00014f28:note off:         (0x84,0x20,0x68).
time:  00014f64:note on:          (0x94,0x20,0x7f).
time:  00014fa0:note off:         (0x84,0x20,0x68).
time:  00014fa0:note on:          (0x94,0x20,0x7f).
time:  00015018:note off:         (0x84,0x20,0x68).
time:  00015054:note on:          (0x94,0x20,0x7f).
time:  00015090:note off:         (0x84,0x20,0x68).
time:  00015090:note on:          (0x94,0x20,0x7f).
time:  000150cc:note off:         (0x84,0x20,0x68).
time:  000150cc:note on:          (0x94,0x20,0x7f).
time:  00015108:note off:         (0x84,0x20,0x68).
time:  00015108:note on:          (0x94,0x25,0x7f).
time:  00015180:note off:         (0x84,0x25,0x68).
time:  00015180:note on:          (0x94,0x25,0x7f).
time:  000151f8:note off:         (0x84,0x25,0x68).
time:  000151f8:note on:          (0x94,0x20,0x7f).
time:  00015270:note off:         (0x84,0x20,0x68).
time:  00015270:note on:          (0x94,0x1d,0x7f).
time:  000152e8:note off:         (0x84,0x1d,0x68).
time:  00015324:note on:          (0x94,0x1d,0x7f).
time:  00015360:note off:         (0x84,0x1d,0x68).
time:  00015360:note on:          (0x94,0x1d,0x7f).
time:  000153d8:note off:         (0x84,0x1d,0x68).
time:  00015414:note on:          (0x94,0x1d,0x7f).
time:  00015450:note off:         (0x84,0x1d,0x68).
time:  00015450:note on:          (0x94,0x1d,0x7f).
time:  0001548c:note off:         (0x84,0x1d,0x68).
time:  0001548c:note on:          (0x94,0x1d,0x7f).
time:  000154c8:note off:         (0x84,0x1d,0x68).
time:  000154c8:note on:          (0x94,0x22,0x7f).
time:  00015540:note off:         (0x84,0x22,0x68).
time:  00015540:note on:          (0x94,0x22,0x7f).
time:  000155b8:note off:         (0x84,0x22,0x68).
time:  000155b8:note on:          (0x94,0x1d,0x7f).
time:  00015630:note off:         (0x84,0x1d,0x68).
time:  00015630:note on:          (0x94,0x20,0x7f).
time:  000156a8:note off:         (0x84,0x20,0x68).
time:  000156e4:note on:          (0x94,0x20,0x7f).
time:  00015720:note off:         (0x84,0x20,0x68).
time:  00015720:note on:          (0x94,0x20,0x7f).
time:  00015798:note off:         (0x84,0x20,0x68).
time:  000157d4:note on:          (0x94,0x20,0x7f).
time:  00015810:note off:         (0x84,0x20,0x68).
time:  00015810:note on:          (0x94,0x20,0x7f).
time:  0001584c:note off:         (0x84,0x20,0x68).
time:  0001584c:note on:          (0x94,0x20,0x7f).
time:  00015888:note off:         (0x84,0x20,0x68).
time:  00015888:note on:          (0x94,0x25,0x7f).
time:  00015900:note off:         (0x84,0x25,0x68).
time:  00015900:note on:          (0x94,0x25,0x7f).
time:  00015978:note off:         (0x84,0x25,0x68).
time:  00015978:note on:          (0x94,0x20,0x7f).
time:  000159f0:note off:         (0x84,0x20,0x68).
time:  000159f0:note on:          (0x94,0x1d,0x7f).
time:  00015a40:note off:         (0x84,0x1d,0x68).
time:  00015a68:note on:          (0x94,0x1d,0x7f).
time:  00015ab8:note off:         (0x84,0x1d,0x68).
time:  00015ae0:note on:          (0x94,0x1d,0x7f).
time:  00015b30:note off:         (0x84,0x1d,0x68).
time:  00015b58:note on:          (0x94,0x1d,0x7f).
time:  00015ba8:note off:         (0x84,0x1d,0x68).
time:  00015bd0:note on:          (0x94,0x22,0x7f).
time:  00015c20:note off:         (0x84,0x22,0x68).
time:  00015c48:note on:          (0x94,0x22,0x7f).
time:  00015c98:note off:         (0x84,0x22,0x68).
time:  00015cc0:note on:          (0x94,0x22,0x7f).
time:  00015d10:note off:         (0x84,0x22,0x68).
time:  00015d38:note on:          (0x94,0x22,0x7f).
time:  00015d88:note off:         (0x84,0x22,0x68).
time:  00015db0:note on:          (0x94,0x20,0x7f).
time:  00015e00:note off:         (0x84,0x20,0x68).
time:  00015e28:note on:          (0x94,0x20,0x7f).
time:  00015e78:note off:         (0x84,0x20,0x68).
time:  00015ea0:note on:          (0x94,0x20,0x7f).
time:  00015ef0:note off:         (0x84,0x20,0x68).
time:  00015f18:note on:          (0x94,0x20,0x7f).
time:  00015f68:note off:         (0x84,0x20,0x68).
time:  00015f90:note on:          (0x94,0x25,0x7f).
time:  00015fe0:note off:         (0x84,0x25,0x68).
time:  00016008:note on:          (0x94,0x25,0x7f).
time:  00016058:note off:         (0x84,0x25,0x68).
time:  00016080:note on:          (0x94,0x25,0x7f).
time:  000160d0:note off:         (0x84,0x25,0x68).
time:  000160f8:note on:          (0x94,0x25,0x7f).
time:  00016148:note off:         (0x84,0x25,0x68).
time:  00016170:note on:          (0x94,0x1d,0x7f).
time:  000161c0:note off:         (0x84,0x1d,0x68).
time:  000161e8:note on:          (0x94,0x1d,0x7f).
time:  00016238:note off:         (0x84,0x1d,0x68).
time:  00016260:note on:          (0x94,0x1d,0x7f).
time:  000162b0:note off:         (0x84,0x1d,0x68).
time:  000162d8:note on:          (0x94,0x1d,0x7f).
time:  00016328:note off:         (0x84,0x1d,0x68).
time:  00016350:note on:          (0x94,0x22,0x7f).
time:  000163a0:note off:         (0x84,0x22,0x68).
time:  000163c8:note on:          (0x94,0x22,0x7f).
time:  00016418:note off:         (0x84,0x22,0x68).
time:  00016440:note on:          (0x94,0x22,0x7f).
time:  00016490:note off:         (0x84,0x22,0x68).
time:  000164b8:note on:          (0x94,0x22,0x7f).
time:  00016508:note off:         (0x84,0x22,0x68).
time:  00016530:note on:          (0x94,0x20,0x7f).
time:  00016580:note off:         (0x84,0x20,0x68).
time:  000165a8:note on:          (0x94,0x20,0x7f).
time:  000165f8:note off:         (0x84,0x20,0x68).
time:  00016620:note on:          (0x94,0x20,0x7f).
time:  00016670:note off:         (0x84,0x20,0x68).
time:  00016698:note on:          (0x94,0x20,0x7f).
time:  000166e8:note off:         (0x84,0x20,0x68).
time:  00016710:note on:          (0x94,0x25,0x7f).
time:  00016760:note off:         (0x84,0x25,0x68).
time:  00016788:note on:          (0x94,0x25,0x7f).
time:  000167d8:note off:         (0x84,0x25,0x68).
time:  00016800:note on:          (0x94,0x25,0x7f).
time:  00016850:note off:         (0x84,0x25,0x68).
time:  00016878:note on:          (0x94,0x25,0x7f).
time:  000168c8:note off:         (0x84,0x25,0x68).
time:  000168f0:note on:          (0x94,0x1d,0x7f).
time:  00016940:note off:         (0x84,0x1d,0x68).
time:  00016968:note on:          (0x94,0x1d,0x7f).
time:  000169b8:note off:         (0x84,0x1d,0x68).
time:  000169e0:note on:          (0x94,0x1d,0x7f).
time:  00016a30:note off:         (0x84,0x1d,0x68).
time:  00016a58:note on:          (0x94,0x1d,0x7f).
time:  00016aa8:note off:         (0x84,0x1d,0x68).
time:  00016ad0:note on:          (0x94,0x22,0x7f).
time:  00016b20:note off:         (0x84,0x22,0x68).
time:  00016b48:note on:          (0x94,0x22,0x7f).
time:  00016b98:note off:         (0x84,0x22,0x68).
time:  00016bc0:note on:          (0x94,0x22,0x7f).
time:  00016c10:note off:         (0x84,0x22,0x68).
time:  00016c38:note on:          (0x94,0x22,0x7f).
time:  00016c88:note off:         (0x84,0x22,0x68).
time:  00016cb0:note on:          (0x94,0x20,0x7f).
time:  00016d00:note off:         (0x84,0x20,0x68).
time:  00016d28:note on:          (0x94,0x20,0x7f).
time:  00016d78:note off:         (0x84,0x20,0x68).
time:  00016da0:note on:          (0x94,0x20,0x7f).
time:  00016df0:note off:         (0x84,0x20,0x68).
time:  00016e18:note on:          (0x94,0x20,0x7f).
time:  00016e68:note off:         (0x84,0x20,0x68).
time:  00016e90:note on:          (0x94,0x25,0x7f).
time:  00016ee0:note off:         (0x84,0x25,0x68).
time:  00016f08:note on:          (0x94,0x25,0x7f).
time:  00016f58:note off:         (0x84,0x25,0x68).
time:  00016f80:note on:          (0x94,0x25,0x7f).
time:  00016fd0:note off:         (0x84,0x25,0x68).
time:  00016ff8:note on:          (0x94,0x25,0x7f).
time:  00017048:note off:         (0x84,0x25,0x68).
time:  00017070:note on:          (0x94,0x1d,0x7f).
time:  000170c0:note off:         (0x84,0x1d,0x68).
time:  000170e8:note on:          (0x94,0x1d,0x7f).
time:  00017138:note off:         (0x84,0x1d,0x68).
time:  00017160:note on:          (0x94,0x1d,0x7f).
time:  000171b0:note off:         (0x84,0x1d,0x68).
time:  000171d8:note on:          (0x94,0x1d,0x7f).
time:  00017228:note off:         (0x84,0x1d,0x68).
time:  00017250:note on:          (0x94,0x22,0x7f).
time:  000172a0:note off:         (0x84,0x22,0x68).
time:  000172c8:note on:          (0x94,0x22,0x7f).
time:  00017318:note off:         (0x84,0x22,0x68).
time:  00017340:note on:          (0x94,0x22,0x7f).
time:  00017390:note off:         (0x84,0x22,0x68).
time:  000173b8:note on:          (0x94,0x22,0x7f).
time:  00017408:note off:         (0x84,0x22,0x68).
time:  00017430:note on:          (0x94,0x20,0x7f).
time:  00017480:note off:         (0x84,0x20,0x68).
time:  000174a8:note on:          (0x94,0x20,0x7f).
time:  000174f8:note off:         (0x84,0x20,0x68).
time:  00017520:note on:          (0x94,0x20,0x7f).
time:  00017570:note off:         (0x84,0x20,0x68).
time:  00017598:note on:          (0x94,0x20,0x7f).
time:  000175e8:note off:         (0x84,0x20,0x68).
time:  00017610:note on:          (0x94,0x25,0x7f).
time:  00017660:note off:         (0x84,0x25,0x68).
time:  00017688:note on:          (0x94,0x25,0x7f).
time:  000176d8:note off:         (0x84,0x25,0x68).
time:  00017700:note on:          (0x94,0x25,0x7f).
time:  00017750:note off:         (0x84,0x25,0x68).
time:  00017778:note on:          (0x94,0x25,0x7f).
time:  000177c8:note off:         (0x84,0x25,0x68).
time:  000177f0:note on:          (0x94,0x1d,0x7f).
time:  00017840:note off:         (0x84,0x1d,0x68).
time:  00017868:note on:          (0x94,0x1d,0x7f).
time:  000178b8:note off:         (0x84,0x1d,0x68).
time:  000178e0:note on:          (0x94,0x1d,0x7f).
time:  00017930:note off:         (0x84,0x1d,0x68).
time:  00017958:note on:          (0x94,0x1d,0x7f).
time:  000179a8:note off:         (0x84,0x1d,0x68).
time:  000179d0:note on:          (0x94,0x22,0x7f).
time:  00017a20:note off:         (0x84,0x22,0x68).
time:  00017a48:note on:          (0x94,0x22,0x7f).
time:  00017a98:note off:         (0x84,0x22,0x68).
time:  00017ac0:note on:          (0x94,0x22,0x7f).
time:  00017b10:note off:         (0x84,0x22,0x68).
time:  00017b38:note on:          (0x94,0x22,0x7f).
time:  00017b88:note off:         (0x84,0x22,0x68).
time:  00017bb0:note on:          (0x94,0x20,0x7f).
time:  00017c00:note off:         (0x84,0x20,0x68).
time:  00017c28:note on:          (0x94,0x20,0x7f).
time:  00017c78:note off:         (0x84,0x20,0x68).
time:  00017ca0:note on:          (0x94,0x20,0x7f).
time:  00017cf0:note off:         (0x84,0x20,0x68).
time:  00017d18:note on:          (0x94,0x20,0x7f).
time:  00017d68:note off:         (0x84,0x20,0x68).
time:  00017d90:note on:          (0x94,0x25,0x7f).
time:  00017de0:note off:         (0x84,0x25,0x68).
time:  00017e08:note on:          (0x94,0x25,0x7f).
time:  00017e58:note off:         (0x84,0x25,0x68).
time:  00017e80:note on:          (0x94,0x25,0x7f).
time:  00017ed0:note off:         (0x84,0x25,0x68).
time:  00017ef8:note on:          (0x94,0x25,0x7f).
time:  00017f48:note off:         (0x84,0x25,0x68).
time:  00017f70:note on:          (0x94,0x1d,0x7f).
time:  00017fc0:note off:         (0x84,0x1d,0x68).
time:  00017fe8:note on:          (0x94,0x1d,0x7f).
time:  00018038:note off:         (0x84,0x1d,0x68).
time:  00018060:note on:          (0x94,0x1d,0x7f).
time:  000180b0:note off:         (0x84,0x1d,0x68).
time:  000180d8:note on:          (0x94,0x1d,0x7f).
time:  00018128:note off:         (0x84,0x1d,0x68).
time:  00018150:note on:          (0x94,0x22,0x7f).
time:  000181a0:note off:         (0x84,0x22,0x68).
time:  000181c8:note on:          (0x94,0x22,0x7f).
time:  00018218:note off:         (0x84,0x22,0x68).
time:  00018240:note on:          (0x94,0x22,0x7f).
time:  00018290:note off:         (0x84,0x22,0x68).
time:  000182b8:note on:          (0x94,0x22,0x7f).
time:  00018308:note off:         (0x84,0x22,0x68).
time:  00018330:note on:          (0x94,0x20,0x7f).
time:  00018380:note off:         (0x84,0x20,0x68).
time:  000183a8:note on:          (0x94,0x20,0x7f).
time:  000183f8:note off:         (0x84,0x20,0x68).
time:  00018420:note on:          (0x94,0x20,0x7f).
time:  00018470:note off:         (0x84,0x20,0x68).
time:  00018498:note on:          (0x94,0x20,0x7f).
time:  000184e8:note off:         (0x84,0x20,0x68).
time:  00018510:note on:          (0x94,0x25,0x7f).
time:  00018560:note off:         (0x84,0x25,0x68).
time:  00018588:note on:          (0x94,0x25,0x7f).
time:  000185d8:note off:         (0x84,0x25,0x68).
time:  00018600:note on:          (0x94,0x25,0x7f).
time:  00018650:note off:         (0x84,0x25,0x68).
time:  00018678:note on:          (0x94,0x25,0x7f).
time:  000186c8:note off:         (0x84,0x25,0x68).
time:  000186f0:note on:          (0x94,0x1d,0x7f).
time:  00018740:note off:         (0x84,0x1d,0x68).
time:  00018768:note on:          (0x94,0x1d,0x7f).
time:  000187b8:note off:         (0x84,0x1d,0x68).
time:  000187e0:note on:          (0x94,0x1d,0x7f).
time:  00018830:note off:         (0x84,0x1d,0x68).
time:  00018858:note on:          (0x94,0x1d,0x7f).
time:  000188a8:note off:         (0x84,0x1d,0x68).
time:  000188d0:note on:          (0x94,0x22,0x7f).
time:  00018920:note off:         (0x84,0x22,0x68).
time:  00018948:note on:          (0x94,0x22,0x7f).
time:  00018998:note off:         (0x84,0x22,0x68).
time:  000189c0:note on:          (0x94,0x22,0x7f).
time:  00018a10:note off:         (0x84,0x22,0x68).
time:  00018a38:note on:          (0x94,0x22,0x7f).
time:  00018a88:note off:         (0x84,0x22,0x68).
time:  00018ab0:note on:          (0x94,0x20,0x7f).
time:  00018b00:note off:         (0x84,0x20,0x68).
time:  00018b28:note on:          (0x94,0x20,0x7f).
time:  00018b78:note off:         (0x84,0x20,0x68).
time:  00018ba0:note on:          (0x94,0x20,0x7f).
time:  00018bf0:note off:         (0x84,0x20,0x68).
time:  00018c18:note on:          (0x94,0x20,0x7f).
time:  00018c68:note off:         (0x84,0x20,0x68).
time:  00018c90:note on:          (0x94,0x25,0x7f).
time:  00018ce0:note off:         (0x84,0x25,0x68).
time:  00018d08:note on:          (0x94,0x25,0x7f).
time:  00018d58:note off:         (0x84,0x25,0x68).
time:  00018d80:note on:          (0x94,0x25,0x7f).
time:  00018dd0:note off:         (0x84,0x25,0x68).
time:  00018df8:note on:          (0x94,0x25,0x7f).
time:  00018e48:note off:         (0x84,0x25,0x68).
time:  00018e70:note on:          (0x94,0x1d,0x7f).
time:  00018ec0:note off:         (0x84,0x1d,0x68).
time:  00018ee8:note on:          (0x94,0x1d,0x7f).
time:  00018f38:note off:         (0x84,0x1d,0x68).
time:  00018f60:note on:          (0x94,0x1d,0x7f).
time:  00018fb0:note off:         (0x84,0x1d,0x68).
time:  00018fd8:note on:          (0x94,0x1d,0x7f).
time:  00019028:note off:         (0x84,0x1d,0x68).
time:  00019050:note on:          (0x94,0x22,0x7f).
time:  000190a0:note off:         (0x84,0x22,0x68).
time:  000190c8:note on:          (0x94,0x22,0x7f).
time:  00019118:note off:         (0x84,0x22,0x68).
time:  00019140:note on:          (0x94,0x22,0x7f).
time:  00019190:note off:         (0x84,0x22,0x68).
time:  000191b8:note on:          (0x94,0x22,0x7f).
time:  00019208:note off:         (0x84,0x22,0x68).
time:  00019230:note on:          (0x94,0x20,0x7f).
time:  00019280:note off:         (0x84,0x20,0x68).
time:  000192a8:note on:          (0x94,0x20,0x7f).
time:  000192f8:note off:         (0x84,0x20,0x68).
time:  00019320:note on:          (0x94,0x20,0x7f).
time:  00019370:note off:         (0x84,0x20,0x68).
time:  00019398:note on:          (0x94,0x20,0x7f).
time:  000193e8:note off:         (0x84,0x20,0x68).
time:  00019410:note on:          (0x94,0x25,0x7f).
time:  00019460:note off:         (0x84,0x25,0x68).
time:  00019488:note on:          (0x94,0x25,0x7f).
time:  000194d8:note off:         (0x84,0x25,0x68).
time:  00019500:note on:          (0x94,0x25,0x7f).
time:  00019550:note off:         (0x84,0x25,0x68).
time:  00019578:note on:          (0x94,0x25,0x7f).
time:  000195c8:note off:         (0x84,0x25,0x68).
time:  000195f0:note on:          (0x94,0x1d,0x7f).
time:  00019640:note off:         (0x84,0x1d,0x68).
time:  00019668:note on:          (0x94,0x1d,0x7f).
time:  000196b8:note off:         (0x84,0x1d,0x68).
time:  000196e0:note on:          (0x94,0x1d,0x7f).
time:  00019730:note off:         (0x84,0x1d,0x68).
time:  00019758:note on:          (0x94,0x1d,0x7f).
time:  000197a8:note off:         (0x84,0x1d,0x68).
time:  000197d0:note on:          (0x94,0x22,0x7f).
time:  00019820:note off:         (0x84,0x22,0x68).
time:  00019848:note on:          (0x94,0x22,0x7f).
time:  00019898:note off:         (0x84,0x22,0x68).
time:  000198c0:note on:          (0x94,0x22,0x7f).
time:  00019910:note off:         (0x84,0x22,0x68).
time:  00019938:note on:          (0x94,0x22,0x7f).
time:  00019988:note off:         (0x84,0x22,0x68).
time:  000199b0:note on:          (0x94,0x20,0x7f).
time:  00019a00:note off:         (0x84,0x20,0x68).
time:  00019a28:note on:          (0x94,0x20,0x7f).
time:  00019a78:note off:         (0x84,0x20,0x68).
time:  00019aa0:note on:          (0x94,0x20,0x7f).
time:  00019af0:note off:         (0x84,0x20,0x68).
time:  00019b18:note on:          (0x94,0x20,0x7f).
time:  00019b68:note off:         (0x84,0x20,0x68).
time:  00019b90:note on:          (0x94,0x25,0x7f).
time:  00019be0:note off:         (0x84,0x25,0x68).
time:  00019c08:note on:          (0x94,0x25,0x7f).
time:  00019c58:note off:         (0x84,0x25,0x68).
time:  00019c80:note on:          (0x94,0x25,0x7f).
time:  00019cd0:note off:         (0x84,0x25,0x68).
time:  00019cf8:note on:          (0x94,0x25,0x7f).
time:  00019d48:note off:         (0x84,0x25,0x68).
time:  00019d70:note on:          (0x94,0x1d,0x7f).
time:  00019dc0:note off:         (0x84,0x1d,0x68).
time:  00019de8:note on:          (0x94,0x1d,0x7f).
time:  00019e38:note off:         (0x84,0x1d,0x68).
time:  00019e60:note on:          (0x94,0x1d,0x7f).
time:  00019eb0:note off:         (0x84,0x1d,0x68).
time:  00019ed8:note on:          (0x94,0x1d,0x7f).
time:  00019f28:note off:         (0x84,0x1d,0x68).
time:  00019f50:note on:          (0x94,0x22,0x7f).
time:  00019fa0:note off:         (0x84,0x22,0x68).
time:  00019fc8:note on:          (0x94,0x22,0x7f).
time:  0001a018:note off:         (0x84,0x22,0x68).
time:  0001a040:note on:          (0x94,0x22,0x7f).
time:  0001a090:note off:         (0x84,0x22,0x68).
time:  0001a0b8:note on:          (0x94,0x22,0x7f).
time:  0001a108:note off:         (0x84,0x22,0x68).
time:  0001a130:note on:          (0x94,0x20,0x7f).
time:  0001a180:note off:         (0x84,0x20,0x68).
time:  0001a1a8:note on:          (0x94,0x20,0x7f).
time:  0001a1f8:note off:         (0x84,0x20,0x68).
time:  0001a220:note on:          (0x94,0x20,0x7f).
time:  0001a270:note off:         (0x84,0x20,0x68).
time:  0001a298:note on:          (0x94,0x20,0x7f).
time:  0001a2e8:note off:         (0x84,0x20,0x68).
time:  0001a310:note on:          (0x94,0x25,0x7f).
time:  0001a360:note off:         (0x84,0x25,0x68).
time:  0001a388:note on:          (0x94,0x25,0x7f).
time:  0001a3d8:note off:         (0x84,0x25,0x68).
time:  0001a400:note on:          (0x94,0x25,0x7f).
time:  0001a450:note off:         (0x84,0x25,0x68).
time:  0001a478:note on:          (0x94,0x25,0x7f).
time:  0001a4c8:note off:         (0x84,0x25,0x68).
time:  0001a4f0:note on:          (0x94,0x1d,0x7f).
time:  0001a568:note off:         (0x84,0x1d,0x68).
time:  0001a5a4:note on:          (0x94,0x1d,0x7f).
time:  0001a5e0:note off:         (0x84,0x1d,0x68).
time:  0001a5e0:note on:          (0x94,0x1d,0x7f).
time:  0001a658:note off:         (0x84,0x1d,0x68).
time:  0001a694:note on:          (0x94,0x1d,0x7f).
time:  0001a6d0:note off:         (0x84,0x1d,0x68).
time:  0001a6d0:note on:          (0x94,0x1d,0x7f).
time:  0001a70c:note off:         (0x84,0x1d,0x68).
time:  0001a70c:note on:          (0x94,0x1d,0x7f).
time:  0001a748:note off:         (0x84,0x1d,0x68).
time:  0001a748:note on:          (0x94,0x22,0x7f).
time:  0001a7c0:note off:         (0x84,0x22,0x68).
time:  0001a7c0:note on:          (0x94,0x22,0x7f).
time:  0001a838:note off:         (0x84,0x22,0x68).
time:  0001a838:note on:          (0x94,0x1d,0x7f).
time:  0001a8b0:note off:         (0x84,0x1d,0x68).
time:  0001a8b0:note on:          (0x94,0x20,0x7f).
time:  0001a928:note off:         (0x84,0x20,0x68).
time:  0001a964:note on:          (0x94,0x20,0x7f).
time:  0001a9a0:note off:         (0x84,0x20,0x68).
time:  0001a9a0:note on:          (0x94,0x20,0x7f).
time:  0001aa18:note off:         (0x84,0x20,0x68).
time:  0001aa54:note on:          (0x94,0x20,0x7f).
time:  0001aa90:note off:         (0x84,0x20,0x68).
time:  0001aa90:note on:          (0x94,0x20,0x7f).
time:  0001aacc:note off:         (0x84,0x20,0x68).
time:  0001aacc:note on:          (0x94,0x20,0x7f).
time:  0001ab08:note off:         (0x84,0x20,0x68).
time:  0001ab08:note on:          (0x94,0x25,0x7f).
time:  0001ab80:note off:         (0x84,0x25,0x68).
time:  0001ab80:note on:          (0x94,0x25,0x7f).
time:  0001abf8:note off:         (0x84,0x25,0x68).
time:  0001abf8:note on:          (0x94,0x20,0x7f).
time:  0001ac70:note off:         (0x84,0x20,0x68).
time:  0001ac70:note on:          (0x94,0x1d,0x7f).
time:  0001ace8:note off:         (0x84,0x1d,0x68).
time:  0001ad24:note on:          (0x94,0x1d,0x7f).
time:  0001ad60:note off:         (0x84,0x1d,0x68).
time:  0001ad60:note on:          (0x94,0x1d,0x7f).
time:  0001add8:note off:         (0x84,0x1d,0x68).
time:  0001ae14:note on:          (0x94,0x1d,0x7f).
time:  0001ae50:note off:         (0x84,0x1d,0x68).
time:  0001ae50:note on:          (0x94,0x1d,0x7f).
time:  0001ae8c:note off:         (0x84,0x1d,0x68).
time:  0001ae8c:note on:          (0x94,0x1d,0x7f).
time:  0001aec8:note off:         (0x84,0x1d,0x68).
time:  0001aec8:note on:          (0x94,0x22,0x7f).
time:  0001af40:note off:         (0x84,0x22,0x68).
time:  0001af40:note on:          (0x94,0x22,0x7f).
time:  0001afb8:note off:         (0x84,0x22,0x68).
time:  0001afb8:note on:          (0x94,0x1d,0x7f).
time:  0001b030:note off:         (0x84,0x1d,0x68).
time:  0001b030:note on:          (0x94,0x20,0x7f).
time:  0001b0a8:note off:         (0x84,0x20,0x68).
time:  0001b0e4:note on:          (0x94,0x20,0x7f).
time:  0001b120:note off:         (0x84,0x20,0x68).
time:  0001b120:note on:          (0x94,0x20,0x7f).
time:  0001b198:note off:         (0x84,0x20,0x68).
time:  0001b1d4:note on:          (0x94,0x20,0x7f).
time:  0001b210:note off:         (0x84,0x20,0x68).
time:  0001b210:note on:          (0x94,0x20,0x7f).
time:  0001b24c:note off:         (0x84,0x20,0x68).
time:  0001b24c:note on:          (0x94,0x20,0x7f).
time:  0001b288:note off:         (0x84,0x20,0x68).
time:  0001b288:note on:          (0x94,0x25,0x7f).
time:  0001b300:note off:         (0x84,0x25,0x68).
time:  0001b300:note on:          (0x94,0x25,0x7f).
time:  0001b378:note off:         (0x84,0x25,0x68).
time:  0001b378:note on:          (0x94,0x20,0x7f).
time:  0001b3f0:note off:         (0x84,0x20,0x68).
time:  0001b3f0:note on:          (0x94,0x1d,0x7f).
time:  0001b468:note off:         (0x84,0x1d,0x68).
time:  0001b4a4:note on:          (0x94,0x1d,0x7f).
time:  0001b4e0:note off:         (0x84,0x1d,0x68).
time:  0001b4e0:note on:          (0x94,0x1d,0x7f).
time:  0001b558:note off:         (0x84,0x1d,0x68).
time:  0001b594:note on:          (0x94,0x1d,0x7f).
time:  0001b5d0:note off:         (0x84,0x1d,0x68).
time:  0001b5d0:note on:          (0x94,0x1d,0x7f).
time:  0001b60c:note off:         (0x84,0x1d,0x68).
time:  0001b60c:note on:          (0x94,0x1d,0x7f).
time:  0001b648:note off:         (0x84,0x1d,0x68).
time:  0001b648:note on:          (0x94,0x22,0x7f).
time:  0001b6c0:note off:         (0x84,0x22,0x68).
time:  0001b6c0:note on:          (0x94,0x22,0x7f).
time:  0001b738:note off:         (0x84,0x22,0x68).
time:  0001b738:note on:          (0x94,0x1d,0x7f).
time:  0001b7b0:note off:         (0x84,0x1d,0x68).
time:  0001b7b0:note on:          (0x94,0x20,0x7f).
time:  0001b828:note off:         (0x84,0x20,0x68).
time:  0001b864:note on:          (0x94,0x20,0x7f).
time:  0001b8a0:note off:         (0x84,0x20,0x68).
time:  0001b8a0:note on:          (0x94,0x20,0x7f).
time:  0001b918:note off:         (0x84,0x20,0x68).
time:  0001b954:note on:          (0x94,0x20,0x7f).
time:  0001b990:note off:         (0x84,0x20,0x68).
time:  0001b990:note on:          (0x94,0x20,0x7f).
time:  0001b9cc:note off:         (0x84,0x20,0x68).
time:  0001b9cc:note on:          (0x94,0x20,0x7f).
time:  0001ba08:note off:         (0x84,0x20,0x68).
time:  0001ba08:note on:          (0x94,0x25,0x7f).
time:  0001ba80:note off:         (0x84,0x25,0x68).
time:  0001ba80:note on:          (0x94,0x25,0x7f).
time:  0001baf8:note off:         (0x84,0x25,0x68).
time:  0001baf8:note on:          (0x94,0x20,0x7f).
time:  0001bb70:note off:         (0x84,0x20,0x68).
time:  0001bb70:note on:          (0x94,0x1d,0x7f).
time:  0001bbe8:note off:         (0x84,0x1d,0x68).
time:  0001bc24:note on:          (0x94,0x1d,0x7f).
time:  0001bc60:note off:         (0x84,0x1d,0x68).
time:  0001bc60:note on:          (0x94,0x1d,0x7f).
time:  0001bcd8:note off:         (0x84,0x1d,0x68).
time:  0001bd14:note on:          (0x94,0x1d,0x7f).
time:  0001bd50:note off:         (0x84,0x1d,0x68).
time:  0001bd50:note on:          (0x94,0x1d,0x7f).
time:  0001bd8c:note off:         (0x84,0x1d,0x68).
time:  0001bd8c:note on:          (0x94,0x1d,0x7f).
time:  0001bdc8:note off:         (0x84,0x1d,0x68).
time:  0001bdc8:note on:          (0x94,0x22,0x7f).
time:  0001be40:note off:         (0x84,0x22,0x68).
time:  0001be40:note on:          (0x94,0x22,0x7f).
time:  0001beb8:note off:         (0x84,0x22,0x68).
time:  0001beb8:note on:          (0x94,0x1d,0x7f).
time:  0001bf30:note off:         (0x84,0x1d,0x68).
time:  0001bf30:note on:          (0x94,0x20,0x7f).
time:  0001bfa8:note off:         (0x84,0x20,0x68).
time:  0001bfe4:note on:          (0x94,0x20,0x7f).
time:  0001c020:note off:         (0x84,0x20,0x68).
time:  0001c020:note on:          (0x94,0x20,0x7f).
time:  0001c098:note off:         (0x84,0x20,0x68).
time:  0001c0d4:note on:          (0x94,0x20,0x7f).
time:  0001c110:note off:         (0x84,0x20,0x68).
time:  0001c110:note on:          (0x94,0x20,0x7f).
time:  0001c14c:note off:         (0x84,0x20,0x68).
time:  0001c14c:note on:          (0x94,0x20,0x7f).
time:  0001c188:note off:         (0x84,0x20,0x68).
time:  0001c188:note on:          (0x94,0x25,0x7f).
time:  0001c200:note off:         (0x84,0x25,0x68).
time:  0001c200:note on:          (0x94,0x25,0x7f).
time:  0001c278:note off:         (0x84,0x25,0x68).
time:  0001c278:note on:          (0x94,0x20,0x7f).
time:  0001c2f0:note off:         (0x84,0x20,0x68).
time:  0001c2f0:note on:          (0x94,0x1d,0x7f).
time:  0001c368:note off:         (0x84,0x1d,0x68).
time:  0001c3a4:note on:          (0x94,0x1d,0x7f).
time:  0001c3e0:note off:         (0x84,0x1d,0x68).
time:  0001c3e0:note on:          (0x94,0x1d,0x7f).
time:  0001c458:note off:         (0x84,0x1d,0x68).
time:  0001c494:note on:          (0x94,0x1d,0x7f).
time:  0001c4d0:note off:         (0x84,0x1d,0x68).
time:  0001c4d0:note on:          (0x94,0x1d,0x7f).
time:  0001c50c:note off:         (0x84,0x1d,0x68).
time:  0001c50c:note on:          (0x94,0x1d,0x7f).
time:  0001c548:note off:         (0x84,0x1d,0x68).
time:  0001c548:note on:          (0x94,0x22,0x7f).
time:  0001c5c0:note off:         (0x84,0x22,0x68).
time:  0001c5c0:note on:          (0x94,0x22,0x7f).
time:  0001c638:note off:         (0x84,0x22,0x68).
time:  0001c638:note on:          (0x94,0x1d,0x7f).
time:  0001c6b0:note off:         (0x84,0x1d,0x68).
time:  0001c6b0:note on:          (0x94,0x20,0x7f).
time:  0001c728:note off:         (0x84,0x20,0x68).
time:  0001c764:note on:          (0x94,0x20,0x7f).
time:  0001c7a0:note off:         (0x84,0x20,0x68).
time:  0001c7a0:note on:          (0x94,0x20,0x7f).
time:  0001c818:note off:         (0x84,0x20,0x68).
time:  0001c854:note on:          (0x94,0x20,0x7f).
time:  0001c890:note off:         (0x84,0x20,0x68).
time:  0001c890:note on:          (0x94,0x20,0x7f).
time:  0001c8cc:note off:         (0x84,0x20,0x68).
time:  0001c8cc:note on:          (0x94,0x20,0x7f).
time:  0001c908:note off:         (0x84,0x20,0x68).
time:  0001c908:note on:          (0x94,0x25,0x7f).
time:  0001c980:note off:         (0x84,0x25,0x68).
time:  0001c980:note on:          (0x94,0x25,0x7f).
time:  0001c9f8:note off:         (0x84,0x25,0x68).
time:  0001c9f8:note on:          (0x94,0x20,0x7f).
time:  0001ca70:note off:         (0x84,0x20,0x68).
time:  0001ca70:note on:          (0x94,0x1d,0x7f).
time:  0001cae8:note off:         (0x84,0x1d,0x68).
time:  0001cb24:note on:          (0x94,0x1d,0x7f).
time:  0001cb60:note off:         (0x84,0x1d,0x68).
time:  0001cb60:note on:          (0x94,0x1d,0x7f).
time:  0001cbd8:note off:         (0x84,0x1d,0x68).
time:  0001cc14:note on:          (0x94,0x1d,0x7f).
time:  0001cc50:note off:         (0x84,0x1d,0x68).
time:  0001cc50:note on:          (0x94,0x1d,0x7f).
time:  0001cc8c:note off:         (0x84,0x1d,0x68).
time:  0001cc8c:note on:          (0x94,0x1d,0x7f).
time:  0001ccc8:note off:         (0x84,0x1d,0x68).
time:  0001ccc8:note on:          (0x94,0x22,0x7f).
time:  0001cd40:note off:         (0x84,0x22,0x68).
time:  0001cd40:note on:          (0x94,0x22,0x7f).
time:  0001cdb8:note off:         (0x84,0x22,0x68).
time:  0001cdb8:note on:          (0x94,0x1d,0x7f).
time:  0001ce30:note off:         (0x84,0x1d,0x68).
time:  0001ce30:note on:          (0x94,0x20,0x7f).
time:  0001cea8:note off:         (0x84,0x20,0x68).
time:  0001cee4:note on:          (0x94,0x20,0x7f).
time:  0001cf20:note off:         (0x84,0x20,0x68).
time:  0001cf20:note on:          (0x94,0x20,0x7f).
time:  0001cf98:note off:         (0x84,0x20,0x68).
time:  0001cfd4:note on:          (0x94,0x20,0x7f).
time:  0001d010:note off:         (0x84,0x20,0x68).
time:  0001d010:note on:          (0x94,0x20,0x7f).
time:  0001d04c:note off:         (0x84,0x20,0x68).
time:  0001d04c:note on:          (0x94,0x20,0x7f).
time:  0001d088:note off:         (0x84,0x20,0x68).
time:  0001d088:note on:          (0x94,0x25,0x7f).
time:  0001d100:note off:         (0x84,0x25,0x68).
time:  0001d100:note on:          (0x94,0x25,0x7f).
time:  0001d178:note off:         (0x84,0x25,0x68).
time:  0001d178:note on:          (0x94,0x20,0x7f).
time:  0001d1f0:note off:         (0x84,0x20,0x68).
time:  0001d1f0:note on:          (0x94,0x1d,0x7f).
time:  0001d268:note off:         (0x84,0x1d,0x68).
time:  0001d2a4:note on:          (0x94,0x1d,0x7f).
time:  0001d2e0:note off:         (0x84,0x1d,0x68).
time:  0001d2e0:note on:          (0x94,0x1d,0x7f).
time:  0001d358:note off:         (0x84,0x1d,0x68).
time:  0001d394:note on:          (0x94,0x1d,0x7f).
time:  0001d3d0:note off:         (0x84,0x1d,0x68).
time:  0001d3d0:note on:          (0x94,0x1d,0x7f).
time:  0001d40c:note off:         (0x84,0x1d,0x68).
time:  0001d40c:note on:          (0x94,0x1d,0x7f).
time:  0001d448:note off:         (0x84,0x1d,0x68).
time:  0001d448:note on:          (0x94,0x22,0x7f).
time:  0001d4c0:note off:         (0x84,0x22,0x68).
time:  0001d4c0:note on:          (0x94,0x22,0x7f).
time:  0001d538:note off:         (0x84,0x22,0x68).
time:  0001d538:note on:          (0x94,0x1d,0x7f).
time:  0001d5b0:note off:         (0x84,0x1d,0x68).
time:  0001d5b0:note on:          (0x94,0x20,0x7f).
time:  0001d628:note off:         (0x84,0x20,0x68).
time:  0001d664:note on:          (0x94,0x20,0x7f).
time:  0001d6a0:note off:         (0x84,0x20,0x68).
time:  0001d6a0:note on:          (0x94,0x20,0x7f).
time:  0001d718:note off:         (0x84,0x20,0x68).
time:  0001d754:note on:          (0x94,0x20,0x7f).
time:  0001d790:note off:         (0x84,0x20,0x68).
time:  0001d790:note on:          (0x94,0x20,0x7f).
time:  0001d7cc:note off:         (0x84,0x20,0x68).
time:  0001d7cc:note on:          (0x94,0x20,0x7f).
time:  0001d808:note off:         (0x84,0x20,0x68).
time:  0001d808:note on:          (0x94,0x25,0x7f).
time:  0001d880:note off:         (0x84,0x25,0x68).
time:  0001d880:note on:          (0x94,0x25,0x7f).
time:  0001d8f8:note off:         (0x84,0x25,0x68).
time:  0001d8f8:note on:          (0x94,0x20,0x7f).
time:  0001d970:note off:         (0x84,0x20,0x68).
time:  0001d970:note on:          (0x94,0x1d,0x7f).
time:  0001d9e8:note off:         (0x84,0x1d,0x68).
time:  0001da24:note on:          (0x94,0x1d,0x7f).
time:  0001da60:note off:         (0x84,0x1d,0x68).
time:  0001da60:note on:          (0x94,0x1d,0x7f).
time:  0001dad8:note off:         (0x84,0x1d,0x68).
time:  0001db14:note on:          (0x94,0x1d,0x7f).
time:  0001db50:note off:         (0x84,0x1d,0x68).
time:  0001db50:note on:          (0x94,0x1d,0x7f).
time:  0001db8c:note off:         (0x84,0x1d,0x68).
time:  0001db8c:note on:          (0x94,0x1d,0x7f).
time:  0001dbc8:note off:         (0x84,0x1d,0x68).
time:  0001dbc8:note on:          (0x94,0x22,0x7f).
time:  0001dc40:note off:         (0x84,0x22,0x68).
time:  0001dc40:note on:          (0x94,0x22,0x7f).
time:  0001dcb8:note off:         (0x84,0x22,0x68).
time:  0001dcb8:note on:          (0x94,0x1d,0x7f).
time:  0001dd30:note off:         (0x84,0x1d,0x68).
time:  0001dd30:note on:          (0x94,0x20,0x7f).
time:  0001dda8:note off:         (0x84,0x20,0x68).
time:  0001dde4:note on:          (0x94,0x20,0x7f).
time:  0001de20:note off:         (0x84,0x20,0x68).
time:  0001de20:note on:          (0x94,0x20,0x7f).
time:  0001de98:note off:         (0x84,0x20,0x68).
time:  0001ded4:note on:          (0x94,0x20,0x7f).
time:  0001df10:note off:         (0x84,0x20,0x68).
time:  0001df10:note on:          (0x94,0x20,0x7f).
time:  0001df4c:note off:         (0x84,0x20,0x68).
time:  0001df4c:note on:          (0x94,0x20,0x7f).
time:  0001df88:note off:         (0x84,0x20,0x68).
time:  0001df88:note on:          (0x94,0x25,0x7f).
time:  0001e000:note off:         (0x84,0x25,0x68).
time:  0001e000:note on:          (0x94,0x25,0x7f).
time:  0001e078:note off:         (0x84,0x25,0x68).
time:  0001e078:note on:          (0x94,0x20,0x7f).
time:  0001e0f0:note off:         (0x84,0x20,0x68).
time:  0001e0f0:note on:          (0x94,0x1d,0x67).
time:  0001e4b2:note off:         (0x84,0x1d,0x41).
time:  0001e4b2:Special non-MIDI event: End of Track.
Track #6. (zero-based)
len    :0x0000676f.
time:  00000000:Special non-MIDI event: Text message type 0x03,len 0x12
Dave Grohl -Drums-
time:  00000000:program change:   (0xc9,0x7e).
time:  00000000:controller:       (0xb9,0x00,0x00).
time:  00000c30:note on:          (0x99,0x26,0x7f).
time:  00000c30:note on:          (0x99,0x36,0x70).
time:  00000c30:note on:          (0x99,0x2e,0x7a).
time:  00000c30:note on:          (0x99,0x33,0x7a).
time:  00000c3a:note on:          (0x99,0x26,0x7f).
time:  00000c58:note off:         (0x89,0x26,0x47).
time:  00000c58:note off:         (0x89,0x36,0x47).
time:  00000c58:note off:         (0x89,0x2e,0x4d).
time:  00000c58:note off:         (0x89,0x33,0x4d).
time:  00000c62:note off:         (0x89,0x26,0x47).
time:  00000c6c:note on:          (0x99,0x24,0x70).
time:  00000c94:note off:         (0x89,0x24,0x47).
time:  00000ca8:note on:          (0x99,0x33,0x7a).
time:  00000ca8:note on:          (0x99,0x2e,0x7a).
time:  00000cd0:note off:         (0x89,0x33,0x4d).
time:  00000cd0:note off:         (0x89,0x2e,0x4d).
time:  00000ce4:note on:          (0x99,0x24,0x70).
time:  00000d0c:note off:         (0x89,0x24,0x47).
time:  00000d20:note on:          (0x99,0x36,0x70).
time:  00000d20:note on:          (0x99,0x33,0x7a).
time:  00000d20:note on:          (0x99,0x2e,0x7a).
time:  00000d20:note on:          (0x99,0x26,0x7f).
time:  00000d2a:note on:          (0x99,0x26,0x7f).
time:  00000d48:note off:         (0x89,0x36,0x47).
time:  00000d48:note off:         (0x89,0x33,0x4d).
time:  00000d48:note off:         (0x89,0x2e,0x4d).
time:  00000d48:note off:         (0x89,0x26,0x47).
time:  00000d52:note off:         (0x89,0x26,0x47).
time:  00000d5c:note on:          (0x99,0x24,0x70).
time:  00000d84:note off:         (0x89,0x24,0x47).
time:  00000d98:note on:          (0x99,0x33,0x7a).
time:  00000d98:note on:          (0x99,0x2e,0x7a).
time:  00000dc0:note off:         (0x89,0x33,0x4d).
time:  00000dc0:note off:         (0x89,0x2e,0x4d).
time:  00000dd4:note on:          (0x99,0x24,0x70).
time:  00000dfc:note off:         (0x89,0x24,0x47).
time:  00000e10:note on:          (0x99,0x36,0x70).
time:  00000e10:note on:          (0x99,0x2e,0x7a).
time:  00000e10:note on:          (0x99,0x33,0x7a).
time:  00000e10:note on:          (0x99,0x26,0x7f).
time:  00000e1a:note on:          (0x99,0x26,0x7f).
time:  00000e38:note off:         (0x89,0x36,0x47).
time:  00000e38:note off:         (0x89,0x2e,0x4d).
time:  00000e38:note off:         (0x89,0x33,0x4d).
time:  00000e38:note off:         (0x89,0x26,0x47).
time:  00000e42:note off:         (0x89,0x26,0x47).
time:  00000e4c:note on:          (0x99,0x24,0x70).
time:  00000e74:note off:         (0x89,0x24,0x47).
time:  00000e88:note on:          (0x99,0x33,0x7a).
time:  00000e88:note on:          (0x99,0x2e,0x7a).
time:  00000eb0:note off:         (0x89,0x33,0x4d).
time:  00000eb0:note off:         (0x89,0x2e,0x4d).
time:  00000ec4:note on:          (0x99,0x24,0x70).
time:  00000eec:note off:         (0x89,0x24,0x47).
time:  00000f00:note on:          (0x99,0x39,0x70).
time:  00000f00:note on:          (0x99,0x31,0x70).
time:  00000f00:note on:          (0x99,0x36,0x70).
time:  00000f00:note on:          (0x99,0x2e,0x7a).
time:  00000f00:note on:          (0x99,0x33,0x7a).
time:  00000f00:note on:          (0x99,0x26,0x7f).
time:  00000f0a:note on:          (0x99,0x26,0x7f).
time:  00000f28:note off:         (0x89,0x39,0x47).
time:  00000f28:note off:         (0x89,0x31,0x47).
time:  00000f28:note off:         (0x89,0x36,0x47).
time:  00000f28:note off:         (0x89,0x2e,0x4d).
time:  00000f28:note off:         (0x89,0x33,0x4d).
time:  00000f28:note off:         (0x89,0x26,0x47).
time:  00000f32:note off:         (0x89,0x26,0x47).
time:  00000f3c:note on:          (0x99,0x24,0x70).
time:  00000f3c:note on:          (0x99,0x36,0x70).
time:  00000f3c:note on:          (0x99,0x2e,0x7a).
time:  00000f3c:note on:          (0x99,0x33,0x7a).
time:  00000f64:note off:         (0x89,0x24,0x47).
time:  00000f64:note off:         (0x89,0x36,0x47).
time:  00000f64:note off:         (0x89,0x2e,0x4d).
time:  00000f64:note off:         (0x89,0x33,0x4d).
time:  00000f78:note on:          (0x99,0x36,0x70).
time:  00000f78:note on:          (0x99,0x2e,0x7a).
time:  00000f78:note on:          (0x99,0x33,0x7a).
time:  00000fa0:note off:         (0x89,0x36,0x47).
time:  00000fa0:note off:         (0x89,0x2e,0x4d).
time:  00000fa0:note off:         (0x89,0x33,0x4d).
time:  00000fb4:note on:          (0x99,0x24,0x70).
time:  00000fb4:note on:          (0x99,0x36,0x70).
time:  00000fb4:note on:          (0x99,0x2e,0x7a).
time:  00000fb4:note on:          (0x99,0x33,0x7a).
time:  00000fdc:note off:         (0x89,0x24,0x47).
time:  00000fdc:note off:         (0x89,0x36,0x47).
time:  00000fdc:note off:         (0x89,0x2e,0x4d).
time:  00000fdc:note off:         (0x89,0x33,0x4d).
time:  00000ff0:note on:          (0x99,0x24,0x70).
time:  00000ff0:note on:          (0x99,0x26,0x70).
time:  00000ff0:note on:          (0x99,0x36,0x70).
time:  00000ff0:note on:          (0x99,0x2e,0x7a).
time:  00000ff0:note on:          (0x99,0x33,0x7a).
time:  00000ff0:note on:          (0x99,0x39,0x70).
time:  00000ff0:note on:          (0x99,0x31,0x70).
time:  00001018:note off:         (0x89,0x24,0x47).
time:  00001018:note off:         (0x89,0x26,0x47).
time:  00001018:note off:         (0x89,0x36,0x47).
time:  00001018:note off:         (0x89,0x2e,0x4d).
time:  00001018:note off:         (0x89,0x33,0x4d).
time:  00001018:note off:         (0x89,0x39,0x47).
time:  00001018:note off:         (0x89,0x31,0x47).
time:  00001068:note on:          (0x99,0x36,0x70).
time:  00001068:note on:          (0x99,0x2e,0x7a).
time:  00001068:note on:          (0x99,0x33,0x7a).
time:  00001090:note off:         (0x89,0x36,0x47).
time:  00001090:note off:         (0x89,0x2e,0x4d).
time:  00001090:note off:         (0x89,0x33,0x4d).
time:  000010e0:note on:          (0x99,0x24,0x70).
time:  000010e0:note on:          (0x99,0x26,0x70).
time:  000010e0:note on:          (0x99,0x36,0x70).
time:  000010e0:note on:          (0x99,0x2e,0x7a).
time:  000010e0:note on:          (0x99,0x33,0x7a).
time:  000010e0:note on:          (0x99,0x39,0x70).
time:  000010e0:note on:          (0x99,0x31,0x70).
time:  00001108:note off:         (0x89,0x24,0x47).
time:  00001108:note off:         (0x89,0x26,0x47).
time:  00001108:note off:         (0x89,0x36,0x47).
time:  00001108:note off:         (0x89,0x2e,0x4d).
time:  00001108:note off:         (0x89,0x33,0x4d).
time:  00001108:note off:         (0x89,0x39,0x47).
time:  00001108:note off:         (0x89,0x31,0x47).
time:  00001158:note on:          (0x99,0x36,0x70).
time:  00001158:note on:          (0x99,0x2e,0x7a).
time:  00001158:note on:          (0x99,0x33,0x7a).
time:  00001180:note off:         (0x89,0x36,0x47).
time:  00001180:note off:         (0x89,0x2e,0x4d).
time:  00001180:note off:         (0x89,0x33,0x4d).
time:  000011d0:note on:          (0x99,0x26,0x70).
time:  000011d0:note on:          (0x99,0x36,0x70).
time:  000011d0:note on:          (0x99,0x2e,0x7a).
time:  000011d0:note on:          (0x99,0x33,0x7a).
time:  000011d0:note on:          (0x99,0x39,0x70).
time:  000011d0:note on:          (0x99,0x31,0x70).
time:  000011f8:note off:         (0x89,0x26,0x47).
time:  000011f8:note off:         (0x89,0x36,0x47).
time:  000011f8:note off:         (0x89,0x2e,0x4d).
time:  000011f8:note off:         (0x89,0x33,0x4d).
time:  000011f8:note off:         (0x89,0x39,0x47).
time:  000011f8:note off:         (0x89,0x31,0x47).
time:  0000120c:note on:          (0x99,0x26,0x70).
time:  00001234:note off:         (0x89,0x26,0x47).
time:  00001248:note on:          (0x99,0x24,0x70).
time:  00001248:note on:          (0x99,0x23,0x70).
time:  00001248:note on:          (0x99,0x36,0x70).
time:  00001248:note on:          (0x99,0x2e,0x7a).
time:  00001248:note on:          (0x99,0x33,0x7a).
time:  00001270:note off:         (0x89,0x24,0x47).
time:  00001270:note off:         (0x89,0x23,0x47).
time:  00001270:note off:         (0x89,0x36,0x47).
time:  00001270:note off:         (0x89,0x2e,0x4d).
time:  00001270:note off:         (0x89,0x33,0x4d).
time:  000012c0:note on:          (0x99,0x26,0x70).
time:  000012c0:note on:          (0x99,0x36,0x70).
time:  000012c0:note on:          (0x99,0x2e,0x7a).
time:  000012c0:note on:          (0x99,0x33,0x7a).
time:  000012c0:note on:          (0x99,0x39,0x70).
time:  000012c0:note on:          (0x99,0x31,0x70).
time:  000012e8:note off:         (0x89,0x26,0x47).
time:  000012e8:note off:         (0x89,0x36,0x47).
time:  000012e8:note off:         (0x89,0x2e,0x4d).
time:  000012e8:note off:         (0x89,0x33,0x4d).
time:  000012e8:note off:         (0x89,0x39,0x47).
time:  000012e8:note off:         (0x89,0x31,0x47).
time:  000012fc:note on:          (0x99,0x26,0x70).
time:  00001324:note off:         (0x89,0x26,0x47).
time:  00001338:note on:          (0x99,0x23,0x70).
time:  00001338:note on:          (0x99,0x24,0x70).
time:  00001338:note on:          (0x99,0x36,0x70).
time:  00001338:note on:          (0x99,0x2e,0x7a).
time:  00001338:note on:          (0x99,0x33,0x7a).
time:  00001360:note off:         (0x89,0x23,0x47).
time:  00001360:note off:         (0x89,0x24,0x47).
time:  00001360:note off:         (0x89,0x36,0x47).
time:  00001360:note off:         (0x89,0x2e,0x4d).
time:  00001360:note off:         (0x89,0x33,0x4d).
time:  000013b0:note on:          (0x99,0x24,0x70).
time:  000013b0:note on:          (0x99,0x26,0x70).
time:  000013b0:note on:          (0x99,0x36,0x70).
time:  000013b0:note on:          (0x99,0x2e,0x7a).
time:  000013b0:note on:          (0x99,0x33,0x7a).
time:  000013b0:note on:          (0x99,0x39,0x70).
time:  000013b0:note on:          (0x99,0x31,0x70).
time:  000013d8:note off:         (0x89,0x24,0x47).
time:  000013d8:note off:         (0x89,0x26,0x47).
time:  000013d8:note off:         (0x89,0x36,0x47).
time:  000013d8:note off:         (0x89,0x2e,0x4d).
time:  000013d8:note off:         (0x89,0x33,0x4d).
time:  000013d8:note off:         (0x89,0x39,0x47).
time:  000013d8:note off:         (0x89,0x31,0x47).
time:  00001428:note on:          (0x99,0x36,0x70).
time:  00001428:note on:          (0x99,0x2e,0x7a).
time:  00001428:note on:          (0x99,0x33,0x7a).
time:  00001450:note off:         (0x89,0x36,0x47).
time:  00001450:note off:         (0x89,0x2e,0x4d).
time:  00001450:note off:         (0x89,0x33,0x4d).
time:  000014a0:note on:          (0x99,0x24,0x70).
time:  000014a0:note on:          (0x99,0x26,0x70).
time:  000014a0:note on:          (0x99,0x36,0x70).
time:  000014a0:note on:          (0x99,0x2e,0x7a).
time:  000014a0:note on:          (0x99,0x33,0x7a).
time:  000014a0:note on:          (0x99,0x39,0x70).
time:  000014a0:note on:          (0x99,0x31,0x70).
time:  000014c8:note off:         (0x89,0x24,0x47).
time:  000014c8:note off:         (0x89,0x26,0x47).
time:  000014c8:note off:         (0x89,0x36,0x47).
time:  000014c8:note off:         (0x89,0x2e,0x4d).
time:  000014c8:note off:         (0x89,0x33,0x4d).
time:  000014c8:note off:         (0x89,0x39,0x47).
time:  000014c8:note off:         (0x89,0x31,0x47).
time:  00001518:note on:          (0x99,0x36,0x70).
time:  00001518:note on:          (0x99,0x2e,0x7a).
time:  00001518:note on:          (0x99,0x33,0x7a).
time:  00001540:note off:         (0x89,0x36,0x47).
time:  00001540:note off:         (0x89,0x2e,0x4d).
time:  00001540:note off:         (0x89,0x33,0x4d).
time:  00001590:note on:          (0x99,0x26,0x70).
time:  00001590:note on:          (0x99,0x36,0x70).
time:  00001590:note on:          (0x99,0x2e,0x7a).
time:  00001590:note on:          (0x99,0x33,0x7a).
time:  00001590:note on:          (0x99,0x39,0x70).
time:  00001590:note on:          (0x99,0x31,0x70).
time:  000015b8:note off:         (0x89,0x26,0x47).
time:  000015b8:note off:         (0x89,0x36,0x47).
time:  000015b8:note off:         (0x89,0x2e,0x4d).
time:  000015b8:note off:         (0x89,0x33,0x4d).
time:  000015b8:note off:         (0x89,0x39,0x47).
time:  000015b8:note off:         (0x89,0x31,0x47).
time:  000015cc:note on:          (0x99,0x26,0x70).
time:  000015f4:note off:         (0x89,0x26,0x47).
time:  00001608:note on:          (0x99,0x24,0x70).
time:  00001608:note on:          (0x99,0x23,0x70).
time:  00001608:note on:          (0x99,0x36,0x70).
time:  00001608:note on:          (0x99,0x2e,0x7a).
time:  00001608:note on:          (0x99,0x33,0x7a).
time:  00001630:note off:         (0x89,0x24,0x47).
time:  00001630:note off:         (0x89,0x23,0x47).
time:  00001630:note off:         (0x89,0x36,0x47).
time:  00001630:note off:         (0x89,0x2e,0x4d).
time:  00001630:note off:         (0x89,0x33,0x4d).
time:  00001680:note on:          (0x99,0x26,0x70).
time:  00001680:note on:          (0x99,0x36,0x70).
time:  00001680:note on:          (0x99,0x2e,0x7a).
time:  00001680:note on:          (0x99,0x33,0x7a).
time:  00001680:note on:          (0x99,0x39,0x70).
time:  00001680:note on:          (0x99,0x31,0x70).
time:  000016a8:note off:         (0x89,0x26,0x47).
time:  000016a8:note off:         (0x89,0x36,0x47).
time:  000016a8:note off:         (0x89,0x2e,0x4d).
time:  000016a8:note off:         (0x89,0x33,0x4d).
time:  000016a8:note off:         (0x89,0x39,0x47).
time:  000016a8:note off:         (0x89,0x31,0x47).
time:  000016bc:note on:          (0x99,0x26,0x70).
time:  000016e4:note off:         (0x89,0x26,0x47).
time:  000016f8:note on:          (0x99,0x23,0x70).
time:  000016f8:note on:          (0x99,0x24,0x70).
time:  000016f8:note on:          (0x99,0x36,0x70).
time:  000016f8:note on:          (0x99,0x2e,0x7a).
time:  000016f8:note on:          (0x99,0x33,0x7a).
time:  00001720:note off:         (0x89,0x23,0x47).
time:  00001720:note off:         (0x89,0x24,0x47).
time:  00001720:note off:         (0x89,0x36,0x47).
time:  00001720:note off:         (0x89,0x2e,0x4d).
time:  00001720:note off:         (0x89,0x33,0x4d).
time:  00001770:note on:          (0x99,0x24,0x70).
time:  00001770:note on:          (0x99,0x26,0x70).
time:  00001770:note on:          (0x99,0x36,0x70).
time:  00001770:note on:          (0x99,0x2e,0x7a).
time:  00001770:note on:          (0x99,0x33,0x7a).
time:  00001770:note on:          (0x99,0x39,0x70).
time:  00001770:note on:          (0x99,0x31,0x70).
time:  00001798:note off:         (0x89,0x24,0x47).
time:  00001798:note off:         (0x89,0x26,0x47).
time:  00001798:note off:         (0x89,0x36,0x47).
time:  00001798:note off:         (0x89,0x2e,0x4d).
time:  00001798:note off:         (0x89,0x33,0x4d).
time:  00001798:note off:         (0x89,0x39,0x47).
time:  00001798:note off:         (0x89,0x31,0x47).
time:  000017e8:note on:          (0x99,0x36,0x70).
time:  000017e8:note on:          (0x99,0x2e,0x7a).
time:  000017e8:note on:          (0x99,0x33,0x7a).
time:  00001810:note off:         (0x89,0x36,0x47).
time:  00001810:note off:         (0x89,0x2e,0x4d).
time:  00001810:note off:         (0x89,0x33,0x4d).
time:  00001860:note on:          (0x99,0x24,0x70).
time:  00001860:note on:          (0x99,0x26,0x70).
time:  00001860:note on:          (0x99,0x36,0x70).
time:  00001860:note on:          (0x99,0x2e,0x7a).
time:  00001860:note on:          (0x99,0x33,0x7a).
time:  00001860:note on:          (0x99,0x39,0x70).
time:  00001860:note on:          (0x99,0x31,0x70).
time:  00001888:note off:         (0x89,0x24,0x47).
time:  00001888:note off:         (0x89,0x26,0x47).
time:  00001888:note off:         (0x89,0x36,0x47).
time:  00001888:note off:         (0x89,0x2e,0x4d).
time:  00001888:note off:         (0x89,0x33,0x4d).
time:  00001888:note off:         (0x89,0x39,0x47).
time:  00001888:note off:         (0x89,0x31,0x47).
time:  000018d8:note on:          (0x99,0x36,0x70).
time:  000018d8:note on:          (0x99,0x2e,0x7a).
time:  000018d8:note on:          (0x99,0x33,0x7a).
time:  00001900:note off:         (0x89,0x36,0x47).
time:  00001900:note off:         (0x89,0x2e,0x4d).
time:  00001900:note off:         (0x89,0x33,0x4d).
time:  00001950:note on:          (0x99,0x26,0x70).
time:  00001950:note on:          (0x99,0x36,0x70).
time:  00001950:note on:          (0x99,0x2e,0x7a).
time:  00001950:note on:          (0x99,0x33,0x7a).
time:  00001950:note on:          (0x99,0x39,0x70).
time:  00001950:note on:          (0x99,0x31,0x70).
time:  00001978:note off:         (0x89,0x26,0x47).
time:  00001978:note off:         (0x89,0x36,0x47).
time:  00001978:note off:         (0x89,0x2e,0x4d).
time:  00001978:note off:         (0x89,0x33,0x4d).
time:  00001978:note off:         (0x89,0x39,0x47).
time:  00001978:note off:         (0x89,0x31,0x47).
time:  0000198c:note on:          (0x99,0x26,0x70).
time:  000019b4:note off:         (0x89,0x26,0x47).
time:  000019c8:note on:          (0x99,0x24,0x70).
time:  000019c8:note on:          (0x99,0x23,0x70).
time:  000019c8:note on:          (0x99,0x36,0x70).
time:  000019c8:note on:          (0x99,0x2e,0x7a).
time:  000019c8:note on:          (0x99,0x33,0x7a).
time:  000019f0:note off:         (0x89,0x24,0x47).
time:  000019f0:note off:         (0x89,0x23,0x47).
time:  000019f0:note off:         (0x89,0x36,0x47).
time:  000019f0:note off:         (0x89,0x2e,0x4d).
time:  000019f0:note off:         (0x89,0x33,0x4d).
time:  00001a40:note on:          (0x99,0x26,0x70).
time:  00001a40:note on:          (0x99,0x36,0x70).
time:  00001a40:note on:          (0x99,0x2e,0x7a).
time:  00001a40:note on:          (0x99,0x33,0x7a).
time:  00001a40:note on:          (0x99,0x39,0x70).
time:  00001a40:note on:          (0x99,0x31,0x70).
time:  00001a68:note off:         (0x89,0x26,0x47).
time:  00001a68:note off:         (0x89,0x36,0x47).
time:  00001a68:note off:         (0x89,0x2e,0x4d).
time:  00001a68:note off:         (0x89,0x33,0x4d).
time:  00001a68:note off:         (0x89,0x39,0x47).
time:  00001a68:note off:         (0x89,0x31,0x47).
time:  00001a7c:note on:          (0x99,0x26,0x70).
time:  00001aa4:note off:         (0x89,0x26,0x47).
time:  00001ab8:note on:          (0x99,0x23,0x70).
time:  00001ab8:note on:          (0x99,0x24,0x70).
time:  00001ab8:note on:          (0x99,0x36,0x70).
time:  00001ab8:note on:          (0x99,0x2e,0x7a).
time:  00001ab8:note on:          (0x99,0x33,0x7a).
time:  00001ae0:note off:         (0x89,0x23,0x47).
time:  00001ae0:note off:         (0x89,0x24,0x47).
time:  00001ae0:note off:         (0x89,0x36,0x47).
time:  00001ae0:note off:         (0x89,0x2e,0x4d).
time:  00001ae0:note off:         (0x89,0x33,0x4d).
time:  00001b30:note on:          (0x99,0x24,0x70).
time:  00001b30:note on:          (0x99,0x26,0x70).
time:  00001b30:note on:          (0x99,0x36,0x70).
time:  00001b30:note on:          (0x99,0x2e,0x7a).
time:  00001b30:note on:          (0x99,0x33,0x7a).
time:  00001b30:note on:          (0x99,0x39,0x70).
time:  00001b30:note on:          (0x99,0x31,0x70).
time:  00001b58:note off:         (0x89,0x24,0x47).
time:  00001b58:note off:         (0x89,0x26,0x47).
time:  00001b58:note off:         (0x89,0x36,0x47).
time:  00001b58:note off:         (0x89,0x2e,0x4d).
time:  00001b58:note off:         (0x89,0x33,0x4d).
time:  00001b58:note off:         (0x89,0x39,0x47).
time:  00001b58:note off:         (0x89,0x31,0x47).
time:  00001ba8:note on:          (0x99,0x36,0x70).
time:  00001ba8:note on:          (0x99,0x2e,0x7a).
time:  00001ba8:note on:          (0x99,0x33,0x7a).
time:  00001bd0:note off:         (0x89,0x36,0x47).
time:  00001bd0:note off:         (0x89,0x2e,0x4d).
time:  00001bd0:note off:         (0x89,0x33,0x4d).
time:  00001c20:note on:          (0x99,0x24,0x70).
time:  00001c20:note on:          (0x99,0x26,0x70).
time:  00001c20:note on:          (0x99,0x36,0x70).
time:  00001c20:note on:          (0x99,0x2e,0x7a).
time:  00001c20:note on:          (0x99,0x33,0x7a).
time:  00001c20:note on:          (0x99,0x39,0x70).
time:  00001c20:note on:          (0x99,0x31,0x70).
time:  00001c48:note off:         (0x89,0x24,0x47).
time:  00001c48:note off:         (0x89,0x26,0x47).
time:  00001c48:note off:         (0x89,0x36,0x47).
time:  00001c48:note off:         (0x89,0x2e,0x4d).
time:  00001c48:note off:         (0x89,0x33,0x4d).
time:  00001c48:note off:         (0x89,0x39,0x47).
time:  00001c48:note off:         (0x89,0x31,0x47).
time:  00001c98:note on:          (0x99,0x36,0x70).
time:  00001c98:note on:          (0x99,0x2e,0x7a).
time:  00001c98:note on:          (0x99,0x33,0x7a).
time:  00001cc0:note off:         (0x89,0x36,0x47).
time:  00001cc0:note off:         (0x89,0x2e,0x4d).
time:  00001cc0:note off:         (0x89,0x33,0x4d).
time:  00001d10:note on:          (0x99,0x26,0x70).
time:  00001d10:note on:          (0x99,0x36,0x70).
time:  00001d10:note on:          (0x99,0x2e,0x7a).
time:  00001d10:note on:          (0x99,0x33,0x7a).
time:  00001d10:note on:          (0x99,0x39,0x70).
time:  00001d10:note on:          (0x99,0x31,0x70).
time:  00001d38:note off:         (0x89,0x26,0x47).
time:  00001d38:note off:         (0x89,0x36,0x47).
time:  00001d38:note off:         (0x89,0x2e,0x4d).
time:  00001d38:note off:         (0x89,0x33,0x4d).
time:  00001d38:note off:         (0x89,0x39,0x47).
time:  00001d38:note off:         (0x89,0x31,0x47).
time:  00001d4c:note on:          (0x99,0x26,0x70).
time:  00001d74:note off:         (0x89,0x26,0x47).
time:  00001d88:note on:          (0x99,0x24,0x70).
time:  00001d88:note on:          (0x99,0x23,0x70).
time:  00001d88:note on:          (0x99,0x36,0x70).
time:  00001d88:note on:          (0x99,0x2e,0x7a).
time:  00001d88:note on:          (0x99,0x33,0x7a).
time:  00001db0:note off:         (0x89,0x24,0x47).
time:  00001db0:note off:         (0x89,0x23,0x47).
time:  00001db0:note off:         (0x89,0x36,0x47).
time:  00001db0:note off:         (0x89,0x2e,0x4d).
time:  00001db0:note off:         (0x89,0x33,0x4d).
time:  00001e00:note on:          (0x99,0x26,0x70).
time:  00001e00:note on:          (0x99,0x36,0x70).
time:  00001e00:note on:          (0x99,0x2e,0x7a).
time:  00001e00:note on:          (0x99,0x33,0x7a).
time:  00001e00:note on:          (0x99,0x39,0x70).
time:  00001e00:note on:          (0x99,0x31,0x70).
time:  00001e28:note off:         (0x89,0x26,0x47).
time:  00001e28:note off:         (0x89,0x36,0x47).
time:  00001e28:note off:         (0x89,0x2e,0x4d).
time:  00001e28:note off:         (0x89,0x33,0x4d).
time:  00001e28:note off:         (0x89,0x39,0x47).
time:  00001e28:note off:         (0x89,0x31,0x47).
time:  00001e3c:note on:          (0x99,0x26,0x70).
time:  00001e64:note off:         (0x89,0x26,0x47).
time:  00001e78:note on:          (0x99,0x23,0x70).
time:  00001e78:note on:          (0x99,0x24,0x70).
time:  00001e78:note on:          (0x99,0x36,0x70).
time:  00001e78:note on:          (0x99,0x2e,0x7a).
time:  00001e78:note on:          (0x99,0x33,0x7a).
time:  00001ea0:note off:         (0x89,0x23,0x47).
time:  00001ea0:note off:         (0x89,0x24,0x47).
time:  00001ea0:note off:         (0x89,0x36,0x47).
time:  00001ea0:note off:         (0x89,0x2e,0x4d).
time:  00001ea0:note off:         (0x89,0x33,0x4d).
time:  00001ef0:note on:          (0x99,0x24,0x70).
time:  00001ef0:note on:          (0x99,0x26,0x70).
time:  00001ef0:note on:          (0x99,0x36,0x70).
time:  00001ef0:note on:          (0x99,0x2e,0x7a).
time:  00001ef0:note on:          (0x99,0x33,0x7a).
time:  00001ef0:note on:          (0x99,0x39,0x70).
time:  00001ef0:note on:          (0x99,0x31,0x70).
time:  00001f18:note off:         (0x89,0x24,0x47).
time:  00001f18:note off:         (0x89,0x26,0x47).
time:  00001f18:note off:         (0x89,0x36,0x47).
time:  00001f18:note off:         (0x89,0x2e,0x4d).
time:  00001f18:note off:         (0x89,0x33,0x4d).
time:  00001f18:note off:         (0x89,0x39,0x47).
time:  00001f18:note off:         (0x89,0x31,0x47).
time:  00001f68:note on:          (0x99,0x36,0x70).
time:  00001f68:note on:          (0x99,0x2e,0x7a).
time:  00001f68:note on:          (0x99,0x33,0x7a).
time:  00001f90:note off:         (0x89,0x36,0x47).
time:  00001f90:note off:         (0x89,0x2e,0x4d).
time:  00001f90:note off:         (0x89,0x33,0x4d).
time:  00001fe0:note on:          (0x99,0x24,0x70).
time:  00001fe0:note on:          (0x99,0x26,0x70).
time:  00001fe0:note on:          (0x99,0x36,0x70).
time:  00001fe0:note on:          (0x99,0x2e,0x7a).
time:  00001fe0:note on:          (0x99,0x33,0x7a).
time:  00001fe0:note on:          (0x99,0x39,0x70).
time:  00001fe0:note on:          (0x99,0x31,0x70).
time:  00002008:note off:         (0x89,0x24,0x47).
time:  00002008:note off:         (0x89,0x26,0x47).
time:  00002008:note off:         (0x89,0x36,0x47).
time:  00002008:note off:         (0x89,0x2e,0x4d).
time:  00002008:note off:         (0x89,0x33,0x4d).
time:  00002008:note off:         (0x89,0x39,0x47).
time:  00002008:note off:         (0x89,0x31,0x47).
time:  00002058:note on:          (0x99,0x36,0x70).
time:  00002058:note on:          (0x99,0x2e,0x7a).
time:  00002058:note on:          (0x99,0x33,0x7a).
time:  00002080:note off:         (0x89,0x36,0x47).
time:  00002080:note off:         (0x89,0x2e,0x4d).
time:  00002080:note off:         (0x89,0x33,0x4d).
time:  000020d0:note on:          (0x99,0x26,0x70).
time:  000020d0:note on:          (0x99,0x36,0x70).
time:  000020d0:note on:          (0x99,0x2e,0x7a).
time:  000020d0:note on:          (0x99,0x33,0x7a).
time:  000020d0:note on:          (0x99,0x39,0x70).
time:  000020d0:note on:          (0x99,0x31,0x70).
time:  000020f8:note off:         (0x89,0x26,0x47).
time:  000020f8:note off:         (0x89,0x36,0x47).
time:  000020f8:note off:         (0x89,0x2e,0x4d).
time:  000020f8:note off:         (0x89,0x33,0x4d).
time:  000020f8:note off:         (0x89,0x39,0x47).
time:  000020f8:note off:         (0x89,0x31,0x47).
time:  0000210c:note on:          (0x99,0x26,0x70).
time:  00002134:note off:         (0x89,0x26,0x47).
time:  00002148:note on:          (0x99,0x24,0x70).
time:  00002148:note on:          (0x99,0x23,0x70).
time:  00002148:note on:          (0x99,0x36,0x70).
time:  00002148:note on:          (0x99,0x2e,0x7a).
time:  00002148:note on:          (0x99,0x33,0x7a).
time:  00002170:note off:         (0x89,0x24,0x47).
time:  00002170:note off:         (0x89,0x23,0x47).
time:  00002170:note off:         (0x89,0x36,0x47).
time:  00002170:note off:         (0x89,0x2e,0x4d).
time:  00002170:note off:         (0x89,0x33,0x4d).
time:  000021c0:note on:          (0x99,0x26,0x70).
time:  000021c0:note on:          (0x99,0x36,0x70).
time:  000021c0:note on:          (0x99,0x2e,0x7a).
time:  000021c0:note on:          (0x99,0x33,0x7a).
time:  000021c0:note on:          (0x99,0x39,0x70).
time:  000021c0:note on:          (0x99,0x31,0x70).
time:  000021e8:note off:         (0x89,0x26,0x47).
time:  000021e8:note off:         (0x89,0x36,0x47).
time:  000021e8:note off:         (0x89,0x2e,0x4d).
time:  000021e8:note off:         (0x89,0x33,0x4d).
time:  000021e8:note off:         (0x89,0x39,0x47).
time:  000021e8:note off:         (0x89,0x31,0x47).
time:  000021fc:note on:          (0x99,0x26,0x70).
time:  00002224:note off:         (0x89,0x26,0x47).
time:  00002238:note on:          (0x99,0x23,0x70).
time:  00002238:note on:          (0x99,0x24,0x70).
time:  00002238:note on:          (0x99,0x36,0x70).
time:  00002238:note on:          (0x99,0x2e,0x7a).
time:  00002238:note on:          (0x99,0x33,0x7a).
time:  00002260:note off:         (0x89,0x23,0x47).
time:  00002260:note off:         (0x89,0x24,0x47).
time:  00002260:note off:         (0x89,0x36,0x47).
time:  00002260:note off:         (0x89,0x2e,0x4d).
time:  00002260:note off:         (0x89,0x33,0x4d).
time:  000022b0:note on:          (0x99,0x24,0x70).
time:  000022b0:note on:          (0x99,0x26,0x70).
time:  000022b0:note on:          (0x99,0x36,0x70).
time:  000022b0:note on:          (0x99,0x2e,0x7a).
time:  000022b0:note on:          (0x99,0x33,0x7a).
time:  000022b0:note on:          (0x99,0x39,0x70).
time:  000022b0:note on:          (0x99,0x31,0x70).
time:  000022d8:note off:         (0x89,0x24,0x47).
time:  000022d8:note off:         (0x89,0x26,0x47).
time:  000022d8:note off:         (0x89,0x36,0x47).
time:  000022d8:note off:         (0x89,0x2e,0x4d).
time:  000022d8:note off:         (0x89,0x33,0x4d).
time:  000022d8:note off:         (0x89,0x39,0x47).
time:  000022d8:note off:         (0x89,0x31,0x47).
time:  00002328:note on:          (0x99,0x36,0x70).
time:  00002328:note on:          (0x99,0x2e,0x7a).
time:  00002328:note on:          (0x99,0x33,0x7a).
time:  00002350:note off:         (0x89,0x36,0x47).
time:  00002350:note off:         (0x89,0x2e,0x4d).
time:  00002350:note off:         (0x89,0x33,0x4d).
time:  000023a0:note on:          (0x99,0x24,0x70).
time:  000023a0:note on:          (0x99,0x26,0x70).
time:  000023a0:note on:          (0x99,0x36,0x70).
time:  000023a0:note on:          (0x99,0x2e,0x7a).
time:  000023a0:note on:          (0x99,0x33,0x7a).
time:  000023a0:note on:          (0x99,0x39,0x70).
time:  000023a0:note on:          (0x99,0x31,0x70).
time:  000023c8:note off:         (0x89,0x24,0x47).
time:  000023c8:note off:         (0x89,0x26,0x47).
time:  000023c8:note off:         (0x89,0x36,0x47).
time:  000023c8:note off:         (0x89,0x2e,0x4d).
time:  000023c8:note off:         (0x89,0x33,0x4d).
time:  000023c8:note off:         (0x89,0x39,0x47).
time:  000023c8:note off:         (0x89,0x31,0x47).
time:  00002418:note on:          (0x99,0x36,0x70).
time:  00002418:note on:          (0x99,0x2e,0x7a).
time:  00002418:note on:          (0x99,0x33,0x7a).
time:  00002440:note off:         (0x89,0x36,0x47).
time:  00002440:note off:         (0x89,0x2e,0x4d).
time:  00002440:note off:         (0x89,0x33,0x4d).
time:  00002490:note on:          (0x99,0x26,0x70).
time:  00002490:note on:          (0x99,0x36,0x70).
time:  00002490:note on:          (0x99,0x2e,0x7a).
time:  00002490:note on:          (0x99,0x33,0x7a).
time:  00002490:note on:          (0x99,0x39,0x70).
time:  00002490:note on:          (0x99,0x31,0x70).
time:  000024b8:note off:         (0x89,0x26,0x47).
time:  000024b8:note off:         (0x89,0x36,0x47).
time:  000024b8:note off:         (0x89,0x2e,0x4d).
time:  000024b8:note off:         (0x89,0x33,0x4d).
time:  000024b8:note off:         (0x89,0x39,0x47).
time:  000024b8:note off:         (0x89,0x31,0x47).
time:  000024cc:note on:          (0x99,0x26,0x70).
time:  000024f4:note off:         (0x89,0x26,0x47).
time:  00002508:note on:          (0x99,0x24,0x70).
time:  00002508:note on:          (0x99,0x23,0x70).
time:  00002508:note on:          (0x99,0x36,0x70).
time:  00002508:note on:          (0x99,0x2e,0x7a).
time:  00002508:note on:          (0x99,0x33,0x7a).
time:  00002530:note off:         (0x89,0x24,0x47).
time:  00002530:note off:         (0x89,0x23,0x47).
time:  00002530:note off:         (0x89,0x36,0x47).
time:  00002530:note off:         (0x89,0x2e,0x4d).
time:  00002530:note off:         (0x89,0x33,0x4d).
time:  00002580:note on:          (0x99,0x26,0x70).
time:  00002580:note on:          (0x99,0x36,0x70).
time:  00002580:note on:          (0x99,0x2e,0x7a).
time:  00002580:note on:          (0x99,0x33,0x7a).
time:  00002580:note on:          (0x99,0x39,0x70).
time:  00002580:note on:          (0x99,0x31,0x70).
time:  000025a8:note off:         (0x89,0x26,0x47).
time:  000025a8:note off:         (0x89,0x36,0x47).
time:  000025a8:note off:         (0x89,0x2e,0x4d).
time:  000025a8:note off:         (0x89,0x33,0x4d).
time:  000025a8:note off:         (0x89,0x39,0x47).
time:  000025a8:note off:         (0x89,0x31,0x47).
time:  000025bc:note on:          (0x99,0x26,0x70).
time:  000025e4:note off:         (0x89,0x26,0x47).
time:  000025f8:note on:          (0x99,0x23,0x70).
time:  000025f8:note on:          (0x99,0x24,0x70).
time:  000025f8:note on:          (0x99,0x36,0x70).
time:  000025f8:note on:          (0x99,0x2e,0x7a).
time:  000025f8:note on:          (0x99,0x33,0x7a).
time:  00002620:note off:         (0x89,0x23,0x47).
time:  00002620:note off:         (0x89,0x24,0x47).
time:  00002620:note off:         (0x89,0x36,0x47).
time:  00002620:note off:         (0x89,0x2e,0x4d).
time:  00002620:note off:         (0x89,0x33,0x4d).
time:  00002670:note on:          (0x99,0x24,0x70).
time:  00002670:note on:          (0x99,0x26,0x70).
time:  00002670:note on:          (0x99,0x36,0x70).
time:  00002670:note on:          (0x99,0x2e,0x7a).
time:  00002670:note on:          (0x99,0x33,0x7a).
time:  00002670:note on:          (0x99,0x39,0x70).
time:  00002670:note on:          (0x99,0x31,0x70).
time:  00002698:note off:         (0x89,0x24,0x47).
time:  00002698:note off:         (0x89,0x26,0x47).
time:  00002698:note off:         (0x89,0x36,0x47).
time:  00002698:note off:         (0x89,0x2e,0x4d).
time:  00002698:note off:         (0x89,0x33,0x4d).
time:  00002698:note off:         (0x89,0x39,0x47).
time:  00002698:note off:         (0x89,0x31,0x47).
time:  000026e8:note on:          (0x99,0x36,0x70).
time:  000026e8:note on:          (0x99,0x2e,0x7a).
time:  000026e8:note on:          (0x99,0x33,0x7a).
time:  00002710:note off:         (0x89,0x36,0x47).
time:  00002710:note off:         (0x89,0x2e,0x4d).
time:  00002710:note off:         (0x89,0x33,0x4d).
time:  00002760:note on:          (0x99,0x24,0x70).
time:  00002760:note on:          (0x99,0x26,0x70).
time:  00002760:note on:          (0x99,0x36,0x70).
time:  00002760:note on:          (0x99,0x2e,0x7a).
time:  00002760:note on:          (0x99,0x33,0x7a).
time:  00002760:note on:          (0x99,0x39,0x70).
time:  00002760:note on:          (0x99,0x31,0x70).
time:  00002788:note off:         (0x89,0x24,0x47).
time:  00002788:note off:         (0x89,0x26,0x47).
time:  00002788:note off:         (0x89,0x36,0x47).
time:  00002788:note off:         (0x89,0x2e,0x4d).
time:  00002788:note off:         (0x89,0x33,0x4d).
time:  00002788:note off:         (0x89,0x39,0x47).
time:  00002788:note off:         (0x89,0x31,0x47).
time:  000027d8:note on:          (0x99,0x36,0x70).
time:  000027d8:note on:          (0x99,0x2e,0x7a).
time:  000027d8:note on:          (0x99,0x33,0x7a).
time:  00002800:note off:         (0x89,0x36,0x47).
time:  00002800:note off:         (0x89,0x2e,0x4d).
time:  00002800:note off:         (0x89,0x33,0x4d).
time:  00002850:note on:          (0x99,0x26,0x70).
time:  00002850:note on:          (0x99,0x36,0x70).
time:  00002850:note on:          (0x99,0x2e,0x7a).
time:  00002850:note on:          (0x99,0x33,0x7a).
time:  00002850:note on:          (0x99,0x39,0x70).
time:  00002850:note on:          (0x99,0x31,0x70).
time:  00002878:note off:         (0x89,0x26,0x47).
time:  00002878:note off:         (0x89,0x36,0x47).
time:  00002878:note off:         (0x89,0x2e,0x4d).
time:  00002878:note off:         (0x89,0x33,0x4d).
time:  00002878:note off:         (0x89,0x39,0x47).
time:  00002878:note off:         (0x89,0x31,0x47).
time:  0000288c:note on:          (0x99,0x26,0x70).
time:  000028b4:note off:         (0x89,0x26,0x47).
time:  000028c8:note on:          (0x99,0x24,0x70).
time:  000028c8:note on:          (0x99,0x23,0x70).
time:  000028c8:note on:          (0x99,0x36,0x70).
time:  000028c8:note on:          (0x99,0x2e,0x7a).
time:  000028c8:note on:          (0x99,0x33,0x7a).
time:  000028f0:note off:         (0x89,0x24,0x47).
time:  000028f0:note off:         (0x89,0x23,0x47).
time:  000028f0:note off:         (0x89,0x36,0x47).
time:  000028f0:note off:         (0x89,0x2e,0x4d).
time:  000028f0:note off:         (0x89,0x33,0x4d).
time:  00002940:note on:          (0x99,0x26,0x70).
time:  00002940:note on:          (0x99,0x36,0x70).
time:  00002940:note on:          (0x99,0x2e,0x7a).
time:  00002940:note on:          (0x99,0x33,0x7a).
time:  00002940:note on:          (0x99,0x39,0x70).
time:  00002940:note on:          (0x99,0x31,0x70).
time:  00002968:note off:         (0x89,0x26,0x47).
time:  00002968:note off:         (0x89,0x36,0x47).
time:  00002968:note off:         (0x89,0x2e,0x4d).
time:  00002968:note off:         (0x89,0x33,0x4d).
time:  00002968:note off:         (0x89,0x39,0x47).
time:  00002968:note off:         (0x89,0x31,0x47).
time:  0000297c:note on:          (0x99,0x26,0x70).
time:  000029a4:note off:         (0x89,0x26,0x47).
time:  000029b8:note on:          (0x99,0x23,0x70).
time:  000029b8:note on:          (0x99,0x24,0x70).
time:  000029b8:note on:          (0x99,0x36,0x70).
time:  000029b8:note on:          (0x99,0x2e,0x7a).
time:  000029b8:note on:          (0x99,0x33,0x7a).
time:  000029e0:note off:         (0x89,0x23,0x47).
time:  000029e0:note off:         (0x89,0x24,0x47).
time:  000029e0:note off:         (0x89,0x36,0x47).
time:  000029e0:note off:         (0x89,0x2e,0x4d).
time:  000029e0:note off:         (0x89,0x33,0x4d).
time:  00002a30:note on:          (0x99,0x24,0x70).
time:  00002a30:note on:          (0x99,0x26,0x70).
time:  00002a30:note on:          (0x99,0x36,0x70).
time:  00002a30:note on:          (0x99,0x2e,0x7a).
time:  00002a30:note on:          (0x99,0x33,0x7a).
time:  00002a30:note on:          (0x99,0x39,0x70).
time:  00002a30:note on:          (0x99,0x31,0x70).
time:  00002a58:note off:         (0x89,0x24,0x47).
time:  00002a58:note off:         (0x89,0x26,0x47).
time:  00002a58:note off:         (0x89,0x36,0x47).
time:  00002a58:note off:         (0x89,0x2e,0x4d).
time:  00002a58:note off:         (0x89,0x33,0x4d).
time:  00002a58:note off:         (0x89,0x39,0x47).
time:  00002a58:note off:         (0x89,0x31,0x47).
time:  00002aa8:note on:          (0x99,0x36,0x70).
time:  00002aa8:note on:          (0x99,0x2e,0x7a).
time:  00002aa8:note on:          (0x99,0x33,0x7a).
time:  00002ad0:note off:         (0x89,0x36,0x47).
time:  00002ad0:note off:         (0x89,0x2e,0x4d).
time:  00002ad0:note off:         (0x89,0x33,0x4d).
time:  00002b20:note on:          (0x99,0x24,0x70).
time:  00002b20:note on:          (0x99,0x26,0x70).
time:  00002b20:note on:          (0x99,0x36,0x70).
time:  00002b20:note on:          (0x99,0x2e,0x7a).
time:  00002b20:note on:          (0x99,0x33,0x7a).
time:  00002b20:note on:          (0x99,0x39,0x70).
time:  00002b20:note on:          (0x99,0x31,0x70).
time:  00002b48:note off:         (0x89,0x24,0x47).
time:  00002b48:note off:         (0x89,0x26,0x47).
time:  00002b48:note off:         (0x89,0x36,0x47).
time:  00002b48:note off:         (0x89,0x2e,0x4d).
time:  00002b48:note off:         (0x89,0x33,0x4d).
time:  00002b48:note off:         (0x89,0x39,0x47).
time:  00002b48:note off:         (0x89,0x31,0x47).
time:  00002b98:note on:          (0x99,0x36,0x70).
time:  00002b98:note on:          (0x99,0x2e,0x7a).
time:  00002b98:note on:          (0x99,0x33,0x7a).
time:  00002bc0:note off:         (0x89,0x36,0x47).
time:  00002bc0:note off:         (0x89,0x2e,0x4d).
time:  00002bc0:note off:         (0x89,0x33,0x4d).
time:  00002c10:note on:          (0x99,0x26,0x70).
time:  00002c10:note on:          (0x99,0x36,0x70).
time:  00002c10:note on:          (0x99,0x2e,0x7a).
time:  00002c10:note on:          (0x99,0x33,0x7a).
time:  00002c10:note on:          (0x99,0x39,0x70).
time:  00002c10:note on:          (0x99,0x31,0x70).
time:  00002c10:note on:          (0x99,0x23,0x70).
time:  00002c38:note off:         (0x89,0x26,0x47).
time:  00002c38:note off:         (0x89,0x36,0x47).
time:  00002c38:note off:         (0x89,0x2e,0x4d).
time:  00002c38:note off:         (0x89,0x33,0x4d).
time:  00002c38:note off:         (0x89,0x39,0x47).
time:  00002c38:note off:         (0x89,0x31,0x47).
time:  00002c38:note off:         (0x89,0x23,0x47).
time:  00002c88:note on:          (0x99,0x36,0x70).
time:  00002c88:note on:          (0x99,0x2e,0x7a).
time:  00002c88:note on:          (0x99,0x33,0x7a).
time:  00002c88:note on:          (0x99,0x26,0x70).
time:  00002c88:note on:          (0x99,0x24,0x70).
time:  00002cb0:note off:         (0x89,0x36,0x47).
time:  00002cb0:note off:         (0x89,0x2e,0x4d).
time:  00002cb0:note off:         (0x89,0x33,0x4d).
time:  00002cb0:note off:         (0x89,0x26,0x47).
time:  00002cb0:note off:         (0x89,0x24,0x47).
time:  00002d00:note on:          (0x99,0x36,0x70).
time:  00002d00:note on:          (0x99,0x2e,0x7a).
time:  00002d00:note on:          (0x99,0x33,0x7a).
time:  00002d00:note on:          (0x99,0x39,0x70).
time:  00002d00:note on:          (0x99,0x31,0x70).
time:  00002d00:note on:          (0x99,0x24,0x70).
time:  00002d00:note on:          (0x99,0x26,0x70).
time:  00002d28:note off:         (0x89,0x36,0x47).
time:  00002d28:note off:         (0x89,0x2e,0x4d).
time:  00002d28:note off:         (0x89,0x33,0x4d).
time:  00002d28:note off:         (0x89,0x39,0x47).
time:  00002d28:note off:         (0x89,0x31,0x47).
time:  00002d28:note off:         (0x89,0x24,0x47).
time:  00002d28:note off:         (0x89,0x26,0x47).
time:  00002d3c:note on:          (0x99,0x24,0x70).
time:  00002d3c:note on:          (0x99,0x26,0x70).
time:  00002d64:note off:         (0x89,0x24,0x47).
time:  00002d64:note off:         (0x89,0x26,0x47).
time:  00002d78:note on:          (0x99,0x36,0x70).
time:  00002d78:note on:          (0x99,0x2e,0x7a).
time:  00002d78:note on:          (0x99,0x33,0x7a).
time:  00002d78:note on:          (0x99,0x24,0x70).
time:  00002d78:note on:          (0x99,0x26,0x70).
time:  00002da0:note off:         (0x89,0x36,0x47).
time:  00002da0:note off:         (0x89,0x2e,0x4d).
time:  00002da0:note off:         (0x89,0x33,0x4d).
time:  00002da0:note off:         (0x89,0x24,0x47).
time:  00002da0:note off:         (0x89,0x26,0x47).
time:  00002db4:note on:          (0x99,0x24,0x70).
time:  00002db4:note on:          (0x99,0x26,0x70).
time:  00002ddc:note off:         (0x89,0x24,0x47).
time:  00002ddc:note off:         (0x89,0x26,0x47).
time:  00002df0:note on:          (0x99,0x24,0x70).
time:  00002df0:note on:          (0x99,0x33,0x70).
time:  00002e18:note off:         (0x89,0x24,0x47).
time:  00002e18:note off:         (0x89,0x33,0x47).
time:  00002e68:note on:          (0x99,0x24,0x70).
time:  00002e90:note off:         (0x89,0x24,0x47).
time:  00002ee0:note on:          (0x99,0x26,0x70).
time:  00002ee0:note on:          (0x99,0x33,0x70).
time:  00002f08:note off:         (0x89,0x26,0x47).
time:  00002f08:note off:         (0x89,0x33,0x47).
time:  00002fd0:note on:          (0x99,0x24,0x70).
time:  00002fd0:note on:          (0x99,0x33,0x70).
time:  00002ff8:note off:         (0x89,0x24,0x47).
time:  00002ff8:note off:         (0x89,0x33,0x47).
time:  00003048:note on:          (0x99,0x24,0x70).
time:  00003070:note off:         (0x89,0x24,0x47).
time:  000030c0:note on:          (0x99,0x26,0x70).
time:  000030c0:note on:          (0x99,0x33,0x70).
time:  000030e8:note off:         (0x89,0x26,0x47).
time:  000030e8:note off:         (0x89,0x33,0x47).
time:  000031b0:note on:          (0x99,0x24,0x70).
time:  000031b0:note on:          (0x99,0x33,0x70).
time:  000031d8:note off:         (0x89,0x24,0x47).
time:  000031d8:note off:         (0x89,0x33,0x47).
time:  00003228:note on:          (0x99,0x24,0x70).
time:  00003250:note off:         (0x89,0x24,0x47).
time:  000032a0:note on:          (0x99,0x26,0x70).
time:  000032a0:note on:          (0x99,0x33,0x70).
time:  000032c8:note off:         (0x89,0x26,0x47).
time:  000032c8:note off:         (0x89,0x33,0x47).
time:  00003390:note on:          (0x99,0x24,0x70).
time:  00003390:note on:          (0x99,0x33,0x70).
time:  000033b8:note off:         (0x89,0x24,0x47).
time:  000033b8:note off:         (0x89,0x33,0x47).
time:  00003408:note on:          (0x99,0x24,0x70).
time:  00003430:note off:         (0x89,0x24,0x47).
time:  00003480:note on:          (0x99,0x26,0x70).
time:  00003480:note on:          (0x99,0x33,0x70).
time:  000034a8:note off:         (0x89,0x26,0x47).
time:  000034a8:note off:         (0x89,0x33,0x47).
time:  00003570:note on:          (0x99,0x24,0x70).
time:  00003570:note on:          (0x99,0x33,0x70).
time:  00003598:note off:         (0x89,0x24,0x47).
time:  00003598:note off:         (0x89,0x33,0x47).
time:  000035e8:note on:          (0x99,0x24,0x70).
time:  00003610:note off:         (0x89,0x24,0x47).
time:  00003660:note on:          (0x99,0x26,0x70).
time:  00003660:note on:          (0x99,0x33,0x70).
time:  00003688:note off:         (0x89,0x26,0x47).
time:  00003688:note off:         (0x89,0x33,0x47).
time:  00003750:note on:          (0x99,0x24,0x70).
time:  00003750:note on:          (0x99,0x33,0x70).
time:  00003778:note off:         (0x89,0x24,0x47).
time:  00003778:note off:         (0x89,0x33,0x47).
time:  000037c8:note on:          (0x99,0x24,0x70).
time:  000037f0:note off:         (0x89,0x24,0x47).
time:  00003840:note on:          (0x99,0x26,0x70).
time:  00003840:note on:          (0x99,0x33,0x70).
time:  00003868:note off:         (0x89,0x26,0x47).
time:  00003868:note off:         (0x89,0x33,0x47).
time:  00003930:note on:          (0x99,0x24,0x70).
time:  00003930:note on:          (0x99,0x33,0x70).
time:  00003958:note off:         (0x89,0x24,0x47).
time:  00003958:note off:         (0x89,0x33,0x47).
time:  000039a8:note on:          (0x99,0x24,0x70).
time:  000039d0:note off:         (0x89,0x24,0x47).
time:  00003a20:note on:          (0x99,0x26,0x70).
time:  00003a20:note on:          (0x99,0x33,0x70).
time:  00003a48:note off:         (0x89,0x26,0x47).
time:  00003a48:note off:         (0x89,0x33,0x47).
time:  00003b10:note on:          (0x99,0x24,0x70).
time:  00003b10:note on:          (0x99,0x33,0x70).
time:  00003b38:note off:         (0x89,0x24,0x47).
time:  00003b38:note off:         (0x89,0x33,0x47).
time:  00003b88:note on:          (0x99,0x24,0x70).
time:  00003bb0:note off:         (0x89,0x24,0x47).
time:  00003c00:note on:          (0x99,0x26,0x70).
time:  00003c00:note on:          (0x99,0x33,0x70).
time:  00003c28:note off:         (0x89,0x26,0x47).
time:  00003c28:note off:         (0x89,0x33,0x47).
time:  00003cf0:note on:          (0x99,0x24,0x70).
time:  00003cf0:note on:          (0x99,0x33,0x70).
time:  00003d18:note off:         (0x89,0x24,0x47).
time:  00003d18:note off:         (0x89,0x33,0x47).
time:  00003d68:note on:          (0x99,0x24,0x70).
time:  00003d90:note off:         (0x89,0x24,0x47).
time:  00003de0:note on:          (0x99,0x26,0x70).
time:  00003de0:note on:          (0x99,0x33,0x70).
time:  00003e08:note off:         (0x89,0x26,0x47).
time:  00003e08:note off:         (0x89,0x33,0x47).
time:  00003ed0:note on:          (0x99,0x24,0x70).
time:  00003ed0:note on:          (0x99,0x33,0x70).
time:  00003ef8:note off:         (0x89,0x24,0x47).
time:  00003ef8:note off:         (0x89,0x33,0x47).
time:  00003f48:note on:          (0x99,0x24,0x70).
time:  00003f70:note off:         (0x89,0x24,0x47).
time:  00003fc0:note on:          (0x99,0x26,0x70).
time:  00003fc0:note on:          (0x99,0x33,0x70).
time:  00003fe8:note off:         (0x89,0x26,0x47).
time:  00003fe8:note off:         (0x89,0x33,0x47).
time:  000040b0:note on:          (0x99,0x24,0x70).
time:  000040b0:note on:          (0x99,0x33,0x70).
time:  000040d8:note off:         (0x89,0x24,0x47).
time:  000040d8:note off:         (0x89,0x33,0x47).
time:  00004128:note on:          (0x99,0x24,0x70).
time:  00004150:note off:         (0x89,0x24,0x47).
time:  000041a0:note on:          (0x99,0x26,0x70).
time:  000041a0:note on:          (0x99,0x33,0x70).
time:  000041c8:note off:         (0x89,0x26,0x47).
time:  000041c8:note off:         (0x89,0x33,0x47).
time:  00004290:note on:          (0x99,0x24,0x70).
time:  00004290:note on:          (0x99,0x33,0x70).
time:  000042b8:note off:         (0x89,0x24,0x47).
time:  000042b8:note off:         (0x89,0x33,0x47).
time:  00004308:note on:          (0x99,0x24,0x70).
time:  00004330:note off:         (0x89,0x24,0x47).
time:  00004380:note on:          (0x99,0x26,0x70).
time:  00004380:note on:          (0x99,0x33,0x70).
time:  000043a8:note off:         (0x89,0x26,0x47).
time:  000043a8:note off:         (0x89,0x33,0x47).
time:  00004470:note on:          (0x99,0x24,0x70).
time:  00004470:note on:          (0x99,0x33,0x70).
time:  00004498:note off:         (0x89,0x24,0x47).
time:  00004498:note off:         (0x89,0x33,0x47).
time:  000044e8:note on:          (0x99,0x24,0x70).
time:  00004510:note off:         (0x89,0x24,0x47).
time:  00004560:note on:          (0x99,0x26,0x70).
time:  00004560:note on:          (0x99,0x33,0x70).
time:  00004588:note off:         (0x89,0x26,0x47).
time:  00004588:note off:         (0x89,0x33,0x47).
time:  00004650:note on:          (0x99,0x24,0x70).
time:  00004650:note on:          (0x99,0x33,0x70).
time:  00004678:note off:         (0x89,0x24,0x47).
time:  00004678:note off:         (0x89,0x33,0x47).
time:  000046c8:note on:          (0x99,0x24,0x70).
time:  000046f0:note off:         (0x89,0x24,0x47).
time:  00004740:note on:          (0x99,0x26,0x70).
time:  00004740:note on:          (0x99,0x33,0x70).
time:  00004768:note off:         (0x89,0x26,0x47).
time:  00004768:note off:         (0x89,0x33,0x47).
time:  00004830:note on:          (0x99,0x24,0x70).
time:  00004830:note on:          (0x99,0x33,0x70).
time:  00004858:note off:         (0x89,0x24,0x47).
time:  00004858:note off:         (0x89,0x33,0x47).
time:  000048a8:note on:          (0x99,0x24,0x70).
time:  000048d0:note off:         (0x89,0x24,0x47).
time:  00004920:note on:          (0x99,0x26,0x70).
time:  00004920:note on:          (0x99,0x33,0x70).
time:  00004948:note off:         (0x89,0x26,0x47).
time:  00004948:note off:         (0x89,0x33,0x47).
time:  00004a10:note on:          (0x99,0x24,0x70).
time:  00004a10:note on:          (0x99,0x33,0x70).
time:  00004a38:note off:         (0x89,0x24,0x47).
time:  00004a38:note off:         (0x89,0x33,0x47).
time:  00004a88:note on:          (0x99,0x24,0x70).
time:  00004ab0:note off:         (0x89,0x24,0x47).
time:  00004b00:note on:          (0x99,0x26,0x70).
time:  00004b00:note on:          (0x99,0x33,0x70).
time:  00004b28:note off:         (0x89,0x26,0x47).
time:  00004b28:note off:         (0x89,0x33,0x47).
time:  00004bf0:note on:          (0x99,0x24,0x70).
time:  00004bf0:note on:          (0x99,0x33,0x70).
time:  00004c18:note off:         (0x89,0x24,0x47).
time:  00004c18:note off:         (0x89,0x33,0x47).
time:  00004c68:note on:          (0x99,0x24,0x70).
time:  00004c90:note off:         (0x89,0x24,0x47).
time:  00004ce0:note on:          (0x99,0x26,0x70).
time:  00004ce0:note on:          (0x99,0x33,0x70).
time:  00004d08:note off:         (0x89,0x26,0x47).
time:  00004d08:note off:         (0x89,0x33,0x47).
time:  00004dd0:note on:          (0x99,0x24,0x70).
time:  00004dd0:note on:          (0x99,0x33,0x70).
time:  00004df8:note off:         (0x89,0x24,0x47).
time:  00004df8:note off:         (0x89,0x33,0x47).
time:  00004e48:note on:          (0x99,0x24,0x70).
time:  00004e70:note off:         (0x89,0x24,0x47).
time:  00004ec0:note on:          (0x99,0x26,0x70).
time:  00004ec0:note on:          (0x99,0x33,0x70).
time:  00004ee8:note off:         (0x89,0x26,0x47).
time:  00004ee8:note off:         (0x89,0x33,0x47).
time:  00004fb0:note on:          (0x99,0x24,0x70).
time:  00004fb0:note on:          (0x99,0x33,0x70).
time:  00004fd8:note off:         (0x89,0x24,0x47).
time:  00004fd8:note off:         (0x89,0x33,0x47).
time:  00005028:note on:          (0x99,0x24,0x70).
time:  00005050:note off:         (0x89,0x24,0x47).
time:  000050a0:note on:          (0x99,0x26,0x70).
time:  000050a0:note on:          (0x99,0x33,0x70).
time:  000050c8:note off:         (0x89,0x26,0x47).
time:  000050c8:note off:         (0x89,0x33,0x47).
time:  00005190:note on:          (0x99,0x24,0x70).
time:  00005190:note on:          (0x99,0x33,0x70).
time:  000051b8:note off:         (0x89,0x24,0x47).
time:  000051b8:note off:         (0x89,0x33,0x47).
time:  00005208:note on:          (0x99,0x24,0x70).
time:  00005230:note off:         (0x89,0x24,0x47).
time:  00005280:note on:          (0x99,0x26,0x70).
time:  00005280:note on:          (0x99,0x33,0x70).
time:  000052a8:note off:         (0x89,0x26,0x47).
time:  000052a8:note off:         (0x89,0x33,0x47).
time:  00005370:note on:          (0x99,0x24,0x70).
time:  00005370:note on:          (0x99,0x33,0x70).
time:  00005398:note off:         (0x89,0x24,0x47).
time:  00005398:note off:         (0x89,0x33,0x47).
time:  000053e8:note on:          (0x99,0x24,0x70).
time:  00005410:note off:         (0x89,0x24,0x47).
time:  00005460:note on:          (0x99,0x26,0x70).
time:  00005460:note on:          (0x99,0x33,0x70).
time:  00005488:note off:         (0x89,0x26,0x47).
time:  00005488:note off:         (0x89,0x33,0x47).
time:  00005550:note on:          (0x99,0x24,0x70).
time:  00005550:note on:          (0x99,0x33,0x70).
time:  00005578:note off:         (0x89,0x24,0x47).
time:  00005578:note off:         (0x89,0x33,0x47).
time:  000055c8:note on:          (0x99,0x24,0x70).
time:  000055f0:note off:         (0x89,0x24,0x47).
time:  00005640:note on:          (0x99,0x26,0x70).
time:  00005640:note on:          (0x99,0x33,0x70).
time:  00005668:note off:         (0x89,0x26,0x47).
time:  00005668:note off:         (0x89,0x33,0x47).
time:  00005730:note on:          (0x99,0x24,0x70).
time:  00005730:note on:          (0x99,0x33,0x70).
time:  00005758:note off:         (0x89,0x24,0x47).
time:  00005758:note off:         (0x89,0x33,0x47).
time:  000057a8:note on:          (0x99,0x24,0x70).
time:  000057d0:note off:         (0x89,0x24,0x47).
time:  00005820:note on:          (0x99,0x26,0x70).
time:  00005820:note on:          (0x99,0x33,0x70).
time:  00005848:note off:         (0x89,0x26,0x47).
time:  00005848:note off:         (0x89,0x33,0x47).
time:  00005910:note on:          (0x99,0x24,0x70).
time:  00005910:note on:          (0x99,0x33,0x70).
time:  00005938:note off:         (0x89,0x24,0x47).
time:  00005938:note off:         (0x89,0x33,0x47).
time:  00005988:note on:          (0x99,0x24,0x70).
time:  000059b0:note off:         (0x89,0x24,0x47).
time:  00005a00:note on:          (0x99,0x26,0x70).
time:  00005a00:note on:          (0x99,0x33,0x70).
time:  00005a00:note on:          (0x99,0x37,0x70).
time:  00005a28:note off:         (0x89,0x26,0x47).
time:  00005a28:note off:         (0x89,0x33,0x47).
time:  00005a28:note off:         (0x89,0x37,0x47).
time:  00005a78:note on:          (0x99,0x26,0x70).
time:  00005a78:note on:          (0x99,0x39,0x70).
time:  00005aa0:note off:         (0x89,0x26,0x47).
time:  00005aa0:note off:         (0x89,0x39,0x47).
time:  00005af0:note on:          (0x99,0x39,0x54).
time:  00005af0:note on:          (0x99,0x31,0x54).
time:  00005af0:note on:          (0x99,0x33,0x54).
time:  00005af0:note on:          (0x99,0x26,0x54).
time:  00005af0:note on:          (0x99,0x26,0x54).
time:  00005af0:note on:          (0x99,0x24,0x54).
time:  00005b18:note off:         (0x89,0x39,0x47).
time:  00005b18:note off:         (0x89,0x31,0x47).
time:  00005b18:note off:         (0x89,0x33,0x47).
time:  00005b18:note off:         (0x89,0x26,0x47).
time:  00005b18:note off:         (0x89,0x24,0x47).
time:  00005b2c:note on:          (0x99,0x24,0x70).
time:  00005b2c:note on:          (0x99,0x26,0x70).
time:  00005b40:note off:         (0x89,0x26,0x47).
time:  00005b54:note off:         (0x89,0x24,0x47).
time:  00005b54:note off:         (0x89,0x26,0x47).
time:  00005b68:note on:          (0x99,0x33,0x54).
time:  00005b68:note on:          (0x99,0x24,0x70).
time:  00005b90:note off:         (0x89,0x33,0x47).
time:  00005b90:note off:         (0x89,0x24,0x47).
time:  00005be0:note on:          (0x99,0x39,0x54).
time:  00005be0:note on:          (0x99,0x31,0x54).
time:  00005be0:note on:          (0x99,0x33,0x54).
time:  00005be0:note on:          (0x99,0x26,0x54).
time:  00005be0:note on:          (0x99,0x24,0x54).
time:  00005c08:note off:         (0x89,0x39,0x47).
time:  00005c08:note off:         (0x89,0x31,0x47).
time:  00005c08:note off:         (0x89,0x33,0x47).
time:  00005c08:note off:         (0x89,0x24,0x47).
time:  00005c30:note off:         (0x89,0x26,0x47).
time:  00005c58:note on:          (0x99,0x33,0x54).
time:  00005c80:note off:         (0x89,0x33,0x47).
time:  00005cd0:note on:          (0x99,0x39,0x54).
time:  00005cd0:note on:          (0x99,0x31,0x54).
time:  00005cd0:note on:          (0x99,0x33,0x54).
time:  00005cd0:note on:          (0x99,0x26,0x54).
time:  00005cd0:note on:          (0x99,0x24,0x70).
time:  00005cf8:note off:         (0x89,0x39,0x47).
time:  00005cf8:note off:         (0x89,0x31,0x47).
time:  00005cf8:note off:         (0x89,0x33,0x47).
time:  00005cf8:note off:         (0x89,0x24,0x47).
time:  00005d0c:note on:          (0x99,0x26,0x70).
time:  00005d0c:note on:          (0x99,0x24,0x70).
time:  00005d20:note off:         (0x89,0x26,0x47).
time:  00005d34:note off:         (0x89,0x26,0x47).
time:  00005d34:note off:         (0x89,0x24,0x47).
time:  00005d48:note on:          (0x99,0x33,0x54).
time:  00005d48:note on:          (0x99,0x24,0x70).
time:  00005d70:note off:         (0x89,0x33,0x47).
time:  00005d70:note off:         (0x89,0x24,0x47).
time:  00005dc0:note on:          (0x99,0x39,0x54).
time:  00005dc0:note on:          (0x99,0x31,0x54).
time:  00005dc0:note on:          (0x99,0x33,0x54).
time:  00005dc0:note on:          (0x99,0x26,0x54).
time:  00005dc0:note on:          (0x99,0x24,0x70).
time:  00005de8:note off:         (0x89,0x39,0x47).
time:  00005de8:note off:         (0x89,0x31,0x47).
time:  00005de8:note off:         (0x89,0x33,0x47).
time:  00005de8:note off:         (0x89,0x24,0x47).
time:  00005e10:note off:         (0x89,0x26,0x47).
time:  00005e38:note on:          (0x99,0x33,0x54).
time:  00005e38:note on:          (0x99,0x24,0x70).
time:  00005e60:note off:         (0x89,0x33,0x47).
time:  00005e60:note off:         (0x89,0x24,0x47).
time:  00005eb0:note on:          (0x99,0x39,0x54).
time:  00005eb0:note on:          (0x99,0x31,0x54).
time:  00005eb0:note on:          (0x99,0x33,0x54).
time:  00005eb0:note on:          (0x99,0x26,0x54).
time:  00005eb0:note on:          (0x99,0x26,0x54).
time:  00005eb0:note on:          (0x99,0x24,0x54).
time:  00005ed8:note off:         (0x89,0x39,0x47).
time:  00005ed8:note off:         (0x89,0x31,0x47).
time:  00005ed8:note off:         (0x89,0x33,0x47).
time:  00005ed8:note off:         (0x89,0x26,0x47).
time:  00005ed8:note off:         (0x89,0x24,0x47).
time:  00005eec:note on:          (0x99,0x24,0x70).
time:  00005eec:note on:          (0x99,0x26,0x70).
time:  00005f00:note off:         (0x89,0x26,0x47).
time:  00005f14:note off:         (0x89,0x24,0x47).
time:  00005f14:note off:         (0x89,0x26,0x47).
time:  00005f28:note on:          (0x99,0x33,0x54).
time:  00005f28:note on:          (0x99,0x24,0x70).
time:  00005f50:note off:         (0x89,0x33,0x47).
time:  00005f50:note off:         (0x89,0x24,0x47).
time:  00005fa0:note on:          (0x99,0x39,0x54).
time:  00005fa0:note on:          (0x99,0x31,0x54).
time:  00005fa0:note on:          (0x99,0x33,0x54).
time:  00005fa0:note on:          (0x99,0x26,0x54).
time:  00005fa0:note on:          (0x99,0x24,0x54).
time:  00005fc8:note off:         (0x89,0x39,0x47).
time:  00005fc8:note off:         (0x89,0x31,0x47).
time:  00005fc8:note off:         (0x89,0x33,0x47).
time:  00005fc8:note off:         (0x89,0x24,0x47).
time:  00005ff0:note off:         (0x89,0x26,0x47).
time:  00006018:note on:          (0x99,0x33,0x54).
time:  00006040:note off:         (0x89,0x33,0x47).
time:  00006090:note on:          (0x99,0x39,0x54).
time:  00006090:note on:          (0x99,0x31,0x54).
time:  00006090:note on:          (0x99,0x33,0x54).
time:  00006090:note on:          (0x99,0x26,0x54).
time:  00006090:note on:          (0x99,0x24,0x70).
time:  000060b8:note off:         (0x89,0x39,0x47).
time:  000060b8:note off:         (0x89,0x31,0x47).
time:  000060b8:note off:         (0x89,0x33,0x47).
time:  000060b8:note off:         (0x89,0x24,0x47).
time:  000060cc:note on:          (0x99,0x26,0x70).
time:  000060cc:note on:          (0x99,0x24,0x70).
time:  000060e0:note off:         (0x89,0x26,0x47).
time:  000060f4:note off:         (0x89,0x26,0x47).
time:  000060f4:note off:         (0x89,0x24,0x47).
time:  00006108:note on:          (0x99,0x33,0x54).
time:  00006108:note on:          (0x99,0x24,0x70).
time:  00006130:note off:         (0x89,0x33,0x47).
time:  00006130:note off:         (0x89,0x24,0x47).
time:  00006180:note on:          (0x99,0x39,0x54).
time:  00006180:note on:          (0x99,0x31,0x54).
time:  00006180:note on:          (0x99,0x33,0x54).
time:  00006180:note on:          (0x99,0x26,0x54).
time:  00006180:note on:          (0x99,0x24,0x70).
time:  000061a8:note off:         (0x89,0x39,0x47).
time:  000061a8:note off:         (0x89,0x31,0x47).
time:  000061a8:note off:         (0x89,0x33,0x47).
time:  000061a8:note off:         (0x89,0x24,0x47).
time:  000061d0:note off:         (0x89,0x26,0x47).
time:  000061f8:note on:          (0x99,0x33,0x54).
time:  000061f8:note on:          (0x99,0x24,0x70).
time:  000061f8:note on:          (0x99,0x26,0x70).
time:  00006220:note off:         (0x89,0x33,0x47).
time:  00006220:note off:         (0x89,0x24,0x47).
time:  00006220:note off:         (0x89,0x26,0x47).
time:  00006270:note on:          (0x99,0x39,0x54).
time:  00006270:note on:          (0x99,0x31,0x54).
time:  00006270:note on:          (0x99,0x33,0x54).
time:  00006270:note on:          (0x99,0x26,0x54).
time:  00006270:note on:          (0x99,0x26,0x54).
time:  00006270:note on:          (0x99,0x24,0x54).
time:  00006298:note off:         (0x89,0x39,0x47).
time:  00006298:note off:         (0x89,0x31,0x47).
time:  00006298:note off:         (0x89,0x33,0x47).
time:  00006298:note off:         (0x89,0x26,0x47).
time:  00006298:note off:         (0x89,0x24,0x47).
time:  000062ac:note on:          (0x99,0x24,0x70).
time:  000062ac:note on:          (0x99,0x26,0x70).
time:  000062c0:note off:         (0x89,0x26,0x47).
time:  000062d4:note off:         (0x89,0x24,0x47).
time:  000062d4:note off:         (0x89,0x26,0x47).
time:  000062e8:note on:          (0x99,0x33,0x54).
time:  000062e8:note on:          (0x99,0x24,0x70).
time:  00006310:note off:         (0x89,0x33,0x47).
time:  00006310:note off:         (0x89,0x24,0x47).
time:  00006360:note on:          (0x99,0x39,0x54).
time:  00006360:note on:          (0x99,0x31,0x54).
time:  00006360:note on:          (0x99,0x33,0x54).
time:  00006360:note on:          (0x99,0x26,0x54).
time:  00006360:note on:          (0x99,0x24,0x54).
time:  00006388:note off:         (0x89,0x39,0x47).
time:  00006388:note off:         (0x89,0x31,0x47).
time:  00006388:note off:         (0x89,0x33,0x47).
time:  00006388:note off:         (0x89,0x24,0x47).
time:  000063b0:note off:         (0x89,0x26,0x47).
time:  000063d8:note on:          (0x99,0x33,0x54).
time:  00006400:note off:         (0x89,0x33,0x47).
time:  00006450:note on:          (0x99,0x39,0x54).
time:  00006450:note on:          (0x99,0x31,0x54).
time:  00006450:note on:          (0x99,0x33,0x54).
time:  00006450:note on:          (0x99,0x26,0x54).
time:  00006450:note on:          (0x99,0x24,0x70).
time:  00006478:note off:         (0x89,0x39,0x47).
time:  00006478:note off:         (0x89,0x31,0x47).
time:  00006478:note off:         (0x89,0x33,0x47).
time:  00006478:note off:         (0x89,0x24,0x47).
time:  0000648c:note on:          (0x99,0x26,0x70).
time:  0000648c:note on:          (0x99,0x24,0x70).
time:  000064a0:note off:         (0x89,0x26,0x47).
time:  000064b4:note off:         (0x89,0x26,0x47).
time:  000064b4:note off:         (0x89,0x24,0x47).
time:  000064c8:note on:          (0x99,0x33,0x54).
time:  000064c8:note on:          (0x99,0x24,0x70).
time:  000064f0:note off:         (0x89,0x33,0x47).
time:  000064f0:note off:         (0x89,0x24,0x47).
time:  00006540:note on:          (0x99,0x39,0x54).
time:  00006540:note on:          (0x99,0x31,0x54).
time:  00006540:note on:          (0x99,0x33,0x54).
time:  00006540:note on:          (0x99,0x26,0x54).
time:  00006540:note on:          (0x99,0x24,0x70).
time:  00006568:note off:         (0x89,0x39,0x47).
time:  00006568:note off:         (0x89,0x31,0x47).
time:  00006568:note off:         (0x89,0x33,0x47).
time:  00006568:note off:         (0x89,0x24,0x47).
time:  00006590:note off:         (0x89,0x26,0x47).
time:  000065b8:note on:          (0x99,0x33,0x54).
time:  000065b8:note on:          (0x99,0x24,0x70).
time:  000065e0:note off:         (0x89,0x33,0x47).
time:  000065e0:note off:         (0x89,0x24,0x47).
time:  00006630:note on:          (0x99,0x39,0x54).
time:  00006630:note on:          (0x99,0x31,0x54).
time:  00006630:note on:          (0x99,0x33,0x54).
time:  00006630:note on:          (0x99,0x26,0x54).
time:  00006630:note on:          (0x99,0x26,0x54).
time:  00006630:note on:          (0x99,0x24,0x54).
time:  00006658:note off:         (0x89,0x39,0x47).
time:  00006658:note off:         (0x89,0x31,0x47).
time:  00006658:note off:         (0x89,0x33,0x47).
time:  00006658:note off:         (0x89,0x26,0x47).
time:  00006658:note off:         (0x89,0x24,0x47).
time:  0000666c:note on:          (0x99,0x24,0x70).
time:  0000666c:note on:          (0x99,0x26,0x70).
time:  00006680:note off:         (0x89,0x26,0x47).
time:  00006694:note off:         (0x89,0x24,0x47).
time:  00006694:note off:         (0x89,0x26,0x47).
time:  000066a8:note on:          (0x99,0x33,0x54).
time:  000066a8:note on:          (0x99,0x24,0x70).
time:  000066d0:note off:         (0x89,0x33,0x47).
time:  000066d0:note off:         (0x89,0x24,0x47).
time:  00006720:note on:          (0x99,0x39,0x54).
time:  00006720:note on:          (0x99,0x31,0x54).
time:  00006720:note on:          (0x99,0x33,0x54).
time:  00006720:note on:          (0x99,0x26,0x54).
time:  00006720:note on:          (0x99,0x24,0x54).
time:  00006748:note off:         (0x89,0x39,0x47).
time:  00006748:note off:         (0x89,0x31,0x47).
time:  00006748:note off:         (0x89,0x33,0x47).
time:  00006748:note off:         (0x89,0x24,0x47).
time:  00006770:note off:         (0x89,0x26,0x47).
time:  00006798:note on:          (0x99,0x33,0x54).
time:  000067c0:note off:         (0x89,0x33,0x47).
time:  00006810:note on:          (0x99,0x39,0x54).
time:  00006810:note on:          (0x99,0x31,0x54).
time:  00006810:note on:          (0x99,0x33,0x54).
time:  00006810:note on:          (0x99,0x26,0x54).
time:  00006810:note on:          (0x99,0x24,0x70).
time:  00006838:note off:         (0x89,0x39,0x47).
time:  00006838:note off:         (0x89,0x31,0x47).
time:  00006838:note off:         (0x89,0x33,0x47).
time:  00006838:note off:         (0x89,0x24,0x47).
time:  0000684c:note on:          (0x99,0x26,0x70).
time:  0000684c:note on:          (0x99,0x24,0x70).
time:  00006860:note off:         (0x89,0x26,0x47).
time:  00006874:note off:         (0x89,0x26,0x47).
time:  00006874:note off:         (0x89,0x24,0x47).
time:  00006888:note on:          (0x99,0x33,0x54).
time:  00006888:note on:          (0x99,0x24,0x70).
time:  000068b0:note off:         (0x89,0x33,0x47).
time:  000068b0:note off:         (0x89,0x24,0x47).
time:  00006900:note on:          (0x99,0x39,0x54).
time:  00006900:note on:          (0x99,0x31,0x54).
time:  00006900:note on:          (0x99,0x33,0x54).
time:  00006900:note on:          (0x99,0x26,0x54).
time:  00006900:note on:          (0x99,0x24,0x70).
time:  00006928:note off:         (0x89,0x39,0x47).
time:  00006928:note off:         (0x89,0x31,0x47).
time:  00006928:note off:         (0x89,0x33,0x47).
time:  00006928:note off:         (0x89,0x24,0x47).
time:  00006950:note off:         (0x89,0x26,0x47).
time:  00006978:note on:          (0x99,0x33,0x54).
time:  00006978:note on:          (0x99,0x24,0x70).
time:  00006978:note on:          (0x99,0x26,0x70).
time:  000069a0:note off:         (0x89,0x33,0x47).
time:  000069a0:note off:         (0x89,0x24,0x47).
time:  000069a0:note off:         (0x89,0x26,0x47).
time:  000069f0:note on:          (0x99,0x39,0x54).
time:  000069f0:note on:          (0x99,0x31,0x54).
time:  000069f0:note on:          (0x99,0x33,0x54).
time:  000069f0:note on:          (0x99,0x26,0x54).
time:  000069f0:note on:          (0x99,0x26,0x54).
time:  000069f0:note on:          (0x99,0x24,0x54).
time:  00006a18:note off:         (0x89,0x39,0x47).
time:  00006a18:note off:         (0x89,0x31,0x47).
time:  00006a18:note off:         (0x89,0x33,0x47).
time:  00006a18:note off:         (0x89,0x26,0x47).
time:  00006a18:note off:         (0x89,0x24,0x47).
time:  00006a2c:note on:          (0x99,0x24,0x70).
time:  00006a2c:note on:          (0x99,0x26,0x70).
time:  00006a40:note off:         (0x89,0x26,0x47).
time:  00006a54:note off:         (0x89,0x24,0x47).
time:  00006a54:note off:         (0x89,0x26,0x47).
time:  00006a68:note on:          (0x99,0x33,0x54).
time:  00006a68:note on:          (0x99,0x24,0x70).
time:  00006a90:note off:         (0x89,0x33,0x47).
time:  00006a90:note off:         (0x89,0x24,0x47).
time:  00006ae0:note on:          (0x99,0x39,0x54).
time:  00006ae0:note on:          (0x99,0x31,0x54).
time:  00006ae0:note on:          (0x99,0x33,0x54).
time:  00006ae0:note on:          (0x99,0x26,0x54).
time:  00006ae0:note on:          (0x99,0x24,0x54).
time:  00006b08:note off:         (0x89,0x39,0x47).
time:  00006b08:note off:         (0x89,0x31,0x47).
time:  00006b08:note off:         (0x89,0x33,0x47).
time:  00006b08:note off:         (0x89,0x24,0x47).
time:  00006b30:note off:         (0x89,0x26,0x47).
time:  00006b58:note on:          (0x99,0x33,0x54).
time:  00006b80:note off:         (0x89,0x33,0x47).
time:  00006bd0:note on:          (0x99,0x39,0x54).
time:  00006bd0:note on:          (0x99,0x31,0x54).
time:  00006bd0:note on:          (0x99,0x33,0x54).
time:  00006bd0:note on:          (0x99,0x26,0x54).
time:  00006bd0:note on:          (0x99,0x24,0x70).
time:  00006bf8:note off:         (0x89,0x39,0x47).
time:  00006bf8:note off:         (0x89,0x31,0x47).
time:  00006bf8:note off:         (0x89,0x33,0x47).
time:  00006bf8:note off:         (0x89,0x24,0x47).
time:  00006c0c:note on:          (0x99,0x26,0x70).
time:  00006c0c:note on:          (0x99,0x24,0x70).
time:  00006c20:note off:         (0x89,0x26,0x47).
time:  00006c34:note off:         (0x89,0x26,0x47).
time:  00006c34:note off:         (0x89,0x24,0x47).
time:  00006c48:note on:          (0x99,0x33,0x54).
time:  00006c48:note on:          (0x99,0x24,0x70).
time:  00006c70:note off:         (0x89,0x33,0x47).
time:  00006c70:note off:         (0x89,0x24,0x47).
time:  00006cc0:note on:          (0x99,0x39,0x54).
time:  00006cc0:note on:          (0x99,0x31,0x54).
time:  00006cc0:note on:          (0x99,0x33,0x54).
time:  00006cc0:note on:          (0x99,0x26,0x54).
time:  00006cc0:note on:          (0x99,0x24,0x70).
time:  00006ce8:note off:         (0x89,0x39,0x47).
time:  00006ce8:note off:         (0x89,0x31,0x47).
time:  00006ce8:note off:         (0x89,0x33,0x47).
time:  00006ce8:note off:         (0x89,0x24,0x47).
time:  00006d10:note off:         (0x89,0x26,0x47).
time:  00006d38:note on:          (0x99,0x33,0x54).
time:  00006d38:note on:          (0x99,0x24,0x70).
time:  00006d60:note off:         (0x89,0x33,0x47).
time:  00006d60:note off:         (0x89,0x24,0x47).
time:  00006db0:note on:          (0x99,0x39,0x54).
time:  00006db0:note on:          (0x99,0x31,0x54).
time:  00006db0:note on:          (0x99,0x33,0x54).
time:  00006db0:note on:          (0x99,0x26,0x54).
time:  00006db0:note on:          (0x99,0x26,0x54).
time:  00006db0:note on:          (0x99,0x24,0x54).
time:  00006dd8:note off:         (0x89,0x39,0x47).
time:  00006dd8:note off:         (0x89,0x31,0x47).
time:  00006dd8:note off:         (0x89,0x33,0x47).
time:  00006dd8:note off:         (0x89,0x26,0x47).
time:  00006dd8:note off:         (0x89,0x24,0x47).
time:  00006dec:note on:          (0x99,0x24,0x70).
time:  00006dec:note on:          (0x99,0x26,0x70).
time:  00006e00:note off:         (0x89,0x26,0x47).
time:  00006e14:note off:         (0x89,0x24,0x47).
time:  00006e14:note off:         (0x89,0x26,0x47).
time:  00006e28:note on:          (0x99,0x33,0x54).
time:  00006e28:note on:          (0x99,0x24,0x70).
time:  00006e50:note off:         (0x89,0x33,0x47).
time:  00006e50:note off:         (0x89,0x24,0x47).
time:  00006ea0:note on:          (0x99,0x39,0x54).
time:  00006ea0:note on:          (0x99,0x31,0x54).
time:  00006ea0:note on:          (0x99,0x33,0x54).
time:  00006ea0:note on:          (0x99,0x26,0x54).
time:  00006ea0:note on:          (0x99,0x24,0x54).
time:  00006ec8:note off:         (0x89,0x39,0x47).
time:  00006ec8:note off:         (0x89,0x31,0x47).
time:  00006ec8:note off:         (0x89,0x33,0x47).
time:  00006ec8:note off:         (0x89,0x24,0x47).
time:  00006ef0:note off:         (0x89,0x26,0x47).
time:  00006f18:note on:          (0x99,0x33,0x54).
time:  00006f40:note off:         (0x89,0x33,0x47).
time:  00006f90:note on:          (0x99,0x39,0x54).
time:  00006f90:note on:          (0x99,0x31,0x54).
time:  00006f90:note on:          (0x99,0x33,0x54).
time:  00006f90:note on:          (0x99,0x26,0x54).
time:  00006f90:note on:          (0x99,0x24,0x70).
time:  00006fb8:note off:         (0x89,0x39,0x47).
time:  00006fb8:note off:         (0x89,0x31,0x47).
time:  00006fb8:note off:         (0x89,0x33,0x47).
time:  00006fb8:note off:         (0x89,0x24,0x47).
time:  00006fcc:note on:          (0x99,0x26,0x70).
time:  00006fcc:note on:          (0x99,0x24,0x70).
time:  00006fe0:note off:         (0x89,0x26,0x47).
time:  00006ff4:note off:         (0x89,0x26,0x47).
time:  00006ff4:note off:         (0x89,0x24,0x47).
time:  00007008:note on:          (0x99,0x33,0x54).
time:  00007008:note on:          (0x99,0x24,0x70).
time:  00007030:note off:         (0x89,0x33,0x47).
time:  00007030:note off:         (0x89,0x24,0x47).
time:  00007080:note on:          (0x99,0x39,0x54).
time:  00007080:note on:          (0x99,0x31,0x54).
time:  00007080:note on:          (0x99,0x33,0x54).
time:  00007080:note on:          (0x99,0x26,0x54).
time:  00007080:note on:          (0x99,0x24,0x70).
time:  000070a8:note off:         (0x89,0x39,0x47).
time:  000070a8:note off:         (0x89,0x31,0x47).
time:  000070a8:note off:         (0x89,0x33,0x47).
time:  000070a8:note off:         (0x89,0x24,0x47).
time:  000070d0:note off:         (0x89,0x26,0x47).
time:  000070f8:note on:          (0x99,0x33,0x54).
time:  000070f8:note on:          (0x99,0x24,0x70).
time:  000070f8:note on:          (0x99,0x26,0x70).
time:  00007120:note off:         (0x89,0x33,0x47).
time:  00007120:note off:         (0x89,0x24,0x47).
time:  00007120:note off:         (0x89,0x26,0x47).
time:  00007170:note on:          (0x99,0x39,0x54).
time:  00007170:note on:          (0x99,0x31,0x54).
time:  00007170:note on:          (0x99,0x33,0x54).
time:  00007170:note on:          (0x99,0x26,0x54).
time:  00007170:note on:          (0x99,0x26,0x54).
time:  00007170:note on:          (0x99,0x24,0x54).
time:  00007198:note off:         (0x89,0x39,0x47).
time:  00007198:note off:         (0x89,0x31,0x47).
time:  00007198:note off:         (0x89,0x33,0x47).
time:  00007198:note off:         (0x89,0x26,0x47).
time:  00007198:note off:         (0x89,0x24,0x47).
time:  000071ac:note on:          (0x99,0x24,0x70).
time:  000071ac:note on:          (0x99,0x26,0x70).
time:  000071c0:note off:         (0x89,0x26,0x47).
time:  000071d4:note off:         (0x89,0x24,0x47).
time:  000071d4:note off:         (0x89,0x26,0x47).
time:  000071e8:note on:          (0x99,0x33,0x54).
time:  000071e8:note on:          (0x99,0x24,0x70).
time:  00007210:note off:         (0x89,0x33,0x47).
time:  00007210:note off:         (0x89,0x24,0x47).
time:  00007260:note on:          (0x99,0x39,0x54).
time:  00007260:note on:          (0x99,0x31,0x54).
time:  00007260:note on:          (0x99,0x33,0x54).
time:  00007260:note on:          (0x99,0x26,0x54).
time:  00007260:note on:          (0x99,0x24,0x54).
time:  00007288:note off:         (0x89,0x39,0x47).
time:  00007288:note off:         (0x89,0x31,0x47).
time:  00007288:note off:         (0x89,0x33,0x47).
time:  00007288:note off:         (0x89,0x24,0x47).
time:  000072b0:note off:         (0x89,0x26,0x47).
time:  000072d8:note on:          (0x99,0x33,0x54).
time:  00007300:note off:         (0x89,0x33,0x47).
time:  00007350:note on:          (0x99,0x39,0x54).
time:  00007350:note on:          (0x99,0x31,0x54).
time:  00007350:note on:          (0x99,0x33,0x54).
time:  00007350:note on:          (0x99,0x26,0x54).
time:  00007350:note on:          (0x99,0x24,0x70).
time:  00007378:note off:         (0x89,0x39,0x47).
time:  00007378:note off:         (0x89,0x31,0x47).
time:  00007378:note off:         (0x89,0x33,0x47).
time:  00007378:note off:         (0x89,0x24,0x47).
time:  0000738c:note on:          (0x99,0x26,0x70).
time:  0000738c:note on:          (0x99,0x24,0x70).
time:  000073a0:note off:         (0x89,0x26,0x47).
time:  000073b4:note off:         (0x89,0x26,0x47).
time:  000073b4:note off:         (0x89,0x24,0x47).
time:  000073c8:note on:          (0x99,0x33,0x54).
time:  000073c8:note on:          (0x99,0x24,0x70).
time:  000073f0:note off:         (0x89,0x33,0x47).
time:  000073f0:note off:         (0x89,0x24,0x47).
time:  00007440:note on:          (0x99,0x39,0x54).
time:  00007440:note on:          (0x99,0x31,0x54).
time:  00007440:note on:          (0x99,0x33,0x54).
time:  00007440:note on:          (0x99,0x26,0x54).
time:  00007440:note on:          (0x99,0x24,0x70).
time:  00007468:note off:         (0x89,0x39,0x47).
time:  00007468:note off:         (0x89,0x31,0x47).
time:  00007468:note off:         (0x89,0x33,0x47).
time:  00007468:note off:         (0x89,0x24,0x47).
time:  00007490:note off:         (0x89,0x26,0x47).
time:  000074b8:note on:          (0x99,0x33,0x54).
time:  000074b8:note on:          (0x99,0x24,0x70).
time:  000074e0:note off:         (0x89,0x33,0x47).
time:  000074e0:note off:         (0x89,0x24,0x47).
time:  00007530:note on:          (0x99,0x39,0x54).
time:  00007530:note on:          (0x99,0x31,0x54).
time:  00007530:note on:          (0x99,0x33,0x54).
time:  00007530:note on:          (0x99,0x26,0x70).
time:  00007530:note on:          (0x99,0x24,0x70).
time:  00007558:note off:         (0x89,0x39,0x47).
time:  00007558:note off:         (0x89,0x31,0x47).
time:  00007558:note off:         (0x89,0x33,0x47).
time:  00007558:note off:         (0x89,0x26,0x47).
time:  00007558:note off:         (0x89,0x24,0x47).
time:  0000756c:note on:          (0x99,0x26,0x70).
time:  00007594:note off:         (0x89,0x26,0x47).
time:  000075a8:note on:          (0x99,0x33,0x54).
time:  000075a8:note on:          (0x99,0x26,0x70).
time:  000075a8:note on:          (0x99,0x24,0x70).
time:  000075d0:note off:         (0x89,0x33,0x47).
time:  000075d0:note off:         (0x89,0x26,0x47).
time:  000075d0:note off:         (0x89,0x24,0x47).
time:  000075e4:note on:          (0x99,0x26,0x70).
time:  0000760c:note off:         (0x89,0x26,0x47).
time:  00007620:note on:          (0x99,0x39,0x54).
time:  00007620:note on:          (0x99,0x31,0x54).
time:  00007620:note on:          (0x99,0x33,0x54).
time:  00007620:note on:          (0x99,0x26,0x70).
time:  00007620:note on:          (0x99,0x24,0x70).
time:  00007648:note off:         (0x89,0x39,0x47).
time:  00007648:note off:         (0x89,0x31,0x47).
time:  00007648:note off:         (0x89,0x33,0x47).
time:  00007648:note off:         (0x89,0x26,0x47).
time:  00007648:note off:         (0x89,0x24,0x47).
time:  0000765c:note on:          (0x99,0x26,0x70).
time:  00007684:note off:         (0x89,0x26,0x47).
time:  00007698:note on:          (0x99,0x33,0x54).
time:  00007698:note on:          (0x99,0x26,0x70).
time:  00007698:note on:          (0x99,0x24,0x70).
time:  000076c0:note off:         (0x89,0x33,0x47).
time:  000076c0:note off:         (0x89,0x26,0x47).
time:  000076c0:note off:         (0x89,0x24,0x47).
time:  000076d4:note on:          (0x99,0x26,0x70).
time:  000076fc:note off:         (0x89,0x26,0x47).
time:  00007710:note on:          (0x99,0x39,0x54).
time:  00007710:note on:          (0x99,0x31,0x54).
time:  00007710:note on:          (0x99,0x33,0x54).
time:  00007710:note on:          (0x99,0x26,0x70).
time:  00007710:note on:          (0x99,0x24,0x70).
time:  00007738:note off:         (0x89,0x39,0x47).
time:  00007738:note off:         (0x89,0x31,0x47).
time:  00007738:note off:         (0x89,0x33,0x47).
time:  00007738:note off:         (0x89,0x26,0x47).
time:  00007738:note off:         (0x89,0x24,0x47).
time:  0000774c:note on:          (0x99,0x26,0x70).
time:  00007774:note off:         (0x89,0x26,0x47).
time:  00007788:note on:          (0x99,0x33,0x54).
time:  00007788:note on:          (0x99,0x26,0x70).
time:  00007788:note on:          (0x99,0x24,0x70).
time:  000077b0:note off:         (0x89,0x33,0x47).
time:  000077b0:note off:         (0x89,0x26,0x47).
time:  000077b0:note off:         (0x89,0x24,0x47).
time:  000077c4:note on:          (0x99,0x26,0x70).
time:  000077ec:note off:         (0x89,0x26,0x47).
time:  00007800:note on:          (0x99,0x39,0x54).
time:  00007800:note on:          (0x99,0x31,0x54).
time:  00007800:note on:          (0x99,0x33,0x54).
time:  00007800:note on:          (0x99,0x26,0x70).
time:  00007800:note on:          (0x99,0x24,0x70).
time:  00007828:note off:         (0x89,0x39,0x47).
time:  00007828:note off:         (0x89,0x31,0x47).
time:  00007828:note off:         (0x89,0x33,0x47).
time:  00007828:note off:         (0x89,0x26,0x47).
time:  00007828:note off:         (0x89,0x24,0x47).
time:  00007878:note on:          (0x99,0x33,0x54).
time:  00007878:note on:          (0x99,0x24,0x70).
time:  000078a0:note off:         (0x89,0x33,0x47).
time:  000078a0:note off:         (0x89,0x24,0x47).
time:  000078f0:note on:          (0x99,0x24,0x70).
time:  000078f0:note on:          (0x99,0x26,0x70).
time:  000078f0:note on:          (0x99,0x36,0x70).
time:  000078f0:note on:          (0x99,0x2e,0x7a).
time:  000078f0:note on:          (0x99,0x33,0x7a).
time:  000078f0:note on:          (0x99,0x39,0x70).
time:  000078f0:note on:          (0x99,0x31,0x70).
time:  00007918:note off:         (0x89,0x24,0x47).
time:  00007918:note off:         (0x89,0x26,0x47).
time:  00007918:note off:         (0x89,0x36,0x47).
time:  00007918:note off:         (0x89,0x2e,0x4d).
time:  00007918:note off:         (0x89,0x33,0x4d).
time:  00007918:note off:         (0x89,0x39,0x47).
time:  00007918:note off:         (0x89,0x31,0x47).
time:  00007968:note on:          (0x99,0x36,0x70).
time:  00007968:note on:          (0x99,0x2e,0x7a).
time:  00007968:note on:          (0x99,0x33,0x7a).
time:  00007990:note off:         (0x89,0x36,0x47).
time:  00007990:note off:         (0x89,0x2e,0x4d).
time:  00007990:note off:         (0x89,0x33,0x4d).
time:  000079e0:note on:          (0x99,0x24,0x70).
time:  000079e0:note on:          (0x99,0x26,0x70).
time:  000079e0:note on:          (0x99,0x36,0x70).
time:  000079e0:note on:          (0x99,0x2e,0x7a).
time:  000079e0:note on:          (0x99,0x33,0x7a).
time:  000079e0:note on:          (0x99,0x39,0x70).
time:  000079e0:note on:          (0x99,0x31,0x70).
time:  00007a08:note off:         (0x89,0x24,0x47).
time:  00007a08:note off:         (0x89,0x26,0x47).
time:  00007a08:note off:         (0x89,0x36,0x47).
time:  00007a08:note off:         (0x89,0x2e,0x4d).
time:  00007a08:note off:         (0x89,0x33,0x4d).
time:  00007a08:note off:         (0x89,0x39,0x47).
time:  00007a08:note off:         (0x89,0x31,0x47).
time:  00007a58:note on:          (0x99,0x36,0x70).
time:  00007a58:note on:          (0x99,0x2e,0x7a).
time:  00007a58:note on:          (0x99,0x33,0x7a).
time:  00007a80:note off:         (0x89,0x36,0x47).
time:  00007a80:note off:         (0x89,0x2e,0x4d).
time:  00007a80:note off:         (0x89,0x33,0x4d).
time:  00007ad0:note on:          (0x99,0x26,0x70).
time:  00007ad0:note on:          (0x99,0x36,0x70).
time:  00007ad0:note on:          (0x99,0x2e,0x7a).
time:  00007ad0:note on:          (0x99,0x33,0x7a).
time:  00007ad0:note on:          (0x99,0x39,0x70).
time:  00007ad0:note on:          (0x99,0x31,0x70).
time:  00007af8:note off:         (0x89,0x26,0x47).
time:  00007af8:note off:         (0x89,0x36,0x47).
time:  00007af8:note off:         (0x89,0x2e,0x4d).
time:  00007af8:note off:         (0x89,0x33,0x4d).
time:  00007af8:note off:         (0x89,0x39,0x47).
time:  00007af8:note off:         (0x89,0x31,0x47).
time:  00007b0c:note on:          (0x99,0x26,0x70).
time:  00007b34:note off:         (0x89,0x26,0x47).
time:  00007b48:note on:          (0x99,0x24,0x70).
time:  00007b48:note on:          (0x99,0x23,0x70).
time:  00007b48:note on:          (0x99,0x36,0x70).
time:  00007b48:note on:          (0x99,0x2e,0x7a).
time:  00007b48:note on:          (0x99,0x33,0x7a).
time:  00007b70:note off:         (0x89,0x24,0x47).
time:  00007b70:note off:         (0x89,0x23,0x47).
time:  00007b70:note off:         (0x89,0x36,0x47).
time:  00007b70:note off:         (0x89,0x2e,0x4d).
time:  00007b70:note off:         (0x89,0x33,0x4d).
time:  00007bc0:note on:          (0x99,0x26,0x70).
time:  00007bc0:note on:          (0x99,0x36,0x70).
time:  00007bc0:note on:          (0x99,0x2e,0x7a).
time:  00007bc0:note on:          (0x99,0x33,0x7a).
time:  00007bc0:note on:          (0x99,0x39,0x70).
time:  00007bc0:note on:          (0x99,0x31,0x70).
time:  00007be8:note off:         (0x89,0x26,0x47).
time:  00007be8:note off:         (0x89,0x36,0x47).
time:  00007be8:note off:         (0x89,0x2e,0x4d).
time:  00007be8:note off:         (0x89,0x33,0x4d).
time:  00007be8:note off:         (0x89,0x39,0x47).
time:  00007be8:note off:         (0x89,0x31,0x47).
time:  00007bfc:note on:          (0x99,0x26,0x70).
time:  00007c24:note off:         (0x89,0x26,0x47).
time:  00007c38:note on:          (0x99,0x23,0x70).
time:  00007c38:note on:          (0x99,0x24,0x70).
time:  00007c38:note on:          (0x99,0x36,0x70).
time:  00007c38:note on:          (0x99,0x2e,0x7a).
time:  00007c38:note on:          (0x99,0x33,0x7a).
time:  00007c60:note off:         (0x89,0x23,0x47).
time:  00007c60:note off:         (0x89,0x24,0x47).
time:  00007c60:note off:         (0x89,0x36,0x47).
time:  00007c60:note off:         (0x89,0x2e,0x4d).
time:  00007c60:note off:         (0x89,0x33,0x4d).
time:  00007cb0:note on:          (0x99,0x24,0x70).
time:  00007cb0:note on:          (0x99,0x26,0x70).
time:  00007cb0:note on:          (0x99,0x36,0x70).
time:  00007cb0:note on:          (0x99,0x2e,0x7a).
time:  00007cb0:note on:          (0x99,0x33,0x7a).
time:  00007cb0:note on:          (0x99,0x39,0x70).
time:  00007cb0:note on:          (0x99,0x31,0x70).
time:  00007cd8:note off:         (0x89,0x24,0x47).
time:  00007cd8:note off:         (0x89,0x26,0x47).
time:  00007cd8:note off:         (0x89,0x36,0x47).
time:  00007cd8:note off:         (0x89,0x2e,0x4d).
time:  00007cd8:note off:         (0x89,0x33,0x4d).
time:  00007cd8:note off:         (0x89,0x39,0x47).
time:  00007cd8:note off:         (0x89,0x31,0x47).
time:  00007d28:note on:          (0x99,0x36,0x70).
time:  00007d28:note on:          (0x99,0x2e,0x7a).
time:  00007d28:note on:          (0x99,0x33,0x7a).
time:  00007d50:note off:         (0x89,0x36,0x47).
time:  00007d50:note off:         (0x89,0x2e,0x4d).
time:  00007d50:note off:         (0x89,0x33,0x4d).
time:  00007da0:note on:          (0x99,0x24,0x70).
time:  00007da0:note on:          (0x99,0x26,0x70).
time:  00007da0:note on:          (0x99,0x36,0x70).
time:  00007da0:note on:          (0x99,0x2e,0x7a).
time:  00007da0:note on:          (0x99,0x33,0x7a).
time:  00007da0:note on:          (0x99,0x39,0x70).
time:  00007da0:note on:          (0x99,0x31,0x70).
time:  00007dc8:note off:         (0x89,0x24,0x47).
time:  00007dc8:note off:         (0x89,0x26,0x47).
time:  00007dc8:note off:         (0x89,0x36,0x47).
time:  00007dc8:note off:         (0x89,0x2e,0x4d).
time:  00007dc8:note off:         (0x89,0x33,0x4d).
time:  00007dc8:note off:         (0x89,0x39,0x47).
time:  00007dc8:note off:         (0x89,0x31,0x47).
time:  00007e18:note on:          (0x99,0x36,0x70).
time:  00007e18:note on:          (0x99,0x2e,0x7a).
time:  00007e18:note on:          (0x99,0x33,0x7a).
time:  00007e40:note off:         (0x89,0x36,0x47).
time:  00007e40:note off:         (0x89,0x2e,0x4d).
time:  00007e40:note off:         (0x89,0x33,0x4d).
time:  00007e90:note on:          (0x99,0x26,0x70).
time:  00007e90:note on:          (0x99,0x36,0x70).
time:  00007e90:note on:          (0x99,0x2e,0x7a).
time:  00007e90:note on:          (0x99,0x33,0x7a).
time:  00007e90:note on:          (0x99,0x39,0x70).
time:  00007e90:note on:          (0x99,0x31,0x70).
time:  00007eb8:note off:         (0x89,0x26,0x47).
time:  00007eb8:note off:         (0x89,0x36,0x47).
time:  00007eb8:note off:         (0x89,0x2e,0x4d).
time:  00007eb8:note off:         (0x89,0x33,0x4d).
time:  00007eb8:note off:         (0x89,0x39,0x47).
time:  00007eb8:note off:         (0x89,0x31,0x47).
time:  00007ecc:note on:          (0x99,0x26,0x70).
time:  00007ef4:note off:         (0x89,0x26,0x47).
time:  00007f08:note on:          (0x99,0x24,0x70).
time:  00007f08:note on:          (0x99,0x23,0x70).
time:  00007f08:note on:          (0x99,0x36,0x70).
time:  00007f08:note on:          (0x99,0x2e,0x7a).
time:  00007f08:note on:          (0x99,0x33,0x7a).
time:  00007f30:note off:         (0x89,0x24,0x47).
time:  00007f30:note off:         (0x89,0x23,0x47).
time:  00007f30:note off:         (0x89,0x36,0x47).
time:  00007f30:note off:         (0x89,0x2e,0x4d).
time:  00007f30:note off:         (0x89,0x33,0x4d).
time:  00007f80:note on:          (0x99,0x26,0x70).
time:  00007f80:note on:          (0x99,0x36,0x70).
time:  00007f80:note on:          (0x99,0x2e,0x7a).
time:  00007f80:note on:          (0x99,0x33,0x7a).
time:  00007f80:note on:          (0x99,0x39,0x70).
time:  00007f80:note on:          (0x99,0x31,0x70).
time:  00007fa8:note off:         (0x89,0x26,0x47).
time:  00007fa8:note off:         (0x89,0x36,0x47).
time:  00007fa8:note off:         (0x89,0x2e,0x4d).
time:  00007fa8:note off:         (0x89,0x33,0x4d).
time:  00007fa8:note off:         (0x89,0x39,0x47).
time:  00007fa8:note off:         (0x89,0x31,0x47).
time:  00007fbc:note on:          (0x99,0x26,0x70).
time:  00007fe4:note off:         (0x89,0x26,0x47).
time:  00007ff8:note on:          (0x99,0x23,0x70).
time:  00007ff8:note on:          (0x99,0x24,0x70).
time:  00007ff8:note on:          (0x99,0x36,0x70).
time:  00007ff8:note on:          (0x99,0x2e,0x7a).
time:  00007ff8:note on:          (0x99,0x33,0x7a).
time:  00008020:note off:         (0x89,0x23,0x47).
time:  00008020:note off:         (0x89,0x24,0x47).
time:  00008020:note off:         (0x89,0x36,0x47).
time:  00008020:note off:         (0x89,0x2e,0x4d).
time:  00008020:note off:         (0x89,0x33,0x4d).
time:  00008070:note on:          (0x99,0x24,0x70).
time:  00008070:note on:          (0x99,0x26,0x70).
time:  00008070:note on:          (0x99,0x36,0x70).
time:  00008070:note on:          (0x99,0x2e,0x7a).
time:  00008070:note on:          (0x99,0x33,0x7a).
time:  00008070:note on:          (0x99,0x39,0x70).
time:  00008070:note on:          (0x99,0x31,0x70).
time:  00008098:note off:         (0x89,0x24,0x47).
time:  00008098:note off:         (0x89,0x26,0x47).
time:  00008098:note off:         (0x89,0x36,0x47).
time:  00008098:note off:         (0x89,0x2e,0x4d).
time:  00008098:note off:         (0x89,0x33,0x4d).
time:  00008098:note off:         (0x89,0x39,0x47).
time:  00008098:note off:         (0x89,0x31,0x47).
time:  000080e8:note on:          (0x99,0x36,0x70).
time:  000080e8:note on:          (0x99,0x2e,0x7a).
time:  000080e8:note on:          (0x99,0x33,0x7a).
time:  00008110:note off:         (0x89,0x36,0x47).
time:  00008110:note off:         (0x89,0x2e,0x4d).
time:  00008110:note off:         (0x89,0x33,0x4d).
time:  00008160:note on:          (0x99,0x24,0x70).
time:  00008160:note on:          (0x99,0x26,0x70).
time:  00008160:note on:          (0x99,0x36,0x70).
time:  00008160:note on:          (0x99,0x2e,0x7a).
time:  00008160:note on:          (0x99,0x33,0x7a).
time:  00008160:note on:          (0x99,0x39,0x70).
time:  00008160:note on:          (0x99,0x31,0x70).
time:  00008188:note off:         (0x89,0x24,0x47).
time:  00008188:note off:         (0x89,0x26,0x47).
time:  00008188:note off:         (0x89,0x36,0x47).
time:  00008188:note off:         (0x89,0x2e,0x4d).
time:  00008188:note off:         (0x89,0x33,0x4d).
time:  00008188:note off:         (0x89,0x39,0x47).
time:  00008188:note off:         (0x89,0x31,0x47).
time:  000081d8:note on:          (0x99,0x36,0x70).
time:  000081d8:note on:          (0x99,0x2e,0x7a).
time:  000081d8:note on:          (0x99,0x33,0x7a).
time:  00008200:note off:         (0x89,0x36,0x47).
time:  00008200:note off:         (0x89,0x2e,0x4d).
time:  00008200:note off:         (0x89,0x33,0x4d).
time:  00008250:note on:          (0x99,0x26,0x70).
time:  00008250:note on:          (0x99,0x36,0x70).
time:  00008250:note on:          (0x99,0x2e,0x7a).
time:  00008250:note on:          (0x99,0x33,0x7a).
time:  00008250:note on:          (0x99,0x39,0x70).
time:  00008250:note on:          (0x99,0x31,0x70).
time:  00008278:note off:         (0x89,0x26,0x47).
time:  00008278:note off:         (0x89,0x36,0x47).
time:  00008278:note off:         (0x89,0x2e,0x4d).
time:  00008278:note off:         (0x89,0x33,0x4d).
time:  00008278:note off:         (0x89,0x39,0x47).
time:  00008278:note off:         (0x89,0x31,0x47).
time:  0000828c:note on:          (0x99,0x26,0x70).
time:  000082b4:note off:         (0x89,0x26,0x47).
time:  000082c8:note on:          (0x99,0x24,0x70).
time:  000082c8:note on:          (0x99,0x23,0x70).
time:  000082c8:note on:          (0x99,0x36,0x70).
time:  000082c8:note on:          (0x99,0x2e,0x7a).
time:  000082c8:note on:          (0x99,0x33,0x7a).
time:  000082f0:note off:         (0x89,0x24,0x47).
time:  000082f0:note off:         (0x89,0x23,0x47).
time:  000082f0:note off:         (0x89,0x36,0x47).
time:  000082f0:note off:         (0x89,0x2e,0x4d).
time:  000082f0:note off:         (0x89,0x33,0x4d).
time:  00008340:note on:          (0x99,0x26,0x70).
time:  00008340:note on:          (0x99,0x36,0x70).
time:  00008340:note on:          (0x99,0x2e,0x7a).
time:  00008340:note on:          (0x99,0x33,0x7a).
time:  00008340:note on:          (0x99,0x39,0x70).
time:  00008340:note on:          (0x99,0x31,0x70).
time:  00008368:note off:         (0x89,0x26,0x47).
time:  00008368:note off:         (0x89,0x36,0x47).
time:  00008368:note off:         (0x89,0x2e,0x4d).
time:  00008368:note off:         (0x89,0x33,0x4d).
time:  00008368:note off:         (0x89,0x39,0x47).
time:  00008368:note off:         (0x89,0x31,0x47).
time:  0000837c:note on:          (0x99,0x26,0x70).
time:  000083a4:note off:         (0x89,0x26,0x47).
time:  000083b8:note on:          (0x99,0x23,0x70).
time:  000083b8:note on:          (0x99,0x24,0x70).
time:  000083b8:note on:          (0x99,0x36,0x70).
time:  000083b8:note on:          (0x99,0x2e,0x7a).
time:  000083b8:note on:          (0x99,0x33,0x7a).
time:  000083e0:note off:         (0x89,0x23,0x47).
time:  000083e0:note off:         (0x89,0x24,0x47).
time:  000083e0:note off:         (0x89,0x36,0x47).
time:  000083e0:note off:         (0x89,0x2e,0x4d).
time:  000083e0:note off:         (0x89,0x33,0x4d).
time:  00008430:note on:          (0x99,0x24,0x70).
time:  00008430:note on:          (0x99,0x26,0x70).
time:  00008430:note on:          (0x99,0x36,0x70).
time:  00008430:note on:          (0x99,0x2e,0x7a).
time:  00008430:note on:          (0x99,0x33,0x7a).
time:  00008430:note on:          (0x99,0x39,0x70).
time:  00008430:note on:          (0x99,0x31,0x70).
time:  00008458:note off:         (0x89,0x24,0x47).
time:  00008458:note off:         (0x89,0x26,0x47).
time:  00008458:note off:         (0x89,0x36,0x47).
time:  00008458:note off:         (0x89,0x2e,0x4d).
time:  00008458:note off:         (0x89,0x33,0x4d).
time:  00008458:note off:         (0x89,0x39,0x47).
time:  00008458:note off:         (0x89,0x31,0x47).
time:  000084a8:note on:          (0x99,0x36,0x70).
time:  000084a8:note on:          (0x99,0x2e,0x7a).
time:  000084a8:note on:          (0x99,0x33,0x7a).
time:  000084d0:note off:         (0x89,0x36,0x47).
time:  000084d0:note off:         (0x89,0x2e,0x4d).
time:  000084d0:note off:         (0x89,0x33,0x4d).
time:  00008520:note on:          (0x99,0x24,0x70).
time:  00008520:note on:          (0x99,0x26,0x70).
time:  00008520:note on:          (0x99,0x36,0x70).
time:  00008520:note on:          (0x99,0x2e,0x7a).
time:  00008520:note on:          (0x99,0x33,0x7a).
time:  00008520:note on:          (0x99,0x39,0x70).
time:  00008520:note on:          (0x99,0x31,0x70).
time:  00008548:note off:         (0x89,0x24,0x47).
time:  00008548:note off:         (0x89,0x26,0x47).
time:  00008548:note off:         (0x89,0x36,0x47).
time:  00008548:note off:         (0x89,0x2e,0x4d).
time:  00008548:note off:         (0x89,0x33,0x4d).
time:  00008548:note off:         (0x89,0x39,0x47).
time:  00008548:note off:         (0x89,0x31,0x47).
time:  00008598:note on:          (0x99,0x36,0x70).
time:  00008598:note on:          (0x99,0x2e,0x7a).
time:  00008598:note on:          (0x99,0x33,0x7a).
time:  000085c0:note off:         (0x89,0x36,0x47).
time:  000085c0:note off:         (0x89,0x2e,0x4d).
time:  000085c0:note off:         (0x89,0x33,0x4d).
time:  00008610:note on:          (0x99,0x26,0x70).
time:  00008610:note on:          (0x99,0x36,0x70).
time:  00008610:note on:          (0x99,0x2e,0x7a).
time:  00008610:note on:          (0x99,0x33,0x7a).
time:  00008610:note on:          (0x99,0x39,0x70).
time:  00008610:note on:          (0x99,0x31,0x70).
time:  00008638:note off:         (0x89,0x26,0x47).
time:  00008638:note off:         (0x89,0x36,0x47).
time:  00008638:note off:         (0x89,0x2e,0x4d).
time:  00008638:note off:         (0x89,0x33,0x4d).
time:  00008638:note off:         (0x89,0x39,0x47).
time:  00008638:note off:         (0x89,0x31,0x47).
time:  0000864c:note on:          (0x99,0x26,0x70).
time:  00008674:note off:         (0x89,0x26,0x47).
time:  00008688:note on:          (0x99,0x24,0x70).
time:  00008688:note on:          (0x99,0x23,0x70).
time:  00008688:note on:          (0x99,0x36,0x70).
time:  00008688:note on:          (0x99,0x2e,0x7a).
time:  00008688:note on:          (0x99,0x33,0x7a).
time:  000086b0:note off:         (0x89,0x24,0x47).
time:  000086b0:note off:         (0x89,0x23,0x47).
time:  000086b0:note off:         (0x89,0x36,0x47).
time:  000086b0:note off:         (0x89,0x2e,0x4d).
time:  000086b0:note off:         (0x89,0x33,0x4d).
time:  00008700:note on:          (0x99,0x26,0x70).
time:  00008700:note on:          (0x99,0x36,0x70).
time:  00008700:note on:          (0x99,0x2e,0x7a).
time:  00008700:note on:          (0x99,0x33,0x7a).
time:  00008700:note on:          (0x99,0x39,0x70).
time:  00008700:note on:          (0x99,0x31,0x70).
time:  00008728:note off:         (0x89,0x26,0x47).
time:  00008728:note off:         (0x89,0x36,0x47).
time:  00008728:note off:         (0x89,0x2e,0x4d).
time:  00008728:note off:         (0x89,0x33,0x4d).
time:  00008728:note off:         (0x89,0x39,0x47).
time:  00008728:note off:         (0x89,0x31,0x47).
time:  0000873c:note on:          (0x99,0x26,0x70).
time:  00008764:note off:         (0x89,0x26,0x47).
time:  00008778:note on:          (0x99,0x23,0x70).
time:  00008778:note on:          (0x99,0x24,0x70).
time:  00008778:note on:          (0x99,0x36,0x70).
time:  00008778:note on:          (0x99,0x2e,0x7a).
time:  00008778:note on:          (0x99,0x33,0x7a).
time:  000087a0:note off:         (0x89,0x23,0x47).
time:  000087a0:note off:         (0x89,0x24,0x47).
time:  000087a0:note off:         (0x89,0x36,0x47).
time:  000087a0:note off:         (0x89,0x2e,0x4d).
time:  000087a0:note off:         (0x89,0x33,0x4d).
time:  000087f0:note on:          (0x99,0x24,0x70).
time:  000087f0:note on:          (0x99,0x26,0x70).
time:  000087f0:note on:          (0x99,0x36,0x70).
time:  000087f0:note on:          (0x99,0x2e,0x7a).
time:  000087f0:note on:          (0x99,0x33,0x7a).
time:  000087f0:note on:          (0x99,0x39,0x70).
time:  000087f0:note on:          (0x99,0x31,0x70).
time:  00008818:note off:         (0x89,0x24,0x47).
time:  00008818:note off:         (0x89,0x26,0x47).
time:  00008818:note off:         (0x89,0x36,0x47).
time:  00008818:note off:         (0x89,0x2e,0x4d).
time:  00008818:note off:         (0x89,0x33,0x4d).
time:  00008818:note off:         (0x89,0x39,0x47).
time:  00008818:note off:         (0x89,0x31,0x47).
time:  00008868:note on:          (0x99,0x36,0x70).
time:  00008868:note on:          (0x99,0x2e,0x7a).
time:  00008868:note on:          (0x99,0x33,0x7a).
time:  00008890:note off:         (0x89,0x36,0x47).
time:  00008890:note off:         (0x89,0x2e,0x4d).
time:  00008890:note off:         (0x89,0x33,0x4d).
time:  000088e0:note on:          (0x99,0x24,0x70).
time:  000088e0:note on:          (0x99,0x26,0x70).
time:  000088e0:note on:          (0x99,0x36,0x70).
time:  000088e0:note on:          (0x99,0x2e,0x7a).
time:  000088e0:note on:          (0x99,0x33,0x7a).
time:  000088e0:note on:          (0x99,0x39,0x70).
time:  000088e0:note on:          (0x99,0x31,0x70).
time:  00008908:note off:         (0x89,0x24,0x47).
time:  00008908:note off:         (0x89,0x26,0x47).
time:  00008908:note off:         (0x89,0x36,0x47).
time:  00008908:note off:         (0x89,0x2e,0x4d).
time:  00008908:note off:         (0x89,0x33,0x4d).
time:  00008908:note off:         (0x89,0x39,0x47).
time:  00008908:note off:         (0x89,0x31,0x47).
time:  00008958:note on:          (0x99,0x36,0x70).
time:  00008958:note on:          (0x99,0x2e,0x7a).
time:  00008958:note on:          (0x99,0x33,0x7a).
time:  00008980:note off:         (0x89,0x36,0x47).
time:  00008980:note off:         (0x89,0x2e,0x4d).
time:  00008980:note off:         (0x89,0x33,0x4d).
time:  000089d0:note on:          (0x99,0x26,0x70).
time:  000089d0:note on:          (0x99,0x36,0x70).
time:  000089d0:note on:          (0x99,0x2e,0x7a).
time:  000089d0:note on:          (0x99,0x33,0x7a).
time:  000089d0:note on:          (0x99,0x39,0x70).
time:  000089d0:note on:          (0x99,0x31,0x70).
time:  000089f8:note off:         (0x89,0x26,0x47).
time:  000089f8:note off:         (0x89,0x36,0x47).
time:  000089f8:note off:         (0x89,0x2e,0x4d).
time:  000089f8:note off:         (0x89,0x33,0x4d).
time:  000089f8:note off:         (0x89,0x39,0x47).
time:  000089f8:note off:         (0x89,0x31,0x47).
time:  00008a0c:note on:          (0x99,0x26,0x70).
time:  00008a34:note off:         (0x89,0x26,0x47).
time:  00008a48:note on:          (0x99,0x24,0x70).
time:  00008a48:note on:          (0x99,0x23,0x70).
time:  00008a48:note on:          (0x99,0x36,0x70).
time:  00008a48:note on:          (0x99,0x2e,0x7a).
time:  00008a48:note on:          (0x99,0x33,0x7a).
time:  00008a70:note off:         (0x89,0x24,0x47).
time:  00008a70:note off:         (0x89,0x23,0x47).
time:  00008a70:note off:         (0x89,0x36,0x47).
time:  00008a70:note off:         (0x89,0x2e,0x4d).
time:  00008a70:note off:         (0x89,0x33,0x4d).
time:  00008ac0:note on:          (0x99,0x26,0x70).
time:  00008ac0:note on:          (0x99,0x36,0x70).
time:  00008ac0:note on:          (0x99,0x2e,0x7a).
time:  00008ac0:note on:          (0x99,0x33,0x7a).
time:  00008ac0:note on:          (0x99,0x39,0x70).
time:  00008ac0:note on:          (0x99,0x31,0x70).
time:  00008ae8:note off:         (0x89,0x26,0x47).
time:  00008ae8:note off:         (0x89,0x36,0x47).
time:  00008ae8:note off:         (0x89,0x2e,0x4d).
time:  00008ae8:note off:         (0x89,0x33,0x4d).
time:  00008ae8:note off:         (0x89,0x39,0x47).
time:  00008ae8:note off:         (0x89,0x31,0x47).
time:  00008afc:note on:          (0x99,0x26,0x70).
time:  00008b24:note off:         (0x89,0x26,0x47).
time:  00008b38:note on:          (0x99,0x23,0x70).
time:  00008b38:note on:          (0x99,0x24,0x70).
time:  00008b38:note on:          (0x99,0x36,0x70).
time:  00008b38:note on:          (0x99,0x2e,0x7a).
time:  00008b38:note on:          (0x99,0x33,0x7a).
time:  00008b60:note off:         (0x89,0x23,0x47).
time:  00008b60:note off:         (0x89,0x24,0x47).
time:  00008b60:note off:         (0x89,0x36,0x47).
time:  00008b60:note off:         (0x89,0x2e,0x4d).
time:  00008b60:note off:         (0x89,0x33,0x4d).
time:  00008bb0:note on:          (0x99,0x24,0x70).
time:  00008bb0:note on:          (0x99,0x26,0x70).
time:  00008bb0:note on:          (0x99,0x36,0x70).
time:  00008bb0:note on:          (0x99,0x2e,0x7a).
time:  00008bb0:note on:          (0x99,0x33,0x7a).
time:  00008bb0:note on:          (0x99,0x39,0x70).
time:  00008bb0:note on:          (0x99,0x31,0x70).
time:  00008bd8:note off:         (0x89,0x24,0x47).
time:  00008bd8:note off:         (0x89,0x26,0x47).
time:  00008bd8:note off:         (0x89,0x36,0x47).
time:  00008bd8:note off:         (0x89,0x2e,0x4d).
time:  00008bd8:note off:         (0x89,0x33,0x4d).
time:  00008bd8:note off:         (0x89,0x39,0x47).
time:  00008bd8:note off:         (0x89,0x31,0x47).
time:  00008c28:note on:          (0x99,0x36,0x70).
time:  00008c28:note on:          (0x99,0x2e,0x7a).
time:  00008c28:note on:          (0x99,0x33,0x7a).
time:  00008c50:note off:         (0x89,0x36,0x47).
time:  00008c50:note off:         (0x89,0x2e,0x4d).
time:  00008c50:note off:         (0x89,0x33,0x4d).
time:  00008ca0:note on:          (0x99,0x24,0x70).
time:  00008ca0:note on:          (0x99,0x26,0x70).
time:  00008ca0:note on:          (0x99,0x36,0x70).
time:  00008ca0:note on:          (0x99,0x2e,0x7a).
time:  00008ca0:note on:          (0x99,0x33,0x7a).
time:  00008ca0:note on:          (0x99,0x39,0x70).
time:  00008ca0:note on:          (0x99,0x31,0x70).
time:  00008cc8:note off:         (0x89,0x24,0x47).
time:  00008cc8:note off:         (0x89,0x26,0x47).
time:  00008cc8:note off:         (0x89,0x36,0x47).
time:  00008cc8:note off:         (0x89,0x2e,0x4d).
time:  00008cc8:note off:         (0x89,0x33,0x4d).
time:  00008cc8:note off:         (0x89,0x39,0x47).
time:  00008cc8:note off:         (0x89,0x31,0x47).
time:  00008d18:note on:          (0x99,0x36,0x70).
time:  00008d18:note on:          (0x99,0x2e,0x7a).
time:  00008d18:note on:          (0x99,0x33,0x7a).
time:  00008d40:note off:         (0x89,0x36,0x47).
time:  00008d40:note off:         (0x89,0x2e,0x4d).
time:  00008d40:note off:         (0x89,0x33,0x4d).
time:  00008d90:note on:          (0x99,0x26,0x70).
time:  00008d90:note on:          (0x99,0x36,0x70).
time:  00008d90:note on:          (0x99,0x2e,0x7a).
time:  00008d90:note on:          (0x99,0x33,0x7a).
time:  00008d90:note on:          (0x99,0x39,0x70).
time:  00008d90:note on:          (0x99,0x31,0x70).
time:  00008db8:note off:         (0x89,0x26,0x47).
time:  00008db8:note off:         (0x89,0x36,0x47).
time:  00008db8:note off:         (0x89,0x2e,0x4d).
time:  00008db8:note off:         (0x89,0x33,0x4d).
time:  00008db8:note off:         (0x89,0x39,0x47).
time:  00008db8:note off:         (0x89,0x31,0x47).
time:  00008dcc:note on:          (0x99,0x26,0x70).
time:  00008df4:note off:         (0x89,0x26,0x47).
time:  00008e08:note on:          (0x99,0x24,0x70).
time:  00008e08:note on:          (0x99,0x23,0x70).
time:  00008e08:note on:          (0x99,0x36,0x70).
time:  00008e08:note on:          (0x99,0x2e,0x7a).
time:  00008e08:note on:          (0x99,0x33,0x7a).
time:  00008e30:note off:         (0x89,0x24,0x47).
time:  00008e30:note off:         (0x89,0x23,0x47).
time:  00008e30:note off:         (0x89,0x36,0x47).
time:  00008e30:note off:         (0x89,0x2e,0x4d).
time:  00008e30:note off:         (0x89,0x33,0x4d).
time:  00008e80:note on:          (0x99,0x26,0x70).
time:  00008e80:note on:          (0x99,0x36,0x70).
time:  00008e80:note on:          (0x99,0x2e,0x7a).
time:  00008e80:note on:          (0x99,0x33,0x7a).
time:  00008e80:note on:          (0x99,0x39,0x70).
time:  00008e80:note on:          (0x99,0x31,0x70).
time:  00008ea8:note off:         (0x89,0x26,0x47).
time:  00008ea8:note off:         (0x89,0x36,0x47).
time:  00008ea8:note off:         (0x89,0x2e,0x4d).
time:  00008ea8:note off:         (0x89,0x33,0x4d).
time:  00008ea8:note off:         (0x89,0x39,0x47).
time:  00008ea8:note off:         (0x89,0x31,0x47).
time:  00008ebc:note on:          (0x99,0x26,0x70).
time:  00008ee4:note off:         (0x89,0x26,0x47).
time:  00008ef8:note on:          (0x99,0x23,0x70).
time:  00008ef8:note on:          (0x99,0x24,0x70).
time:  00008ef8:note on:          (0x99,0x36,0x70).
time:  00008ef8:note on:          (0x99,0x2e,0x7a).
time:  00008ef8:note on:          (0x99,0x33,0x7a).
time:  00008f20:note off:         (0x89,0x23,0x47).
time:  00008f20:note off:         (0x89,0x24,0x47).
time:  00008f20:note off:         (0x89,0x36,0x47).
time:  00008f20:note off:         (0x89,0x2e,0x4d).
time:  00008f20:note off:         (0x89,0x33,0x4d).
time:  00008f70:note on:          (0x99,0x24,0x70).
time:  00008f70:note on:          (0x99,0x26,0x70).
time:  00008f70:note on:          (0x99,0x36,0x70).
time:  00008f70:note on:          (0x99,0x2e,0x7a).
time:  00008f70:note on:          (0x99,0x33,0x7a).
time:  00008f70:note on:          (0x99,0x39,0x70).
time:  00008f70:note on:          (0x99,0x31,0x70).
time:  00008f98:note off:         (0x89,0x24,0x47).
time:  00008f98:note off:         (0x89,0x26,0x47).
time:  00008f98:note off:         (0x89,0x36,0x47).
time:  00008f98:note off:         (0x89,0x2e,0x4d).
time:  00008f98:note off:         (0x89,0x33,0x4d).
time:  00008f98:note off:         (0x89,0x39,0x47).
time:  00008f98:note off:         (0x89,0x31,0x47).
time:  00008fe8:note on:          (0x99,0x36,0x70).
time:  00008fe8:note on:          (0x99,0x2e,0x7a).
time:  00008fe8:note on:          (0x99,0x33,0x7a).
time:  00009010:note off:         (0x89,0x36,0x47).
time:  00009010:note off:         (0x89,0x2e,0x4d).
time:  00009010:note off:         (0x89,0x33,0x4d).
time:  00009060:note on:          (0x99,0x24,0x70).
time:  00009060:note on:          (0x99,0x26,0x70).
time:  00009060:note on:          (0x99,0x36,0x70).
time:  00009060:note on:          (0x99,0x2e,0x7a).
time:  00009060:note on:          (0x99,0x33,0x7a).
time:  00009060:note on:          (0x99,0x39,0x70).
time:  00009060:note on:          (0x99,0x31,0x70).
time:  00009088:note off:         (0x89,0x24,0x47).
time:  00009088:note off:         (0x89,0x26,0x47).
time:  00009088:note off:         (0x89,0x36,0x47).
time:  00009088:note off:         (0x89,0x2e,0x4d).
time:  00009088:note off:         (0x89,0x33,0x4d).
time:  00009088:note off:         (0x89,0x39,0x47).
time:  00009088:note off:         (0x89,0x31,0x47).
time:  000090d8:note on:          (0x99,0x36,0x70).
time:  000090d8:note on:          (0x99,0x2e,0x7a).
time:  000090d8:note on:          (0x99,0x33,0x7a).
time:  00009100:note off:         (0x89,0x36,0x47).
time:  00009100:note off:         (0x89,0x2e,0x4d).
time:  00009100:note off:         (0x89,0x33,0x4d).
time:  00009150:note on:          (0x99,0x26,0x70).
time:  00009150:note on:          (0x99,0x36,0x70).
time:  00009150:note on:          (0x99,0x2e,0x7a).
time:  00009150:note on:          (0x99,0x33,0x7a).
time:  00009150:note on:          (0x99,0x39,0x70).
time:  00009150:note on:          (0x99,0x31,0x70).
time:  00009178:note off:         (0x89,0x26,0x47).
time:  00009178:note off:         (0x89,0x36,0x47).
time:  00009178:note off:         (0x89,0x2e,0x4d).
time:  00009178:note off:         (0x89,0x33,0x4d).
time:  00009178:note off:         (0x89,0x39,0x47).
time:  00009178:note off:         (0x89,0x31,0x47).
time:  0000918c:note on:          (0x99,0x26,0x70).
time:  000091b4:note off:         (0x89,0x26,0x47).
time:  000091c8:note on:          (0x99,0x24,0x70).
time:  000091c8:note on:          (0x99,0x23,0x70).
time:  000091c8:note on:          (0x99,0x36,0x70).
time:  000091c8:note on:          (0x99,0x2e,0x7a).
time:  000091c8:note on:          (0x99,0x33,0x7a).
time:  000091f0:note off:         (0x89,0x24,0x47).
time:  000091f0:note off:         (0x89,0x23,0x47).
time:  000091f0:note off:         (0x89,0x36,0x47).
time:  000091f0:note off:         (0x89,0x2e,0x4d).
time:  000091f0:note off:         (0x89,0x33,0x4d).
time:  00009240:note on:          (0x99,0x26,0x70).
time:  00009240:note on:          (0x99,0x36,0x70).
time:  00009240:note on:          (0x99,0x2e,0x7a).
time:  00009240:note on:          (0x99,0x33,0x7a).
time:  00009240:note on:          (0x99,0x39,0x70).
time:  00009240:note on:          (0x99,0x31,0x70).
time:  00009268:note off:         (0x89,0x26,0x47).
time:  00009268:note off:         (0x89,0x36,0x47).
time:  00009268:note off:         (0x89,0x2e,0x4d).
time:  00009268:note off:         (0x89,0x33,0x4d).
time:  00009268:note off:         (0x89,0x39,0x47).
time:  00009268:note off:         (0x89,0x31,0x47).
time:  0000927c:note on:          (0x99,0x26,0x70).
time:  000092a4:note off:         (0x89,0x26,0x47).
time:  000092b8:note on:          (0x99,0x23,0x70).
time:  000092b8:note on:          (0x99,0x24,0x70).
time:  000092b8:note on:          (0x99,0x36,0x70).
time:  000092b8:note on:          (0x99,0x2e,0x7a).
time:  000092b8:note on:          (0x99,0x33,0x7a).
time:  000092e0:note off:         (0x89,0x23,0x47).
time:  000092e0:note off:         (0x89,0x24,0x47).
time:  000092e0:note off:         (0x89,0x36,0x47).
time:  000092e0:note off:         (0x89,0x2e,0x4d).
time:  000092e0:note off:         (0x89,0x33,0x4d).
time:  00009330:note on:          (0x99,0x24,0x70).
time:  00009330:note on:          (0x99,0x26,0x70).
time:  00009330:note on:          (0x99,0x36,0x70).
time:  00009330:note on:          (0x99,0x2e,0x7a).
time:  00009330:note on:          (0x99,0x33,0x7a).
time:  00009330:note on:          (0x99,0x39,0x70).
time:  00009330:note on:          (0x99,0x31,0x70).
time:  00009358:note off:         (0x89,0x24,0x47).
time:  00009358:note off:         (0x89,0x26,0x47).
time:  00009358:note off:         (0x89,0x36,0x47).
time:  00009358:note off:         (0x89,0x2e,0x4d).
time:  00009358:note off:         (0x89,0x33,0x4d).
time:  00009358:note off:         (0x89,0x39,0x47).
time:  00009358:note off:         (0x89,0x31,0x47).
time:  000093a8:note on:          (0x99,0x36,0x70).
time:  000093a8:note on:          (0x99,0x2e,0x7a).
time:  000093a8:note on:          (0x99,0x33,0x7a).
time:  000093d0:note off:         (0x89,0x36,0x47).
time:  000093d0:note off:         (0x89,0x2e,0x4d).
time:  000093d0:note off:         (0x89,0x33,0x4d).
time:  00009420:note on:          (0x99,0x24,0x70).
time:  00009420:note on:          (0x99,0x26,0x70).
time:  00009420:note on:          (0x99,0x36,0x70).
time:  00009420:note on:          (0x99,0x2e,0x7a).
time:  00009420:note on:          (0x99,0x33,0x7a).
time:  00009420:note on:          (0x99,0x39,0x70).
time:  00009420:note on:          (0x99,0x31,0x70).
time:  00009448:note off:         (0x89,0x24,0x47).
time:  00009448:note off:         (0x89,0x26,0x47).
time:  00009448:note off:         (0x89,0x36,0x47).
time:  00009448:note off:         (0x89,0x2e,0x4d).
time:  00009448:note off:         (0x89,0x33,0x4d).
time:  00009448:note off:         (0x89,0x39,0x47).
time:  00009448:note off:         (0x89,0x31,0x47).
time:  00009498:note on:          (0x99,0x36,0x70).
time:  00009498:note on:          (0x99,0x2e,0x7a).
time:  00009498:note on:          (0x99,0x33,0x7a).
time:  000094c0:note off:         (0x89,0x36,0x47).
time:  000094c0:note off:         (0x89,0x2e,0x4d).
time:  000094c0:note off:         (0x89,0x33,0x4d).
time:  00009510:note on:          (0x99,0x26,0x70).
time:  00009510:note on:          (0x99,0x36,0x70).
time:  00009510:note on:          (0x99,0x2e,0x7a).
time:  00009510:note on:          (0x99,0x33,0x7a).
time:  00009510:note on:          (0x99,0x39,0x70).
time:  00009510:note on:          (0x99,0x31,0x70).
time:  00009538:note off:         (0x89,0x26,0x47).
time:  00009538:note off:         (0x89,0x36,0x47).
time:  00009538:note off:         (0x89,0x2e,0x4d).
time:  00009538:note off:         (0x89,0x33,0x4d).
time:  00009538:note off:         (0x89,0x39,0x47).
time:  00009538:note off:         (0x89,0x31,0x47).
time:  0000954c:note on:          (0x99,0x26,0x70).
time:  00009574:note off:         (0x89,0x26,0x47).
time:  00009588:note on:          (0x99,0x24,0x70).
time:  00009588:note on:          (0x99,0x23,0x70).
time:  00009588:note on:          (0x99,0x36,0x70).
time:  00009588:note on:          (0x99,0x2e,0x7a).
time:  00009588:note on:          (0x99,0x33,0x7a).
time:  000095b0:note off:         (0x89,0x24,0x47).
time:  000095b0:note off:         (0x89,0x23,0x47).
time:  000095b0:note off:         (0x89,0x36,0x47).
time:  000095b0:note off:         (0x89,0x2e,0x4d).
time:  000095b0:note off:         (0x89,0x33,0x4d).
time:  00009600:note on:          (0x99,0x26,0x70).
time:  00009600:note on:          (0x99,0x36,0x70).
time:  00009600:note on:          (0x99,0x2e,0x7a).
time:  00009600:note on:          (0x99,0x33,0x7a).
time:  00009600:note on:          (0x99,0x39,0x70).
time:  00009600:note on:          (0x99,0x31,0x70).
time:  00009628:note off:         (0x89,0x26,0x47).
time:  00009628:note off:         (0x89,0x36,0x47).
time:  00009628:note off:         (0x89,0x2e,0x4d).
time:  00009628:note off:         (0x89,0x33,0x4d).
time:  00009628:note off:         (0x89,0x39,0x47).
time:  00009628:note off:         (0x89,0x31,0x47).
time:  0000963c:note on:          (0x99,0x26,0x70).
time:  00009664:note off:         (0x89,0x26,0x47).
time:  00009678:note on:          (0x99,0x23,0x70).
time:  00009678:note on:          (0x99,0x24,0x70).
time:  00009678:note on:          (0x99,0x36,0x70).
time:  00009678:note on:          (0x99,0x2e,0x7a).
time:  00009678:note on:          (0x99,0x33,0x7a).
time:  000096a0:note off:         (0x89,0x23,0x47).
time:  000096a0:note off:         (0x89,0x24,0x47).
time:  000096a0:note off:         (0x89,0x36,0x47).
time:  000096a0:note off:         (0x89,0x2e,0x4d).
time:  000096a0:note off:         (0x89,0x33,0x4d).
time:  000096f0:note on:          (0x99,0x36,0x70).
time:  000096f0:note on:          (0x99,0x2e,0x7a).
time:  000096f0:note on:          (0x99,0x33,0x7a).
time:  000096f0:note on:          (0x99,0x39,0x70).
time:  000096f0:note on:          (0x99,0x31,0x70).
time:  000096f0:note on:          (0x99,0x26,0x70).
time:  000096f0:note on:          (0x99,0x24,0x70).
time:  00009718:note off:         (0x89,0x36,0x47).
time:  00009718:note off:         (0x89,0x2e,0x4d).
time:  00009718:note off:         (0x89,0x33,0x4d).
time:  00009718:note off:         (0x89,0x39,0x47).
time:  00009718:note off:         (0x89,0x31,0x47).
time:  00009718:note off:         (0x89,0x26,0x47).
time:  00009718:note off:         (0x89,0x24,0x47).
time:  00009768:note on:          (0x99,0x36,0x70).
time:  00009768:note on:          (0x99,0x2e,0x7a).
time:  00009768:note on:          (0x99,0x33,0x7a).
time:  00009790:note off:         (0x89,0x36,0x47).
time:  00009790:note off:         (0x89,0x2e,0x4d).
time:  00009790:note off:         (0x89,0x33,0x4d).
time:  000097e0:note on:          (0x99,0x36,0x70).
time:  000097e0:note on:          (0x99,0x2e,0x7a).
time:  000097e0:note on:          (0x99,0x33,0x7a).
time:  000097e0:note on:          (0x99,0x39,0x70).
time:  000097e0:note on:          (0x99,0x31,0x70).
time:  000097e0:note on:          (0x99,0x26,0x70).
time:  000097e0:note on:          (0x99,0x24,0x70).
time:  00009808:note off:         (0x89,0x36,0x47).
time:  00009808:note off:         (0x89,0x2e,0x4d).
time:  00009808:note off:         (0x89,0x33,0x4d).
time:  00009808:note off:         (0x89,0x39,0x47).
time:  00009808:note off:         (0x89,0x31,0x47).
time:  00009808:note off:         (0x89,0x26,0x47).
time:  00009808:note off:         (0x89,0x24,0x47).
time:  00009858:note on:          (0x99,0x36,0x70).
time:  00009858:note on:          (0x99,0x2e,0x7a).
time:  00009858:note on:          (0x99,0x33,0x7a).
time:  00009858:note on:          (0x99,0x24,0x70).
time:  00009880:note off:         (0x89,0x36,0x47).
time:  00009880:note off:         (0x89,0x2e,0x4d).
time:  00009880:note off:         (0x89,0x33,0x4d).
time:  00009880:note off:         (0x89,0x24,0x47).
time:  000098d0:note on:          (0x99,0x36,0x70).
time:  000098d0:note on:          (0x99,0x2e,0x7a).
time:  000098d0:note on:          (0x99,0x33,0x7a).
time:  000098d0:note on:          (0x99,0x39,0x70).
time:  000098d0:note on:          (0x99,0x31,0x70).
time:  000098d0:note on:          (0x99,0x2d,0x70).
time:  000098d0:note on:          (0x99,0x26,0x70).
time:  000098d0:note on:          (0x99,0x24,0x70).
time:  000098f8:note off:         (0x89,0x36,0x47).
time:  000098f8:note off:         (0x89,0x2e,0x4d).
time:  000098f8:note off:         (0x89,0x33,0x4d).
time:  000098f8:note off:         (0x89,0x39,0x47).
time:  000098f8:note off:         (0x89,0x31,0x47).
time:  000098f8:note off:         (0x89,0x2d,0x47).
time:  000098f8:note off:         (0x89,0x26,0x47).
time:  000098f8:note off:         (0x89,0x24,0x47).
time:  00009948:note on:          (0x99,0x36,0x70).
time:  00009948:note on:          (0x99,0x2e,0x7a).
time:  00009948:note on:          (0x99,0x33,0x7a).
time:  00009948:note on:          (0x99,0x29,0x70).
time:  00009948:note on:          (0x99,0x26,0x70).
time:  00009948:note on:          (0x99,0x24,0x70).
time:  00009970:note off:         (0x89,0x36,0x47).
time:  00009970:note off:         (0x89,0x2e,0x4d).
time:  00009970:note off:         (0x89,0x33,0x4d).
time:  00009970:note off:         (0x89,0x29,0x47).
time:  00009970:note off:         (0x89,0x26,0x47).
time:  00009970:note off:         (0x89,0x24,0x47).
time:  00009ab0:note on:          (0x99,0x36,0x70).
time:  00009ab0:note on:          (0x99,0x2e,0x7a).
time:  00009ab0:note on:          (0x99,0x33,0x7a).
time:  00009ab0:note on:          (0x99,0x39,0x70).
time:  00009ab0:note on:          (0x99,0x31,0x70).
time:  00009ab0:note on:          (0x99,0x26,0x70).
time:  00009ab0:note on:          (0x99,0x24,0x70).
time:  00009ad8:note off:         (0x89,0x36,0x47).
time:  00009ad8:note off:         (0x89,0x2e,0x4d).
time:  00009ad8:note off:         (0x89,0x33,0x4d).
time:  00009ad8:note off:         (0x89,0x39,0x47).
time:  00009ad8:note off:         (0x89,0x31,0x47).
time:  00009ad8:note off:         (0x89,0x26,0x47).
time:  00009ad8:note off:         (0x89,0x24,0x47).
time:  00009b28:note on:          (0x99,0x36,0x70).
time:  00009b28:note on:          (0x99,0x2e,0x7a).
time:  00009b28:note on:          (0x99,0x33,0x7a).
time:  00009b50:note off:         (0x89,0x36,0x47).
time:  00009b50:note off:         (0x89,0x2e,0x4d).
time:  00009b50:note off:         (0x89,0x33,0x4d).
time:  00009ba0:note on:          (0x99,0x36,0x70).
time:  00009ba0:note on:          (0x99,0x2e,0x7a).
time:  00009ba0:note on:          (0x99,0x33,0x7a).
time:  00009ba0:note on:          (0x99,0x39,0x70).
time:  00009ba0:note on:          (0x99,0x31,0x70).
time:  00009ba0:note on:          (0x99,0x26,0x70).
time:  00009ba0:note on:          (0x99,0x24,0x70).
time:  00009bc8:note off:         (0x89,0x36,0x47).
time:  00009bc8:note off:         (0x89,0x2e,0x4d).
time:  00009bc8:note off:         (0x89,0x33,0x4d).
time:  00009bc8:note off:         (0x89,0x39,0x47).
time:  00009bc8:note off:         (0x89,0x31,0x47).
time:  00009bc8:note off:         (0x89,0x26,0x47).
time:  00009bc8:note off:         (0x89,0x24,0x47).
time:  00009c18:note on:          (0x99,0x36,0x70).
time:  00009c18:note on:          (0x99,0x2e,0x7a).
time:  00009c18:note on:          (0x99,0x33,0x7a).
time:  00009c18:note on:          (0x99,0x24,0x70).
time:  00009c40:note off:         (0x89,0x36,0x47).
time:  00009c40:note off:         (0x89,0x2e,0x4d).
time:  00009c40:note off:         (0x89,0x33,0x4d).
time:  00009c40:note off:         (0x89,0x24,0x47).
time:  00009c90:note on:          (0x99,0x36,0x70).
time:  00009c90:note on:          (0x99,0x2e,0x7a).
time:  00009c90:note on:          (0x99,0x33,0x7a).
time:  00009c90:note on:          (0x99,0x39,0x70).
time:  00009c90:note on:          (0x99,0x31,0x70).
time:  00009c90:note on:          (0x99,0x2d,0x70).
time:  00009c90:note on:          (0x99,0x26,0x70).
time:  00009c90:note on:          (0x99,0x24,0x70).
time:  00009cb8:note off:         (0x89,0x36,0x47).
time:  00009cb8:note off:         (0x89,0x2e,0x4d).
time:  00009cb8:note off:         (0x89,0x33,0x4d).
time:  00009cb8:note off:         (0x89,0x39,0x47).
time:  00009cb8:note off:         (0x89,0x31,0x47).
time:  00009cb8:note off:         (0x89,0x2d,0x47).
time:  00009cb8:note off:         (0x89,0x26,0x47).
time:  00009cb8:note off:         (0x89,0x24,0x47).
time:  00009d08:note on:          (0x99,0x36,0x70).
time:  00009d08:note on:          (0x99,0x2e,0x7a).
time:  00009d08:note on:          (0x99,0x33,0x7a).
time:  00009d08:note on:          (0x99,0x29,0x70).
time:  00009d08:note on:          (0x99,0x26,0x70).
time:  00009d08:note on:          (0x99,0x24,0x70).
time:  00009d30:note off:         (0x89,0x36,0x47).
time:  00009d30:note off:         (0x89,0x2e,0x4d).
time:  00009d30:note off:         (0x89,0x33,0x4d).
time:  00009d30:note off:         (0x89,0x29,0x47).
time:  00009d30:note off:         (0x89,0x26,0x47).
time:  00009d30:note off:         (0x89,0x24,0x47).
time:  00009d44:note on:          (0x99,0x30,0x70).
time:  00009d6c:note off:         (0x89,0x30,0x47).
time:  00009d80:note on:          (0x99,0x26,0x70).
time:  00009d80:note on:          (0x99,0x24,0x70).
time:  00009d80:note on:          (0x99,0x39,0x70).
time:  00009d80:note on:          (0x99,0x2f,0x70).
time:  00009da8:note off:         (0x89,0x26,0x47).
time:  00009da8:note off:         (0x89,0x24,0x47).
time:  00009da8:note off:         (0x89,0x39,0x47).
time:  00009da8:note off:         (0x89,0x2f,0x47).
time:  00009dbc:note on:          (0x99,0x26,0x70).
time:  00009dbc:note on:          (0x99,0x24,0x70).
time:  00009dbc:note on:          (0x99,0x39,0x70).
time:  00009dbc:note on:          (0x99,0x2d,0x70).
time:  00009de4:note off:         (0x89,0x26,0x47).
time:  00009de4:note off:         (0x89,0x24,0x47).
time:  00009de4:note off:         (0x89,0x39,0x47).
time:  00009de4:note off:         (0x89,0x2d,0x47).
time:  00009df8:note on:          (0x99,0x26,0x70).
time:  00009df8:note on:          (0x99,0x24,0x70).
time:  00009df8:note on:          (0x99,0x39,0x70).
time:  00009df8:note on:          (0x99,0x2b,0x70).
time:  00009e20:note off:         (0x89,0x26,0x47).
time:  00009e20:note off:         (0x89,0x24,0x47).
time:  00009e20:note off:         (0x89,0x39,0x47).
time:  00009e20:note off:         (0x89,0x2b,0x47).
time:  00009e70:note on:          (0x99,0x36,0x70).
time:  00009e70:note on:          (0x99,0x2e,0x7a).
time:  00009e70:note on:          (0x99,0x33,0x7a).
time:  00009e70:note on:          (0x99,0x39,0x70).
time:  00009e70:note on:          (0x99,0x31,0x70).
time:  00009e70:note on:          (0x99,0x26,0x70).
time:  00009e70:note on:          (0x99,0x24,0x70).
time:  00009e98:note off:         (0x89,0x36,0x47).
time:  00009e98:note off:         (0x89,0x2e,0x4d).
time:  00009e98:note off:         (0x89,0x33,0x4d).
time:  00009e98:note off:         (0x89,0x39,0x47).
time:  00009e98:note off:         (0x89,0x31,0x47).
time:  00009e98:note off:         (0x89,0x26,0x47).
time:  00009e98:note off:         (0x89,0x24,0x47).
time:  00009ee8:note on:          (0x99,0x36,0x70).
time:  00009ee8:note on:          (0x99,0x2e,0x7a).
time:  00009ee8:note on:          (0x99,0x33,0x7a).
time:  00009f10:note off:         (0x89,0x36,0x47).
time:  00009f10:note off:         (0x89,0x2e,0x4d).
time:  00009f10:note off:         (0x89,0x33,0x4d).
time:  00009f60:note on:          (0x99,0x36,0x70).
time:  00009f60:note on:          (0x99,0x2e,0x7a).
time:  00009f60:note on:          (0x99,0x33,0x7a).
time:  00009f60:note on:          (0x99,0x39,0x70).
time:  00009f60:note on:          (0x99,0x31,0x70).
time:  00009f60:note on:          (0x99,0x26,0x70).
time:  00009f60:note on:          (0x99,0x24,0x70).
time:  00009f88:note off:         (0x89,0x36,0x47).
time:  00009f88:note off:         (0x89,0x2e,0x4d).
time:  00009f88:note off:         (0x89,0x33,0x4d).
time:  00009f88:note off:         (0x89,0x39,0x47).
time:  00009f88:note off:         (0x89,0x31,0x47).
time:  00009f88:note off:         (0x89,0x26,0x47).
time:  00009f88:note off:         (0x89,0x24,0x47).
time:  00009fd8:note on:          (0x99,0x36,0x70).
time:  00009fd8:note on:          (0x99,0x2e,0x7a).
time:  00009fd8:note on:          (0x99,0x33,0x7a).
time:  00009fd8:note on:          (0x99,0x24,0x70).
time:  0000a000:note off:         (0x89,0x36,0x47).
time:  0000a000:note off:         (0x89,0x2e,0x4d).
time:  0000a000:note off:         (0x89,0x33,0x4d).
time:  0000a000:note off:         (0x89,0x24,0x47).
time:  0000a050:note on:          (0x99,0x36,0x70).
time:  0000a050:note on:          (0x99,0x2e,0x7a).
time:  0000a050:note on:          (0x99,0x33,0x7a).
time:  0000a050:note on:          (0x99,0x39,0x70).
time:  0000a050:note on:          (0x99,0x31,0x70).
time:  0000a050:note on:          (0x99,0x2d,0x70).
time:  0000a050:note on:          (0x99,0x26,0x70).
time:  0000a050:note on:          (0x99,0x24,0x70).
time:  0000a078:note off:         (0x89,0x36,0x47).
time:  0000a078:note off:         (0x89,0x2e,0x4d).
time:  0000a078:note off:         (0x89,0x33,0x4d).
time:  0000a078:note off:         (0x89,0x39,0x47).
time:  0000a078:note off:         (0x89,0x31,0x47).
time:  0000a078:note off:         (0x89,0x2d,0x47).
time:  0000a078:note off:         (0x89,0x26,0x47).
time:  0000a078:note off:         (0x89,0x24,0x47).
time:  0000a0c8:note on:          (0x99,0x36,0x70).
time:  0000a0c8:note on:          (0x99,0x2e,0x7a).
time:  0000a0c8:note on:          (0x99,0x33,0x7a).
time:  0000a0c8:note on:          (0x99,0x29,0x70).
time:  0000a0c8:note on:          (0x99,0x26,0x70).
time:  0000a0c8:note on:          (0x99,0x24,0x70).
time:  0000a0f0:note off:         (0x89,0x36,0x47).
time:  0000a0f0:note off:         (0x89,0x2e,0x4d).
time:  0000a0f0:note off:         (0x89,0x33,0x4d).
time:  0000a0f0:note off:         (0x89,0x29,0x47).
time:  0000a0f0:note off:         (0x89,0x26,0x47).
time:  0000a0f0:note off:         (0x89,0x24,0x47).
time:  0000a230:note on:          (0x99,0x36,0x70).
time:  0000a230:note on:          (0x99,0x2e,0x7a).
time:  0000a230:note on:          (0x99,0x33,0x7a).
time:  0000a230:note on:          (0x99,0x39,0x70).
time:  0000a230:note on:          (0x99,0x31,0x70).
time:  0000a230:note on:          (0x99,0x26,0x70).
time:  0000a230:note on:          (0x99,0x24,0x70).
time:  0000a258:note off:         (0x89,0x36,0x47).
time:  0000a258:note off:         (0x89,0x2e,0x4d).
time:  0000a258:note off:         (0x89,0x33,0x4d).
time:  0000a258:note off:         (0x89,0x39,0x47).
time:  0000a258:note off:         (0x89,0x31,0x47).
time:  0000a258:note off:         (0x89,0x26,0x47).
time:  0000a258:note off:         (0x89,0x24,0x47).
time:  0000a2a8:note on:          (0x99,0x36,0x70).
time:  0000a2a8:note on:          (0x99,0x2e,0x7a).
time:  0000a2a8:note on:          (0x99,0x33,0x7a).
time:  0000a2d0:note off:         (0x89,0x36,0x47).
time:  0000a2d0:note off:         (0x89,0x2e,0x4d).
time:  0000a2d0:note off:         (0x89,0x33,0x4d).
time:  0000a320:note on:          (0x99,0x36,0x70).
time:  0000a320:note on:          (0x99,0x2e,0x7a).
time:  0000a320:note on:          (0x99,0x33,0x7a).
time:  0000a320:note on:          (0x99,0x39,0x70).
time:  0000a320:note on:          (0x99,0x31,0x70).
time:  0000a320:note on:          (0x99,0x26,0x70).
time:  0000a320:note on:          (0x99,0x24,0x70).
time:  0000a348:note off:         (0x89,0x36,0x47).
time:  0000a348:note off:         (0x89,0x2e,0x4d).
time:  0000a348:note off:         (0x89,0x33,0x4d).
time:  0000a348:note off:         (0x89,0x39,0x47).
time:  0000a348:note off:         (0x89,0x31,0x47).
time:  0000a348:note off:         (0x89,0x26,0x47).
time:  0000a348:note off:         (0x89,0x24,0x47).
time:  0000a398:note on:          (0x99,0x36,0x70).
time:  0000a398:note on:          (0x99,0x2e,0x7a).
time:  0000a398:note on:          (0x99,0x33,0x7a).
time:  0000a398:note on:          (0x99,0x24,0x70).
time:  0000a3c0:note off:         (0x89,0x36,0x47).
time:  0000a3c0:note off:         (0x89,0x2e,0x4d).
time:  0000a3c0:note off:         (0x89,0x33,0x4d).
time:  0000a3c0:note off:         (0x89,0x24,0x47).
time:  0000a410:note on:          (0x99,0x36,0x70).
time:  0000a410:note on:          (0x99,0x2e,0x7a).
time:  0000a410:note on:          (0x99,0x33,0x7a).
time:  0000a410:note on:          (0x99,0x39,0x70).
time:  0000a410:note on:          (0x99,0x31,0x70).
time:  0000a410:note on:          (0x99,0x2d,0x70).
time:  0000a410:note on:          (0x99,0x26,0x70).
time:  0000a410:note on:          (0x99,0x24,0x70).
time:  0000a438:note off:         (0x89,0x36,0x47).
time:  0000a438:note off:         (0x89,0x2e,0x4d).
time:  0000a438:note off:         (0x89,0x33,0x4d).
time:  0000a438:note off:         (0x89,0x39,0x47).
time:  0000a438:note off:         (0x89,0x31,0x47).
time:  0000a438:note off:         (0x89,0x2d,0x47).
time:  0000a438:note off:         (0x89,0x26,0x47).
time:  0000a438:note off:         (0x89,0x24,0x47).
time:  0000a488:note on:          (0x99,0x36,0x70).
time:  0000a488:note on:          (0x99,0x2e,0x7a).
time:  0000a488:note on:          (0x99,0x33,0x7a).
time:  0000a488:note on:          (0x99,0x29,0x70).
time:  0000a488:note on:          (0x99,0x26,0x70).
time:  0000a488:note on:          (0x99,0x24,0x70).
time:  0000a4b0:note off:         (0x89,0x36,0x47).
time:  0000a4b0:note off:         (0x89,0x2e,0x4d).
time:  0000a4b0:note off:         (0x89,0x33,0x4d).
time:  0000a4b0:note off:         (0x89,0x29,0x47).
time:  0000a4b0:note off:         (0x89,0x26,0x47).
time:  0000a4b0:note off:         (0x89,0x24,0x47).
time:  0000a4c4:note on:          (0x99,0x30,0x70).
time:  0000a4ec:note off:         (0x89,0x30,0x47).
time:  0000a500:note on:          (0x99,0x26,0x70).
time:  0000a500:note on:          (0x99,0x24,0x70).
time:  0000a500:note on:          (0x99,0x39,0x70).
time:  0000a500:note on:          (0x99,0x2f,0x70).
time:  0000a528:note off:         (0x89,0x26,0x47).
time:  0000a528:note off:         (0x89,0x24,0x47).
time:  0000a528:note off:         (0x89,0x39,0x47).
time:  0000a528:note off:         (0x89,0x2f,0x47).
time:  0000a53c:note on:          (0x99,0x26,0x70).
time:  0000a53c:note on:          (0x99,0x24,0x70).
time:  0000a53c:note on:          (0x99,0x39,0x70).
time:  0000a53c:note on:          (0x99,0x2d,0x70).
time:  0000a564:note off:         (0x89,0x26,0x47).
time:  0000a564:note off:         (0x89,0x24,0x47).
time:  0000a564:note off:         (0x89,0x39,0x47).
time:  0000a564:note off:         (0x89,0x2d,0x47).
time:  0000a578:note on:          (0x99,0x26,0x70).
time:  0000a578:note on:          (0x99,0x24,0x70).
time:  0000a578:note on:          (0x99,0x39,0x70).
time:  0000a578:note on:          (0x99,0x2b,0x70).
time:  0000a5a0:note off:         (0x89,0x26,0x47).
time:  0000a5a0:note off:         (0x89,0x24,0x47).
time:  0000a5a0:note off:         (0x89,0x39,0x47).
time:  0000a5a0:note off:         (0x89,0x2b,0x47).
time:  0000a5f0:note on:          (0x99,0x24,0x70).
time:  0000a5f0:note on:          (0x99,0x33,0x70).
time:  0000a618:note off:         (0x89,0x24,0x47).
time:  0000a618:note off:         (0x89,0x33,0x47).
time:  0000a668:note on:          (0x99,0x24,0x70).
time:  0000a690:note off:         (0x89,0x24,0x47).
time:  0000a6e0:note on:          (0x99,0x26,0x70).
time:  0000a6e0:note on:          (0x99,0x33,0x70).
time:  0000a708:note off:         (0x89,0x26,0x47).
time:  0000a708:note off:         (0x89,0x33,0x47).
time:  0000a7d0:note on:          (0x99,0x24,0x70).
time:  0000a7d0:note on:          (0x99,0x33,0x70).
time:  0000a7f8:note off:         (0x89,0x24,0x47).
time:  0000a7f8:note off:         (0x89,0x33,0x47).
time:  0000a848:note on:          (0x99,0x24,0x70).
time:  0000a870:note off:         (0x89,0x24,0x47).
time:  0000a8c0:note on:          (0x99,0x26,0x70).
time:  0000a8c0:note on:          (0x99,0x33,0x70).
time:  0000a8e8:note off:         (0x89,0x26,0x47).
time:  0000a8e8:note off:         (0x89,0x33,0x47).
time:  0000a9b0:note on:          (0x99,0x24,0x70).
time:  0000a9b0:note on:          (0x99,0x33,0x70).
time:  0000a9d8:note off:         (0x89,0x24,0x47).
time:  0000a9d8:note off:         (0x89,0x33,0x47).
time:  0000aa28:note on:          (0x99,0x24,0x70).
time:  0000aa50:note off:         (0x89,0x24,0x47).
time:  0000aaa0:note on:          (0x99,0x26,0x70).
time:  0000aaa0:note on:          (0x99,0x33,0x70).
time:  0000aac8:note off:         (0x89,0x26,0x47).
time:  0000aac8:note off:         (0x89,0x33,0x47).
time:  0000ab90:note on:          (0x99,0x24,0x70).
time:  0000ab90:note on:          (0x99,0x33,0x70).
time:  0000abb8:note off:         (0x89,0x24,0x47).
time:  0000abb8:note off:         (0x89,0x33,0x47).
time:  0000ac08:note on:          (0x99,0x24,0x70).
time:  0000ac30:note off:         (0x89,0x24,0x47).
time:  0000ac80:note on:          (0x99,0x26,0x70).
time:  0000ac80:note on:          (0x99,0x33,0x70).
time:  0000aca8:note off:         (0x89,0x26,0x47).
time:  0000aca8:note off:         (0x89,0x33,0x47).
time:  0000ad70:note on:          (0x99,0x24,0x70).
time:  0000ad70:note on:          (0x99,0x33,0x70).
time:  0000ad98:note off:         (0x89,0x24,0x47).
time:  0000ad98:note off:         (0x89,0x33,0x47).
time:  0000ade8:note on:          (0x99,0x24,0x70).
time:  0000ae10:note off:         (0x89,0x24,0x47).
time:  0000ae60:note on:          (0x99,0x26,0x70).
time:  0000ae60:note on:          (0x99,0x33,0x70).
time:  0000ae88:note off:         (0x89,0x26,0x47).
time:  0000ae88:note off:         (0x89,0x33,0x47).
time:  0000af50:note on:          (0x99,0x24,0x70).
time:  0000af50:note on:          (0x99,0x33,0x70).
time:  0000af78:note off:         (0x89,0x24,0x47).
time:  0000af78:note off:         (0x89,0x33,0x47).
time:  0000afc8:note on:          (0x99,0x24,0x70).
time:  0000aff0:note off:         (0x89,0x24,0x47).
time:  0000b040:note on:          (0x99,0x26,0x70).
time:  0000b040:note on:          (0x99,0x33,0x70).
time:  0000b068:note off:         (0x89,0x26,0x47).
time:  0000b068:note off:         (0x89,0x33,0x47).
time:  0000b130:note on:          (0x99,0x24,0x70).
time:  0000b130:note on:          (0x99,0x33,0x70).
time:  0000b158:note off:         (0x89,0x24,0x47).
time:  0000b158:note off:         (0x89,0x33,0x47).
time:  0000b1a8:note on:          (0x99,0x24,0x70).
time:  0000b1d0:note off:         (0x89,0x24,0x47).
time:  0000b220:note on:          (0x99,0x26,0x70).
time:  0000b220:note on:          (0x99,0x33,0x70).
time:  0000b248:note off:         (0x89,0x26,0x47).
time:  0000b248:note off:         (0x89,0x33,0x47).
time:  0000b310:note on:          (0x99,0x24,0x70).
time:  0000b310:note on:          (0x99,0x33,0x70).
time:  0000b338:note off:         (0x89,0x24,0x47).
time:  0000b338:note off:         (0x89,0x33,0x47).
time:  0000b388:note on:          (0x99,0x24,0x70).
time:  0000b3b0:note off:         (0x89,0x24,0x47).
time:  0000b400:note on:          (0x99,0x26,0x70).
time:  0000b400:note on:          (0x99,0x33,0x70).
time:  0000b428:note off:         (0x89,0x26,0x47).
time:  0000b428:note off:         (0x89,0x33,0x47).
time:  0000b4f0:note on:          (0x99,0x24,0x70).
time:  0000b4f0:note on:          (0x99,0x33,0x70).
time:  0000b518:note off:         (0x89,0x24,0x47).
time:  0000b518:note off:         (0x89,0x33,0x47).
time:  0000b568:note on:          (0x99,0x24,0x70).
time:  0000b590:note off:         (0x89,0x24,0x47).
time:  0000b5e0:note on:          (0x99,0x26,0x70).
time:  0000b5e0:note on:          (0x99,0x33,0x70).
time:  0000b608:note off:         (0x89,0x26,0x47).
time:  0000b608:note off:         (0x89,0x33,0x47).
time:  0000b6d0:note on:          (0x99,0x24,0x70).
time:  0000b6d0:note on:          (0x99,0x33,0x70).
time:  0000b6f8:note off:         (0x89,0x24,0x47).
time:  0000b6f8:note off:         (0x89,0x33,0x47).
time:  0000b748:note on:          (0x99,0x24,0x70).
time:  0000b770:note off:         (0x89,0x24,0x47).
time:  0000b7c0:note on:          (0x99,0x26,0x70).
time:  0000b7c0:note on:          (0x99,0x33,0x70).
time:  0000b7e8:note off:         (0x89,0x26,0x47).
time:  0000b7e8:note off:         (0x89,0x33,0x47).
time:  0000b8b0:note on:          (0x99,0x24,0x70).
time:  0000b8b0:note on:          (0x99,0x33,0x70).
time:  0000b8d8:note off:         (0x89,0x24,0x47).
time:  0000b8d8:note off:         (0x89,0x33,0x47).
time:  0000b928:note on:          (0x99,0x24,0x70).
time:  0000b950:note off:         (0x89,0x24,0x47).
time:  0000b9a0:note on:          (0x99,0x26,0x70).
time:  0000b9a0:note on:          (0x99,0x33,0x70).
time:  0000b9c8:note off:         (0x89,0x26,0x47).
time:  0000b9c8:note off:         (0x89,0x33,0x47).
time:  0000ba90:note on:          (0x99,0x24,0x70).
time:  0000ba90:note on:          (0x99,0x33,0x70).
time:  0000bab8:note off:         (0x89,0x24,0x47).
time:  0000bab8:note off:         (0x89,0x33,0x47).
time:  0000bb08:note on:          (0x99,0x24,0x70).
time:  0000bb30:note off:         (0x89,0x24,0x47).
time:  0000bb80:note on:          (0x99,0x26,0x70).
time:  0000bb80:note on:          (0x99,0x33,0x70).
time:  0000bba8:note off:         (0x89,0x26,0x47).
time:  0000bba8:note off:         (0x89,0x33,0x47).
time:  0000bc70:note on:          (0x99,0x24,0x70).
time:  0000bc70:note on:          (0x99,0x33,0x70).
time:  0000bc98:note off:         (0x89,0x24,0x47).
time:  0000bc98:note off:         (0x89,0x33,0x47).
time:  0000bce8:note on:          (0x99,0x24,0x70).
time:  0000bd10:note off:         (0x89,0x24,0x47).
time:  0000bd60:note on:          (0x99,0x26,0x70).
time:  0000bd60:note on:          (0x99,0x33,0x70).
time:  0000bd88:note off:         (0x89,0x26,0x47).
time:  0000bd88:note off:         (0x89,0x33,0x47).
time:  0000be50:note on:          (0x99,0x24,0x70).
time:  0000be50:note on:          (0x99,0x33,0x70).
time:  0000be78:note off:         (0x89,0x24,0x47).
time:  0000be78:note off:         (0x89,0x33,0x47).
time:  0000bec8:note on:          (0x99,0x24,0x70).
time:  0000bef0:note off:         (0x89,0x24,0x47).
time:  0000bf40:note on:          (0x99,0x26,0x70).
time:  0000bf40:note on:          (0x99,0x33,0x70).
time:  0000bf68:note off:         (0x89,0x26,0x47).
time:  0000bf68:note off:         (0x89,0x33,0x47).
time:  0000c030:note on:          (0x99,0x24,0x70).
time:  0000c030:note on:          (0x99,0x33,0x70).
time:  0000c058:note off:         (0x89,0x24,0x47).
time:  0000c058:note off:         (0x89,0x33,0x47).
time:  0000c0a8:note on:          (0x99,0x24,0x70).
time:  0000c0d0:note off:         (0x89,0x24,0x47).
time:  0000c120:note on:          (0x99,0x26,0x70).
time:  0000c120:note on:          (0x99,0x33,0x70).
time:  0000c148:note off:         (0x89,0x26,0x47).
time:  0000c148:note off:         (0x89,0x33,0x47).
time:  0000c210:note on:          (0x99,0x24,0x70).
time:  0000c210:note on:          (0x99,0x33,0x70).
time:  0000c238:note off:         (0x89,0x24,0x47).
time:  0000c238:note off:         (0x89,0x33,0x47).
time:  0000c288:note on:          (0x99,0x24,0x70).
time:  0000c2b0:note off:         (0x89,0x24,0x47).
time:  0000c300:note on:          (0x99,0x26,0x70).
time:  0000c300:note on:          (0x99,0x33,0x70).
time:  0000c328:note off:         (0x89,0x26,0x47).
time:  0000c328:note off:         (0x89,0x33,0x47).
time:  0000c3f0:note on:          (0x99,0x24,0x70).
time:  0000c3f0:note on:          (0x99,0x33,0x70).
time:  0000c418:note off:         (0x89,0x24,0x47).
time:  0000c418:note off:         (0x89,0x33,0x47).
time:  0000c468:note on:          (0x99,0x24,0x70).
time:  0000c490:note off:         (0x89,0x24,0x47).
time:  0000c4e0:note on:          (0x99,0x26,0x70).
time:  0000c4e0:note on:          (0x99,0x33,0x70).
time:  0000c508:note off:         (0x89,0x26,0x47).
time:  0000c508:note off:         (0x89,0x33,0x47).
time:  0000c5d0:note on:          (0x99,0x24,0x70).
time:  0000c5d0:note on:          (0x99,0x33,0x70).
time:  0000c5f8:note off:         (0x89,0x24,0x47).
time:  0000c5f8:note off:         (0x89,0x33,0x47).
time:  0000c648:note on:          (0x99,0x24,0x70).
time:  0000c670:note off:         (0x89,0x24,0x47).
time:  0000c6c0:note on:          (0x99,0x26,0x70).
time:  0000c6c0:note on:          (0x99,0x33,0x70).
time:  0000c6e8:note off:         (0x89,0x26,0x47).
time:  0000c6e8:note off:         (0x89,0x33,0x47).
time:  0000c7b0:note on:          (0x99,0x24,0x70).
time:  0000c7b0:note on:          (0x99,0x33,0x70).
time:  0000c7d8:note off:         (0x89,0x24,0x47).
time:  0000c7d8:note off:         (0x89,0x33,0x47).
time:  0000c828:note on:          (0x99,0x24,0x70).
time:  0000c850:note off:         (0x89,0x24,0x47).
time:  0000c8a0:note on:          (0x99,0x26,0x70).
time:  0000c8a0:note on:          (0x99,0x33,0x70).
time:  0000c8c8:note off:         (0x89,0x26,0x47).
time:  0000c8c8:note off:         (0x89,0x33,0x47).
time:  0000c990:note on:          (0x99,0x24,0x70).
time:  0000c990:note on:          (0x99,0x33,0x70).
time:  0000c9b8:note off:         (0x89,0x24,0x47).
time:  0000c9b8:note off:         (0x89,0x33,0x47).
time:  0000ca08:note on:          (0x99,0x24,0x70).
time:  0000ca30:note off:         (0x89,0x24,0x47).
time:  0000ca80:note on:          (0x99,0x26,0x70).
time:  0000ca80:note on:          (0x99,0x33,0x70).
time:  0000caa8:note off:         (0x89,0x26,0x47).
time:  0000caa8:note off:         (0x89,0x33,0x47).
time:  0000cb70:note on:          (0x99,0x24,0x70).
time:  0000cb70:note on:          (0x99,0x33,0x70).
time:  0000cb98:note off:         (0x89,0x24,0x47).
time:  0000cb98:note off:         (0x89,0x33,0x47).
time:  0000cbe8:note on:          (0x99,0x24,0x70).
time:  0000cc10:note off:         (0x89,0x24,0x47).
time:  0000cc60:note on:          (0x99,0x26,0x70).
time:  0000cc60:note on:          (0x99,0x33,0x70).
time:  0000cc88:note off:         (0x89,0x26,0x47).
time:  0000cc88:note off:         (0x89,0x33,0x47).
time:  0000cd50:note on:          (0x99,0x24,0x70).
time:  0000cd50:note on:          (0x99,0x33,0x70).
time:  0000cd78:note off:         (0x89,0x24,0x47).
time:  0000cd78:note off:         (0x89,0x33,0x47).
time:  0000cdc8:note on:          (0x99,0x24,0x70).
time:  0000cdf0:note off:         (0x89,0x24,0x47).
time:  0000ce40:note on:          (0x99,0x26,0x70).
time:  0000ce40:note on:          (0x99,0x33,0x70).
time:  0000ce68:note off:         (0x89,0x26,0x47).
time:  0000ce68:note off:         (0x89,0x33,0x47).
time:  0000cf30:note on:          (0x99,0x24,0x70).
time:  0000cf30:note on:          (0x99,0x33,0x70).
time:  0000cf58:note off:         (0x89,0x24,0x47).
time:  0000cf58:note off:         (0x89,0x33,0x47).
time:  0000cfa8:note on:          (0x99,0x24,0x70).
time:  0000cfd0:note off:         (0x89,0x24,0x47).
time:  0000d020:note on:          (0x99,0x26,0x70).
time:  0000d020:note on:          (0x99,0x33,0x70).
time:  0000d048:note off:         (0x89,0x26,0x47).
time:  0000d048:note off:         (0x89,0x33,0x47).
time:  0000d110:note on:          (0x99,0x24,0x70).
time:  0000d110:note on:          (0x99,0x33,0x70).
time:  0000d138:note off:         (0x89,0x24,0x47).
time:  0000d138:note off:         (0x89,0x33,0x47).
time:  0000d188:note on:          (0x99,0x24,0x70).
time:  0000d1b0:note off:         (0x89,0x24,0x47).
time:  0000d200:note on:          (0x99,0x26,0x70).
time:  0000d200:note on:          (0x99,0x33,0x70).
time:  0000d200:note on:          (0x99,0x37,0x70).
time:  0000d228:note off:         (0x89,0x26,0x47).
time:  0000d228:note off:         (0x89,0x33,0x47).
time:  0000d228:note off:         (0x89,0x37,0x47).
time:  0000d278:note on:          (0x99,0x26,0x70).
time:  0000d278:note on:          (0x99,0x39,0x70).
time:  0000d2a0:note off:         (0x89,0x26,0x47).
time:  0000d2a0:note off:         (0x89,0x39,0x47).
time:  0000d2f0:note on:          (0x99,0x39,0x54).
time:  0000d2f0:note on:          (0x99,0x31,0x54).
time:  0000d2f0:note on:          (0x99,0x33,0x54).
time:  0000d2f0:note on:          (0x99,0x26,0x54).
time:  0000d2f0:note on:          (0x99,0x26,0x54).
time:  0000d2f0:note on:          (0x99,0x24,0x54).
time:  0000d318:note off:         (0x89,0x39,0x47).
time:  0000d318:note off:         (0x89,0x31,0x47).
time:  0000d318:note off:         (0x89,0x33,0x47).
time:  0000d318:note off:         (0x89,0x26,0x47).
time:  0000d318:note off:         (0x89,0x24,0x47).
time:  0000d32c:note on:          (0x99,0x24,0x70).
time:  0000d32c:note on:          (0x99,0x26,0x70).
time:  0000d340:note off:         (0x89,0x26,0x47).
time:  0000d354:note off:         (0x89,0x24,0x47).
time:  0000d354:note off:         (0x89,0x26,0x47).
time:  0000d368:note on:          (0x99,0x33,0x54).
time:  0000d368:note on:          (0x99,0x24,0x70).
time:  0000d390:note off:         (0x89,0x33,0x47).
time:  0000d390:note off:         (0x89,0x24,0x47).
time:  0000d3e0:note on:          (0x99,0x39,0x54).
time:  0000d3e0:note on:          (0x99,0x31,0x54).
time:  0000d3e0:note on:          (0x99,0x33,0x54).
time:  0000d3e0:note on:          (0x99,0x26,0x54).
time:  0000d3e0:note on:          (0x99,0x24,0x54).
time:  0000d408:note off:         (0x89,0x39,0x47).
time:  0000d408:note off:         (0x89,0x31,0x47).
time:  0000d408:note off:         (0x89,0x33,0x47).
time:  0000d408:note off:         (0x89,0x24,0x47).
time:  0000d430:note off:         (0x89,0x26,0x47).
time:  0000d458:note on:          (0x99,0x33,0x54).
time:  0000d480:note off:         (0x89,0x33,0x47).
time:  0000d4d0:note on:          (0x99,0x39,0x54).
time:  0000d4d0:note on:          (0x99,0x31,0x54).
time:  0000d4d0:note on:          (0x99,0x33,0x54).
time:  0000d4d0:note on:          (0x99,0x26,0x54).
time:  0000d4d0:note on:          (0x99,0x24,0x70).
time:  0000d4f8:note off:         (0x89,0x39,0x47).
time:  0000d4f8:note off:         (0x89,0x31,0x47).
time:  0000d4f8:note off:         (0x89,0x33,0x47).
time:  0000d4f8:note off:         (0x89,0x24,0x47).
time:  0000d50c:note on:          (0x99,0x26,0x70).
time:  0000d50c:note on:          (0x99,0x24,0x70).
time:  0000d520:note off:         (0x89,0x26,0x47).
time:  0000d534:note off:         (0x89,0x26,0x47).
time:  0000d534:note off:         (0x89,0x24,0x47).
time:  0000d548:note on:          (0x99,0x33,0x54).
time:  0000d548:note on:          (0x99,0x24,0x70).
time:  0000d570:note off:         (0x89,0x33,0x47).
time:  0000d570:note off:         (0x89,0x24,0x47).
time:  0000d5c0:note on:          (0x99,0x39,0x54).
time:  0000d5c0:note on:          (0x99,0x31,0x54).
time:  0000d5c0:note on:          (0x99,0x33,0x54).
time:  0000d5c0:note on:          (0x99,0x26,0x54).
time:  0000d5c0:note on:          (0x99,0x24,0x70).
time:  0000d5e8:note off:         (0x89,0x39,0x47).
time:  0000d5e8:note off:         (0x89,0x31,0x47).
time:  0000d5e8:note off:         (0x89,0x33,0x47).
time:  0000d5e8:note off:         (0x89,0x24,0x47).
time:  0000d610:note off:         (0x89,0x26,0x47).
time:  0000d638:note on:          (0x99,0x33,0x54).
time:  0000d638:note on:          (0x99,0x24,0x70).
time:  0000d660:note off:         (0x89,0x33,0x47).
time:  0000d660:note off:         (0x89,0x24,0x47).
time:  0000d6b0:note on:          (0x99,0x39,0x54).
time:  0000d6b0:note on:          (0x99,0x31,0x54).
time:  0000d6b0:note on:          (0x99,0x33,0x54).
time:  0000d6b0:note on:          (0x99,0x26,0x54).
time:  0000d6b0:note on:          (0x99,0x26,0x54).
time:  0000d6b0:note on:          (0x99,0x24,0x54).
time:  0000d6d8:note off:         (0x89,0x39,0x47).
time:  0000d6d8:note off:         (0x89,0x31,0x47).
time:  0000d6d8:note off:         (0x89,0x33,0x47).
time:  0000d6d8:note off:         (0x89,0x26,0x47).
time:  0000d6d8:note off:         (0x89,0x24,0x47).
time:  0000d6ec:note on:          (0x99,0x24,0x70).
time:  0000d6ec:note on:          (0x99,0x26,0x70).
time:  0000d700:note off:         (0x89,0x26,0x47).
time:  0000d714:note off:         (0x89,0x24,0x47).
time:  0000d714:note off:         (0x89,0x26,0x47).
time:  0000d728:note on:          (0x99,0x33,0x54).
time:  0000d728:note on:          (0x99,0x24,0x70).
time:  0000d750:note off:         (0x89,0x33,0x47).
time:  0000d750:note off:         (0x89,0x24,0x47).
time:  0000d7a0:note on:          (0x99,0x39,0x54).
time:  0000d7a0:note on:          (0x99,0x31,0x54).
time:  0000d7a0:note on:          (0x99,0x33,0x54).
time:  0000d7a0:note on:          (0x99,0x26,0x54).
time:  0000d7a0:note on:          (0x99,0x24,0x54).
time:  0000d7c8:note off:         (0x89,0x39,0x47).
time:  0000d7c8:note off:         (0x89,0x31,0x47).
time:  0000d7c8:note off:         (0x89,0x33,0x47).
time:  0000d7c8:note off:         (0x89,0x24,0x47).
time:  0000d7f0:note off:         (0x89,0x26,0x47).
time:  0000d818:note on:          (0x99,0x33,0x54).
time:  0000d840:note off:         (0x89,0x33,0x47).
time:  0000d890:note on:          (0x99,0x39,0x54).
time:  0000d890:note on:          (0x99,0x31,0x54).
time:  0000d890:note on:          (0x99,0x33,0x54).
time:  0000d890:note on:          (0x99,0x26,0x54).
time:  0000d890:note on:          (0x99,0x24,0x70).
time:  0000d8b8:note off:         (0x89,0x39,0x47).
time:  0000d8b8:note off:         (0x89,0x31,0x47).
time:  0000d8b8:note off:         (0x89,0x33,0x47).
time:  0000d8b8:note off:         (0x89,0x24,0x47).
time:  0000d8cc:note on:          (0x99,0x26,0x70).
time:  0000d8cc:note on:          (0x99,0x24,0x70).
time:  0000d8e0:note off:         (0x89,0x26,0x47).
time:  0000d8f4:note off:         (0x89,0x26,0x47).
time:  0000d8f4:note off:         (0x89,0x24,0x47).
time:  0000d908:note on:          (0x99,0x33,0x54).
time:  0000d908:note on:          (0x99,0x24,0x70).
time:  0000d930:note off:         (0x89,0x33,0x47).
time:  0000d930:note off:         (0x89,0x24,0x47).
time:  0000d980:note on:          (0x99,0x39,0x54).
time:  0000d980:note on:          (0x99,0x31,0x54).
time:  0000d980:note on:          (0x99,0x33,0x54).
time:  0000d980:note on:          (0x99,0x26,0x54).
time:  0000d980:note on:          (0x99,0x24,0x70).
time:  0000d9a8:note off:         (0x89,0x39,0x47).
time:  0000d9a8:note off:         (0x89,0x31,0x47).
time:  0000d9a8:note off:         (0x89,0x33,0x47).
time:  0000d9a8:note off:         (0x89,0x24,0x47).
time:  0000d9d0:note off:         (0x89,0x26,0x47).
time:  0000d9f8:note on:          (0x99,0x33,0x54).
time:  0000d9f8:note on:          (0x99,0x24,0x70).
time:  0000d9f8:note on:          (0x99,0x26,0x70).
time:  0000da20:note off:         (0x89,0x33,0x47).
time:  0000da20:note off:         (0x89,0x24,0x47).
time:  0000da20:note off:         (0x89,0x26,0x47).
time:  0000da70:note on:          (0x99,0x39,0x54).
time:  0000da70:note on:          (0x99,0x31,0x54).
time:  0000da70:note on:          (0x99,0x33,0x54).
time:  0000da70:note on:          (0x99,0x26,0x54).
time:  0000da70:note on:          (0x99,0x26,0x54).
time:  0000da70:note on:          (0x99,0x24,0x54).
time:  0000da98:note off:         (0x89,0x39,0x47).
time:  0000da98:note off:         (0x89,0x31,0x47).
time:  0000da98:note off:         (0x89,0x33,0x47).
time:  0000da98:note off:         (0x89,0x26,0x47).
time:  0000da98:note off:         (0x89,0x24,0x47).
time:  0000daac:note on:          (0x99,0x24,0x70).
time:  0000daac:note on:          (0x99,0x26,0x70).
time:  0000dac0:note off:         (0x89,0x26,0x47).
time:  0000dad4:note off:         (0x89,0x24,0x47).
time:  0000dad4:note off:         (0x89,0x26,0x47).
time:  0000dae8:note on:          (0x99,0x33,0x54).
time:  0000dae8:note on:          (0x99,0x24,0x70).
time:  0000db10:note off:         (0x89,0x33,0x47).
time:  0000db10:note off:         (0x89,0x24,0x47).
time:  0000db60:note on:          (0x99,0x39,0x54).
time:  0000db60:note on:          (0x99,0x31,0x54).
time:  0000db60:note on:          (0x99,0x33,0x54).
time:  0000db60:note on:          (0x99,0x26,0x54).
time:  0000db60:note on:          (0x99,0x24,0x54).
time:  0000db88:note off:         (0x89,0x39,0x47).
time:  0000db88:note off:         (0x89,0x31,0x47).
time:  0000db88:note off:         (0x89,0x33,0x47).
time:  0000db88:note off:         (0x89,0x24,0x47).
time:  0000dbb0:note off:         (0x89,0x26,0x47).
time:  0000dbd8:note on:          (0x99,0x33,0x54).
time:  0000dc00:note off:         (0x89,0x33,0x47).
time:  0000dc50:note on:          (0x99,0x39,0x54).
time:  0000dc50:note on:          (0x99,0x31,0x54).
time:  0000dc50:note on:          (0x99,0x33,0x54).
time:  0000dc50:note on:          (0x99,0x26,0x54).
time:  0000dc50:note on:          (0x99,0x24,0x70).
time:  0000dc78:note off:         (0x89,0x39,0x47).
time:  0000dc78:note off:         (0x89,0x31,0x47).
time:  0000dc78:note off:         (0x89,0x33,0x47).
time:  0000dc78:note off:         (0x89,0x24,0x47).
time:  0000dc8c:note on:          (0x99,0x26,0x70).
time:  0000dc8c:note on:          (0x99,0x24,0x70).
time:  0000dca0:note off:         (0x89,0x26,0x47).
time:  0000dcb4:note off:         (0x89,0x26,0x47).
time:  0000dcb4:note off:         (0x89,0x24,0x47).
time:  0000dcc8:note on:          (0x99,0x33,0x54).
time:  0000dcc8:note on:          (0x99,0x24,0x70).
time:  0000dcf0:note off:         (0x89,0x33,0x47).
time:  0000dcf0:note off:         (0x89,0x24,0x47).
time:  0000dd40:note on:          (0x99,0x39,0x54).
time:  0000dd40:note on:          (0x99,0x31,0x54).
time:  0000dd40:note on:          (0x99,0x33,0x54).
time:  0000dd40:note on:          (0x99,0x26,0x54).
time:  0000dd40:note on:          (0x99,0x24,0x70).
time:  0000dd68:note off:         (0x89,0x39,0x47).
time:  0000dd68:note off:         (0x89,0x31,0x47).
time:  0000dd68:note off:         (0x89,0x33,0x47).
time:  0000dd68:note off:         (0x89,0x24,0x47).
time:  0000dd90:note off:         (0x89,0x26,0x47).
time:  0000ddb8:note on:          (0x99,0x33,0x54).
time:  0000ddb8:note on:          (0x99,0x24,0x70).
time:  0000dde0:note off:         (0x89,0x33,0x47).
time:  0000dde0:note off:         (0x89,0x24,0x47).
time:  0000de30:note on:          (0x99,0x39,0x54).
time:  0000de30:note on:          (0x99,0x31,0x54).
time:  0000de30:note on:          (0x99,0x33,0x54).
time:  0000de30:note on:          (0x99,0x26,0x54).
time:  0000de30:note on:          (0x99,0x26,0x54).
time:  0000de30:note on:          (0x99,0x24,0x54).
time:  0000de58:note off:         (0x89,0x39,0x47).
time:  0000de58:note off:         (0x89,0x31,0x47).
time:  0000de58:note off:         (0x89,0x33,0x47).
time:  0000de58:note off:         (0x89,0x26,0x47).
time:  0000de58:note off:         (0x89,0x24,0x47).
time:  0000de6c:note on:          (0x99,0x24,0x70).
time:  0000de6c:note on:          (0x99,0x26,0x70).
time:  0000de80:note off:         (0x89,0x26,0x47).
time:  0000de94:note off:         (0x89,0x24,0x47).
time:  0000de94:note off:         (0x89,0x26,0x47).
time:  0000dea8:note on:          (0x99,0x33,0x54).
time:  0000dea8:note on:          (0x99,0x24,0x70).
time:  0000ded0:note off:         (0x89,0x33,0x47).
time:  0000ded0:note off:         (0x89,0x24,0x47).
time:  0000df20:note on:          (0x99,0x39,0x54).
time:  0000df20:note on:          (0x99,0x31,0x54).
time:  0000df20:note on:          (0x99,0x33,0x54).
time:  0000df20:note on:          (0x99,0x26,0x54).
time:  0000df20:note on:          (0x99,0x24,0x54).
time:  0000df48:note off:         (0x89,0x39,0x47).
time:  0000df48:note off:         (0x89,0x31,0x47).
time:  0000df48:note off:         (0x89,0x33,0x47).
time:  0000df48:note off:         (0x89,0x24,0x47).
time:  0000df70:note off:         (0x89,0x26,0x47).
time:  0000df98:note on:          (0x99,0x33,0x54).
time:  0000dfc0:note off:         (0x89,0x33,0x47).
time:  0000e010:note on:          (0x99,0x39,0x54).
time:  0000e010:note on:          (0x99,0x31,0x54).
time:  0000e010:note on:          (0x99,0x33,0x54).
time:  0000e010:note on:          (0x99,0x26,0x54).
time:  0000e010:note on:          (0x99,0x24,0x70).
time:  0000e038:note off:         (0x89,0x39,0x47).
time:  0000e038:note off:         (0x89,0x31,0x47).
time:  0000e038:note off:         (0x89,0x33,0x47).
time:  0000e038:note off:         (0x89,0x24,0x47).
time:  0000e04c:note on:          (0x99,0x26,0x70).
time:  0000e04c:note on:          (0x99,0x24,0x70).
time:  0000e060:note off:         (0x89,0x26,0x47).
time:  0000e074:note off:         (0x89,0x26,0x47).
time:  0000e074:note off:         (0x89,0x24,0x47).
time:  0000e088:note on:          (0x99,0x33,0x54).
time:  0000e088:note on:          (0x99,0x24,0x70).
time:  0000e0b0:note off:         (0x89,0x33,0x47).
time:  0000e0b0:note off:         (0x89,0x24,0x47).
time:  0000e100:note on:          (0x99,0x39,0x54).
time:  0000e100:note on:          (0x99,0x31,0x54).
time:  0000e100:note on:          (0x99,0x33,0x54).
time:  0000e100:note on:          (0x99,0x26,0x54).
time:  0000e100:note on:          (0x99,0x24,0x70).
time:  0000e128:note off:         (0x89,0x39,0x47).
time:  0000e128:note off:         (0x89,0x31,0x47).
time:  0000e128:note off:         (0x89,0x33,0x47).
time:  0000e128:note off:         (0x89,0x24,0x47).
time:  0000e150:note off:         (0x89,0x26,0x47).
time:  0000e178:note on:          (0x99,0x33,0x54).
time:  0000e178:note on:          (0x99,0x24,0x70).
time:  0000e178:note on:          (0x99,0x26,0x70).
time:  0000e1a0:note off:         (0x89,0x33,0x47).
time:  0000e1a0:note off:         (0x89,0x24,0x47).
time:  0000e1a0:note off:         (0x89,0x26,0x47).
time:  0000e1f0:note on:          (0x99,0x39,0x54).
time:  0000e1f0:note on:          (0x99,0x31,0x54).
time:  0000e1f0:note on:          (0x99,0x33,0x54).
time:  0000e1f0:note on:          (0x99,0x26,0x54).
time:  0000e1f0:note on:          (0x99,0x26,0x54).
time:  0000e1f0:note on:          (0x99,0x24,0x54).
time:  0000e218:note off:         (0x89,0x39,0x47).
time:  0000e218:note off:         (0x89,0x31,0x47).
time:  0000e218:note off:         (0x89,0x33,0x47).
time:  0000e218:note off:         (0x89,0x26,0x47).
time:  0000e218:note off:         (0x89,0x24,0x47).
time:  0000e22c:note on:          (0x99,0x24,0x70).
time:  0000e22c:note on:          (0x99,0x26,0x70).
time:  0000e240:note off:         (0x89,0x26,0x47).
time:  0000e254:note off:         (0x89,0x24,0x47).
time:  0000e254:note off:         (0x89,0x26,0x47).
time:  0000e268:note on:          (0x99,0x33,0x54).
time:  0000e268:note on:          (0x99,0x24,0x70).
time:  0000e290:note off:         (0x89,0x33,0x47).
time:  0000e290:note off:         (0x89,0x24,0x47).
time:  0000e2e0:note on:          (0x99,0x39,0x54).
time:  0000e2e0:note on:          (0x99,0x31,0x54).
time:  0000e2e0:note on:          (0x99,0x33,0x54).
time:  0000e2e0:note on:          (0x99,0x26,0x54).
time:  0000e2e0:note on:          (0x99,0x24,0x54).
time:  0000e308:note off:         (0x89,0x39,0x47).
time:  0000e308:note off:         (0x89,0x31,0x47).
time:  0000e308:note off:         (0x89,0x33,0x47).
time:  0000e308:note off:         (0x89,0x24,0x47).
time:  0000e330:note off:         (0x89,0x26,0x47).
time:  0000e358:note on:          (0x99,0x33,0x54).
time:  0000e380:note off:         (0x89,0x33,0x47).
time:  0000e3d0:note on:          (0x99,0x39,0x54).
time:  0000e3d0:note on:          (0x99,0x31,0x54).
time:  0000e3d0:note on:          (0x99,0x33,0x54).
time:  0000e3d0:note on:          (0x99,0x26,0x54).
time:  0000e3d0:note on:          (0x99,0x24,0x70).
time:  0000e3f8:note off:         (0x89,0x39,0x47).
time:  0000e3f8:note off:         (0x89,0x31,0x47).
time:  0000e3f8:note off:         (0x89,0x33,0x47).
time:  0000e3f8:note off:         (0x89,0x24,0x47).
time:  0000e40c:note on:          (0x99,0x26,0x70).
time:  0000e40c:note on:          (0x99,0x24,0x70).
time:  0000e420:note off:         (0x89,0x26,0x47).
time:  0000e434:note off:         (0x89,0x26,0x47).
time:  0000e434:note off:         (0x89,0x24,0x47).
time:  0000e448:note on:          (0x99,0x33,0x54).
time:  0000e448:note on:          (0x99,0x24,0x70).
time:  0000e470:note off:         (0x89,0x33,0x47).
time:  0000e470:note off:         (0x89,0x24,0x47).
time:  0000e4c0:note on:          (0x99,0x39,0x54).
time:  0000e4c0:note on:          (0x99,0x31,0x54).
time:  0000e4c0:note on:          (0x99,0x33,0x54).
time:  0000e4c0:note on:          (0x99,0x26,0x54).
time:  0000e4c0:note on:          (0x99,0x24,0x70).
time:  0000e4e8:note off:         (0x89,0x39,0x47).
time:  0000e4e8:note off:         (0x89,0x31,0x47).
time:  0000e4e8:note off:         (0x89,0x33,0x47).
time:  0000e4e8:note off:         (0x89,0x24,0x47).
time:  0000e510:note off:         (0x89,0x26,0x47).
time:  0000e538:note on:          (0x99,0x33,0x54).
time:  0000e538:note on:          (0x99,0x24,0x70).
time:  0000e560:note off:         (0x89,0x33,0x47).
time:  0000e560:note off:         (0x89,0x24,0x47).
time:  0000e5b0:note on:          (0x99,0x39,0x54).
time:  0000e5b0:note on:          (0x99,0x31,0x54).
time:  0000e5b0:note on:          (0x99,0x33,0x54).
time:  0000e5b0:note on:          (0x99,0x26,0x54).
time:  0000e5b0:note on:          (0x99,0x26,0x54).
time:  0000e5b0:note on:          (0x99,0x24,0x54).
time:  0000e5d8:note off:         (0x89,0x39,0x47).
time:  0000e5d8:note off:         (0x89,0x31,0x47).
time:  0000e5d8:note off:         (0x89,0x33,0x47).
time:  0000e5d8:note off:         (0x89,0x26,0x47).
time:  0000e5d8:note off:         (0x89,0x24,0x47).
time:  0000e5ec:note on:          (0x99,0x24,0x70).
time:  0000e5ec:note on:          (0x99,0x26,0x70).
time:  0000e600:note off:         (0x89,0x26,0x47).
time:  0000e614:note off:         (0x89,0x24,0x47).
time:  0000e614:note off:         (0x89,0x26,0x47).
time:  0000e628:note on:          (0x99,0x33,0x54).
time:  0000e628:note on:          (0x99,0x24,0x70).
time:  0000e650:note off:         (0x89,0x33,0x47).
time:  0000e650:note off:         (0x89,0x24,0x47).
time:  0000e6a0:note on:          (0x99,0x39,0x54).
time:  0000e6a0:note on:          (0x99,0x31,0x54).
time:  0000e6a0:note on:          (0x99,0x33,0x54).
time:  0000e6a0:note on:          (0x99,0x26,0x54).
time:  0000e6a0:note on:          (0x99,0x24,0x54).
time:  0000e6c8:note off:         (0x89,0x39,0x47).
time:  0000e6c8:note off:         (0x89,0x31,0x47).
time:  0000e6c8:note off:         (0x89,0x33,0x47).
time:  0000e6c8:note off:         (0x89,0x24,0x47).
time:  0000e6f0:note off:         (0x89,0x26,0x47).
time:  0000e718:note on:          (0x99,0x33,0x54).
time:  0000e740:note off:         (0x89,0x33,0x47).
time:  0000e790:note on:          (0x99,0x39,0x54).
time:  0000e790:note on:          (0x99,0x31,0x54).
time:  0000e790:note on:          (0x99,0x33,0x54).
time:  0000e790:note on:          (0x99,0x26,0x54).
time:  0000e790:note on:          (0x99,0x24,0x70).
time:  0000e7b8:note off:         (0x89,0x39,0x47).
time:  0000e7b8:note off:         (0x89,0x31,0x47).
time:  0000e7b8:note off:         (0x89,0x33,0x47).
time:  0000e7b8:note off:         (0x89,0x24,0x47).
time:  0000e7cc:note on:          (0x99,0x26,0x70).
time:  0000e7cc:note on:          (0x99,0x24,0x70).
time:  0000e7e0:note off:         (0x89,0x26,0x47).
time:  0000e7f4:note off:         (0x89,0x26,0x47).
time:  0000e7f4:note off:         (0x89,0x24,0x47).
time:  0000e808:note on:          (0x99,0x33,0x54).
time:  0000e808:note on:          (0x99,0x24,0x70).
time:  0000e830:note off:         (0x89,0x33,0x47).
time:  0000e830:note off:         (0x89,0x24,0x47).
time:  0000e880:note on:          (0x99,0x39,0x54).
time:  0000e880:note on:          (0x99,0x31,0x54).
time:  0000e880:note on:          (0x99,0x33,0x54).
time:  0000e880:note on:          (0x99,0x26,0x54).
time:  0000e880:note on:          (0x99,0x24,0x70).
time:  0000e8a8:note off:         (0x89,0x39,0x47).
time:  0000e8a8:note off:         (0x89,0x31,0x47).
time:  0000e8a8:note off:         (0x89,0x33,0x47).
time:  0000e8a8:note off:         (0x89,0x24,0x47).
time:  0000e8d0:note off:         (0x89,0x26,0x47).
time:  0000e8f8:note on:          (0x99,0x33,0x54).
time:  0000e8f8:note on:          (0x99,0x24,0x70).
time:  0000e8f8:note on:          (0x99,0x26,0x70).
time:  0000e920:note off:         (0x89,0x33,0x47).
time:  0000e920:note off:         (0x89,0x24,0x47).
time:  0000e920:note off:         (0x89,0x26,0x47).
time:  0000e970:note on:          (0x99,0x39,0x54).
time:  0000e970:note on:          (0x99,0x31,0x54).
time:  0000e970:note on:          (0x99,0x33,0x54).
time:  0000e970:note on:          (0x99,0x26,0x54).
time:  0000e970:note on:          (0x99,0x26,0x54).
time:  0000e970:note on:          (0x99,0x24,0x54).
time:  0000e998:note off:         (0x89,0x39,0x47).
time:  0000e998:note off:         (0x89,0x31,0x47).
time:  0000e998:note off:         (0x89,0x33,0x47).
time:  0000e998:note off:         (0x89,0x26,0x47).
time:  0000e998:note off:         (0x89,0x24,0x47).
time:  0000e9ac:note on:          (0x99,0x24,0x70).
time:  0000e9ac:note on:          (0x99,0x26,0x70).
time:  0000e9c0:note off:         (0x89,0x26,0x47).
time:  0000e9d4:note off:         (0x89,0x24,0x47).
time:  0000e9d4:note off:         (0x89,0x26,0x47).
time:  0000e9e8:note on:          (0x99,0x33,0x54).
time:  0000e9e8:note on:          (0x99,0x24,0x70).
time:  0000ea10:note off:         (0x89,0x33,0x47).
time:  0000ea10:note off:         (0x89,0x24,0x47).
time:  0000ea60:note on:          (0x99,0x39,0x54).
time:  0000ea60:note on:          (0x99,0x31,0x54).
time:  0000ea60:note on:          (0x99,0x33,0x54).
time:  0000ea60:note on:          (0x99,0x26,0x54).
time:  0000ea60:note on:          (0x99,0x24,0x54).
time:  0000ea88:note off:         (0x89,0x39,0x47).
time:  0000ea88:note off:         (0x89,0x31,0x47).
time:  0000ea88:note off:         (0x89,0x33,0x47).
time:  0000ea88:note off:         (0x89,0x24,0x47).
time:  0000eab0:note off:         (0x89,0x26,0x47).
time:  0000ead8:note on:          (0x99,0x33,0x54).
time:  0000eb00:note off:         (0x89,0x33,0x47).
time:  0000eb50:note on:          (0x99,0x39,0x54).
time:  0000eb50:note on:          (0x99,0x31,0x54).
time:  0000eb50:note on:          (0x99,0x33,0x54).
time:  0000eb50:note on:          (0x99,0x26,0x54).
time:  0000eb50:note on:          (0x99,0x24,0x70).
time:  0000eb78:note off:         (0x89,0x39,0x47).
time:  0000eb78:note off:         (0x89,0x31,0x47).
time:  0000eb78:note off:         (0x89,0x33,0x47).
time:  0000eb78:note off:         (0x89,0x24,0x47).
time:  0000eb8c:note on:          (0x99,0x26,0x70).
time:  0000eb8c:note on:          (0x99,0x24,0x70).
time:  0000eba0:note off:         (0x89,0x26,0x47).
time:  0000ebb4:note off:         (0x89,0x26,0x47).
time:  0000ebb4:note off:         (0x89,0x24,0x47).
time:  0000ebc8:note on:          (0x99,0x33,0x54).
time:  0000ebc8:note on:          (0x99,0x24,0x70).
time:  0000ebf0:note off:         (0x89,0x33,0x47).
time:  0000ebf0:note off:         (0x89,0x24,0x47).
time:  0000ec40:note on:          (0x99,0x39,0x54).
time:  0000ec40:note on:          (0x99,0x31,0x54).
time:  0000ec40:note on:          (0x99,0x33,0x54).
time:  0000ec40:note on:          (0x99,0x26,0x54).
time:  0000ec40:note on:          (0x99,0x24,0x70).
time:  0000ec68:note off:         (0x89,0x39,0x47).
time:  0000ec68:note off:         (0x89,0x31,0x47).
time:  0000ec68:note off:         (0x89,0x33,0x47).
time:  0000ec68:note off:         (0x89,0x24,0x47).
time:  0000ec90:note off:         (0x89,0x26,0x47).
time:  0000ecb8:note on:          (0x99,0x33,0x54).
time:  0000ecb8:note on:          (0x99,0x24,0x70).
time:  0000ece0:note off:         (0x89,0x33,0x47).
time:  0000ece0:note off:         (0x89,0x24,0x47).
time:  0000ed30:note on:          (0x99,0x39,0x54).
time:  0000ed30:note on:          (0x99,0x31,0x54).
time:  0000ed30:note on:          (0x99,0x33,0x54).
time:  0000ed30:note on:          (0x99,0x26,0x70).
time:  0000ed30:note on:          (0x99,0x24,0x70).
time:  0000ed58:note off:         (0x89,0x39,0x47).
time:  0000ed58:note off:         (0x89,0x31,0x47).
time:  0000ed58:note off:         (0x89,0x33,0x47).
time:  0000ed58:note off:         (0x89,0x26,0x47).
time:  0000ed58:note off:         (0x89,0x24,0x47).
time:  0000ed6c:note on:          (0x99,0x26,0x70).
time:  0000ed94:note off:         (0x89,0x26,0x47).
time:  0000eda8:note on:          (0x99,0x33,0x54).
time:  0000eda8:note on:          (0x99,0x26,0x70).
time:  0000eda8:note on:          (0x99,0x24,0x70).
time:  0000edd0:note off:         (0x89,0x33,0x47).
time:  0000edd0:note off:         (0x89,0x26,0x47).
time:  0000edd0:note off:         (0x89,0x24,0x47).
time:  0000ede4:note on:          (0x99,0x26,0x70).
time:  0000ee0c:note off:         (0x89,0x26,0x47).
time:  0000ee20:note on:          (0x99,0x39,0x54).
time:  0000ee20:note on:          (0x99,0x31,0x54).
time:  0000ee20:note on:          (0x99,0x33,0x54).
time:  0000ee20:note on:          (0x99,0x26,0x70).
time:  0000ee20:note on:          (0x99,0x24,0x70).
time:  0000ee48:note off:         (0x89,0x39,0x47).
time:  0000ee48:note off:         (0x89,0x31,0x47).
time:  0000ee48:note off:         (0x89,0x33,0x47).
time:  0000ee48:note off:         (0x89,0x26,0x47).
time:  0000ee48:note off:         (0x89,0x24,0x47).
time:  0000ee5c:note on:          (0x99,0x26,0x70).
time:  0000ee84:note off:         (0x89,0x26,0x47).
time:  0000ee98:note on:          (0x99,0x33,0x54).
time:  0000ee98:note on:          (0x99,0x26,0x70).
time:  0000ee98:note on:          (0x99,0x24,0x70).
time:  0000eec0:note off:         (0x89,0x33,0x47).
time:  0000eec0:note off:         (0x89,0x26,0x47).
time:  0000eec0:note off:         (0x89,0x24,0x47).
time:  0000eed4:note on:          (0x99,0x26,0x70).
time:  0000eefc:note off:         (0x89,0x26,0x47).
time:  0000ef10:note on:          (0x99,0x39,0x54).
time:  0000ef10:note on:          (0x99,0x31,0x54).
time:  0000ef10:note on:          (0x99,0x33,0x54).
time:  0000ef10:note on:          (0x99,0x26,0x70).
time:  0000ef10:note on:          (0x99,0x24,0x70).
time:  0000ef38:note off:         (0x89,0x39,0x47).
time:  0000ef38:note off:         (0x89,0x31,0x47).
time:  0000ef38:note off:         (0x89,0x33,0x47).
time:  0000ef38:note off:         (0x89,0x26,0x47).
time:  0000ef38:note off:         (0x89,0x24,0x47).
time:  0000ef4c:note on:          (0x99,0x26,0x70).
time:  0000ef74:note off:         (0x89,0x26,0x47).
time:  0000ef88:note on:          (0x99,0x33,0x54).
time:  0000ef88:note on:          (0x99,0x26,0x70).
time:  0000ef88:note on:          (0x99,0x24,0x70).
time:  0000efb0:note off:         (0x89,0x33,0x47).
time:  0000efb0:note off:         (0x89,0x26,0x47).
time:  0000efb0:note off:         (0x89,0x24,0x47).
time:  0000efc4:note on:          (0x99,0x26,0x70).
time:  0000efec:note off:         (0x89,0x26,0x47).
time:  0000f000:note on:          (0x99,0x39,0x54).
time:  0000f000:note on:          (0x99,0x31,0x54).
time:  0000f000:note on:          (0x99,0x33,0x54).
time:  0000f000:note on:          (0x99,0x26,0x70).
time:  0000f000:note on:          (0x99,0x24,0x70).
time:  0000f028:note off:         (0x89,0x39,0x47).
time:  0000f028:note off:         (0x89,0x31,0x47).
time:  0000f028:note off:         (0x89,0x33,0x47).
time:  0000f028:note off:         (0x89,0x26,0x47).
time:  0000f028:note off:         (0x89,0x24,0x47).
time:  0000f078:note on:          (0x99,0x33,0x54).
time:  0000f078:note on:          (0x99,0x24,0x70).
time:  0000f0a0:note off:         (0x89,0x33,0x47).
time:  0000f0a0:note off:         (0x89,0x24,0x47).
time:  0000f0f0:note on:          (0x99,0x24,0x70).
time:  0000f0f0:note on:          (0x99,0x26,0x70).
time:  0000f0f0:note on:          (0x99,0x36,0x70).
time:  0000f0f0:note on:          (0x99,0x2e,0x7a).
time:  0000f0f0:note on:          (0x99,0x33,0x7a).
time:  0000f0f0:note on:          (0x99,0x39,0x70).
time:  0000f0f0:note on:          (0x99,0x31,0x70).
time:  0000f118:note off:         (0x89,0x24,0x47).
time:  0000f118:note off:         (0x89,0x26,0x47).
time:  0000f118:note off:         (0x89,0x36,0x47).
time:  0000f118:note off:         (0x89,0x2e,0x4d).
time:  0000f118:note off:         (0x89,0x33,0x4d).
time:  0000f118:note off:         (0x89,0x39,0x47).
time:  0000f118:note off:         (0x89,0x31,0x47).
time:  0000f168:note on:          (0x99,0x36,0x70).
time:  0000f168:note on:          (0x99,0x2e,0x7a).
time:  0000f168:note on:          (0x99,0x33,0x7a).
time:  0000f190:note off:         (0x89,0x36,0x47).
time:  0000f190:note off:         (0x89,0x2e,0x4d).
time:  0000f190:note off:         (0x89,0x33,0x4d).
time:  0000f1e0:note on:          (0x99,0x24,0x70).
time:  0000f1e0:note on:          (0x99,0x26,0x70).
time:  0000f1e0:note on:          (0x99,0x36,0x70).
time:  0000f1e0:note on:          (0x99,0x2e,0x7a).
time:  0000f1e0:note on:          (0x99,0x33,0x7a).
time:  0000f1e0:note on:          (0x99,0x39,0x70).
time:  0000f1e0:note on:          (0x99,0x31,0x70).
time:  0000f208:note off:         (0x89,0x24,0x47).
time:  0000f208:note off:         (0x89,0x26,0x47).
time:  0000f208:note off:         (0x89,0x36,0x47).
time:  0000f208:note off:         (0x89,0x2e,0x4d).
time:  0000f208:note off:         (0x89,0x33,0x4d).
time:  0000f208:note off:         (0x89,0x39,0x47).
time:  0000f208:note off:         (0x89,0x31,0x47).
time:  0000f258:note on:          (0x99,0x36,0x70).
time:  0000f258:note on:          (0x99,0x2e,0x7a).
time:  0000f258:note on:          (0x99,0x33,0x7a).
time:  0000f280:note off:         (0x89,0x36,0x47).
time:  0000f280:note off:         (0x89,0x2e,0x4d).
time:  0000f280:note off:         (0x89,0x33,0x4d).
time:  0000f2d0:note on:          (0x99,0x26,0x70).
time:  0000f2d0:note on:          (0x99,0x36,0x70).
time:  0000f2d0:note on:          (0x99,0x2e,0x7a).
time:  0000f2d0:note on:          (0x99,0x33,0x7a).
time:  0000f2d0:note on:          (0x99,0x39,0x70).
time:  0000f2d0:note on:          (0x99,0x31,0x70).
time:  0000f2f8:note off:         (0x89,0x26,0x47).
time:  0000f2f8:note off:         (0x89,0x36,0x47).
time:  0000f2f8:note off:         (0x89,0x2e,0x4d).
time:  0000f2f8:note off:         (0x89,0x33,0x4d).
time:  0000f2f8:note off:         (0x89,0x39,0x47).
time:  0000f2f8:note off:         (0x89,0x31,0x47).
time:  0000f30c:note on:          (0x99,0x26,0x70).
time:  0000f334:note off:         (0x89,0x26,0x47).
time:  0000f348:note on:          (0x99,0x24,0x70).
time:  0000f348:note on:          (0x99,0x23,0x70).
time:  0000f348:note on:          (0x99,0x36,0x70).
time:  0000f348:note on:          (0x99,0x2e,0x7a).
time:  0000f348:note on:          (0x99,0x33,0x7a).
time:  0000f370:note off:         (0x89,0x24,0x47).
time:  0000f370:note off:         (0x89,0x23,0x47).
time:  0000f370:note off:         (0x89,0x36,0x47).
time:  0000f370:note off:         (0x89,0x2e,0x4d).
time:  0000f370:note off:         (0x89,0x33,0x4d).
time:  0000f3c0:note on:          (0x99,0x26,0x70).
time:  0000f3c0:note on:          (0x99,0x36,0x70).
time:  0000f3c0:note on:          (0x99,0x2e,0x7a).
time:  0000f3c0:note on:          (0x99,0x33,0x7a).
time:  0000f3c0:note on:          (0x99,0x39,0x70).
time:  0000f3c0:note on:          (0x99,0x31,0x70).
time:  0000f3e8:note off:         (0x89,0x26,0x47).
time:  0000f3e8:note off:         (0x89,0x36,0x47).
time:  0000f3e8:note off:         (0x89,0x2e,0x4d).
time:  0000f3e8:note off:         (0x89,0x33,0x4d).
time:  0000f3e8:note off:         (0x89,0x39,0x47).
time:  0000f3e8:note off:         (0x89,0x31,0x47).
time:  0000f3fc:note on:          (0x99,0x26,0x70).
time:  0000f424:note off:         (0x89,0x26,0x47).
time:  0000f438:note on:          (0x99,0x23,0x70).
time:  0000f438:note on:          (0x99,0x24,0x70).
time:  0000f438:note on:          (0x99,0x36,0x70).
time:  0000f438:note on:          (0x99,0x2e,0x7a).
time:  0000f438:note on:          (0x99,0x33,0x7a).
time:  0000f460:note off:         (0x89,0x23,0x47).
time:  0000f460:note off:         (0x89,0x24,0x47).
time:  0000f460:note off:         (0x89,0x36,0x47).
time:  0000f460:note off:         (0x89,0x2e,0x4d).
time:  0000f460:note off:         (0x89,0x33,0x4d).
time:  0000f4b0:note on:          (0x99,0x24,0x70).
time:  0000f4b0:note on:          (0x99,0x26,0x70).
time:  0000f4b0:note on:          (0x99,0x36,0x70).
time:  0000f4b0:note on:          (0x99,0x2e,0x7a).
time:  0000f4b0:note on:          (0x99,0x33,0x7a).
time:  0000f4b0:note on:          (0x99,0x39,0x70).
time:  0000f4b0:note on:          (0x99,0x31,0x70).
time:  0000f4d8:note off:         (0x89,0x24,0x47).
time:  0000f4d8:note off:         (0x89,0x26,0x47).
time:  0000f4d8:note off:         (0x89,0x36,0x47).
time:  0000f4d8:note off:         (0x89,0x2e,0x4d).
time:  0000f4d8:note off:         (0x89,0x33,0x4d).
time:  0000f4d8:note off:         (0x89,0x39,0x47).
time:  0000f4d8:note off:         (0x89,0x31,0x47).
time:  0000f528:note on:          (0x99,0x36,0x70).
time:  0000f528:note on:          (0x99,0x2e,0x7a).
time:  0000f528:note on:          (0x99,0x33,0x7a).
time:  0000f550:note off:         (0x89,0x36,0x47).
time:  0000f550:note off:         (0x89,0x2e,0x4d).
time:  0000f550:note off:         (0x89,0x33,0x4d).
time:  0000f5a0:note on:          (0x99,0x24,0x70).
time:  0000f5a0:note on:          (0x99,0x26,0x70).
time:  0000f5a0:note on:          (0x99,0x36,0x70).
time:  0000f5a0:note on:          (0x99,0x2e,0x7a).
time:  0000f5a0:note on:          (0x99,0x33,0x7a).
time:  0000f5a0:note on:          (0x99,0x39,0x70).
time:  0000f5a0:note on:          (0x99,0x31,0x70).
time:  0000f5c8:note off:         (0x89,0x24,0x47).
time:  0000f5c8:note off:         (0x89,0x26,0x47).
time:  0000f5c8:note off:         (0x89,0x36,0x47).
time:  0000f5c8:note off:         (0x89,0x2e,0x4d).
time:  0000f5c8:note off:         (0x89,0x33,0x4d).
time:  0000f5c8:note off:         (0x89,0x39,0x47).
time:  0000f5c8:note off:         (0x89,0x31,0x47).
time:  0000f618:note on:          (0x99,0x36,0x70).
time:  0000f618:note on:          (0x99,0x2e,0x7a).
time:  0000f618:note on:          (0x99,0x33,0x7a).
time:  0000f640:note off:         (0x89,0x36,0x47).
time:  0000f640:note off:         (0x89,0x2e,0x4d).
time:  0000f640:note off:         (0x89,0x33,0x4d).
time:  0000f690:note on:          (0x99,0x26,0x70).
time:  0000f690:note on:          (0x99,0x36,0x70).
time:  0000f690:note on:          (0x99,0x2e,0x7a).
time:  0000f690:note on:          (0x99,0x33,0x7a).
time:  0000f690:note on:          (0x99,0x39,0x70).
time:  0000f690:note on:          (0x99,0x31,0x70).
time:  0000f6b8:note off:         (0x89,0x26,0x47).
time:  0000f6b8:note off:         (0x89,0x36,0x47).
time:  0000f6b8:note off:         (0x89,0x2e,0x4d).
time:  0000f6b8:note off:         (0x89,0x33,0x4d).
time:  0000f6b8:note off:         (0x89,0x39,0x47).
time:  0000f6b8:note off:         (0x89,0x31,0x47).
time:  0000f6cc:note on:          (0x99,0x26,0x70).
time:  0000f6f4:note off:         (0x89,0x26,0x47).
time:  0000f708:note on:          (0x99,0x24,0x70).
time:  0000f708:note on:          (0x99,0x23,0x70).
time:  0000f708:note on:          (0x99,0x36,0x70).
time:  0000f708:note on:          (0x99,0x2e,0x7a).
time:  0000f708:note on:          (0x99,0x33,0x7a).
time:  0000f730:note off:         (0x89,0x24,0x47).
time:  0000f730:note off:         (0x89,0x23,0x47).
time:  0000f730:note off:         (0x89,0x36,0x47).
time:  0000f730:note off:         (0x89,0x2e,0x4d).
time:  0000f730:note off:         (0x89,0x33,0x4d).
time:  0000f780:note on:          (0x99,0x26,0x70).
time:  0000f780:note on:          (0x99,0x36,0x70).
time:  0000f780:note on:          (0x99,0x2e,0x7a).
time:  0000f780:note on:          (0x99,0x33,0x7a).
time:  0000f780:note on:          (0x99,0x39,0x70).
time:  0000f780:note on:          (0x99,0x31,0x70).
time:  0000f7a8:note off:         (0x89,0x26,0x47).
time:  0000f7a8:note off:         (0x89,0x36,0x47).
time:  0000f7a8:note off:         (0x89,0x2e,0x4d).
time:  0000f7a8:note off:         (0x89,0x33,0x4d).
time:  0000f7a8:note off:         (0x89,0x39,0x47).
time:  0000f7a8:note off:         (0x89,0x31,0x47).
time:  0000f7bc:note on:          (0x99,0x26,0x70).
time:  0000f7e4:note off:         (0x89,0x26,0x47).
time:  0000f7f8:note on:          (0x99,0x23,0x70).
time:  0000f7f8:note on:          (0x99,0x24,0x70).
time:  0000f7f8:note on:          (0x99,0x36,0x70).
time:  0000f7f8:note on:          (0x99,0x2e,0x7a).
time:  0000f7f8:note on:          (0x99,0x33,0x7a).
time:  0000f820:note off:         (0x89,0x23,0x47).
time:  0000f820:note off:         (0x89,0x24,0x47).
time:  0000f820:note off:         (0x89,0x36,0x47).
time:  0000f820:note off:         (0x89,0x2e,0x4d).
time:  0000f820:note off:         (0x89,0x33,0x4d).
time:  0000f870:note on:          (0x99,0x24,0x70).
time:  0000f870:note on:          (0x99,0x26,0x70).
time:  0000f870:note on:          (0x99,0x36,0x70).
time:  0000f870:note on:          (0x99,0x2e,0x7a).
time:  0000f870:note on:          (0x99,0x33,0x7a).
time:  0000f870:note on:          (0x99,0x39,0x70).
time:  0000f870:note on:          (0x99,0x31,0x70).
time:  0000f898:note off:         (0x89,0x24,0x47).
time:  0000f898:note off:         (0x89,0x26,0x47).
time:  0000f898:note off:         (0x89,0x36,0x47).
time:  0000f898:note off:         (0x89,0x2e,0x4d).
time:  0000f898:note off:         (0x89,0x33,0x4d).
time:  0000f898:note off:         (0x89,0x39,0x47).
time:  0000f898:note off:         (0x89,0x31,0x47).
time:  0000f8e8:note on:          (0x99,0x36,0x70).
time:  0000f8e8:note on:          (0x99,0x2e,0x7a).
time:  0000f8e8:note on:          (0x99,0x33,0x7a).
time:  0000f910:note off:         (0x89,0x36,0x47).
time:  0000f910:note off:         (0x89,0x2e,0x4d).
time:  0000f910:note off:         (0x89,0x33,0x4d).
time:  0000f960:note on:          (0x99,0x24,0x70).
time:  0000f960:note on:          (0x99,0x26,0x70).
time:  0000f960:note on:          (0x99,0x36,0x70).
time:  0000f960:note on:          (0x99,0x2e,0x7a).
time:  0000f960:note on:          (0x99,0x33,0x7a).
time:  0000f960:note on:          (0x99,0x39,0x70).
time:  0000f960:note on:          (0x99,0x31,0x70).
time:  0000f988:note off:         (0x89,0x24,0x47).
time:  0000f988:note off:         (0x89,0x26,0x47).
time:  0000f988:note off:         (0x89,0x36,0x47).
time:  0000f988:note off:         (0x89,0x2e,0x4d).
time:  0000f988:note off:         (0x89,0x33,0x4d).
time:  0000f988:note off:         (0x89,0x39,0x47).
time:  0000f988:note off:         (0x89,0x31,0x47).
time:  0000f9d8:note on:          (0x99,0x36,0x70).
time:  0000f9d8:note on:          (0x99,0x2e,0x7a).
time:  0000f9d8:note on:          (0x99,0x33,0x7a).
time:  0000fa00:note off:         (0x89,0x36,0x47).
time:  0000fa00:note off:         (0x89,0x2e,0x4d).
time:  0000fa00:note off:         (0x89,0x33,0x4d).
time:  0000fa50:note on:          (0x99,0x26,0x70).
time:  0000fa50:note on:          (0x99,0x36,0x70).
time:  0000fa50:note on:          (0x99,0x2e,0x7a).
time:  0000fa50:note on:          (0x99,0x33,0x7a).
time:  0000fa50:note on:          (0x99,0x39,0x70).
time:  0000fa50:note on:          (0x99,0x31,0x70).
time:  0000fa78:note off:         (0x89,0x26,0x47).
time:  0000fa78:note off:         (0x89,0x36,0x47).
time:  0000fa78:note off:         (0x89,0x2e,0x4d).
time:  0000fa78:note off:         (0x89,0x33,0x4d).
time:  0000fa78:note off:         (0x89,0x39,0x47).
time:  0000fa78:note off:         (0x89,0x31,0x47).
time:  0000fa8c:note on:          (0x99,0x26,0x70).
time:  0000fab4:note off:         (0x89,0x26,0x47).
time:  0000fac8:note on:          (0x99,0x24,0x70).
time:  0000fac8:note on:          (0x99,0x23,0x70).
time:  0000fac8:note on:          (0x99,0x36,0x70).
time:  0000fac8:note on:          (0x99,0x2e,0x7a).
time:  0000fac8:note on:          (0x99,0x33,0x7a).
time:  0000faf0:note off:         (0x89,0x24,0x47).
time:  0000faf0:note off:         (0x89,0x23,0x47).
time:  0000faf0:note off:         (0x89,0x36,0x47).
time:  0000faf0:note off:         (0x89,0x2e,0x4d).
time:  0000faf0:note off:         (0x89,0x33,0x4d).
time:  0000fb40:note on:          (0x99,0x26,0x70).
time:  0000fb40:note on:          (0x99,0x36,0x70).
time:  0000fb40:note on:          (0x99,0x2e,0x7a).
time:  0000fb40:note on:          (0x99,0x33,0x7a).
time:  0000fb40:note on:          (0x99,0x39,0x70).
time:  0000fb40:note on:          (0x99,0x31,0x70).
time:  0000fb68:note off:         (0x89,0x26,0x47).
time:  0000fb68:note off:         (0x89,0x36,0x47).
time:  0000fb68:note off:         (0x89,0x2e,0x4d).
time:  0000fb68:note off:         (0x89,0x33,0x4d).
time:  0000fb68:note off:         (0x89,0x39,0x47).
time:  0000fb68:note off:         (0x89,0x31,0x47).
time:  0000fb7c:note on:          (0x99,0x26,0x70).
time:  0000fba4:note off:         (0x89,0x26,0x47).
time:  0000fbb8:note on:          (0x99,0x23,0x70).
time:  0000fbb8:note on:          (0x99,0x24,0x70).
time:  0000fbb8:note on:          (0x99,0x36,0x70).
time:  0000fbb8:note on:          (0x99,0x2e,0x7a).
time:  0000fbb8:note on:          (0x99,0x33,0x7a).
time:  0000fbe0:note off:         (0x89,0x23,0x47).
time:  0000fbe0:note off:         (0x89,0x24,0x47).
time:  0000fbe0:note off:         (0x89,0x36,0x47).
time:  0000fbe0:note off:         (0x89,0x2e,0x4d).
time:  0000fbe0:note off:         (0x89,0x33,0x4d).
time:  0000fc30:note on:          (0x99,0x24,0x70).
time:  0000fc30:note on:          (0x99,0x26,0x70).
time:  0000fc30:note on:          (0x99,0x36,0x70).
time:  0000fc30:note on:          (0x99,0x2e,0x7a).
time:  0000fc30:note on:          (0x99,0x33,0x7a).
time:  0000fc30:note on:          (0x99,0x39,0x70).
time:  0000fc30:note on:          (0x99,0x31,0x70).
time:  0000fc58:note off:         (0x89,0x24,0x47).
time:  0000fc58:note off:         (0x89,0x26,0x47).
time:  0000fc58:note off:         (0x89,0x36,0x47).
time:  0000fc58:note off:         (0x89,0x2e,0x4d).
time:  0000fc58:note off:         (0x89,0x33,0x4d).
time:  0000fc58:note off:         (0x89,0x39,0x47).
time:  0000fc58:note off:         (0x89,0x31,0x47).
time:  0000fca8:note on:          (0x99,0x36,0x70).
time:  0000fca8:note on:          (0x99,0x2e,0x7a).
time:  0000fca8:note on:          (0x99,0x33,0x7a).
time:  0000fcd0:note off:         (0x89,0x36,0x47).
time:  0000fcd0:note off:         (0x89,0x2e,0x4d).
time:  0000fcd0:note off:         (0x89,0x33,0x4d).
time:  0000fd20:note on:          (0x99,0x24,0x70).
time:  0000fd20:note on:          (0x99,0x26,0x70).
time:  0000fd20:note on:          (0x99,0x36,0x70).
time:  0000fd20:note on:          (0x99,0x2e,0x7a).
time:  0000fd20:note on:          (0x99,0x33,0x7a).
time:  0000fd20:note on:          (0x99,0x39,0x70).
time:  0000fd20:note on:          (0x99,0x31,0x70).
time:  0000fd48:note off:         (0x89,0x24,0x47).
time:  0000fd48:note off:         (0x89,0x26,0x47).
time:  0000fd48:note off:         (0x89,0x36,0x47).
time:  0000fd48:note off:         (0x89,0x2e,0x4d).
time:  0000fd48:note off:         (0x89,0x33,0x4d).
time:  0000fd48:note off:         (0x89,0x39,0x47).
time:  0000fd48:note off:         (0x89,0x31,0x47).
time:  0000fd98:note on:          (0x99,0x36,0x70).
time:  0000fd98:note on:          (0x99,0x2e,0x7a).
time:  0000fd98:note on:          (0x99,0x33,0x7a).
time:  0000fdc0:note off:         (0x89,0x36,0x47).
time:  0000fdc0:note off:         (0x89,0x2e,0x4d).
time:  0000fdc0:note off:         (0x89,0x33,0x4d).
time:  0000fe10:note on:          (0x99,0x26,0x70).
time:  0000fe10:note on:          (0x99,0x36,0x70).
time:  0000fe10:note on:          (0x99,0x2e,0x7a).
time:  0000fe10:note on:          (0x99,0x33,0x7a).
time:  0000fe10:note on:          (0x99,0x39,0x70).
time:  0000fe10:note on:          (0x99,0x31,0x70).
time:  0000fe38:note off:         (0x89,0x26,0x47).
time:  0000fe38:note off:         (0x89,0x36,0x47).
time:  0000fe38:note off:         (0x89,0x2e,0x4d).
time:  0000fe38:note off:         (0x89,0x33,0x4d).
time:  0000fe38:note off:         (0x89,0x39,0x47).
time:  0000fe38:note off:         (0x89,0x31,0x47).
time:  0000fe4c:note on:          (0x99,0x26,0x70).
time:  0000fe74:note off:         (0x89,0x26,0x47).
time:  0000fe88:note on:          (0x99,0x24,0x70).
time:  0000fe88:note on:          (0x99,0x23,0x70).
time:  0000fe88:note on:          (0x99,0x36,0x70).
time:  0000fe88:note on:          (0x99,0x2e,0x7a).
time:  0000fe88:note on:          (0x99,0x33,0x7a).
time:  0000feb0:note off:         (0x89,0x24,0x47).
time:  0000feb0:note off:         (0x89,0x23,0x47).
time:  0000feb0:note off:         (0x89,0x36,0x47).
time:  0000feb0:note off:         (0x89,0x2e,0x4d).
time:  0000feb0:note off:         (0x89,0x33,0x4d).
time:  0000ff00:note on:          (0x99,0x26,0x70).
time:  0000ff00:note on:          (0x99,0x36,0x70).
time:  0000ff00:note on:          (0x99,0x2e,0x7a).
time:  0000ff00:note on:          (0x99,0x33,0x7a).
time:  0000ff00:note on:          (0x99,0x39,0x70).
time:  0000ff00:note on:          (0x99,0x31,0x70).
time:  0000ff28:note off:         (0x89,0x26,0x47).
time:  0000ff28:note off:         (0x89,0x36,0x47).
time:  0000ff28:note off:         (0x89,0x2e,0x4d).
time:  0000ff28:note off:         (0x89,0x33,0x4d).
time:  0000ff28:note off:         (0x89,0x39,0x47).
time:  0000ff28:note off:         (0x89,0x31,0x47).
time:  0000ff3c:note on:          (0x99,0x26,0x70).
time:  0000ff64:note off:         (0x89,0x26,0x47).
time:  0000ff78:note on:          (0x99,0x23,0x70).
time:  0000ff78:note on:          (0x99,0x24,0x70).
time:  0000ff78:note on:          (0x99,0x36,0x70).
time:  0000ff78:note on:          (0x99,0x2e,0x7a).
time:  0000ff78:note on:          (0x99,0x33,0x7a).
time:  0000ffa0:note off:         (0x89,0x23,0x47).
time:  0000ffa0:note off:         (0x89,0x24,0x47).
time:  0000ffa0:note off:         (0x89,0x36,0x47).
time:  0000ffa0:note off:         (0x89,0x2e,0x4d).
time:  0000ffa0:note off:         (0x89,0x33,0x4d).
time:  0000fff0:note on:          (0x99,0x24,0x70).
time:  0000fff0:note on:          (0x99,0x26,0x70).
time:  0000fff0:note on:          (0x99,0x36,0x70).
time:  0000fff0:note on:          (0x99,0x2e,0x7a).
time:  0000fff0:note on:          (0x99,0x33,0x7a).
time:  0000fff0:note on:          (0x99,0x39,0x70).
time:  0000fff0:note on:          (0x99,0x31,0x70).
time:  00010018:note off:         (0x89,0x24,0x47).
time:  00010018:note off:         (0x89,0x26,0x47).
time:  00010018:note off:         (0x89,0x36,0x47).
time:  00010018:note off:         (0x89,0x2e,0x4d).
time:  00010018:note off:         (0x89,0x33,0x4d).
time:  00010018:note off:         (0x89,0x39,0x47).
time:  00010018:note off:         (0x89,0x31,0x47).
time:  00010068:note on:          (0x99,0x36,0x70).
time:  00010068:note on:          (0x99,0x2e,0x7a).
time:  00010068:note on:          (0x99,0x33,0x7a).
time:  00010090:note off:         (0x89,0x36,0x47).
time:  00010090:note off:         (0x89,0x2e,0x4d).
time:  00010090:note off:         (0x89,0x33,0x4d).
time:  000100e0:note on:          (0x99,0x24,0x70).
time:  000100e0:note on:          (0x99,0x26,0x70).
time:  000100e0:note on:          (0x99,0x36,0x70).
time:  000100e0:note on:          (0x99,0x2e,0x7a).
time:  000100e0:note on:          (0x99,0x33,0x7a).
time:  000100e0:note on:          (0x99,0x39,0x70).
time:  000100e0:note on:          (0x99,0x31,0x70).
time:  00010108:note off:         (0x89,0x24,0x47).
time:  00010108:note off:         (0x89,0x26,0x47).
time:  00010108:note off:         (0x89,0x36,0x47).
time:  00010108:note off:         (0x89,0x2e,0x4d).
time:  00010108:note off:         (0x89,0x33,0x4d).
time:  00010108:note off:         (0x89,0x39,0x47).
time:  00010108:note off:         (0x89,0x31,0x47).
time:  00010158:note on:          (0x99,0x36,0x70).
time:  00010158:note on:          (0x99,0x2e,0x7a).
time:  00010158:note on:          (0x99,0x33,0x7a).
time:  00010180:note off:         (0x89,0x36,0x47).
time:  00010180:note off:         (0x89,0x2e,0x4d).
time:  00010180:note off:         (0x89,0x33,0x4d).
time:  000101d0:note on:          (0x99,0x26,0x70).
time:  000101d0:note on:          (0x99,0x36,0x70).
time:  000101d0:note on:          (0x99,0x2e,0x7a).
time:  000101d0:note on:          (0x99,0x33,0x7a).
time:  000101d0:note on:          (0x99,0x39,0x70).
time:  000101d0:note on:          (0x99,0x31,0x70).
time:  000101f8:note off:         (0x89,0x26,0x47).
time:  000101f8:note off:         (0x89,0x36,0x47).
time:  000101f8:note off:         (0x89,0x2e,0x4d).
time:  000101f8:note off:         (0x89,0x33,0x4d).
time:  000101f8:note off:         (0x89,0x39,0x47).
time:  000101f8:note off:         (0x89,0x31,0x47).
time:  0001020c:note on:          (0x99,0x26,0x70).
time:  00010234:note off:         (0x89,0x26,0x47).
time:  00010248:note on:          (0x99,0x24,0x70).
time:  00010248:note on:          (0x99,0x23,0x70).
time:  00010248:note on:          (0x99,0x36,0x70).
time:  00010248:note on:          (0x99,0x2e,0x7a).
time:  00010248:note on:          (0x99,0x33,0x7a).
time:  00010270:note off:         (0x89,0x24,0x47).
time:  00010270:note off:         (0x89,0x23,0x47).
time:  00010270:note off:         (0x89,0x36,0x47).
time:  00010270:note off:         (0x89,0x2e,0x4d).
time:  00010270:note off:         (0x89,0x33,0x4d).
time:  000102c0:note on:          (0x99,0x26,0x70).
time:  000102c0:note on:          (0x99,0x36,0x70).
time:  000102c0:note on:          (0x99,0x2e,0x7a).
time:  000102c0:note on:          (0x99,0x33,0x7a).
time:  000102c0:note on:          (0x99,0x39,0x70).
time:  000102c0:note on:          (0x99,0x31,0x70).
time:  000102e8:note off:         (0x89,0x26,0x47).
time:  000102e8:note off:         (0x89,0x36,0x47).
time:  000102e8:note off:         (0x89,0x2e,0x4d).
time:  000102e8:note off:         (0x89,0x33,0x4d).
time:  000102e8:note off:         (0x89,0x39,0x47).
time:  000102e8:note off:         (0x89,0x31,0x47).
time:  000102fc:note on:          (0x99,0x26,0x70).
time:  00010324:note off:         (0x89,0x26,0x47).
time:  00010338:note on:          (0x99,0x23,0x70).
time:  00010338:note on:          (0x99,0x24,0x70).
time:  00010338:note on:          (0x99,0x36,0x70).
time:  00010338:note on:          (0x99,0x2e,0x7a).
time:  00010338:note on:          (0x99,0x33,0x7a).
time:  00010360:note off:         (0x89,0x23,0x47).
time:  00010360:note off:         (0x89,0x24,0x47).
time:  00010360:note off:         (0x89,0x36,0x47).
time:  00010360:note off:         (0x89,0x2e,0x4d).
time:  00010360:note off:         (0x89,0x33,0x4d).
time:  000103b0:note on:          (0x99,0x24,0x70).
time:  000103b0:note on:          (0x99,0x26,0x70).
time:  000103b0:note on:          (0x99,0x36,0x70).
time:  000103b0:note on:          (0x99,0x2e,0x7a).
time:  000103b0:note on:          (0x99,0x33,0x7a).
time:  000103b0:note on:          (0x99,0x39,0x70).
time:  000103b0:note on:          (0x99,0x31,0x70).
time:  000103d8:note off:         (0x89,0x24,0x47).
time:  000103d8:note off:         (0x89,0x26,0x47).
time:  000103d8:note off:         (0x89,0x36,0x47).
time:  000103d8:note off:         (0x89,0x2e,0x4d).
time:  000103d8:note off:         (0x89,0x33,0x4d).
time:  000103d8:note off:         (0x89,0x39,0x47).
time:  000103d8:note off:         (0x89,0x31,0x47).
time:  00010428:note on:          (0x99,0x36,0x70).
time:  00010428:note on:          (0x99,0x2e,0x7a).
time:  00010428:note on:          (0x99,0x33,0x7a).
time:  00010450:note off:         (0x89,0x36,0x47).
time:  00010450:note off:         (0x89,0x2e,0x4d).
time:  00010450:note off:         (0x89,0x33,0x4d).
time:  000104a0:note on:          (0x99,0x24,0x70).
time:  000104a0:note on:          (0x99,0x26,0x70).
time:  000104a0:note on:          (0x99,0x36,0x70).
time:  000104a0:note on:          (0x99,0x2e,0x7a).
time:  000104a0:note on:          (0x99,0x33,0x7a).
time:  000104a0:note on:          (0x99,0x39,0x70).
time:  000104a0:note on:          (0x99,0x31,0x70).
time:  000104c8:note off:         (0x89,0x24,0x47).
time:  000104c8:note off:         (0x89,0x26,0x47).
time:  000104c8:note off:         (0x89,0x36,0x47).
time:  000104c8:note off:         (0x89,0x2e,0x4d).
time:  000104c8:note off:         (0x89,0x33,0x4d).
time:  000104c8:note off:         (0x89,0x39,0x47).
time:  000104c8:note off:         (0x89,0x31,0x47).
time:  00010518:note on:          (0x99,0x36,0x70).
time:  00010518:note on:          (0x99,0x2e,0x7a).
time:  00010518:note on:          (0x99,0x33,0x7a).
time:  00010540:note off:         (0x89,0x36,0x47).
time:  00010540:note off:         (0x89,0x2e,0x4d).
time:  00010540:note off:         (0x89,0x33,0x4d).
time:  00010590:note on:          (0x99,0x26,0x70).
time:  00010590:note on:          (0x99,0x36,0x70).
time:  00010590:note on:          (0x99,0x2e,0x7a).
time:  00010590:note on:          (0x99,0x33,0x7a).
time:  00010590:note on:          (0x99,0x39,0x70).
time:  00010590:note on:          (0x99,0x31,0x70).
time:  000105b8:note off:         (0x89,0x26,0x47).
time:  000105b8:note off:         (0x89,0x36,0x47).
time:  000105b8:note off:         (0x89,0x2e,0x4d).
time:  000105b8:note off:         (0x89,0x33,0x4d).
time:  000105b8:note off:         (0x89,0x39,0x47).
time:  000105b8:note off:         (0x89,0x31,0x47).
time:  000105cc:note on:          (0x99,0x26,0x70).
time:  000105f4:note off:         (0x89,0x26,0x47).
time:  00010608:note on:          (0x99,0x24,0x70).
time:  00010608:note on:          (0x99,0x23,0x70).
time:  00010608:note on:          (0x99,0x36,0x70).
time:  00010608:note on:          (0x99,0x2e,0x7a).
time:  00010608:note on:          (0x99,0x33,0x7a).
time:  00010630:note off:         (0x89,0x24,0x47).
time:  00010630:note off:         (0x89,0x23,0x47).
time:  00010630:note off:         (0x89,0x36,0x47).
time:  00010630:note off:         (0x89,0x2e,0x4d).
time:  00010630:note off:         (0x89,0x33,0x4d).
time:  00010680:note on:          (0x99,0x26,0x70).
time:  00010680:note on:          (0x99,0x36,0x70).
time:  00010680:note on:          (0x99,0x2e,0x7a).
time:  00010680:note on:          (0x99,0x33,0x7a).
time:  00010680:note on:          (0x99,0x39,0x70).
time:  00010680:note on:          (0x99,0x31,0x70).
time:  000106a8:note off:         (0x89,0x26,0x47).
time:  000106a8:note off:         (0x89,0x36,0x47).
time:  000106a8:note off:         (0x89,0x2e,0x4d).
time:  000106a8:note off:         (0x89,0x33,0x4d).
time:  000106a8:note off:         (0x89,0x39,0x47).
time:  000106a8:note off:         (0x89,0x31,0x47).
time:  000106bc:note on:          (0x99,0x26,0x70).
time:  000106e4:note off:         (0x89,0x26,0x47).
time:  000106f8:note on:          (0x99,0x23,0x70).
time:  000106f8:note on:          (0x99,0x24,0x70).
time:  000106f8:note on:          (0x99,0x36,0x70).
time:  000106f8:note on:          (0x99,0x2e,0x7a).
time:  000106f8:note on:          (0x99,0x33,0x7a).
time:  00010720:note off:         (0x89,0x23,0x47).
time:  00010720:note off:         (0x89,0x24,0x47).
time:  00010720:note off:         (0x89,0x36,0x47).
time:  00010720:note off:         (0x89,0x2e,0x4d).
time:  00010720:note off:         (0x89,0x33,0x4d).
time:  00010770:note on:          (0x99,0x24,0x70).
time:  00010770:note on:          (0x99,0x26,0x70).
time:  00010770:note on:          (0x99,0x36,0x70).
time:  00010770:note on:          (0x99,0x2e,0x7a).
time:  00010770:note on:          (0x99,0x33,0x7a).
time:  00010770:note on:          (0x99,0x39,0x70).
time:  00010770:note on:          (0x99,0x31,0x70).
time:  00010798:note off:         (0x89,0x24,0x47).
time:  00010798:note off:         (0x89,0x26,0x47).
time:  00010798:note off:         (0x89,0x36,0x47).
time:  00010798:note off:         (0x89,0x2e,0x4d).
time:  00010798:note off:         (0x89,0x33,0x4d).
time:  00010798:note off:         (0x89,0x39,0x47).
time:  00010798:note off:         (0x89,0x31,0x47).
time:  000107e8:note on:          (0x99,0x36,0x70).
time:  000107e8:note on:          (0x99,0x2e,0x7a).
time:  000107e8:note on:          (0x99,0x33,0x7a).
time:  00010810:note off:         (0x89,0x36,0x47).
time:  00010810:note off:         (0x89,0x2e,0x4d).
time:  00010810:note off:         (0x89,0x33,0x4d).
time:  00010860:note on:          (0x99,0x24,0x70).
time:  00010860:note on:          (0x99,0x26,0x70).
time:  00010860:note on:          (0x99,0x36,0x70).
time:  00010860:note on:          (0x99,0x2e,0x7a).
time:  00010860:note on:          (0x99,0x33,0x7a).
time:  00010860:note on:          (0x99,0x39,0x70).
time:  00010860:note on:          (0x99,0x31,0x70).
time:  00010888:note off:         (0x89,0x24,0x47).
time:  00010888:note off:         (0x89,0x26,0x47).
time:  00010888:note off:         (0x89,0x36,0x47).
time:  00010888:note off:         (0x89,0x2e,0x4d).
time:  00010888:note off:         (0x89,0x33,0x4d).
time:  00010888:note off:         (0x89,0x39,0x47).
time:  00010888:note off:         (0x89,0x31,0x47).
time:  000108d8:note on:          (0x99,0x36,0x70).
time:  000108d8:note on:          (0x99,0x2e,0x7a).
time:  000108d8:note on:          (0x99,0x33,0x7a).
time:  00010900:note off:         (0x89,0x36,0x47).
time:  00010900:note off:         (0x89,0x2e,0x4d).
time:  00010900:note off:         (0x89,0x33,0x4d).
time:  00010950:note on:          (0x99,0x26,0x70).
time:  00010950:note on:          (0x99,0x36,0x70).
time:  00010950:note on:          (0x99,0x2e,0x7a).
time:  00010950:note on:          (0x99,0x33,0x7a).
time:  00010950:note on:          (0x99,0x39,0x70).
time:  00010950:note on:          (0x99,0x31,0x70).
time:  00010978:note off:         (0x89,0x26,0x47).
time:  00010978:note off:         (0x89,0x36,0x47).
time:  00010978:note off:         (0x89,0x2e,0x4d).
time:  00010978:note off:         (0x89,0x33,0x4d).
time:  00010978:note off:         (0x89,0x39,0x47).
time:  00010978:note off:         (0x89,0x31,0x47).
time:  0001098c:note on:          (0x99,0x26,0x70).
time:  000109b4:note off:         (0x89,0x26,0x47).
time:  000109c8:note on:          (0x99,0x24,0x70).
time:  000109c8:note on:          (0x99,0x23,0x70).
time:  000109c8:note on:          (0x99,0x36,0x70).
time:  000109c8:note on:          (0x99,0x2e,0x7a).
time:  000109c8:note on:          (0x99,0x33,0x7a).
time:  000109f0:note off:         (0x89,0x24,0x47).
time:  000109f0:note off:         (0x89,0x23,0x47).
time:  000109f0:note off:         (0x89,0x36,0x47).
time:  000109f0:note off:         (0x89,0x2e,0x4d).
time:  000109f0:note off:         (0x89,0x33,0x4d).
time:  00010a40:note on:          (0x99,0x26,0x70).
time:  00010a40:note on:          (0x99,0x36,0x70).
time:  00010a40:note on:          (0x99,0x2e,0x7a).
time:  00010a40:note on:          (0x99,0x33,0x7a).
time:  00010a40:note on:          (0x99,0x39,0x70).
time:  00010a40:note on:          (0x99,0x31,0x70).
time:  00010a68:note off:         (0x89,0x26,0x47).
time:  00010a68:note off:         (0x89,0x36,0x47).
time:  00010a68:note off:         (0x89,0x2e,0x4d).
time:  00010a68:note off:         (0x89,0x33,0x4d).
time:  00010a68:note off:         (0x89,0x39,0x47).
time:  00010a68:note off:         (0x89,0x31,0x47).
time:  00010a7c:note on:          (0x99,0x26,0x70).
time:  00010aa4:note off:         (0x89,0x26,0x47).
time:  00010ab8:note on:          (0x99,0x23,0x70).
time:  00010ab8:note on:          (0x99,0x24,0x70).
time:  00010ab8:note on:          (0x99,0x36,0x70).
time:  00010ab8:note on:          (0x99,0x2e,0x7a).
time:  00010ab8:note on:          (0x99,0x33,0x7a).
time:  00010ae0:note off:         (0x89,0x23,0x47).
time:  00010ae0:note off:         (0x89,0x24,0x47).
time:  00010ae0:note off:         (0x89,0x36,0x47).
time:  00010ae0:note off:         (0x89,0x2e,0x4d).
time:  00010ae0:note off:         (0x89,0x33,0x4d).
time:  00010b30:note on:          (0x99,0x24,0x70).
time:  00010b30:note on:          (0x99,0x26,0x70).
time:  00010b30:note on:          (0x99,0x36,0x70).
time:  00010b30:note on:          (0x99,0x2e,0x7a).
time:  00010b30:note on:          (0x99,0x33,0x7a).
time:  00010b30:note on:          (0x99,0x39,0x70).
time:  00010b30:note on:          (0x99,0x31,0x70).
time:  00010b58:note off:         (0x89,0x24,0x47).
time:  00010b58:note off:         (0x89,0x26,0x47).
time:  00010b58:note off:         (0x89,0x36,0x47).
time:  00010b58:note off:         (0x89,0x2e,0x4d).
time:  00010b58:note off:         (0x89,0x33,0x4d).
time:  00010b58:note off:         (0x89,0x39,0x47).
time:  00010b58:note off:         (0x89,0x31,0x47).
time:  00010ba8:note on:          (0x99,0x36,0x70).
time:  00010ba8:note on:          (0x99,0x2e,0x7a).
time:  00010ba8:note on:          (0x99,0x33,0x7a).
time:  00010bd0:note off:         (0x89,0x36,0x47).
time:  00010bd0:note off:         (0x89,0x2e,0x4d).
time:  00010bd0:note off:         (0x89,0x33,0x4d).
time:  00010c20:note on:          (0x99,0x24,0x70).
time:  00010c20:note on:          (0x99,0x26,0x70).
time:  00010c20:note on:          (0x99,0x36,0x70).
time:  00010c20:note on:          (0x99,0x2e,0x7a).
time:  00010c20:note on:          (0x99,0x33,0x7a).
time:  00010c20:note on:          (0x99,0x39,0x70).
time:  00010c20:note on:          (0x99,0x31,0x70).
time:  00010c48:note off:         (0x89,0x24,0x47).
time:  00010c48:note off:         (0x89,0x26,0x47).
time:  00010c48:note off:         (0x89,0x36,0x47).
time:  00010c48:note off:         (0x89,0x2e,0x4d).
time:  00010c48:note off:         (0x89,0x33,0x4d).
time:  00010c48:note off:         (0x89,0x39,0x47).
time:  00010c48:note off:         (0x89,0x31,0x47).
time:  00010c98:note on:          (0x99,0x36,0x70).
time:  00010c98:note on:          (0x99,0x2e,0x7a).
time:  00010c98:note on:          (0x99,0x33,0x7a).
time:  00010cc0:note off:         (0x89,0x36,0x47).
time:  00010cc0:note off:         (0x89,0x2e,0x4d).
time:  00010cc0:note off:         (0x89,0x33,0x4d).
time:  00010d10:note on:          (0x99,0x26,0x70).
time:  00010d10:note on:          (0x99,0x36,0x70).
time:  00010d10:note on:          (0x99,0x2e,0x7a).
time:  00010d10:note on:          (0x99,0x33,0x7a).
time:  00010d10:note on:          (0x99,0x39,0x70).
time:  00010d10:note on:          (0x99,0x31,0x70).
time:  00010d38:note off:         (0x89,0x26,0x47).
time:  00010d38:note off:         (0x89,0x36,0x47).
time:  00010d38:note off:         (0x89,0x2e,0x4d).
time:  00010d38:note off:         (0x89,0x33,0x4d).
time:  00010d38:note off:         (0x89,0x39,0x47).
time:  00010d38:note off:         (0x89,0x31,0x47).
time:  00010d4c:note on:          (0x99,0x26,0x70).
time:  00010d74:note off:         (0x89,0x26,0x47).
time:  00010d88:note on:          (0x99,0x24,0x70).
time:  00010d88:note on:          (0x99,0x23,0x70).
time:  00010d88:note on:          (0x99,0x36,0x70).
time:  00010d88:note on:          (0x99,0x2e,0x7a).
time:  00010d88:note on:          (0x99,0x33,0x7a).
time:  00010db0:note off:         (0x89,0x24,0x47).
time:  00010db0:note off:         (0x89,0x23,0x47).
time:  00010db0:note off:         (0x89,0x36,0x47).
time:  00010db0:note off:         (0x89,0x2e,0x4d).
time:  00010db0:note off:         (0x89,0x33,0x4d).
time:  00010e00:note on:          (0x99,0x26,0x70).
time:  00010e00:note on:          (0x99,0x36,0x70).
time:  00010e00:note on:          (0x99,0x2e,0x7a).
time:  00010e00:note on:          (0x99,0x33,0x7a).
time:  00010e00:note on:          (0x99,0x39,0x70).
time:  00010e00:note on:          (0x99,0x31,0x70).
time:  00010e28:note off:         (0x89,0x26,0x47).
time:  00010e28:note off:         (0x89,0x36,0x47).
time:  00010e28:note off:         (0x89,0x2e,0x4d).
time:  00010e28:note off:         (0x89,0x33,0x4d).
time:  00010e28:note off:         (0x89,0x39,0x47).
time:  00010e28:note off:         (0x89,0x31,0x47).
time:  00010e3c:note on:          (0x99,0x26,0x70).
time:  00010e64:note off:         (0x89,0x26,0x47).
time:  00010e78:note on:          (0x99,0x23,0x70).
time:  00010e78:note on:          (0x99,0x24,0x70).
time:  00010e78:note on:          (0x99,0x36,0x70).
time:  00010e78:note on:          (0x99,0x2e,0x7a).
time:  00010e78:note on:          (0x99,0x33,0x7a).
time:  00010ea0:note off:         (0x89,0x23,0x47).
time:  00010ea0:note off:         (0x89,0x24,0x47).
time:  00010ea0:note off:         (0x89,0x36,0x47).
time:  00010ea0:note off:         (0x89,0x2e,0x4d).
time:  00010ea0:note off:         (0x89,0x33,0x4d).
time:  00010ef0:note on:          (0x99,0x36,0x70).
time:  00010ef0:note on:          (0x99,0x2e,0x7a).
time:  00010ef0:note on:          (0x99,0x33,0x7a).
time:  00010ef0:note on:          (0x99,0x39,0x70).
time:  00010ef0:note on:          (0x99,0x31,0x70).
time:  00010ef0:note on:          (0x99,0x26,0x70).
time:  00010ef0:note on:          (0x99,0x24,0x70).
time:  00010f18:note off:         (0x89,0x36,0x47).
time:  00010f18:note off:         (0x89,0x2e,0x4d).
time:  00010f18:note off:         (0x89,0x33,0x4d).
time:  00010f18:note off:         (0x89,0x39,0x47).
time:  00010f18:note off:         (0x89,0x31,0x47).
time:  00010f18:note off:         (0x89,0x26,0x47).
time:  00010f18:note off:         (0x89,0x24,0x47).
time:  00010f68:note on:          (0x99,0x36,0x70).
time:  00010f68:note on:          (0x99,0x2e,0x7a).
time:  00010f68:note on:          (0x99,0x33,0x7a).
time:  00010f90:note off:         (0x89,0x36,0x47).
time:  00010f90:note off:         (0x89,0x2e,0x4d).
time:  00010f90:note off:         (0x89,0x33,0x4d).
time:  00010fe0:note on:          (0x99,0x36,0x70).
time:  00010fe0:note on:          (0x99,0x2e,0x7a).
time:  00010fe0:note on:          (0x99,0x33,0x7a).
time:  00010fe0:note on:          (0x99,0x39,0x70).
time:  00010fe0:note on:          (0x99,0x31,0x70).
time:  00010fe0:note on:          (0x99,0x26,0x70).
time:  00010fe0:note on:          (0x99,0x24,0x70).
time:  00011008:note off:         (0x89,0x36,0x47).
time:  00011008:note off:         (0x89,0x2e,0x4d).
time:  00011008:note off:         (0x89,0x33,0x4d).
time:  00011008:note off:         (0x89,0x39,0x47).
time:  00011008:note off:         (0x89,0x31,0x47).
time:  00011008:note off:         (0x89,0x26,0x47).
time:  00011008:note off:         (0x89,0x24,0x47).
time:  00011058:note on:          (0x99,0x36,0x70).
time:  00011058:note on:          (0x99,0x2e,0x7a).
time:  00011058:note on:          (0x99,0x33,0x7a).
time:  00011058:note on:          (0x99,0x24,0x70).
time:  00011080:note off:         (0x89,0x36,0x47).
time:  00011080:note off:         (0x89,0x2e,0x4d).
time:  00011080:note off:         (0x89,0x33,0x4d).
time:  00011080:note off:         (0x89,0x24,0x47).
time:  000110d0:note on:          (0x99,0x36,0x70).
time:  000110d0:note on:          (0x99,0x2e,0x7a).
time:  000110d0:note on:          (0x99,0x33,0x7a).
time:  000110d0:note on:          (0x99,0x39,0x70).
time:  000110d0:note on:          (0x99,0x31,0x70).
time:  000110d0:note on:          (0x99,0x2d,0x70).
time:  000110d0:note on:          (0x99,0x26,0x70).
time:  000110d0:note on:          (0x99,0x24,0x70).
time:  000110f8:note off:         (0x89,0x36,0x47).
time:  000110f8:note off:         (0x89,0x2e,0x4d).
time:  000110f8:note off:         (0x89,0x33,0x4d).
time:  000110f8:note off:         (0x89,0x39,0x47).
time:  000110f8:note off:         (0x89,0x31,0x47).
time:  000110f8:note off:         (0x89,0x2d,0x47).
time:  000110f8:note off:         (0x89,0x26,0x47).
time:  000110f8:note off:         (0x89,0x24,0x47).
time:  00011148:note on:          (0x99,0x36,0x70).
time:  00011148:note on:          (0x99,0x2e,0x7a).
time:  00011148:note on:          (0x99,0x33,0x7a).
time:  00011148:note on:          (0x99,0x29,0x70).
time:  00011148:note on:          (0x99,0x26,0x70).
time:  00011148:note on:          (0x99,0x24,0x70).
time:  00011170:note off:         (0x89,0x36,0x47).
time:  00011170:note off:         (0x89,0x2e,0x4d).
time:  00011170:note off:         (0x89,0x33,0x4d).
time:  00011170:note off:         (0x89,0x29,0x47).
time:  00011170:note off:         (0x89,0x26,0x47).
time:  00011170:note off:         (0x89,0x24,0x47).
time:  000112b0:note on:          (0x99,0x36,0x70).
time:  000112b0:note on:          (0x99,0x2e,0x7a).
time:  000112b0:note on:          (0x99,0x33,0x7a).
time:  000112b0:note on:          (0x99,0x39,0x70).
time:  000112b0:note on:          (0x99,0x31,0x70).
time:  000112b0:note on:          (0x99,0x26,0x70).
time:  000112b0:note on:          (0x99,0x24,0x70).
time:  000112d8:note off:         (0x89,0x36,0x47).
time:  000112d8:note off:         (0x89,0x2e,0x4d).
time:  000112d8:note off:         (0x89,0x33,0x4d).
time:  000112d8:note off:         (0x89,0x39,0x47).
time:  000112d8:note off:         (0x89,0x31,0x47).
time:  000112d8:note off:         (0x89,0x26,0x47).
time:  000112d8:note off:         (0x89,0x24,0x47).
time:  00011328:note on:          (0x99,0x36,0x70).
time:  00011328:note on:          (0x99,0x2e,0x7a).
time:  00011328:note on:          (0x99,0x33,0x7a).
time:  00011350:note off:         (0x89,0x36,0x47).
time:  00011350:note off:         (0x89,0x2e,0x4d).
time:  00011350:note off:         (0x89,0x33,0x4d).
time:  000113a0:note on:          (0x99,0x36,0x70).
time:  000113a0:note on:          (0x99,0x2e,0x7a).
time:  000113a0:note on:          (0x99,0x33,0x7a).
time:  000113a0:note on:          (0x99,0x39,0x70).
time:  000113a0:note on:          (0x99,0x31,0x70).
time:  000113a0:note on:          (0x99,0x26,0x70).
time:  000113a0:note on:          (0x99,0x24,0x70).
time:  000113c8:note off:         (0x89,0x36,0x47).
time:  000113c8:note off:         (0x89,0x2e,0x4d).
time:  000113c8:note off:         (0x89,0x33,0x4d).
time:  000113c8:note off:         (0x89,0x39,0x47).
time:  000113c8:note off:         (0x89,0x31,0x47).
time:  000113c8:note off:         (0x89,0x26,0x47).
time:  000113c8:note off:         (0x89,0x24,0x47).
time:  00011418:note on:          (0x99,0x36,0x70).
time:  00011418:note on:          (0x99,0x2e,0x7a).
time:  00011418:note on:          (0x99,0x33,0x7a).
time:  00011418:note on:          (0x99,0x24,0x70).
time:  00011440:note off:         (0x89,0x36,0x47).
time:  00011440:note off:         (0x89,0x2e,0x4d).
time:  00011440:note off:         (0x89,0x33,0x4d).
time:  00011440:note off:         (0x89,0x24,0x47).
time:  00011490:note on:          (0x99,0x36,0x70).
time:  00011490:note on:          (0x99,0x2e,0x7a).
time:  00011490:note on:          (0x99,0x33,0x7a).
time:  00011490:note on:          (0x99,0x39,0x70).
time:  00011490:note on:          (0x99,0x31,0x70).
time:  00011490:note on:          (0x99,0x2d,0x70).
time:  00011490:note on:          (0x99,0x26,0x70).
time:  00011490:note on:          (0x99,0x24,0x70).
time:  000114b8:note off:         (0x89,0x36,0x47).
time:  000114b8:note off:         (0x89,0x2e,0x4d).
time:  000114b8:note off:         (0x89,0x33,0x4d).
time:  000114b8:note off:         (0x89,0x39,0x47).
time:  000114b8:note off:         (0x89,0x31,0x47).
time:  000114b8:note off:         (0x89,0x2d,0x47).
time:  000114b8:note off:         (0x89,0x26,0x47).
time:  000114b8:note off:         (0x89,0x24,0x47).
time:  00011508:note on:          (0x99,0x36,0x70).
time:  00011508:note on:          (0x99,0x2e,0x7a).
time:  00011508:note on:          (0x99,0x33,0x7a).
time:  00011508:note on:          (0x99,0x29,0x70).
time:  00011508:note on:          (0x99,0x26,0x70).
time:  00011508:note on:          (0x99,0x24,0x70).
time:  00011530:note off:         (0x89,0x36,0x47).
time:  00011530:note off:         (0x89,0x2e,0x4d).
time:  00011530:note off:         (0x89,0x33,0x4d).
time:  00011530:note off:         (0x89,0x29,0x47).
time:  00011530:note off:         (0x89,0x26,0x47).
time:  00011530:note off:         (0x89,0x24,0x47).
time:  00011544:note on:          (0x99,0x30,0x70).
time:  0001156c:note off:         (0x89,0x30,0x47).
time:  00011580:note on:          (0x99,0x26,0x70).
time:  00011580:note on:          (0x99,0x24,0x70).
time:  00011580:note on:          (0x99,0x39,0x70).
time:  00011580:note on:          (0x99,0x2f,0x70).
time:  000115a8:note off:         (0x89,0x26,0x47).
time:  000115a8:note off:         (0x89,0x24,0x47).
time:  000115a8:note off:         (0x89,0x39,0x47).
time:  000115a8:note off:         (0x89,0x2f,0x47).
time:  000115bc:note on:          (0x99,0x26,0x70).
time:  000115bc:note on:          (0x99,0x24,0x70).
time:  000115bc:note on:          (0x99,0x39,0x70).
time:  000115bc:note on:          (0x99,0x2d,0x70).
time:  000115e4:note off:         (0x89,0x26,0x47).
time:  000115e4:note off:         (0x89,0x24,0x47).
time:  000115e4:note off:         (0x89,0x39,0x47).
time:  000115e4:note off:         (0x89,0x2d,0x47).
time:  000115f8:note on:          (0x99,0x26,0x70).
time:  000115f8:note on:          (0x99,0x24,0x70).
time:  000115f8:note on:          (0x99,0x39,0x70).
time:  000115f8:note on:          (0x99,0x2b,0x70).
time:  00011620:note off:         (0x89,0x26,0x47).
time:  00011620:note off:         (0x89,0x24,0x47).
time:  00011620:note off:         (0x89,0x39,0x47).
time:  00011620:note off:         (0x89,0x2b,0x47).
time:  00011670:note on:          (0x99,0x36,0x70).
time:  00011670:note on:          (0x99,0x2e,0x7a).
time:  00011670:note on:          (0x99,0x33,0x7a).
time:  00011670:note on:          (0x99,0x39,0x70).
time:  00011670:note on:          (0x99,0x31,0x70).
time:  00011670:note on:          (0x99,0x26,0x70).
time:  00011670:note on:          (0x99,0x24,0x70).
time:  00011698:note off:         (0x89,0x36,0x47).
time:  00011698:note off:         (0x89,0x2e,0x4d).
time:  00011698:note off:         (0x89,0x33,0x4d).
time:  00011698:note off:         (0x89,0x39,0x47).
time:  00011698:note off:         (0x89,0x31,0x47).
time:  00011698:note off:         (0x89,0x26,0x47).
time:  00011698:note off:         (0x89,0x24,0x47).
time:  000116e8:note on:          (0x99,0x36,0x70).
time:  000116e8:note on:          (0x99,0x2e,0x7a).
time:  000116e8:note on:          (0x99,0x33,0x7a).
time:  00011710:note off:         (0x89,0x36,0x47).
time:  00011710:note off:         (0x89,0x2e,0x4d).
time:  00011710:note off:         (0x89,0x33,0x4d).
time:  00011760:note on:          (0x99,0x36,0x70).
time:  00011760:note on:          (0x99,0x2e,0x7a).
time:  00011760:note on:          (0x99,0x33,0x7a).
time:  00011760:note on:          (0x99,0x39,0x70).
time:  00011760:note on:          (0x99,0x31,0x70).
time:  00011760:note on:          (0x99,0x26,0x70).
time:  00011760:note on:          (0x99,0x24,0x70).
time:  00011788:note off:         (0x89,0x36,0x47).
time:  00011788:note off:         (0x89,0x2e,0x4d).
time:  00011788:note off:         (0x89,0x33,0x4d).
time:  00011788:note off:         (0x89,0x39,0x47).
time:  00011788:note off:         (0x89,0x31,0x47).
time:  00011788:note off:         (0x89,0x26,0x47).
time:  00011788:note off:         (0x89,0x24,0x47).
time:  000117d8:note on:          (0x99,0x36,0x70).
time:  000117d8:note on:          (0x99,0x2e,0x7a).
time:  000117d8:note on:          (0x99,0x33,0x7a).
time:  000117d8:note on:          (0x99,0x24,0x70).
time:  00011800:note off:         (0x89,0x36,0x47).
time:  00011800:note off:         (0x89,0x2e,0x4d).
time:  00011800:note off:         (0x89,0x33,0x4d).
time:  00011800:note off:         (0x89,0x24,0x47).
time:  00011850:note on:          (0x99,0x36,0x70).
time:  00011850:note on:          (0x99,0x2e,0x7a).
time:  00011850:note on:          (0x99,0x33,0x7a).
time:  00011850:note on:          (0x99,0x39,0x70).
time:  00011850:note on:          (0x99,0x31,0x70).
time:  00011850:note on:          (0x99,0x2d,0x70).
time:  00011850:note on:          (0x99,0x26,0x70).
time:  00011850:note on:          (0x99,0x24,0x70).
time:  00011878:note off:         (0x89,0x36,0x47).
time:  00011878:note off:         (0x89,0x2e,0x4d).
time:  00011878:note off:         (0x89,0x33,0x4d).
time:  00011878:note off:         (0x89,0x39,0x47).
time:  00011878:note off:         (0x89,0x31,0x47).
time:  00011878:note off:         (0x89,0x2d,0x47).
time:  00011878:note off:         (0x89,0x26,0x47).
time:  00011878:note off:         (0x89,0x24,0x47).
time:  000118c8:note on:          (0x99,0x36,0x70).
time:  000118c8:note on:          (0x99,0x2e,0x7a).
time:  000118c8:note on:          (0x99,0x33,0x7a).
time:  000118c8:note on:          (0x99,0x29,0x70).
time:  000118c8:note on:          (0x99,0x26,0x70).
time:  000118c8:note on:          (0x99,0x24,0x70).
time:  000118f0:note off:         (0x89,0x36,0x47).
time:  000118f0:note off:         (0x89,0x2e,0x4d).
time:  000118f0:note off:         (0x89,0x33,0x4d).
time:  000118f0:note off:         (0x89,0x29,0x47).
time:  000118f0:note off:         (0x89,0x26,0x47).
time:  000118f0:note off:         (0x89,0x24,0x47).
time:  00011a30:note on:          (0x99,0x36,0x70).
time:  00011a30:note on:          (0x99,0x2e,0x7a).
time:  00011a30:note on:          (0x99,0x33,0x7a).
time:  00011a30:note on:          (0x99,0x39,0x70).
time:  00011a30:note on:          (0x99,0x31,0x70).
time:  00011a30:note on:          (0x99,0x26,0x70).
time:  00011a30:note on:          (0x99,0x24,0x70).
time:  00011a58:note off:         (0x89,0x36,0x47).
time:  00011a58:note off:         (0x89,0x2e,0x4d).
time:  00011a58:note off:         (0x89,0x33,0x4d).
time:  00011a58:note off:         (0x89,0x39,0x47).
time:  00011a58:note off:         (0x89,0x31,0x47).
time:  00011a58:note off:         (0x89,0x26,0x47).
time:  00011a58:note off:         (0x89,0x24,0x47).
time:  00011aa8:note on:          (0x99,0x36,0x70).
time:  00011aa8:note on:          (0x99,0x2e,0x7a).
time:  00011aa8:note on:          (0x99,0x33,0x7a).
time:  00011ad0:note off:         (0x89,0x36,0x47).
time:  00011ad0:note off:         (0x89,0x2e,0x4d).
time:  00011ad0:note off:         (0x89,0x33,0x4d).
time:  00011b20:note on:          (0x99,0x36,0x70).
time:  00011b20:note on:          (0x99,0x2e,0x7a).
time:  00011b20:note on:          (0x99,0x33,0x7a).
time:  00011b20:note on:          (0x99,0x39,0x70).
time:  00011b20:note on:          (0x99,0x31,0x70).
time:  00011b20:note on:          (0x99,0x26,0x70).
time:  00011b20:note on:          (0x99,0x24,0x70).
time:  00011b48:note off:         (0x89,0x36,0x47).
time:  00011b48:note off:         (0x89,0x2e,0x4d).
time:  00011b48:note off:         (0x89,0x33,0x4d).
time:  00011b48:note off:         (0x89,0x39,0x47).
time:  00011b48:note off:         (0x89,0x31,0x47).
time:  00011b48:note off:         (0x89,0x26,0x47).
time:  00011b48:note off:         (0x89,0x24,0x47).
time:  00011b98:note on:          (0x99,0x36,0x70).
time:  00011b98:note on:          (0x99,0x2e,0x7a).
time:  00011b98:note on:          (0x99,0x33,0x7a).
time:  00011b98:note on:          (0x99,0x24,0x70).
time:  00011bc0:note off:         (0x89,0x36,0x47).
time:  00011bc0:note off:         (0x89,0x2e,0x4d).
time:  00011bc0:note off:         (0x89,0x33,0x4d).
time:  00011bc0:note off:         (0x89,0x24,0x47).
time:  00011c10:note on:          (0x99,0x36,0x70).
time:  00011c10:note on:          (0x99,0x2e,0x7a).
time:  00011c10:note on:          (0x99,0x33,0x7a).
time:  00011c10:note on:          (0x99,0x39,0x70).
time:  00011c10:note on:          (0x99,0x31,0x70).
time:  00011c10:note on:          (0x99,0x2d,0x70).
time:  00011c10:note on:          (0x99,0x26,0x70).
time:  00011c10:note on:          (0x99,0x24,0x70).
time:  00011c38:note off:         (0x89,0x36,0x47).
time:  00011c38:note off:         (0x89,0x2e,0x4d).
time:  00011c38:note off:         (0x89,0x33,0x4d).
time:  00011c38:note off:         (0x89,0x39,0x47).
time:  00011c38:note off:         (0x89,0x31,0x47).
time:  00011c38:note off:         (0x89,0x2d,0x47).
time:  00011c38:note off:         (0x89,0x26,0x47).
time:  00011c38:note off:         (0x89,0x24,0x47).
time:  00011c88:note on:          (0x99,0x36,0x70).
time:  00011c88:note on:          (0x99,0x2e,0x7a).
time:  00011c88:note on:          (0x99,0x33,0x7a).
time:  00011c88:note on:          (0x99,0x29,0x70).
time:  00011c88:note on:          (0x99,0x26,0x70).
time:  00011c88:note on:          (0x99,0x24,0x70).
time:  00011cb0:note off:         (0x89,0x36,0x47).
time:  00011cb0:note off:         (0x89,0x2e,0x4d).
time:  00011cb0:note off:         (0x89,0x33,0x4d).
time:  00011cb0:note off:         (0x89,0x29,0x47).
time:  00011cb0:note off:         (0x89,0x26,0x47).
time:  00011cb0:note off:         (0x89,0x24,0x47).
time:  00011cc4:note on:          (0x99,0x30,0x70).
time:  00011cec:note off:         (0x89,0x30,0x47).
time:  00011d00:note on:          (0x99,0x26,0x70).
time:  00011d00:note on:          (0x99,0x24,0x70).
time:  00011d00:note on:          (0x99,0x39,0x70).
time:  00011d00:note on:          (0x99,0x2f,0x70).
time:  00011d28:note off:         (0x89,0x26,0x47).
time:  00011d28:note off:         (0x89,0x24,0x47).
time:  00011d28:note off:         (0x89,0x39,0x47).
time:  00011d28:note off:         (0x89,0x2f,0x47).
time:  00011d3c:note on:          (0x99,0x26,0x70).
time:  00011d3c:note on:          (0x99,0x24,0x70).
time:  00011d3c:note on:          (0x99,0x39,0x70).
time:  00011d3c:note on:          (0x99,0x2d,0x70).
time:  00011d64:note off:         (0x89,0x26,0x47).
time:  00011d64:note off:         (0x89,0x24,0x47).
time:  00011d64:note off:         (0x89,0x39,0x47).
time:  00011d64:note off:         (0x89,0x2d,0x47).
time:  00011d78:note on:          (0x99,0x26,0x70).
time:  00011d78:note on:          (0x99,0x24,0x70).
time:  00011d78:note on:          (0x99,0x39,0x70).
time:  00011d78:note on:          (0x99,0x2b,0x70).
time:  00011da0:note off:         (0x89,0x26,0x47).
time:  00011da0:note off:         (0x89,0x24,0x47).
time:  00011da0:note off:         (0x89,0x39,0x47).
time:  00011da0:note off:         (0x89,0x2b,0x47).
time:  00011df0:note on:          (0x99,0x24,0x70).
time:  00011df0:note on:          (0x99,0x26,0x70).
time:  00011df0:note on:          (0x99,0x36,0x70).
time:  00011df0:note on:          (0x99,0x2e,0x7a).
time:  00011df0:note on:          (0x99,0x33,0x7a).
time:  00011df0:note on:          (0x99,0x39,0x70).
time:  00011df0:note on:          (0x99,0x31,0x70).
time:  00011e18:note off:         (0x89,0x24,0x47).
time:  00011e18:note off:         (0x89,0x26,0x47).
time:  00011e18:note off:         (0x89,0x36,0x47).
time:  00011e18:note off:         (0x89,0x2e,0x4d).
time:  00011e18:note off:         (0x89,0x33,0x4d).
time:  00011e18:note off:         (0x89,0x39,0x47).
time:  00011e18:note off:         (0x89,0x31,0x47).
time:  00011e68:note on:          (0x99,0x36,0x70).
time:  00011e68:note on:          (0x99,0x2e,0x7a).
time:  00011e68:note on:          (0x99,0x33,0x7a).
time:  00011e90:note off:         (0x89,0x36,0x47).
time:  00011e90:note off:         (0x89,0x2e,0x4d).
time:  00011e90:note off:         (0x89,0x33,0x4d).
time:  00011ee0:note on:          (0x99,0x24,0x70).
time:  00011ee0:note on:          (0x99,0x26,0x70).
time:  00011ee0:note on:          (0x99,0x36,0x70).
time:  00011ee0:note on:          (0x99,0x2e,0x7a).
time:  00011ee0:note on:          (0x99,0x33,0x7a).
time:  00011ee0:note on:          (0x99,0x39,0x70).
time:  00011ee0:note on:          (0x99,0x31,0x70).
time:  00011f08:note off:         (0x89,0x24,0x47).
time:  00011f08:note off:         (0x89,0x26,0x47).
time:  00011f08:note off:         (0x89,0x36,0x47).
time:  00011f08:note off:         (0x89,0x2e,0x4d).
time:  00011f08:note off:         (0x89,0x33,0x4d).
time:  00011f08:note off:         (0x89,0x39,0x47).
time:  00011f08:note off:         (0x89,0x31,0x47).
time:  00011f58:note on:          (0x99,0x36,0x70).
time:  00011f58:note on:          (0x99,0x2e,0x7a).
time:  00011f58:note on:          (0x99,0x33,0x7a).
time:  00011f80:note off:         (0x89,0x36,0x47).
time:  00011f80:note off:         (0x89,0x2e,0x4d).
time:  00011f80:note off:         (0x89,0x33,0x4d).
time:  00011fd0:note on:          (0x99,0x26,0x70).
time:  00011fd0:note on:          (0x99,0x36,0x70).
time:  00011fd0:note on:          (0x99,0x2e,0x7a).
time:  00011fd0:note on:          (0x99,0x33,0x7a).
time:  00011fd0:note on:          (0x99,0x39,0x70).
time:  00011fd0:note on:          (0x99,0x31,0x70).
time:  00011ff8:note off:         (0x89,0x26,0x47).
time:  00011ff8:note off:         (0x89,0x36,0x47).
time:  00011ff8:note off:         (0x89,0x2e,0x4d).
time:  00011ff8:note off:         (0x89,0x33,0x4d).
time:  00011ff8:note off:         (0x89,0x39,0x47).
time:  00011ff8:note off:         (0x89,0x31,0x47).
time:  0001200c:note on:          (0x99,0x26,0x70).
time:  00012034:note off:         (0x89,0x26,0x47).
time:  00012048:note on:          (0x99,0x24,0x70).
time:  00012048:note on:          (0x99,0x23,0x70).
time:  00012048:note on:          (0x99,0x36,0x70).
time:  00012048:note on:          (0x99,0x2e,0x7a).
time:  00012048:note on:          (0x99,0x33,0x7a).
time:  00012070:note off:         (0x89,0x24,0x47).
time:  00012070:note off:         (0x89,0x23,0x47).
time:  00012070:note off:         (0x89,0x36,0x47).
time:  00012070:note off:         (0x89,0x2e,0x4d).
time:  00012070:note off:         (0x89,0x33,0x4d).
time:  000120c0:note on:          (0x99,0x26,0x70).
time:  000120c0:note on:          (0x99,0x36,0x70).
time:  000120c0:note on:          (0x99,0x2e,0x7a).
time:  000120c0:note on:          (0x99,0x33,0x7a).
time:  000120c0:note on:          (0x99,0x39,0x70).
time:  000120c0:note on:          (0x99,0x31,0x70).
time:  000120e8:note off:         (0x89,0x26,0x47).
time:  000120e8:note off:         (0x89,0x36,0x47).
time:  000120e8:note off:         (0x89,0x2e,0x4d).
time:  000120e8:note off:         (0x89,0x33,0x4d).
time:  000120e8:note off:         (0x89,0x39,0x47).
time:  000120e8:note off:         (0x89,0x31,0x47).
time:  000120fc:note on:          (0x99,0x26,0x70).
time:  00012124:note off:         (0x89,0x26,0x47).
time:  00012138:note on:          (0x99,0x23,0x70).
time:  00012138:note on:          (0x99,0x24,0x70).
time:  00012138:note on:          (0x99,0x36,0x70).
time:  00012138:note on:          (0x99,0x2e,0x7a).
time:  00012138:note on:          (0x99,0x33,0x7a).
time:  00012160:note off:         (0x89,0x23,0x47).
time:  00012160:note off:         (0x89,0x24,0x47).
time:  00012160:note off:         (0x89,0x36,0x47).
time:  00012160:note off:         (0x89,0x2e,0x4d).
time:  00012160:note off:         (0x89,0x33,0x4d).
time:  000121b0:note on:          (0x99,0x24,0x70).
time:  000121b0:note on:          (0x99,0x26,0x70).
time:  000121b0:note on:          (0x99,0x36,0x70).
time:  000121b0:note on:          (0x99,0x2e,0x7a).
time:  000121b0:note on:          (0x99,0x33,0x7a).
time:  000121b0:note on:          (0x99,0x39,0x70).
time:  000121b0:note on:          (0x99,0x31,0x70).
time:  000121d8:note off:         (0x89,0x24,0x47).
time:  000121d8:note off:         (0x89,0x26,0x47).
time:  000121d8:note off:         (0x89,0x36,0x47).
time:  000121d8:note off:         (0x89,0x2e,0x4d).
time:  000121d8:note off:         (0x89,0x33,0x4d).
time:  000121d8:note off:         (0x89,0x39,0x47).
time:  000121d8:note off:         (0x89,0x31,0x47).
time:  00012228:note on:          (0x99,0x36,0x70).
time:  00012228:note on:          (0x99,0x2e,0x7a).
time:  00012228:note on:          (0x99,0x33,0x7a).
time:  00012250:note off:         (0x89,0x36,0x47).
time:  00012250:note off:         (0x89,0x2e,0x4d).
time:  00012250:note off:         (0x89,0x33,0x4d).
time:  000122a0:note on:          (0x99,0x24,0x70).
time:  000122a0:note on:          (0x99,0x26,0x70).
time:  000122a0:note on:          (0x99,0x36,0x70).
time:  000122a0:note on:          (0x99,0x2e,0x7a).
time:  000122a0:note on:          (0x99,0x33,0x7a).
time:  000122a0:note on:          (0x99,0x39,0x70).
time:  000122a0:note on:          (0x99,0x31,0x70).
time:  000122c8:note off:         (0x89,0x24,0x47).
time:  000122c8:note off:         (0x89,0x26,0x47).
time:  000122c8:note off:         (0x89,0x36,0x47).
time:  000122c8:note off:         (0x89,0x2e,0x4d).
time:  000122c8:note off:         (0x89,0x33,0x4d).
time:  000122c8:note off:         (0x89,0x39,0x47).
time:  000122c8:note off:         (0x89,0x31,0x47).
time:  00012318:note on:          (0x99,0x36,0x70).
time:  00012318:note on:          (0x99,0x2e,0x7a).
time:  00012318:note on:          (0x99,0x33,0x7a).
time:  00012340:note off:         (0x89,0x36,0x47).
time:  00012340:note off:         (0x89,0x2e,0x4d).
time:  00012340:note off:         (0x89,0x33,0x4d).
time:  00012390:note on:          (0x99,0x26,0x70).
time:  00012390:note on:          (0x99,0x36,0x70).
time:  00012390:note on:          (0x99,0x2e,0x7a).
time:  00012390:note on:          (0x99,0x33,0x7a).
time:  00012390:note on:          (0x99,0x39,0x70).
time:  00012390:note on:          (0x99,0x31,0x70).
time:  000123b8:note off:         (0x89,0x26,0x47).
time:  000123b8:note off:         (0x89,0x36,0x47).
time:  000123b8:note off:         (0x89,0x2e,0x4d).
time:  000123b8:note off:         (0x89,0x33,0x4d).
time:  000123b8:note off:         (0x89,0x39,0x47).
time:  000123b8:note off:         (0x89,0x31,0x47).
time:  000123cc:note on:          (0x99,0x26,0x70).
time:  000123f4:note off:         (0x89,0x26,0x47).
time:  00012408:note on:          (0x99,0x24,0x70).
time:  00012408:note on:          (0x99,0x23,0x70).
time:  00012408:note on:          (0x99,0x36,0x70).
time:  00012408:note on:          (0x99,0x2e,0x7a).
time:  00012408:note on:          (0x99,0x33,0x7a).
time:  00012430:note off:         (0x89,0x24,0x47).
time:  00012430:note off:         (0x89,0x23,0x47).
time:  00012430:note off:         (0x89,0x36,0x47).
time:  00012430:note off:         (0x89,0x2e,0x4d).
time:  00012430:note off:         (0x89,0x33,0x4d).
time:  00012480:note on:          (0x99,0x26,0x70).
time:  00012480:note on:          (0x99,0x36,0x70).
time:  00012480:note on:          (0x99,0x2e,0x7a).
time:  00012480:note on:          (0x99,0x33,0x7a).
time:  00012480:note on:          (0x99,0x39,0x70).
time:  00012480:note on:          (0x99,0x31,0x70).
time:  000124a8:note off:         (0x89,0x26,0x47).
time:  000124a8:note off:         (0x89,0x36,0x47).
time:  000124a8:note off:         (0x89,0x2e,0x4d).
time:  000124a8:note off:         (0x89,0x33,0x4d).
time:  000124a8:note off:         (0x89,0x39,0x47).
time:  000124a8:note off:         (0x89,0x31,0x47).
time:  000124bc:note on:          (0x99,0x26,0x70).
time:  000124e4:note off:         (0x89,0x26,0x47).
time:  000124f8:note on:          (0x99,0x23,0x70).
time:  000124f8:note on:          (0x99,0x24,0x70).
time:  000124f8:note on:          (0x99,0x36,0x70).
time:  000124f8:note on:          (0x99,0x2e,0x7a).
time:  000124f8:note on:          (0x99,0x33,0x7a).
time:  00012520:note off:         (0x89,0x23,0x47).
time:  00012520:note off:         (0x89,0x24,0x47).
time:  00012520:note off:         (0x89,0x36,0x47).
time:  00012520:note off:         (0x89,0x2e,0x4d).
time:  00012520:note off:         (0x89,0x33,0x4d).
time:  00012570:note on:          (0x99,0x24,0x70).
time:  00012570:note on:          (0x99,0x26,0x70).
time:  00012570:note on:          (0x99,0x36,0x70).
time:  00012570:note on:          (0x99,0x2e,0x7a).
time:  00012570:note on:          (0x99,0x33,0x7a).
time:  00012570:note on:          (0x99,0x39,0x70).
time:  00012570:note on:          (0x99,0x31,0x70).
time:  00012598:note off:         (0x89,0x24,0x47).
time:  00012598:note off:         (0x89,0x26,0x47).
time:  00012598:note off:         (0x89,0x36,0x47).
time:  00012598:note off:         (0x89,0x2e,0x4d).
time:  00012598:note off:         (0x89,0x33,0x4d).
time:  00012598:note off:         (0x89,0x39,0x47).
time:  00012598:note off:         (0x89,0x31,0x47).
time:  000125e8:note on:          (0x99,0x36,0x70).
time:  000125e8:note on:          (0x99,0x2e,0x7a).
time:  000125e8:note on:          (0x99,0x33,0x7a).
time:  00012610:note off:         (0x89,0x36,0x47).
time:  00012610:note off:         (0x89,0x2e,0x4d).
time:  00012610:note off:         (0x89,0x33,0x4d).
time:  00012660:note on:          (0x99,0x24,0x70).
time:  00012660:note on:          (0x99,0x26,0x70).
time:  00012660:note on:          (0x99,0x36,0x70).
time:  00012660:note on:          (0x99,0x2e,0x7a).
time:  00012660:note on:          (0x99,0x33,0x7a).
time:  00012660:note on:          (0x99,0x39,0x70).
time:  00012660:note on:          (0x99,0x31,0x70).
time:  00012688:note off:         (0x89,0x24,0x47).
time:  00012688:note off:         (0x89,0x26,0x47).
time:  00012688:note off:         (0x89,0x36,0x47).
time:  00012688:note off:         (0x89,0x2e,0x4d).
time:  00012688:note off:         (0x89,0x33,0x4d).
time:  00012688:note off:         (0x89,0x39,0x47).
time:  00012688:note off:         (0x89,0x31,0x47).
time:  000126d8:note on:          (0x99,0x36,0x70).
time:  000126d8:note on:          (0x99,0x2e,0x7a).
time:  000126d8:note on:          (0x99,0x33,0x7a).
time:  00012700:note off:         (0x89,0x36,0x47).
time:  00012700:note off:         (0x89,0x2e,0x4d).
time:  00012700:note off:         (0x89,0x33,0x4d).
time:  00012750:note on:          (0x99,0x26,0x70).
time:  00012750:note on:          (0x99,0x36,0x70).
time:  00012750:note on:          (0x99,0x2e,0x7a).
time:  00012750:note on:          (0x99,0x33,0x7a).
time:  00012750:note on:          (0x99,0x39,0x70).
time:  00012750:note on:          (0x99,0x31,0x70).
time:  00012778:note off:         (0x89,0x26,0x47).
time:  00012778:note off:         (0x89,0x36,0x47).
time:  00012778:note off:         (0x89,0x2e,0x4d).
time:  00012778:note off:         (0x89,0x33,0x4d).
time:  00012778:note off:         (0x89,0x39,0x47).
time:  00012778:note off:         (0x89,0x31,0x47).
time:  0001278c:note on:          (0x99,0x26,0x70).
time:  000127b4:note off:         (0x89,0x26,0x47).
time:  000127c8:note on:          (0x99,0x24,0x70).
time:  000127c8:note on:          (0x99,0x23,0x70).
time:  000127c8:note on:          (0x99,0x36,0x70).
time:  000127c8:note on:          (0x99,0x2e,0x7a).
time:  000127c8:note on:          (0x99,0x33,0x7a).
time:  000127f0:note off:         (0x89,0x24,0x47).
time:  000127f0:note off:         (0x89,0x23,0x47).
time:  000127f0:note off:         (0x89,0x36,0x47).
time:  000127f0:note off:         (0x89,0x2e,0x4d).
time:  000127f0:note off:         (0x89,0x33,0x4d).
time:  00012840:note on:          (0x99,0x26,0x70).
time:  00012840:note on:          (0x99,0x36,0x70).
time:  00012840:note on:          (0x99,0x2e,0x7a).
time:  00012840:note on:          (0x99,0x33,0x7a).
time:  00012840:note on:          (0x99,0x39,0x70).
time:  00012840:note on:          (0x99,0x31,0x70).
time:  00012868:note off:         (0x89,0x26,0x47).
time:  00012868:note off:         (0x89,0x36,0x47).
time:  00012868:note off:         (0x89,0x2e,0x4d).
time:  00012868:note off:         (0x89,0x33,0x4d).
time:  00012868:note off:         (0x89,0x39,0x47).
time:  00012868:note off:         (0x89,0x31,0x47).
time:  0001287c:note on:          (0x99,0x26,0x70).
time:  000128a4:note off:         (0x89,0x26,0x47).
time:  000128b8:note on:          (0x99,0x23,0x70).
time:  000128b8:note on:          (0x99,0x24,0x70).
time:  000128b8:note on:          (0x99,0x36,0x70).
time:  000128b8:note on:          (0x99,0x2e,0x7a).
time:  000128b8:note on:          (0x99,0x33,0x7a).
time:  000128e0:note off:         (0x89,0x23,0x47).
time:  000128e0:note off:         (0x89,0x24,0x47).
time:  000128e0:note off:         (0x89,0x36,0x47).
time:  000128e0:note off:         (0x89,0x2e,0x4d).
time:  000128e0:note off:         (0x89,0x33,0x4d).
time:  00012930:note on:          (0x99,0x24,0x70).
time:  00012930:note on:          (0x99,0x26,0x70).
time:  00012930:note on:          (0x99,0x36,0x70).
time:  00012930:note on:          (0x99,0x2e,0x7a).
time:  00012930:note on:          (0x99,0x33,0x7a).
time:  00012930:note on:          (0x99,0x39,0x70).
time:  00012930:note on:          (0x99,0x31,0x70).
time:  00012958:note off:         (0x89,0x24,0x47).
time:  00012958:note off:         (0x89,0x26,0x47).
time:  00012958:note off:         (0x89,0x36,0x47).
time:  00012958:note off:         (0x89,0x2e,0x4d).
time:  00012958:note off:         (0x89,0x33,0x4d).
time:  00012958:note off:         (0x89,0x39,0x47).
time:  00012958:note off:         (0x89,0x31,0x47).
time:  000129a8:note on:          (0x99,0x36,0x70).
time:  000129a8:note on:          (0x99,0x2e,0x7a).
time:  000129a8:note on:          (0x99,0x33,0x7a).
time:  000129d0:note off:         (0x89,0x36,0x47).
time:  000129d0:note off:         (0x89,0x2e,0x4d).
time:  000129d0:note off:         (0x89,0x33,0x4d).
time:  00012a20:note on:          (0x99,0x24,0x70).
time:  00012a20:note on:          (0x99,0x26,0x70).
time:  00012a20:note on:          (0x99,0x36,0x70).
time:  00012a20:note on:          (0x99,0x2e,0x7a).
time:  00012a20:note on:          (0x99,0x33,0x7a).
time:  00012a20:note on:          (0x99,0x39,0x70).
time:  00012a20:note on:          (0x99,0x31,0x70).
time:  00012a48:note off:         (0x89,0x24,0x47).
time:  00012a48:note off:         (0x89,0x26,0x47).
time:  00012a48:note off:         (0x89,0x36,0x47).
time:  00012a48:note off:         (0x89,0x2e,0x4d).
time:  00012a48:note off:         (0x89,0x33,0x4d).
time:  00012a48:note off:         (0x89,0x39,0x47).
time:  00012a48:note off:         (0x89,0x31,0x47).
time:  00012a98:note on:          (0x99,0x36,0x70).
time:  00012a98:note on:          (0x99,0x2e,0x7a).
time:  00012a98:note on:          (0x99,0x33,0x7a).
time:  00012ac0:note off:         (0x89,0x36,0x47).
time:  00012ac0:note off:         (0x89,0x2e,0x4d).
time:  00012ac0:note off:         (0x89,0x33,0x4d).
time:  00012b10:note on:          (0x99,0x26,0x70).
time:  00012b10:note on:          (0x99,0x36,0x70).
time:  00012b10:note on:          (0x99,0x2e,0x7a).
time:  00012b10:note on:          (0x99,0x33,0x7a).
time:  00012b10:note on:          (0x99,0x39,0x70).
time:  00012b10:note on:          (0x99,0x31,0x70).
time:  00012b38:note off:         (0x89,0x26,0x47).
time:  00012b38:note off:         (0x89,0x36,0x47).
time:  00012b38:note off:         (0x89,0x2e,0x4d).
time:  00012b38:note off:         (0x89,0x33,0x4d).
time:  00012b38:note off:         (0x89,0x39,0x47).
time:  00012b38:note off:         (0x89,0x31,0x47).
time:  00012b4c:note on:          (0x99,0x26,0x70).
time:  00012b74:note off:         (0x89,0x26,0x47).
time:  00012b88:note on:          (0x99,0x24,0x70).
time:  00012b88:note on:          (0x99,0x23,0x70).
time:  00012b88:note on:          (0x99,0x36,0x70).
time:  00012b88:note on:          (0x99,0x2e,0x7a).
time:  00012b88:note on:          (0x99,0x33,0x7a).
time:  00012bb0:note off:         (0x89,0x24,0x47).
time:  00012bb0:note off:         (0x89,0x23,0x47).
time:  00012bb0:note off:         (0x89,0x36,0x47).
time:  00012bb0:note off:         (0x89,0x2e,0x4d).
time:  00012bb0:note off:         (0x89,0x33,0x4d).
time:  00012c00:note on:          (0x99,0x26,0x70).
time:  00012c00:note on:          (0x99,0x36,0x70).
time:  00012c00:note on:          (0x99,0x2e,0x7a).
time:  00012c00:note on:          (0x99,0x33,0x7a).
time:  00012c00:note on:          (0x99,0x39,0x70).
time:  00012c00:note on:          (0x99,0x31,0x70).
time:  00012c28:note off:         (0x89,0x26,0x47).
time:  00012c28:note off:         (0x89,0x36,0x47).
time:  00012c28:note off:         (0x89,0x2e,0x4d).
time:  00012c28:note off:         (0x89,0x33,0x4d).
time:  00012c28:note off:         (0x89,0x39,0x47).
time:  00012c28:note off:         (0x89,0x31,0x47).
time:  00012c3c:note on:          (0x99,0x26,0x70).
time:  00012c64:note off:         (0x89,0x26,0x47).
time:  00012c78:note on:          (0x99,0x23,0x70).
time:  00012c78:note on:          (0x99,0x24,0x70).
time:  00012c78:note on:          (0x99,0x36,0x70).
time:  00012c78:note on:          (0x99,0x2e,0x7a).
time:  00012c78:note on:          (0x99,0x33,0x7a).
time:  00012ca0:note off:         (0x89,0x23,0x47).
time:  00012ca0:note off:         (0x89,0x24,0x47).
time:  00012ca0:note off:         (0x89,0x36,0x47).
time:  00012ca0:note off:         (0x89,0x2e,0x4d).
time:  00012ca0:note off:         (0x89,0x33,0x4d).
time:  00012cf0:note on:          (0x99,0x24,0x70).
time:  00012cf0:note on:          (0x99,0x26,0x70).
time:  00012cf0:note on:          (0x99,0x36,0x70).
time:  00012cf0:note on:          (0x99,0x2e,0x7a).
time:  00012cf0:note on:          (0x99,0x33,0x7a).
time:  00012cf0:note on:          (0x99,0x39,0x70).
time:  00012cf0:note on:          (0x99,0x31,0x70).
time:  00012d18:note off:         (0x89,0x24,0x47).
time:  00012d18:note off:         (0x89,0x26,0x47).
time:  00012d18:note off:         (0x89,0x36,0x47).
time:  00012d18:note off:         (0x89,0x2e,0x4d).
time:  00012d18:note off:         (0x89,0x33,0x4d).
time:  00012d18:note off:         (0x89,0x39,0x47).
time:  00012d18:note off:         (0x89,0x31,0x47).
time:  00012d68:note on:          (0x99,0x36,0x70).
time:  00012d68:note on:          (0x99,0x2e,0x7a).
time:  00012d68:note on:          (0x99,0x33,0x7a).
time:  00012d90:note off:         (0x89,0x36,0x47).
time:  00012d90:note off:         (0x89,0x2e,0x4d).
time:  00012d90:note off:         (0x89,0x33,0x4d).
time:  00012de0:note on:          (0x99,0x24,0x70).
time:  00012de0:note on:          (0x99,0x26,0x70).
time:  00012de0:note on:          (0x99,0x36,0x70).
time:  00012de0:note on:          (0x99,0x2e,0x7a).
time:  00012de0:note on:          (0x99,0x33,0x7a).
time:  00012de0:note on:          (0x99,0x39,0x70).
time:  00012de0:note on:          (0x99,0x31,0x70).
time:  00012e08:note off:         (0x89,0x24,0x47).
time:  00012e08:note off:         (0x89,0x26,0x47).
time:  00012e08:note off:         (0x89,0x36,0x47).
time:  00012e08:note off:         (0x89,0x2e,0x4d).
time:  00012e08:note off:         (0x89,0x33,0x4d).
time:  00012e08:note off:         (0x89,0x39,0x47).
time:  00012e08:note off:         (0x89,0x31,0x47).
time:  00012e58:note on:          (0x99,0x36,0x70).
time:  00012e58:note on:          (0x99,0x2e,0x7a).
time:  00012e58:note on:          (0x99,0x33,0x7a).
time:  00012e80:note off:         (0x89,0x36,0x47).
time:  00012e80:note off:         (0x89,0x2e,0x4d).
time:  00012e80:note off:         (0x89,0x33,0x4d).
time:  00012ed0:note on:          (0x99,0x26,0x70).
time:  00012ed0:note on:          (0x99,0x36,0x70).
time:  00012ed0:note on:          (0x99,0x2e,0x7a).
time:  00012ed0:note on:          (0x99,0x33,0x7a).
time:  00012ed0:note on:          (0x99,0x39,0x70).
time:  00012ed0:note on:          (0x99,0x31,0x70).
time:  00012ef8:note off:         (0x89,0x26,0x47).
time:  00012ef8:note off:         (0x89,0x36,0x47).
time:  00012ef8:note off:         (0x89,0x2e,0x4d).
time:  00012ef8:note off:         (0x89,0x33,0x4d).
time:  00012ef8:note off:         (0x89,0x39,0x47).
time:  00012ef8:note off:         (0x89,0x31,0x47).
time:  00012f0c:note on:          (0x99,0x26,0x70).
time:  00012f34:note off:         (0x89,0x26,0x47).
time:  00012f48:note on:          (0x99,0x24,0x70).
time:  00012f48:note on:          (0x99,0x23,0x70).
time:  00012f48:note on:          (0x99,0x36,0x70).
time:  00012f48:note on:          (0x99,0x2e,0x7a).
time:  00012f48:note on:          (0x99,0x33,0x7a).
time:  00012f70:note off:         (0x89,0x24,0x47).
time:  00012f70:note off:         (0x89,0x23,0x47).
time:  00012f70:note off:         (0x89,0x36,0x47).
time:  00012f70:note off:         (0x89,0x2e,0x4d).
time:  00012f70:note off:         (0x89,0x33,0x4d).
time:  00012fc0:note on:          (0x99,0x26,0x70).
time:  00012fc0:note on:          (0x99,0x36,0x70).
time:  00012fc0:note on:          (0x99,0x2e,0x7a).
time:  00012fc0:note on:          (0x99,0x33,0x7a).
time:  00012fc0:note on:          (0x99,0x39,0x70).
time:  00012fc0:note on:          (0x99,0x31,0x70).
time:  00012fe8:note off:         (0x89,0x26,0x47).
time:  00012fe8:note off:         (0x89,0x36,0x47).
time:  00012fe8:note off:         (0x89,0x2e,0x4d).
time:  00012fe8:note off:         (0x89,0x33,0x4d).
time:  00012fe8:note off:         (0x89,0x39,0x47).
time:  00012fe8:note off:         (0x89,0x31,0x47).
time:  00012ffc:note on:          (0x99,0x26,0x70).
time:  00013024:note off:         (0x89,0x26,0x47).
time:  00013038:note on:          (0x99,0x23,0x70).
time:  00013038:note on:          (0x99,0x24,0x70).
time:  00013038:note on:          (0x99,0x36,0x70).
time:  00013038:note on:          (0x99,0x2e,0x7a).
time:  00013038:note on:          (0x99,0x33,0x7a).
time:  00013060:note off:         (0x89,0x23,0x47).
time:  00013060:note off:         (0x89,0x24,0x47).
time:  00013060:note off:         (0x89,0x36,0x47).
time:  00013060:note off:         (0x89,0x2e,0x4d).
time:  00013060:note off:         (0x89,0x33,0x4d).
time:  000130b0:note on:          (0x99,0x24,0x70).
time:  000130b0:note on:          (0x99,0x26,0x70).
time:  000130b0:note on:          (0x99,0x36,0x70).
time:  000130b0:note on:          (0x99,0x2e,0x7a).
time:  000130b0:note on:          (0x99,0x33,0x7a).
time:  000130b0:note on:          (0x99,0x39,0x70).
time:  000130b0:note on:          (0x99,0x31,0x70).
time:  000130d8:note off:         (0x89,0x24,0x47).
time:  000130d8:note off:         (0x89,0x26,0x47).
time:  000130d8:note off:         (0x89,0x36,0x47).
time:  000130d8:note off:         (0x89,0x2e,0x4d).
time:  000130d8:note off:         (0x89,0x33,0x4d).
time:  000130d8:note off:         (0x89,0x39,0x47).
time:  000130d8:note off:         (0x89,0x31,0x47).
time:  00013128:note on:          (0x99,0x36,0x70).
time:  00013128:note on:          (0x99,0x2e,0x7a).
time:  00013128:note on:          (0x99,0x33,0x7a).
time:  00013150:note off:         (0x89,0x36,0x47).
time:  00013150:note off:         (0x89,0x2e,0x4d).
time:  00013150:note off:         (0x89,0x33,0x4d).
time:  000131a0:note on:          (0x99,0x24,0x70).
time:  000131a0:note on:          (0x99,0x26,0x70).
time:  000131a0:note on:          (0x99,0x36,0x70).
time:  000131a0:note on:          (0x99,0x2e,0x7a).
time:  000131a0:note on:          (0x99,0x33,0x7a).
time:  000131a0:note on:          (0x99,0x39,0x70).
time:  000131a0:note on:          (0x99,0x31,0x70).
time:  000131c8:note off:         (0x89,0x24,0x47).
time:  000131c8:note off:         (0x89,0x26,0x47).
time:  000131c8:note off:         (0x89,0x36,0x47).
time:  000131c8:note off:         (0x89,0x2e,0x4d).
time:  000131c8:note off:         (0x89,0x33,0x4d).
time:  000131c8:note off:         (0x89,0x39,0x47).
time:  000131c8:note off:         (0x89,0x31,0x47).
time:  00013218:note on:          (0x99,0x36,0x70).
time:  00013218:note on:          (0x99,0x2e,0x7a).
time:  00013218:note on:          (0x99,0x33,0x7a).
time:  00013240:note off:         (0x89,0x36,0x47).
time:  00013240:note off:         (0x89,0x2e,0x4d).
time:  00013240:note off:         (0x89,0x33,0x4d).
time:  00013290:note on:          (0x99,0x26,0x70).
time:  00013290:note on:          (0x99,0x36,0x70).
time:  00013290:note on:          (0x99,0x2e,0x7a).
time:  00013290:note on:          (0x99,0x33,0x7a).
time:  00013290:note on:          (0x99,0x39,0x70).
time:  00013290:note on:          (0x99,0x31,0x70).
time:  000132b8:note off:         (0x89,0x26,0x47).
time:  000132b8:note off:         (0x89,0x36,0x47).
time:  000132b8:note off:         (0x89,0x2e,0x4d).
time:  000132b8:note off:         (0x89,0x33,0x4d).
time:  000132b8:note off:         (0x89,0x39,0x47).
time:  000132b8:note off:         (0x89,0x31,0x47).
time:  000132cc:note on:          (0x99,0x26,0x70).
time:  000132f4:note off:         (0x89,0x26,0x47).
time:  00013308:note on:          (0x99,0x24,0x70).
time:  00013308:note on:          (0x99,0x23,0x70).
time:  00013308:note on:          (0x99,0x36,0x70).
time:  00013308:note on:          (0x99,0x2e,0x7a).
time:  00013308:note on:          (0x99,0x33,0x7a).
time:  00013330:note off:         (0x89,0x24,0x47).
time:  00013330:note off:         (0x89,0x23,0x47).
time:  00013330:note off:         (0x89,0x36,0x47).
time:  00013330:note off:         (0x89,0x2e,0x4d).
time:  00013330:note off:         (0x89,0x33,0x4d).
time:  00013380:note on:          (0x99,0x26,0x70).
time:  00013380:note on:          (0x99,0x36,0x70).
time:  00013380:note on:          (0x99,0x2e,0x7a).
time:  00013380:note on:          (0x99,0x33,0x7a).
time:  00013380:note on:          (0x99,0x39,0x70).
time:  00013380:note on:          (0x99,0x31,0x70).
time:  000133a8:note off:         (0x89,0x26,0x47).
time:  000133a8:note off:         (0x89,0x36,0x47).
time:  000133a8:note off:         (0x89,0x2e,0x4d).
time:  000133a8:note off:         (0x89,0x33,0x4d).
time:  000133a8:note off:         (0x89,0x39,0x47).
time:  000133a8:note off:         (0x89,0x31,0x47).
time:  000133bc:note on:          (0x99,0x26,0x70).
time:  000133e4:note off:         (0x89,0x26,0x47).
time:  000133f8:note on:          (0x99,0x23,0x70).
time:  000133f8:note on:          (0x99,0x24,0x70).
time:  000133f8:note on:          (0x99,0x36,0x70).
time:  000133f8:note on:          (0x99,0x2e,0x7a).
time:  000133f8:note on:          (0x99,0x33,0x7a).
time:  00013420:note off:         (0x89,0x23,0x47).
time:  00013420:note off:         (0x89,0x24,0x47).
time:  00013420:note off:         (0x89,0x36,0x47).
time:  00013420:note off:         (0x89,0x2e,0x4d).
time:  00013420:note off:         (0x89,0x33,0x4d).
time:  00013470:note on:          (0x99,0x24,0x70).
time:  00013470:note on:          (0x99,0x26,0x70).
time:  00013470:note on:          (0x99,0x36,0x70).
time:  00013470:note on:          (0x99,0x2e,0x7a).
time:  00013470:note on:          (0x99,0x33,0x7a).
time:  00013470:note on:          (0x99,0x39,0x70).
time:  00013470:note on:          (0x99,0x31,0x70).
time:  00013498:note off:         (0x89,0x24,0x47).
time:  00013498:note off:         (0x89,0x26,0x47).
time:  00013498:note off:         (0x89,0x36,0x47).
time:  00013498:note off:         (0x89,0x2e,0x4d).
time:  00013498:note off:         (0x89,0x33,0x4d).
time:  00013498:note off:         (0x89,0x39,0x47).
time:  00013498:note off:         (0x89,0x31,0x47).
time:  000134e8:note on:          (0x99,0x36,0x70).
time:  000134e8:note on:          (0x99,0x2e,0x7a).
time:  000134e8:note on:          (0x99,0x33,0x7a).
time:  00013510:note off:         (0x89,0x36,0x47).
time:  00013510:note off:         (0x89,0x2e,0x4d).
time:  00013510:note off:         (0x89,0x33,0x4d).
time:  00013560:note on:          (0x99,0x24,0x70).
time:  00013560:note on:          (0x99,0x26,0x70).
time:  00013560:note on:          (0x99,0x36,0x70).
time:  00013560:note on:          (0x99,0x2e,0x7a).
time:  00013560:note on:          (0x99,0x33,0x7a).
time:  00013560:note on:          (0x99,0x39,0x70).
time:  00013560:note on:          (0x99,0x31,0x70).
time:  00013588:note off:         (0x89,0x24,0x47).
time:  00013588:note off:         (0x89,0x26,0x47).
time:  00013588:note off:         (0x89,0x36,0x47).
time:  00013588:note off:         (0x89,0x2e,0x4d).
time:  00013588:note off:         (0x89,0x33,0x4d).
time:  00013588:note off:         (0x89,0x39,0x47).
time:  00013588:note off:         (0x89,0x31,0x47).
time:  000135d8:note on:          (0x99,0x36,0x70).
time:  000135d8:note on:          (0x99,0x2e,0x7a).
time:  000135d8:note on:          (0x99,0x33,0x7a).
time:  00013600:note off:         (0x89,0x36,0x47).
time:  00013600:note off:         (0x89,0x2e,0x4d).
time:  00013600:note off:         (0x89,0x33,0x4d).
time:  00013650:note on:          (0x99,0x26,0x70).
time:  00013650:note on:          (0x99,0x36,0x70).
time:  00013650:note on:          (0x99,0x2e,0x7a).
time:  00013650:note on:          (0x99,0x33,0x7a).
time:  00013650:note on:          (0x99,0x39,0x70).
time:  00013650:note on:          (0x99,0x31,0x70).
time:  00013678:note off:         (0x89,0x26,0x47).
time:  00013678:note off:         (0x89,0x36,0x47).
time:  00013678:note off:         (0x89,0x2e,0x4d).
time:  00013678:note off:         (0x89,0x33,0x4d).
time:  00013678:note off:         (0x89,0x39,0x47).
time:  00013678:note off:         (0x89,0x31,0x47).
time:  0001368c:note on:          (0x99,0x26,0x70).
time:  000136b4:note off:         (0x89,0x26,0x47).
time:  000136c8:note on:          (0x99,0x24,0x70).
time:  000136c8:note on:          (0x99,0x23,0x70).
time:  000136c8:note on:          (0x99,0x36,0x70).
time:  000136c8:note on:          (0x99,0x2e,0x7a).
time:  000136c8:note on:          (0x99,0x33,0x7a).
time:  000136f0:note off:         (0x89,0x24,0x47).
time:  000136f0:note off:         (0x89,0x23,0x47).
time:  000136f0:note off:         (0x89,0x36,0x47).
time:  000136f0:note off:         (0x89,0x2e,0x4d).
time:  000136f0:note off:         (0x89,0x33,0x4d).
time:  00013740:note on:          (0x99,0x26,0x70).
time:  00013740:note on:          (0x99,0x36,0x70).
time:  00013740:note on:          (0x99,0x2e,0x7a).
time:  00013740:note on:          (0x99,0x33,0x7a).
time:  00013740:note on:          (0x99,0x39,0x70).
time:  00013740:note on:          (0x99,0x31,0x70).
time:  00013768:note off:         (0x89,0x26,0x47).
time:  00013768:note off:         (0x89,0x36,0x47).
time:  00013768:note off:         (0x89,0x2e,0x4d).
time:  00013768:note off:         (0x89,0x33,0x4d).
time:  00013768:note off:         (0x89,0x39,0x47).
time:  00013768:note off:         (0x89,0x31,0x47).
time:  0001377c:note on:          (0x99,0x26,0x70).
time:  000137a4:note off:         (0x89,0x26,0x47).
time:  000137b8:note on:          (0x99,0x23,0x70).
time:  000137b8:note on:          (0x99,0x24,0x70).
time:  000137b8:note on:          (0x99,0x36,0x70).
time:  000137b8:note on:          (0x99,0x2e,0x7a).
time:  000137b8:note on:          (0x99,0x33,0x7a).
time:  000137e0:note off:         (0x89,0x23,0x47).
time:  000137e0:note off:         (0x89,0x24,0x47).
time:  000137e0:note off:         (0x89,0x36,0x47).
time:  000137e0:note off:         (0x89,0x2e,0x4d).
time:  000137e0:note off:         (0x89,0x33,0x4d).
time:  00013830:note on:          (0x99,0x24,0x70).
time:  00013830:note on:          (0x99,0x26,0x70).
time:  00013830:note on:          (0x99,0x36,0x70).
time:  00013830:note on:          (0x99,0x2e,0x7a).
time:  00013830:note on:          (0x99,0x33,0x7a).
time:  00013830:note on:          (0x99,0x39,0x70).
time:  00013830:note on:          (0x99,0x31,0x70).
time:  00013858:note off:         (0x89,0x24,0x47).
time:  00013858:note off:         (0x89,0x26,0x47).
time:  00013858:note off:         (0x89,0x36,0x47).
time:  00013858:note off:         (0x89,0x2e,0x4d).
time:  00013858:note off:         (0x89,0x33,0x4d).
time:  00013858:note off:         (0x89,0x39,0x47).
time:  00013858:note off:         (0x89,0x31,0x47).
time:  000138a8:note on:          (0x99,0x36,0x70).
time:  000138a8:note on:          (0x99,0x2e,0x7a).
time:  000138a8:note on:          (0x99,0x33,0x7a).
time:  000138d0:note off:         (0x89,0x36,0x47).
time:  000138d0:note off:         (0x89,0x2e,0x4d).
time:  000138d0:note off:         (0x89,0x33,0x4d).
time:  00013920:note on:          (0x99,0x24,0x70).
time:  00013920:note on:          (0x99,0x26,0x70).
time:  00013920:note on:          (0x99,0x36,0x70).
time:  00013920:note on:          (0x99,0x2e,0x7a).
time:  00013920:note on:          (0x99,0x33,0x7a).
time:  00013920:note on:          (0x99,0x39,0x70).
time:  00013920:note on:          (0x99,0x31,0x70).
time:  00013948:note off:         (0x89,0x24,0x47).
time:  00013948:note off:         (0x89,0x26,0x47).
time:  00013948:note off:         (0x89,0x36,0x47).
time:  00013948:note off:         (0x89,0x2e,0x4d).
time:  00013948:note off:         (0x89,0x33,0x4d).
time:  00013948:note off:         (0x89,0x39,0x47).
time:  00013948:note off:         (0x89,0x31,0x47).
time:  00013998:note on:          (0x99,0x36,0x70).
time:  00013998:note on:          (0x99,0x2e,0x7a).
time:  00013998:note on:          (0x99,0x33,0x7a).
time:  000139c0:note off:         (0x89,0x36,0x47).
time:  000139c0:note off:         (0x89,0x2e,0x4d).
time:  000139c0:note off:         (0x89,0x33,0x4d).
time:  00013a10:note on:          (0x99,0x26,0x70).
time:  00013a10:note on:          (0x99,0x36,0x70).
time:  00013a10:note on:          (0x99,0x2e,0x7a).
time:  00013a10:note on:          (0x99,0x33,0x7a).
time:  00013a10:note on:          (0x99,0x39,0x70).
time:  00013a10:note on:          (0x99,0x31,0x70).
time:  00013a38:note off:         (0x89,0x26,0x47).
time:  00013a38:note off:         (0x89,0x36,0x47).
time:  00013a38:note off:         (0x89,0x2e,0x4d).
time:  00013a38:note off:         (0x89,0x33,0x4d).
time:  00013a38:note off:         (0x89,0x39,0x47).
time:  00013a38:note off:         (0x89,0x31,0x47).
time:  00013a4c:note on:          (0x99,0x26,0x70).
time:  00013a74:note off:         (0x89,0x26,0x47).
time:  00013a88:note on:          (0x99,0x24,0x70).
time:  00013a88:note on:          (0x99,0x23,0x70).
time:  00013a88:note on:          (0x99,0x36,0x70).
time:  00013a88:note on:          (0x99,0x2e,0x7a).
time:  00013a88:note on:          (0x99,0x33,0x7a).
time:  00013ab0:note off:         (0x89,0x24,0x47).
time:  00013ab0:note off:         (0x89,0x23,0x47).
time:  00013ab0:note off:         (0x89,0x36,0x47).
time:  00013ab0:note off:         (0x89,0x2e,0x4d).
time:  00013ab0:note off:         (0x89,0x33,0x4d).
time:  00013b00:note on:          (0x99,0x26,0x70).
time:  00013b00:note on:          (0x99,0x36,0x70).
time:  00013b00:note on:          (0x99,0x2e,0x7a).
time:  00013b00:note on:          (0x99,0x33,0x7a).
time:  00013b00:note on:          (0x99,0x39,0x70).
time:  00013b00:note on:          (0x99,0x31,0x70).
time:  00013b28:note off:         (0x89,0x26,0x47).
time:  00013b28:note off:         (0x89,0x36,0x47).
time:  00013b28:note off:         (0x89,0x2e,0x4d).
time:  00013b28:note off:         (0x89,0x33,0x4d).
time:  00013b28:note off:         (0x89,0x39,0x47).
time:  00013b28:note off:         (0x89,0x31,0x47).
time:  00013b3c:note on:          (0x99,0x26,0x70).
time:  00013b64:note off:         (0x89,0x26,0x47).
time:  00013b78:note on:          (0x99,0x23,0x70).
time:  00013b78:note on:          (0x99,0x24,0x70).
time:  00013b78:note on:          (0x99,0x36,0x70).
time:  00013b78:note on:          (0x99,0x2e,0x7a).
time:  00013b78:note on:          (0x99,0x33,0x7a).
time:  00013ba0:note off:         (0x89,0x23,0x47).
time:  00013ba0:note off:         (0x89,0x24,0x47).
time:  00013ba0:note off:         (0x89,0x36,0x47).
time:  00013ba0:note off:         (0x89,0x2e,0x4d).
time:  00013ba0:note off:         (0x89,0x33,0x4d).
time:  00013bf0:note on:          (0x99,0x24,0x70).
time:  00013bf0:note on:          (0x99,0x26,0x70).
time:  00013bf0:note on:          (0x99,0x36,0x70).
time:  00013bf0:note on:          (0x99,0x2e,0x7a).
time:  00013bf0:note on:          (0x99,0x33,0x7a).
time:  00013bf0:note on:          (0x99,0x39,0x70).
time:  00013bf0:note on:          (0x99,0x31,0x70).
time:  00013c18:note off:         (0x89,0x24,0x47).
time:  00013c18:note off:         (0x89,0x26,0x47).
time:  00013c18:note off:         (0x89,0x36,0x47).
time:  00013c18:note off:         (0x89,0x2e,0x4d).
time:  00013c18:note off:         (0x89,0x33,0x4d).
time:  00013c18:note off:         (0x89,0x39,0x47).
time:  00013c18:note off:         (0x89,0x31,0x47).
time:  00013c68:note on:          (0x99,0x36,0x70).
time:  00013c68:note on:          (0x99,0x2e,0x7a).
time:  00013c68:note on:          (0x99,0x33,0x7a).
time:  00013c90:note off:         (0x89,0x36,0x47).
time:  00013c90:note off:         (0x89,0x2e,0x4d).
time:  00013c90:note off:         (0x89,0x33,0x4d).
time:  00013ce0:note on:          (0x99,0x24,0x70).
time:  00013ce0:note on:          (0x99,0x26,0x70).
time:  00013ce0:note on:          (0x99,0x36,0x70).
time:  00013ce0:note on:          (0x99,0x2e,0x7a).
time:  00013ce0:note on:          (0x99,0x33,0x7a).
time:  00013ce0:note on:          (0x99,0x39,0x70).
time:  00013ce0:note on:          (0x99,0x31,0x70).
time:  00013d08:note off:         (0x89,0x24,0x47).
time:  00013d08:note off:         (0x89,0x26,0x47).
time:  00013d08:note off:         (0x89,0x36,0x47).
time:  00013d08:note off:         (0x89,0x2e,0x4d).
time:  00013d08:note off:         (0x89,0x33,0x4d).
time:  00013d08:note off:         (0x89,0x39,0x47).
time:  00013d08:note off:         (0x89,0x31,0x47).
time:  00013d58:note on:          (0x99,0x36,0x70).
time:  00013d58:note on:          (0x99,0x2e,0x7a).
time:  00013d58:note on:          (0x99,0x33,0x7a).
time:  00013d80:note off:         (0x89,0x36,0x47).
time:  00013d80:note off:         (0x89,0x2e,0x4d).
time:  00013d80:note off:         (0x89,0x33,0x4d).
time:  00013dd0:note on:          (0x99,0x26,0x70).
time:  00013dd0:note on:          (0x99,0x36,0x70).
time:  00013dd0:note on:          (0x99,0x2e,0x7a).
time:  00013dd0:note on:          (0x99,0x33,0x7a).
time:  00013dd0:note on:          (0x99,0x39,0x70).
time:  00013dd0:note on:          (0x99,0x31,0x70).
time:  00013df8:note off:         (0x89,0x26,0x47).
time:  00013df8:note off:         (0x89,0x36,0x47).
time:  00013df8:note off:         (0x89,0x2e,0x4d).
time:  00013df8:note off:         (0x89,0x33,0x4d).
time:  00013df8:note off:         (0x89,0x39,0x47).
time:  00013df8:note off:         (0x89,0x31,0x47).
time:  00013e0c:note on:          (0x99,0x26,0x70).
time:  00013e34:note off:         (0x89,0x26,0x47).
time:  00013e48:note on:          (0x99,0x24,0x70).
time:  00013e48:note on:          (0x99,0x23,0x70).
time:  00013e48:note on:          (0x99,0x36,0x70).
time:  00013e48:note on:          (0x99,0x2e,0x7a).
time:  00013e48:note on:          (0x99,0x33,0x7a).
time:  00013e70:note off:         (0x89,0x24,0x47).
time:  00013e70:note off:         (0x89,0x23,0x47).
time:  00013e70:note off:         (0x89,0x36,0x47).
time:  00013e70:note off:         (0x89,0x2e,0x4d).
time:  00013e70:note off:         (0x89,0x33,0x4d).
time:  00013ec0:note on:          (0x99,0x26,0x70).
time:  00013ec0:note on:          (0x99,0x36,0x70).
time:  00013ec0:note on:          (0x99,0x2e,0x7a).
time:  00013ec0:note on:          (0x99,0x33,0x7a).
time:  00013ec0:note on:          (0x99,0x39,0x70).
time:  00013ec0:note on:          (0x99,0x31,0x70).
time:  00013ee8:note off:         (0x89,0x26,0x47).
time:  00013ee8:note off:         (0x89,0x36,0x47).
time:  00013ee8:note off:         (0x89,0x2e,0x4d).
time:  00013ee8:note off:         (0x89,0x33,0x4d).
time:  00013ee8:note off:         (0x89,0x39,0x47).
time:  00013ee8:note off:         (0x89,0x31,0x47).
time:  00013efc:note on:          (0x99,0x26,0x70).
time:  00013f24:note off:         (0x89,0x26,0x47).
time:  00013f38:note on:          (0x99,0x23,0x70).
time:  00013f38:note on:          (0x99,0x24,0x70).
time:  00013f38:note on:          (0x99,0x36,0x70).
time:  00013f38:note on:          (0x99,0x2e,0x7a).
time:  00013f38:note on:          (0x99,0x33,0x7a).
time:  00013f60:note off:         (0x89,0x23,0x47).
time:  00013f60:note off:         (0x89,0x24,0x47).
time:  00013f60:note off:         (0x89,0x36,0x47).
time:  00013f60:note off:         (0x89,0x2e,0x4d).
time:  00013f60:note off:         (0x89,0x33,0x4d).
time:  00013fb0:note on:          (0x99,0x24,0x70).
time:  00013fb0:note on:          (0x99,0x26,0x70).
time:  00013fb0:note on:          (0x99,0x36,0x70).
time:  00013fb0:note on:          (0x99,0x2e,0x7a).
time:  00013fb0:note on:          (0x99,0x33,0x7a).
time:  00013fb0:note on:          (0x99,0x39,0x70).
time:  00013fb0:note on:          (0x99,0x31,0x70).
time:  00013fd8:note off:         (0x89,0x24,0x47).
time:  00013fd8:note off:         (0x89,0x26,0x47).
time:  00013fd8:note off:         (0x89,0x36,0x47).
time:  00013fd8:note off:         (0x89,0x2e,0x4d).
time:  00013fd8:note off:         (0x89,0x33,0x4d).
time:  00013fd8:note off:         (0x89,0x39,0x47).
time:  00013fd8:note off:         (0x89,0x31,0x47).
time:  00014028:note on:          (0x99,0x36,0x70).
time:  00014028:note on:          (0x99,0x2e,0x7a).
time:  00014028:note on:          (0x99,0x33,0x7a).
time:  00014050:note off:         (0x89,0x36,0x47).
time:  00014050:note off:         (0x89,0x2e,0x4d).
time:  00014050:note off:         (0x89,0x33,0x4d).
time:  000140a0:note on:          (0x99,0x24,0x70).
time:  000140a0:note on:          (0x99,0x26,0x70).
time:  000140a0:note on:          (0x99,0x36,0x70).
time:  000140a0:note on:          (0x99,0x2e,0x7a).
time:  000140a0:note on:          (0x99,0x33,0x7a).
time:  000140a0:note on:          (0x99,0x39,0x70).
time:  000140a0:note on:          (0x99,0x31,0x70).
time:  000140c8:note off:         (0x89,0x24,0x47).
time:  000140c8:note off:         (0x89,0x26,0x47).
time:  000140c8:note off:         (0x89,0x36,0x47).
time:  000140c8:note off:         (0x89,0x2e,0x4d).
time:  000140c8:note off:         (0x89,0x33,0x4d).
time:  000140c8:note off:         (0x89,0x39,0x47).
time:  000140c8:note off:         (0x89,0x31,0x47).
time:  00014118:note on:          (0x99,0x36,0x70).
time:  00014118:note on:          (0x99,0x2e,0x7a).
time:  00014118:note on:          (0x99,0x33,0x7a).
time:  00014140:note off:         (0x89,0x36,0x47).
time:  00014140:note off:         (0x89,0x2e,0x4d).
time:  00014140:note off:         (0x89,0x33,0x4d).
time:  00014190:note on:          (0x99,0x26,0x70).
time:  00014190:note on:          (0x99,0x36,0x70).
time:  00014190:note on:          (0x99,0x2e,0x7a).
time:  00014190:note on:          (0x99,0x33,0x7a).
time:  00014190:note on:          (0x99,0x39,0x70).
time:  00014190:note on:          (0x99,0x31,0x70).
time:  000141b8:note off:         (0x89,0x26,0x47).
time:  000141b8:note off:         (0x89,0x36,0x47).
time:  000141b8:note off:         (0x89,0x2e,0x4d).
time:  000141b8:note off:         (0x89,0x33,0x4d).
time:  000141b8:note off:         (0x89,0x39,0x47).
time:  000141b8:note off:         (0x89,0x31,0x47).
time:  000141cc:note on:          (0x99,0x26,0x70).
time:  000141f4:note off:         (0x89,0x26,0x47).
time:  00014208:note on:          (0x99,0x24,0x70).
time:  00014208:note on:          (0x99,0x23,0x70).
time:  00014208:note on:          (0x99,0x36,0x70).
time:  00014208:note on:          (0x99,0x2e,0x7a).
time:  00014208:note on:          (0x99,0x33,0x7a).
time:  00014230:note off:         (0x89,0x24,0x47).
time:  00014230:note off:         (0x89,0x23,0x47).
time:  00014230:note off:         (0x89,0x36,0x47).
time:  00014230:note off:         (0x89,0x2e,0x4d).
time:  00014230:note off:         (0x89,0x33,0x4d).
time:  00014280:note on:          (0x99,0x26,0x70).
time:  00014280:note on:          (0x99,0x36,0x70).
time:  00014280:note on:          (0x99,0x2e,0x7a).
time:  00014280:note on:          (0x99,0x33,0x7a).
time:  00014280:note on:          (0x99,0x39,0x70).
time:  00014280:note on:          (0x99,0x31,0x70).
time:  000142a8:note off:         (0x89,0x26,0x47).
time:  000142a8:note off:         (0x89,0x36,0x47).
time:  000142a8:note off:         (0x89,0x2e,0x4d).
time:  000142a8:note off:         (0x89,0x33,0x4d).
time:  000142a8:note off:         (0x89,0x39,0x47).
time:  000142a8:note off:         (0x89,0x31,0x47).
time:  000142bc:note on:          (0x99,0x26,0x70).
time:  000142e4:note off:         (0x89,0x26,0x47).
time:  000142f8:note on:          (0x99,0x23,0x70).
time:  000142f8:note on:          (0x99,0x24,0x70).
time:  000142f8:note on:          (0x99,0x36,0x70).
time:  000142f8:note on:          (0x99,0x2e,0x7a).
time:  000142f8:note on:          (0x99,0x33,0x7a).
time:  00014320:note off:         (0x89,0x23,0x47).
time:  00014320:note off:         (0x89,0x24,0x47).
time:  00014320:note off:         (0x89,0x36,0x47).
time:  00014320:note off:         (0x89,0x2e,0x4d).
time:  00014320:note off:         (0x89,0x33,0x4d).
time:  00014370:note on:          (0x99,0x24,0x70).
time:  00014370:note on:          (0x99,0x26,0x70).
time:  00014370:note on:          (0x99,0x36,0x70).
time:  00014370:note on:          (0x99,0x2e,0x7a).
time:  00014370:note on:          (0x99,0x33,0x7a).
time:  00014370:note on:          (0x99,0x39,0x70).
time:  00014370:note on:          (0x99,0x31,0x70).
time:  00014398:note off:         (0x89,0x24,0x47).
time:  00014398:note off:         (0x89,0x26,0x47).
time:  00014398:note off:         (0x89,0x36,0x47).
time:  00014398:note off:         (0x89,0x2e,0x4d).
time:  00014398:note off:         (0x89,0x33,0x4d).
time:  00014398:note off:         (0x89,0x39,0x47).
time:  00014398:note off:         (0x89,0x31,0x47).
time:  000143e8:note on:          (0x99,0x36,0x70).
time:  000143e8:note on:          (0x99,0x2e,0x7a).
time:  000143e8:note on:          (0x99,0x33,0x7a).
time:  00014410:note off:         (0x89,0x36,0x47).
time:  00014410:note off:         (0x89,0x2e,0x4d).
time:  00014410:note off:         (0x89,0x33,0x4d).
time:  00014460:note on:          (0x99,0x24,0x70).
time:  00014460:note on:          (0x99,0x26,0x70).
time:  00014460:note on:          (0x99,0x36,0x70).
time:  00014460:note on:          (0x99,0x2e,0x7a).
time:  00014460:note on:          (0x99,0x33,0x7a).
time:  00014460:note on:          (0x99,0x39,0x70).
time:  00014460:note on:          (0x99,0x31,0x70).
time:  00014488:note off:         (0x89,0x24,0x47).
time:  00014488:note off:         (0x89,0x26,0x47).
time:  00014488:note off:         (0x89,0x36,0x47).
time:  00014488:note off:         (0x89,0x2e,0x4d).
time:  00014488:note off:         (0x89,0x33,0x4d).
time:  00014488:note off:         (0x89,0x39,0x47).
time:  00014488:note off:         (0x89,0x31,0x47).
time:  000144d8:note on:          (0x99,0x36,0x70).
time:  000144d8:note on:          (0x99,0x2e,0x7a).
time:  000144d8:note on:          (0x99,0x33,0x7a).
time:  00014500:note off:         (0x89,0x36,0x47).
time:  00014500:note off:         (0x89,0x2e,0x4d).
time:  00014500:note off:         (0x89,0x33,0x4d).
time:  00014550:note on:          (0x99,0x26,0x70).
time:  00014550:note on:          (0x99,0x36,0x70).
time:  00014550:note on:          (0x99,0x2e,0x7a).
time:  00014550:note on:          (0x99,0x33,0x7a).
time:  00014550:note on:          (0x99,0x39,0x70).
time:  00014550:note on:          (0x99,0x31,0x70).
time:  00014578:note off:         (0x89,0x26,0x47).
time:  00014578:note off:         (0x89,0x36,0x47).
time:  00014578:note off:         (0x89,0x2e,0x4d).
time:  00014578:note off:         (0x89,0x33,0x4d).
time:  00014578:note off:         (0x89,0x39,0x47).
time:  00014578:note off:         (0x89,0x31,0x47).
time:  0001458c:note on:          (0x99,0x26,0x70).
time:  000145b4:note off:         (0x89,0x26,0x47).
time:  000145c8:note on:          (0x99,0x24,0x70).
time:  000145c8:note on:          (0x99,0x23,0x70).
time:  000145c8:note on:          (0x99,0x36,0x70).
time:  000145c8:note on:          (0x99,0x2e,0x7a).
time:  000145c8:note on:          (0x99,0x33,0x7a).
time:  000145f0:note off:         (0x89,0x24,0x47).
time:  000145f0:note off:         (0x89,0x23,0x47).
time:  000145f0:note off:         (0x89,0x36,0x47).
time:  000145f0:note off:         (0x89,0x2e,0x4d).
time:  000145f0:note off:         (0x89,0x33,0x4d).
time:  00014640:note on:          (0x99,0x26,0x70).
time:  00014640:note on:          (0x99,0x36,0x70).
time:  00014640:note on:          (0x99,0x2e,0x7a).
time:  00014640:note on:          (0x99,0x33,0x7a).
time:  00014640:note on:          (0x99,0x39,0x70).
time:  00014640:note on:          (0x99,0x31,0x70).
time:  00014668:note off:         (0x89,0x26,0x47).
time:  00014668:note off:         (0x89,0x36,0x47).
time:  00014668:note off:         (0x89,0x2e,0x4d).
time:  00014668:note off:         (0x89,0x33,0x4d).
time:  00014668:note off:         (0x89,0x39,0x47).
time:  00014668:note off:         (0x89,0x31,0x47).
time:  0001467c:note on:          (0x99,0x26,0x70).
time:  000146a4:note off:         (0x89,0x26,0x47).
time:  000146b8:note on:          (0x99,0x23,0x70).
time:  000146b8:note on:          (0x99,0x24,0x70).
time:  000146b8:note on:          (0x99,0x36,0x70).
time:  000146b8:note on:          (0x99,0x2e,0x7a).
time:  000146b8:note on:          (0x99,0x33,0x7a).
time:  000146e0:note off:         (0x89,0x23,0x47).
time:  000146e0:note off:         (0x89,0x24,0x47).
time:  000146e0:note off:         (0x89,0x36,0x47).
time:  000146e0:note off:         (0x89,0x2e,0x4d).
time:  000146e0:note off:         (0x89,0x33,0x4d).
time:  00014730:note on:          (0x99,0x24,0x70).
time:  00014730:note on:          (0x99,0x26,0x70).
time:  00014730:note on:          (0x99,0x36,0x70).
time:  00014730:note on:          (0x99,0x2e,0x7a).
time:  00014730:note on:          (0x99,0x33,0x7a).
time:  00014730:note on:          (0x99,0x39,0x70).
time:  00014730:note on:          (0x99,0x31,0x70).
time:  00014758:note off:         (0x89,0x24,0x47).
time:  00014758:note off:         (0x89,0x26,0x47).
time:  00014758:note off:         (0x89,0x36,0x47).
time:  00014758:note off:         (0x89,0x2e,0x4d).
time:  00014758:note off:         (0x89,0x33,0x4d).
time:  00014758:note off:         (0x89,0x39,0x47).
time:  00014758:note off:         (0x89,0x31,0x47).
time:  000147a8:note on:          (0x99,0x36,0x70).
time:  000147a8:note on:          (0x99,0x2e,0x7a).
time:  000147a8:note on:          (0x99,0x33,0x7a).
time:  000147d0:note off:         (0x89,0x36,0x47).
time:  000147d0:note off:         (0x89,0x2e,0x4d).
time:  000147d0:note off:         (0x89,0x33,0x4d).
time:  00014820:note on:          (0x99,0x24,0x70).
time:  00014820:note on:          (0x99,0x26,0x70).
time:  00014820:note on:          (0x99,0x36,0x70).
time:  00014820:note on:          (0x99,0x2e,0x7a).
time:  00014820:note on:          (0x99,0x33,0x7a).
time:  00014820:note on:          (0x99,0x39,0x70).
time:  00014820:note on:          (0x99,0x31,0x70).
time:  00014848:note off:         (0x89,0x24,0x47).
time:  00014848:note off:         (0x89,0x26,0x47).
time:  00014848:note off:         (0x89,0x36,0x47).
time:  00014848:note off:         (0x89,0x2e,0x4d).
time:  00014848:note off:         (0x89,0x33,0x4d).
time:  00014848:note off:         (0x89,0x39,0x47).
time:  00014848:note off:         (0x89,0x31,0x47).
time:  00014898:note on:          (0x99,0x36,0x70).
time:  00014898:note on:          (0x99,0x2e,0x7a).
time:  00014898:note on:          (0x99,0x33,0x7a).
time:  000148c0:note off:         (0x89,0x36,0x47).
time:  000148c0:note off:         (0x89,0x2e,0x4d).
time:  000148c0:note off:         (0x89,0x33,0x4d).
time:  00014910:note on:          (0x99,0x26,0x70).
time:  00014910:note on:          (0x99,0x36,0x70).
time:  00014910:note on:          (0x99,0x2e,0x7a).
time:  00014910:note on:          (0x99,0x33,0x7a).
time:  00014910:note on:          (0x99,0x39,0x70).
time:  00014910:note on:          (0x99,0x31,0x70).
time:  00014938:note off:         (0x89,0x26,0x47).
time:  00014938:note off:         (0x89,0x36,0x47).
time:  00014938:note off:         (0x89,0x2e,0x4d).
time:  00014938:note off:         (0x89,0x33,0x4d).
time:  00014938:note off:         (0x89,0x39,0x47).
time:  00014938:note off:         (0x89,0x31,0x47).
time:  0001494c:note on:          (0x99,0x26,0x70).
time:  00014974:note off:         (0x89,0x26,0x47).
time:  00014988:note on:          (0x99,0x24,0x70).
time:  00014988:note on:          (0x99,0x23,0x70).
time:  00014988:note on:          (0x99,0x36,0x70).
time:  00014988:note on:          (0x99,0x2e,0x7a).
time:  00014988:note on:          (0x99,0x33,0x7a).
time:  000149b0:note off:         (0x89,0x24,0x47).
time:  000149b0:note off:         (0x89,0x23,0x47).
time:  000149b0:note off:         (0x89,0x36,0x47).
time:  000149b0:note off:         (0x89,0x2e,0x4d).
time:  000149b0:note off:         (0x89,0x33,0x4d).
time:  00014a00:note on:          (0x99,0x26,0x70).
time:  00014a00:note on:          (0x99,0x36,0x70).
time:  00014a00:note on:          (0x99,0x2e,0x7a).
time:  00014a00:note on:          (0x99,0x33,0x7a).
time:  00014a00:note on:          (0x99,0x39,0x70).
time:  00014a00:note on:          (0x99,0x31,0x70).
time:  00014a28:note off:         (0x89,0x26,0x47).
time:  00014a28:note off:         (0x89,0x36,0x47).
time:  00014a28:note off:         (0x89,0x2e,0x4d).
time:  00014a28:note off:         (0x89,0x33,0x4d).
time:  00014a28:note off:         (0x89,0x39,0x47).
time:  00014a28:note off:         (0x89,0x31,0x47).
time:  00014a3c:note on:          (0x99,0x26,0x70).
time:  00014a64:note off:         (0x89,0x26,0x47).
time:  00014a78:note on:          (0x99,0x23,0x70).
time:  00014a78:note on:          (0x99,0x24,0x70).
time:  00014a78:note on:          (0x99,0x36,0x70).
time:  00014a78:note on:          (0x99,0x2e,0x7a).
time:  00014a78:note on:          (0x99,0x33,0x7a).
time:  00014aa0:note off:         (0x89,0x23,0x47).
time:  00014aa0:note off:         (0x89,0x24,0x47).
time:  00014aa0:note off:         (0x89,0x36,0x47).
time:  00014aa0:note off:         (0x89,0x2e,0x4d).
time:  00014aa0:note off:         (0x89,0x33,0x4d).
time:  00014af0:note on:          (0x99,0x24,0x70).
time:  00014af0:note on:          (0x99,0x26,0x70).
time:  00014af0:note on:          (0x99,0x36,0x70).
time:  00014af0:note on:          (0x99,0x2e,0x7a).
time:  00014af0:note on:          (0x99,0x33,0x7a).
time:  00014af0:note on:          (0x99,0x39,0x70).
time:  00014af0:note on:          (0x99,0x31,0x70).
time:  00014b18:note off:         (0x89,0x24,0x47).
time:  00014b18:note off:         (0x89,0x26,0x47).
time:  00014b18:note off:         (0x89,0x36,0x47).
time:  00014b18:note off:         (0x89,0x2e,0x4d).
time:  00014b18:note off:         (0x89,0x33,0x4d).
time:  00014b18:note off:         (0x89,0x39,0x47).
time:  00014b18:note off:         (0x89,0x31,0x47).
time:  00014b68:note on:          (0x99,0x36,0x70).
time:  00014b68:note on:          (0x99,0x2e,0x7a).
time:  00014b68:note on:          (0x99,0x33,0x7a).
time:  00014b90:note off:         (0x89,0x36,0x47).
time:  00014b90:note off:         (0x89,0x2e,0x4d).
time:  00014b90:note off:         (0x89,0x33,0x4d).
time:  00014be0:note on:          (0x99,0x24,0x70).
time:  00014be0:note on:          (0x99,0x26,0x70).
time:  00014be0:note on:          (0x99,0x36,0x70).
time:  00014be0:note on:          (0x99,0x2e,0x7a).
time:  00014be0:note on:          (0x99,0x33,0x7a).
time:  00014be0:note on:          (0x99,0x39,0x70).
time:  00014be0:note on:          (0x99,0x31,0x70).
time:  00014c08:note off:         (0x89,0x24,0x47).
time:  00014c08:note off:         (0x89,0x26,0x47).
time:  00014c08:note off:         (0x89,0x36,0x47).
time:  00014c08:note off:         (0x89,0x2e,0x4d).
time:  00014c08:note off:         (0x89,0x33,0x4d).
time:  00014c08:note off:         (0x89,0x39,0x47).
time:  00014c08:note off:         (0x89,0x31,0x47).
time:  00014c58:note on:          (0x99,0x36,0x70).
time:  00014c58:note on:          (0x99,0x2e,0x7a).
time:  00014c58:note on:          (0x99,0x33,0x7a).
time:  00014c80:note off:         (0x89,0x36,0x47).
time:  00014c80:note off:         (0x89,0x2e,0x4d).
time:  00014c80:note off:         (0x89,0x33,0x4d).
time:  00014cd0:note on:          (0x99,0x26,0x70).
time:  00014cd0:note on:          (0x99,0x36,0x70).
time:  00014cd0:note on:          (0x99,0x2e,0x7a).
time:  00014cd0:note on:          (0x99,0x33,0x7a).
time:  00014cd0:note on:          (0x99,0x39,0x70).
time:  00014cd0:note on:          (0x99,0x31,0x70).
time:  00014cf8:note off:         (0x89,0x26,0x47).
time:  00014cf8:note off:         (0x89,0x36,0x47).
time:  00014cf8:note off:         (0x89,0x2e,0x4d).
time:  00014cf8:note off:         (0x89,0x33,0x4d).
time:  00014cf8:note off:         (0x89,0x39,0x47).
time:  00014cf8:note off:         (0x89,0x31,0x47).
time:  00014d0c:note on:          (0x99,0x26,0x70).
time:  00014d34:note off:         (0x89,0x26,0x47).
time:  00014d48:note on:          (0x99,0x24,0x70).
time:  00014d48:note on:          (0x99,0x23,0x70).
time:  00014d48:note on:          (0x99,0x36,0x70).
time:  00014d48:note on:          (0x99,0x2e,0x7a).
time:  00014d48:note on:          (0x99,0x33,0x7a).
time:  00014d70:note off:         (0x89,0x24,0x47).
time:  00014d70:note off:         (0x89,0x23,0x47).
time:  00014d70:note off:         (0x89,0x36,0x47).
time:  00014d70:note off:         (0x89,0x2e,0x4d).
time:  00014d70:note off:         (0x89,0x33,0x4d).
time:  00014dc0:note on:          (0x99,0x26,0x70).
time:  00014dc0:note on:          (0x99,0x36,0x70).
time:  00014dc0:note on:          (0x99,0x2e,0x7a).
time:  00014dc0:note on:          (0x99,0x33,0x7a).
time:  00014dc0:note on:          (0x99,0x39,0x70).
time:  00014dc0:note on:          (0x99,0x31,0x70).
time:  00014de8:note off:         (0x89,0x26,0x47).
time:  00014de8:note off:         (0x89,0x36,0x47).
time:  00014de8:note off:         (0x89,0x2e,0x4d).
time:  00014de8:note off:         (0x89,0x33,0x4d).
time:  00014de8:note off:         (0x89,0x39,0x47).
time:  00014de8:note off:         (0x89,0x31,0x47).
time:  00014dfc:note on:          (0x99,0x26,0x70).
time:  00014e24:note off:         (0x89,0x26,0x47).
time:  00014e38:note on:          (0x99,0x23,0x70).
time:  00014e38:note on:          (0x99,0x24,0x70).
time:  00014e38:note on:          (0x99,0x36,0x70).
time:  00014e38:note on:          (0x99,0x2e,0x7a).
time:  00014e38:note on:          (0x99,0x33,0x7a).
time:  00014e60:note off:         (0x89,0x23,0x47).
time:  00014e60:note off:         (0x89,0x24,0x47).
time:  00014e60:note off:         (0x89,0x36,0x47).
time:  00014e60:note off:         (0x89,0x2e,0x4d).
time:  00014e60:note off:         (0x89,0x33,0x4d).
time:  00014eb0:note on:          (0x99,0x24,0x70).
time:  00014eb0:note on:          (0x99,0x26,0x70).
time:  00014eb0:note on:          (0x99,0x36,0x70).
time:  00014eb0:note on:          (0x99,0x2e,0x7a).
time:  00014eb0:note on:          (0x99,0x33,0x7a).
time:  00014eb0:note on:          (0x99,0x39,0x70).
time:  00014eb0:note on:          (0x99,0x31,0x70).
time:  00014ed8:note off:         (0x89,0x24,0x47).
time:  00014ed8:note off:         (0x89,0x26,0x47).
time:  00014ed8:note off:         (0x89,0x36,0x47).
time:  00014ed8:note off:         (0x89,0x2e,0x4d).
time:  00014ed8:note off:         (0x89,0x33,0x4d).
time:  00014ed8:note off:         (0x89,0x39,0x47).
time:  00014ed8:note off:         (0x89,0x31,0x47).
time:  00014f28:note on:          (0x99,0x36,0x70).
time:  00014f28:note on:          (0x99,0x2e,0x7a).
time:  00014f28:note on:          (0x99,0x33,0x7a).
time:  00014f50:note off:         (0x89,0x36,0x47).
time:  00014f50:note off:         (0x89,0x2e,0x4d).
time:  00014f50:note off:         (0x89,0x33,0x4d).
time:  00014fa0:note on:          (0x99,0x24,0x70).
time:  00014fa0:note on:          (0x99,0x26,0x70).
time:  00014fa0:note on:          (0x99,0x36,0x70).
time:  00014fa0:note on:          (0x99,0x2e,0x7a).
time:  00014fa0:note on:          (0x99,0x33,0x7a).
time:  00014fa0:note on:          (0x99,0x39,0x70).
time:  00014fa0:note on:          (0x99,0x31,0x70).
time:  00014fc8:note off:         (0x89,0x24,0x47).
time:  00014fc8:note off:         (0x89,0x26,0x47).
time:  00014fc8:note off:         (0x89,0x36,0x47).
time:  00014fc8:note off:         (0x89,0x2e,0x4d).
time:  00014fc8:note off:         (0x89,0x33,0x4d).
time:  00014fc8:note off:         (0x89,0x39,0x47).
time:  00014fc8:note off:         (0x89,0x31,0x47).
time:  00015018:note on:          (0x99,0x36,0x70).
time:  00015018:note on:          (0x99,0x2e,0x7a).
time:  00015018:note on:          (0x99,0x33,0x7a).
time:  00015040:note off:         (0x89,0x36,0x47).
time:  00015040:note off:         (0x89,0x2e,0x4d).
time:  00015040:note off:         (0x89,0x33,0x4d).
time:  00015090:note on:          (0x99,0x26,0x70).
time:  00015090:note on:          (0x99,0x36,0x70).
time:  00015090:note on:          (0x99,0x2e,0x7a).
time:  00015090:note on:          (0x99,0x33,0x7a).
time:  00015090:note on:          (0x99,0x39,0x70).
time:  00015090:note on:          (0x99,0x31,0x70).
time:  000150b8:note off:         (0x89,0x26,0x47).
time:  000150b8:note off:         (0x89,0x36,0x47).
time:  000150b8:note off:         (0x89,0x2e,0x4d).
time:  000150b8:note off:         (0x89,0x33,0x4d).
time:  000150b8:note off:         (0x89,0x39,0x47).
time:  000150b8:note off:         (0x89,0x31,0x47).
time:  000150cc:note on:          (0x99,0x26,0x70).
time:  000150f4:note off:         (0x89,0x26,0x47).
time:  00015108:note on:          (0x99,0x24,0x70).
time:  00015108:note on:          (0x99,0x23,0x70).
time:  00015108:note on:          (0x99,0x36,0x70).
time:  00015108:note on:          (0x99,0x2e,0x7a).
time:  00015108:note on:          (0x99,0x33,0x7a).
time:  00015130:note off:         (0x89,0x24,0x47).
time:  00015130:note off:         (0x89,0x23,0x47).
time:  00015130:note off:         (0x89,0x36,0x47).
time:  00015130:note off:         (0x89,0x2e,0x4d).
time:  00015130:note off:         (0x89,0x33,0x4d).
time:  00015180:note on:          (0x99,0x26,0x70).
time:  00015180:note on:          (0x99,0x36,0x70).
time:  00015180:note on:          (0x99,0x2e,0x7a).
time:  00015180:note on:          (0x99,0x33,0x7a).
time:  00015180:note on:          (0x99,0x39,0x70).
time:  00015180:note on:          (0x99,0x31,0x70).
time:  000151a8:note off:         (0x89,0x26,0x47).
time:  000151a8:note off:         (0x89,0x36,0x47).
time:  000151a8:note off:         (0x89,0x2e,0x4d).
time:  000151a8:note off:         (0x89,0x33,0x4d).
time:  000151a8:note off:         (0x89,0x39,0x47).
time:  000151a8:note off:         (0x89,0x31,0x47).
time:  000151bc:note on:          (0x99,0x26,0x70).
time:  000151e4:note off:         (0x89,0x26,0x47).
time:  000151f8:note on:          (0x99,0x23,0x70).
time:  000151f8:note on:          (0x99,0x24,0x70).
time:  000151f8:note on:          (0x99,0x36,0x70).
time:  000151f8:note on:          (0x99,0x2e,0x7a).
time:  000151f8:note on:          (0x99,0x33,0x7a).
time:  00015220:note off:         (0x89,0x23,0x47).
time:  00015220:note off:         (0x89,0x24,0x47).
time:  00015220:note off:         (0x89,0x36,0x47).
time:  00015220:note off:         (0x89,0x2e,0x4d).
time:  00015220:note off:         (0x89,0x33,0x4d).
time:  00015270:note on:          (0x99,0x24,0x70).
time:  00015270:note on:          (0x99,0x26,0x70).
time:  00015270:note on:          (0x99,0x36,0x70).
time:  00015270:note on:          (0x99,0x2e,0x7a).
time:  00015270:note on:          (0x99,0x33,0x7a).
time:  00015270:note on:          (0x99,0x39,0x70).
time:  00015270:note on:          (0x99,0x31,0x70).
time:  00015298:note off:         (0x89,0x24,0x47).
time:  00015298:note off:         (0x89,0x26,0x47).
time:  00015298:note off:         (0x89,0x36,0x47).
time:  00015298:note off:         (0x89,0x2e,0x4d).
time:  00015298:note off:         (0x89,0x33,0x4d).
time:  00015298:note off:         (0x89,0x39,0x47).
time:  00015298:note off:         (0x89,0x31,0x47).
time:  000152e8:note on:          (0x99,0x36,0x70).
time:  000152e8:note on:          (0x99,0x2e,0x7a).
time:  000152e8:note on:          (0x99,0x33,0x7a).
time:  00015310:note off:         (0x89,0x36,0x47).
time:  00015310:note off:         (0x89,0x2e,0x4d).
time:  00015310:note off:         (0x89,0x33,0x4d).
time:  00015360:note on:          (0x99,0x24,0x70).
time:  00015360:note on:          (0x99,0x26,0x70).
time:  00015360:note on:          (0x99,0x36,0x70).
time:  00015360:note on:          (0x99,0x2e,0x7a).
time:  00015360:note on:          (0x99,0x33,0x7a).
time:  00015360:note on:          (0x99,0x39,0x70).
time:  00015360:note on:          (0x99,0x31,0x70).
time:  00015388:note off:         (0x89,0x24,0x47).
time:  00015388:note off:         (0x89,0x26,0x47).
time:  00015388:note off:         (0x89,0x36,0x47).
time:  00015388:note off:         (0x89,0x2e,0x4d).
time:  00015388:note off:         (0x89,0x33,0x4d).
time:  00015388:note off:         (0x89,0x39,0x47).
time:  00015388:note off:         (0x89,0x31,0x47).
time:  000153d8:note on:          (0x99,0x36,0x70).
time:  000153d8:note on:          (0x99,0x2e,0x7a).
time:  000153d8:note on:          (0x99,0x33,0x7a).
time:  00015400:note off:         (0x89,0x36,0x47).
time:  00015400:note off:         (0x89,0x2e,0x4d).
time:  00015400:note off:         (0x89,0x33,0x4d).
time:  00015450:note on:          (0x99,0x26,0x70).
time:  00015450:note on:          (0x99,0x36,0x70).
time:  00015450:note on:          (0x99,0x2e,0x7a).
time:  00015450:note on:          (0x99,0x33,0x7a).
time:  00015450:note on:          (0x99,0x39,0x70).
time:  00015450:note on:          (0x99,0x31,0x70).
time:  00015478:note off:         (0x89,0x26,0x47).
time:  00015478:note off:         (0x89,0x36,0x47).
time:  00015478:note off:         (0x89,0x2e,0x4d).
time:  00015478:note off:         (0x89,0x33,0x4d).
time:  00015478:note off:         (0x89,0x39,0x47).
time:  00015478:note off:         (0x89,0x31,0x47).
time:  0001548c:note on:          (0x99,0x26,0x70).
time:  000154b4:note off:         (0x89,0x26,0x47).
time:  000154c8:note on:          (0x99,0x24,0x70).
time:  000154c8:note on:          (0x99,0x23,0x70).
time:  000154c8:note on:          (0x99,0x36,0x70).
time:  000154c8:note on:          (0x99,0x2e,0x7a).
time:  000154c8:note on:          (0x99,0x33,0x7a).
time:  000154f0:note off:         (0x89,0x24,0x47).
time:  000154f0:note off:         (0x89,0x23,0x47).
time:  000154f0:note off:         (0x89,0x36,0x47).
time:  000154f0:note off:         (0x89,0x2e,0x4d).
time:  000154f0:note off:         (0x89,0x33,0x4d).
time:  00015540:note on:          (0x99,0x26,0x70).
time:  00015540:note on:          (0x99,0x36,0x70).
time:  00015540:note on:          (0x99,0x2e,0x7a).
time:  00015540:note on:          (0x99,0x33,0x7a).
time:  00015540:note on:          (0x99,0x39,0x70).
time:  00015540:note on:          (0x99,0x31,0x70).
time:  00015568:note off:         (0x89,0x26,0x47).
time:  00015568:note off:         (0x89,0x36,0x47).
time:  00015568:note off:         (0x89,0x2e,0x4d).
time:  00015568:note off:         (0x89,0x33,0x4d).
time:  00015568:note off:         (0x89,0x39,0x47).
time:  00015568:note off:         (0x89,0x31,0x47).
time:  0001557c:note on:          (0x99,0x26,0x70).
time:  000155a4:note off:         (0x89,0x26,0x47).
time:  000155b8:note on:          (0x99,0x23,0x70).
time:  000155b8:note on:          (0x99,0x24,0x70).
time:  000155b8:note on:          (0x99,0x36,0x70).
time:  000155b8:note on:          (0x99,0x2e,0x7a).
time:  000155b8:note on:          (0x99,0x33,0x7a).
time:  000155e0:note off:         (0x89,0x23,0x47).
time:  000155e0:note off:         (0x89,0x24,0x47).
time:  000155e0:note off:         (0x89,0x36,0x47).
time:  000155e0:note off:         (0x89,0x2e,0x4d).
time:  000155e0:note off:         (0x89,0x33,0x4d).
time:  00015630:note on:          (0x99,0x24,0x70).
time:  00015630:note on:          (0x99,0x26,0x70).
time:  00015630:note on:          (0x99,0x36,0x70).
time:  00015630:note on:          (0x99,0x2e,0x7a).
time:  00015630:note on:          (0x99,0x33,0x7a).
time:  00015630:note on:          (0x99,0x39,0x70).
time:  00015630:note on:          (0x99,0x31,0x70).
time:  00015658:note off:         (0x89,0x24,0x47).
time:  00015658:note off:         (0x89,0x26,0x47).
time:  00015658:note off:         (0x89,0x36,0x47).
time:  00015658:note off:         (0x89,0x2e,0x4d).
time:  00015658:note off:         (0x89,0x33,0x4d).
time:  00015658:note off:         (0x89,0x39,0x47).
time:  00015658:note off:         (0x89,0x31,0x47).
time:  000156a8:note on:          (0x99,0x36,0x70).
time:  000156a8:note on:          (0x99,0x2e,0x7a).
time:  000156a8:note on:          (0x99,0x33,0x7a).
time:  000156d0:note off:         (0x89,0x36,0x47).
time:  000156d0:note off:         (0x89,0x2e,0x4d).
time:  000156d0:note off:         (0x89,0x33,0x4d).
time:  00015720:note on:          (0x99,0x24,0x70).
time:  00015720:note on:          (0x99,0x26,0x70).
time:  00015720:note on:          (0x99,0x36,0x70).
time:  00015720:note on:          (0x99,0x2e,0x7a).
time:  00015720:note on:          (0x99,0x33,0x7a).
time:  00015720:note on:          (0x99,0x39,0x70).
time:  00015720:note on:          (0x99,0x31,0x70).
time:  00015748:note off:         (0x89,0x24,0x47).
time:  00015748:note off:         (0x89,0x26,0x47).
time:  00015748:note off:         (0x89,0x36,0x47).
time:  00015748:note off:         (0x89,0x2e,0x4d).
time:  00015748:note off:         (0x89,0x33,0x4d).
time:  00015748:note off:         (0x89,0x39,0x47).
time:  00015748:note off:         (0x89,0x31,0x47).
time:  00015798:note on:          (0x99,0x36,0x70).
time:  00015798:note on:          (0x99,0x2e,0x7a).
time:  00015798:note on:          (0x99,0x33,0x7a).
time:  000157c0:note off:         (0x89,0x36,0x47).
time:  000157c0:note off:         (0x89,0x2e,0x4d).
time:  000157c0:note off:         (0x89,0x33,0x4d).
time:  00015810:note on:          (0x99,0x26,0x70).
time:  00015810:note on:          (0x99,0x36,0x70).
time:  00015810:note on:          (0x99,0x2e,0x7a).
time:  00015810:note on:          (0x99,0x33,0x7a).
time:  00015810:note on:          (0x99,0x39,0x70).
time:  00015810:note on:          (0x99,0x31,0x70).
time:  00015838:note off:         (0x89,0x26,0x47).
time:  00015838:note off:         (0x89,0x36,0x47).
time:  00015838:note off:         (0x89,0x2e,0x4d).
time:  00015838:note off:         (0x89,0x33,0x4d).
time:  00015838:note off:         (0x89,0x39,0x47).
time:  00015838:note off:         (0x89,0x31,0x47).
time:  0001584c:note on:          (0x99,0x26,0x70).
time:  00015874:note off:         (0x89,0x26,0x47).
time:  00015888:note on:          (0x99,0x24,0x70).
time:  00015888:note on:          (0x99,0x23,0x70).
time:  00015888:note on:          (0x99,0x36,0x70).
time:  00015888:note on:          (0x99,0x2e,0x7a).
time:  00015888:note on:          (0x99,0x33,0x7a).
time:  00015888:note on:          (0x99,0x26,0x70).
time:  000158b0:note off:         (0x89,0x24,0x47).
time:  000158b0:note off:         (0x89,0x23,0x47).
time:  000158b0:note off:         (0x89,0x36,0x47).
time:  000158b0:note off:         (0x89,0x2e,0x4d).
time:  000158b0:note off:         (0x89,0x33,0x4d).
time:  000158b0:note off:         (0x89,0x26,0x47).
time:  000158c4:note on:          (0x99,0x26,0x70).
time:  000158ec:note off:         (0x89,0x26,0x47).
time:  00015900:note on:          (0x99,0x26,0x70).
time:  00015900:note on:          (0x99,0x36,0x70).
time:  00015900:note on:          (0x99,0x2e,0x7a).
time:  00015900:note on:          (0x99,0x33,0x7a).
time:  00015900:note on:          (0x99,0x39,0x70).
time:  00015900:note on:          (0x99,0x31,0x70).
time:  00015928:note off:         (0x89,0x26,0x47).
time:  00015928:note off:         (0x89,0x36,0x47).
time:  00015928:note off:         (0x89,0x2e,0x4d).
time:  00015928:note off:         (0x89,0x33,0x4d).
time:  00015928:note off:         (0x89,0x39,0x47).
time:  00015928:note off:         (0x89,0x31,0x47).
time:  0001593c:note on:          (0x99,0x26,0x70).
time:  00015964:note off:         (0x89,0x26,0x47).
time:  00015978:note on:          (0x99,0x23,0x70).
time:  00015978:note on:          (0x99,0x24,0x70).
time:  00015978:note on:          (0x99,0x36,0x70).
time:  00015978:note on:          (0x99,0x2e,0x7a).
time:  00015978:note on:          (0x99,0x33,0x7a).
time:  00015978:note on:          (0x99,0x26,0x70).
time:  000159a0:note off:         (0x89,0x23,0x47).
time:  000159a0:note off:         (0x89,0x24,0x47).
time:  000159a0:note off:         (0x89,0x36,0x47).
time:  000159a0:note off:         (0x89,0x2e,0x4d).
time:  000159a0:note off:         (0x89,0x33,0x4d).
time:  000159a0:note off:         (0x89,0x26,0x47).
time:  000159b4:note on:          (0x99,0x26,0x70).
time:  000159dc:note off:         (0x89,0x26,0x47).
time:  000159f0:note on:          (0x99,0x24,0x70).
time:  000159f0:note on:          (0x99,0x33,0x70).
time:  00015a18:note off:         (0x89,0x24,0x47).
time:  00015a18:note off:         (0x89,0x33,0x47).
time:  00015a68:note on:          (0x99,0x24,0x70).
time:  00015a90:note off:         (0x89,0x24,0x47).
time:  00015ae0:note on:          (0x99,0x26,0x70).
time:  00015ae0:note on:          (0x99,0x33,0x70).
time:  00015b08:note off:         (0x89,0x26,0x47).
time:  00015b08:note off:         (0x89,0x33,0x47).
time:  00015bd0:note on:          (0x99,0x24,0x70).
time:  00015bd0:note on:          (0x99,0x33,0x70).
time:  00015bf8:note off:         (0x89,0x24,0x47).
time:  00015bf8:note off:         (0x89,0x33,0x47).
time:  00015c48:note on:          (0x99,0x24,0x70).
time:  00015c70:note off:         (0x89,0x24,0x47).
time:  00015cc0:note on:          (0x99,0x26,0x70).
time:  00015cc0:note on:          (0x99,0x33,0x70).
time:  00015ce8:note off:         (0x89,0x26,0x47).
time:  00015ce8:note off:         (0x89,0x33,0x47).
time:  00015db0:note on:          (0x99,0x24,0x70).
time:  00015db0:note on:          (0x99,0x33,0x70).
time:  00015dd8:note off:         (0x89,0x24,0x47).
time:  00015dd8:note off:         (0x89,0x33,0x47).
time:  00015e28:note on:          (0x99,0x24,0x70).
time:  00015e50:note off:         (0x89,0x24,0x47).
time:  00015ea0:note on:          (0x99,0x26,0x70).
time:  00015ea0:note on:          (0x99,0x33,0x70).
time:  00015ec8:note off:         (0x89,0x26,0x47).
time:  00015ec8:note off:         (0x89,0x33,0x47).
time:  00015f90:note on:          (0x99,0x24,0x70).
time:  00015f90:note on:          (0x99,0x33,0x70).
time:  00015fb8:note off:         (0x89,0x24,0x47).
time:  00015fb8:note off:         (0x89,0x33,0x47).
time:  00016008:note on:          (0x99,0x24,0x70).
time:  00016030:note off:         (0x89,0x24,0x47).
time:  00016080:note on:          (0x99,0x26,0x70).
time:  00016080:note on:          (0x99,0x33,0x70).
time:  000160a8:note off:         (0x89,0x26,0x47).
time:  000160a8:note off:         (0x89,0x33,0x47).
time:  00016170:note on:          (0x99,0x24,0x70).
time:  00016170:note on:          (0x99,0x33,0x70).
time:  00016198:note off:         (0x89,0x24,0x47).
time:  00016198:note off:         (0x89,0x33,0x47).
time:  000161e8:note on:          (0x99,0x24,0x70).
time:  00016210:note off:         (0x89,0x24,0x47).
time:  00016260:note on:          (0x99,0x26,0x70).
time:  00016260:note on:          (0x99,0x33,0x70).
time:  00016288:note off:         (0x89,0x26,0x47).
time:  00016288:note off:         (0x89,0x33,0x47).
time:  00016350:note on:          (0x99,0x24,0x70).
time:  00016350:note on:          (0x99,0x33,0x70).
time:  00016378:note off:         (0x89,0x24,0x47).
time:  00016378:note off:         (0x89,0x33,0x47).
time:  000163c8:note on:          (0x99,0x24,0x70).
time:  000163f0:note off:         (0x89,0x24,0x47).
time:  00016440:note on:          (0x99,0x26,0x70).
time:  00016440:note on:          (0x99,0x33,0x70).
time:  00016468:note off:         (0x89,0x26,0x47).
time:  00016468:note off:         (0x89,0x33,0x47).
time:  00016530:note on:          (0x99,0x24,0x70).
time:  00016530:note on:          (0x99,0x33,0x70).
time:  00016558:note off:         (0x89,0x24,0x47).
time:  00016558:note off:         (0x89,0x33,0x47).
time:  000165a8:note on:          (0x99,0x24,0x70).
time:  000165d0:note off:         (0x89,0x24,0x47).
time:  00016620:note on:          (0x99,0x26,0x70).
time:  00016620:note on:          (0x99,0x33,0x70).
time:  00016648:note off:         (0x89,0x26,0x47).
time:  00016648:note off:         (0x89,0x33,0x47).
time:  00016710:note on:          (0x99,0x24,0x70).
time:  00016710:note on:          (0x99,0x33,0x70).
time:  00016738:note off:         (0x89,0x24,0x47).
time:  00016738:note off:         (0x89,0x33,0x47).
time:  00016788:note on:          (0x99,0x24,0x70).
time:  000167b0:note off:         (0x89,0x24,0x47).
time:  00016800:note on:          (0x99,0x26,0x70).
time:  00016800:note on:          (0x99,0x33,0x70).
time:  00016828:note off:         (0x89,0x26,0x47).
time:  00016828:note off:         (0x89,0x33,0x47).
time:  000168f0:note on:          (0x99,0x24,0x70).
time:  000168f0:note on:          (0x99,0x33,0x70).
time:  00016918:note off:         (0x89,0x24,0x47).
time:  00016918:note off:         (0x89,0x33,0x47).
time:  00016968:note on:          (0x99,0x24,0x70).
time:  00016990:note off:         (0x89,0x24,0x47).
time:  000169e0:note on:          (0x99,0x26,0x70).
time:  000169e0:note on:          (0x99,0x33,0x70).
time:  00016a08:note off:         (0x89,0x26,0x47).
time:  00016a08:note off:         (0x89,0x33,0x47).
time:  00016ad0:note on:          (0x99,0x24,0x70).
time:  00016ad0:note on:          (0x99,0x33,0x70).
time:  00016af8:note off:         (0x89,0x24,0x47).
time:  00016af8:note off:         (0x89,0x33,0x47).
time:  00016b48:note on:          (0x99,0x24,0x70).
time:  00016b70:note off:         (0x89,0x24,0x47).
time:  00016bc0:note on:          (0x99,0x26,0x70).
time:  00016bc0:note on:          (0x99,0x33,0x70).
time:  00016be8:note off:         (0x89,0x26,0x47).
time:  00016be8:note off:         (0x89,0x33,0x47).
time:  00016cb0:note on:          (0x99,0x24,0x70).
time:  00016cb0:note on:          (0x99,0x33,0x70).
time:  00016cd8:note off:         (0x89,0x24,0x47).
time:  00016cd8:note off:         (0x89,0x33,0x47).
time:  00016d28:note on:          (0x99,0x24,0x70).
time:  00016d50:note off:         (0x89,0x24,0x47).
time:  00016da0:note on:          (0x99,0x26,0x70).
time:  00016da0:note on:          (0x99,0x33,0x70).
time:  00016dc8:note off:         (0x89,0x26,0x47).
time:  00016dc8:note off:         (0x89,0x33,0x47).
time:  00016e90:note on:          (0x99,0x24,0x70).
time:  00016e90:note on:          (0x99,0x33,0x70).
time:  00016eb8:note off:         (0x89,0x24,0x47).
time:  00016eb8:note off:         (0x89,0x33,0x47).
time:  00016f08:note on:          (0x99,0x24,0x70).
time:  00016f30:note off:         (0x89,0x24,0x47).
time:  00016f80:note on:          (0x99,0x26,0x70).
time:  00016f80:note on:          (0x99,0x33,0x70).
time:  00016fa8:note off:         (0x89,0x26,0x47).
time:  00016fa8:note off:         (0x89,0x33,0x47).
time:  00017070:note on:          (0x99,0x24,0x70).
time:  00017070:note on:          (0x99,0x33,0x70).
time:  00017098:note off:         (0x89,0x24,0x47).
time:  00017098:note off:         (0x89,0x33,0x47).
time:  000170e8:note on:          (0x99,0x24,0x70).
time:  00017110:note off:         (0x89,0x24,0x47).
time:  00017160:note on:          (0x99,0x26,0x70).
time:  00017160:note on:          (0x99,0x33,0x70).
time:  00017188:note off:         (0x89,0x26,0x47).
time:  00017188:note off:         (0x89,0x33,0x47).
time:  00017250:note on:          (0x99,0x24,0x70).
time:  00017250:note on:          (0x99,0x33,0x70).
time:  00017278:note off:         (0x89,0x24,0x47).
time:  00017278:note off:         (0x89,0x33,0x47).
time:  000172c8:note on:          (0x99,0x24,0x70).
time:  000172f0:note off:         (0x89,0x24,0x47).
time:  00017340:note on:          (0x99,0x26,0x70).
time:  00017340:note on:          (0x99,0x33,0x70).
time:  00017368:note off:         (0x89,0x26,0x47).
time:  00017368:note off:         (0x89,0x33,0x47).
time:  00017430:note on:          (0x99,0x24,0x70).
time:  00017430:note on:          (0x99,0x33,0x70).
time:  00017458:note off:         (0x89,0x24,0x47).
time:  00017458:note off:         (0x89,0x33,0x47).
time:  000174a8:note on:          (0x99,0x24,0x70).
time:  000174d0:note off:         (0x89,0x24,0x47).
time:  00017520:note on:          (0x99,0x26,0x70).
time:  00017520:note on:          (0x99,0x33,0x70).
time:  00017548:note off:         (0x89,0x26,0x47).
time:  00017548:note off:         (0x89,0x33,0x47).
time:  00017610:note on:          (0x99,0x24,0x70).
time:  00017610:note on:          (0x99,0x33,0x70).
time:  00017638:note off:         (0x89,0x24,0x47).
time:  00017638:note off:         (0x89,0x33,0x47).
time:  00017688:note on:          (0x99,0x24,0x70).
time:  000176b0:note off:         (0x89,0x24,0x47).
time:  00017700:note on:          (0x99,0x26,0x70).
time:  00017700:note on:          (0x99,0x33,0x70).
time:  00017728:note off:         (0x89,0x26,0x47).
time:  00017728:note off:         (0x89,0x33,0x47).
time:  000177f0:note on:          (0x99,0x24,0x70).
time:  000177f0:note on:          (0x99,0x33,0x70).
time:  00017818:note off:         (0x89,0x24,0x47).
time:  00017818:note off:         (0x89,0x33,0x47).
time:  00017868:note on:          (0x99,0x24,0x70).
time:  00017890:note off:         (0x89,0x24,0x47).
time:  000178e0:note on:          (0x99,0x26,0x70).
time:  000178e0:note on:          (0x99,0x33,0x70).
time:  00017908:note off:         (0x89,0x26,0x47).
time:  00017908:note off:         (0x89,0x33,0x47).
time:  000179d0:note on:          (0x99,0x24,0x70).
time:  000179d0:note on:          (0x99,0x33,0x70).
time:  000179f8:note off:         (0x89,0x24,0x47).
time:  000179f8:note off:         (0x89,0x33,0x47).
time:  00017a48:note on:          (0x99,0x24,0x70).
time:  00017a70:note off:         (0x89,0x24,0x47).
time:  00017ac0:note on:          (0x99,0x26,0x70).
time:  00017ac0:note on:          (0x99,0x33,0x70).
time:  00017ae8:note off:         (0x89,0x26,0x47).
time:  00017ae8:note off:         (0x89,0x33,0x47).
time:  00017bb0:note on:          (0x99,0x24,0x70).
time:  00017bb0:note on:          (0x99,0x33,0x70).
time:  00017bd8:note off:         (0x89,0x24,0x47).
time:  00017bd8:note off:         (0x89,0x33,0x47).
time:  00017c28:note on:          (0x99,0x24,0x70).
time:  00017c50:note off:         (0x89,0x24,0x47).
time:  00017ca0:note on:          (0x99,0x26,0x70).
time:  00017ca0:note on:          (0x99,0x33,0x70).
time:  00017cc8:note off:         (0x89,0x26,0x47).
time:  00017cc8:note off:         (0x89,0x33,0x47).
time:  00017d90:note on:          (0x99,0x24,0x70).
time:  00017d90:note on:          (0x99,0x33,0x70).
time:  00017db8:note off:         (0x89,0x24,0x47).
time:  00017db8:note off:         (0x89,0x33,0x47).
time:  00017e08:note on:          (0x99,0x24,0x70).
time:  00017e30:note off:         (0x89,0x24,0x47).
time:  00017e80:note on:          (0x99,0x26,0x70).
time:  00017e80:note on:          (0x99,0x33,0x70).
time:  00017ea8:note off:         (0x89,0x26,0x47).
time:  00017ea8:note off:         (0x89,0x33,0x47).
time:  00017f70:note on:          (0x99,0x24,0x70).
time:  00017f70:note on:          (0x99,0x33,0x70).
time:  00017f98:note off:         (0x89,0x24,0x47).
time:  00017f98:note off:         (0x89,0x33,0x47).
time:  00017fe8:note on:          (0x99,0x24,0x70).
time:  00018010:note off:         (0x89,0x24,0x47).
time:  00018060:note on:          (0x99,0x26,0x70).
time:  00018060:note on:          (0x99,0x33,0x70).
time:  00018088:note off:         (0x89,0x26,0x47).
time:  00018088:note off:         (0x89,0x33,0x47).
time:  00018150:note on:          (0x99,0x24,0x70).
time:  00018150:note on:          (0x99,0x33,0x70).
time:  00018178:note off:         (0x89,0x24,0x47).
time:  00018178:note off:         (0x89,0x33,0x47).
time:  000181c8:note on:          (0x99,0x24,0x70).
time:  000181f0:note off:         (0x89,0x24,0x47).
time:  00018240:note on:          (0x99,0x26,0x70).
time:  00018240:note on:          (0x99,0x33,0x70).
time:  00018268:note off:         (0x89,0x26,0x47).
time:  00018268:note off:         (0x89,0x33,0x47).
time:  00018330:note on:          (0x99,0x24,0x70).
time:  00018330:note on:          (0x99,0x33,0x70).
time:  00018358:note off:         (0x89,0x24,0x47).
time:  00018358:note off:         (0x89,0x33,0x47).
time:  000183a8:note on:          (0x99,0x24,0x70).
time:  000183d0:note off:         (0x89,0x24,0x47).
time:  00018420:note on:          (0x99,0x26,0x70).
time:  00018420:note on:          (0x99,0x33,0x70).
time:  00018448:note off:         (0x89,0x26,0x47).
time:  00018448:note off:         (0x89,0x33,0x47).
time:  00018510:note on:          (0x99,0x24,0x70).
time:  00018510:note on:          (0x99,0x33,0x70).
time:  00018538:note off:         (0x89,0x24,0x47).
time:  00018538:note off:         (0x89,0x33,0x47).
time:  00018588:note on:          (0x99,0x24,0x70).
time:  000185b0:note off:         (0x89,0x24,0x47).
time:  00018600:note on:          (0x99,0x26,0x70).
time:  00018600:note on:          (0x99,0x33,0x70).
time:  00018600:note on:          (0x99,0x37,0x70).
time:  00018628:note off:         (0x89,0x26,0x47).
time:  00018628:note off:         (0x89,0x33,0x47).
time:  00018628:note off:         (0x89,0x37,0x47).
time:  00018678:note on:          (0x99,0x26,0x70).
time:  00018678:note on:          (0x99,0x39,0x70).
time:  000186a0:note off:         (0x89,0x26,0x47).
time:  000186a0:note off:         (0x89,0x39,0x47).
time:  000186f0:note on:          (0x99,0x39,0x54).
time:  000186f0:note on:          (0x99,0x31,0x54).
time:  000186f0:note on:          (0x99,0x33,0x54).
time:  000186f0:note on:          (0x99,0x26,0x54).
time:  000186f0:note on:          (0x99,0x26,0x54).
time:  000186f0:note on:          (0x99,0x24,0x54).
time:  00018718:note off:         (0x89,0x39,0x47).
time:  00018718:note off:         (0x89,0x31,0x47).
time:  00018718:note off:         (0x89,0x33,0x47).
time:  00018718:note off:         (0x89,0x26,0x47).
time:  00018718:note off:         (0x89,0x24,0x47).
time:  0001872c:note on:          (0x99,0x24,0x70).
time:  0001872c:note on:          (0x99,0x26,0x70).
time:  00018740:note off:         (0x89,0x26,0x47).
time:  00018754:note off:         (0x89,0x24,0x47).
time:  00018754:note off:         (0x89,0x26,0x47).
time:  00018768:note on:          (0x99,0x33,0x54).
time:  00018768:note on:          (0x99,0x24,0x70).
time:  00018790:note off:         (0x89,0x33,0x47).
time:  00018790:note off:         (0x89,0x24,0x47).
time:  000187e0:note on:          (0x99,0x39,0x54).
time:  000187e0:note on:          (0x99,0x31,0x54).
time:  000187e0:note on:          (0x99,0x33,0x54).
time:  000187e0:note on:          (0x99,0x26,0x54).
time:  000187e0:note on:          (0x99,0x24,0x54).
time:  00018808:note off:         (0x89,0x39,0x47).
time:  00018808:note off:         (0x89,0x31,0x47).
time:  00018808:note off:         (0x89,0x33,0x47).
time:  00018808:note off:         (0x89,0x24,0x47).
time:  00018830:note off:         (0x89,0x26,0x47).
time:  00018858:note on:          (0x99,0x33,0x54).
time:  00018880:note off:         (0x89,0x33,0x47).
time:  000188d0:note on:          (0x99,0x39,0x54).
time:  000188d0:note on:          (0x99,0x31,0x54).
time:  000188d0:note on:          (0x99,0x33,0x54).
time:  000188d0:note on:          (0x99,0x26,0x54).
time:  000188d0:note on:          (0x99,0x24,0x70).
time:  000188f8:note off:         (0x89,0x39,0x47).
time:  000188f8:note off:         (0x89,0x31,0x47).
time:  000188f8:note off:         (0x89,0x33,0x47).
time:  000188f8:note off:         (0x89,0x24,0x47).
time:  0001890c:note on:          (0x99,0x26,0x70).
time:  0001890c:note on:          (0x99,0x24,0x70).
time:  00018920:note off:         (0x89,0x26,0x47).
time:  00018934:note off:         (0x89,0x26,0x47).
time:  00018934:note off:         (0x89,0x24,0x47).
time:  00018948:note on:          (0x99,0x33,0x54).
time:  00018948:note on:          (0x99,0x24,0x70).
time:  00018970:note off:         (0x89,0x33,0x47).
time:  00018970:note off:         (0x89,0x24,0x47).
time:  000189c0:note on:          (0x99,0x39,0x54).
time:  000189c0:note on:          (0x99,0x31,0x54).
time:  000189c0:note on:          (0x99,0x33,0x54).
time:  000189c0:note on:          (0x99,0x26,0x54).
time:  000189c0:note on:          (0x99,0x24,0x70).
time:  000189e8:note off:         (0x89,0x39,0x47).
time:  000189e8:note off:         (0x89,0x31,0x47).
time:  000189e8:note off:         (0x89,0x33,0x47).
time:  000189e8:note off:         (0x89,0x24,0x47).
time:  00018a10:note off:         (0x89,0x26,0x47).
time:  00018a38:note on:          (0x99,0x33,0x54).
time:  00018a38:note on:          (0x99,0x24,0x70).
time:  00018a60:note off:         (0x89,0x33,0x47).
time:  00018a60:note off:         (0x89,0x24,0x47).
time:  00018ab0:note on:          (0x99,0x39,0x54).
time:  00018ab0:note on:          (0x99,0x31,0x54).
time:  00018ab0:note on:          (0x99,0x33,0x54).
time:  00018ab0:note on:          (0x99,0x26,0x54).
time:  00018ab0:note on:          (0x99,0x26,0x54).
time:  00018ab0:note on:          (0x99,0x24,0x54).
time:  00018ad8:note off:         (0x89,0x39,0x47).
time:  00018ad8:note off:         (0x89,0x31,0x47).
time:  00018ad8:note off:         (0x89,0x33,0x47).
time:  00018ad8:note off:         (0x89,0x26,0x47).
time:  00018ad8:note off:         (0x89,0x24,0x47).
time:  00018aec:note on:          (0x99,0x24,0x70).
time:  00018aec:note on:          (0x99,0x26,0x70).
time:  00018b00:note off:         (0x89,0x26,0x47).
time:  00018b14:note off:         (0x89,0x24,0x47).
time:  00018b14:note off:         (0x89,0x26,0x47).
time:  00018b28:note on:          (0x99,0x33,0x54).
time:  00018b28:note on:          (0x99,0x24,0x70).
time:  00018b50:note off:         (0x89,0x33,0x47).
time:  00018b50:note off:         (0x89,0x24,0x47).
time:  00018ba0:note on:          (0x99,0x39,0x54).
time:  00018ba0:note on:          (0x99,0x31,0x54).
time:  00018ba0:note on:          (0x99,0x33,0x54).
time:  00018ba0:note on:          (0x99,0x26,0x54).
time:  00018ba0:note on:          (0x99,0x24,0x54).
time:  00018bc8:note off:         (0x89,0x39,0x47).
time:  00018bc8:note off:         (0x89,0x31,0x47).
time:  00018bc8:note off:         (0x89,0x33,0x47).
time:  00018bc8:note off:         (0x89,0x24,0x47).
time:  00018bf0:note off:         (0x89,0x26,0x47).
time:  00018c18:note on:          (0x99,0x33,0x54).
time:  00018c40:note off:         (0x89,0x33,0x47).
time:  00018c90:note on:          (0x99,0x39,0x54).
time:  00018c90:note on:          (0x99,0x31,0x54).
time:  00018c90:note on:          (0x99,0x33,0x54).
time:  00018c90:note on:          (0x99,0x26,0x54).
time:  00018c90:note on:          (0x99,0x24,0x70).
time:  00018cb8:note off:         (0x89,0x39,0x47).
time:  00018cb8:note off:         (0x89,0x31,0x47).
time:  00018cb8:note off:         (0x89,0x33,0x47).
time:  00018cb8:note off:         (0x89,0x24,0x47).
time:  00018ccc:note on:          (0x99,0x26,0x70).
time:  00018ccc:note on:          (0x99,0x24,0x70).
time:  00018ce0:note off:         (0x89,0x26,0x47).
time:  00018cf4:note off:         (0x89,0x26,0x47).
time:  00018cf4:note off:         (0x89,0x24,0x47).
time:  00018d08:note on:          (0x99,0x33,0x54).
time:  00018d08:note on:          (0x99,0x24,0x70).
time:  00018d30:note off:         (0x89,0x33,0x47).
time:  00018d30:note off:         (0x89,0x24,0x47).
time:  00018d80:note on:          (0x99,0x39,0x54).
time:  00018d80:note on:          (0x99,0x31,0x54).
time:  00018d80:note on:          (0x99,0x33,0x54).
time:  00018d80:note on:          (0x99,0x26,0x54).
time:  00018d80:note on:          (0x99,0x24,0x70).
time:  00018da8:note off:         (0x89,0x39,0x47).
time:  00018da8:note off:         (0x89,0x31,0x47).
time:  00018da8:note off:         (0x89,0x33,0x47).
time:  00018da8:note off:         (0x89,0x24,0x47).
time:  00018dd0:note off:         (0x89,0x26,0x47).
time:  00018df8:note on:          (0x99,0x33,0x54).
time:  00018df8:note on:          (0x99,0x24,0x70).
time:  00018df8:note on:          (0x99,0x26,0x70).
time:  00018e20:note off:         (0x89,0x33,0x47).
time:  00018e20:note off:         (0x89,0x24,0x47).
time:  00018e20:note off:         (0x89,0x26,0x47).
time:  00018e70:note on:          (0x99,0x39,0x54).
time:  00018e70:note on:          (0x99,0x31,0x54).
time:  00018e70:note on:          (0x99,0x33,0x54).
time:  00018e70:note on:          (0x99,0x26,0x54).
time:  00018e70:note on:          (0x99,0x26,0x54).
time:  00018e70:note on:          (0x99,0x24,0x54).
time:  00018e98:note off:         (0x89,0x39,0x47).
time:  00018e98:note off:         (0x89,0x31,0x47).
time:  00018e98:note off:         (0x89,0x33,0x47).
time:  00018e98:note off:         (0x89,0x26,0x47).
time:  00018e98:note off:         (0x89,0x24,0x47).
time:  00018eac:note on:          (0x99,0x24,0x70).
time:  00018eac:note on:          (0x99,0x26,0x70).
time:  00018ec0:note off:         (0x89,0x26,0x47).
time:  00018ed4:note off:         (0x89,0x24,0x47).
time:  00018ed4:note off:         (0x89,0x26,0x47).
time:  00018ee8:note on:          (0x99,0x33,0x54).
time:  00018ee8:note on:          (0x99,0x24,0x70).
time:  00018f10:note off:         (0x89,0x33,0x47).
time:  00018f10:note off:         (0x89,0x24,0x47).
time:  00018f60:note on:          (0x99,0x39,0x54).
time:  00018f60:note on:          (0x99,0x31,0x54).
time:  00018f60:note on:          (0x99,0x33,0x54).
time:  00018f60:note on:          (0x99,0x26,0x54).
time:  00018f60:note on:          (0x99,0x24,0x54).
time:  00018f88:note off:         (0x89,0x39,0x47).
time:  00018f88:note off:         (0x89,0x31,0x47).
time:  00018f88:note off:         (0x89,0x33,0x47).
time:  00018f88:note off:         (0x89,0x24,0x47).
time:  00018fb0:note off:         (0x89,0x26,0x47).
time:  00018fd8:note on:          (0x99,0x33,0x54).
time:  00019000:note off:         (0x89,0x33,0x47).
time:  00019050:note on:          (0x99,0x39,0x54).
time:  00019050:note on:          (0x99,0x31,0x54).
time:  00019050:note on:          (0x99,0x33,0x54).
time:  00019050:note on:          (0x99,0x26,0x54).
time:  00019050:note on:          (0x99,0x24,0x70).
time:  00019078:note off:         (0x89,0x39,0x47).
time:  00019078:note off:         (0x89,0x31,0x47).
time:  00019078:note off:         (0x89,0x33,0x47).
time:  00019078:note off:         (0x89,0x24,0x47).
time:  0001908c:note on:          (0x99,0x26,0x70).
time:  0001908c:note on:          (0x99,0x24,0x70).
time:  000190a0:note off:         (0x89,0x26,0x47).
time:  000190b4:note off:         (0x89,0x26,0x47).
time:  000190b4:note off:         (0x89,0x24,0x47).
time:  000190c8:note on:          (0x99,0x33,0x54).
time:  000190c8:note on:          (0x99,0x24,0x70).
time:  000190f0:note off:         (0x89,0x33,0x47).
time:  000190f0:note off:         (0x89,0x24,0x47).
time:  00019140:note on:          (0x99,0x39,0x54).
time:  00019140:note on:          (0x99,0x31,0x54).
time:  00019140:note on:          (0x99,0x33,0x54).
time:  00019140:note on:          (0x99,0x26,0x54).
time:  00019140:note on:          (0x99,0x24,0x70).
time:  00019168:note off:         (0x89,0x39,0x47).
time:  00019168:note off:         (0x89,0x31,0x47).
time:  00019168:note off:         (0x89,0x33,0x47).
time:  00019168:note off:         (0x89,0x24,0x47).
time:  00019190:note off:         (0x89,0x26,0x47).
time:  000191b8:note on:          (0x99,0x33,0x54).
time:  000191b8:note on:          (0x99,0x24,0x70).
time:  000191e0:note off:         (0x89,0x33,0x47).
time:  000191e0:note off:         (0x89,0x24,0x47).
time:  00019230:note on:          (0x99,0x39,0x54).
time:  00019230:note on:          (0x99,0x31,0x54).
time:  00019230:note on:          (0x99,0x33,0x54).
time:  00019230:note on:          (0x99,0x26,0x54).
time:  00019230:note on:          (0x99,0x26,0x54).
time:  00019230:note on:          (0x99,0x24,0x54).
time:  00019258:note off:         (0x89,0x39,0x47).
time:  00019258:note off:         (0x89,0x31,0x47).
time:  00019258:note off:         (0x89,0x33,0x47).
time:  00019258:note off:         (0x89,0x26,0x47).
time:  00019258:note off:         (0x89,0x24,0x47).
time:  0001926c:note on:          (0x99,0x24,0x70).
time:  0001926c:note on:          (0x99,0x26,0x70).
time:  00019280:note off:         (0x89,0x26,0x47).
time:  00019294:note off:         (0x89,0x24,0x47).
time:  00019294:note off:         (0x89,0x26,0x47).
time:  000192a8:note on:          (0x99,0x33,0x54).
time:  000192a8:note on:          (0x99,0x24,0x70).
time:  000192d0:note off:         (0x89,0x33,0x47).
time:  000192d0:note off:         (0x89,0x24,0x47).
time:  00019320:note on:          (0x99,0x39,0x54).
time:  00019320:note on:          (0x99,0x31,0x54).
time:  00019320:note on:          (0x99,0x33,0x54).
time:  00019320:note on:          (0x99,0x26,0x54).
time:  00019320:note on:          (0x99,0x24,0x54).
time:  00019348:note off:         (0x89,0x39,0x47).
time:  00019348:note off:         (0x89,0x31,0x47).
time:  00019348:note off:         (0x89,0x33,0x47).
time:  00019348:note off:         (0x89,0x24,0x47).
time:  00019370:note off:         (0x89,0x26,0x47).
time:  00019398:note on:          (0x99,0x33,0x54).
time:  000193c0:note off:         (0x89,0x33,0x47).
time:  00019410:note on:          (0x99,0x39,0x54).
time:  00019410:note on:          (0x99,0x31,0x54).
time:  00019410:note on:          (0x99,0x33,0x54).
time:  00019410:note on:          (0x99,0x26,0x54).
time:  00019410:note on:          (0x99,0x24,0x70).
time:  00019438:note off:         (0x89,0x39,0x47).
time:  00019438:note off:         (0x89,0x31,0x47).
time:  00019438:note off:         (0x89,0x33,0x47).
time:  00019438:note off:         (0x89,0x24,0x47).
time:  0001944c:note on:          (0x99,0x26,0x70).
time:  0001944c:note on:          (0x99,0x24,0x70).
time:  00019460:note off:         (0x89,0x26,0x47).
time:  00019474:note off:         (0x89,0x26,0x47).
time:  00019474:note off:         (0x89,0x24,0x47).
time:  00019488:note on:          (0x99,0x33,0x54).
time:  00019488:note on:          (0x99,0x24,0x70).
time:  000194b0:note off:         (0x89,0x33,0x47).
time:  000194b0:note off:         (0x89,0x24,0x47).
time:  00019500:note on:          (0x99,0x39,0x54).
time:  00019500:note on:          (0x99,0x31,0x54).
time:  00019500:note on:          (0x99,0x33,0x54).
time:  00019500:note on:          (0x99,0x26,0x54).
time:  00019500:note on:          (0x99,0x24,0x70).
time:  00019528:note off:         (0x89,0x39,0x47).
time:  00019528:note off:         (0x89,0x31,0x47).
time:  00019528:note off:         (0x89,0x33,0x47).
time:  00019528:note off:         (0x89,0x24,0x47).
time:  00019550:note off:         (0x89,0x26,0x47).
time:  00019578:note on:          (0x99,0x33,0x54).
time:  00019578:note on:          (0x99,0x24,0x70).
time:  00019578:note on:          (0x99,0x26,0x70).
time:  000195a0:note off:         (0x89,0x33,0x47).
time:  000195a0:note off:         (0x89,0x24,0x47).
time:  000195a0:note off:         (0x89,0x26,0x47).
time:  000195f0:note on:          (0x99,0x39,0x54).
time:  000195f0:note on:          (0x99,0x31,0x54).
time:  000195f0:note on:          (0x99,0x33,0x54).
time:  000195f0:note on:          (0x99,0x26,0x54).
time:  000195f0:note on:          (0x99,0x26,0x54).
time:  000195f0:note on:          (0x99,0x24,0x54).
time:  00019618:note off:         (0x89,0x39,0x47).
time:  00019618:note off:         (0x89,0x31,0x47).
time:  00019618:note off:         (0x89,0x33,0x47).
time:  00019618:note off:         (0x89,0x26,0x47).
time:  00019618:note off:         (0x89,0x24,0x47).
time:  0001962c:note on:          (0x99,0x24,0x70).
time:  0001962c:note on:          (0x99,0x26,0x70).
time:  00019640:note off:         (0x89,0x26,0x47).
time:  00019654:note off:         (0x89,0x24,0x47).
time:  00019654:note off:         (0x89,0x26,0x47).
time:  00019668:note on:          (0x99,0x33,0x54).
time:  00019668:note on:          (0x99,0x24,0x70).
time:  00019690:note off:         (0x89,0x33,0x47).
time:  00019690:note off:         (0x89,0x24,0x47).
time:  000196e0:note on:          (0x99,0x39,0x54).
time:  000196e0:note on:          (0x99,0x31,0x54).
time:  000196e0:note on:          (0x99,0x33,0x54).
time:  000196e0:note on:          (0x99,0x26,0x54).
time:  000196e0:note on:          (0x99,0x24,0x54).
time:  00019708:note off:         (0x89,0x39,0x47).
time:  00019708:note off:         (0x89,0x31,0x47).
time:  00019708:note off:         (0x89,0x33,0x47).
time:  00019708:note off:         (0x89,0x24,0x47).
time:  00019730:note off:         (0x89,0x26,0x47).
time:  00019758:note on:          (0x99,0x33,0x54).
time:  00019780:note off:         (0x89,0x33,0x47).
time:  000197d0:note on:          (0x99,0x39,0x54).
time:  000197d0:note on:          (0x99,0x31,0x54).
time:  000197d0:note on:          (0x99,0x33,0x54).
time:  000197d0:note on:          (0x99,0x26,0x54).
time:  000197d0:note on:          (0x99,0x24,0x70).
time:  000197f8:note off:         (0x89,0x39,0x47).
time:  000197f8:note off:         (0x89,0x31,0x47).
time:  000197f8:note off:         (0x89,0x33,0x47).
time:  000197f8:note off:         (0x89,0x24,0x47).
time:  0001980c:note on:          (0x99,0x26,0x70).
time:  0001980c:note on:          (0x99,0x24,0x70).
time:  00019820:note off:         (0x89,0x26,0x47).
time:  00019834:note off:         (0x89,0x26,0x47).
time:  00019834:note off:         (0x89,0x24,0x47).
time:  00019848:note on:          (0x99,0x33,0x54).
time:  00019848:note on:          (0x99,0x24,0x70).
time:  00019870:note off:         (0x89,0x33,0x47).
time:  00019870:note off:         (0x89,0x24,0x47).
time:  000198c0:note on:          (0x99,0x39,0x54).
time:  000198c0:note on:          (0x99,0x31,0x54).
time:  000198c0:note on:          (0x99,0x33,0x54).
time:  000198c0:note on:          (0x99,0x26,0x54).
time:  000198c0:note on:          (0x99,0x24,0x70).
time:  000198e8:note off:         (0x89,0x39,0x47).
time:  000198e8:note off:         (0x89,0x31,0x47).
time:  000198e8:note off:         (0x89,0x33,0x47).
time:  000198e8:note off:         (0x89,0x24,0x47).
time:  00019910:note off:         (0x89,0x26,0x47).
time:  00019938:note on:          (0x99,0x33,0x54).
time:  00019938:note on:          (0x99,0x24,0x70).
time:  00019960:note off:         (0x89,0x33,0x47).
time:  00019960:note off:         (0x89,0x24,0x47).
time:  000199b0:note on:          (0x99,0x39,0x54).
time:  000199b0:note on:          (0x99,0x31,0x54).
time:  000199b0:note on:          (0x99,0x33,0x54).
time:  000199b0:note on:          (0x99,0x26,0x54).
time:  000199b0:note on:          (0x99,0x26,0x54).
time:  000199b0:note on:          (0x99,0x24,0x54).
time:  000199d8:note off:         (0x89,0x39,0x47).
time:  000199d8:note off:         (0x89,0x31,0x47).
time:  000199d8:note off:         (0x89,0x33,0x47).
time:  000199d8:note off:         (0x89,0x26,0x47).
time:  000199d8:note off:         (0x89,0x24,0x47).
time:  000199ec:note on:          (0x99,0x24,0x70).
time:  000199ec:note on:          (0x99,0x26,0x70).
time:  00019a00:note off:         (0x89,0x26,0x47).
time:  00019a14:note off:         (0x89,0x24,0x47).
time:  00019a14:note off:         (0x89,0x26,0x47).
time:  00019a28:note on:          (0x99,0x33,0x54).
time:  00019a28:note on:          (0x99,0x24,0x70).
time:  00019a50:note off:         (0x89,0x33,0x47).
time:  00019a50:note off:         (0x89,0x24,0x47).
time:  00019aa0:note on:          (0x99,0x39,0x54).
time:  00019aa0:note on:          (0x99,0x31,0x54).
time:  00019aa0:note on:          (0x99,0x33,0x54).
time:  00019aa0:note on:          (0x99,0x26,0x54).
time:  00019aa0:note on:          (0x99,0x24,0x54).
time:  00019ac8:note off:         (0x89,0x39,0x47).
time:  00019ac8:note off:         (0x89,0x31,0x47).
time:  00019ac8:note off:         (0x89,0x33,0x47).
time:  00019ac8:note off:         (0x89,0x24,0x47).
time:  00019af0:note off:         (0x89,0x26,0x47).
time:  00019b18:note on:          (0x99,0x33,0x54).
time:  00019b40:note off:         (0x89,0x33,0x47).
time:  00019b90:note on:          (0x99,0x39,0x54).
time:  00019b90:note on:          (0x99,0x31,0x54).
time:  00019b90:note on:          (0x99,0x33,0x54).
time:  00019b90:note on:          (0x99,0x26,0x54).
time:  00019b90:note on:          (0x99,0x24,0x70).
time:  00019bb8:note off:         (0x89,0x39,0x47).
time:  00019bb8:note off:         (0x89,0x31,0x47).
time:  00019bb8:note off:         (0x89,0x33,0x47).
time:  00019bb8:note off:         (0x89,0x24,0x47).
time:  00019bcc:note on:          (0x99,0x26,0x70).
time:  00019bcc:note on:          (0x99,0x24,0x70).
time:  00019be0:note off:         (0x89,0x26,0x47).
time:  00019bf4:note off:         (0x89,0x26,0x47).
time:  00019bf4:note off:         (0x89,0x24,0x47).
time:  00019c08:note on:          (0x99,0x33,0x54).
time:  00019c08:note on:          (0x99,0x24,0x70).
time:  00019c30:note off:         (0x89,0x33,0x47).
time:  00019c30:note off:         (0x89,0x24,0x47).
time:  00019c80:note on:          (0x99,0x39,0x54).
time:  00019c80:note on:          (0x99,0x31,0x54).
time:  00019c80:note on:          (0x99,0x33,0x54).
time:  00019c80:note on:          (0x99,0x26,0x54).
time:  00019c80:note on:          (0x99,0x24,0x70).
time:  00019ca8:note off:         (0x89,0x39,0x47).
time:  00019ca8:note off:         (0x89,0x31,0x47).
time:  00019ca8:note off:         (0x89,0x33,0x47).
time:  00019ca8:note off:         (0x89,0x24,0x47).
time:  00019cd0:note off:         (0x89,0x26,0x47).
time:  00019cf8:note on:          (0x99,0x33,0x54).
time:  00019cf8:note on:          (0x99,0x24,0x70).
time:  00019cf8:note on:          (0x99,0x26,0x70).
time:  00019d20:note off:         (0x89,0x33,0x47).
time:  00019d20:note off:         (0x89,0x24,0x47).
time:  00019d20:note off:         (0x89,0x26,0x47).
time:  00019d70:note on:          (0x99,0x39,0x54).
time:  00019d70:note on:          (0x99,0x31,0x54).
time:  00019d70:note on:          (0x99,0x33,0x54).
time:  00019d70:note on:          (0x99,0x26,0x54).
time:  00019d70:note on:          (0x99,0x26,0x54).
time:  00019d70:note on:          (0x99,0x24,0x54).
time:  00019d98:note off:         (0x89,0x39,0x47).
time:  00019d98:note off:         (0x89,0x31,0x47).
time:  00019d98:note off:         (0x89,0x33,0x47).
time:  00019d98:note off:         (0x89,0x26,0x47).
time:  00019d98:note off:         (0x89,0x24,0x47).
time:  00019dac:note on:          (0x99,0x24,0x70).
time:  00019dac:note on:          (0x99,0x26,0x70).
time:  00019dc0:note off:         (0x89,0x26,0x47).
time:  00019dd4:note off:         (0x89,0x24,0x47).
time:  00019dd4:note off:         (0x89,0x26,0x47).
time:  00019de8:note on:          (0x99,0x33,0x54).
time:  00019de8:note on:          (0x99,0x24,0x70).
time:  00019e10:note off:         (0x89,0x33,0x47).
time:  00019e10:note off:         (0x89,0x24,0x47).
time:  00019e60:note on:          (0x99,0x39,0x54).
time:  00019e60:note on:          (0x99,0x31,0x54).
time:  00019e60:note on:          (0x99,0x33,0x54).
time:  00019e60:note on:          (0x99,0x26,0x54).
time:  00019e60:note on:          (0x99,0x24,0x54).
time:  00019e88:note off:         (0x89,0x39,0x47).
time:  00019e88:note off:         (0x89,0x31,0x47).
time:  00019e88:note off:         (0x89,0x33,0x47).
time:  00019e88:note off:         (0x89,0x24,0x47).
time:  00019eb0:note off:         (0x89,0x26,0x47).
time:  00019ed8:note on:          (0x99,0x33,0x54).
time:  00019f00:note off:         (0x89,0x33,0x47).
time:  00019f50:note on:          (0x99,0x39,0x54).
time:  00019f50:note on:          (0x99,0x31,0x54).
time:  00019f50:note on:          (0x99,0x33,0x54).
time:  00019f50:note on:          (0x99,0x26,0x54).
time:  00019f50:note on:          (0x99,0x24,0x70).
time:  00019f78:note off:         (0x89,0x39,0x47).
time:  00019f78:note off:         (0x89,0x31,0x47).
time:  00019f78:note off:         (0x89,0x33,0x47).
time:  00019f78:note off:         (0x89,0x24,0x47).
time:  00019f8c:note on:          (0x99,0x26,0x70).
time:  00019f8c:note on:          (0x99,0x24,0x70).
time:  00019fa0:note off:         (0x89,0x26,0x47).
time:  00019fb4:note off:         (0x89,0x26,0x47).
time:  00019fb4:note off:         (0x89,0x24,0x47).
time:  00019fc8:note on:          (0x99,0x33,0x54).
time:  00019fc8:note on:          (0x99,0x24,0x70).
time:  00019ff0:note off:         (0x89,0x33,0x47).
time:  00019ff0:note off:         (0x89,0x24,0x47).
time:  0001a040:note on:          (0x99,0x39,0x54).
time:  0001a040:note on:          (0x99,0x31,0x54).
time:  0001a040:note on:          (0x99,0x33,0x54).
time:  0001a040:note on:          (0x99,0x26,0x54).
time:  0001a040:note on:          (0x99,0x24,0x70).
time:  0001a068:note off:         (0x89,0x39,0x47).
time:  0001a068:note off:         (0x89,0x31,0x47).
time:  0001a068:note off:         (0x89,0x33,0x47).
time:  0001a068:note off:         (0x89,0x24,0x47).
time:  0001a090:note off:         (0x89,0x26,0x47).
time:  0001a0b8:note on:          (0x99,0x33,0x54).
time:  0001a0b8:note on:          (0x99,0x24,0x70).
time:  0001a0e0:note off:         (0x89,0x33,0x47).
time:  0001a0e0:note off:         (0x89,0x24,0x47).
time:  0001a130:note on:          (0x99,0x39,0x54).
time:  0001a130:note on:          (0x99,0x31,0x54).
time:  0001a130:note on:          (0x99,0x33,0x54).
time:  0001a130:note on:          (0x99,0x26,0x70).
time:  0001a130:note on:          (0x99,0x24,0x70).
time:  0001a158:note off:         (0x89,0x39,0x47).
time:  0001a158:note off:         (0x89,0x31,0x47).
time:  0001a158:note off:         (0x89,0x33,0x47).
time:  0001a158:note off:         (0x89,0x26,0x47).
time:  0001a158:note off:         (0x89,0x24,0x47).
time:  0001a16c:note on:          (0x99,0x26,0x70).
time:  0001a194:note off:         (0x89,0x26,0x47).
time:  0001a1a8:note on:          (0x99,0x33,0x54).
time:  0001a1a8:note on:          (0x99,0x26,0x70).
time:  0001a1a8:note on:          (0x99,0x24,0x70).
time:  0001a1d0:note off:         (0x89,0x33,0x47).
time:  0001a1d0:note off:         (0x89,0x26,0x47).
time:  0001a1d0:note off:         (0x89,0x24,0x47).
time:  0001a1e4:note on:          (0x99,0x26,0x70).
time:  0001a20c:note off:         (0x89,0x26,0x47).
time:  0001a220:note on:          (0x99,0x39,0x54).
time:  0001a220:note on:          (0x99,0x31,0x54).
time:  0001a220:note on:          (0x99,0x33,0x54).
time:  0001a220:note on:          (0x99,0x26,0x70).
time:  0001a220:note on:          (0x99,0x24,0x70).
time:  0001a248:note off:         (0x89,0x39,0x47).
time:  0001a248:note off:         (0x89,0x31,0x47).
time:  0001a248:note off:         (0x89,0x33,0x47).
time:  0001a248:note off:         (0x89,0x26,0x47).
time:  0001a248:note off:         (0x89,0x24,0x47).
time:  0001a25c:note on:          (0x99,0x26,0x70).
time:  0001a284:note off:         (0x89,0x26,0x47).
time:  0001a298:note on:          (0x99,0x33,0x54).
time:  0001a298:note on:          (0x99,0x26,0x70).
time:  0001a298:note on:          (0x99,0x24,0x70).
time:  0001a2c0:note off:         (0x89,0x33,0x47).
time:  0001a2c0:note off:         (0x89,0x26,0x47).
time:  0001a2c0:note off:         (0x89,0x24,0x47).
time:  0001a2d4:note on:          (0x99,0x26,0x70).
time:  0001a2fc:note off:         (0x89,0x26,0x47).
time:  0001a310:note on:          (0x99,0x39,0x54).
time:  0001a310:note on:          (0x99,0x31,0x54).
time:  0001a310:note on:          (0x99,0x33,0x54).
time:  0001a310:note on:          (0x99,0x26,0x70).
time:  0001a310:note on:          (0x99,0x24,0x70).
time:  0001a338:note off:         (0x89,0x39,0x47).
time:  0001a338:note off:         (0x89,0x31,0x47).
time:  0001a338:note off:         (0x89,0x33,0x47).
time:  0001a338:note off:         (0x89,0x26,0x47).
time:  0001a338:note off:         (0x89,0x24,0x47).
time:  0001a34c:note on:          (0x99,0x26,0x70).
time:  0001a374:note off:         (0x89,0x26,0x47).
time:  0001a388:note on:          (0x99,0x33,0x54).
time:  0001a388:note on:          (0x99,0x26,0x70).
time:  0001a388:note on:          (0x99,0x24,0x70).
time:  0001a3b0:note off:         (0x89,0x33,0x47).
time:  0001a3b0:note off:         (0x89,0x26,0x47).
time:  0001a3b0:note off:         (0x89,0x24,0x47).
time:  0001a3c4:note on:          (0x99,0x26,0x70).
time:  0001a3ec:note off:         (0x89,0x26,0x47).
time:  0001a400:note on:          (0x99,0x39,0x54).
time:  0001a400:note on:          (0x99,0x31,0x54).
time:  0001a400:note on:          (0x99,0x33,0x54).
time:  0001a400:note on:          (0x99,0x26,0x70).
time:  0001a400:note on:          (0x99,0x24,0x70).
time:  0001a428:note off:         (0x89,0x39,0x47).
time:  0001a428:note off:         (0x89,0x31,0x47).
time:  0001a428:note off:         (0x89,0x33,0x47).
time:  0001a428:note off:         (0x89,0x26,0x47).
time:  0001a428:note off:         (0x89,0x24,0x47).
time:  0001a478:note on:          (0x99,0x33,0x54).
time:  0001a478:note on:          (0x99,0x24,0x70).
time:  0001a4a0:note off:         (0x89,0x33,0x47).
time:  0001a4a0:note off:         (0x89,0x24,0x47).
time:  0001a4f0:note on:          (0x99,0x24,0x70).
time:  0001a4f0:note on:          (0x99,0x26,0x70).
time:  0001a4f0:note on:          (0x99,0x36,0x70).
time:  0001a4f0:note on:          (0x99,0x2e,0x7a).
time:  0001a4f0:note on:          (0x99,0x33,0x7a).
time:  0001a4f0:note on:          (0x99,0x39,0x70).
time:  0001a4f0:note on:          (0x99,0x31,0x70).
time:  0001a518:note off:         (0x89,0x24,0x47).
time:  0001a518:note off:         (0x89,0x26,0x47).
time:  0001a518:note off:         (0x89,0x36,0x47).
time:  0001a518:note off:         (0x89,0x2e,0x4d).
time:  0001a518:note off:         (0x89,0x33,0x4d).
time:  0001a518:note off:         (0x89,0x39,0x47).
time:  0001a518:note off:         (0x89,0x31,0x47).
time:  0001a568:note on:          (0x99,0x36,0x70).
time:  0001a568:note on:          (0x99,0x2e,0x7a).
time:  0001a568:note on:          (0x99,0x33,0x7a).
time:  0001a590:note off:         (0x89,0x36,0x47).
time:  0001a590:note off:         (0x89,0x2e,0x4d).
time:  0001a590:note off:         (0x89,0x33,0x4d).
time:  0001a5e0:note on:          (0x99,0x24,0x70).
time:  0001a5e0:note on:          (0x99,0x26,0x70).
time:  0001a5e0:note on:          (0x99,0x36,0x70).
time:  0001a5e0:note on:          (0x99,0x2e,0x7a).
time:  0001a5e0:note on:          (0x99,0x33,0x7a).
time:  0001a5e0:note on:          (0x99,0x39,0x70).
time:  0001a5e0:note on:          (0x99,0x31,0x70).
time:  0001a608:note off:         (0x89,0x24,0x47).
time:  0001a608:note off:         (0x89,0x26,0x47).
time:  0001a608:note off:         (0x89,0x36,0x47).
time:  0001a608:note off:         (0x89,0x2e,0x4d).
time:  0001a608:note off:         (0x89,0x33,0x4d).
time:  0001a608:note off:         (0x89,0x39,0x47).
time:  0001a608:note off:         (0x89,0x31,0x47).
time:  0001a658:note on:          (0x99,0x36,0x70).
time:  0001a658:note on:          (0x99,0x2e,0x7a).
time:  0001a658:note on:          (0x99,0x33,0x7a).
time:  0001a680:note off:         (0x89,0x36,0x47).
time:  0001a680:note off:         (0x89,0x2e,0x4d).
time:  0001a680:note off:         (0x89,0x33,0x4d).
time:  0001a6d0:note on:          (0x99,0x26,0x70).
time:  0001a6d0:note on:          (0x99,0x36,0x70).
time:  0001a6d0:note on:          (0x99,0x2e,0x7a).
time:  0001a6d0:note on:          (0x99,0x33,0x7a).
time:  0001a6d0:note on:          (0x99,0x39,0x70).
time:  0001a6d0:note on:          (0x99,0x31,0x70).
time:  0001a6f8:note off:         (0x89,0x26,0x47).
time:  0001a6f8:note off:         (0x89,0x36,0x47).
time:  0001a6f8:note off:         (0x89,0x2e,0x4d).
time:  0001a6f8:note off:         (0x89,0x33,0x4d).
time:  0001a6f8:note off:         (0x89,0x39,0x47).
time:  0001a6f8:note off:         (0x89,0x31,0x47).
time:  0001a70c:note on:          (0x99,0x26,0x70).
time:  0001a734:note off:         (0x89,0x26,0x47).
time:  0001a748:note on:          (0x99,0x24,0x70).
time:  0001a748:note on:          (0x99,0x23,0x70).
time:  0001a748:note on:          (0x99,0x36,0x70).
time:  0001a748:note on:          (0x99,0x2e,0x7a).
time:  0001a748:note on:          (0x99,0x33,0x7a).
time:  0001a770:note off:         (0x89,0x24,0x47).
time:  0001a770:note off:         (0x89,0x23,0x47).
time:  0001a770:note off:         (0x89,0x36,0x47).
time:  0001a770:note off:         (0x89,0x2e,0x4d).
time:  0001a770:note off:         (0x89,0x33,0x4d).
time:  0001a7c0:note on:          (0x99,0x26,0x70).
time:  0001a7c0:note on:          (0x99,0x36,0x70).
time:  0001a7c0:note on:          (0x99,0x2e,0x7a).
time:  0001a7c0:note on:          (0x99,0x33,0x7a).
time:  0001a7c0:note on:          (0x99,0x39,0x70).
time:  0001a7c0:note on:          (0x99,0x31,0x70).
time:  0001a7e8:note off:         (0x89,0x26,0x47).
time:  0001a7e8:note off:         (0x89,0x36,0x47).
time:  0001a7e8:note off:         (0x89,0x2e,0x4d).
time:  0001a7e8:note off:         (0x89,0x33,0x4d).
time:  0001a7e8:note off:         (0x89,0x39,0x47).
time:  0001a7e8:note off:         (0x89,0x31,0x47).
time:  0001a7fc:note on:          (0x99,0x26,0x70).
time:  0001a824:note off:         (0x89,0x26,0x47).
time:  0001a838:note on:          (0x99,0x23,0x70).
time:  0001a838:note on:          (0x99,0x24,0x70).
time:  0001a838:note on:          (0x99,0x36,0x70).
time:  0001a838:note on:          (0x99,0x2e,0x7a).
time:  0001a838:note on:          (0x99,0x33,0x7a).
time:  0001a860:note off:         (0x89,0x23,0x47).
time:  0001a860:note off:         (0x89,0x24,0x47).
time:  0001a860:note off:         (0x89,0x36,0x47).
time:  0001a860:note off:         (0x89,0x2e,0x4d).
time:  0001a860:note off:         (0x89,0x33,0x4d).
time:  0001a8b0:note on:          (0x99,0x24,0x70).
time:  0001a8b0:note on:          (0x99,0x26,0x70).
time:  0001a8b0:note on:          (0x99,0x36,0x70).
time:  0001a8b0:note on:          (0x99,0x2e,0x7a).
time:  0001a8b0:note on:          (0x99,0x33,0x7a).
time:  0001a8b0:note on:          (0x99,0x39,0x70).
time:  0001a8b0:note on:          (0x99,0x31,0x70).
time:  0001a8d8:note off:         (0x89,0x24,0x47).
time:  0001a8d8:note off:         (0x89,0x26,0x47).
time:  0001a8d8:note off:         (0x89,0x36,0x47).
time:  0001a8d8:note off:         (0x89,0x2e,0x4d).
time:  0001a8d8:note off:         (0x89,0x33,0x4d).
time:  0001a8d8:note off:         (0x89,0x39,0x47).
time:  0001a8d8:note off:         (0x89,0x31,0x47).
time:  0001a928:note on:          (0x99,0x36,0x70).
time:  0001a928:note on:          (0x99,0x2e,0x7a).
time:  0001a928:note on:          (0x99,0x33,0x7a).
time:  0001a950:note off:         (0x89,0x36,0x47).
time:  0001a950:note off:         (0x89,0x2e,0x4d).
time:  0001a950:note off:         (0x89,0x33,0x4d).
time:  0001a9a0:note on:          (0x99,0x24,0x70).
time:  0001a9a0:note on:          (0x99,0x26,0x70).
time:  0001a9a0:note on:          (0x99,0x36,0x70).
time:  0001a9a0:note on:          (0x99,0x2e,0x7a).
time:  0001a9a0:note on:          (0x99,0x33,0x7a).
time:  0001a9a0:note on:          (0x99,0x39,0x70).
time:  0001a9a0:note on:          (0x99,0x31,0x70).
time:  0001a9c8:note off:         (0x89,0x24,0x47).
time:  0001a9c8:note off:         (0x89,0x26,0x47).
time:  0001a9c8:note off:         (0x89,0x36,0x47).
time:  0001a9c8:note off:         (0x89,0x2e,0x4d).
time:  0001a9c8:note off:         (0x89,0x33,0x4d).
time:  0001a9c8:note off:         (0x89,0x39,0x47).
time:  0001a9c8:note off:         (0x89,0x31,0x47).
time:  0001aa18:note on:          (0x99,0x36,0x70).
time:  0001aa18:note on:          (0x99,0x2e,0x7a).
time:  0001aa18:note on:          (0x99,0x33,0x7a).
time:  0001aa40:note off:         (0x89,0x36,0x47).
time:  0001aa40:note off:         (0x89,0x2e,0x4d).
time:  0001aa40:note off:         (0x89,0x33,0x4d).
time:  0001aa90:note on:          (0x99,0x26,0x70).
time:  0001aa90:note on:          (0x99,0x36,0x70).
time:  0001aa90:note on:          (0x99,0x2e,0x7a).
time:  0001aa90:note on:          (0x99,0x33,0x7a).
time:  0001aa90:note on:          (0x99,0x39,0x70).
time:  0001aa90:note on:          (0x99,0x31,0x70).
time:  0001aab8:note off:         (0x89,0x26,0x47).
time:  0001aab8:note off:         (0x89,0x36,0x47).
time:  0001aab8:note off:         (0x89,0x2e,0x4d).
time:  0001aab8:note off:         (0x89,0x33,0x4d).
time:  0001aab8:note off:         (0x89,0x39,0x47).
time:  0001aab8:note off:         (0x89,0x31,0x47).
time:  0001aacc:note on:          (0x99,0x26,0x70).
time:  0001aaf4:note off:         (0x89,0x26,0x47).
time:  0001ab08:note on:          (0x99,0x24,0x70).
time:  0001ab08:note on:          (0x99,0x23,0x70).
time:  0001ab08:note on:          (0x99,0x36,0x70).
time:  0001ab08:note on:          (0x99,0x2e,0x7a).
time:  0001ab08:note on:          (0x99,0x33,0x7a).
time:  0001ab30:note off:         (0x89,0x24,0x47).
time:  0001ab30:note off:         (0x89,0x23,0x47).
time:  0001ab30:note off:         (0x89,0x36,0x47).
time:  0001ab30:note off:         (0x89,0x2e,0x4d).
time:  0001ab30:note off:         (0x89,0x33,0x4d).
time:  0001ab80:note on:          (0x99,0x26,0x70).
time:  0001ab80:note on:          (0x99,0x36,0x70).
time:  0001ab80:note on:          (0x99,0x2e,0x7a).
time:  0001ab80:note on:          (0x99,0x33,0x7a).
time:  0001ab80:note on:          (0x99,0x39,0x70).
time:  0001ab80:note on:          (0x99,0x31,0x70).
time:  0001aba8:note off:         (0x89,0x26,0x47).
time:  0001aba8:note off:         (0x89,0x36,0x47).
time:  0001aba8:note off:         (0x89,0x2e,0x4d).
time:  0001aba8:note off:         (0x89,0x33,0x4d).
time:  0001aba8:note off:         (0x89,0x39,0x47).
time:  0001aba8:note off:         (0x89,0x31,0x47).
time:  0001abbc:note on:          (0x99,0x26,0x70).
time:  0001abe4:note off:         (0x89,0x26,0x47).
time:  0001abf8:note on:          (0x99,0x23,0x70).
time:  0001abf8:note on:          (0x99,0x24,0x70).
time:  0001abf8:note on:          (0x99,0x36,0x70).
time:  0001abf8:note on:          (0x99,0x2e,0x7a).
time:  0001abf8:note on:          (0x99,0x33,0x7a).
time:  0001ac20:note off:         (0x89,0x23,0x47).
time:  0001ac20:note off:         (0x89,0x24,0x47).
time:  0001ac20:note off:         (0x89,0x36,0x47).
time:  0001ac20:note off:         (0x89,0x2e,0x4d).
time:  0001ac20:note off:         (0x89,0x33,0x4d).
time:  0001ac70:note on:          (0x99,0x24,0x70).
time:  0001ac70:note on:          (0x99,0x26,0x70).
time:  0001ac70:note on:          (0x99,0x36,0x70).
time:  0001ac70:note on:          (0x99,0x2e,0x7a).
time:  0001ac70:note on:          (0x99,0x33,0x7a).
time:  0001ac70:note on:          (0x99,0x39,0x70).
time:  0001ac70:note on:          (0x99,0x31,0x70).
time:  0001ac98:note off:         (0x89,0x24,0x47).
time:  0001ac98:note off:         (0x89,0x26,0x47).
time:  0001ac98:note off:         (0x89,0x36,0x47).
time:  0001ac98:note off:         (0x89,0x2e,0x4d).
time:  0001ac98:note off:         (0x89,0x33,0x4d).
time:  0001ac98:note off:         (0x89,0x39,0x47).
time:  0001ac98:note off:         (0x89,0x31,0x47).
time:  0001ace8:note on:          (0x99,0x36,0x70).
time:  0001ace8:note on:          (0x99,0x2e,0x7a).
time:  0001ace8:note on:          (0x99,0x33,0x7a).
time:  0001ad10:note off:         (0x89,0x36,0x47).
time:  0001ad10:note off:         (0x89,0x2e,0x4d).
time:  0001ad10:note off:         (0x89,0x33,0x4d).
time:  0001ad60:note on:          (0x99,0x24,0x70).
time:  0001ad60:note on:          (0x99,0x26,0x70).
time:  0001ad60:note on:          (0x99,0x36,0x70).
time:  0001ad60:note on:          (0x99,0x2e,0x7a).
time:  0001ad60:note on:          (0x99,0x33,0x7a).
time:  0001ad60:note on:          (0x99,0x39,0x70).
time:  0001ad60:note on:          (0x99,0x31,0x70).
time:  0001ad88:note off:         (0x89,0x24,0x47).
time:  0001ad88:note off:         (0x89,0x26,0x47).
time:  0001ad88:note off:         (0x89,0x36,0x47).
time:  0001ad88:note off:         (0x89,0x2e,0x4d).
time:  0001ad88:note off:         (0x89,0x33,0x4d).
time:  0001ad88:note off:         (0x89,0x39,0x47).
time:  0001ad88:note off:         (0x89,0x31,0x47).
time:  0001add8:note on:          (0x99,0x36,0x70).
time:  0001add8:note on:          (0x99,0x2e,0x7a).
time:  0001add8:note on:          (0x99,0x33,0x7a).
time:  0001ae00:note off:         (0x89,0x36,0x47).
time:  0001ae00:note off:         (0x89,0x2e,0x4d).
time:  0001ae00:note off:         (0x89,0x33,0x4d).
time:  0001ae50:note on:          (0x99,0x26,0x70).
time:  0001ae50:note on:          (0x99,0x36,0x70).
time:  0001ae50:note on:          (0x99,0x2e,0x7a).
time:  0001ae50:note on:          (0x99,0x33,0x7a).
time:  0001ae50:note on:          (0x99,0x39,0x70).
time:  0001ae50:note on:          (0x99,0x31,0x70).
time:  0001ae78:note off:         (0x89,0x26,0x47).
time:  0001ae78:note off:         (0x89,0x36,0x47).
time:  0001ae78:note off:         (0x89,0x2e,0x4d).
time:  0001ae78:note off:         (0x89,0x33,0x4d).
time:  0001ae78:note off:         (0x89,0x39,0x47).
time:  0001ae78:note off:         (0x89,0x31,0x47).
time:  0001ae8c:note on:          (0x99,0x26,0x70).
time:  0001aeb4:note off:         (0x89,0x26,0x47).
time:  0001aec8:note on:          (0x99,0x24,0x70).
time:  0001aec8:note on:          (0x99,0x23,0x70).
time:  0001aec8:note on:          (0x99,0x36,0x70).
time:  0001aec8:note on:          (0x99,0x2e,0x7a).
time:  0001aec8:note on:          (0x99,0x33,0x7a).
time:  0001aef0:note off:         (0x89,0x24,0x47).
time:  0001aef0:note off:         (0x89,0x23,0x47).
time:  0001aef0:note off:         (0x89,0x36,0x47).
time:  0001aef0:note off:         (0x89,0x2e,0x4d).
time:  0001aef0:note off:         (0x89,0x33,0x4d).
time:  0001af40:note on:          (0x99,0x26,0x70).
time:  0001af40:note on:          (0x99,0x36,0x70).
time:  0001af40:note on:          (0x99,0x2e,0x7a).
time:  0001af40:note on:          (0x99,0x33,0x7a).
time:  0001af40:note on:          (0x99,0x39,0x70).
time:  0001af40:note on:          (0x99,0x31,0x70).
time:  0001af68:note off:         (0x89,0x26,0x47).
time:  0001af68:note off:         (0x89,0x36,0x47).
time:  0001af68:note off:         (0x89,0x2e,0x4d).
time:  0001af68:note off:         (0x89,0x33,0x4d).
time:  0001af68:note off:         (0x89,0x39,0x47).
time:  0001af68:note off:         (0x89,0x31,0x47).
time:  0001af7c:note on:          (0x99,0x26,0x70).
time:  0001afa4:note off:         (0x89,0x26,0x47).
time:  0001afb8:note on:          (0x99,0x23,0x70).
time:  0001afb8:note on:          (0x99,0x24,0x70).
time:  0001afb8:note on:          (0x99,0x36,0x70).
time:  0001afb8:note on:          (0x99,0x2e,0x7a).
time:  0001afb8:note on:          (0x99,0x33,0x7a).
time:  0001afe0:note off:         (0x89,0x23,0x47).
time:  0001afe0:note off:         (0x89,0x24,0x47).
time:  0001afe0:note off:         (0x89,0x36,0x47).
time:  0001afe0:note off:         (0x89,0x2e,0x4d).
time:  0001afe0:note off:         (0x89,0x33,0x4d).
time:  0001b030:note on:          (0x99,0x24,0x70).
time:  0001b030:note on:          (0x99,0x26,0x70).
time:  0001b030:note on:          (0x99,0x36,0x70).
time:  0001b030:note on:          (0x99,0x2e,0x7a).
time:  0001b030:note on:          (0x99,0x33,0x7a).
time:  0001b030:note on:          (0x99,0x39,0x70).
time:  0001b030:note on:          (0x99,0x31,0x70).
time:  0001b058:note off:         (0x89,0x24,0x47).
time:  0001b058:note off:         (0x89,0x26,0x47).
time:  0001b058:note off:         (0x89,0x36,0x47).
time:  0001b058:note off:         (0x89,0x2e,0x4d).
time:  0001b058:note off:         (0x89,0x33,0x4d).
time:  0001b058:note off:         (0x89,0x39,0x47).
time:  0001b058:note off:         (0x89,0x31,0x47).
time:  0001b0a8:note on:          (0x99,0x36,0x70).
time:  0001b0a8:note on:          (0x99,0x2e,0x7a).
time:  0001b0a8:note on:          (0x99,0x33,0x7a).
time:  0001b0d0:note off:         (0x89,0x36,0x47).
time:  0001b0d0:note off:         (0x89,0x2e,0x4d).
time:  0001b0d0:note off:         (0x89,0x33,0x4d).
time:  0001b120:note on:          (0x99,0x24,0x70).
time:  0001b120:note on:          (0x99,0x26,0x70).
time:  0001b120:note on:          (0x99,0x36,0x70).
time:  0001b120:note on:          (0x99,0x2e,0x7a).
time:  0001b120:note on:          (0x99,0x33,0x7a).
time:  0001b120:note on:          (0x99,0x39,0x70).
time:  0001b120:note on:          (0x99,0x31,0x70).
time:  0001b148:note off:         (0x89,0x24,0x47).
time:  0001b148:note off:         (0x89,0x26,0x47).
time:  0001b148:note off:         (0x89,0x36,0x47).
time:  0001b148:note off:         (0x89,0x2e,0x4d).
time:  0001b148:note off:         (0x89,0x33,0x4d).
time:  0001b148:note off:         (0x89,0x39,0x47).
time:  0001b148:note off:         (0x89,0x31,0x47).
time:  0001b198:note on:          (0x99,0x36,0x70).
time:  0001b198:note on:          (0x99,0x2e,0x7a).
time:  0001b198:note on:          (0x99,0x33,0x7a).
time:  0001b1c0:note off:         (0x89,0x36,0x47).
time:  0001b1c0:note off:         (0x89,0x2e,0x4d).
time:  0001b1c0:note off:         (0x89,0x33,0x4d).
time:  0001b210:note on:          (0x99,0x26,0x70).
time:  0001b210:note on:          (0x99,0x36,0x70).
time:  0001b210:note on:          (0x99,0x2e,0x7a).
time:  0001b210:note on:          (0x99,0x33,0x7a).
time:  0001b210:note on:          (0x99,0x39,0x70).
time:  0001b210:note on:          (0x99,0x31,0x70).
time:  0001b238:note off:         (0x89,0x26,0x47).
time:  0001b238:note off:         (0x89,0x36,0x47).
time:  0001b238:note off:         (0x89,0x2e,0x4d).
time:  0001b238:note off:         (0x89,0x33,0x4d).
time:  0001b238:note off:         (0x89,0x39,0x47).
time:  0001b238:note off:         (0x89,0x31,0x47).
time:  0001b24c:note on:          (0x99,0x26,0x70).
time:  0001b274:note off:         (0x89,0x26,0x47).
time:  0001b288:note on:          (0x99,0x24,0x70).
time:  0001b288:note on:          (0x99,0x23,0x70).
time:  0001b288:note on:          (0x99,0x36,0x70).
time:  0001b288:note on:          (0x99,0x2e,0x7a).
time:  0001b288:note on:          (0x99,0x33,0x7a).
time:  0001b2b0:note off:         (0x89,0x24,0x47).
time:  0001b2b0:note off:         (0x89,0x23,0x47).
time:  0001b2b0:note off:         (0x89,0x36,0x47).
time:  0001b2b0:note off:         (0x89,0x2e,0x4d).
time:  0001b2b0:note off:         (0x89,0x33,0x4d).
time:  0001b300:note on:          (0x99,0x26,0x70).
time:  0001b300:note on:          (0x99,0x36,0x70).
time:  0001b300:note on:          (0x99,0x2e,0x7a).
time:  0001b300:note on:          (0x99,0x33,0x7a).
time:  0001b300:note on:          (0x99,0x39,0x70).
time:  0001b300:note on:          (0x99,0x31,0x70).
time:  0001b328:note off:         (0x89,0x26,0x47).
time:  0001b328:note off:         (0x89,0x36,0x47).
time:  0001b328:note off:         (0x89,0x2e,0x4d).
time:  0001b328:note off:         (0x89,0x33,0x4d).
time:  0001b328:note off:         (0x89,0x39,0x47).
time:  0001b328:note off:         (0x89,0x31,0x47).
time:  0001b33c:note on:          (0x99,0x26,0x70).
time:  0001b364:note off:         (0x89,0x26,0x47).
time:  0001b378:note on:          (0x99,0x23,0x70).
time:  0001b378:note on:          (0x99,0x24,0x70).
time:  0001b378:note on:          (0x99,0x36,0x70).
time:  0001b378:note on:          (0x99,0x2e,0x7a).
time:  0001b378:note on:          (0x99,0x33,0x7a).
time:  0001b3a0:note off:         (0x89,0x23,0x47).
time:  0001b3a0:note off:         (0x89,0x24,0x47).
time:  0001b3a0:note off:         (0x89,0x36,0x47).
time:  0001b3a0:note off:         (0x89,0x2e,0x4d).
time:  0001b3a0:note off:         (0x89,0x33,0x4d).
time:  0001b3f0:note on:          (0x99,0x24,0x70).
time:  0001b3f0:note on:          (0x99,0x26,0x70).
time:  0001b3f0:note on:          (0x99,0x36,0x70).
time:  0001b3f0:note on:          (0x99,0x2e,0x7a).
time:  0001b3f0:note on:          (0x99,0x33,0x7a).
time:  0001b3f0:note on:          (0x99,0x39,0x70).
time:  0001b3f0:note on:          (0x99,0x31,0x70).
time:  0001b418:note off:         (0x89,0x24,0x47).
time:  0001b418:note off:         (0x89,0x26,0x47).
time:  0001b418:note off:         (0x89,0x36,0x47).
time:  0001b418:note off:         (0x89,0x2e,0x4d).
time:  0001b418:note off:         (0x89,0x33,0x4d).
time:  0001b418:note off:         (0x89,0x39,0x47).
time:  0001b418:note off:         (0x89,0x31,0x47).
time:  0001b468:note on:          (0x99,0x36,0x70).
time:  0001b468:note on:          (0x99,0x2e,0x7a).
time:  0001b468:note on:          (0x99,0x33,0x7a).
time:  0001b490:note off:         (0x89,0x36,0x47).
time:  0001b490:note off:         (0x89,0x2e,0x4d).
time:  0001b490:note off:         (0x89,0x33,0x4d).
time:  0001b4e0:note on:          (0x99,0x24,0x70).
time:  0001b4e0:note on:          (0x99,0x26,0x70).
time:  0001b4e0:note on:          (0x99,0x36,0x70).
time:  0001b4e0:note on:          (0x99,0x2e,0x7a).
time:  0001b4e0:note on:          (0x99,0x33,0x7a).
time:  0001b4e0:note on:          (0x99,0x39,0x70).
time:  0001b4e0:note on:          (0x99,0x31,0x70).
time:  0001b508:note off:         (0x89,0x24,0x47).
time:  0001b508:note off:         (0x89,0x26,0x47).
time:  0001b508:note off:         (0x89,0x36,0x47).
time:  0001b508:note off:         (0x89,0x2e,0x4d).
time:  0001b508:note off:         (0x89,0x33,0x4d).
time:  0001b508:note off:         (0x89,0x39,0x47).
time:  0001b508:note off:         (0x89,0x31,0x47).
time:  0001b558:note on:          (0x99,0x36,0x70).
time:  0001b558:note on:          (0x99,0x2e,0x7a).
time:  0001b558:note on:          (0x99,0x33,0x7a).
time:  0001b580:note off:         (0x89,0x36,0x47).
time:  0001b580:note off:         (0x89,0x2e,0x4d).
time:  0001b580:note off:         (0x89,0x33,0x4d).
time:  0001b5d0:note on:          (0x99,0x26,0x70).
time:  0001b5d0:note on:          (0x99,0x36,0x70).
time:  0001b5d0:note on:          (0x99,0x2e,0x7a).
time:  0001b5d0:note on:          (0x99,0x33,0x7a).
time:  0001b5d0:note on:          (0x99,0x39,0x70).
time:  0001b5d0:note on:          (0x99,0x31,0x70).
time:  0001b5f8:note off:         (0x89,0x26,0x47).
time:  0001b5f8:note off:         (0x89,0x36,0x47).
time:  0001b5f8:note off:         (0x89,0x2e,0x4d).
time:  0001b5f8:note off:         (0x89,0x33,0x4d).
time:  0001b5f8:note off:         (0x89,0x39,0x47).
time:  0001b5f8:note off:         (0x89,0x31,0x47).
time:  0001b60c:note on:          (0x99,0x26,0x70).
time:  0001b634:note off:         (0x89,0x26,0x47).
time:  0001b648:note on:          (0x99,0x24,0x70).
time:  0001b648:note on:          (0x99,0x23,0x70).
time:  0001b648:note on:          (0x99,0x36,0x70).
time:  0001b648:note on:          (0x99,0x2e,0x7a).
time:  0001b648:note on:          (0x99,0x33,0x7a).
time:  0001b670:note off:         (0x89,0x24,0x47).
time:  0001b670:note off:         (0x89,0x23,0x47).
time:  0001b670:note off:         (0x89,0x36,0x47).
time:  0001b670:note off:         (0x89,0x2e,0x4d).
time:  0001b670:note off:         (0x89,0x33,0x4d).
time:  0001b6c0:note on:          (0x99,0x26,0x70).
time:  0001b6c0:note on:          (0x99,0x36,0x70).
time:  0001b6c0:note on:          (0x99,0x2e,0x7a).
time:  0001b6c0:note on:          (0x99,0x33,0x7a).
time:  0001b6c0:note on:          (0x99,0x39,0x70).
time:  0001b6c0:note on:          (0x99,0x31,0x70).
time:  0001b6e8:note off:         (0x89,0x26,0x47).
time:  0001b6e8:note off:         (0x89,0x36,0x47).
time:  0001b6e8:note off:         (0x89,0x2e,0x4d).
time:  0001b6e8:note off:         (0x89,0x33,0x4d).
time:  0001b6e8:note off:         (0x89,0x39,0x47).
time:  0001b6e8:note off:         (0x89,0x31,0x47).
time:  0001b6fc:note on:          (0x99,0x26,0x70).
time:  0001b724:note off:         (0x89,0x26,0x47).
time:  0001b738:note on:          (0x99,0x23,0x70).
time:  0001b738:note on:          (0x99,0x24,0x70).
time:  0001b738:note on:          (0x99,0x36,0x70).
time:  0001b738:note on:          (0x99,0x2e,0x7a).
time:  0001b738:note on:          (0x99,0x33,0x7a).
time:  0001b760:note off:         (0x89,0x23,0x47).
time:  0001b760:note off:         (0x89,0x24,0x47).
time:  0001b760:note off:         (0x89,0x36,0x47).
time:  0001b760:note off:         (0x89,0x2e,0x4d).
time:  0001b760:note off:         (0x89,0x33,0x4d).
time:  0001b7b0:note on:          (0x99,0x24,0x70).
time:  0001b7b0:note on:          (0x99,0x26,0x70).
time:  0001b7b0:note on:          (0x99,0x36,0x70).
time:  0001b7b0:note on:          (0x99,0x2e,0x7a).
time:  0001b7b0:note on:          (0x99,0x33,0x7a).
time:  0001b7b0:note on:          (0x99,0x39,0x70).
time:  0001b7b0:note on:          (0x99,0x31,0x70).
time:  0001b7d8:note off:         (0x89,0x24,0x47).
time:  0001b7d8:note off:         (0x89,0x26,0x47).
time:  0001b7d8:note off:         (0x89,0x36,0x47).
time:  0001b7d8:note off:         (0x89,0x2e,0x4d).
time:  0001b7d8:note off:         (0x89,0x33,0x4d).
time:  0001b7d8:note off:         (0x89,0x39,0x47).
time:  0001b7d8:note off:         (0x89,0x31,0x47).
time:  0001b828:note on:          (0x99,0x36,0x70).
time:  0001b828:note on:          (0x99,0x2e,0x7a).
time:  0001b828:note on:          (0x99,0x33,0x7a).
time:  0001b850:note off:         (0x89,0x36,0x47).
time:  0001b850:note off:         (0x89,0x2e,0x4d).
time:  0001b850:note off:         (0x89,0x33,0x4d).
time:  0001b8a0:note on:          (0x99,0x24,0x70).
time:  0001b8a0:note on:          (0x99,0x26,0x70).
time:  0001b8a0:note on:          (0x99,0x36,0x70).
time:  0001b8a0:note on:          (0x99,0x2e,0x7a).
time:  0001b8a0:note on:          (0x99,0x33,0x7a).
time:  0001b8a0:note on:          (0x99,0x39,0x70).
time:  0001b8a0:note on:          (0x99,0x31,0x70).
time:  0001b8c8:note off:         (0x89,0x24,0x47).
time:  0001b8c8:note off:         (0x89,0x26,0x47).
time:  0001b8c8:note off:         (0x89,0x36,0x47).
time:  0001b8c8:note off:         (0x89,0x2e,0x4d).
time:  0001b8c8:note off:         (0x89,0x33,0x4d).
time:  0001b8c8:note off:         (0x89,0x39,0x47).
time:  0001b8c8:note off:         (0x89,0x31,0x47).
time:  0001b918:note on:          (0x99,0x36,0x70).
time:  0001b918:note on:          (0x99,0x2e,0x7a).
time:  0001b918:note on:          (0x99,0x33,0x7a).
time:  0001b940:note off:         (0x89,0x36,0x47).
time:  0001b940:note off:         (0x89,0x2e,0x4d).
time:  0001b940:note off:         (0x89,0x33,0x4d).
time:  0001b990:note on:          (0x99,0x26,0x70).
time:  0001b990:note on:          (0x99,0x36,0x70).
time:  0001b990:note on:          (0x99,0x2e,0x7a).
time:  0001b990:note on:          (0x99,0x33,0x7a).
time:  0001b990:note on:          (0x99,0x39,0x70).
time:  0001b990:note on:          (0x99,0x31,0x70).
time:  0001b9b8:note off:         (0x89,0x26,0x47).
time:  0001b9b8:note off:         (0x89,0x36,0x47).
time:  0001b9b8:note off:         (0x89,0x2e,0x4d).
time:  0001b9b8:note off:         (0x89,0x33,0x4d).
time:  0001b9b8:note off:         (0x89,0x39,0x47).
time:  0001b9b8:note off:         (0x89,0x31,0x47).
time:  0001b9cc:note on:          (0x99,0x26,0x70).
time:  0001b9f4:note off:         (0x89,0x26,0x47).
time:  0001ba08:note on:          (0x99,0x24,0x70).
time:  0001ba08:note on:          (0x99,0x23,0x70).
time:  0001ba08:note on:          (0x99,0x36,0x70).
time:  0001ba08:note on:          (0x99,0x2e,0x7a).
time:  0001ba08:note on:          (0x99,0x33,0x7a).
time:  0001ba30:note off:         (0x89,0x24,0x47).
time:  0001ba30:note off:         (0x89,0x23,0x47).
time:  0001ba30:note off:         (0x89,0x36,0x47).
time:  0001ba30:note off:         (0x89,0x2e,0x4d).
time:  0001ba30:note off:         (0x89,0x33,0x4d).
time:  0001ba80:note on:          (0x99,0x26,0x70).
time:  0001ba80:note on:          (0x99,0x36,0x70).
time:  0001ba80:note on:          (0x99,0x2e,0x7a).
time:  0001ba80:note on:          (0x99,0x33,0x7a).
time:  0001ba80:note on:          (0x99,0x39,0x70).
time:  0001ba80:note on:          (0x99,0x31,0x70).
time:  0001baa8:note off:         (0x89,0x26,0x47).
time:  0001baa8:note off:         (0x89,0x36,0x47).
time:  0001baa8:note off:         (0x89,0x2e,0x4d).
time:  0001baa8:note off:         (0x89,0x33,0x4d).
time:  0001baa8:note off:         (0x89,0x39,0x47).
time:  0001baa8:note off:         (0x89,0x31,0x47).
time:  0001babc:note on:          (0x99,0x26,0x70).
time:  0001bae4:note off:         (0x89,0x26,0x47).
time:  0001baf8:note on:          (0x99,0x23,0x70).
time:  0001baf8:note on:          (0x99,0x24,0x70).
time:  0001baf8:note on:          (0x99,0x36,0x70).
time:  0001baf8:note on:          (0x99,0x2e,0x7a).
time:  0001baf8:note on:          (0x99,0x33,0x7a).
time:  0001bb20:note off:         (0x89,0x23,0x47).
time:  0001bb20:note off:         (0x89,0x24,0x47).
time:  0001bb20:note off:         (0x89,0x36,0x47).
time:  0001bb20:note off:         (0x89,0x2e,0x4d).
time:  0001bb20:note off:         (0x89,0x33,0x4d).
time:  0001bb70:note on:          (0x99,0x24,0x70).
time:  0001bb70:note on:          (0x99,0x26,0x70).
time:  0001bb70:note on:          (0x99,0x36,0x70).
time:  0001bb70:note on:          (0x99,0x2e,0x7a).
time:  0001bb70:note on:          (0x99,0x33,0x7a).
time:  0001bb70:note on:          (0x99,0x39,0x70).
time:  0001bb70:note on:          (0x99,0x31,0x70).
time:  0001bb98:note off:         (0x89,0x24,0x47).
time:  0001bb98:note off:         (0x89,0x26,0x47).
time:  0001bb98:note off:         (0x89,0x36,0x47).
time:  0001bb98:note off:         (0x89,0x2e,0x4d).
time:  0001bb98:note off:         (0x89,0x33,0x4d).
time:  0001bb98:note off:         (0x89,0x39,0x47).
time:  0001bb98:note off:         (0x89,0x31,0x47).
time:  0001bbe8:note on:          (0x99,0x36,0x70).
time:  0001bbe8:note on:          (0x99,0x2e,0x7a).
time:  0001bbe8:note on:          (0x99,0x33,0x7a).
time:  0001bc10:note off:         (0x89,0x36,0x47).
time:  0001bc10:note off:         (0x89,0x2e,0x4d).
time:  0001bc10:note off:         (0x89,0x33,0x4d).
time:  0001bc60:note on:          (0x99,0x24,0x70).
time:  0001bc60:note on:          (0x99,0x26,0x70).
time:  0001bc60:note on:          (0x99,0x36,0x70).
time:  0001bc60:note on:          (0x99,0x2e,0x7a).
time:  0001bc60:note on:          (0x99,0x33,0x7a).
time:  0001bc60:note on:          (0x99,0x39,0x70).
time:  0001bc60:note on:          (0x99,0x31,0x70).
time:  0001bc88:note off:         (0x89,0x24,0x47).
time:  0001bc88:note off:         (0x89,0x26,0x47).
time:  0001bc88:note off:         (0x89,0x36,0x47).
time:  0001bc88:note off:         (0x89,0x2e,0x4d).
time:  0001bc88:note off:         (0x89,0x33,0x4d).
time:  0001bc88:note off:         (0x89,0x39,0x47).
time:  0001bc88:note off:         (0x89,0x31,0x47).
time:  0001bcd8:note on:          (0x99,0x36,0x70).
time:  0001bcd8:note on:          (0x99,0x2e,0x7a).
time:  0001bcd8:note on:          (0x99,0x33,0x7a).
time:  0001bd00:note off:         (0x89,0x36,0x47).
time:  0001bd00:note off:         (0x89,0x2e,0x4d).
time:  0001bd00:note off:         (0x89,0x33,0x4d).
time:  0001bd50:note on:          (0x99,0x26,0x70).
time:  0001bd50:note on:          (0x99,0x36,0x70).
time:  0001bd50:note on:          (0x99,0x2e,0x7a).
time:  0001bd50:note on:          (0x99,0x33,0x7a).
time:  0001bd50:note on:          (0x99,0x39,0x70).
time:  0001bd50:note on:          (0x99,0x31,0x70).
time:  0001bd78:note off:         (0x89,0x26,0x47).
time:  0001bd78:note off:         (0x89,0x36,0x47).
time:  0001bd78:note off:         (0x89,0x2e,0x4d).
time:  0001bd78:note off:         (0x89,0x33,0x4d).
time:  0001bd78:note off:         (0x89,0x39,0x47).
time:  0001bd78:note off:         (0x89,0x31,0x47).
time:  0001bd8c:note on:          (0x99,0x26,0x70).
time:  0001bdb4:note off:         (0x89,0x26,0x47).
time:  0001bdc8:note on:          (0x99,0x24,0x70).
time:  0001bdc8:note on:          (0x99,0x23,0x70).
time:  0001bdc8:note on:          (0x99,0x36,0x70).
time:  0001bdc8:note on:          (0x99,0x2e,0x7a).
time:  0001bdc8:note on:          (0x99,0x33,0x7a).
time:  0001bdf0:note off:         (0x89,0x24,0x47).
time:  0001bdf0:note off:         (0x89,0x23,0x47).
time:  0001bdf0:note off:         (0x89,0x36,0x47).
time:  0001bdf0:note off:         (0x89,0x2e,0x4d).
time:  0001bdf0:note off:         (0x89,0x33,0x4d).
time:  0001be40:note on:          (0x99,0x26,0x70).
time:  0001be40:note on:          (0x99,0x36,0x70).
time:  0001be40:note on:          (0x99,0x2e,0x7a).
time:  0001be40:note on:          (0x99,0x33,0x7a).
time:  0001be40:note on:          (0x99,0x39,0x70).
time:  0001be40:note on:          (0x99,0x31,0x70).
time:  0001be68:note off:         (0x89,0x26,0x47).
time:  0001be68:note off:         (0x89,0x36,0x47).
time:  0001be68:note off:         (0x89,0x2e,0x4d).
time:  0001be68:note off:         (0x89,0x33,0x4d).
time:  0001be68:note off:         (0x89,0x39,0x47).
time:  0001be68:note off:         (0x89,0x31,0x47).
time:  0001be7c:note on:          (0x99,0x26,0x70).
time:  0001bea4:note off:         (0x89,0x26,0x47).
time:  0001beb8:note on:          (0x99,0x23,0x70).
time:  0001beb8:note on:          (0x99,0x24,0x70).
time:  0001beb8:note on:          (0x99,0x36,0x70).
time:  0001beb8:note on:          (0x99,0x2e,0x7a).
time:  0001beb8:note on:          (0x99,0x33,0x7a).
time:  0001bee0:note off:         (0x89,0x23,0x47).
time:  0001bee0:note off:         (0x89,0x24,0x47).
time:  0001bee0:note off:         (0x89,0x36,0x47).
time:  0001bee0:note off:         (0x89,0x2e,0x4d).
time:  0001bee0:note off:         (0x89,0x33,0x4d).
time:  0001bf30:note on:          (0x99,0x24,0x70).
time:  0001bf30:note on:          (0x99,0x26,0x70).
time:  0001bf30:note on:          (0x99,0x36,0x70).
time:  0001bf30:note on:          (0x99,0x2e,0x7a).
time:  0001bf30:note on:          (0x99,0x33,0x7a).
time:  0001bf30:note on:          (0x99,0x39,0x70).
time:  0001bf30:note on:          (0x99,0x31,0x70).
time:  0001bf58:note off:         (0x89,0x24,0x47).
time:  0001bf58:note off:         (0x89,0x26,0x47).
time:  0001bf58:note off:         (0x89,0x36,0x47).
time:  0001bf58:note off:         (0x89,0x2e,0x4d).
time:  0001bf58:note off:         (0x89,0x33,0x4d).
time:  0001bf58:note off:         (0x89,0x39,0x47).
time:  0001bf58:note off:         (0x89,0x31,0x47).
time:  0001bfa8:note on:          (0x99,0x36,0x70).
time:  0001bfa8:note on:          (0x99,0x2e,0x7a).
time:  0001bfa8:note on:          (0x99,0x33,0x7a).
time:  0001bfd0:note off:         (0x89,0x36,0x47).
time:  0001bfd0:note off:         (0x89,0x2e,0x4d).
time:  0001bfd0:note off:         (0x89,0x33,0x4d).
time:  0001c020:note on:          (0x99,0x24,0x70).
time:  0001c020:note on:          (0x99,0x26,0x70).
time:  0001c020:note on:          (0x99,0x36,0x70).
time:  0001c020:note on:          (0x99,0x2e,0x7a).
time:  0001c020:note on:          (0x99,0x33,0x7a).
time:  0001c020:note on:          (0x99,0x39,0x70).
time:  0001c020:note on:          (0x99,0x31,0x70).
time:  0001c048:note off:         (0x89,0x24,0x47).
time:  0001c048:note off:         (0x89,0x26,0x47).
time:  0001c048:note off:         (0x89,0x36,0x47).
time:  0001c048:note off:         (0x89,0x2e,0x4d).
time:  0001c048:note off:         (0x89,0x33,0x4d).
time:  0001c048:note off:         (0x89,0x39,0x47).
time:  0001c048:note off:         (0x89,0x31,0x47).
time:  0001c098:note on:          (0x99,0x36,0x70).
time:  0001c098:note on:          (0x99,0x2e,0x7a).
time:  0001c098:note on:          (0x99,0x33,0x7a).
time:  0001c0c0:note off:         (0x89,0x36,0x47).
time:  0001c0c0:note off:         (0x89,0x2e,0x4d).
time:  0001c0c0:note off:         (0x89,0x33,0x4d).
time:  0001c110:note on:          (0x99,0x26,0x70).
time:  0001c110:note on:          (0x99,0x36,0x70).
time:  0001c110:note on:          (0x99,0x2e,0x7a).
time:  0001c110:note on:          (0x99,0x33,0x7a).
time:  0001c110:note on:          (0x99,0x39,0x70).
time:  0001c110:note on:          (0x99,0x31,0x70).
time:  0001c138:note off:         (0x89,0x26,0x47).
time:  0001c138:note off:         (0x89,0x36,0x47).
time:  0001c138:note off:         (0x89,0x2e,0x4d).
time:  0001c138:note off:         (0x89,0x33,0x4d).
time:  0001c138:note off:         (0x89,0x39,0x47).
time:  0001c138:note off:         (0x89,0x31,0x47).
time:  0001c14c:note on:          (0x99,0x26,0x70).
time:  0001c174:note off:         (0x89,0x26,0x47).
time:  0001c188:note on:          (0x99,0x24,0x70).
time:  0001c188:note on:          (0x99,0x23,0x70).
time:  0001c188:note on:          (0x99,0x36,0x70).
time:  0001c188:note on:          (0x99,0x2e,0x7a).
time:  0001c188:note on:          (0x99,0x33,0x7a).
time:  0001c1b0:note off:         (0x89,0x24,0x47).
time:  0001c1b0:note off:         (0x89,0x23,0x47).
time:  0001c1b0:note off:         (0x89,0x36,0x47).
time:  0001c1b0:note off:         (0x89,0x2e,0x4d).
time:  0001c1b0:note off:         (0x89,0x33,0x4d).
time:  0001c200:note on:          (0x99,0x26,0x70).
time:  0001c200:note on:          (0x99,0x36,0x70).
time:  0001c200:note on:          (0x99,0x2e,0x7a).
time:  0001c200:note on:          (0x99,0x33,0x7a).
time:  0001c200:note on:          (0x99,0x39,0x70).
time:  0001c200:note on:          (0x99,0x31,0x70).
time:  0001c228:note off:         (0x89,0x26,0x47).
time:  0001c228:note off:         (0x89,0x36,0x47).
time:  0001c228:note off:         (0x89,0x2e,0x4d).
time:  0001c228:note off:         (0x89,0x33,0x4d).
time:  0001c228:note off:         (0x89,0x39,0x47).
time:  0001c228:note off:         (0x89,0x31,0x47).
time:  0001c23c:note on:          (0x99,0x26,0x70).
time:  0001c264:note off:         (0x89,0x26,0x47).
time:  0001c278:note on:          (0x99,0x23,0x70).
time:  0001c278:note on:          (0x99,0x24,0x70).
time:  0001c278:note on:          (0x99,0x36,0x70).
time:  0001c278:note on:          (0x99,0x2e,0x7a).
time:  0001c278:note on:          (0x99,0x33,0x7a).
time:  0001c2a0:note off:         (0x89,0x23,0x47).
time:  0001c2a0:note off:         (0x89,0x24,0x47).
time:  0001c2a0:note off:         (0x89,0x36,0x47).
time:  0001c2a0:note off:         (0x89,0x2e,0x4d).
time:  0001c2a0:note off:         (0x89,0x33,0x4d).
time:  0001c2f0:note on:          (0x99,0x24,0x70).
time:  0001c2f0:note on:          (0x99,0x26,0x70).
time:  0001c2f0:note on:          (0x99,0x36,0x70).
time:  0001c2f0:note on:          (0x99,0x2e,0x7a).
time:  0001c2f0:note on:          (0x99,0x33,0x7a).
time:  0001c2f0:note on:          (0x99,0x39,0x70).
time:  0001c2f0:note on:          (0x99,0x31,0x70).
time:  0001c318:note off:         (0x89,0x24,0x47).
time:  0001c318:note off:         (0x89,0x26,0x47).
time:  0001c318:note off:         (0x89,0x36,0x47).
time:  0001c318:note off:         (0x89,0x2e,0x4d).
time:  0001c318:note off:         (0x89,0x33,0x4d).
time:  0001c318:note off:         (0x89,0x39,0x47).
time:  0001c318:note off:         (0x89,0x31,0x47).
time:  0001c368:note on:          (0x99,0x36,0x70).
time:  0001c368:note on:          (0x99,0x2e,0x7a).
time:  0001c368:note on:          (0x99,0x33,0x7a).
time:  0001c390:note off:         (0x89,0x36,0x47).
time:  0001c390:note off:         (0x89,0x2e,0x4d).
time:  0001c390:note off:         (0x89,0x33,0x4d).
time:  0001c3e0:note on:          (0x99,0x24,0x70).
time:  0001c3e0:note on:          (0x99,0x26,0x70).
time:  0001c3e0:note on:          (0x99,0x36,0x70).
time:  0001c3e0:note on:          (0x99,0x2e,0x7a).
time:  0001c3e0:note on:          (0x99,0x33,0x7a).
time:  0001c3e0:note on:          (0x99,0x39,0x70).
time:  0001c3e0:note on:          (0x99,0x31,0x70).
time:  0001c408:note off:         (0x89,0x24,0x47).
time:  0001c408:note off:         (0x89,0x26,0x47).
time:  0001c408:note off:         (0x89,0x36,0x47).
time:  0001c408:note off:         (0x89,0x2e,0x4d).
time:  0001c408:note off:         (0x89,0x33,0x4d).
time:  0001c408:note off:         (0x89,0x39,0x47).
time:  0001c408:note off:         (0x89,0x31,0x47).
time:  0001c458:note on:          (0x99,0x36,0x70).
time:  0001c458:note on:          (0x99,0x2e,0x7a).
time:  0001c458:note on:          (0x99,0x33,0x7a).
time:  0001c480:note off:         (0x89,0x36,0x47).
time:  0001c480:note off:         (0x89,0x2e,0x4d).
time:  0001c480:note off:         (0x89,0x33,0x4d).
time:  0001c4d0:note on:          (0x99,0x26,0x70).
time:  0001c4d0:note on:          (0x99,0x36,0x70).
time:  0001c4d0:note on:          (0x99,0x2e,0x7a).
time:  0001c4d0:note on:          (0x99,0x33,0x7a).
time:  0001c4d0:note on:          (0x99,0x39,0x70).
time:  0001c4d0:note on:          (0x99,0x31,0x70).
time:  0001c4f8:note off:         (0x89,0x26,0x47).
time:  0001c4f8:note off:         (0x89,0x36,0x47).
time:  0001c4f8:note off:         (0x89,0x2e,0x4d).
time:  0001c4f8:note off:         (0x89,0x33,0x4d).
time:  0001c4f8:note off:         (0x89,0x39,0x47).
time:  0001c4f8:note off:         (0x89,0x31,0x47).
time:  0001c50c:note on:          (0x99,0x26,0x70).
time:  0001c534:note off:         (0x89,0x26,0x47).
time:  0001c548:note on:          (0x99,0x24,0x70).
time:  0001c548:note on:          (0x99,0x36,0x70).
time:  0001c548:note on:          (0x99,0x2e,0x7a).
time:  0001c548:note on:          (0x99,0x33,0x7a).
time:  0001c570:note off:         (0x89,0x24,0x47).
time:  0001c570:note off:         (0x89,0x36,0x47).
time:  0001c570:note off:         (0x89,0x2e,0x4d).
time:  0001c570:note off:         (0x89,0x33,0x4d).
time:  0001c5c0:note on:          (0x99,0x26,0x70).
time:  0001c5c0:note on:          (0x99,0x36,0x70).
time:  0001c5c0:note on:          (0x99,0x2e,0x7a).
time:  0001c5c0:note on:          (0x99,0x33,0x7a).
time:  0001c5c0:note on:          (0x99,0x39,0x70).
time:  0001c5c0:note on:          (0x99,0x31,0x70).
time:  0001c5e8:note off:         (0x89,0x26,0x47).
time:  0001c5e8:note off:         (0x89,0x36,0x47).
time:  0001c5e8:note off:         (0x89,0x2e,0x4d).
time:  0001c5e8:note off:         (0x89,0x33,0x4d).
time:  0001c5e8:note off:         (0x89,0x39,0x47).
time:  0001c5e8:note off:         (0x89,0x31,0x47).
time:  0001c5fc:note on:          (0x99,0x26,0x70).
time:  0001c624:note off:         (0x89,0x26,0x47).
time:  0001c638:note on:          (0x99,0x24,0x70).
time:  0001c638:note on:          (0x99,0x36,0x70).
time:  0001c638:note on:          (0x99,0x2e,0x7a).
time:  0001c638:note on:          (0x99,0x33,0x7a).
time:  0001c660:note off:         (0x89,0x24,0x47).
time:  0001c660:note off:         (0x89,0x36,0x47).
time:  0001c660:note off:         (0x89,0x2e,0x4d).
time:  0001c660:note off:         (0x89,0x33,0x4d).
time:  0001c6b0:note on:          (0x99,0x24,0x70).
time:  0001c6b0:note on:          (0x99,0x26,0x70).
time:  0001c6b0:note on:          (0x99,0x36,0x70).
time:  0001c6b0:note on:          (0x99,0x2e,0x7a).
time:  0001c6b0:note on:          (0x99,0x33,0x7a).
time:  0001c6b0:note on:          (0x99,0x39,0x70).
time:  0001c6b0:note on:          (0x99,0x31,0x70).
time:  0001c6d8:note off:         (0x89,0x24,0x47).
time:  0001c6d8:note off:         (0x89,0x26,0x47).
time:  0001c6d8:note off:         (0x89,0x36,0x47).
time:  0001c6d8:note off:         (0x89,0x2e,0x4d).
time:  0001c6d8:note off:         (0x89,0x33,0x4d).
time:  0001c6d8:note off:         (0x89,0x39,0x47).
time:  0001c6d8:note off:         (0x89,0x31,0x47).
time:  0001c728:note on:          (0x99,0x36,0x70).
time:  0001c728:note on:          (0x99,0x2e,0x7a).
time:  0001c728:note on:          (0x99,0x33,0x7a).
time:  0001c750:note off:         (0x89,0x36,0x47).
time:  0001c750:note off:         (0x89,0x2e,0x4d).
time:  0001c750:note off:         (0x89,0x33,0x4d).
time:  0001c7a0:note on:          (0x99,0x24,0x70).
time:  0001c7a0:note on:          (0x99,0x26,0x70).
time:  0001c7a0:note on:          (0x99,0x36,0x70).
time:  0001c7a0:note on:          (0x99,0x2e,0x7a).
time:  0001c7a0:note on:          (0x99,0x33,0x7a).
time:  0001c7a0:note on:          (0x99,0x39,0x70).
time:  0001c7a0:note on:          (0x99,0x31,0x70).
time:  0001c7c8:note off:         (0x89,0x24,0x47).
time:  0001c7c8:note off:         (0x89,0x26,0x47).
time:  0001c7c8:note off:         (0x89,0x36,0x47).
time:  0001c7c8:note off:         (0x89,0x2e,0x4d).
time:  0001c7c8:note off:         (0x89,0x33,0x4d).
time:  0001c7c8:note off:         (0x89,0x39,0x47).
time:  0001c7c8:note off:         (0x89,0x31,0x47).
time:  0001c818:note on:          (0x99,0x36,0x70).
time:  0001c818:note on:          (0x99,0x2e,0x7a).
time:  0001c818:note on:          (0x99,0x33,0x7a).
time:  0001c840:note off:         (0x89,0x36,0x47).
time:  0001c840:note off:         (0x89,0x2e,0x4d).
time:  0001c840:note off:         (0x89,0x33,0x4d).
time:  0001c890:note on:          (0x99,0x26,0x70).
time:  0001c890:note on:          (0x99,0x36,0x70).
time:  0001c890:note on:          (0x99,0x2e,0x7a).
time:  0001c890:note on:          (0x99,0x33,0x7a).
time:  0001c890:note on:          (0x99,0x39,0x70).
time:  0001c890:note on:          (0x99,0x31,0x70).
time:  0001c8b8:note off:         (0x89,0x26,0x47).
time:  0001c8b8:note off:         (0x89,0x36,0x47).
time:  0001c8b8:note off:         (0x89,0x2e,0x4d).
time:  0001c8b8:note off:         (0x89,0x33,0x4d).
time:  0001c8b8:note off:         (0x89,0x39,0x47).
time:  0001c8b8:note off:         (0x89,0x31,0x47).
time:  0001c8cc:note on:          (0x99,0x26,0x70).
time:  0001c8f4:note off:         (0x89,0x26,0x47).
time:  0001c908:note on:          (0x99,0x24,0x70).
time:  0001c908:note on:          (0x99,0x36,0x70).
time:  0001c908:note on:          (0x99,0x2e,0x7a).
time:  0001c908:note on:          (0x99,0x33,0x7a).
time:  0001c930:note off:         (0x89,0x24,0x47).
time:  0001c930:note off:         (0x89,0x36,0x47).
time:  0001c930:note off:         (0x89,0x2e,0x4d).
time:  0001c930:note off:         (0x89,0x33,0x4d).
time:  0001c980:note on:          (0x99,0x26,0x70).
time:  0001c980:note on:          (0x99,0x36,0x70).
time:  0001c980:note on:          (0x99,0x2e,0x7a).
time:  0001c980:note on:          (0x99,0x33,0x7a).
time:  0001c980:note on:          (0x99,0x39,0x70).
time:  0001c980:note on:          (0x99,0x31,0x70).
time:  0001c9a8:note off:         (0x89,0x26,0x47).
time:  0001c9a8:note off:         (0x89,0x36,0x47).
time:  0001c9a8:note off:         (0x89,0x2e,0x4d).
time:  0001c9a8:note off:         (0x89,0x33,0x4d).
time:  0001c9a8:note off:         (0x89,0x39,0x47).
time:  0001c9a8:note off:         (0x89,0x31,0x47).
time:  0001c9bc:note on:          (0x99,0x26,0x70).
time:  0001c9e4:note off:         (0x89,0x26,0x47).
time:  0001c9f8:note on:          (0x99,0x24,0x70).
time:  0001c9f8:note on:          (0x99,0x36,0x70).
time:  0001c9f8:note on:          (0x99,0x2e,0x7a).
time:  0001c9f8:note on:          (0x99,0x33,0x7a).
time:  0001ca20:note off:         (0x89,0x24,0x47).
time:  0001ca20:note off:         (0x89,0x36,0x47).
time:  0001ca20:note off:         (0x89,0x2e,0x4d).
time:  0001ca20:note off:         (0x89,0x33,0x4d).
time:  0001ca70:note on:          (0x99,0x24,0x70).
time:  0001ca70:note on:          (0x99,0x26,0x70).
time:  0001ca70:note on:          (0x99,0x36,0x70).
time:  0001ca70:note on:          (0x99,0x2e,0x7a).
time:  0001ca70:note on:          (0x99,0x33,0x7a).
time:  0001ca70:note on:          (0x99,0x39,0x70).
time:  0001ca70:note on:          (0x99,0x31,0x70).
time:  0001ca70:note on:          (0x99,0x23,0x70).
time:  0001ca98:note off:         (0x89,0x24,0x47).
time:  0001ca98:note off:         (0x89,0x26,0x47).
time:  0001ca98:note off:         (0x89,0x36,0x47).
time:  0001ca98:note off:         (0x89,0x2e,0x4d).
time:  0001ca98:note off:         (0x89,0x33,0x4d).
time:  0001ca98:note off:         (0x89,0x39,0x47).
time:  0001ca98:note off:         (0x89,0x31,0x47).
time:  0001ca98:note off:         (0x89,0x23,0x47).
time:  0001cae8:note on:          (0x99,0x36,0x70).
time:  0001cae8:note on:          (0x99,0x2e,0x7a).
time:  0001cae8:note on:          (0x99,0x33,0x7a).
time:  0001cb10:note off:         (0x89,0x36,0x47).
time:  0001cb10:note off:         (0x89,0x2e,0x4d).
time:  0001cb10:note off:         (0x89,0x33,0x4d).
time:  0001cb60:note on:          (0x99,0x24,0x70).
time:  0001cb60:note on:          (0x99,0x26,0x70).
time:  0001cb60:note on:          (0x99,0x36,0x70).
time:  0001cb60:note on:          (0x99,0x2e,0x7a).
time:  0001cb60:note on:          (0x99,0x33,0x7a).
time:  0001cb60:note on:          (0x99,0x39,0x70).
time:  0001cb60:note on:          (0x99,0x31,0x70).
time:  0001cb60:note on:          (0x99,0x23,0x70).
time:  0001cb88:note off:         (0x89,0x24,0x47).
time:  0001cb88:note off:         (0x89,0x26,0x47).
time:  0001cb88:note off:         (0x89,0x36,0x47).
time:  0001cb88:note off:         (0x89,0x2e,0x4d).
time:  0001cb88:note off:         (0x89,0x33,0x4d).
time:  0001cb88:note off:         (0x89,0x39,0x47).
time:  0001cb88:note off:         (0x89,0x31,0x47).
time:  0001cb88:note off:         (0x89,0x23,0x47).
time:  0001cbd8:note on:          (0x99,0x36,0x70).
time:  0001cbd8:note on:          (0x99,0x2e,0x7a).
time:  0001cbd8:note on:          (0x99,0x33,0x7a).
time:  0001cc00:note off:         (0x89,0x36,0x47).
time:  0001cc00:note off:         (0x89,0x2e,0x4d).
time:  0001cc00:note off:         (0x89,0x33,0x4d).
time:  0001cc50:note on:          (0x99,0x26,0x70).
time:  0001cc50:note on:          (0x99,0x36,0x70).
time:  0001cc50:note on:          (0x99,0x2e,0x7a).
time:  0001cc50:note on:          (0x99,0x33,0x7a).
time:  0001cc50:note on:          (0x99,0x39,0x70).
time:  0001cc50:note on:          (0x99,0x31,0x70).
time:  0001cc78:note off:         (0x89,0x26,0x47).
time:  0001cc78:note off:         (0x89,0x36,0x47).
time:  0001cc78:note off:         (0x89,0x2e,0x4d).
time:  0001cc78:note off:         (0x89,0x33,0x4d).
time:  0001cc78:note off:         (0x89,0x39,0x47).
time:  0001cc78:note off:         (0x89,0x31,0x47).
time:  0001cc8c:note on:          (0x99,0x26,0x70).
time:  0001ccb4:note off:         (0x89,0x26,0x47).
time:  0001ccc8:note on:          (0x99,0x24,0x70).
time:  0001ccc8:note on:          (0x99,0x23,0x70).
time:  0001ccc8:note on:          (0x99,0x36,0x70).
time:  0001ccc8:note on:          (0x99,0x2e,0x7a).
time:  0001ccc8:note on:          (0x99,0x33,0x7a).
time:  0001ccf0:note off:         (0x89,0x24,0x47).
time:  0001ccf0:note off:         (0x89,0x23,0x47).
time:  0001ccf0:note off:         (0x89,0x36,0x47).
time:  0001ccf0:note off:         (0x89,0x2e,0x4d).
time:  0001ccf0:note off:         (0x89,0x33,0x4d).
time:  0001cd40:note on:          (0x99,0x26,0x70).
time:  0001cd40:note on:          (0x99,0x36,0x70).
time:  0001cd40:note on:          (0x99,0x2e,0x7a).
time:  0001cd40:note on:          (0x99,0x33,0x7a).
time:  0001cd40:note on:          (0x99,0x39,0x70).
time:  0001cd40:note on:          (0x99,0x31,0x70).
time:  0001cd68:note off:         (0x89,0x26,0x47).
time:  0001cd68:note off:         (0x89,0x36,0x47).
time:  0001cd68:note off:         (0x89,0x2e,0x4d).
time:  0001cd68:note off:         (0x89,0x33,0x4d).
time:  0001cd68:note off:         (0x89,0x39,0x47).
time:  0001cd68:note off:         (0x89,0x31,0x47).
time:  0001cd7c:note on:          (0x99,0x26,0x70).
time:  0001cda4:note off:         (0x89,0x26,0x47).
time:  0001cdb8:note on:          (0x99,0x23,0x70).
time:  0001cdb8:note on:          (0x99,0x24,0x70).
time:  0001cdb8:note on:          (0x99,0x36,0x70).
time:  0001cdb8:note on:          (0x99,0x2e,0x7a).
time:  0001cdb8:note on:          (0x99,0x33,0x7a).
time:  0001cde0:note off:         (0x89,0x23,0x47).
time:  0001cde0:note off:         (0x89,0x24,0x47).
time:  0001cde0:note off:         (0x89,0x36,0x47).
time:  0001cde0:note off:         (0x89,0x2e,0x4d).
time:  0001cde0:note off:         (0x89,0x33,0x4d).
time:  0001ce30:note on:          (0x99,0x24,0x70).
time:  0001ce30:note on:          (0x99,0x26,0x70).
time:  0001ce30:note on:          (0x99,0x36,0x70).
time:  0001ce30:note on:          (0x99,0x2e,0x7a).
time:  0001ce30:note on:          (0x99,0x33,0x7a).
time:  0001ce30:note on:          (0x99,0x39,0x70).
time:  0001ce30:note on:          (0x99,0x31,0x70).
time:  0001ce58:note off:         (0x89,0x24,0x47).
time:  0001ce58:note off:         (0x89,0x26,0x47).
time:  0001ce58:note off:         (0x89,0x36,0x47).
time:  0001ce58:note off:         (0x89,0x2e,0x4d).
time:  0001ce58:note off:         (0x89,0x33,0x4d).
time:  0001ce58:note off:         (0x89,0x39,0x47).
time:  0001ce58:note off:         (0x89,0x31,0x47).
time:  0001cea8:note on:          (0x99,0x36,0x70).
time:  0001cea8:note on:          (0x99,0x2e,0x7a).
time:  0001cea8:note on:          (0x99,0x33,0x7a).
time:  0001ced0:note off:         (0x89,0x36,0x47).
time:  0001ced0:note off:         (0x89,0x2e,0x4d).
time:  0001ced0:note off:         (0x89,0x33,0x4d).
time:  0001cf20:note on:          (0x99,0x24,0x70).
time:  0001cf20:note on:          (0x99,0x26,0x70).
time:  0001cf20:note on:          (0x99,0x36,0x70).
time:  0001cf20:note on:          (0x99,0x2e,0x7a).
time:  0001cf20:note on:          (0x99,0x33,0x7a).
time:  0001cf20:note on:          (0x99,0x39,0x70).
time:  0001cf20:note on:          (0x99,0x31,0x70).
time:  0001cf48:note off:         (0x89,0x24,0x47).
time:  0001cf48:note off:         (0x89,0x26,0x47).
time:  0001cf48:note off:         (0x89,0x36,0x47).
time:  0001cf48:note off:         (0x89,0x2e,0x4d).
time:  0001cf48:note off:         (0x89,0x33,0x4d).
time:  0001cf48:note off:         (0x89,0x39,0x47).
time:  0001cf48:note off:         (0x89,0x31,0x47).
time:  0001cf98:note on:          (0x99,0x36,0x70).
time:  0001cf98:note on:          (0x99,0x2e,0x7a).
time:  0001cf98:note on:          (0x99,0x33,0x7a).
time:  0001cfc0:note off:         (0x89,0x36,0x47).
time:  0001cfc0:note off:         (0x89,0x2e,0x4d).
time:  0001cfc0:note off:         (0x89,0x33,0x4d).
time:  0001d010:note on:          (0x99,0x26,0x70).
time:  0001d010:note on:          (0x99,0x36,0x70).
time:  0001d010:note on:          (0x99,0x2e,0x7a).
time:  0001d010:note on:          (0x99,0x33,0x7a).
time:  0001d010:note on:          (0x99,0x39,0x70).
time:  0001d010:note on:          (0x99,0x31,0x70).
time:  0001d038:note off:         (0x89,0x26,0x47).
time:  0001d038:note off:         (0x89,0x36,0x47).
time:  0001d038:note off:         (0x89,0x2e,0x4d).
time:  0001d038:note off:         (0x89,0x33,0x4d).
time:  0001d038:note off:         (0x89,0x39,0x47).
time:  0001d038:note off:         (0x89,0x31,0x47).
time:  0001d04c:note on:          (0x99,0x26,0x70).
time:  0001d074:note off:         (0x89,0x26,0x47).
time:  0001d088:note on:          (0x99,0x24,0x70).
time:  0001d088:note on:          (0x99,0x23,0x70).
time:  0001d088:note on:          (0x99,0x36,0x70).
time:  0001d088:note on:          (0x99,0x2e,0x7a).
time:  0001d088:note on:          (0x99,0x33,0x7a).
time:  0001d0b0:note off:         (0x89,0x24,0x47).
time:  0001d0b0:note off:         (0x89,0x23,0x47).
time:  0001d0b0:note off:         (0x89,0x36,0x47).
time:  0001d0b0:note off:         (0x89,0x2e,0x4d).
time:  0001d0b0:note off:         (0x89,0x33,0x4d).
time:  0001d100:note on:          (0x99,0x26,0x70).
time:  0001d100:note on:          (0x99,0x36,0x70).
time:  0001d100:note on:          (0x99,0x2e,0x7a).
time:  0001d100:note on:          (0x99,0x33,0x7a).
time:  0001d100:note on:          (0x99,0x39,0x70).
time:  0001d100:note on:          (0x99,0x31,0x70).
time:  0001d128:note off:         (0x89,0x26,0x47).
time:  0001d128:note off:         (0x89,0x36,0x47).
time:  0001d128:note off:         (0x89,0x2e,0x4d).
time:  0001d128:note off:         (0x89,0x33,0x4d).
time:  0001d128:note off:         (0x89,0x39,0x47).
time:  0001d128:note off:         (0x89,0x31,0x47).
time:  0001d13c:note on:          (0x99,0x26,0x70).
time:  0001d164:note off:         (0x89,0x26,0x47).
time:  0001d178:note on:          (0x99,0x23,0x70).
time:  0001d178:note on:          (0x99,0x24,0x70).
time:  0001d178:note on:          (0x99,0x36,0x70).
time:  0001d178:note on:          (0x99,0x2e,0x7a).
time:  0001d178:note on:          (0x99,0x33,0x7a).
time:  0001d1a0:note off:         (0x89,0x23,0x47).
time:  0001d1a0:note off:         (0x89,0x24,0x47).
time:  0001d1a0:note off:         (0x89,0x36,0x47).
time:  0001d1a0:note off:         (0x89,0x2e,0x4d).
time:  0001d1a0:note off:         (0x89,0x33,0x4d).
time:  0001d1f0:note on:          (0x99,0x24,0x70).
time:  0001d1f0:note on:          (0x99,0x26,0x70).
time:  0001d1f0:note on:          (0x99,0x36,0x70).
time:  0001d1f0:note on:          (0x99,0x2e,0x7a).
time:  0001d1f0:note on:          (0x99,0x33,0x7a).
time:  0001d1f0:note on:          (0x99,0x39,0x70).
time:  0001d1f0:note on:          (0x99,0x31,0x70).
time:  0001d1f0:note on:          (0x99,0x23,0x70).
time:  0001d218:note off:         (0x89,0x24,0x47).
time:  0001d218:note off:         (0x89,0x26,0x47).
time:  0001d218:note off:         (0x89,0x36,0x47).
time:  0001d218:note off:         (0x89,0x2e,0x4d).
time:  0001d218:note off:         (0x89,0x33,0x4d).
time:  0001d218:note off:         (0x89,0x39,0x47).
time:  0001d218:note off:         (0x89,0x31,0x47).
time:  0001d218:note off:         (0x89,0x23,0x47).
time:  0001d268:note on:          (0x99,0x36,0x70).
time:  0001d268:note on:          (0x99,0x2e,0x7a).
time:  0001d268:note on:          (0x99,0x33,0x7a).
time:  0001d290:note off:         (0x89,0x36,0x47).
time:  0001d290:note off:         (0x89,0x2e,0x4d).
time:  0001d290:note off:         (0x89,0x33,0x4d).
time:  0001d2e0:note on:          (0x99,0x24,0x70).
time:  0001d2e0:note on:          (0x99,0x26,0x70).
time:  0001d2e0:note on:          (0x99,0x36,0x70).
time:  0001d2e0:note on:          (0x99,0x2e,0x7a).
time:  0001d2e0:note on:          (0x99,0x33,0x7a).
time:  0001d2e0:note on:          (0x99,0x39,0x70).
time:  0001d2e0:note on:          (0x99,0x31,0x70).
time:  0001d2e0:note on:          (0x99,0x23,0x70).
time:  0001d308:note off:         (0x89,0x24,0x47).
time:  0001d308:note off:         (0x89,0x26,0x47).
time:  0001d308:note off:         (0x89,0x36,0x47).
time:  0001d308:note off:         (0x89,0x2e,0x4d).
time:  0001d308:note off:         (0x89,0x33,0x4d).
time:  0001d308:note off:         (0x89,0x39,0x47).
time:  0001d308:note off:         (0x89,0x31,0x47).
time:  0001d308:note off:         (0x89,0x23,0x47).
time:  0001d358:note on:          (0x99,0x36,0x70).
time:  0001d358:note on:          (0x99,0x2e,0x7a).
time:  0001d358:note on:          (0x99,0x33,0x7a).
time:  0001d380:note off:         (0x89,0x36,0x47).
time:  0001d380:note off:         (0x89,0x2e,0x4d).
time:  0001d380:note off:         (0x89,0x33,0x4d).
time:  0001d3d0:note on:          (0x99,0x36,0x70).
time:  0001d3d0:note on:          (0x99,0x2e,0x7a).
time:  0001d3d0:note on:          (0x99,0x33,0x7a).
time:  0001d3d0:note on:          (0x99,0x39,0x70).
time:  0001d3d0:note on:          (0x99,0x31,0x70).
time:  0001d3d0:note on:          (0x99,0x24,0x70).
time:  0001d3d0:note on:          (0x99,0x26,0x70).
time:  0001d3d0:note on:          (0x99,0x23,0x70).
time:  0001d3f8:note off:         (0x89,0x36,0x47).
time:  0001d3f8:note off:         (0x89,0x2e,0x4d).
time:  0001d3f8:note off:         (0x89,0x33,0x4d).
time:  0001d3f8:note off:         (0x89,0x39,0x47).
time:  0001d3f8:note off:         (0x89,0x31,0x47).
time:  0001d3f8:note off:         (0x89,0x24,0x47).
time:  0001d3f8:note off:         (0x89,0x26,0x47).
time:  0001d3f8:note off:         (0x89,0x23,0x47).
time:  0001d448:note on:          (0x99,0x36,0x70).
time:  0001d448:note on:          (0x99,0x2e,0x7a).
time:  0001d448:note on:          (0x99,0x33,0x7a).
time:  0001d470:note off:         (0x89,0x36,0x47).
time:  0001d470:note off:         (0x89,0x2e,0x4d).
time:  0001d470:note off:         (0x89,0x33,0x4d).
time:  0001d4c0:note on:          (0x99,0x36,0x70).
time:  0001d4c0:note on:          (0x99,0x2e,0x7a).
time:  0001d4c0:note on:          (0x99,0x33,0x7a).
time:  0001d4c0:note on:          (0x99,0x39,0x70).
time:  0001d4c0:note on:          (0x99,0x31,0x70).
time:  0001d4c0:note on:          (0x99,0x26,0x70).
time:  0001d4c0:note on:          (0x99,0x24,0x70).
time:  0001d4c0:note on:          (0x99,0x23,0x70).
time:  0001d4e8:note off:         (0x89,0x36,0x47).
time:  0001d4e8:note off:         (0x89,0x2e,0x4d).
time:  0001d4e8:note off:         (0x89,0x33,0x4d).
time:  0001d4e8:note off:         (0x89,0x39,0x47).
time:  0001d4e8:note off:         (0x89,0x31,0x47).
time:  0001d4e8:note off:         (0x89,0x26,0x47).
time:  0001d4e8:note off:         (0x89,0x24,0x47).
time:  0001d4e8:note off:         (0x89,0x23,0x47).
time:  0001d538:note on:          (0x99,0x36,0x70).
time:  0001d538:note on:          (0x99,0x2e,0x7a).
time:  0001d538:note on:          (0x99,0x33,0x7a).
time:  0001d560:note off:         (0x89,0x36,0x47).
time:  0001d560:note off:         (0x89,0x2e,0x4d).
time:  0001d560:note off:         (0x89,0x33,0x4d).
time:  0001d5b0:note on:          (0x99,0x36,0x70).
time:  0001d5b0:note on:          (0x99,0x2e,0x7a).
time:  0001d5b0:note on:          (0x99,0x33,0x7a).
time:  0001d5b0:note on:          (0x99,0x39,0x70).
time:  0001d5b0:note on:          (0x99,0x31,0x70).
time:  0001d5b0:note on:          (0x99,0x24,0x70).
time:  0001d5b0:note on:          (0x99,0x26,0x70).
time:  0001d5b0:note on:          (0x99,0x23,0x70).
time:  0001d5d8:note off:         (0x89,0x36,0x47).
time:  0001d5d8:note off:         (0x89,0x2e,0x4d).
time:  0001d5d8:note off:         (0x89,0x33,0x4d).
time:  0001d5d8:note off:         (0x89,0x39,0x47).
time:  0001d5d8:note off:         (0x89,0x31,0x47).
time:  0001d5d8:note off:         (0x89,0x24,0x47).
time:  0001d5d8:note off:         (0x89,0x26,0x47).
time:  0001d5d8:note off:         (0x89,0x23,0x47).
time:  0001d628:note on:          (0x99,0x36,0x70).
time:  0001d628:note on:          (0x99,0x2e,0x7a).
time:  0001d628:note on:          (0x99,0x33,0x7a).
time:  0001d650:note off:         (0x89,0x36,0x47).
time:  0001d650:note off:         (0x89,0x2e,0x4d).
time:  0001d650:note off:         (0x89,0x33,0x4d).
time:  0001d6a0:note on:          (0x99,0x36,0x70).
time:  0001d6a0:note on:          (0x99,0x2e,0x7a).
time:  0001d6a0:note on:          (0x99,0x33,0x7a).
time:  0001d6a0:note on:          (0x99,0x39,0x70).
time:  0001d6a0:note on:          (0x99,0x31,0x70).
time:  0001d6a0:note on:          (0x99,0x24,0x70).
time:  0001d6a0:note on:          (0x99,0x26,0x70).
time:  0001d6a0:note on:          (0x99,0x23,0x70).
time:  0001d6c8:note off:         (0x89,0x36,0x47).
time:  0001d6c8:note off:         (0x89,0x2e,0x4d).
time:  0001d6c8:note off:         (0x89,0x33,0x4d).
time:  0001d6c8:note off:         (0x89,0x39,0x47).
time:  0001d6c8:note off:         (0x89,0x31,0x47).
time:  0001d6c8:note off:         (0x89,0x24,0x47).
time:  0001d6c8:note off:         (0x89,0x26,0x47).
time:  0001d6c8:note off:         (0x89,0x23,0x47).
time:  0001d718:note on:          (0x99,0x36,0x70).
time:  0001d718:note on:          (0x99,0x2e,0x7a).
time:  0001d718:note on:          (0x99,0x33,0x7a).
time:  0001d740:note off:         (0x89,0x36,0x47).
time:  0001d740:note off:         (0x89,0x2e,0x4d).
time:  0001d740:note off:         (0x89,0x33,0x4d).
time:  0001d790:note on:          (0x99,0x36,0x70).
time:  0001d790:note on:          (0x99,0x2e,0x7a).
time:  0001d790:note on:          (0x99,0x33,0x7a).
time:  0001d790:note on:          (0x99,0x39,0x70).
time:  0001d790:note on:          (0x99,0x31,0x70).
time:  0001d790:note on:          (0x99,0x24,0x70).
time:  0001d790:note on:          (0x99,0x26,0x70).
time:  0001d790:note on:          (0x99,0x23,0x70).
time:  0001d7b8:note off:         (0x89,0x36,0x47).
time:  0001d7b8:note off:         (0x89,0x2e,0x4d).
time:  0001d7b8:note off:         (0x89,0x33,0x4d).
time:  0001d7b8:note off:         (0x89,0x39,0x47).
time:  0001d7b8:note off:         (0x89,0x31,0x47).
time:  0001d7b8:note off:         (0x89,0x24,0x47).
time:  0001d7b8:note off:         (0x89,0x26,0x47).
time:  0001d7b8:note off:         (0x89,0x23,0x47).
time:  0001d808:note on:          (0x99,0x36,0x70).
time:  0001d808:note on:          (0x99,0x2e,0x7a).
time:  0001d808:note on:          (0x99,0x33,0x7a).
time:  0001d830:note off:         (0x89,0x36,0x47).
time:  0001d830:note off:         (0x89,0x2e,0x4d).
time:  0001d830:note off:         (0x89,0x33,0x4d).
time:  0001d880:note on:          (0x99,0x36,0x70).
time:  0001d880:note on:          (0x99,0x2e,0x7a).
time:  0001d880:note on:          (0x99,0x33,0x7a).
time:  0001d880:note on:          (0x99,0x39,0x70).
time:  0001d880:note on:          (0x99,0x31,0x70).
time:  0001d880:note on:          (0x99,0x26,0x70).
time:  0001d880:note on:          (0x99,0x24,0x70).
time:  0001d880:note on:          (0x99,0x23,0x70).
time:  0001d8a8:note off:         (0x89,0x36,0x47).
time:  0001d8a8:note off:         (0x89,0x2e,0x4d).
time:  0001d8a8:note off:         (0x89,0x33,0x4d).
time:  0001d8a8:note off:         (0x89,0x39,0x47).
time:  0001d8a8:note off:         (0x89,0x31,0x47).
time:  0001d8a8:note off:         (0x89,0x26,0x47).
time:  0001d8a8:note off:         (0x89,0x24,0x47).
time:  0001d8a8:note off:         (0x89,0x23,0x47).
time:  0001d8f8:note on:          (0x99,0x36,0x70).
time:  0001d8f8:note on:          (0x99,0x2e,0x7a).
time:  0001d8f8:note on:          (0x99,0x33,0x7a).
time:  0001d920:note off:         (0x89,0x36,0x47).
time:  0001d920:note off:         (0x89,0x2e,0x4d).
time:  0001d920:note off:         (0x89,0x33,0x4d).
time:  0001d970:note on:          (0x99,0x36,0x70).
time:  0001d970:note on:          (0x99,0x2e,0x7a).
time:  0001d970:note on:          (0x99,0x33,0x7a).
time:  0001d970:note on:          (0x99,0x39,0x70).
time:  0001d970:note on:          (0x99,0x31,0x70).
time:  0001d970:note on:          (0x99,0x24,0x70).
time:  0001d970:note on:          (0x99,0x26,0x70).
time:  0001d970:note on:          (0x99,0x23,0x70).
time:  0001d998:note off:         (0x89,0x36,0x47).
time:  0001d998:note off:         (0x89,0x2e,0x4d).
time:  0001d998:note off:         (0x89,0x33,0x4d).
time:  0001d998:note off:         (0x89,0x39,0x47).
time:  0001d998:note off:         (0x89,0x31,0x47).
time:  0001d998:note off:         (0x89,0x24,0x47).
time:  0001d998:note off:         (0x89,0x26,0x47).
time:  0001d998:note off:         (0x89,0x23,0x47).
time:  0001d9e8:note on:          (0x99,0x36,0x70).
time:  0001d9e8:note on:          (0x99,0x2e,0x7a).
time:  0001d9e8:note on:          (0x99,0x33,0x7a).
time:  0001da10:note off:         (0x89,0x36,0x47).
time:  0001da10:note off:         (0x89,0x2e,0x4d).
time:  0001da10:note off:         (0x89,0x33,0x4d).
time:  0001da60:note on:          (0x99,0x36,0x70).
time:  0001da60:note on:          (0x99,0x2e,0x7a).
time:  0001da60:note on:          (0x99,0x33,0x7a).
time:  0001da60:note on:          (0x99,0x39,0x70).
time:  0001da60:note on:          (0x99,0x31,0x70).
time:  0001da60:note on:          (0x99,0x24,0x70).
time:  0001da60:note on:          (0x99,0x26,0x70).
time:  0001da60:note on:          (0x99,0x23,0x70).
time:  0001da88:note off:         (0x89,0x36,0x47).
time:  0001da88:note off:         (0x89,0x2e,0x4d).
time:  0001da88:note off:         (0x89,0x33,0x4d).
time:  0001da88:note off:         (0x89,0x39,0x47).
time:  0001da88:note off:         (0x89,0x31,0x47).
time:  0001da88:note off:         (0x89,0x24,0x47).
time:  0001da88:note off:         (0x89,0x26,0x47).
time:  0001da88:note off:         (0x89,0x23,0x47).
time:  0001dad8:note on:          (0x99,0x36,0x70).
time:  0001dad8:note on:          (0x99,0x2e,0x7a).
time:  0001dad8:note on:          (0x99,0x33,0x7a).
time:  0001db00:note off:         (0x89,0x36,0x47).
time:  0001db00:note off:         (0x89,0x2e,0x4d).
time:  0001db00:note off:         (0x89,0x33,0x4d).
time:  0001db50:note on:          (0x99,0x36,0x70).
time:  0001db50:note on:          (0x99,0x2e,0x7a).
time:  0001db50:note on:          (0x99,0x33,0x7a).
time:  0001db50:note on:          (0x99,0x39,0x70).
time:  0001db50:note on:          (0x99,0x31,0x70).
time:  0001db50:note on:          (0x99,0x24,0x70).
time:  0001db50:note on:          (0x99,0x26,0x70).
time:  0001db50:note on:          (0x99,0x23,0x70).
time:  0001db78:note off:         (0x89,0x36,0x47).
time:  0001db78:note off:         (0x89,0x2e,0x4d).
time:  0001db78:note off:         (0x89,0x33,0x4d).
time:  0001db78:note off:         (0x89,0x39,0x47).
time:  0001db78:note off:         (0x89,0x31,0x47).
time:  0001db78:note off:         (0x89,0x24,0x47).
time:  0001db78:note off:         (0x89,0x26,0x47).
time:  0001db78:note off:         (0x89,0x23,0x47).
time:  0001dbc8:note on:          (0x99,0x36,0x70).
time:  0001dbc8:note on:          (0x99,0x2e,0x7a).
time:  0001dbc8:note on:          (0x99,0x33,0x7a).
time:  0001dbf0:note off:         (0x89,0x36,0x47).
time:  0001dbf0:note off:         (0x89,0x2e,0x4d).
time:  0001dbf0:note off:         (0x89,0x33,0x4d).
time:  0001dc40:note on:          (0x99,0x36,0x70).
time:  0001dc40:note on:          (0x99,0x2e,0x7a).
time:  0001dc40:note on:          (0x99,0x33,0x7a).
time:  0001dc40:note on:          (0x99,0x39,0x70).
time:  0001dc40:note on:          (0x99,0x31,0x70).
time:  0001dc40:note on:          (0x99,0x26,0x70).
time:  0001dc40:note on:          (0x99,0x24,0x70).
time:  0001dc40:note on:          (0x99,0x23,0x70).
time:  0001dc68:note off:         (0x89,0x36,0x47).
time:  0001dc68:note off:         (0x89,0x2e,0x4d).
time:  0001dc68:note off:         (0x89,0x33,0x4d).
time:  0001dc68:note off:         (0x89,0x39,0x47).
time:  0001dc68:note off:         (0x89,0x31,0x47).
time:  0001dc68:note off:         (0x89,0x26,0x47).
time:  0001dc68:note off:         (0x89,0x24,0x47).
time:  0001dc68:note off:         (0x89,0x23,0x47).
time:  0001dcb8:note on:          (0x99,0x36,0x70).
time:  0001dcb8:note on:          (0x99,0x2e,0x7a).
time:  0001dcb8:note on:          (0x99,0x33,0x7a).
time:  0001dce0:note off:         (0x89,0x36,0x47).
time:  0001dce0:note off:         (0x89,0x2e,0x4d).
time:  0001dce0:note off:         (0x89,0x33,0x4d).
time:  0001dd30:note on:          (0x99,0x36,0x70).
time:  0001dd30:note on:          (0x99,0x2e,0x7a).
time:  0001dd30:note on:          (0x99,0x33,0x7a).
time:  0001dd30:note on:          (0x99,0x39,0x70).
time:  0001dd30:note on:          (0x99,0x31,0x70).
time:  0001dd30:note on:          (0x99,0x24,0x70).
time:  0001dd30:note on:          (0x99,0x26,0x70).
time:  0001dd30:note on:          (0x99,0x23,0x70).
time:  0001dd58:note off:         (0x89,0x36,0x47).
time:  0001dd58:note off:         (0x89,0x2e,0x4d).
time:  0001dd58:note off:         (0x89,0x33,0x4d).
time:  0001dd58:note off:         (0x89,0x39,0x47).
time:  0001dd58:note off:         (0x89,0x31,0x47).
time:  0001dd58:note off:         (0x89,0x24,0x47).
time:  0001dd58:note off:         (0x89,0x26,0x47).
time:  0001dd58:note off:         (0x89,0x23,0x47).
time:  0001dda8:note on:          (0x99,0x36,0x70).
time:  0001dda8:note on:          (0x99,0x2e,0x7a).
time:  0001dda8:note on:          (0x99,0x33,0x7a).
time:  0001ddd0:note off:         (0x89,0x36,0x47).
time:  0001ddd0:note off:         (0x89,0x2e,0x4d).
time:  0001ddd0:note off:         (0x89,0x33,0x4d).
time:  0001de20:note on:          (0x99,0x36,0x70).
time:  0001de20:note on:          (0x99,0x2e,0x7a).
time:  0001de20:note on:          (0x99,0x33,0x7a).
time:  0001de20:note on:          (0x99,0x39,0x70).
time:  0001de20:note on:          (0x99,0x31,0x70).
time:  0001de20:note on:          (0x99,0x24,0x70).
time:  0001de20:note on:          (0x99,0x26,0x70).
time:  0001de20:note on:          (0x99,0x23,0x70).
time:  0001de48:note off:         (0x89,0x36,0x47).
time:  0001de48:note off:         (0x89,0x2e,0x4d).
time:  0001de48:note off:         (0x89,0x33,0x4d).
time:  0001de48:note off:         (0x89,0x39,0x47).
time:  0001de48:note off:         (0x89,0x31,0x47).
time:  0001de48:note off:         (0x89,0x24,0x47).
time:  0001de48:note off:         (0x89,0x26,0x47).
time:  0001de48:note off:         (0x89,0x23,0x47).
time:  0001de98:note on:          (0x99,0x36,0x70).
time:  0001de98:note on:          (0x99,0x2e,0x7a).
time:  0001de98:note on:          (0x99,0x33,0x7a).
time:  0001dec0:note off:         (0x89,0x36,0x47).
time:  0001dec0:note off:         (0x89,0x2e,0x4d).
time:  0001dec0:note off:         (0x89,0x33,0x4d).
time:  0001df10:note on:          (0x99,0x36,0x70).
time:  0001df10:note on:          (0x99,0x2e,0x7a).
time:  0001df10:note on:          (0x99,0x33,0x7a).
time:  0001df10:note on:          (0x99,0x39,0x70).
time:  0001df10:note on:          (0x99,0x31,0x70).
time:  0001df10:note on:          (0x99,0x24,0x70).
time:  0001df10:note on:          (0x99,0x26,0x70).
time:  0001df10:note on:          (0x99,0x23,0x70).
time:  0001df38:note off:         (0x89,0x36,0x47).
time:  0001df38:note off:         (0x89,0x2e,0x4d).
time:  0001df38:note off:         (0x89,0x33,0x4d).
time:  0001df38:note off:         (0x89,0x39,0x47).
time:  0001df38:note off:         (0x89,0x31,0x47).
time:  0001df38:note off:         (0x89,0x24,0x47).
time:  0001df38:note off:         (0x89,0x26,0x47).
time:  0001df38:note off:         (0x89,0x23,0x47).
time:  0001df88:note on:          (0x99,0x36,0x70).
time:  0001df88:note on:          (0x99,0x2e,0x7a).
time:  0001df88:note on:          (0x99,0x33,0x7a).
time:  0001dfb0:note off:         (0x89,0x36,0x47).
time:  0001dfb0:note off:         (0x89,0x2e,0x4d).
time:  0001dfb0:note off:         (0x89,0x33,0x4d).
time:  0001e000:note on:          (0x99,0x36,0x70).
time:  0001e000:note on:          (0x99,0x2e,0x7a).
time:  0001e000:note on:          (0x99,0x33,0x7a).
time:  0001e000:note on:          (0x99,0x39,0x70).
time:  0001e000:note on:          (0x99,0x31,0x70).
time:  0001e000:note on:          (0x99,0x26,0x70).
time:  0001e000:note on:          (0x99,0x24,0x70).
time:  0001e000:note on:          (0x99,0x23,0x70).
time:  0001e028:note off:         (0x89,0x36,0x47).
time:  0001e028:note off:         (0x89,0x2e,0x4d).
time:  0001e028:note off:         (0x89,0x33,0x4d).
time:  0001e028:note off:         (0x89,0x39,0x47).
time:  0001e028:note off:         (0x89,0x31,0x47).
time:  0001e028:note off:         (0x89,0x26,0x47).
time:  0001e028:note off:         (0x89,0x24,0x47).
time:  0001e028:note off:         (0x89,0x23,0x47).
time:  0001e03c:note on:          (0x99,0x26,0x70).
time:  0001e03c:note on:          (0x99,0x24,0x70).
time:  0001e03c:note on:          (0x99,0x39,0x70).
time:  0001e064:note off:         (0x89,0x26,0x47).
time:  0001e064:note off:         (0x89,0x24,0x47).
time:  0001e064:note off:         (0x89,0x39,0x47).
time:  0001e078:note on:          (0x99,0x36,0x70).
time:  0001e078:note on:          (0x99,0x2e,0x7a).
time:  0001e078:note on:          (0x99,0x33,0x7a).
time:  0001e078:note on:          (0x99,0x26,0x70).
time:  0001e078:note on:          (0x99,0x24,0x70).
time:  0001e078:note on:          (0x99,0x23,0x70).
time:  0001e078:note on:          (0x99,0x39,0x70).
time:  0001e0a0:note off:         (0x89,0x36,0x47).
time:  0001e0a0:note off:         (0x89,0x2e,0x4d).
time:  0001e0a0:note off:         (0x89,0x33,0x4d).
time:  0001e0a0:note off:         (0x89,0x26,0x47).
time:  0001e0a0:note off:         (0x89,0x24,0x47).
time:  0001e0a0:note off:         (0x89,0x23,0x47).
time:  0001e0a0:note off:         (0x89,0x39,0x47).
time:  0001e0b4:note on:          (0x99,0x26,0x70).
time:  0001e0b4:note on:          (0x99,0x24,0x70).
time:  0001e0b4:note on:          (0x99,0x39,0x70).
time:  0001e0dc:note off:         (0x89,0x26,0x47).
time:  0001e0dc:note off:         (0x89,0x24,0x47).
time:  0001e0dc:note off:         (0x89,0x39,0x47).
time:  0001e0f0:note on:          (0x99,0x39,0x70).
time:  0001e0f0:note on:          (0x99,0x2e,0x70).
time:  0001e0f0:note on:          (0x99,0x31,0x70).
time:  0001e0f0:note on:          (0x99,0x33,0x70).
time:  0001e0f0:note on:          (0x99,0x36,0x70).
time:  0001e0f0:note on:          (0x99,0x26,0x70).
time:  0001e0f0:note on:          (0x99,0x24,0x70).
time:  0001e0f0:note on:          (0x99,0x23,0x70).
time:  0001e118:note off:         (0x89,0x39,0x47).
time:  0001e118:note off:         (0x89,0x2e,0x47).
time:  0001e118:note off:         (0x89,0x31,0x47).
time:  0001e118:note off:         (0x89,0x33,0x47).
time:  0001e118:note off:         (0x89,0x36,0x47).
time:  0001e118:note off:         (0x89,0x26,0x47).
time:  0001e118:note off:         (0x89,0x24,0x47).
time:  0001e118:note off:         (0x89,0x23,0x47).
time:  0001e118:Special non-MIDI event: End of Track.
Track #7. (zero-based)
len    :0x0000001f.
time:  00000000:Special non-MIDI event: Text message type 0x03,len 0x17
Smells Like Teen Spirit
time:  00000000:Special non-MIDI event: End of Track.
Track #8. (zero-based)
len    :0x00000020.
time:  00000000:Special non-MIDI event: Text message type 0x03,len 0x18
Nirvana, Sub Pop,DGC '91
time:  00000000:Special non-MIDI event: End of Track.
Track #9. (zero-based)
len    :0x0000001d.
time:  00000000:Special non-MIDI event: Text message type 0x03,len 0x15
By: Anthony Peters by
time:  00000000:Special non-MIDI event: End of Track.
Track #10. (zero-based)
len    :0x00000018.
time:  00000000:Special non-MIDI event: Text message type 0x03,len 0x10
special request.
time:  00000000:Special non-MIDI event: End of Track.
